<?xml version="1.0" encoding="utf-8"?>
<!-- Generator: Adobe Illustrator 24.2.3, SVG Export Plug-In . SVG Version: 6.00 Build 0)  -->
<svg version="1.1" id="Layer_1" xmlns="http://www.w3.org/2000/svg" xmlns:xlink="http://www.w3.org/1999/xlink" x="0px" y="0px"
	 viewBox="0 0 2536 2536" style="enable-background:new 0 0 2536 2536;" xml:space="preserve">
<style type="text/css">
	.st0{fill:#505050;}
</style>
<g>
	<g id="circuit">
		<path class="st0" d="M852.3,1866.6c-100.9,0-182.9-82-182.9-182.9V852.3c0-100.9,82-182.9,182.9-182.9h831.4
			c100.9,0,182.9,82,182.9,182.9v831.4c0,100.9-82,182.9-182.9,182.9H852.3z M852.3,756.7c-52.7,0-95.6,42.9-95.6,95.6v831.4
			c0,52.7,42.9,95.6,95.6,95.6h831.4c52.7,0,95.6-42.9,95.6-95.6V852.3c0-52.7-42.9-95.6-95.6-95.6H852.3z"/>
		<path class="st0" d="M852.3,1856.6c-95.3,0-172.9-77.6-172.9-172.9V852.3c0-95.3,77.6-172.9,172.9-172.9h831.4
			c95.3,0,172.9,77.6,172.9,172.9v831.4c0,95.3-77.6,172.9-172.9,172.9H852.3z M852.3,746.7c-58.2,0-105.6,47.4-105.6,105.6v831.4
			c0,58.2,47.4,105.6,105.6,105.6h831.4c58.2,0,105.6-47.4,105.6-105.6V852.3c0-58.2-47.4-105.6-105.6-105.6H852.3z"/>
		<path class="st0" d="M1683.7,1848.6H852.3c-90.9,0-164.9-74-164.9-164.9V852.3c0-90.9,74-164.9,164.9-164.9h831.4
			c90.9,0,164.9,74,164.9,164.9v831.4C1848.6,1774.7,1774.7,1848.6,1683.7,1848.6z M852.3,738.7c-62.6,0-113.6,50.9-113.6,113.6
			v831.4c0,62.6,50.9,113.6,113.6,113.6h831.4c62.6,0,113.6-50.9,113.6-113.6V852.3c0-62.6-50.9-113.6-113.6-113.6H852.3z"/>
		<g>
			<rect x="1224.3" y="168.9" class="st0" width="87.4" height="562.1"/>
			<rect x="1234.3" y="178.9" class="st0" width="67.4" height="542.1"/>
			<rect x="1242.3" y="186.9" class="st0" width="51.4" height="526.1"/>
			<path class="st0" d="M1268,231c-63.7,0-115.5-51.8-115.5-115.5S1204.3,0,1268,0c63.7,0,115.5,51.8,115.5,115.5
				S1331.7,231,1268,231z M1268,88.3c-15.1,0-27.3,12.2-27.3,27.3s12.2,27.3,27.3,27.3c15.1,0,27.3-12.2,27.3-27.3
				S1283.1,88.3,1268,88.3z"/>
			<path class="st0" d="M1268,221c-58.2,0-105.5-47.3-105.5-105.5S1209.8,10,1268,10s105.5,47.3,105.5,105.5S1326.2,221,1268,221z
				 M1268,78.3c-20.6,0-37.3,16.7-37.3,37.3s16.7,37.3,37.3,37.3s37.3-16.7,37.3-37.3S1288.6,78.3,1268,78.3z"/>
			<path class="st0" d="M1268,213c-53.8,0-97.5-43.7-97.5-97.5S1214.2,18,1268,18s97.5,43.7,97.5,97.5S1321.8,213,1268,213z
				 M1268,70.3c-25,0-45.3,20.3-45.3,45.3s20.3,45.3,45.3,45.3s45.3-20.3,45.3-45.3S1293,70.3,1268,70.3z"/>
			<g>
				<g>
					<path class="st0" d="M963.3,494.1c-63.7,0-115.5-51.8-115.5-115.5s51.8-115.5,115.5-115.5s115.5,51.8,115.5,115.5
						S1027,494.1,963.3,494.1z M963.3,351.3c-15.1,0-27.3,12.2-27.3,27.3s12.2,27.3,27.3,27.3s27.3-12.2,27.3-27.3
						C990.5,363.6,978.3,351.3,963.3,351.3z"/>
					<path class="st0" d="M963.3,484.1c-58.2,0-105.5-47.3-105.5-105.5s47.3-105.5,105.5-105.5s105.5,47.3,105.5,105.5
						S1021.5,484.1,963.3,484.1z M963.3,341.3c-20.6,0-37.3,16.7-37.3,37.3s16.7,37.3,37.3,37.3s37.3-16.7,37.3-37.3
						C1000.5,358,983.8,341.3,963.3,341.3z"/>
					<path class="st0" d="M963.3,476.1c-53.8,0-97.5-43.7-97.5-97.5s43.7-97.5,97.5-97.5s97.5,43.7,97.5,97.5
						S1017,476.1,963.3,476.1z M963.3,333.3c-25,0-45.3,20.3-45.3,45.3s20.3,45.3,45.3,45.3s45.3-20.3,45.3-45.3
						C1008.5,353.6,988.2,333.3,963.3,333.3z"/>
					<rect x="919.1" y="432" class="st0" width="88.3" height="299.1"/>
					<rect x="929.1" y="442" class="st0" width="68.3" height="279.1"/>
					<rect x="937.1" y="450" class="st0" width="52.3" height="263.1"/>
				</g>
				<g>
					<path class="st0" d="M1572.7,494.1c-63.7,0-115.5-51.8-115.5-115.5s51.8-115.5,115.5-115.5s115.5,51.8,115.5,115.5
						S1636.4,494.1,1572.7,494.1z M1572.7,351.3c-15.1,0-27.3,12.2-27.3,27.3s12.2,27.3,27.3,27.3s27.3-12.2,27.3-27.3
						S1587.8,351.3,1572.7,351.3z"/>
					<path class="st0" d="M1572.7,484.1c-58.2,0-105.5-47.3-105.5-105.5s47.3-105.5,105.5-105.5s105.5,47.3,105.5,105.5
						S1630.9,484.1,1572.7,484.1z M1572.7,341.3c-20.6,0-37.3,16.7-37.3,37.3s16.7,37.3,37.3,37.3s37.3-16.7,37.3-37.3
						S1593.3,341.3,1572.7,341.3z"/>
					<path class="st0" d="M1572.7,476.1c-53.8,0-97.5-43.7-97.5-97.5s43.7-97.5,97.5-97.5s97.5,43.7,97.5,97.5
						S1626.5,476.1,1572.7,476.1z M1572.7,333.3c-25,0-45.3,20.3-45.3,45.3s20.3,45.3,45.3,45.3s45.3-20.3,45.3-45.3
						C1618,353.6,1597.7,333.3,1572.7,333.3z"/>
					<rect x="1528.6" y="432" class="st0" width="88.3" height="299.1"/>
					<rect x="1538.6" y="442" class="st0" width="68.3" height="279.1"/>
					<rect x="1546.6" y="450" class="st0" width="52.3" height="263.1"/>
				</g>
			</g>
		</g>
		<g>
			<rect x="168.9" y="1224.3" class="st0" width="562.1" height="87.4"/>
			<rect x="178.9" y="1234.3" class="st0" width="542.1" height="67.4"/>
			<rect x="186.9" y="1242.3" class="st0" width="526.1" height="51.4"/>
			<path class="st0" d="M115.5,1383.5C51.8,1383.5,0,1331.7,0,1268c0-63.7,51.8-115.5,115.5-115.5S231,1204.3,231,1268
				C231,1331.7,179.2,1383.5,115.5,1383.5z M115.5,1240.7c-15.1,0-27.3,12.2-27.3,27.3c0,15.1,12.2,27.3,27.3,27.3
				s27.3-12.2,27.3-27.3C142.8,1252.9,130.6,1240.7,115.5,1240.7z"/>
			<path class="st0" d="M115.5,1373.5C57.3,1373.5,10,1326.2,10,1268s47.3-105.5,105.5-105.5S221,1209.8,221,1268
				S173.7,1373.5,115.5,1373.5z M115.5,1230.7c-20.6,0-37.3,16.7-37.3,37.3s16.7,37.3,37.3,37.3s37.3-16.7,37.3-37.3
				S136.1,1230.7,115.5,1230.7z"/>
			<path class="st0" d="M115.5,1365.5c-53.8,0-97.5-43.7-97.5-97.5s43.7-97.5,97.5-97.5s97.5,43.7,97.5,97.5
				S169.3,1365.5,115.5,1365.5z M115.5,1222.7c-25,0-45.3,20.3-45.3,45.3s20.3,45.3,45.3,45.3s45.3-20.3,45.3-45.3
				S140.5,1222.7,115.5,1222.7z"/>
			<g>
				<g>
					<path class="st0" d="M378.6,1688.2c-63.7,0-115.5-51.8-115.5-115.5s51.8-115.5,115.5-115.5s115.5,51.8,115.5,115.5
						S442.3,1688.2,378.6,1688.2z M378.6,1545.5c-15.1,0-27.3,12.2-27.3,27.3s12.2,27.3,27.3,27.3s27.3-12.2,27.3-27.3
						C405.8,1557.8,393.6,1545.5,378.6,1545.5z"/>
					<path class="st0" d="M378.6,1678.2c-58.2,0-105.5-47.3-105.5-105.5s47.3-105.5,105.5-105.5s105.5,47.3,105.5,105.5
						S436.8,1678.2,378.6,1678.2z M378.6,1535.5c-20.6,0-37.3,16.7-37.3,37.3s16.7,37.3,37.3,37.3s37.3-16.7,37.3-37.3
						C415.8,1552.2,399.1,1535.5,378.6,1535.5z"/>
					<path class="st0" d="M378.6,1670.2c-53.8,0-97.5-43.7-97.5-97.5s43.7-97.5,97.5-97.5s97.5,43.7,97.5,97.5
						S432.4,1670.2,378.6,1670.2z M378.6,1527.5c-25,0-45.3,20.3-45.3,45.3s20.3,45.3,45.3,45.3s45.3-20.3,45.3-45.3
						C423.8,1547.8,403.5,1527.5,378.6,1527.5z"/>
					<rect x="432" y="1528.6" class="st0" width="299.1" height="88.3"/>
					<rect x="442" y="1538.6" class="st0" width="279.1" height="68.3"/>
					<rect x="450" y="1546.6" class="st0" width="263.1" height="52.3"/>
				</g>
				<g>
					<path class="st0" d="M378.6,1078.8c-63.7,0-115.5-51.8-115.5-115.5s51.8-115.5,115.5-115.5s115.5,51.8,115.5,115.5
						S442.3,1078.8,378.6,1078.8z M378.6,936c-15.1,0-27.3,12.2-27.3,27.3s12.2,27.3,27.3,27.3s27.3-12.2,27.3-27.3
						C405.8,948.3,393.6,936,378.6,936z"/>
					<path class="st0" d="M378.6,1068.8c-58.2,0-105.5-47.3-105.5-105.5s47.3-105.5,105.5-105.5s105.5,47.3,105.5,105.5
						S436.8,1068.8,378.6,1068.8z M378.6,926c-20.6,0-37.3,16.7-37.3,37.3s16.7,37.3,37.3,37.3s37.3-16.7,37.3-37.3
						C415.8,942.7,399.1,926,378.6,926z"/>
					<path class="st0" d="M378.6,1060.8c-53.8,0-97.5-43.7-97.5-97.5s43.7-97.5,97.5-97.5s97.5,43.7,97.5,97.5
						C476.1,1017,432.4,1060.8,378.6,1060.8z M378.6,918c-25,0-45.3,20.3-45.3,45.3s20.3,45.3,45.3,45.3s45.3-20.3,45.3-45.3
						C423.8,938.3,403.5,918,378.6,918z"/>
					<rect x="432" y="919.1" class="st0" width="299.1" height="88.3"/>
					<rect x="442" y="929.1" class="st0" width="279.1" height="68.3"/>
					<rect x="450" y="937.1" class="st0" width="263.1" height="52.3"/>
				</g>
			</g>
		</g>
		<g>
			<rect x="1224.3" y="1805" class="st0" width="87.4" height="562.1"/>
			<rect x="1234.3" y="1815" class="st0" width="67.4" height="542.1"/>
			<rect x="1242.3" y="1823" class="st0" width="51.4" height="526.1"/>
			<path class="st0" d="M1268,2536c-63.7,0-115.5-51.8-115.5-115.5S1204.3,2305,1268,2305c63.7,0,115.5,51.8,115.5,115.5
				S1331.7,2536,1268,2536z M1268,2393.2c-15.1,0-27.3,12.2-27.3,27.3s12.2,27.3,27.3,27.3c15.1,0,27.3-12.2,27.3-27.3
				S1283.1,2393.2,1268,2393.2z"/>
			<path class="st0" d="M1268,2526c-58.2,0-105.5-47.3-105.5-105.5S1209.8,2315,1268,2315s105.5,47.3,105.5,105.5
				S1326.2,2526,1268,2526z M1268,2383.2c-20.6,0-37.3,16.7-37.3,37.3s16.7,37.3,37.3,37.3s37.3-16.7,37.3-37.3
				S1288.6,2383.2,1268,2383.2z"/>
			<path class="st0" d="M1268,2518c-53.8,0-97.5-43.7-97.5-97.5s43.7-97.5,97.5-97.5s97.5,43.7,97.5,97.5S1321.8,2518,1268,2518z
				 M1268,2375.2c-25,0-45.3,20.3-45.3,45.3s20.3,45.3,45.3,45.3s45.3-20.3,45.3-45.3S1293,2375.2,1268,2375.2z"/>
			<g>
				<g>
					<path class="st0" d="M1572.7,2272.9c-63.7,0-115.5-51.8-115.5-115.5s51.8-115.5,115.5-115.5s115.5,51.8,115.5,115.5
						S1636.4,2272.9,1572.7,2272.9z M1572.7,2130.2c-15.1,0-27.3,12.2-27.3,27.3s12.2,27.3,27.3,27.3s27.3-12.2,27.3-27.3
						S1587.8,2130.2,1572.7,2130.2z"/>
					<path class="st0" d="M1572.7,2262.9c-58.2,0-105.5-47.3-105.5-105.5s47.3-105.5,105.5-105.5s105.5,47.3,105.5,105.5
						S1630.9,2262.9,1572.7,2262.9z M1572.7,2120.2c-20.6,0-37.3,16.7-37.3,37.3s16.7,37.3,37.3,37.3s37.3-16.7,37.3-37.3
						S1593.3,2120.2,1572.7,2120.2z"/>
					<path class="st0" d="M1572.7,2254.9c-53.8,0-97.5-43.7-97.5-97.5s43.7-97.5,97.5-97.5s97.5,43.7,97.5,97.5
						S1626.5,2254.9,1572.7,2254.9z M1572.7,2112.2c-25,0-45.3,20.3-45.3,45.3s20.3,45.3,45.3,45.3s45.3-20.3,45.3-45.3
						S1597.7,2112.2,1572.7,2112.2z"/>
					<rect x="1528.6" y="1805" class="st0" width="88.3" height="299.1"/>
					<rect x="1538.6" y="1815" class="st0" width="68.3" height="279.1"/>
					<rect x="1546.6" y="1823" class="st0" width="52.3" height="263.1"/>
				</g>
				<g>
					<path class="st0" d="M963.3,2272.9c-63.7,0-115.5-51.8-115.5-115.5s51.8-115.5,115.5-115.5s115.5,51.8,115.5,115.5
						S1027,2272.9,963.3,2272.9z M963.3,2130.2c-15.1,0-27.3,12.2-27.3,27.3s12.2,27.3,27.3,27.3s27.3-12.2,27.3-27.3
						C990.5,2142.5,978.3,2130.2,963.3,2130.2z"/>
					<path class="st0" d="M963.3,2262.9c-58.2,0-105.5-47.3-105.5-105.5s47.3-105.5,105.5-105.5s105.5,47.3,105.5,105.5
						S1021.5,2262.9,963.3,2262.9z M963.3,2120.2c-20.6,0-37.3,16.7-37.3,37.3s16.7,37.3,37.3,37.3s37.3-16.7,37.3-37.3
						C1000.5,2136.9,983.8,2120.2,963.3,2120.2z"/>
					<path class="st0" d="M963.3,2254.9c-53.8,0-97.5-43.7-97.5-97.5s43.7-97.5,97.5-97.5s97.5,43.7,97.5,97.5
						S1017,2254.9,963.3,2254.9z M963.3,2112.2c-25,0-45.3,20.3-45.3,45.3s20.3,45.3,45.3,45.3s45.3-20.3,45.3-45.3
						C1008.5,2132.5,988.2,2112.2,963.3,2112.2z"/>
					<rect x="919.1" y="1805" class="st0" width="88.3" height="299.1"/>
					<rect x="929.1" y="1815" class="st0" width="68.3" height="279.1"/>
					<rect x="937.1" y="1823" class="st0" width="52.3" height="263.1"/>
				</g>
			</g>
		</g>
		<g>
			<rect x="1805" y="1224.3" class="st0" width="562.1" height="87.4"/>
			<rect x="1815" y="1234.3" class="st0" width="542.1" height="67.4"/>
			<rect x="1823" y="1242.3" class="st0" width="526.1" height="51.4"/>
			<path class="st0" d="M2420.5,1383.5c-63.7,0-115.5-51.8-115.5-115.5c0-63.7,51.8-115.5,115.5-115.5S2536,1204.3,2536,1268
				C2536,1331.7,2484.2,1383.5,2420.5,1383.5z M2420.5,1240.7c-15.1,0-27.3,12.2-27.3,27.3c0,15.1,12.2,27.3,27.3,27.3
				s27.3-12.2,27.3-27.3C2447.7,1253,2435.5,1240.7,2420.5,1240.7z"/>
			<path class="st0" d="M2420.5,1373.5c-58.2,0-105.5-47.3-105.5-105.5s47.3-105.5,105.5-105.5S2526,1209.8,2526,1268
				S2478.7,1373.5,2420.5,1373.5z M2420.5,1230.7c-20.6,0-37.3,16.7-37.3,37.3s16.7,37.3,37.3,37.3s37.3-16.7,37.3-37.3
				C2457.7,1247.4,2441,1230.7,2420.5,1230.7z"/>
			<path class="st0" d="M2420.5,1365.5c-53.8,0-97.5-43.7-97.5-97.5s43.7-97.5,97.5-97.5s97.5,43.7,97.5,97.5
				S2474.3,1365.5,2420.5,1365.5z M2420.5,1222.7c-25,0-45.3,20.3-45.3,45.3s20.3,45.3,45.3,45.3s45.3-20.3,45.3-45.3
				C2465.7,1243,2445.4,1222.7,2420.5,1222.7z"/>
			<g>
				<g>
					<path class="st0" d="M2157.4,1078.8c-63.7,0-115.5-51.8-115.5-115.5s51.8-115.5,115.5-115.5s115.5,51.8,115.5,115.5
						S2221.1,1078.8,2157.4,1078.8z M2157.4,936c-15.1,0-27.3,12.2-27.3,27.3s12.2,27.3,27.3,27.3c15.1,0,27.3-12.2,27.3-27.3
						S2172.5,936,2157.4,936z"/>
					<path class="st0" d="M2157.4,1068.8c-58.2,0-105.5-47.3-105.5-105.5s47.3-105.5,105.5-105.5s105.5,47.3,105.5,105.5
						S2215.6,1068.8,2157.4,1068.8z M2157.4,926c-20.6,0-37.3,16.7-37.3,37.3s16.7,37.3,37.3,37.3s37.3-16.7,37.3-37.3
						S2178,926,2157.4,926z"/>
					<path class="st0" d="M2157.4,1060.8c-53.8,0-97.5-43.7-97.5-97.5s43.7-97.5,97.5-97.5s97.5,43.7,97.5,97.5
						C2254.9,1017,2211.2,1060.8,2157.4,1060.8z M2157.4,918c-25,0-45.3,20.3-45.3,45.3s20.3,45.3,45.3,45.3s45.3-20.3,45.3-45.3
						S2182.4,918,2157.4,918z"/>
					<rect x="1805" y="919.1" class="st0" width="299.1" height="88.3"/>
					<rect x="1815" y="929.1" class="st0" width="279.1" height="68.3"/>
					<rect x="1823" y="937.1" class="st0" width="263.1" height="52.3"/>
				</g>
				<g>
					<path class="st0" d="M2157.4,1688.2c-63.7,0-115.5-51.8-115.5-115.5s51.8-115.5,115.5-115.5s115.5,51.8,115.5,115.5
						S2221.1,1688.2,2157.4,1688.2z M2157.4,1545.5c-15.1,0-27.3,12.2-27.3,27.3s12.2,27.3,27.3,27.3c15.1,0,27.3-12.2,27.3-27.3
						S2172.5,1545.5,2157.4,1545.5z"/>
					<path class="st0" d="M2157.4,1678.2c-58.2,0-105.5-47.3-105.5-105.5s47.3-105.5,105.5-105.5s105.5,47.3,105.5,105.5
						S2215.6,1678.2,2157.4,1678.2z M2157.4,1535.5c-20.6,0-37.3,16.7-37.3,37.3s16.7,37.3,37.3,37.3s37.3-16.7,37.3-37.3
						S2178,1535.5,2157.4,1535.5z"/>
					<path class="st0" d="M2157.4,1670.2c-53.8,0-97.5-43.7-97.5-97.5s43.7-97.5,97.5-97.5s97.5,43.7,97.5,97.5
						S2211.2,1670.2,2157.4,1670.2z M2157.4,1527.5c-25,0-45.3,20.3-45.3,45.3s20.3,45.3,45.3,45.3s45.3-20.3,45.3-45.3
						S2182.4,1527.5,2157.4,1527.5z"/>
					<rect x="1805" y="1528.6" class="st0" width="299.1" height="88.3"/>
					<rect x="1815" y="1538.6" class="st0" width="279.1" height="68.3"/>
					<rect x="1823" y="1546.6" class="st0" width="263.1" height="52.3"/>
				</g>
			</g>
		</g>
	</g>
	<g id="text">
		<path class="st0" d="M1333.1,1559.9l-58.5-172.3h-168.3l-56.9,172.3H938.2l198.3-583.7h111.1l199.2,583.7H1333.1z M1247.8,1296.4
			l-45.5-133.9c-4.6-13.5-8.6-26.5-12.1-38.7c-3.7,13-7.4,25.5-11.2,37.5l-45.7,135.1H1247.8z"/>
		<path class="st0" d="M1340.3,1549.9l-58.5-172.3h-182.7l-56.9,172.3h-90.1l191.5-563.7h96.8l192.4,563.7H1340.3z M1261.8,1306.4
			l-50-147.1c-8.8-25.9-15.5-50.1-21.6-73.4c-6.9,26.3-13.8,50.2-20.8,72.4l-50.1,148.1H1261.8z"/>
		<path class="st0" d="M1093.3,1369.6l-56.9,172.3h-73.1l186.1-547.7h85.3l186.9,547.7H1346l-58.5-172.3H1093.3z M1272.9,1314.3
			l-53.6-157.6c-12.2-35.8-20.3-68.3-28.4-99.9h-1.6c-8.1,32.5-17.1,65.8-27.6,99.1l-53.6,158.5L1272.9,1314.3L1272.9,1314.3z"/>
		<rect x="1484" y="976.2" class="st0" width="106.7" height="583.7"/>
		<rect x="1494" y="986.2" class="st0" width="86.7" height="563.7"/>
		<path class="st0" d="M1572.7,994.2v547.7H1502V994.2H1572.7z"/>
	</g>
</g>
</svg>
