<?xml version="1.0" encoding="utf-8"?>
<!-- Generator: Adobe Illustrator 24.2.3, SVG Export Plug-In . SVG Version: 6.00 Build 0)  -->
<svg version="1.1" id="Layer_1" xmlns="http://www.w3.org/2000/svg" xmlns:xlink="http://www.w3.org/1999/xlink" x="0px" y="0px"
	 viewBox="0 0 256 256" style="enable-background:new 0 0 256 256;" xml:space="preserve">
<style type="text/css">
	.st0{fill:#505050;}
</style>
<g>
	<path class="st0" d="M0.3,119.4c24.8,57,87.8,66.6,162.9,18.2c34.7,32.1,43.3,70.1,14.4,108.4c-15.3,6.4-32,10-49.6,10
		C57.3,256,0,198.7,0,128C0,125.1,0.1,122.2,0.3,119.4z M117.4,94.7C128.6,48,159.8,21.2,209,28.9c28.7,23.5,47,59.1,47,99.1
		c0,50.4-29.1,94-71.5,114.9C223,188.1,191.6,130.3,117.4,94.7z M128,0c27.4,0,52.9,8.6,73.7,23.3c-70-8.1-103,50.2-98.4,130.7
		c-45.5,13.9-82.5,3.7-102-44C10,47.8,63.4,0,128,0z"/>
</g>
</svg>
