<?xml version="1.0" encoding="utf-8"?>
<!-- Generator: Adobe Illustrator 24.2.3, SVG Export Plug-In . SVG Version: 6.00 Build 0)  -->
<svg version="1.1" id="Layer_2_1_" xmlns="http://www.w3.org/2000/svg" xmlns:xlink="http://www.w3.org/1999/xlink" x="0px" y="0px"
	 viewBox="0 0 503.1 516.9" style="enable-background:new 0 0 503.1 516.9;" xml:space="preserve">
<style type="text/css">
	.st0{fill:#505050;}
</style>
<path class="st0" d="M251.6,516.9c-0.8,0-1.5-0.1-2.3-0.3c-0.5-0.1-0.9-0.2-1.2-0.4c-0.3-0.1-0.9-0.3-1.4-0.6l-58.4-31.9
	c-3.2-1.7-5.2-5.1-5.2-8.7v-27.4l-61.6-41l-48,26.2c-0.6,0.4-1.3,0.6-1.8,0.7l-0.1,0l-0.1,0.1l-0.4,0.1c-0.8,0.2-1.7,0.3-2.5,0.3
	c-0.8,0-1.5-0.1-2.3-0.3c-0.5-0.1-0.9-0.2-1.2-0.4c-0.3-0.1-0.9-0.3-1.4-0.6L5.3,401C2,399.4,0,396,0,392.3v-58.9l0.1-0.4
	c0-0.1,0-0.2,0-0.2c0-0.3,0.1-0.5,0.1-0.8c0-0.3,0.1-0.6,0.2-1.1c0.2-0.7,0.5-1.4,0.9-2.1c0.2-0.3,0.4-0.5,0.5-0.7
	c0.3-0.6,0.7-1,1.1-1.4c0.2-0.2,0.5-0.4,0.8-0.7c0.4-0.4,0.8-0.6,1.1-0.8l0.8-0.5l0.2,0l52.8-30.2v-76.7L5.3,188.6
	c-3.2-1.7-5.2-5.1-5.2-8.7v-58.5c0-0.3,0-0.6,0.1-1c0-0.1,0-0.2,0-0.2v-0.7l0.1-0.2c0-0.2,0.1-0.5,0.2-0.8c0.2-0.7,0.5-1.4,0.9-2.1
	c0.2-0.3,0.4-0.5,0.5-0.7c0.3-0.6,0.7-1,1.1-1.4c0.2-0.2,0.5-0.4,0.8-0.7c0.4-0.4,0.8-0.6,1.1-0.8l0.8-0.5l0.2,0l57.8-33.1
	c1.6-0.9,3.3-1.3,5-1.3s3.4,0.4,4.9,1.3l57.6,33.1h0.1l0.9,0.5c0.2,0.2,0.5,0.3,0.7,0.5c0,0,0.1,0.1,0.1,0.1
	c0.3,0.2,0.7,0.4,1.1,0.8l0.2,0.2l0.2,0.2c0.1,0.1,0.2,0.3,0.3,0.4c0.1,0.2,0.2,0.3,0.3,0.5c0.2,0.2,0.4,0.5,0.6,0.9
	c0.3,0.7,0.6,1.3,0.9,2.1c0.2,0.5,0.2,0.9,0.2,1.2c0.1,0.5,0.2,1.1,0.2,1.6v8.9l45.9-28.8V43.1l0.1-0.4c0-0.1,0-0.2,0-0.2
	c0-0.3,0.1-0.5,0.1-0.8c0-0.3,0.1-0.6,0.2-1.1c0.2-0.6,0.5-1.4,0.9-2.1c0.1-0.3,0.3-0.6,0.7-1.1c0.1-0.2,0.2-0.3,0.4-0.5
	c0.1-0.1,0.1-0.1,0.2-0.2l0.2-0.2l0.2-0.2c0.3-0.3,0.7-0.5,0.9-0.7l0,0l0.2-0.2c0.1,0,0.1-0.1,0.2-0.1c0.2-0.2,0.4-0.3,0.6-0.5
	l0.1-0.1l58.6-33.6c1.6-0.9,3.3-1.3,5-1.3c1.7,0,3.4,0.4,4.9,1.3l59.8,34.4v0.3c0.3,0.2,0.5,0.4,0.6,0.6c0.3,0.3,0.6,0.7,0.8,1
	c0.3,0.3,0.6,0.7,0.8,1.2c0.4,0.7,0.6,1.3,0.9,2.1c0.2,0.5,0.2,0.9,0.2,1.2c0.1,0.5,0.2,1.1,0.2,1.6v58l45.9,28.8V121l0.1-0.4
	c0-0.1,0-0.2,0-0.2c0-0.3,0.1-0.5,0.1-0.8c0-0.3,0.1-0.6,0.2-1.1c0.2-0.6,0.5-1.4,0.9-2.1c0.2-0.3,0.4-0.5,0.5-0.7
	c0.3-0.6,0.7-1,1.1-1.4c0.2-0.2,0.5-0.4,0.8-0.7c0.4-0.4,0.8-0.6,1.1-0.8l0.8-0.5h0.2l57.8-33.1c1.6-0.9,3.3-1.3,5-1.3
	s3.4,0.4,4.9,1.3l57.9,33.1h0.1l0.9,0.5c0.2,0.2,0.5,0.3,0.7,0.5c0,0,0.1,0.1,0.1,0.1c0.3,0.2,0.7,0.4,1.1,0.8l0.2,0.2l0.2,0.2
	c0.1,0.1,0.2,0.3,0.3,0.4c0.1,0.2,0.2,0.3,0.3,0.5c0.2,0.2,0.4,0.5,0.6,0.9c0.4,0.7,0.6,1.3,0.9,2.1c0.3,0.8,0.3,1.3,0.3,1.6l0,0.1
	c0,0.3,0.1,0.7,0.1,1.1V180c0,3.6-2,7-5.2,8.7l-53.3,29v76.7l52.8,30.2h0.2l0.8,0.5c0.2,0.2,0.5,0.3,0.7,0.5c0,0,0.1,0.1,0.1,0.1
	c0.3,0.2,0.7,0.4,1.1,0.8l0.2,0.2l0.2,0.2c0.1,0.1,0.2,0.3,0.3,0.4c0.1,0.2,0.2,0.3,0.3,0.5c0.2,0.2,0.4,0.5,0.7,0.9
	c0.3,0.7,0.6,1.3,0.9,2.1c0.2,0.5,0.2,0.9,0.2,1.2c0.1,0.5,0.2,1.1,0.2,1.6v58.5c0,3.6-2,7-5.2,8.7l-58.4,31.8
	c-0.6,0.4-1.3,0.6-1.8,0.7l-0.1,0l-0.1,0.1l-0.4,0.1c-0.8,0.2-1.7,0.3-2.5,0.3c-0.8,0-1.5-0.1-2.3-0.3c-0.5-0.1-0.9-0.2-1.2-0.4
	c-0.3-0.1-0.9-0.3-1.4-0.6l-48-26.2l-61.6,41v27.4c0,3.6-2,7-5.2,8.7l-58.4,31.8c-0.7,0.4-1.3,0.6-1.8,0.7l-0.1,0l-0.1,0.1l-0.4,0.1
	C253.3,516.8,252.4,516.9,251.6,516.9z M261.5,490.2l38.5-20.9v-35.8l-38.5,21V490.2z M241.5,490.1v-35.7l-38.5-21v35.7L241.5,490.1
	z M251.5,437.1l38.1-20.7l-38.1-21.8l-38.1,21.8L251.5,437.1z M182.9,423.7v-7.5l0.1-0.4c0-0.1,0-0.2,0-0.2c0-0.3,0.1-0.5,0.1-0.8
	c0-0.3,0.1-0.6,0.2-1.1c0.2-0.7,0.5-1.4,0.9-2.1c0.2-0.3,0.4-0.5,0.5-0.7c0.3-0.6,0.7-1,1.1-1.4c0.2-0.2,0.5-0.4,0.8-0.7
	c0.4-0.4,0.8-0.6,1.1-0.8l0.8-0.5h0.2l52.8-30.2V325l-47.8-26.2l-56.6,39.8v53.5c0,0.3,0,0.6,0,0.8L182.9,423.7z M319.8,415
	c0.1,0.5,0.2,1.1,0.2,1.6l-0.1,6.8l45.8-30.5c0-0.3,0-0.6,0-0.8v-53.5l-56.6-39.8l-47.8,26.1v52.4l52.8,30.2h0.1l0.9,0.5
	c0.2,0.2,0.5,0.3,0.7,0.5c0,0,0.1,0.1,0.1,0.1c0.3,0.2,0.7,0.4,1.1,0.8l0.2,0.2l0.2,0.3c0.1,0.1,0.2,0.3,0.3,0.4
	c0.1,0.2,0.2,0.3,0.3,0.5c0.2,0.2,0.4,0.5,0.6,0.9c0.4,0.7,0.6,1.3,0.9,2.1C319.7,414.3,319.8,414.7,319.8,415z M444.4,407.4
	l38.5-20.9v-35.8l-38.5,21V407.4z M424.4,407.3v-35.7l-38.5-21v35.8L424.4,407.3z M58.6,407.3v-35.7l-38.5-21v35.8L58.6,407.3z
	 M78.6,407.2l38.5-21v-35.7l-38.5,21V407.2z M434.4,354.3l38.1-20.7l-38.1-21.8l-38.1,21.8L434.4,354.3z M68.6,354.3l38.1-20.7
	l-38.1-21.8l-38.1,21.8L68.6,354.3z M376.7,321.8l47.7-27.4v-76.7l-43.3-23.6L320,234v47.9L376.7,321.8z M126.3,321.7l56.7-39.8V234
	l-61.1-39.8l-43.3,23.6v76.6L126.3,321.7z M241.5,302.2v-35.8l-38.5-21v35.8L241.5,302.2z M261.5,302.1l38.5-21v-35.8l-38.5,21
	V302.1z M251.5,249.1l38.1-20.7l-38.1-21.8l-38.1,21.8L251.5,249.1z M193.4,216.9l48.2-27.6v-49.4L197.7,116l-60.6,37.9
	c0,0,0,26.2,0,26.3L193.4,216.9z M309.7,216.9l56.2-36.6c0-0.1,0-0.2,0-0.4v-26L305.4,116l-43.9,23.9v49.4L309.7,216.9z M78.6,195
	l38.5-20.9v-35.8l-38.5,21V195z M58.6,195v-35.7l-38.5-21V174L58.6,195z M444.4,194.9l38.5-21v-35.7l-38.5,21V194.9z M424.4,194.9
	v-35.7l-38.5-21v35.7L424.4,194.9z M434.4,142l38.1-20.7l-38.1-21.8l-38.1,21.8L434.4,142z M68.6,142l38.1-20.7L68.6,99.5
	l-38.1,21.8L68.6,142z M261.5,117.1l38.5-21V60.4l-38.5,21V117.1z M241.5,117.1V81.4l-38.5-21v35.8L241.5,117.1z M251.1,63.8
	l0.5,0.3l0.4-0.2l37.6-20.5l-38-21.8l-37.9,21.7L251.1,63.8z"/>
<path class="st0" d="M499.8,120.3c0-0.2,0-0.4-0.1-0.7c-0.2-0.6-0.4-1.1-0.7-1.7c-0.1-0.2-0.3-0.3-0.4-0.5c-0.2-0.3-0.5-0.7-0.7-1
	c-0.2-0.2-0.4-0.3-0.6-0.4c-0.3-0.2-0.6-0.5-0.9-0.7h-0.1l0,0l-58.5-33.5c-2.2-1.2-4.8-1.2-7,0l-58.5,33.5l0,0h-0.1
	c-0.3,0.2-0.6,0.4-0.9,0.7c-0.2,0.1-0.4,0.3-0.5,0.4c-0.3,0.3-0.5,0.6-0.7,1c-0.1,0.2-0.3,0.3-0.4,0.5c-0.3,0.5-0.5,1.1-0.7,1.7
	c-0.1,0.2,0,0.4-0.1,0.6c-0.1,0.4-0.1,0.8-0.2,1.2v14.3l-52-32.6c0.1-0.4,0.1-0.7,0.1-1.1V43.5c0-0.4-0.1-0.8-0.2-1.1
	c0-0.2,0-0.4-0.1-0.7c-0.2-0.6-0.4-1.1-0.7-1.7c-0.1-0.2-0.3-0.4-0.5-0.6c-0.2-0.3-0.4-0.6-0.6-0.8s-0.4-0.4-0.7-0.5
	c-0.2-0.2-0.5-0.4-0.8-0.6l0,0v-0.1L255,3.9c-2.2-1.2-4.8-1.2-7,0l-58.5,33.5l0,0l0,0c-0.3,0.2-0.5,0.4-0.8,0.6
	c-0.2,0.2-0.5,0.3-0.7,0.5c-0.2,0.3-0.5,0.6-0.7,0.9c-0.2,0.2-0.3,0.4-0.4,0.6c-0.3,0.5-0.5,1.1-0.7,1.7c-0.1,0.2,0,0.4-0.1,0.6
	c-0.1,0.4-0.1,0.8-0.2,1.2V102c0,0.4,0.1,0.7,0.1,1.1l-52,32.6v-14.3c0-0.4-0.1-0.8-0.2-1.1c0-0.2,0-0.4-0.1-0.7
	c-0.2-0.6-0.4-1.1-0.7-1.7c-0.1-0.2-0.3-0.3-0.4-0.5c-0.2-0.3-0.5-0.7-0.7-1c-0.2-0.2-0.4-0.3-0.6-0.4c-0.3-0.2-0.6-0.5-0.9-0.7
	h-0.1l0,0L72.1,81.8c-2.2-1.2-4.8-1.2-7,0L6.6,115.3l0,0H6.5c-0.3,0.2-0.6,0.4-0.9,0.7c-0.2,0.1-0.4,0.3-0.5,0.4
	c-0.3,0.3-0.5,0.6-0.7,1c-0.1,0.2-0.3,0.3-0.4,0.5c-0.3,0.5-0.5,1.1-0.7,1.7c-0.1,0.2,0,0.4-0.1,0.6c0,0.4-0.1,0.8-0.1,1.2v58.5
	c0,2.6,1.4,4.9,3.6,6.1l54.9,30v80.2l-55,31.5l0,0H6.5c-0.3,0.2-0.6,0.4-0.9,0.7c-0.2,0.1-0.4,0.3-0.5,0.4c-0.3,0.3-0.5,0.6-0.7,1
	c-0.1,0.2-0.3,0.3-0.4,0.5c-0.3,0.5-0.5,1.1-0.7,1.7c-0.1,0.2,0,0.4-0.1,0.6c-0.1,0.4-0.1,0.8-0.2,1.2v58.5c0,2.6,1.4,4.9,3.7,6.1
	l58.5,31.9c0.3,0.2,0.7,0.3,1,0.4c0.2,0.1,0.4,0.2,0.6,0.2c1.2,0.3,2.4,0.3,3.6,0c0.2-0.1,0.4-0.2,0.6-0.2c0.4-0.1,0.7-0.2,1-0.4
	l49.7-27.1l64.4,42.9v29c0,2.6,1.4,4.9,3.6,6.1l58.5,31.9c0.3,0.2,0.7,0.3,1,0.4c0.2,0.1,0.4,0.2,0.6,0.2c1.2,0.3,2.4,0.3,3.6,0
	c0.2-0.1,0.4-0.2,0.6-0.2c0.4-0.1,0.7-0.2,1-0.4l58.5-31.9c2.2-1.2,3.6-3.6,3.6-6.1v-29l64.4-42.9l49.7,27.1c0.3,0.2,0.7,0.3,1,0.4
	c0.2,0.1,0.4,0.2,0.6,0.2c1.2,0.3,2.4,0.3,3.6,0c0.2-0.1,0.4-0.2,0.6-0.2c0.4-0.1,0.7-0.2,1-0.4l58.5-31.9c2.2-1.2,3.6-3.6,3.6-6.1
	v-58.5c0-0.4-0.1-0.8-0.2-1.1c0-0.2,0-0.4-0.1-0.7c-0.2-0.6-0.4-1.1-0.7-1.7c-0.1-0.2-0.3-0.3-0.4-0.5c-0.2-0.3-0.5-0.7-0.7-1
	c-0.2-0.2-0.4-0.3-0.6-0.4c-0.3-0.2-0.6-0.5-0.9-0.7h-0.1l0,0l-55-31.5V216l54.9-29.9c2.2-1.2,3.6-3.6,3.6-6.1v-58.5
	C499.9,121,499.8,120.6,499.8,120.3z M293.9,417.4l-42.4,23.1l-42.4-23.1l-1.8-1l44.2-25.3l44.2,25.3L293.9,417.4z M120.1,175.8
	L75.6,200v-42.5l44.5-24.3V175.8z M68.6,308.3l44.2,25.3l-1.8,1l-42.4,23.1l-42.4-23.1l-1.8-1L68.6,308.3z M126.5,325.3l-50.9-29.2
	V216l46.4-25.3l64,41.7v51.1L126.5,325.3z M200,97.9V55.3l44.5,24.3v42.5L200,97.9z M303,97.9l-44.5,24.3V79.6L303,55.3V97.9z
	 M251.5,203.1l44.2,25.3l-1.8,1l-42.4,23.1l-42.4-23.1l-1.8-1L251.5,203.1z M200,240.4l44.5,24.3v42.6L200,283V240.4z M258.5,264.6
	l44.5-24.3v42.6l-44.5,24.3V264.6z M317,232.4l64-41.7l46.4,25.3v80.2l-50.9,29.2L317,283.5V232.4z M427.4,157.5V200l-44.5-24.3
	v-42.5L427.4,157.5z M382.9,388.1v-42.6l44.5,24.3v42.5L382.9,388.1z M476.8,334.6l-42.4,23.1L392,334.6l-1.8-1l44.2-25.3l44.2,25.3
	L476.8,334.6z M434.4,96l44.2,25.3l-1.8,1l-42.4,23.1L392,122.3l-1.8-1L434.4,96z M369.2,181.7l-59.4,38.7L258.5,191v-52.9l47-25.6
	l63.4,39.7v27.7C368.9,180.5,369,181.1,369.2,181.7z M251.5,18.1l44.2,25.3l-42.2,23l-1.9,1.1l-1.9-1.1l-42.2-23.1L251.5,18.1z
	 M197.6,112.5l47,25.6V191l-51.3,29.4l-59.4-38.7c0.2-0.6,0.2-1.2,0.2-1.8v-27.7L197.6,112.5z M68.6,96l44.2,25.3l-1.8,1l-42.4,23.1
	l-42.4-23.1l-1.8-1L68.6,96z M17.1,133.2l44.5,24.3V200l-44.5-24.2V133.2z M17.1,345.5l44.5,24.3v42.5l-44.5-24.2V345.5z
	 M75.6,369.8l44.5-24.3V388l-44.5,24.3V369.8z M133.7,394.4c0.3-0.7,0.4-1.4,0.4-2.2v-55.1l59.4-41.8l51,27.9V379l-55,31.5l0,0h-0.1
	c-0.3,0.2-0.6,0.4-0.9,0.7c-0.2,0.1-0.4,0.3-0.5,0.4c-0.3,0.3-0.5,0.6-0.7,1c-0.1,0.2-0.3,0.3-0.4,0.5c-0.3,0.5-0.5,1.1-0.7,1.7
	c-0.1,0.2,0,0.4-0.1,0.6c-0.1,0.4-0.1,0.8-0.2,1.2v12.7L133.7,394.4z M200,442.3v-13.9l44.5,24.3v42.5L200,470.9V442.3z
	 M258.5,495.2v-42.5l44.5-24.3V471L258.5,495.2z M317,416.6c0-0.4-0.1-0.8-0.2-1.1c0-0.2,0-0.4-0.1-0.7c-0.2-0.6-0.4-1.1-0.7-1.7
	c-0.1-0.2-0.3-0.3-0.4-0.5c-0.2-0.3-0.5-0.7-0.7-1c-0.2-0.2-0.4-0.3-0.6-0.4c-0.3-0.2-0.6-0.5-0.9-0.7h-0.1l0,0l-55-31.5v-55.9
	l51-27.9l59.4,41.8v55.1c0,0.7,0.1,1.5,0.4,2.2l-52.3,34.8L317,416.6z M441.4,412.4v-42.5l44.5-24.3v42.6L441.4,412.4z M441.4,200
	v-42.5l44.5-24.3v42.5L441.4,200z"/>
</svg>
