<?xml version="1.0" encoding="utf-8"?>
<!-- Generator: Adobe Illustrator 24.2.3, SVG Export Plug-In . SVG Version: 6.00 Build 0)  -->
<svg version="1.1" id="Layer_1" xmlns="http://www.w3.org/2000/svg" xmlns:xlink="http://www.w3.org/1999/xlink" x="0px" y="0px"
	 viewBox="0 0 270 303.5" style="enable-background:new 0 0 270 303.5;" xml:space="preserve">
<style type="text/css">
	.st0{fill:#6B6B6B;}
	.st1{fill:#505050;}
	.st2{fill:#444444;}
	.st3{fill:#5E5E5E;}
	.st4{fill:#FFFFFF;}
</style>
<path class="st0" d="M270,89.2c0-5.1-1.1-9.6-3.3-13.5c-2.2-3.8-5.4-7-9.8-9.5C221,45.5,185,24.8,149.1,4.1
	c-9.7-5.6-19.1-5.4-28.7,0.3c-14.3,8.4-85.9,49.5-107.3,61.8C4.3,71.3,0,79.1,0,89.2c0,41.7,0,83.4,0,125c0,5,1,9.4,3.2,13.2
	c2.2,3.9,5.5,7.2,9.9,9.8c21.3,12.4,93,53.4,107.3,61.8c9.6,5.7,19,5.9,28.7,0.3C185,278.6,221,258,256.9,237.2
	c4.5-2.6,7.7-5.9,9.9-9.8c2.1-3.8,3.2-8.2,3.2-13.2C270,214.2,270,130.9,270,89.2L270,89.2z"/>
<path class="st1" d="M135.4,151.3L3.2,227.5c2.2,3.9,5.5,7.2,9.9,9.8c21.3,12.4,93,53.4,107.3,61.8c9.6,5.7,19,5.9,28.7,0.3
	C185,278.6,221,258,256.9,237.2c4.5-2.6,7.7-5.9,9.9-9.8L135.4,151.3z"/>
<path class="st2" d="M96.2,173.9c7.7,13.4,22.2,22.5,38.8,22.5c16.7,0,31.2-9.2,38.9-22.8l-38.5-22.3L96.2,173.9z"/>
<path class="st3" d="M270,89.2c0-5.1-1.1-9.6-3.3-13.5l-131.3,75.6l131.4,76.1c2.1-3.8,3.2-8.2,3.2-13.2
	C270,214.2,270,130.9,270,89.2L270,89.2z"/>
<path class="st4" d="M173.9,173.6c-7.7,13.6-22.2,22.8-38.9,22.8c-16.6,0-31.1-9.1-38.8-22.5c-3.7-6.5-5.9-14.1-5.9-22.2
	c0-24.7,20-44.6,44.6-44.6c16.5,0,30.9,8.9,38.6,22.2l39-22.5c-15.5-26.8-44.5-44.8-77.6-44.8c-49.5,0-89.7,40.1-89.7,89.7
	c0,16.2,4.3,31.5,11.9,44.6c15.5,26.9,44.5,45,77.8,45c33.3,0,62.4-18.2,77.9-45.2L173.9,173.6z"/>
<g>
	<path class="st4" d="M214.3,130.5h8.9v43h-8.9V130.5z"/>
	<path class="st4" d="M234,130.5h8.9v43H234V130.5z"/>
	<path class="st4" d="M207.1,137.7h43v8.9h-43V137.7z"/>
	<path class="st4" d="M207.1,157.4h43v8.9h-43V157.4z"/>
</g>
</svg>
