<?xml version="1.0" encoding="utf-8"?>
<!-- Generator: Adobe Illustrator 24.2.3, SVG Export Plug-In . SVG Version: 6.00 Build 0)  -->
<svg version="1.1" id="Capa_1" xmlns="http://www.w3.org/2000/svg" xmlns:xlink="http://www.w3.org/1999/xlink" x="0px" y="0px"
	 viewBox="0 0 512 367.4" style="enable-background:new 0 0 512 367.4;" xml:space="preserve">
<style type="text/css">
	.st0{fill:#505050;}
</style>
<g>
	<path class="st0" d="M507,138.7c-1.4-1.1-14.3-10.9-41.7-10.9c-7.2,0-14.4,0.6-21.6,1.9c-5.3-36.3-35.3-54-36.6-54.8l-7.3-4.2
		l-4.8,7c-6,9.4-10.5,19.7-13,30.5c-4.9,20.7-1.9,40.1,8.6,56.8c-12.7,7.1-33.1,8.8-37.2,9H16c-8.8,0-16,7.2-16,15.9
		c-0.4,29.5,4.6,58.9,14.8,86.6c11.6,30.5,28.9,52.9,51.4,66.6c25.2,15.4,66.1,24.2,112.6,24.2c21,0.1,41.9-1.9,62.5-5.7
		c28.7-5.2,56.3-15.3,81.6-29.7c20.9-12.1,39.7-27.5,55.7-45.6c26.7-30.2,42.6-63.9,54.5-93.9c1.6,0,3.2,0,4.7,0
		c29.2,0,47.2-11.7,57.2-21.5c6.6-6.2,11.8-13.9,15-22.4l2.1-6.2L507,138.7z"/>
	<path class="st0" d="M47.2,164h45.2c2.2,0,3.9-1.8,3.9-3.9l0,0v-40.3c0-2.1-1.7-3.9-3.9-3.9l0,0H47.2c-2.2,0-3.9,1.8-3.9,3.9l0,0
		v40.3C43.3,162.3,45.1,164,47.2,164L47.2,164"/>
	<path class="st0" d="M109.5,164h45.2c2.1,0,3.9-1.8,3.9-3.9l0,0v-40.3c0-2.1-1.7-3.9-3.9-3.9l0,0h-45.2c-2.2,0-3.9,1.8-3.9,3.9
		v40.3C105.6,162.3,107.4,164,109.5,164"/>
	<path class="st0" d="M172.8,164H218c2.1,0,3.9-1.8,3.9-3.9l0,0v-40.3c0-2.1-1.7-3.9-3.9-3.9l0,0h-45.2c-2.1,0-3.9,1.8-3.9,3.9l0,0
		v40.3C168.9,162.3,170.6,164,172.8,164L172.8,164"/>
	<path class="st0" d="M235.3,164h45.2c2.1,0,3.9-1.8,3.9-3.9v-40.3c0-2.2-1.8-3.9-3.9-3.9l0,0h-45.2c-2.1,0-3.9,1.8-3.9,3.9l0,0
		v40.3C231.4,162.3,233.1,164,235.3,164L235.3,164"/>
	<path class="st0" d="M109.5,106.1h45.2c2.1,0,3.9-1.8,3.9-3.9V61.9c0-2.1-1.8-3.9-3.9-3.9l0,0h-45.2c-2.2,0-3.9,1.8-3.9,3.9v40.3
		C105.6,104.3,107.4,106.1,109.5,106.1"/>
	<path class="st0" d="M172.8,106.1H218c2.1,0,3.9-1.8,3.9-3.9V61.9c0-2.1-1.8-3.9-3.9-3.9l0,0h-45.2c-2.1,0-3.9,1.8-3.9,3.9l0,0
		v40.3C168.9,104.3,170.6,106.1,172.8,106.1"/>
	<path class="st0" d="M235.3,106.1h45.2c2.2,0,3.9-1.8,3.9-3.9V61.9c0-2.1-1.8-3.9-3.9-3.9h-45.2c-2.1,0-3.9,1.8-3.9,3.9l0,0v40.3
		C231.4,104.3,233.1,106.1,235.3,106.1"/>
	<path class="st0" d="M235.3,48.2h45.2c2.1,0,3.9-1.8,3.9-3.9V3.9c0-2.2-1.8-3.9-3.9-3.9h-45.2c-2.1,0-3.9,1.8-3.9,3.9l0,0v40.3
		C231.4,46.4,233.1,48.2,235.3,48.2"/>
	<path class="st0" d="M298.3,164h45.2c2.1,0,3.9-1.8,3.9-3.9v-40.3c0-2.2-1.8-3.9-3.9-3.9l0,0h-45.2c-2.1,0-3.9,1.8-3.9,3.9l0,0
		v40.3C294.3,162.3,296.1,164,298.3,164"/>
</g>
</svg>
