<?xml version="1.0" encoding="utf-8"?>
<!-- Generator: Adobe Illustrator 24.2.3, SVG Export Plug-In . SVG Version: 6.00 Build 0)  -->
<svg version="1.1" id="svg2816" xmlns:svg="http://www.w3.org/2000/svg"
	 xmlns="http://www.w3.org/2000/svg" xmlns:xlink="http://www.w3.org/1999/xlink" x="0px" y="0px" viewBox="0 0 314.1 300"
	 style="enable-background:new 0 0 314.1 300;" xml:space="preserve">
<style type="text/css">
	.st0{fill:#505050;}
	.st1{fill:url(#path12339_1_);}
	.st2{fill:url(#path12367_1_);}
	.st3{fill:#494949;}
	.st4{fill:url(#path12459_1_);}
	.st5{fill:#7A7A7A;}
	.st6{fill:#5A5A5A;}
	.st7{fill:url(#path12553_1_);}
	.st8{fill:url(#path12581_1_);}
	.st9{fill:url(#path12651_1_);}
	.st10{fill:#656565;}
	.st11{fill:#4C4C4C;}
	.st12{fill:url(#path12741_1_);}
	.st13{fill:url(#path12803_1_);}
	.st14{fill:#676767;}
	.st15{fill:url(#path12831_1_);}
	.st16{fill:#646464;}
	.st17{fill:url(#path12923_1_);}
	.st18{fill:url(#path12949_1_);}
	.st19{fill:url(#path12981_1_);}
	.st20{fill:url(#path13003_1_);}
	.st21{fill:url(#path13093_1_);}
	.st22{fill:#767676;}
	.st23{fill:#535353;}
	.st24{fill:#555555;}
	.st25{fill:#525252;}
	.st26{fill:url(#path13139_1_);}
	.st27{fill:#B7B7B7;}
	.st28{fill:#AAAAAA;}
	.st29{fill:url(#path13245_1_);}
	.st30{fill:url(#path13255_1_);}
	.st31{fill:url(#path13333_1_);}
</style>
<g id="layer1" transform="translate(-937.60684,-1834.4815)">
	<path id="path12245" class="st0" d="M1198.5,1947.7h-2.8v8.7h-1.1v-8.7h-2.8v-1h6.7V1947.7z"/>
	<path id="path12257" class="st0" d="M1209.9,1956.4h-1.1v-6.5c0-0.5,0-1.1,0.1-1.9l0,0c-0.1,0.4-0.2,0.8-0.3,0.9l-3.3,7.5h-0.6
		l-3.3-7.4c-0.1-0.2-0.2-0.5-0.3-1h0c0,0.4,0.1,1,0.1,1.9v6.5h-1.1v-9.7h1.5l3,6.8c0.2,0.5,0.4,0.9,0.4,1.2h0
		c0.2-0.5,0.4-0.9,0.5-1.2l3-6.8h1.4L1209.9,1956.4L1209.9,1956.4z"/>
	<path id="path12261" class="st0" d="M1201.1,1992.5c0-0.5-0.1-0.9-0.4-1.2c-0.3-0.3-0.9-0.4-1.7-0.4h-1.1v3.2h1.4
		C1200.5,1994.1,1201.1,1993.5,1201.1,1992.5 M1202.9,1999.1h-1.6l-1-2.2c-0.5-1.1-1.1-1.7-1.7-1.7h-0.8v3.9h-1.3v-9.2h2.6
		c1.2,0,2,0.3,2.6,0.8c0.5,0.4,0.8,1,0.8,1.7c0,0.6-0.2,1.2-0.6,1.6c-0.4,0.4-1,0.8-1.7,0.9v0c0.5,0.1,1,0.7,1.5,1.7L1202.9,1999.1
		L1202.9,1999.1z M1205.8,1994.5c0-1.8-0.6-3.4-1.9-4.6c-1.2-1.2-2.8-1.8-4.5-1.8c-1.8,0-3.4,0.6-4.6,1.8c-1.2,1.2-1.8,2.8-1.8,4.6
		c0,1.8,0.6,3.4,1.9,4.6c1.2,1.2,2.8,1.8,4.5,1.8c1.8,0,3.3-0.6,4.5-1.9C1205.1,1997.9,1205.8,1996.4,1205.8,1994.5 M1206.6,1994.5
		c0,2-0.7,3.8-2.1,5.1c-1.4,1.4-3.1,2.1-5.2,2.1c-2.1,0-3.8-0.7-5.2-2c-1.4-1.4-2.1-3.1-2.1-5.1c0-2,0.7-3.7,2.1-5.1
		c1.4-1.4,3.1-2.1,5.2-2.1c2,0,3.7,0.7,5.1,2C1205.9,1990.7,1206.6,1992.4,1206.6,1994.5"/>
	<path id="path12265" class="st0" d="M1009.2,2020.2h-4.5v-25.6c0-2,0.1-4.5,0.4-7.4h-0.1c-0.4,1.7-0.8,2.9-1.1,3.7l-13,29.3h-2.2
		l-13-29.1c-0.4-0.8-0.8-2.1-1.1-3.9h-0.1c0.1,1.5,0.2,4,0.2,7.4v25.6h-4.3v-38.2h5.9l11.7,26.6c0.9,2,1.5,3.5,1.7,4.6h0.2
		c0.8-2.1,1.4-3.7,1.8-4.7l12-26.5h5.6L1009.2,2020.2L1009.2,2020.2z"/>
	<path id="path12267" class="st0" d="M1023,2020.2h-4.4V1993h4.4V2020.2z M1023.7,1983.2c0,0.8-0.3,1.5-0.8,2
		c-0.5,0.6-1.2,0.8-2,0.8c-0.8,0-1.5-0.3-2-0.8c-0.6-0.5-0.8-1.2-0.8-2.1c0-0.8,0.3-1.5,0.8-2c0.6-0.5,1.2-0.8,2-0.8
		c0.8,0,1.5,0.3,2,0.8C1023.4,1981.8,1023.7,1982.4,1023.7,1983.2"/>
	<path id="path12271" class="st0" d="M1050.2,2019c-2.1,1.3-4.6,1.9-7.5,1.9c-3.9,0-7.1-1.3-9.5-3.9c-2.3-2.5-3.5-5.8-3.5-9.7
		c0-4.5,1.3-8.1,3.9-10.8c2.6-2.8,6-4.1,10.3-4.1c2.4,0,4.5,0.5,6.3,1.4v4.5c-2-1.4-4.2-2.1-6.5-2.1c-2.8,0-5,1-6.8,2.9
		c-1.8,2-2.7,4.6-2.7,7.9c0,3.2,0.8,5.7,2.5,7.5c1.7,1.8,3.9,2.8,6.7,2.8c2.4,0,4.6-0.8,6.7-2.3L1050.2,2019L1050.2,2019z"/>
	<path id="path12275" class="st0" d="M1071,1997.4c-0.8-0.6-1.9-0.9-3.3-0.9c-1.8,0-3.3,0.8-4.5,2.4c-1.4,1.8-2,4.3-2,7.4v13.9h-4.4
		V1993h4.4v5.6h0.1c0.6-2,1.6-3.5,3-4.6c1.2-1,2.6-1.5,4.2-1.5c1.2,0,2,0.1,2.6,0.4L1071,1997.4L1071,1997.4z"/>
	<path id="path12279" class="st0" d="M1095.3,2006.7c0-3.5-0.8-6.2-2.4-8c-1.5-1.8-3.7-2.6-6.4-2.6c-2.7,0-4.9,0.9-6.5,2.7
		c-1.7,1.9-2.6,4.6-2.6,8.1c0,3.3,0.8,5.8,2.5,7.6c1.6,1.8,3.9,2.8,6.6,2.8c2.9,0,5.1-0.9,6.6-2.8
		C1094.5,2012.6,1095.3,2010,1095.3,2006.7 M1099.7,2006.5c0,4.3-1.2,7.8-3.7,10.4c-2.5,2.6-5.8,3.9-9.9,3.9c-4.1,0-7.3-1.3-9.7-3.9
		c-2.3-2.5-3.5-5.9-3.5-10c0-4.7,1.3-8.4,4-11c2.5-2.4,5.8-3.6,9.9-3.6c4.1,0,7.2,1.3,9.5,3.8
		C1098.6,1998.6,1099.7,2002.1,1099.7,2006.5"/>
	<path id="path12283" class="st0" d="M1121.4,2013c0,2.2-0.8,4.1-2.5,5.6c-1.8,1.6-4.3,2.4-7.5,2.4c-2.6,0-4.8-0.5-6.8-1.6v-4.7
		c2.1,1.7,4.5,2.6,7.1,2.6c3.5,0,5.2-1.3,5.2-3.8c0-1.1-0.4-1.9-1.1-2.6c-0.8-0.7-2.3-1.5-4.5-2.5c-2.3-1-3.9-2-4.9-3.1
		c-1.2-1.3-1.7-2.9-1.7-4.9c0-2.3,0.9-4.1,2.7-5.6c1.8-1.5,4.1-2.3,6.9-2.3c2.2,0,4.1,0.4,5.8,1.3v4.4c-1.8-1.3-3.9-1.9-6.2-1.9
		c-1.4,0-2.6,0.4-3.5,1.1c-0.9,0.7-1.3,1.6-1.3,2.7c0,1.2,0.4,2.1,1.1,2.8c0.6,0.6,2,1.4,4.1,2.3c2.3,1,4,2,5,3
		C1120.7,2009.3,1121.4,2010.9,1121.4,2013"/>
	<path id="path12287" class="st0" d="M1148,2006.7c0-3.5-0.8-6.2-2.4-8c-1.5-1.8-3.7-2.6-6.4-2.6c-2.7,0-4.9,0.9-6.5,2.7
		c-1.7,1.9-2.6,4.6-2.6,8.1c0,3.3,0.8,5.8,2.5,7.6c1.7,1.8,3.9,2.8,6.6,2.8c2.9,0,5.1-0.9,6.6-2.8
		C1147.3,2012.6,1148,2010,1148,2006.7 M1152.5,2006.5c0,4.3-1.2,7.8-3.7,10.4c-2.4,2.6-5.7,3.9-9.9,3.9c-4.1,0-7.4-1.3-9.7-3.9
		c-2.3-2.5-3.5-5.9-3.5-10c0-4.7,1.3-8.4,4-11c2.5-2.4,5.8-3.6,9.9-3.6c4.1,0,7.2,1.3,9.5,3.8
		C1151.4,1998.6,1152.5,2002.1,1152.5,2006.5"/>
	<path id="path12291" class="st0" d="M1171.7,1983.7c-0.9-0.5-1.8-0.7-2.9-0.7c-3.1,0-4.6,1.9-4.6,5.8v4.2h6.4v3.7h-6.4v23.6h-4.4
		v-23.6h-4.6v-3.7h4.6v-4.4c0-3,0.9-5.4,2.8-7c1.6-1.5,3.6-2.2,5.9-2.2c1.3,0,2.4,0.2,3.2,0.5V1983.7z"/>
	<path id="path12295" class="st0" d="M1189,2020c-1,0.6-2.4,0.9-4.1,0.9c-4.8,0-7.1-2.7-7.1-8v-16.1h-4.7v-3.7h4.7v-6.6
		c1.4-0.4,2.8-0.9,4.4-1.4v8.1h6.9v3.7h-6.9v15.4c0,1.8,0.3,3.1,0.9,3.9c0.6,0.8,1.7,1.2,3.1,1.2c1.1,0,2-0.3,2.8-0.9L1189,2020
		L1189,2020z"/>
	<path id="path12299" class="st0" d="M953.2,2126.6c0,2.1-0.8,4-2.3,5.5c-1.5,1.6-3.4,2.3-5.6,2.3c-2.1,0-4-0.8-5.4-2.3
		c-1.5-1.6-2.2-3.4-2.2-5.5c0-2.2,0.7-4,2.2-5.6c1.5-1.5,3.3-2.3,5.4-2.3c2.2,0,4,0.8,5.6,2.3
		C952.4,2122.6,953.2,2124.5,953.2,2126.6"/>
	<path id="path12303" class="st0" d="M1050.8,2132.9h-14.2l-51.6-79.7c-1.2-1.9-2.2-4-3.1-6.3h-0.4c0.4,2.1,0.6,6.7,0.6,13.7v72.3
		h-11.7v-100h15.2l50.1,78.5c2,3.1,3.4,5.3,4,6.7h0.3c-0.5-2.9-0.7-7.8-0.7-14.7v-70.5h11.7L1050.8,2132.9L1050.8,2132.9z"/>
	<path id="path12307" class="st0" d="M1126,2132.9h-53v-100h50.7v10.6h-39v33.3h36.1v10.6h-36.1v35h41.3V2132.9z"/>
	<path id="path12311" class="st0" d="M1206.4,2043.4h-28.8v89.4h-11.7v-89.4H1137v-10.6h69.4L1206.4,2043.4L1206.4,2043.4z"/>
	
		<linearGradient id="path12339_1_" gradientUnits="userSpaceOnUse" x1="347.6504" y1="2444.959" x2="348.6504" y2="2444.959" gradientTransform="matrix(0 149.7346 149.7346 0 -365019.9062 -50218.9453)">
		<stop  offset="0" style="stop-color:#727272"/>
		<stop  offset="0.35" style="stop-color:#B3B3B3"/>
		<stop  offset="0.35" style="stop-color:#B3B3B3"/>
		<stop  offset="0.8462" style="stop-color:#646464"/>
		<stop  offset="0.8462" style="stop-color:#646464"/>
		<stop  offset="1" style="stop-color:#646464"/>
	</linearGradient>
	<path id="path12339" class="st1" d="M1046.8,1860c11.3,34.6,15.6,96.3,48.7,96.3l0,0c2.5,0,5.1-0.2,7.6-0.7l0,0
		c-30.1-7-33.6-68.1-52-99.7l0,0C1049.7,1857.2,1048.3,1858.6,1046.8,1860"/>
	
		<linearGradient id="path12367_1_" gradientUnits="userSpaceOnUse" x1="347.5996" y1="2444.8606" x2="348.5996" y2="2444.8606" gradientTransform="matrix(0 153.5506 153.5506 0 -374329.0312 -51541.5664)">
		<stop  offset="0" style="stop-color:#5E5E5E"/>
		<stop  offset="0.36" style="stop-color:#909090"/>
		<stop  offset="0.36" style="stop-color:#909090"/>
		<stop  offset="0.8462" style="stop-color:#808080"/>
		<stop  offset="0.8462" style="stop-color:#808080"/>
		<stop  offset="1" style="stop-color:#808080"/>
	</linearGradient>
	<path id="path12367" class="st2" d="M1051.2,1855.9c18.3,31.6,21.9,92.7,52,99.7l0,0c2.4-0.4,4.7-1.1,7.1-1.9l0,0
		c-27-13.2-34.5-72.5-55.3-101l0,0C1053.7,1853.7,1052.4,1854.8,1051.2,1855.9"/>
	<path id="path12379" class="st3" d="M1077.6,1837.1c-2.5,0-5.1,0.2-7.6,0.7c-6.7,1.3-13.5,4.1-20.3,8.5c1.9,1.8,3.7,4,5.3,6.3
		c7-5.8,13.9-10.1,20.8-12.6c2.6-1,5.2-1.7,7.8-2.2C1081.6,1837.4,1079.7,1837.1,1077.6,1837.1"/>
	
		<linearGradient id="path12459_1_" gradientUnits="userSpaceOnUse" x1="343.1022" y1="2436.1599" x2="344.1022" y2="2436.1599" gradientTransform="matrix(0 -122.178 -122.178 0 298756.8125 43872.4336)">
		<stop  offset="0" style="stop-color:#575757"/>
		<stop  offset="0.5" style="stop-color:#999999"/>
		<stop  offset="1" style="stop-color:#999999;stop-opacity:0.4196"/>
	</linearGradient>
	<path id="path12459" class="st4" d="M1131.3,1941.5c2.8-2.2,5.5-4.6,8.3-7.3c-11.5-34.4-15.6-97-48.9-97c-2.4,0-4.8,0.2-7.2,0.7
		C1113.9,1845.4,1117.7,1911.4,1131.3,1941.5"/>
	<path id="path12521" class="st5" d="M1083.5,1837.8c-1.9-0.5-3.8-0.7-5.9-0.7l13.1,0C1088.3,1837.2,1085.9,1837.4,1083.5,1837.8"/>
	<path id="path12525" class="st6" d="M1130.7,1948.8c-1.3-1.2-2.5-2.6-3.8-4.1c-5.6,4-11.2,7-16.7,8.9c2,1,4,1.7,6.2,2.1
		c1.7,0.3,3.5,0.5,5.3,0.5c6.2,0,11.1-0.7,15.3-2.7C1134.8,1952.3,1132.7,1950.7,1130.7,1948.8"/>
	
		<linearGradient id="path12553_1_" gradientUnits="userSpaceOnUse" x1="347.5262" y1="2444.7188" x2="348.5262" y2="2444.7188" gradientTransform="matrix(0 159.4252 159.4252 0 -388646.3125 -53587.4492)">
		<stop  offset="0" style="stop-color:#595959"/>
		<stop  offset="0.4" style="stop-color:#909090"/>
		<stop  offset="0.4" style="stop-color:#909090"/>
		<stop  offset="0.8462" style="stop-color:#747474"/>
		<stop  offset="0.8462" style="stop-color:#747474"/>
		<stop  offset="1" style="stop-color:#747474"/>
	</linearGradient>
	<path id="path12553" class="st7" d="M1075.8,1840c27.2,14.2,29.5,78.6,51.2,104.7l0,0c1.5-1,2.9-2.1,4.3-3.3l0,0
		c-13.6-30.1-17.5-96.1-47.8-103.6l0,0C1080.9,1838.3,1078.3,1839,1075.8,1840"/>
	
		<linearGradient id="path12581_1_" gradientUnits="userSpaceOnUse" x1="347.4118" y1="2444.4973" x2="348.4118" y2="2444.4973" gradientTransform="matrix(0 169.5276 169.5276 0 -413318.8125 -57078.0586)">
		<stop  offset="0" style="stop-color:#3A3A3A"/>
		<stop  offset="0.39" style="stop-color:#6C6C6C"/>
		<stop  offset="0.39" style="stop-color:#6C6C6C"/>
		<stop  offset="0.7802" style="stop-color:#474747"/>
		<stop  offset="0.7802" style="stop-color:#474747"/>
		<stop  offset="1" style="stop-color:#474747"/>
	</linearGradient>
	<path id="path12581" class="st8" d="M1055,1852.6c20.8,28.5,28.3,87.8,55.3,101l0,0c5.5-2,11.1-5,16.7-8.9l0,0
		c-21.7-26.1-24-90.5-51.2-104.7l0,0C1068.9,1842.6,1061.9,1846.9,1055,1852.6"/>
	
		<linearGradient id="path12651_1_" gradientUnits="userSpaceOnUse" x1="1450.9169" y1="296.2776" x2="1456.8519" y2="296.2776" gradientTransform="matrix(4.0385 0 0 -4.0385 -4836.6729 3066.3867)">
		<stop  offset="0" style="stop-color:#999999;stop-opacity:0.698"/>
		<stop  offset="1" style="stop-color:#868686"/>
	</linearGradient>
	<path id="path12651" class="st9" d="M1033.5,1859.2c-3.3,7.4-6.6,17.1-10.6,29.8c8-11.3,16-21,24-28.9c-1.1-3.4-2.3-6.5-3.5-9.2
		C1040.1,1853.3,1036.8,1856.1,1033.5,1859.2"/>
	<path id="path12655" class="st10" d="M1046.2,1848.7c-1,0.7-1.9,1.4-2.9,2.1c1.3,2.8,2.4,5.9,3.5,9.2c1.4-1.4,2.9-2.8,4.3-4.1
		C1049.6,1853.3,1048,1850.8,1046.2,1848.7"/>
	<path id="path12659" class="st11" d="M1049.6,1846.4c-1.1,0.7-2.3,1.5-3.4,2.3c1.8,2.2,3.4,4.6,5,7.3c1.3-1.1,2.5-2.3,3.8-3.3
		C1053.3,1850.3,1051.5,1848.2,1049.6,1846.4"/>
	
		<linearGradient id="path12741_1_" gradientUnits="userSpaceOnUse" x1="343.0357" y1="2436.0312" x2="344.0357" y2="2436.0312" gradientTransform="matrix(0 -119.0183 -119.0183 0 291135.2812 42777.3594)">
		<stop  offset="0" style="stop-color:#585858"/>
		<stop  offset="0.6" style="stop-color:#ADADAD;stop-opacity:0.549"/>
		<stop  offset="1" style="stop-color:#ADADAD;stop-opacity:0.2353"/>
	</linearGradient>
	<path id="path12741" class="st12" d="M1235,1834.5c-15.4,59.3-47.5,106.9-74.4,118.9h-0.1c-0.5,0.2-1,0.4-1.5,0.6
		c-0.1,0-0.1,0-0.2,0.1c-0.1,0.1-0.3,0.1-0.4,0.2c-0.1,0-0.1,0.1-0.2,0.1c-0.2,0.1-0.4,0.1-0.7,0.2c-0.1,0-0.2,0.1-0.3,0.1
		c-0.1,0-0.2,0.1-0.3,0.1c-0.1,0-0.2,0.1-0.3,0.1c-0.1,0-0.2,0.1-0.3,0.1c-0.2,0.1-0.4,0.1-0.6,0.2c-0.1,0-0.2,0-0.2,0.1
		c-0.1,0-0.3,0.1-0.4,0.1c-0.1,0-0.2,0.1-0.3,0.1c-0.1,0-0.3,0.1-0.4,0.1c-0.2,0-0.3,0.1-0.5,0.1c1.2,0.4,2.5,0.7,3.9,0.7
		c25.5,0,51.3-45.7,93.8-121.8L1235,1834.5L1235,1834.5z"/>
	
		<linearGradient id="path12803_1_" gradientUnits="userSpaceOnUse" x1="1429.8561" y1="289.2353" x2="1451.8698" y2="289.2353" gradientTransform="matrix(4.0385 0 0 -4.0385 -4836.6729 3066.3867)">
		<stop  offset="0" style="stop-color:#7A7A7A;stop-opacity:0.2471"/>
		<stop  offset="1" style="stop-color:#7A7A7A"/>
	</linearGradient>
	<path id="path12803" class="st13" d="M1017.3,1839.5C1017.4,1839.5,1017.4,1839.5,1017.3,1839.5c0.1,0,0.1,0,0.1-0.1c0,0,0,0,0,0
		c0.1,0,0.3-0.1,0.4-0.2c0,0,0.1,0,0.1,0c0,0,0.1,0,0.1,0c0.2,0,0.3-0.1,0.4-0.2c0,0,0,0,0,0c0.3-0.1,0.7-0.2,1-0.3c0,0,0.1,0,0.1,0
		c0.1,0,0.3-0.1,0.4-0.1c0.1,0,0.1,0,0.2-0.1c0.1,0,0.3-0.1,0.4-0.1c0.1,0,0.1,0,0.2,0c0.5-0.1,0.9-0.3,1.4-0.4c0.1,0,0.1,0,0.2,0
		c0.1,0,0.3-0.1,0.4-0.1c0.1,0,0.1,0,0.2-0.1c0.1,0,0.3,0,0.4-0.1c0,0,0.1,0,0.1,0c0.3-0.1,0.6-0.1,0.9-0.2c0.1,0,0.1,0,0.2,0
		c0.1,0,0.3,0,0.4-0.1c0.1,0,0.2,0,0.2,0c0.1,0,0.3,0,0.4-0.1c0.1,0,0.1,0,0.2,0c0.3,0,0.6-0.1,0.9-0.1c-0.9-0.1-1.8-0.1-2.7-0.1
		c-28.7,0-68.3,53.3-86.2,122.4c0,0,1.3,0,3.4,0c5.7-10.2,10.8-19.8,15.5-28.9C969.3,1881.7,994.7,1848.4,1017.3,1839.5"/>
	<path id="path12807" class="st14" d="M1033.5,1859.2c3.3-3.1,6.5-5.9,9.8-8.4c-0.7-1.6-1.5-3.1-2.3-4.5
		C1038.3,1849.5,1035.9,1853.7,1033.5,1859.2"/>
	<path id="path12811" class="st14" d="M1035.9,1839.9c1.9,1.6,3.6,3.7,5.1,6.3c0.5-0.6,1-1.1,1.5-1.7c-2.1-2-4.4-3.6-6.9-4.9
		C1035.6,1839.8,1035.7,1839.9,1035.9,1839.9C1035.8,1839.9,1035.9,1839.9,1035.9,1839.9"/>
	
		<linearGradient id="path12831_1_" gradientUnits="userSpaceOnUse" x1="343.0958" y1="2436.1475" x2="344.0958" y2="2436.1475" gradientTransform="matrix(0 -121.8652 -121.8652 0 297868.5625 43764.2344)">
		<stop  offset="0" style="stop-color:#7A7A7A"/>
		<stop  offset="1" style="stop-color:#8C8C8C"/>
	</linearGradient>
	<path id="path12831" class="st15" d="M956.8,1930.7c26.2-50.5,38.6-82.5,60.5-91.1l0,0C994.7,1848.4,969.3,1881.7,956.8,1930.7"/>
	<path id="path12843" class="st16" d="M1042.5,1844.6c-0.5,0.5-1,1.1-1.5,1.7c0.8,1.4,1.6,2.9,2.3,4.5c1-0.7,1.9-1.4,2.9-2.1
		C1045,1847.2,1043.8,1845.8,1042.5,1844.6"/>
	
		<linearGradient id="path12923_1_" gradientUnits="userSpaceOnUse" x1="343.0236" y1="2436.0078" x2="344.0236" y2="2436.0078" gradientTransform="matrix(0 -118.4596 -118.4596 0 289563.1875 42587.6719)">
		<stop  offset="0" style="stop-color:#7A7A7A"/>
		<stop  offset="1" style="stop-color:#7A7A7A;stop-opacity:0.549"/>
	</linearGradient>
	<path id="path12923" class="st17" d="M968.7,1959.3L968.7,1959.3c-0.2,0-0.3,0-0.5,0.1c-0.1,0-0.1,0-0.1,0c-0.1,0-0.3,0-0.4,0
		c0,0-0.1,0-0.1,0c-0.3,0-0.7,0-1,0.1h-0.1c26.5-0.7,38.7-14,44.7-33.3c4.6-14.6,8.3-26.9,11.6-37.2c-11.1,15.6-22.3,34.3-33.5,55.2
		C984,1954.2,975.7,1958.4,968.7,1959.3"/>
	
		<linearGradient id="path12949_1_" gradientUnits="userSpaceOnUse" x1="342.5499" y1="2435.0913" x2="343.5499" y2="2435.0913" gradientTransform="matrix(0 -100.1002 -100.1002 0 244754.2188 36248.5898)">
		<stop  offset="0" style="stop-color:#4E4E4E"/>
		<stop  offset="0.5" style="stop-color:#7A7A7A"/>
		<stop  offset="0.5" style="stop-color:#7A7A7A"/>
		<stop  offset="0.9176" style="stop-color:#B4B4B4"/>
		<stop  offset="1" style="stop-color:#B4B4B4"/>
	</linearGradient>
	<path id="path12949" class="st18" d="M968.7,1959.3L968.7,1959.3c7.1-0.9,15.3-5.1,20.7-15.2l0,0c11.2-20.9,22.4-39.5,33.5-55.2
		l0,0c4-12.7,7.4-22.4,10.6-29.8l0,0C1011.4,1880.2,989.2,1915.3,968.7,1959.3"/>
	<path id="path12961" class="st5" d="M956.8,1930.7c-4.7,9-9.8,18.7-15.5,28.9c2.5,0,6,0,10,0
		C952.6,1949.4,954.5,1939.8,956.8,1930.7"/>
	
		<linearGradient id="path12981_1_" gradientUnits="userSpaceOnUse" x1="341.9392" y1="2436.1975" x2="342.9395" y2="2436.1975" gradientTransform="matrix(-19.138 -108.5369 -108.5369 19.138 271966.3438 -7557.9429)">
		<stop  offset="0" style="stop-color:#464646"/>
		<stop  offset="1" style="stop-color:#676767"/>
	</linearGradient>
	<path id="path12981" class="st19" d="M1025.8,1837.4c-0.1,0-0.1,0-0.2,0l0,0c-0.1,0-0.2,0-0.4,0.1l0,0c-0.1,0-0.1,0-0.2,0l0,0
		c-0.1,0-0.3,0-0.4,0.1l0,0c-0.1,0-0.1,0-0.2,0l0,0c-0.3,0-0.6,0.1-0.9,0.1l0,0c0,0-0.1,0-0.1,0l0,0c-0.1,0-0.3,0.1-0.4,0.1l0,0
		c-0.1,0-0.1,0-0.2,0.1l0,0c-0.1,0-0.3,0.1-0.4,0.1l0,0c-0.1,0-0.1,0-0.2,0l0,0c-0.5,0.1-0.9,0.2-1.4,0.4l0,0c0,0-0.1,0-0.2,0l0,0
		c-0.1,0-0.3,0.1-0.4,0.1l0,0c-0.1,0-0.1,0-0.2,0.1l0,0c-0.1,0-0.3,0.1-0.4,0.1l0,0c-0.1,0-0.1,0-0.2,0l0,0c-0.3,0.1-0.6,0.2-1,0.3
		l0,0l0,0l0,0c-0.1,0-0.3,0.1-0.4,0.2l0,0c-0.1,0-0.1,0-0.2,0.1l0,0c-0.1,0-0.3,0.1-0.4,0.2l0,0c0,0-0.1,0-0.1,0.1l0,0
		c-21.9,8.7-34.3,40.6-60.5,91.1l0,0c-2.3,9.1-4.2,18.7-5.5,28.8l0,0h1.4c4,0,5.1,0,9.6,0l0,0h0.2h0.7h0.2h0.1h0.2h0.1h0.1h0.2h0.6
		h0.6h0.5h0.1c0.3,0,0.6,0,0.8,0l0,0c0.3,0,0.6,0,1-0.1l0,0c0,0,0.1,0,0.1,0l0,0c0.1,0,0.3,0,0.4,0l0,0c0.1,0,0.1,0,0.1,0l0,0
		c0.1,0,0.3,0,0.5-0.1l0,0l0,0c20.5-44,42.7-79,64.8-100.1l0,0c2.4-5.5,4.8-9.7,7.5-12.9l0,0c-1.5-2.6-3.2-4.8-5.1-6.3l0,0
		c0,0-0.1,0-0.1,0l0,0c-0.1,0-0.2-0.1-0.3-0.1l0,0c-0.1-0.1-0.2-0.1-0.3-0.2l0,0c-0.1,0-0.2-0.1-0.3-0.1l0,0c-0.1,0-0.2-0.1-0.4-0.1
		l0,0c-0.1,0-0.2-0.1-0.3-0.1l0,0c-0.2-0.1-0.4-0.2-0.6-0.2l0,0c-0.1,0-0.2-0.1-0.2-0.1l0,0c-0.1,0-0.3-0.1-0.4-0.2l0,0
		c-0.1,0-0.2,0-0.2-0.1l0,0c-0.2-0.1-0.4-0.1-0.6-0.2l0,0c-0.1,0-0.1,0-0.1,0l0,0c-0.2-0.1-0.5-0.1-0.7-0.2l0,0c-0.1,0-0.1,0-0.2,0
		l0,0c-0.2-0.1-0.4-0.1-0.6-0.2l0,0c-0.1,0-0.1,0-0.1,0l0,0c-0.5-0.1-1-0.2-1.5-0.3l0,0c-0.1,0-0.1,0-0.2,0l0,0
		c-0.2,0-0.4-0.1-0.6-0.1l0,0c-0.1,0-0.1,0-0.1,0l0,0c-0.3,0-0.5-0.1-0.7-0.1l0,0c-0.1,0-0.1,0-0.1,0l0,0c-0.2,0-0.4,0-0.6-0.1l0,0
		C1026.4,1837.4,1026.1,1837.4,1025.8,1837.4"/>
	
		<linearGradient id="path13003_1_" gradientUnits="userSpaceOnUse" x1="340.2119" y1="2430.5681" x2="341.2119" y2="2430.5681" gradientTransform="matrix(0 -56.7206 -56.7206 0 139045.8438 21188.5391)">
		<stop  offset="0" style="stop-color:#7A7A7A"/>
		<stop  offset="0.8736" style="stop-color:#717171"/>
		<stop  offset="1" style="stop-color:#717171"/>
	</linearGradient>
	<path id="path13003" class="st20" d="M1175,1867.3c-5,16.2-9.1,29.5-12.7,40.4l0,0c13.8-19,27.5-43,40.4-70.6l0,0
		C1187.6,1841.9,1179.5,1852.8,1175,1867.3"/>
	
		<linearGradient id="path13093_1_" gradientUnits="userSpaceOnUse" x1="347.1017" y1="2445.7952" x2="348.1017" y2="2445.7952" gradientTransform="matrix(-23.0627 130.7947 130.7947 23.0627 -310682.75 -99976.0781)">
		<stop  offset="0" style="stop-color:#8C8C8C;stop-opacity:0.3294"/>
		<stop  offset="0.9615" style="stop-color:#6C6C6C"/>
		<stop  offset="0.9615" style="stop-color:#6C6C6C"/>
		<stop  offset="1" style="stop-color:#6C6C6C"/>
	</linearGradient>
	<path id="path13093" class="st21" d="M1162.7,1952.4c-0.7,0.4-1.4,0.7-2.1,1c26.9-12,59-59.6,74.4-118.9h-3.1
		C1196.6,1897.6,1185.2,1939.8,1162.7,1952.4"/>
	<path id="path13097" class="st22" d="M1145.2,1947.1c5.9-7.1,10.6-19.3,17.1-39.3c-7.5,10.3-15.1,19.2-22.6,26.4c0,0,0,0,0,0.1
		C1141.3,1939.2,1143.1,1943.6,1145.2,1947.1"/>
	<path id="path13101" class="st6" d="M1145.2,1947.1c-2,2.4-4.1,4.3-6.5,5.7c-0.5,0.3-1,0.6-1.6,0.8c2.5,1.3,5.2,2.2,8.2,2.6l0,0
		l0,0c0.4,0,0.9,0.1,1.3,0.1h0.1c0.2,0,0.4,0,0.6,0h0.1c0.2,0,0.4,0,0.7,0c0.2,0,0.5,0,0.7,0c0.1,0,0.1,0,0.2,0c0.2,0,0.3,0,0.5,0
		c0.1,0,0.2,0,0.2,0c0.2,0,0.3,0,0.5,0c0,0,0,0,0.1,0c0.1,0,0.1,0,0.2,0c0.2,0,0.3,0,0.5-0.1h0c0.1,0,0.1,0,0.2,0
		c0.2,0,0.4-0.1,0.6-0.1c0.1,0,0.1,0,0.2,0c0.2,0,0.4-0.1,0.6-0.1h0c0,0,0,0,0.1,0c0.4-0.1,0.8-0.2,1.3-0.3
		C1150.5,1954.4,1147.6,1951.4,1145.2,1947.1"/>
	<path id="path13105" class="st23" d="M1095.5,1956.3c2.5,0,5.1-0.2,7.6-0.7c2.4-0.4,4.7-1.1,7.1-1.9c2,1,4,1.7,6.2,2.1
		c1.7,0.3,3.5,0.5,5.3,0.5H1095.5z"/>
	<path id="path13109" class="st23" d="M1121.8,1956.3c6.2,0,11.1-0.7,15.3-2.7c2.5,1.3,5.2,2.2,8.2,2.6l0,0l0,0
		c0.4,0,0.9,0.1,1.3,0.1h0.1c0.2,0,0.4,0,0.6,0h0.1c0.2,0,0.4,0,0.7,0L1121.8,1956.3L1121.8,1956.3z"/>
	<path id="path13113" class="st24" d="M1148.2,1956.3c0.2,0,0.5,0,0.7,0c0.1,0,0.1,0,0.2,0c0.2,0,0.3,0,0.5,0c0.1,0,0.2,0,0.2,0
		c0.2,0,0.3,0,0.5,0c0,0,0,0,0.1,0c0.1,0,0.1,0,0.2,0c0.2,0,0.3,0,0.5-0.1c0,0,0,0,0,0c0.1,0,0.1,0,0.2,0c0.2,0,0.4-0.1,0.6-0.1
		c0.1,0,0.1,0,0.2,0c0.2,0,0.4-0.1,0.6-0.1h0c0,0,0,0,0.1,0c0.4-0.1,0.8-0.2,1.3-0.3l0,0c1.2,0.4,2.5,0.7,3.9,0.7L1148.2,1956.3
		L1148.2,1956.3z"/>
	<path id="path13117" class="st25" d="M1139.6,1934.2L1139.6,1934.2c-2.8,2.6-5.5,5-8.3,7.2c-1.4,1.1-2.9,2.2-4.3,3.3
		c1.2,1.5,2.5,2.8,3.8,4.1c2,1.9,4.1,3.5,6.4,4.8c0.5-0.3,1.1-0.5,1.6-0.8c2.4-1.4,4.5-3.2,6.5-5.7
		C1143.1,1943.6,1141.3,1939.2,1139.6,1934.2"/>
	
		<linearGradient id="path13139_1_" gradientUnits="userSpaceOnUse" x1="348.0796" y1="2445.7893" x2="349.0796" y2="2445.7893" gradientTransform="matrix(0 123.7424 123.7424 0 -301459.4062 -41238.082)">
		<stop  offset="0" style="stop-color:#717171"/>
		<stop  offset="0.5" style="stop-color:#6E6E6E"/>
		<stop  offset="1" style="stop-color:#424242"/>
	</linearGradient>
	<path id="path13139" class="st26" d="M1222,1834.5h-13.1c-0.4,0-0.9,0-1.3,0l0,0c-0.4,0-0.8,0-1.2,0l0,0h0c-0.8,0-1.7,0.1-2.5,0.1
		l0,0c-0.4,0.8-0.8,1.6-1.2,2.5l0,0c-13,27.6-26.6,51.6-40.4,70.6l0,0c-6.5,20-11.3,32.2-17.1,39.3l0,0c2.5,4.3,5.4,7.3,8.9,8.5l0,0
		c0.1,0,0.2,0,0.3-0.1l0,0c0,0,0.1,0,0.1,0l0,0c0.1,0,0.1,0,0.2,0l0,0c0.1,0,0.3-0.1,0.4-0.1l0,0c0.1,0,0.2,0,0.3-0.1l0,0
		c0.1,0,0.3-0.1,0.4-0.1l0,0c0.1,0,0.2-0.1,0.2-0.1l0,0c0.2-0.1,0.4-0.1,0.6-0.2l0,0c0.1,0,0.2-0.1,0.3-0.1l0,0
		c0.1,0,0.2-0.1,0.3-0.1l0,0c0.1,0,0.2-0.1,0.3-0.1l0,0c0.1,0,0.2-0.1,0.3-0.1l0,0c0.2-0.1,0.4-0.1,0.7-0.2l0,0
		c0.1,0,0.1-0.1,0.2-0.1l0,0c0.1-0.1,0.3-0.1,0.4-0.2l0,0c0.1,0,0.1,0,0.2-0.1l0,0c0.5-0.2,1-0.4,1.5-0.6l0,0h0.1l0,0
		c0.7-0.3,1.4-0.7,2.1-1l0,0c22.5-12.6,33.9-54.8,69.2-117.9l0,0L1222,1834.5L1222,1834.5z"/>
	<path id="path13231" class="st27" d="M1026.7,1837.3c0.1,0,0.1,0,0.2,0c0.1,0,0.3,0,0.4,0c0.1,0,0.1,0,0.1,0c0.2,0,0.5,0.1,0.7,0.1
		c0,0,0.1,0,0.1,0c0.2,0,0.4,0.1,0.6,0.1c0,0,0.1,0,0.2,0c0.5,0.1,1,0.2,1.5,0.3c0,0,0.1,0,0.1,0c0.2,0,0.4,0.1,0.6,0.2
		c0.1,0,0.1,0,0.2,0c0.2,0.1,0.5,0.1,0.7,0.2c0,0,0,0,0.1,0c0.2,0.1,0.4,0.1,0.6,0.2c0.1,0,0.2,0.1,0.2,0.1c0.1,0.1,0.3,0.1,0.4,0.2
		c0.1,0,0.2,0.1,0.2,0.1c0.2,0.1,0.4,0.2,0.6,0.2c0.1,0,0.2,0.1,0.3,0.1c0.1,0.1,0.2,0.1,0.3,0.1c0.1,0,0.2,0.1,0.3,0.1
		c0.1,0.1,0.2,0.1,0.3,0.2c2.5,1.2,4.8,2.9,6.9,4.9c0.8-0.8,1.6-1.6,2.5-2.2c-4.7-3.3-10-5.2-16.1-5.2
		C1028.2,1837.2,1027.4,1837.3,1026.7,1837.3"/>
	<path id="path13235" class="st28" d="M1042.5,1844.6c1.3,1.2,2.6,2.6,3.7,4c1.1-0.8,2.3-1.6,3.4-2.3c-1.5-1.5-3.1-2.8-4.7-4
		C1044.1,1843,1043.2,1843.8,1042.5,1844.6"/>
	<g id="g13243" transform="matrix(5.0481458,0,0,-5.0481458,-9064.2597,2270.6096)">
		
			<linearGradient id="path13245_1_" gradientUnits="userSpaceOnUse" x1="1868.2872" y1="-33.3956" x2="1869.2872" y2="-33.3956" gradientTransform="matrix(28.5033 -11.8223 -11.8223 -28.5033 -51647.3828 21222.623)">
			<stop  offset="0" style="stop-color:#C6C6C6"/>
			<stop  offset="0.7033" style="stop-color:#A5A5A5"/>
			<stop  offset="1" style="stop-color:#A5A5A5"/>
		</linearGradient>
		<path id="path13245" class="st29" d="M1998.9,85.8c0.1,0,0.3,0,0.4,0c1.2,0,2.3-0.4,3.2-1c1,0.8,2.2,1,3.8,1h-7.9
			C1998.6,85.9,1998.8,85.9,1998.9,85.8"/>
	</g>
	<g id="g13253" transform="matrix(5.0481458,0,0,-5.0481458,-9064.2597,2270.6096)">
		
			<linearGradient id="path13255_1_" gradientUnits="userSpaceOnUse" x1="1867.3329" y1="-29.5615" x2="1868.3329" y2="-29.5615" gradientTransform="matrix(22.5118 10.2054 10.2054 -22.5118 -39732.4102 -19638.1426)">
			<stop  offset="0" style="stop-color:#B7B7B7"/>
			<stop  offset="1" style="stop-color:#999999"/>
		</linearGradient>
		<path id="path13255" class="st30" d="M2006.3,85.9c-1.6,0-2.8-0.3-3.8-1c0.3-0.2,0.6-0.5,0.9-0.8c1.4,0.9,2.7,1.4,4,1.7
			c0.5,0.1,1,0.1,1.5,0.1L2006.3,85.9L2006.3,85.9z"/>
	</g>
	
		<linearGradient id="path13333_1_" gradientUnits="userSpaceOnUse" x1="348.135" y1="2445.8965" x2="349.135" y2="2445.8965" gradientTransform="matrix(0 121.0325 121.0325 0 -294861.1875 -40294.668)">
		<stop  offset="0" style="stop-color:#858585"/>
		<stop  offset="1" style="stop-color:#8F8F8F;stop-opacity:0"/>
	</linearGradient>
	<path id="path13333" class="st31" d="M1162.3,1907.8c3.6-11,7.6-24.3,12.7-40.5c4.6-14.6,12.6-25.4,27.8-30.2
		c0.4-0.8,0.8-1.7,1.2-2.5c-24.7,1.5-36.2,14-42,32.6c-10.2,32.5-16.3,53.5-22.2,66.9C1147.2,1927,1154.8,1918.1,1162.3,1907.8"/>
</g>
</svg>
