<?xml version="1.0" encoding="utf-8"?>
<!-- Generator: Adobe Illustrator 24.2.3, SVG Export Plug-In . SVG Version: 6.00 Build 0)  -->
<svg version="1.1" id="Layer_1" xmlns="http://www.w3.org/2000/svg" xmlns:xlink="http://www.w3.org/1999/xlink" x="0px" y="0px"
	 viewBox="0 0 334.6 471.4" style="enable-background:new 0 0 334.6 471.4;" xml:space="preserve">
<style type="text/css">
	.st0{fill:#FFFFFF;stroke:#000000;stroke-miterlimit:10;}
	.st1{fill:#505050;}
	.st2{fill:#666666;}
	.st3{opacity:0.2;}
</style>
<polygon class="st0" points="28,124 63,408 282,406 293,138 "/>
<g>
	<g>
		<path class="st1" d="M30.7,0H52v21h19.5V0h21.3v63.7H71.5V42.4H52v21.3H30.7V0z"/>
		<path class="st1" d="M120.8,21.1H102V0h58.8v21.1H142v42.6h-21.3L120.8,21.1L120.8,21.1z"/>
		<path class="st1" d="M170.2,0h22.2l13.7,22.4L219.7,0h22.2v63.7h-21.2V32.1L206,54.8h-0.4L191,32.1v31.6h-20.8V0z"/>
		<path class="st1" d="M252.5,0h21.3v42.7h30v21.1h-51.3L252.5,0L252.5,0z"/>
	</g>
	<path class="st1" d="M112,246.4h55.3v-42.9h-59.2L112,246.4z M0,91.7l30.5,341.7l136.8,38l136.9-37.9l30.5-341.8
		C334.6,91.7,0,91.7,0,91.7z M278,411.7l-110.7,30.7v-43.5h-0.1L81.4,375l-6-67.3h42.1l3.1,34.9l46.7,12.6h0.1v-67H73.6L62.3,161.5
		h105v-41.9h136.8L278,411.7z"/>
	<path class="st2" d="M218.9,288.3h-51.6v67l46.7-12.6L218.9,288.3z M167.3,119.6v41.9h105l-3.8,41.9H167.3v42.9h97.4L253.2,375
		l-85.9,23.8v43.5L278,411.7l26.1-292.1L167.3,119.6L167.3,119.6z"/>
	<g class="st3">
		<polygon class="st1" points="167.3,161.5 62.3,161.5 73.6,288.3 167.3,288.3 167.3,246.4 112,246.4 108.1,203.4 167.3,203.4 		"/>
		<polygon class="st1" points="167.3,355.3 167.3,355.3 120.6,342.7 117.5,307.7 75.4,307.7 81.4,375 167.2,398.9 167.3,398.9 		"/>
	</g>
</g>
</svg>
