<?xml version="1.0" encoding="utf-8"?>
<!-- Generator: Adobe Illustrator 24.2.3, SVG Export Plug-In . SVG Version: 6.00 Build 0)  -->
<svg version="1.1" id="Layer_1" xmlns="http://www.w3.org/2000/svg" xmlns:xlink="http://www.w3.org/1999/xlink" x="0px" y="0px"
	 viewBox="0 0 373.1 516.2" style="enable-background:new 0 0 373.1 516.2;" xml:space="preserve">
<style type="text/css">
	.st0{fill:#505050;}
</style>
<path class="st0" d="M347,346.6c5.8,2.7,9.2,7.2,11.1,12.7c3.2,9.2,6.9,18.3,9,27.8c2.8,12.7-0.3,24.7-7.4,35.6
	c-2.3,3.5-5.6,5.7-9.8,6.8c-11.3,3-22.6,2.6-33.9,0.1c-1.7-0.4-3.1-2.5-4.3-4.2c-0.9-1.2-1.7-1.8-3.3-1.8
	c-7.2,0.1-14.4,0.5-21.1,3.4c-1.5,0.6-2.3,1.3-2.2,3.1c0.1,3.5-2.1,5.6-5.2,6.3c-3.2,0.8-4.1,2.7-3.8,5.5c0.7,5.9,1.6,11.8,2.6,17.7
	c0.8,5.2,2.2,10.3,2.5,15.6c0.4,6.6-2.3,10.3-8.6,12.5c-3.1,1.1-6.3,1.7-9.5,2.4c-1.4,0.3-1.9,0.8-1.8,2.2c0.2,2.5,0,5.2,0.6,7.6
	c0.9,4-0.9,6.7-3.6,9c-3.8,3.2-8.4,4.6-13.2,5.1c-19.7,2.2-39.5,3.2-59.3,0.9c-7.6-0.9-15-2.9-22.5-4.3c-1.9-0.4-3-1.4-3.6-3.3
	c-4.9-15.6-9.9-31.2-14.8-46.8c-1.4-4.3-1.3-4.3-5.8-4.2c-8.9,0.2-17.5-1.5-25.7-4.9c-6.3-2.6-12.5-5.7-18.7-8.5
	c-5.9-2.7-11.6-5.7-17.7-7.8c-7.2-2.6-10.3-7.2-10.3-14.8c0-7.8-0.5-15.6-1-23.5c-0.1-1.2-0.8-2.6-1.6-3.4
	C28.9,361.7,7.4,322.5,1.7,275.6C-6.6,207.6,15,150,65.9,103.8c1.3-1.2,2-2.4,2.1-4.2c0.3-7.4,1.5-14.6,4.3-21.5
	c2.7-6.5,6.8-11.9,13.2-15.3c0.7-0.4,1.3-1.2,1.5-1.9c2.8-10,8.5-18.2,16.9-24.1C125.2,22,147.7,9.2,173.4,3.5
	c25.6-5.7,51.1-4.6,75.9,4.8c8.1,3.1,15.4,7.4,21.8,13.3c5.8,5.3,11.3,10.8,16.8,16.4c12.9,13.2,19.5,29.6,22.6,47.5
	c1.3,7.4,1.9,14.9,2.9,22.3c0.2,1.1,0.7,2.5,1.5,3.3c29.5,29.1,48.1,64,55.2,104.9c7.7,45,0.6,87.6-21.3,127.7
	C348.1,344.5,347.6,345.4,347,346.6z M149.8,202.8c2.6,3.6,5.2,7.2,7.9,10.7c8.2,11,17,21.4,28.8,28.8c10.9,6.8,22.3,11.7,35.5,11
	c11.4-0.6,21.9-4.1,31.9-9.3c7.1-3.7,14.3-7.4,19.2-14c7.7-10.3,14.9-20.9,20-32.8c14.8-34.7,15.9-70.8,10.4-107.5
	c-1.7-11.2-8.7-18.4-19.4-21.9c-5.4-1.7-10.6-1.3-15.3,2.1c-0.2,0.2-0.5,0.2-0.8,0.2c-0.7-3.3,0-6.3,2.1-8.6
	c4.9-5.3,11.1-5.1,17.8-3.9c-0.3-0.6-0.4-0.9-0.6-1.2c-4.3-5.5-8.5-11-13-16.3c-5-5.9-10.7-10.9-17.6-14.6
	c-14.7-7.7-30.2-12.4-46.8-13.7c-10.2-0.8-20.4-0.3-29.8,4.1c-13.2,6.2-25.7,13.6-36.8,23.2c-6.5,5.6-12.2,11.7-16,19.5
	c-0.5,0.9-0.4,2.2-0.2,3.3c0.6,3.7,1.8,7.3,2.1,11c0.7,8.1-1.1,16.1-3.1,23.9c-3.1,12-3.7,23.9,0.4,35.9c0.9,2.8,1.3,5.8,1.7,8.7
	c0.5,3.5-0.2,5-3.6,5.9c-3.5,1-7.2,1.2-10.8,1.7c-1.5,0.2-2.1-0.4-2.6-1.9c-1.4-4.5-2.8-9-4.9-13.2c-2.4-4.6-6.7-6.6-11.9-6.7
	c-10.5-0.1-20,7.8-22.1,18.8c-1.6,8.7,0.9,16.6,4.8,24.2c2.9,5.6,6.7,10.3,12.2,13.4c4.6,2.6,11.5,3.9,17.1-1.3
	c1.3-1.2,2.8-2.1,4.4-2.8c1.1-0.4,3.1-0.7,3.5-0.2c0.7,1,0.9,2.7,0.8,4c-0.1,1-0.8,2.1-1.4,3c-0.7,1-1.6,2-2.6,2.8
	c-3.2,2.6-3.9,5.9-3.1,9.9c3.2,14.7,8.5,28.4,16.3,41.2c3,5,7.3,8.6,12.7,10.9c9.5,4.2,19.8,4.8,30,5.5c0.5,0,1.3-0.3,1.6-0.7
	c2.2-3.1,5.4-4.3,8.9-4.5c3.6-0.2,7.1-0.1,10.5-0.1c0,0-0.2-0.2-0.4-0.3c-14.1-8.6-24.6-20.9-33.7-34.4
	C151.1,212.6,149.5,208,149.8,202.8z M141.6,378.7c0.1,1.4,0.2,2.5,0.3,3.6c1,8.2,2,16.5,3.2,24.7c4.2,30.3,10.7,60,20,89.1
	c0.6,1.8,1.6,2.6,3.3,3.1c22.9,6.3,46.2,7.9,69.7,4.2c4.9-0.8,9.7-2.1,14.2-3.1c-0.8-8.5-1.8-16.4-2.3-24.4
	c-0.7-12.6-1-25.2-1.6-37.8c-0.6-10.7-1.5-21.3-2.3-32c-0.6-9.2-1.2-18.3-1.8-27.5c-0.3-4-0.4-4.2-4.3-4.6
	c-6.9-0.8-13.8-1.8-20.7-2.1c-21.2-0.9-42.2,1.1-63.2,4.4C151.3,377,146.6,377.9,141.6,378.7z M318.8,421.7c0,0.4,0.1,0.7,0.1,1.1
	c0.9,0.2,1.8,0.5,2.7,0.7c6.3,1.1,12.5,0.7,18.8-0.3c9.4-1.5,14.8-7.3,16.9-16.1c0.9-3.8,1.2-8,0.5-11.8c-1.9-10.5-4-21-8-31
	c-1.7-4.1-4.6-7.1-8.5-9c-3.5-1.8-7-1.9-10.5,0.3c-2.1,1.3-4.4,2.3-6.7,3.2c-5.3,2-10.7,3.6-16,5.8c-3.6,1.5-6.9,3.5-10.3,5.5
	c-0.7,0.4-1.1,1.9-1,2.7c1.2,8,2.8,16,3.9,24.1c0.9,6.1,1.3,12.4,1.9,18.7c2.7,0,5.2,0.1,7.8,0c6.3-0.3,12.6-0.8,18.9-1
	c5-0.2,8.9,0.8,11.2,2.4C333.2,418.6,326,420.1,318.8,421.7z M242.7,356.7c-7.5-17.4-13.8-34.7-25.2-49.7
	c-6.7,4.4-13.5,8.3-18.5,14.3c-2.7,3.2-4.5,7.1-6.6,10.7c-0.8,1.4-0.4,2.4,1.2,3.2c5.4,2.7,10.7,5.7,16.2,8.3
	C220.1,348.7,230.9,353.1,242.7,356.7z M223.5,301.7c6,7.5,10.2,15.7,14,24.2c3.9,8.6,7.7,17.2,11.6,25.8c0.4,0.9,0.9,1.7,1.7,3.1
	c5.1-17.7,4.6-35.3,5.6-52.9c-4.3-0.1-7.4-2.3-10.4-4.6c-3.5-2.7-6.9-3.1-10.9-0.9c-1.9,1-4.2,1.4-6.4,1.4c-1.2,0-2.1,0.1-2.8,1.1
	C225.3,299.8,224.4,300.6,223.5,301.7z M255.4,354.9c0.3-0.2,0.4-0.2,0.5-0.2c10.5-13.8,18.8-29,27.5-44c0.3-0.5,0.1-1.4-0.2-1.9
	c-3.3-5.6-10.9-9-17.3-7.7c-3.6,0.7-3.8,0.9-4,4.6C261,322.1,259.7,338.6,255.4,354.9z M284,420.7c3.9-1.2,7.8-2.3,12.2-3.7
	c-0.8-9-1.2-17.8-2.6-26.4c-0.9-5.8-3.3-11.4-5.2-17.1c-0.2-0.7-1.3-1.7-2-1.7c-3.1-0.2-6.2-0.1-9.6-0.1
	C279.2,388.2,281.6,404.1,284,420.7z M255.8,480.9c3.5-0.6,6.5-0.9,9.4-1.7c6.9-1.9,7.1-2,6.1-9c-1.5-10-3.6-19.9-5.3-29.9
	c-0.3-1.7-1.5-1.5-2.5-1.3c-3,0.6-6,1.3-9.5,2.1C254.5,454.2,255.1,467.2,255.8,480.9z M96.5,60.2c4.9-1.7,10.6-1.4,14-6.4
	c1.3-1.9,3-3.5,4.6-5.1C125.2,38,138.7,32.8,151.2,26c1.4-0.8,3.3-1.3,2.8-3.3c-0.5-1.6-2.2-1.6-3.7-1.1
	c-17.4,5.4-33.3,13.6-46.2,27C100.9,52,98.2,55.7,96.5,60.2z M80.2,121.1c2.3-0.9,2.3-0.9,2-3.1c-1.4-10.6-0.4-20.7,5.4-30
	c5.9-9.4,14.9-14.4,25.3-17.3c2.9-0.8,5.9-1.4,9-2.1c-0.4-1.4-0.7-2.6-1-3.8c-0.3-1.2-0.9-1.6-2.2-1.5c-10.7,1.2-20.2,5-28.4,12.1
	c-4.8,4.2-8.1,9.1-9.5,15.4C78.5,100.8,79.4,110.8,80.2,121.1z M140,258.3c-1.5,2.2-1.3,3.6,1.1,5.5c6.5,5.2,14.3,7.4,22.4,9
	c0.7-2.9,1.4-5.6,2.1-8.3c0.3-1.4-0.1-2.1-1.6-2.2c-2.1-0.1-4.1-0.3-6.2-0.5C151.8,261.3,145.6,261.5,140,258.3z M248.9,258.5
	c-0.1-0.2-0.1-0.3-0.2-0.5c-3.9,0.9-7.9,1.7-11.8,2.6c-7.6,1.7-15.1,3.5-22.9,0.7c-0.2-0.1-0.6,0.1-0.8,0.2c0,0.3,0,0.5,0.1,0.6
	c6.5,5.5,14.1,7.1,22.4,6.4c0.4,0,0.8-0.1,1.1-0.4C240.8,264.9,244.8,261.7,248.9,258.5z"/>
<path class="st0" d="M233,165.7c0.6,2.4,1.2,4.4,1.7,6.4c1.3,5,3.2,6.9,8.4,6.6c4.5-0.3,9.1-1,13.3-2.5c6.6-2.4,12.9-5.6,19.3-8.5
	c1.9-0.9,3.7-5.6,2.8-8.4c-0.7-2.2-2-4.3-3.4-6.2c-4.5-5.6-9.3-10.9-13.7-16.6c-5.8-7.4-10.7-15.3-12.9-24.6
	c-0.6-2.7-0.9-5.5-1.1-8.3c-0.1-0.7,0.8-2.1,1.2-2.1c0.8,0,1.7,0.7,2.5,1.2c0.3,0.2,0.4,0.7,0.5,1.1c1.9,8.6,7.1,15.5,12.2,22.3
	c6.9,9.3,14,18.4,22.8,26.1c1.9,1.7,2.3,3.8,1.7,6.1c-0.9,3.5-1.9,6.9-2.9,10.3c-0.1,0.4-0.5,0.8-0.9,1
	c-10.3,6.7-20.8,12.9-33.2,14.7c-4.9,0.7-10,0.6-15,0.7c-0.7,0-1.6-0.3-2.1-0.8C229.3,180.3,228.6,170.9,233,165.7z"/>
<path class="st0" d="M263,214.7c-1.4,3.3-3.2,6-6.4,7c-11.4,3.6-23,4.3-34.7,1.4c-4.6-1.2-8.1-4.1-11-7.6
	c-3.9-4.7-7.7-9.5-11.5-14.3c-0.8-1-1.7-2.1-0.1-3.2c1.4-1,4.1-0.9,4.7,0.3c5.1,10.8,14.6,14.7,25.4,15.7c10.3,0.9,20.7,0.6,31,0.8
	C261.1,214.7,261.9,214.7,263,214.7z"/>
<path class="st0" d="M256.1,204c-5.1,0-9.8,0.3-14.5-0.1c-8.6-0.6-16.9-2.5-24.6-6.5c-4.1-2.1-7.7-4.9-10.1-8.9
	c-0.4-0.7-0.7-1.5-1.4-2.7c13.3,5.7,26.9,6.1,40.4,6.4c2.5,0.1,4.9-0.2,7.4-0.1c0.6,0,1.8,0.7,1.8,1.2
	C255.6,196.9,255.8,200.5,256.1,204z"/>
<path class="st0" d="M215.5,122.2c-4.7-8.8-10.3-17-9.3-27.4c0.2-0.1,0.5-0.2,0.7-0.3c0.5,0.9,1,1.8,1.4,2.8
	c1.3,2.9,2.5,5.9,3.8,8.8c1.7,3.9,4,7.4,7.4,10.2c3.2,2.7,5.2,6,3.6,10.3c-1.2,3.5-4.1,5.7-7.4,6.6c-6.8,2-13.8,1.8-20.4-1.1
	c-3.8-1.7-5-4.7-3.3-7.9c0.3-0.7,1.6-1.4,2.3-1.3c4,0.5,8,1.2,12.1,1.7C209.6,124.9,212.7,124.6,215.5,122.2z"/>
<path class="st0" d="M163.3,93c-2.3-0.4-3.2-1.9-3.3-3.8c0-1.7,0.1-3.6,0.6-5.2c3.7-11.3,11.5-18.6,22.7-22.1
	c4-1.3,8.1-0.7,11.7,1.8c2.7,1.9,3.8,4.7,2.8,7.2c-0.3,0.6-1.3,1.4-1.9,1.3c-15-1.4-23.2,3-30.3,16.4C164.8,90,164.1,91.4,163.3,93z
	"/>
<path class="st0" d="M293.6,178c-6.7,15.8-21.6,26.9-33.8,25.2c0-3.3-0.1-6.7,0.1-10.1c0-0.6,0.8-1.7,1.4-1.8
	c10.5-1.3,19.4-6.6,28.5-11.4C290.8,179.3,292,178.8,293.6,178z"/>
<path class="st0" d="M293.7,117.9c-1.8-7.1-3.5-13.4-5-19.8c-0.3-1.1-0.1-2.2-0.1-3.3c0-0.3,0.2-0.6,0.4-1.4c0.6,0.9,1,1.4,1.3,1.9
	c4,7.9,8,15.7,12,23.7c0.3,0.6,0.1,1.7-0.3,2.3c-3.5,5.4-14.4,9.4-20.5,7.6c-3.3-0.9-5.1-3.2-5.6-6.4c-0.2-1.4,0.2-2.2,1.6-2.3
	c2.8-0.3,5.5-0.6,8.3-0.9C288.6,118.7,291.3,118.3,293.7,117.9z"/>
<path class="st0" d="M106.9,159.9c-0.9-1.4-2-2.8-2.8-4.3c-1.1-1.9-2-4-3-6c-1-1.8-2.3-3.1-4.6-2.8c-2.3,0.3-3.4,1.9-3.8,3.8
	c-0.6,2.8-1,5.6-1.2,8.5s0,5.9,0,8.9c-4.4-2.2-5.5-13.7-2.5-24.3c-3.6-2-5,1.9-7.5,3.1c0-7.3,6.6-12.2,13.6-10.3
	c8.2,2.2,14,11.3,12.9,20.5c-0.1,0.9-0.3,1.7-0.4,2.5C107.4,159.7,107.2,159.8,106.9,159.9z"/>
<path class="st0" d="M307.3,379.6c6.7-8.3,16-10.5,26.2-11.2c-6.3,3.5-12.4,7.1-18.7,10.3c-2.2,1.1-4.8,1.3-7.2,1.9
	C307.5,380.3,307.4,380,307.3,379.6z"/>
<path class="st0" d="M342.4,399c-10.2,0-19.9,0-29.7,0c-0.1-0.3-0.1-0.6-0.2-1c1.5-0.6,2.9-1.5,4.4-1.8
	C325.5,394.6,333.8,396.3,342.4,399z"/>
<path class="st0" d="M338.9,385.4c-8.6,0.6-17.2,1.1-25.8,1.7c-0.1-0.3-0.1-0.6-0.2-0.9c1.1-1.8,3-2.5,5-3
	c5.4-1.3,10.7-0.8,16.1,0.2c1.7,0.3,3.4,0.8,5,1.2C339,384.9,338.9,385.2,338.9,385.4z"/>
<path class="st0" d="M251.1,327.1c0,2.1-1.8,3.8-3.8,3.8c-2.1,0-3.8-1.8-3.7-3.9c0.1-2,1.8-3.6,3.7-3.6
	C249.5,323.3,251.1,324.9,251.1,327.1z"/>
<path class="st0" d="M247.3,309.3c0,2.1-1.7,3.9-3.7,3.9c-2.1,0-3.8-1.8-3.8-3.8s1.6-3.6,3.6-3.7
	C245.5,305.5,247.3,307.2,247.3,309.3z"/>
</svg>
