<?xml version="1.0" encoding="utf-8"?>
<!-- Generator: Adobe Illustrator 24.2.3, SVG Export Plug-In . SVG Version: 6.00 Build 0)  -->
<svg version="1.1" id="Layer_1" xmlns="http://www.w3.org/2000/svg" xmlns:xlink="http://www.w3.org/1999/xlink" x="0px" y="0px"
	 viewBox="0 0 360 93.9" style="enable-background:new 0 0 360 93.9;" xml:space="preserve">
<style type="text/css">
	.st0{fill:#505050;}
	.st1{fill-rule:evenodd;clip-rule:evenodd;fill:#505050;}
</style>
<g>
	<g>
		<path class="st0" d="M150.5,53.6h-15.2v26.3h-10.1V13.1h25.3c13,0,21.4,8.6,21.4,20.3C171.9,45,163.5,53.6,150.5,53.6L150.5,53.6z
			 M149.9,22.2h-14.6v22.2h14.6c7,0,11.8-4,11.8-11.1C161.7,26.3,156.9,22.2,149.9,22.2L149.9,22.2z"/>
		<path class="st0" d="M193.5,79.9c-9,0-13-6.1-13-13.1V13.1h9.6v53.1c0,3.7,1.3,5.5,5.2,5.5h4.2v8.2H193.5z"/>
		<path class="st0" d="M241.4,74.8c-3.1,3.2-7.8,5.6-14.3,5.6c-6.5,0-11.1-2.4-14.2-5.6c-4.5-4.7-5.6-10.7-5.6-18.8
			c0-8,1.1-14,5.6-18.7c3.1-3.2,7.7-5.6,14.2-5.6c6.5,0,11.2,2.4,14.3,5.6c4.5,4.7,5.6,10.7,5.6,18.7
			C247.1,64.1,245.9,70.2,241.4,74.8L241.4,74.8z M234.2,43c-1.8-1.8-4.2-2.7-7-2.7c-2.8,0-5.2,0.9-6.9,2.7c-2.9,2.9-3.3,7.9-3.3,13
			s0.4,10.1,3.3,13c1.8,1.8,4.1,2.8,6.9,2.8c2.8,0,5.3-1,7-2.8c2.9-2.9,3.3-7.9,3.3-13S237.1,45.9,234.2,43z"/>
		<path class="st0" d="M285,79.9v-29c0-7.4-4.2-10.6-9.6-10.6s-9.9,3.3-9.9,10.6v29H256V32.3h9.4v4.8c3.3-3.6,7.9-5.3,12.7-5.3
			c4.9,0,8.9,1.6,11.7,4.3c3.7,3.6,4.8,8.1,4.8,13.4v30.4L285,79.9z"/>
		<path class="st0" d="M313,58.9c0,8.2,4.3,13.3,12.1,13.3c5.3,0,8.2-1.5,11.5-4.9l6.1,5.7c-4.9,4.9-9.5,7.4-17.8,7.4
			c-11.9,0-21.4-6.3-21.4-24.4c0-15.4,8-24.3,20.2-24.3c12.8,0,20.2,9.4,20.2,22.9v4.2H313z M333.1,45.8c-1.5-3.6-4.9-6-9.4-6
			c-4.5,0-8,2.4-9.5,6c-0.9,2.2-1.1,3.6-1.2,6.5h21.4C334.3,49.3,334,47.9,333.1,45.8z"/>
	</g>
	<circle class="st1" cx="40.9" cy="26.7" r="10.2"/>
	<path class="st0" d="M71.7,47c0,5.6-4.5,10.2-10.2,10.2c-5.6,0-10.2-4.5-10.2-10.2c0-5.6,4.6-10.2,10.2-10.2
		C67.1,36.8,71.7,41.3,71.7,47z"/>
	<circle class="st1" cx="40.8" cy="67.3" r="10.2"/>
	<g>
		<path class="st0" d="M46.9,0C21,0,0,21,0,46.9c0,25.9,21,46.9,46.9,46.9c25.9,0,46.9-21,46.9-46.9C93.9,21,72.8,0,46.9,0L46.9,0z
			 M73.3,73.3c-6.8,6.8-16.1,10.9-26.4,10.9c-10.3,0-19.6-4.2-26.4-10.9C13.7,66.6,9.6,57.3,9.6,46.9c0-10.3,4.2-19.6,10.9-26.4
			c6.8-6.8,16.1-10.9,26.4-10.9c10.3,0,19.6,4.2,26.4,10.9c6.8,6.8,10.9,16.1,10.9,26.4C84.3,57.3,80.1,66.6,73.3,73.3z"/>
		<path class="st0" d="M355,23.1c-2.8,0-5,2.2-5,5c0,2.8,2.2,5,5,5c2.8,0,5-2.2,5-5S357.8,23.1,355,23.1z M355,32.3
			c-2.4,0-4.3-1.9-4.3-4.3c0-2.4,1.9-4.3,4.3-4.3c2.4,0,4.3,1.9,4.3,4.3C359.3,30.4,357.3,32.3,355,32.3z"/>
		<path class="st0" d="M356.2,31l-1.2-2.5h-1.1V31h-0.9v-5.9h2.3c1.1,0,1.8,0.7,1.8,1.7c0,0.8-0.5,1.4-1.2,1.6l1.4,2.6L356.2,31z
			 M355.2,25.9h-1.3v1.9h1.3c0.6,0,1-0.3,1-0.9S355.8,25.9,355.2,25.9z"/>
	</g>
</g>
</svg>
