<?xml version="1.0" encoding="utf-8"?>
<!-- Generator: Adobe Illustrator 24.2.3, SVG Export Plug-In . SVG Version: 6.00 Build 0)  -->
<svg version="1.1"
	 id="svg2" inkscape:version="0.43" sodipodi:docbase="/home/sdeibel" sodipodi:docname="logo-python-inkscape.svg" sodipodi:version="0.32" xmlns:cc="http://web.resource.org/cc/" xmlns:dc="http://purl.org/dc/elements/1.1/" xmlns:inkscape="http://www.inkscape.org/namespaces/inkscape" xmlns:rdf="http://www.w3.org/1999/02/22-rdf-syntax-ns#" xmlns:sodipodi="http://inkscape.sourceforge.net/DTD/sodipodi-0.dtd" xmlns:svg="http://www.w3.org/2000/svg"
	 xmlns="http://www.w3.org/2000/svg" xmlns:xlink="http://www.w3.org/1999/xlink" x="0px" y="0px" viewBox="0 0 111.3 112.3"
	 style="enable-background:new 0 0 111.3 112.3;" xml:space="preserve">
<style type="text/css">
	.st0{fill:#505050;}
</style>
<sodipodi:namedview  bordercolor="#666666" borderopacity="1.0" gridtolerance="10.0" guidetolerance="10.0" height="40mm" id="base" inkscape:current-layer="svg2" inkscape:cx="250.73166" inkscape:cy="67.50975" inkscape:pageopacity="0.0" inkscape:pageshadow="2" inkscape:window-height="882" inkscape:window-width="1233" inkscape:window-x="0" inkscape:window-y="6" inkscape:zoom="2.1461642" objecttolerance="10.0" pagecolor="#ffffff" units="mm" width="210mm">
	</sodipodi:namedview>
<path id="path1948" class="st0" d="M55,0c-4.6,0-9,0.4-12.8,1.1C30.9,3.1,28.8,7.3,28.8,15v10.2h26.8v3.4H28.8H18.7
	c-7.8,0-14.6,4.7-16.8,13.6c-2.5,10.2-2.6,16.6,0,27.2C3.8,77.3,8.4,83,16.1,83h9.2V70.9c0-8.8,7.7-16.7,16.8-16.7h26.8
	c7.5,0,13.4-6.1,13.4-13.6V15.1c0-7.3-6.1-12.7-13.4-13.9C64.4,0.4,59.6,0,55,0z M40.5,8.3c2.8,0,5,2.3,5,5.1s-2.3,5.1-5,5.1
	c-2.8,0-5-2.3-5-5.1S37.7,8.3,40.5,8.3z"/>
<path id="path1950" class="st0" d="M85.7,28.7v11.9c0,9.2-7.8,17-16.8,17H42.2c-7.3,0-13.4,6.3-13.4,13.6v25.5
	c0,7.3,6.3,11.5,13.4,13.6c8.5,2.5,16.6,2.9,26.8,0c6.8-2,13.4-5.9,13.4-13.6V86.5H55.6v-3.4h26.8h13.4c7.8,0,10.7-5.4,13.4-13.6
	c2.8-8.4,2.7-16.5,0-27.2c-1.9-7.8-5.6-13.6-13.4-13.6C95.8,28.7,85.7,28.7,85.7,28.7z M70.7,93.3c2.8,0,5,2.3,5,5.1
	c0,2.8-2.3,5.1-5,5.1c-2.8,0-5-2.3-5-5.1C65.6,95.6,67.9,93.3,70.7,93.3z"/>
</svg>
