<?xml version="1.0" encoding="utf-8"?>
<!-- Generator: Adobe Illustrator 24.2.3, SVG Export Plug-In . SVG Version: 6.00 Build 0)  -->
<svg version="1.1" id="Layer_1" xmlns="http://www.w3.org/2000/svg" xmlns:xlink="http://www.w3.org/1999/xlink" x="0px" y="0px"
	 viewBox="0 0 23 20.5" style="enable-background:new 0 0 23 20.5;" xml:space="preserve">
<style type="text/css">
	.st0{fill:#505050;}
</style>
<g>
	<circle class="st0" cx="11.5" cy="10.2" r="2"/>
</g>
<g>
	<g>
		<path class="st0" d="M11.5,14.9C5.1,14.9,0,12.9,0,10.2c0-2.6,5.1-4.7,11.5-4.7c6.4,0,11.5,2.1,11.5,4.7
			C23,12.9,17.9,14.9,11.5,14.9z M11.5,6.5C5.3,6.5,1,8.5,1,10.2c0,1.8,4.3,3.7,10.5,3.7c6.2,0,10.5-2,10.5-3.7
			C22,8.5,17.7,6.5,11.5,6.5z"/>
	</g>
	<g>
		<path class="st0" d="M16.1,20.5c-2.4,0-5.9-3.1-8.7-7.9C5.9,10,4.9,7.3,4.5,5.1c-0.4-2.4,0-4.1,1.2-4.8c1.2-0.7,2.9-0.2,4.7,1.4
			c1.8,1.4,3.6,3.7,5.1,6.3l0,0c3.2,5.6,4,11,1.7,12.3C16.9,20.4,16.5,20.5,16.1,20.5z M6.9,1C6.7,1,6.4,1,6.2,1.1
			C5.5,1.6,5.2,3,5.5,4.9C5.9,7,6.9,9.6,8.3,12.1c3.1,5.4,6.9,8.1,8.5,7.2c1.5-0.9,1-5.6-2-10.9l0,0c-1.4-2.5-3.2-4.6-4.8-6
			C8.7,1.5,7.7,1,6.9,1z"/>
	</g>
	<g>
		<path class="st0" d="M6.9,20.5c-0.4,0-0.8-0.1-1.1-0.3c-2.3-1.3-1.5-6.7,1.7-12.3c1.5-2.6,3.3-4.8,5.1-6.3c1.9-1.5,3.6-2,4.7-1.4
			c2.3,1.3,1.5,6.7-1.7,12.3l0,0C12.8,17.3,9.3,20.5,6.9,20.5z M16.1,1c-0.8,0-1.8,0.5-2.9,1.4c-1.7,1.4-3.4,3.5-4.8,6
			c-3.1,5.4-3.6,10.1-2,10.9c1.5,0.9,5.4-1.9,8.5-7.2c3.1-5.4,3.6-10.1,2-10.9C16.6,1,16.3,1,16.1,1z"/>
	</g>
</g>
</svg>
