<?xml version="1.0" encoding="utf-8"?>
<!-- Generator: Adobe Illustrator 24.2.3, SVG Export Plug-In . SVG Version: 6.00 Build 0)  -->
<svg version="1.1" id="Icons" xmlns="http://www.w3.org/2000/svg" xmlns:xlink="http://www.w3.org/1999/xlink" x="0px" y="0px"
	 viewBox="0 0 477.9 477.9" style="enable-background:new 0 0 477.9 477.9;" xml:space="preserve">
<style type="text/css">
	.st0{fill:#505050;}
</style>
<path class="st0" d="M179.2,477.9h290.1c4.7,0,8.5-3.8,8.5-8.5V281.6c0-4.7-3.8-8.5-8.5-8.5H179.2c-4.7,0-8.5,3.8-8.5,8.5v187.7
	C170.7,474,174.5,477.9,179.2,477.9z M375.5,324.3c0-4.7,3.8-8.5,8.5-8.5s8.5,3.8,8.5,8.5v93.9h42.7c4.7,0,8.5,3.8,8.5,8.5
	s-3.8,8.5-8.5,8.5H384c-4.7,0-8.5-3.8-8.5-8.5V324.3z M290.1,349.9c0-18.9,15.3-34.1,34.1-34.1c18.9,0,34.1,15.3,34.1,34.1v51.2
	c0,6.1-1.7,12-4.8,17.2l2.3,2.3c3.4,3.3,3.5,8.7,0.2,12.1c-3.3,3.4-8.7,3.5-12.1,0.2c-0.1-0.1-0.1-0.1-0.2-0.2l-2.3-2.3
	c-5.2,3.1-11.2,4.8-17.2,4.8c-18.9,0-34.1-15.3-34.1-34.1L290.1,349.9z M238.9,384c-18.9,0-34.1-15.3-34.1-34.1
	c0-18.9,15.3-34.1,34.1-34.1s34.1,15.3,34.1,34.1c0,4.7-3.8,8.5-8.5,8.5s-8.5-3.8-8.5-8.5c0-9.4-7.6-17.1-17.1-17.1
	c-9.4,0-17.1,7.6-17.1,17.1c0,9.4,7.6,17.1,17.1,17.1c18.9,0,34.1,15.3,34.1,34.1c0,18.9-15.3,34.1-34.1,34.1s-34.1-15.3-34.1-34.1
	c0-4.7,3.8-8.5,8.5-8.5s8.5,3.8,8.5,8.5c0,9.4,7.6,17.1,17.1,17.1c9.4,0,17.1-7.6,17.1-17.1S248.4,384,238.9,384z"/>
<path class="st0" d="M153.6,409.3V324C92.3,322.4,29.4,311.7,0,291.1v75.8C0,383.3,58.3,406.7,153.6,409.3L153.6,409.3z"/>
<path class="st0" d="M0,264.5c0,16.4,58.3,39.8,153.6,42.4v-25.3c0-14.1,11.5-25.6,25.6-25.6h162.1v-75.9
	C310,202,240,213.3,170.7,213.3S31.4,202,0,180.1V264.5z"/>
<ellipse class="st0" cx="170.7" cy="42.7" rx="170.7" ry="42.7"/>
<path class="st0" d="M0,153.6c0,17.4,66.5,42.7,170.7,42.7s170.7-25.3,170.7-42.7V69.1C310,91.1,240,102.4,170.7,102.4
	S31.4,91.1,0,69.1V153.6z"/>
<path class="st0" d="M324.3,418.1c1.5,0,2.9-0.2,4.4-0.6l-1.9-1.9c-3.3-3.4-3.2-8.8,0.2-12.1c3.3-3.2,8.6-3.2,11.9,0l1.9,1.9
	c0.4-1.4,0.6-2.9,0.6-4.4v-51.2c0-9.4-7.6-17.1-17.1-17.1s-17.1,7.6-17.1,17.1v51.2C307.2,410.5,314.8,418.1,324.3,418.1
	L324.3,418.1z"/>
</svg>
