<?xml version="1.0" encoding="utf-8"?>
<!-- Generator: Adobe Illustrator 24.2.3, SVG Export Plug-In . SVG Version: 6.00 Build 0)  -->
<svg version="1.1" id="Layer_1" xmlns="http://www.w3.org/2000/svg" xmlns:xlink="http://www.w3.org/1999/xlink" x="0px" y="0px"
	 viewBox="0 0 512 512" style="enable-background:new 0 0 512 512;" xml:space="preserve">
<style type="text/css">
	.st0{fill:#505050;}
	.st1{fill:#FFFFFF;}
</style>
<g>
	<path class="st0" d="M0,266c12.8,0,25.5,0,38.7,0c2.5,12.7,9,23.3,19.5,31.2c8.4,6.2,17.9,9.6,28.3,9.8c8.3,0.2,16.6,0,24.2,0
		c5.4,28.4,10.7,56.4,16.2,85.2c-2.1,0.6-5.3,1.7-8.6,2.6c-19.1,5.7-37.5,13.2-55.1,22.5c-3.2,1.7-4.9,1.7-7.3-1.4
		c-20.9-26.4-36.2-55.6-45.7-87.8c-5-17-8.6-34.5-9.3-52.4c-0.1-2-0.6-3.9-0.9-5.9C0,268.6,0,267.3,0,266z"/>
	<path class="st0" d="M0,242c2.8-17,4.4-34.3,8.6-51c8.4-33.9,24-64.6,45.6-92.2c1.4-1.8,2.9-3.7,3.8-4.8
		c23.3,9.3,46.3,18.5,68.8,27.4c-5.2,26.9-10.5,54.8-16.1,83.6c-6.5,0-14.3,0-22.1,0c-17.3,0.1-31.5,7-41.3,21.2
		c-4.2,6-6.5,13.3-10.1,20.8c-11.6,0-24.4,0-37.2,0C0,245.3,0,243.6,0,242z"/>
	<path class="st0" d="M512,270c-3.1,18.4-5.3,37.1-9.6,55.3c-5.4,22.5-15,43.6-27.4,63.2c-6.1,9.7-13,18.9-19.7,28.1
		c-0.8,1.1-3.5,2-4.6,1.5c-20.9-10.7-42.5-19.3-65.1-25.6c-0.5-0.1-0.8-0.5-0.5-0.3c5.4-28.3,10.8-56.3,16.3-85.2
		c6.7,0,14.6,0,22.6,0c17.1,0,31.2-6.5,41.2-20.4c4.4-6.1,6.9-13.5,10.4-20.6c11.3,0,23.9,0,36.5,0C512,267.3,512,268.6,512,270z"/>
	<path class="st0" d="M512,247c-12.5,0-24.9,0-37.6,0c-2.5-13.2-8.7-23.9-19.2-31.9c-8.5-6.4-18.1-9.9-28.7-10.1
		c-8.6-0.2-17.3,0-25.2,0c-5.4-28.4-10.8-56.3-16-83.7c22.3-8.8,45.3-18,68.7-27.3c15.2,18.4,28.1,39.6,37.9,62.7
		c9.5,22.6,15.6,46.1,18.5,70.5c0.6,4.9,1,9.9,1.6,14.8C512,243.6,512,245.3,512,247z"/>
	<path class="st0" d="M265.4,375.5c0-23,0-45.4,0-68.2c38.7,0,77.2,0,116.1,0c-2.7,27.2-7.9,53.5-15.6,80.2
		C332.7,380.2,299.4,375.9,265.4,375.5z"/>
	<path class="st0" d="M131,307.2c38.4,0,76.8,0,115.6,0c0,22.5,0,44.9,0,68.2c-33.7,0.6-67.1,4.6-99.8,12
		C141.3,376.3,130.4,320.9,131,307.2z"/>
	<path class="st0" d="M381,204.7c-38.4,0-76.8,0-115.6,0c0-22.4,0-44.7,0-67.7c33.6-0.9,67.1-4.5,99.9-12.1
		C370.6,136.3,381.6,191.6,381,204.7z"/>
	<path class="st0" d="M246.6,136.9c0,22.9,0,45.1,0,67.7c-38.6,0-77,0-115.4,0c-1.8-8.6,9.7-66.1,15.2-79.7
		C179.2,132.3,212.4,136.3,246.6,136.9z"/>
	<path class="st0" d="M246.5,511.4c-10.9-1.3-20.5-5.4-29.5-11.2c-19.5-12.6-33.5-30.2-44.5-50.2c-7.8-14.2-14.1-29.2-21.4-44.6
		c32.1-7.3,63.4-10.9,95.5-11.4C246.5,433.2,246.5,472,246.5,511.4z"/>
	<path class="st0" d="M265.4,511.5c0-39.2,0-78,0-117.5c31.9,0.2,63.3,4.1,94.7,11.1c-12,31.4-26.1,61-50.8,84
		c-10.2,9.5-21.8,16.8-35.3,20.7C271.3,510.5,268.5,510.9,265.4,511.5z"/>
	<path class="st0" d="M361.1,107.1c-32.3,7.1-63.5,11.1-95.6,11.3c0-39.2,0-78.1,0-117.5c11.2,1.5,21.4,5.8,30.7,12
		c18.3,12.4,32,29.1,42.5,48.2C346.8,75.9,353.5,91.5,361.1,107.1z"/>
	<path class="st0" d="M152,107.3c10.4-27.8,22.7-53.7,42.3-75.4C207.8,17,223.5,5.3,243.9,1.3c0.8-0.2,1.6-0.2,2.7-0.3
		c0,39.3,0,78.3,0,117.5C214.6,118,183.3,114.5,152,107.3z"/>
	<path class="st0" d="M190.1,503c-46.1-11.9-85.3-35-118.8-69.3c20-10.6,40.6-18.3,62.6-24.3C145.4,444.9,164.1,476.1,190.1,503z"/>
	<path class="st0" d="M321.6,9.2c46.1,11.7,85.4,35.1,119.2,69.4c-20,10.9-40.7,18.3-62.6,24.4C366.7,67.3,347.7,36.2,321.6,9.2z"/>
	<path class="st0" d="M322.2,502.9c25.7-26.9,44.5-57.8,56-93.4c21.9,5.7,42.4,13.6,62.6,24.1C407.5,468,368.2,490.9,322.2,502.9z"
		/>
	<path class="st0" d="M190.5,9c-25.9,27-45.1,57.8-56.5,93.9c-21.9-5.7-42.5-13.5-62.7-24.2C104.9,44.3,144.3,21,190.5,9z"/>
	<path class="st0" d="M148.1,285.8c-2.9-11.8-5.7-23.3-8.6-34.9c-0.3,0-0.6-0.1-0.9-0.1c-3,11.5-5.9,23-8.8,34.4
		c-0.4,0.2-0.7,0.4-1,0.4c-15.4,0.8-15.4,0.8-19.1-14c-3.5-13.8-7-27.6-10.5-41.4c0.6-0.3,0.9-0.6,1.2-0.6
		c13.2-1.1,13.1-1.1,15.7,11.9c1.7,8.8,3.5,17.6,6.2,26.6c1.6-6.3,3.1-12.6,4.7-18.9c1.4-5.5,2.9-10.9,3.9-16.4
		c0.5-2.8,1.9-3.4,4.4-3.5c11.2-0.4,11.2-0.5,13.8,10.3c2.1,8.6,4,17.1,6,25.7c0.3,1.1,0.7,2.1,1.4,4c2.6-12.8,5-24.8,7.6-36.7
		c0.3-1.2,1.7-2.9,2.8-3c3.9-0.4,7.9-0.1,12.3-0.1c-4.2,16.4-8.2,32.2-12.4,47.9c-2.8,10.3-0.1,8.1-11,8.4
		C153.5,285.9,151.1,285.8,148.1,285.8z"/>
	<path class="st0" d="M264.4,256.7c5.5,2.9,9.4,6.5,9.6,12.8c0.4,8.1-4.3,14.8-12.4,15.4c-10.4,0.7-20.9,0.2-31.8,0.2
		c0-18,0-36.4,0-54.7c10.2,0,20.8-0.5,31.4,0.2c6,0.4,10.4,4.6,11.4,10.9C273.8,248.3,271.1,253.4,264.4,256.7z M243.3,262.4
		c0,4.4,0,8.2,0,12.6c4.3-0.2,8.2-0.2,12.1-0.6c3.3-0.4,5-2.7,4.9-5.9c-0.1-3.4-2.1-5.7-5.5-6C251.1,262.2,247.3,262.4,243.3,262.4z
		 M243.2,252.1c3.7,0,7.1,0.1,10.5,0c3.2-0.2,5.2-2,5.3-5.4c0.1-3.2-1.5-5.5-4.8-5.8c-3.6-0.3-7.1-0.4-10.9-0.6
		C243.2,244.6,243.2,248.1,243.2,252.1z"/>
	<path class="st0" d="M414.6,255.7c-1.6,6.5-2.5,13.1-4.9,19.1c-3.6,9-11.7,11-20.6,10.5c-8.2-0.4-14.3-4.1-17.2-12
		c-4.4-12-4.5-24.1,0.3-35.9c3.4-8.3,10.4-11.2,18.8-11.3c8.5-0.1,15.6,2.8,18.9,11.1C412.1,242.9,413,249.2,414.6,255.7z
		 M400.5,256c-0.5-3.7-0.8-7.5-1.6-11.2c-0.9-4.1-3.8-5.8-8.1-5.8c-4.3,0-7.1,2.4-7.4,6c-0.6,7-0.7,14.2-0.2,21.2
		c0.3,4,3.3,6.6,7.5,6.6c4.3,0.1,7.5-1.9,8.3-6.3C399.8,263.1,400,259.6,400.5,256z"/>
	<path class="st0" d="M297.9,267.1c2.6,0,4.9,0.1,7.2,0c3.2-0.2,5.4,0.1,6.6,4c1.1,3.6,4.7,4.5,8.3,3.6c3.3-0.9,4.9-3.3,4.8-6.7
		c-0.1-3.7-2.2-5.8-5.7-6.5c-2.1-0.4-4.3-0.5-6.7-0.8c0-3.4,0-6.8,0-10.4c2-0.3,4-0.5,5.9-0.8c3.5-0.5,5.9-2.5,5.3-5.9
		c-0.4-2.1-2.4-4.7-4.4-5.6c-3-1.4-5.7-0.1-7.2,3.3c-0.5,1.2-2.2,2.4-3.4,2.5c-3.3,0.4-6.6,0.1-10.1,0.1c-0.2-6.9,2.3-11.9,7.8-14.9
		c7.5-4.1,15.4-4.4,22.9-0.3c7.8,4.2,10.2,14,5.6,21c-1.4,2.2-3.4,4-5,5.9c7.5,5.5,10.1,11.5,7.6,18.9c-2.5,7.6-8.8,11.6-18.4,11.6
		C305.4,286.1,298,279.8,297.9,267.1z"/>
	<path class="st0" d="M199.9,262.3c0,3.4,0,6.1,0,8.7c0,1.1,0.2,2.3,0.3,3.8c6.6,0,13.1,0,19.9,0c0,3.8,0,7.2,0,10.8
		c-11.2,0-22.1,0-33.5,0c0-18.5,0-37,0-55.8c11.1,0,22.1,0,33.4,0c0,3.3,0,6.5,0,10.4c-6.5,0-13,0-19.8,0c0,4.1,0,7.5,0,11.5
		c5.8,0,11.6,0,17.6,0c0,3.6,0,6.7,0,10.5C212,262.3,206.1,262.3,199.9,262.3z"/>
	<path class="st0" d="M353.9,286.4c-4.9,0-8-2.9-8-7.5c0.1-4.6,3.2-7.4,8.1-7.3c4.4,0.1,7.8,3.2,7.9,7.2
		C362.1,283,358.5,286.4,353.9,286.4z"/>
	<path class="st1" d="M243.3,262.4c4,0,7.8-0.2,11.5,0.1c3.4,0.3,5.4,2.6,5.5,6c0.1,3.2-1.6,5.5-4.9,5.9c-3.9,0.4-7.9,0.4-12.1,0.6
		C243.3,270.7,243.3,266.8,243.3,262.4z"/>
	<path class="st1" d="M243.2,252.1c0-3.9,0-7.5,0-11.7c3.8,0.2,7.4,0.2,10.9,0.6c3.4,0.3,4.9,2.6,4.8,5.8c-0.1,3.3-2,5.2-5.3,5.4
		C250.3,252.2,246.9,252.1,243.2,252.1z"/>
	<path class="st1" d="M400.5,256c-0.5,3.6-0.7,7.1-1.4,10.5c-0.9,4.5-4.1,6.4-8.3,6.3c-4.2-0.1-7.3-2.7-7.5-6.6
		c-0.5-7.1-0.4-14.2,0.2-21.2c0.3-3.6,3.1-6,7.4-6s7.2,1.7,8.1,5.8C399.8,248.4,400,252.3,400.5,256z"/>
</g>
</svg>
