<svg viewBox="0 0 512 512" xmlns="http://www.w3.org/2000/svg"><path d="m416 398.45a35.14 35.14 0 0 1 0-15.74 17 17 0 0 0 2-32.92 41.46 41.46 0 0 0 -10.63-65.94 16.82 16.82 0 0 0 2.13-8.22 17 17 0 0 0 -16.84-17 35.31 35.31 0 0 1 0-15.21 17 17 0 0 0 -.14-33.94h-36.08l-13.8-46.48 68.4-18a14 14 0 0 0 0-27l-135.71-35.63a76.27 76.27 0 0 0 -38.66 0l-50.46 13.25a6.67 6.67 0 0 0 3.39 12.9l50.46-13.25a62.85 62.85 0 0 1 31.88 0l135.71 35.64c.25.07.48.13.48.63s-.23.56-.48.63l-103.65 27.21-31.72-28.78v-11.15a16.78 16.78 0 1 0 -33.56 0v14.55a6.67 6.67 0 0 0 3.18 5.68 25.9 25.9 0 0 0 13.59 3.92 25.42 25.42 0 0 0 9.29-1.78l23.85 21.62-16.69 4.38a62.85 62.85 0 0 1 -31.88 0l-135.71-35.65c-.25-.07-.48-.13-.48-.63s.23-.56.48-.63l59.37-15.59a6.67 6.67 0 0 0 -3.39-12.9l-59.33 15.58a14 14 0 0 0 0 27l68.4 18-13.8 46.48h-11.21c-22.9 0-41.71 18.45-41.93 41.14a41.25 41.25 0 0 0 11.08 28.62h-14.54a17 17 0 0 0 -3 33.76 35.14 35.14 0 0 1 0 15.74 17 17 0 0 0 -2 32.92 41.46 41.46 0 0 0 29.59 70.52h289.41a17 17 0 0 0 3-33.68zm-157-268.71a12.06 12.06 0 0 1 -6.89 0v-10.29a3.45 3.45 0 0 1 6.89 0zm-160 219.26a3.64 3.64 0 0 1 0-7.28h39.21v7.28zm289.48-35.81a7.6 7.6 0 1 1 0 15.2h-212.64v-15.2zm-225.98 59.09-11 5.77v-64.83h11zm-24.32-43.86h-28.56a48.43 48.43 0 0 0 0-15.2h28.56zm3.22 66.36a6.67 6.67 0 0 0 6.54.2l22.87-12h231.57a48.73 48.73 0 0 0 0 15.2h-278.83a7.6 7.6 0 1 1 0-15.2h14.63v6.1a6.66 6.66 0 0 0 3.22 5.7zm154.6-170.26c2.51-15 6.25-16.5 6.28-16.5s3.77 1.49 6.28 16.5a139 139 0 0 1 1.55 14.59h-15.64a138.73 138.73 0 0 1 1.53-14.59zm-8.43 27.92h29.43a6.67 6.67 0 0 0 6.67-6.67c0-.12 0-1 0-2.32h55.5a48.8 48.8 0 0 0 0 15.21h-235.17a7.61 7.61 0 0 1 0-15.21h137v2.32a6.67 6.67 0 0 0 6.58 6.67zm108.63-26a3.64 3.64 0 0 1 -3.64 3.64h-69.8c-.24-2.34-.56-4.8-1-7.28h70.76a3.64 3.64 0 0 1 3.69 3.68zm-53.67-17h-24q-3.57-9.8-9.54-13.13v-24.44l20.78-5.45zm-160.27-43.02 54.41 14.29a76.27 76.27 0 0 0 38.66 0l20.3-5.33v21q-6 3.33-9.54 13.13h-116.63zm-58.26 104.48a28 28 0 0 1 -8.18-20.12 28.5 28.5 0 0 1 28.6-27.94h138.36c-.4 2.48-.72 4.94-1 7.28h-137.78a20.94 20.94 0 0 0 0 41.88h248.57a3.64 3.64 0 1 1 0 7.28h-248.57a28 28 0 0 1 -20-8.38zm-25 21.7h289.46a28.24 28.24 0 0 1 28.2 28.5 28.48 28.48 0 0 1 -28.58 27.9h-26.83a6.67 6.67 0 1 0 0 13.34h51.75a3.64 3.64 0 1 1 0 7.28h-237.16v-7.28h158.45a6.67 6.67 0 0 0 0-13.34h-158.45v-7.28h212.61a20.94 20.94 0 1 0 0-41.87h-289.45a3.64 3.64 0 0 1 0-7.28zm314 126.2h-289.45a28.27 28.27 0 0 1 -28.22-28.5 28.5 28.5 0 0 1 28.59-27.93h14.26v7.28h-14.63a20.94 20.94 0 1 0 0 41.87h289.45a3.64 3.64 0 1 1 0 7.28z" fill="#00a0a3"/></svg>