<svg id="Layer_1" data-name="Layer 1" xmlns="http://www.w3.org/2000/svg" viewBox="0 0 512 512"><defs><style>.cls-1{fill:#00a0a3;}</style></defs><path class="cls-1" d="M370.75,70.17a6.53,6.53,0,0,0,6.53-6.53v-.21a6.54,6.54,0,0,0-13.07,0v.21A6.53,6.53,0,0,0,370.75,70.17Z"/><path class="cls-1" d="M337.58,70.59a6.53,6.53,0,1,0-11.35,6.48l.11.18A6.52,6.52,0,0,0,332,80.54a6.41,6.41,0,0,0,3.23-.86,6.53,6.53,0,0,0,2.44-8.91Z"/><path class="cls-1" d="M306.92,96.69l-.18-.11a6.53,6.53,0,0,0-6.53,11.32l.18.1a6.44,6.44,0,0,0,3.26.88,6.53,6.53,0,0,0,3.27-12.19Z"/><path class="cls-1" d="M293.28,134.52h-.21a6.53,6.53,0,1,0,0,13.06h.21a6.53,6.53,0,1,0,0-13.06Z"/><path class="cls-1" d="M441.28,174.2l-.18-.11a6.54,6.54,0,0,0-6.52,11.33l.18.1a6.53,6.53,0,1,0,6.52-11.32Z"/><path class="cls-1" d="M441.68,141.05a6.53,6.53,0,0,0,6.54,6.53h.2a6.53,6.53,0,1,0,0-13.06h-.2A6.53,6.53,0,0,0,441.68,141.05Z"/><path class="cls-1" d="M437.84,108.88a6.42,6.42,0,0,0,3.26-.88l.19-.1a6.54,6.54,0,1,0-6.54-11.32l-.18.11a6.53,6.53,0,0,0,3.27,12.19Z"/><path class="cls-1" d="M406.25,79.68a6.41,6.41,0,0,0,3.23.86,6.53,6.53,0,0,0,5.68-3.29l.1-.18a6.53,6.53,0,1,0-11.35-6.48l-.1.18A6.52,6.52,0,0,0,406.25,79.68Z"/><path class="cls-1" d="M406.86,141.05a6.53,6.53,0,0,0-6.53-6.53H377.28v-43a6.54,6.54,0,1,0-13.07,0v49.53a6.53,6.53,0,0,0,6.54,6.53h29.58A6.53,6.53,0,0,0,406.86,141.05Z"/><path class="cls-1" d="M116,249.29a6.5,6.5,0,0,0,4.62-1.91L140,228a6.53,6.53,0,0,0-9.23-9.25l-19.39,19.36A6.53,6.53,0,0,0,116,249.29Z"/><path class="cls-1" d="M170.07,218.78l-58.71,58.6a6.53,6.53,0,0,0,9.23,9.24L179.3,228a6.53,6.53,0,1,0-9.23-9.25Z"/><path class="cls-1" d="M473.77,282.18a6.53,6.53,0,0,0-8.29-4.61,118,118,0,0,0-11.15,4.14,253,253,0,0,0-16.95-55.52A108.18,108.18,0,0,0,479,141.05c0-59.58-48.56-108-108.25-108S262.5,81.47,262.5,141.05A108.3,108.3,0,0,0,265.64,167H83a23.78,23.78,0,0,0-23.75,23.75v40.4a6.53,6.53,0,0,0,13.06,0v-40.4A10.71,10.71,0,0,1,83,180h279.3A10.71,10.71,0,0,1,373,190.72v59.1c-.07.21-.14.42-.2.63a94.18,94.18,0,0,0-12.59-11.07V199.31a6.54,6.54,0,0,0-6.54-6.54h-262a6.53,6.53,0,0,0-6.53,6.54V355.36H72.35v-94a6.53,6.53,0,0,0-13.06,0v94h-7a19.29,19.29,0,0,0,0,38.57H336.49a103.58,103.58,0,0,0,13.22,20.25v22.67A42.2,42.2,0,0,0,391.85,479h18.82a42.19,42.19,0,0,0,42.14-42.15V414.06A105,105,0,0,0,469.55,385a6.53,6.53,0,1,0-12.19-4.7,92.4,92.4,0,0,1-14.13,24.86h-42.3A157.93,157.93,0,0,1,405.77,359c7.67-28.78,23.22-49.49,46.3-61.79a4.13,4.13,0,0,0,.42-.22,100.47,100.47,0,0,1,10.08-4.59c2,10.77,4.95,38.16,2.29,61.67a6.54,6.54,0,1,0,13,1.47C481.87,320,474.1,283.48,473.77,282.18ZM362.34,167H279.16a95,95,0,0,1-3.59-25.92c0-52.37,42.69-95,95.18-95s95.18,42.61,95.18,95a95.1,95.1,0,0,1-34.27,73c-8.84-17.47-16.59-27.34-17.23-28.14a6.53,6.53,0,0,0-10.49.37A235.13,235.13,0,0,0,386.09,217V190.72A23.77,23.77,0,0,0,362.34,167ZM98.21,205.84h249v41.62c-12.25,22.78-20,45.28-23,67a143.45,143.45,0,0,0,.09,40.93H98.21Zm-45.93,175a6.22,6.22,0,0,1,0-12.44H326.93l.27,1.06c1.07,4,2.29,7.84,3.6,11.38Zm387.47,56a29.11,29.11,0,0,1-29.08,29.08H391.85a29.1,29.1,0,0,1-29.07-29.08V418.21h77ZM393,356.08a170,170,0,0,0-5.2,49.06H359.17a94,94,0,0,1-12.56-20.27l-.07-.14a112.89,112.89,0,0,1-6.71-18.6,126.48,126.48,0,0,1-2.69-49.92c2.74-19.87,9.81-40.58,21.05-61.67a120.23,120.23,0,0,1,12.67,13.39v0c.37.44.73.89,1.09,1.35,9.5,11.93,22.35,32.29,30.31,61.94A129.9,129.9,0,0,0,393,356.08Zm18.34-40c-7.95-24-18.73-41.64-28.38-54q1.32-4.73,2.81-9.35v0a228.84,228.84,0,0,1,23.68-51.11c8.64,13.41,25.56,43.94,32.67,86.26A100.53,100.53,0,0,0,411.37,316.08Z"/></svg>