<svg id="Layer_1" data-name="Layer 1" xmlns="http://www.w3.org/2000/svg" viewBox="0 0 512 512"><defs><style>.cls-1{fill:#00a0a3;}</style></defs><path class="cls-1" d="M450,266.09c-20.68-20.58-44.59-1.32-44.59-1.32V156.4a6.59,6.59,0,0,0-13.18,0V274.05s-31.43,24.77-44.94,30.83V109.76a16.46,16.46,0,0,1,16.45-16.45h12a16.46,16.46,0,0,1,16.45,16.45v19.66a6.59,6.59,0,0,0,13.18,0V109.76a29.66,29.66,0,0,0-29.63-29.63h-12a29.66,29.66,0,0,0-29.63,29.63V310.11a69,69,0,0,1-12.07,2.24v-139a29.81,29.81,0,0,0-29.77-29.78H280.52a29.81,29.81,0,0,0-29.77,29.78v67.17L238.68,247V224.6a26.84,26.84,0,0,0-26.81-26.81H194.19a26.84,26.84,0,0,0-26.81,26.81v60.2l-21.52,11.42L85.42,313.49A41.65,41.65,0,0,0,56.55,364l6.76,26a6.59,6.59,0,1,0,12.75-3.32l-6.76-26A28.31,28.31,0,0,1,89,326.17l55.26-15.79,41.53,110.84c2.78,7.43,2.34,28.6-19.63,36.41l-41.75,9.48A27.32,27.32,0,0,1,91.8,447.24l-8.48-32.62a6.59,6.59,0,1,0-12.76,3.32L79,450.56A40.42,40.42,0,0,0,118.21,481c13.32,0,50.92-10.52,50.92-10.52a40.63,40.63,0,0,0,30.75-48L344.35,387.1a83,83,0,0,0,32.79-16.41l70.31-57.77C468.88,293.91,456.31,272.36,450,266.09ZM280.52,156.79h11.76a16.61,16.61,0,0,1,16.59,16.59v139.3l-41.59,0c-3.83,0-1.18-2.55-1-2.73l12-9.7c11.17-9.05,18.47-21.64,21.69-37.41a26.14,26.14,0,0,0-36.05-29.18V173.38A16.61,16.61,0,0,1,280.52,156.79Zm-100,67.81A13.65,13.65,0,0,1,194.19,211h17.68A13.65,13.65,0,0,1,225.5,224.6V254L180.56,277.8V224.6Zm258.52,78.14-70.31,57.77a69.79,69.79,0,0,1-27.56,13.79L195.68,409.93,156.54,305.48l111.75-59.32a13,13,0,0,1,18.77,14c-2.59,12.7-8.33,22.73-17.07,29.81l-12,9.7a14.72,14.72,0,0,0,9.26,26.16l48,0h0a82.18,82.18,0,0,0,47.52-15l53.67-37.74a18.57,18.57,0,0,1,24.06,2.22C444.27,279.08,451.51,290.31,439.08,302.74Z"/><path class="cls-1" d="M160.59,425.45a26,26,0,1,0-26,26A26,26,0,0,0,160.59,425.45Zm-38.76,0a12.79,12.79,0,1,1,12.79,12.78A12.8,12.8,0,0,1,121.83,425.45Z"/><path class="cls-1" d="M87.22,238,183,141.41l21.55,11.14a20.26,20.26,0,0,0,23.38-3.4l52.16-50.21s-1.43,25.79,20.28,25.79a20.31,20.31,0,0,0,20.28-20.28V51.28c0-.07,0-.13,0-.2C320.61,37.21,310.47,31,300.41,31H247.7a20.31,20.31,0,0,0-20.28,20.28c0,22.29,22.69,20.27,22.69,20.27l-39.8,38.3-21.86-11.3a20.18,20.18,0,0,0-23.71,3.72L58.43,209.4a20.31,20.31,0,0,0,.11,28.68C62.37,241.87,75.43,249.76,87.22,238ZM67.79,218.69l106.3-107.13c1.38-1.38,3.58-3.8,8.3-1.3l26.06,13.48a6.62,6.62,0,0,0,7.61-1.11l55-52.92a6.59,6.59,0,0,0-4.57-11.34H247.7a7.1,7.1,0,0,1,0-14.19h52.71c1.94,0,7.09,0,7.09,7.06v53.21a7.1,7.1,0,0,1-14.19,0v-21a6.59,6.59,0,0,0-11.16-4.75l-63.32,61a7.12,7.12,0,0,1-8.18,1.19L184.8,127.47a6.59,6.59,0,0,0-7.71,1.22l-99.23,100c-4.33,4.33-8.7,1.37-10,0A7.1,7.1,0,0,1,67.79,218.69Z"/></svg>