<svg id="Layer_1" data-name="Layer 1" xmlns="http://www.w3.org/2000/svg" viewBox="0 0 512 512"><defs><style>.cls-1{fill:#00a0a3;}</style></defs><path class="cls-1" d="M505.69,355.66a5.5,5.5,0,0,0-1-.09,6,6,0,0,0-5.91,5c-2.85,17-10.62,36.63-20.28,51.34-6.54,9.95-20,26.64-36.66,26.64a58.07,58.07,0,0,1-29.07-7.84,6,6,0,0,0-6,0,58.1,58.1,0,0,1-29.07,7.84c-13.57,0-28.26-11.82-40.3-32.43-10.85-18.58-17.86-41.7-17.86-58.91a58.23,58.23,0,0,1,58.16-58.16,57.61,57.61,0,0,1,15.53,2.12,61.17,61.17,0,0,0,33.09,0,57.55,57.55,0,0,1,15.53-2.12c32.07,0,58.16,12.41,58.16,44.48a6,6,0,0,0,12,0c0-38.68-31.47-56.46-70.14-56.46h-.14a69.76,69.76,0,0,0-13.79,1.4,73.88,73.88,0,0,1,19.18-23.06,13.12,13.12,0,1,0-15.94-20.85c-8.3,6.32-23.4,20.55-32.89,45.54l-1-.25a36.18,36.18,0,0,0-24.36-29,6.1,6.1,0,0,0-1.93-.32,6,6,0,0,0-1.91,11.67,23.4,23.4,0,0,1,15.26,15.19c-2.25-.22-4.47-.33-6.64-.33a70.08,70.08,0,0,0-19.31,2.71,39.33,39.33,0,0,1-3.1-30.17,8.15,8.15,0,0,1,7.85-5.79l.58,0c15.54,1.07,27.89,5.46,35.73,12.71a6,6,0,1,0,8.13-8.8,52.89,52.89,0,0,0-15.79-9.93h0v-13a81.37,81.37,0,0,0,59.05-130,6.07,6.07,0,0,0-9.71,7.28,69.25,69.25,0,0,1-49.34,110.5v-9.76a59.38,59.38,0,0,0,35.53-16.69c.17-.14.33-.28.49-.44s.3-.32.44-.49a59.31,59.31,0,0,0,17-41.56v-.06a59.31,59.31,0,0,0-17-41.56,5.08,5.08,0,0,0-.44-.5,5.24,5.24,0,0,0-.5-.44,59.4,59.4,0,0,0-83.19,0l-.48.43-.43.48a59.35,59.35,0,0,0-16.69,35.54h-9.77a69.33,69.33,0,0,1,69-63.17c15.12,0,23.47.78,35.53,9.83a6.06,6.06,0,1,0,7.28-9.7c-14.17-10.64-25.05-12.27-42.81-12.27a81.47,81.47,0,0,0-81.14,75.31H212.05l-37-73A6.06,6.06,0,0,0,166.89,62l-21.62,11a6.07,6.07,0,0,0-2.66,8.16l28.66,56.53H152.41a6.06,6.06,0,0,0-6.06,6.07v93.51H74.82a62.77,62.77,0,0,0-62.59,59.25,18.2,18.2,0,0,0-.1,34.35v26.34a18.2,18.2,0,0,0,.1,34.35,62.77,62.77,0,0,0,62.59,59.25H204.23a62.59,62.59,0,0,0,47.86-22.24,6,6,0,0,0,1.48.19H338.7c11.93,14.23,25.38,21.87,39,21.87a70.2,70.2,0,0,0,32.07-7.81,70.28,70.28,0,0,0,32.08,7.81c20.47,0,36.1-16.59,45.61-30.52a151.7,151.7,0,0,0,23.15-57.45,6,6,0,0,0-4.93-6.9ZM438.48,244a1.09,1.09,0,0,1,.67-.21,1.16,1.16,0,0,1,1,.6,1.19,1.19,0,0,1-.38,1.48c-6.43,5-18.31,16-26.6,35.41-.86.06-1.72.1-2.58.11C419.09,261,431.55,249.33,438.48,244Zm-15.25-71.47-22.85-22.85h32.34A47.17,47.17,0,0,1,423.23,172.57Zm9.49-35H400.38l22.85-22.85A47.17,47.17,0,0,1,432.72,137.59ZM391.8,96.68a47.06,47.06,0,0,1,22.85,9.48L391.8,129Zm0,61.62,22.85,22.85a47.17,47.17,0,0,1-22.85,9.49Zm-48,88a51,51,0,0,0,3.36,37.81,70.2,70.2,0,0,0-39.58,63.09c0,13.6,4.29,31.35,11.25,47.87h-52.3c.13-1.19.24-2.39.3-3.61a18.2,18.2,0,0,0,.1-34.35V330.77a18.2,18.2,0,0,0-.1-34.35,62.77,62.77,0,0,0-62.59-59.25H179.92v-43c6.94-2.1,14.28-2.18,22-.93a6.13,6.13,0,0,0,.73.11,123.59,123.59,0,0,1,21.83,6.29,27.55,27.55,0,0,0,4,33.89h0L253,258.07a27.53,27.53,0,0,0,38.89,0l24.52-24.52a27.32,27.32,0,0,0,2.64-3.06,107.25,107.25,0,0,0,39.2-4.25v6.21h0A20.12,20.12,0,0,0,343.79,246.31ZM71.06,368.21h33.13L87.62,388.85Zm183.73-36.4v24.26H24.27V331.81Zm-135,36.4H260.85a6.07,6.07,0,0,1,0,12.13H110Zm127.1-159.37c17.89,7.67,37,15.85,57.39,19.71l-21,20.94a15.38,15.38,0,0,1-21.73,0L237,225h0a15.37,15.37,0,0,1-.94-20.69C239.61,205.74,243.19,207.28,246.84,208.84ZM245.29,195l16.26-16.26a15.37,15.37,0,0,1,21.73,0l24.52,24.51a15.27,15.27,0,0,1,4.5,10.87,15.68,15.68,0,0,1-.37,3.37q-3.54-.49-7.14-1.22c-18.56-3.74-36.15-11.28-53.17-18.57C249.5,196.78,247.4,195.88,245.29,195Zm72.45,1.15c16.87-1.77,28.15-.07,34.33,5.14,3.34,2.82,5.29,6.86,5.92,12.28a95,95,0,0,1-33.92,5,27.49,27.49,0,0,0-6.33-22.41Zm41.57,36.07.24,0Zm1.34-.21Zm1.11-.11h0Zm26.93,4.74.3.1Zm-2.85-1,.17.05Zm-6.17-139V129l-22.85-22.85A47.06,47.06,0,0,1,379.67,96.68Zm-31.43,18.06,22.85,22.85H338.76A47.06,47.06,0,0,1,348.24,114.74Zm-37.83,35h69.26v47.39h0V234a92,92,0,0,0-9.31-1.59h0V217.73c0-11.2-3.52-19.85-10.47-25.72-10.15-8.57-27-10.72-52.86-6.69l-15.17-15.17a27.51,27.51,0,0,0-38.89,0l-16.2,16.2L218.2,149.72Zm54.14,82.17c1,.07,2,.15,3,.25C366.55,232,365.56,232,364.55,231.89Zm-141.4-45.58a128.82,128.82,0,0,0-15.79-4.37L191,149.72H204.6ZM156.17,81,167,75.51l31.48,62.08H184.87Zm2.31,68.74h18.94l15.51,30.59a53.38,53.38,0,0,0-21.42,4,6.08,6.08,0,0,0-3.72,5.6v47.23h-9.31ZM18.2,307.54H89.78a6.07,6.07,0,1,0,0-12.13H24.47a50.61,50.61,0,0,1,50.35-46.1H204.23a50.61,50.61,0,0,1,50.35,46.1H118.09a6.07,6.07,0,0,0,0,12.13H260.85a6.07,6.07,0,0,1,0,12.14H18.2a6.07,6.07,0,1,1,0-12.14ZM13.92,370a6,6,0,0,1,4.28-1.77H55.51l9.73,12.13h-47A6.06,6.06,0,0,1,13.92,370Zm190.31,68.6H74.82a50.62,50.62,0,0,1-50.35-46.11H75l4.13,5.15a10.93,10.93,0,0,0,17,0l4.13-5.15H254.58A50.62,50.62,0,0,1,204.23,438.58Zm55.83-22.06a62.38,62.38,0,0,0,4-9.77,1.49,1.49,0,0,0,1,.46h59.44c.83,1.57,1.67,3.11,2.54,4.61,1.29,2.25,2.62,4.4,4,6.47l-1.14-1.77Zm77.33,10.54.5.61Zm-5.76-7.89.67,1Zm1.3,1.91c.21.31.43.61.64.9C333.36,421.69,333.14,421.39,332.93,421.08Zm1.29,1.82c.37.51.74,1,1.12,1.52C335,423.92,334.59,423.41,334.22,422.9Zm1.87,2.49.53.69Z"/></svg>