<svg id="Layer_1" data-name="Layer 1" xmlns="http://www.w3.org/2000/svg" viewBox="0 0 512 512"><defs><style>.cls-1{fill:#00a0a3;}</style></defs><path class="cls-1" d="M412.92,457.41c25.6-24.16,17.69-65.91-13.58-79.81-.64-.29,4.28,1.19-74.91-22,0-8.71.09-16.28.21-22.89h48.2c27.32,0,41.91-31.66,25.23-52.48L385.5,264.54a6.83,6.83,0,0,0-9.19-1.49,6.68,6.68,0,0,0-1.4,9.66l12.72,15.91c9.77,12.19,1.21,30.75-14.79,30.75-110.29,0-102.63.6-104.65-1.4s-1.42,1.69-1.42-64.83c10.05,5.15,13.35,27.19,13.37,38.32a6.7,6.7,0,0,0,6.69,6.69h58.92A6.69,6.69,0,0,0,351,287.33l-32.17-41a6.68,6.68,0,1,0-10.52,8.25l9.95,12.67a168,168,0,0,0-3.78,17.49H293.23c-1.76-22.77-10.63-47.39-33.15-46.14-22.53-1.25-31.39,23.33-33.15,46.14H205.67a170.63,170.63,0,0,0-3.78-17.49l9.94-12.67a6.68,6.68,0,1,0-10.52-8.25l-32.17,41a6.7,6.7,0,0,0,5.26,10.82h58.92a6.69,6.69,0,0,0,6.69-6.68c0-11.22,3.35-33.19,13.38-38.33,0,66.43.6,62.78-1.39,64.79s6.1,1.44-104.69,1.44c-16,0-24.56-18.55-14.78-30.76L185.46,222c.23-.29,2.15-2,2.45-2.18,13.55-9.53,28.77-13.93,45.37-13.93,54.14,0,74.09-3.59,99.49,14a37.45,37.45,0,0,1,5.67,5.09l18.36,24.93c2.31,2.89,4.51,2.44,7.39.14s6.53-4,4.22-6.88c-8.51-10.66-20.65-27-23.38-29.54a23.79,23.79,0,0,0-4.13-4.43c-13.83-11.7-31.67-15.83-49.74-16.61,5.54-6.06,7-11,12.6-23.66a107,107,0,0,0,9.13-43.13c0-15.66-8.11-30.76-23.06-40.18,0-13.78,1.53-24.06-8.71-34.34-18.61-18.53-50.8-5.56-50.8,21.06V85.64c-13.91,8.76-23.06,23.34-23.06,40.18A106.68,106.68,0,0,0,216.39,169c6,13.7,7.33,17.89,12.61,23.66-19.11.86-36.32,6.5-50.87,17.91-5.89,5.21,2.4-3.36-56,69.72-17,21.26-1.59,52.49,25.22,52.49h48.2c.12,6.61.19,14.18.21,22.89-79.31,23.19-74.26,21.68-74.9,22-30.71,13.63-38.78,54-15.08,78.32a13.77,13.77,0,0,0,3.09,2.38l8.9,5.91a13.23,13.23,0,0,0,3.63,1.7c5,1.48,15.39,3.5,17.78,3.5H383.79c1.92,0,10.4-1.53,15.31-2.79a14.32,14.32,0,0,0,5.17-2.52Zm-84.11-176.7,3.19,4.06h-3.95C328.29,283.38,328.54,282,328.81,280.71Zm-137.47,0c.27,1.33.53,2.68.77,4.06h-4ZM243.7,72.36c0-14.52,17.67-21.85,28-11.6,5.62,5.64,4.79,11.42,4.79,18.82a57.49,57.49,0,0,0-32.75,0V72.36ZM232,101.12c20-18.16,54.22-11.91,64.75,11.62-18.18-3.74-29.64,3.64-39.16,9.78-11,7.12-19.17,12.36-36.91,3.53A33.21,33.21,0,0,1,232,101.12Zm-10,40c17.87,6.47,28.94,1.62,42.88-7.37,9.84-6.36,18.46-11.9,34.7-6.44-.36,21.79-7.74,35.69-13.92,49.71-9.05,20.57-42,20.55-51,0C228.38,163,224.23,154.94,221.92,141.14Zm-15.6,296.1c-8.17,4.09-17.82,7.46-21.23,20H174.51v-28Zm-6.71,20c2.35-3.48,2.48-3,28.86-16.16a6.17,6.17,0,0,0,.69-.4c12.56-8.37,14.32-10.43,20.76-10.43a15.39,15.39,0,0,1,14.62,10.54l.72,2.18a6.69,6.69,0,0,0,8,4.38l72.41-18.1v28ZM105.33,422a35.23,35.23,0,0,1,20.53-32l77.51-22.67H276A6.69,6.69,0,1,0,276,354H209.09c0-8-.09-15-.2-21.21h39.66a18.13,18.13,0,0,0,11.52-4.11,18.16,18.16,0,0,0,11.54,4.11h39.65c-.16,9.19-.21,18.75-.21,27.93a6.71,6.71,0,0,0,1.15,3.72c1.94,2.87-3,.72,82.09,25.61a35.25,35.25,0,0,1-14.71,67.28H359V426l6.46-1.62a6.69,6.69,0,0,0-3.24-13L275.74,433c-7.95-16.19-28.18-20.6-42.35-11.15l-9.16,6.1-66.32-16.58a6.69,6.69,0,1,0-3.24,13l6.46,1.62v31.33H140.57A35.28,35.28,0,0,1,105.33,422Z"/><path class="cls-1" d="M358.48,252.16a6.69,6.69,0,0,0,10.43-8.37l-1.05-1.31a6.69,6.69,0,1,0-10.43,8.37Z"/><path class="cls-1" d="M108.37,109.85a20.69,20.69,0,0,1,21.06,21.06,7,7,0,0,0,14,0,20.68,20.68,0,0,1,21.05-21.06,7,7,0,0,0,0-14,20.67,20.67,0,0,1-21.05-21,7,7,0,1,0-14,0,20.68,20.68,0,0,1-21.06,21,7,7,0,0,0,0,14Zm28.08-14a32.91,32.91,0,0,0,7,7,33.14,33.14,0,0,0-7,7,33.37,33.37,0,0,0-7-7A33.14,33.14,0,0,0,136.45,95.81Z"/><path class="cls-1" d="M146.84,203a6.63,6.63,0,0,0,7-7,7,7,0,0,0-7-7,7,7,0,1,0,0,14Z"/><path class="cls-1" d="M78,157.26a6.63,6.63,0,0,0,7-7,7,7,0,0,0-7-7,7,7,0,1,0,0,14Z"/><path class="cls-1" d="M410.65,102.83a6.63,6.63,0,0,0-7-7,20.68,20.68,0,0,1-21.06-21,7,7,0,1,0-14,0,20.67,20.67,0,0,1-21,21,7,7,0,0,0,0,14,20.68,20.68,0,0,1,21,21.06,7,7,0,1,0,14,0,20.69,20.69,0,0,1,21.06-21.06A6.63,6.63,0,0,0,410.65,102.83Zm-28.08,0a33.37,33.37,0,0,0-7,7,33.14,33.14,0,0,0-7-7,32.91,32.91,0,0,0,7-7A33.14,33.14,0,0,0,382.57,102.83Z"/><path class="cls-1" d="M372.18,196a6.63,6.63,0,0,0-7-7,7,7,0,0,0-7,7,7,7,0,1,0,14,0Z"/><path class="cls-1" d="M441,150.24a6.63,6.63,0,0,0-7-7,7,7,0,0,0-7,7,7,7,0,1,0,14,0Z"/></svg>