<?xml version="1.0" encoding="utf-8"?>
<!-- Generator: Adobe Illustrator 24.2.3, SVG Export Plug-In . SVG Version: 6.00 Build 0)  -->
<svg version="1.1" id="Layer_1" xmlns="http://www.w3.org/2000/svg" xmlns:xlink="http://www.w3.org/1999/xlink" x="0px" y="0px"
	 viewBox="0 0 512 512" style="enable-background:new 0 0 512 512;" xml:space="preserve">
<style type="text/css">
	.st0{fill:#535354;}
	.st1{fill:#A5A5A5;}
	.st2{fill:#D1D3D3;}
	.st3{fill:#FCAB08;}
	.st4{fill:#FFBF40;}
	.st5{fill:#F47E14;}
	.st6{fill:#F99841;}
	.st7{fill:#00A0A3;}
	.st8{fill:#1FC9C9;}
	.st9{fill:#58E0D9;}
	.st10{fill:#89F7F4;}
	.st11{opacity:0.5;fill:#898989;}
</style>
<g>
	<circle class="st0" cx="256" cy="267" r="245"/>
	<path class="st1" d="M437,36.6v78.6v19.2v295.3C393,480.4,328.3,512,256,512s-137-29.3-181-79.8V134.5v-19.2V36.6
		c0-8,6.6-14.6,14.7-14.6h332.6C430.4,22,437,28.6,437,36.6L437,36.6z"/>
	<path class="st2" d="M437,36.1v78.6v22.1v295.4C393.7,480.7,328.3,512,256,512c-53.5,0-102.9-15.3-142.8-45V133.9v-19.5V36.1
		c0-8.1,6.6-14.6,14.6-14.6h294.4C430.4,21.4,437,28,437,36.1L437,36.1z"/>
	<path class="st3" d="M171.9,434.7v29.4c0,5.4-4.4,9.8-9.8,9.8h-39.2c-3.3-2.2-5.9-4-9-6.3c-0.3-1-0.6-2.4-0.6-3.4v-29.4
		c0-5.4,4.4-9.8,9.8-9.8h39.1C167.5,424.9,171.9,429.3,171.9,434.7z"/>
	<path class="st4" d="M171.9,434.7v23.4h-29.6c-2.9,0-5.7-0.9-8.1-2.6c0,0-0.1,0-0.1-0.1c-3.7-2.6-5.9-6.8-6-11.3
		c-0.2-7.8-0.2-19.3-0.2-19.3h34.3C167.5,424.9,171.9,429.3,171.9,434.7L171.9,434.7z"/>
	<path class="st3" d="M171.9,297.7v29.4c0,5.4-4.4,9.8-9.8,9.8H123c-5.4,0-9.8-4.4-9.8-9.8v-29.4c0-5.4,4.4-9.8,9.8-9.8h39.1
		C167.5,288,171.9,292.4,171.9,297.7z M162.1,356.5H123c-5.4,0-9.8,4.4-9.8,9.8v29.4c0,5.4,4.4,9.8,9.8,9.8h39.1
		c5.4,0,9.8-4.4,9.8-9.8v-29.4C171.9,360.8,167.5,356.5,162.1,356.5z M200.2,268.4h39.1c5.4,0,9.8-4.4,9.8-9.8v-29.4
		c0-5.4-4.4-9.8-9.8-9.8h-39.1c-5.4,0-9.8,4.4-9.8,9.8v29.4C190.4,264,194.8,268.4,200.2,268.4z M200.2,336.9h39.1
		c5.4,0,9.8-4.4,9.8-9.8v-29.4c0-5.4-4.4-9.8-9.8-9.8h-39.1c-5.4,0-9.8,4.4-9.8,9.8v29.4C190.4,332.6,194.8,336.9,200.2,336.9z
		 M162.1,219.5H123c-5.4,0-9.8,4.4-9.8,9.8v29.4c0,5.4,4.4,9.8,9.8,9.8h39.1c5.4,0,9.8-4.4,9.8-9.8v-29.4
		C171.9,223.9,167.5,219.5,162.1,219.5L162.1,219.5z M200.2,405.4h39.1c5.4,0,9.8-4.4,9.8-9.8v-29.4c0-5.4-4.4-9.8-9.8-9.8h-39.1
		c-5.4,0-9.8,4.4-9.8,9.8v29.4C190.4,401,194.8,405.4,200.2,405.4z M316.7,288h-39.1c-5.4,0-9.8,4.4-9.8,9.8v29.4
		c0,5.4,4.4,9.8,9.8,9.8h39.1c5.4,0,9.8-4.4,9.8-9.8v-29.4C326.4,292.4,322,288,316.7,288z M316.7,219.5h-39.1
		c-5.4,0-9.8,4.4-9.8,9.8v29.4c0,5.4,4.4,9.8,9.8,9.8h39.1c5.4,0,9.8-4.4,9.8-9.8v-29.4C326.4,223.9,322,219.5,316.7,219.5
		L316.7,219.5z M316.7,356.5h-39.1c-5.4,0-9.8,4.4-9.8,9.8v29.4c0,5.4,4.4,9.8,9.8,9.8h39.1c5.4,0,9.8-4.4,9.8-9.8v-29.4
		C326.4,360.8,322,356.5,316.7,356.5z M316.7,424.9H201.3c-5.4,0-9.8,4.4-9.8,9.8v29.4c0,5.4,4.4,9.8,9.8,9.8h115.4
		c5.4,0,9.8-4.4,9.8-9.8v-29.4C326.4,429.3,322,424.9,316.7,424.9z"/>
	<path class="st4" d="M171.9,366.2v23.4h-34.3c-5.4,0-9.8-4.4-9.8-9.8v-23.4h34.3C167.5,356.5,171.9,360.8,171.9,366.2z M162.1,288
		h-34.3v23.4c0,5.4,4.4,9.8,9.8,9.8h34.3v-23.4C171.9,292.4,167.5,288,162.1,288z M214.9,252.7h34.3v-23.4c0-5.4-4.4-9.8-9.8-9.8
		h-34.3V243C205.2,248.4,209.5,252.7,214.9,252.7z M214.9,321.3h34.3v-23.4c0-5.4-4.4-9.8-9.8-9.8h-34.3v23.4
		C205.2,316.9,209.5,321.3,214.9,321.3z M162.1,219.5h-34.3V243c0,5.4,4.4,9.8,9.8,9.8h34.3v-23.4
		C171.9,223.9,167.5,219.5,162.1,219.5z M316.7,288h-34.3v23.4c0,5.4,4.4,9.8,9.8,9.8h34.3v-23.4C326.4,292.4,322,288,316.7,288z
		 M316.7,219.5h-34.3V243c0,5.4,4.4,9.8,9.8,9.8h34.3v-23.4C326.4,223.9,322,219.5,316.7,219.5z M316.7,356.5h-34.3v23.4
		c0,5.4,4.4,9.8,9.8,9.8h34.3v-23.4C326.4,360.8,322,356.5,316.7,356.5z M316.7,424.9H206.1v23.4c0,5.4,4.4,9.8,9.8,9.8h110.5v-23.4
		C326.4,429.3,322,424.9,316.7,424.9z M214.9,389.7h34.3v-23.4c0-5.4-4.4-9.8-9.8-9.8h-34.3v23.4
		C205.2,385.3,209.5,389.7,214.9,389.7z"/>
	<path class="st5" d="M349.9,327.1v-97.8c0-5.4,4.4-9.8,9.8-9.8H389c5.4,0,9.8,4.4,9.8,9.8v97.8c0,5.4-4.4,9.8-9.8,9.8h-29.4
		C354.3,336.9,349.9,332.6,349.9,327.1z"/>
	<path class="st6" d="M367.5,311.5v-82.1c0-5.4,4.4-9.8,9.8-9.8H389c5.4,0,9.8,4.4,9.8,9.8v82.1c0,5.4-4.4,9.8-9.8,9.8h-11.8
		C371.9,321.3,367.5,316.9,367.5,311.5z"/>
	<path class="st7" d="M398.8,366.2v97.8c0,1.1-0.1,1.7-0.4,2.7c-3.2,2.3-7.3,5-10.5,7.1h-28.2c-5.4,0-9.8-4.4-9.8-9.8v-97.8
		c0-5.4,4.4-9.8,9.8-9.8H389C394.4,356.5,398.8,360.8,398.8,366.2L398.8,366.2z"/>
	<path class="st8" d="M377.3,458.1c-5.4,0-9.8-4.4-9.8-9.8v-82.1c0-5.4,4.4-9.8,9.8-9.8H389c5.4,0,9.8,4.4,9.8,9.8v92L377.3,458.1
		L377.3,458.1z"/>
	<path class="st9" d="M389,170.6H123c-5.4,0-9.8-4.4-9.8-9.8v-88c0-5.4,4.4-9.8,9.8-9.8H389c5.4,0,9.8,4.4,9.8,9.8v88
		C398.8,166.2,394.4,170.6,389,170.6z"/>
	<path class="st10" d="M389,170.6H152.4c-5.4,0-9.8-4.4-9.8-9.8v-88c0-5.4,4.4-9.8,9.8-9.8H389c5.4,0,9.8,4.4,9.8,9.8v88
		C398.8,166.2,394.4,170.6,389,170.6z"/>
	<path class="st11" d="M377.3,141.2V92.3c0-5.4-4.4-9.8-9.8-9.8h-9.8c-5.4,0-9.8,4.4-9.8,9.8v48.9c0,5.4,4.4,9.8,9.8,9.8h9.8
		C372.9,151.1,377.3,146.7,377.3,141.2z M333.2,141.2V92.3c0-5.4-4.4-9.8-9.8-9.8h-9.8c-5.4,0-9.8,4.4-9.8,9.8v48.9
		c0,5.4,4.4,9.8,9.8,9.8h9.8C328.9,151.1,333.2,146.7,333.2,141.2z M279.4,102.2v-9.9c0-5.4-4.4-9.8-9.8-9.8h-9.8
		c-5.4,0-9.8,4.4-9.8,9.8v9.8c0,5.4,4.4,9.8,9.8,9.8h9.8C275.1,112,279.4,107.6,279.4,102.2z M161.6,102.2v-9.9
		c0-5.4-4.4-9.8-9.8-9.8h-9.8c-5.4,0-9.8,4.4-9.8,9.8v9.8c0,5.4,4.4,9.8,9.8,9.8h9.8C157.2,112,161.6,107.6,161.6,102.2z
		 M161.6,141.2v-9.8c0-5.4-4.4-9.8-9.8-9.8h-9.8c-5.4,0-9.8,4.4-9.8,9.8v9.8c0,5.4,4.4,9.8,9.8,9.8h9.8
		C157.2,151.1,161.6,146.7,161.6,141.2z"/>
</g>
</svg>
