<svg enable-background="new 0 0 512 512" viewBox="0 0 512 512" xmlns="http://www.w3.org/2000/svg"><circle cx="256" cy="267" fill="#535354" r="245"/><path d="m437 36.6v78.6 19.2 295.3c-44 50.7-108.7 82.3-181 82.3s-137-29.3-181-79.8v-297.7-19.2-78.7c0-8 6.6-14.6 14.7-14.6h332.6c8.1 0 14.7 6.6 14.7 14.6z" fill="#a5a5a5"/><path d="m437 36.1v78.6 22.1 295.4c-43.3 48.5-108.7 79.8-181 79.8-53.5 0-102.9-15.3-142.8-45v-333.1-19.5-78.3c0-8.1 6.6-14.6 14.6-14.6h294.4c8.2-.1 14.8 6.5 14.8 14.6z" fill="#d1d3d3"/><path d="m171.9 434.7v29.4c0 5.4-4.4 9.8-9.8 9.8h-39.2c-3.3-2.2-5.9-4-9-6.3-.3-1-.6-2.4-.6-3.4v-29.4c0-5.4 4.4-9.8 9.8-9.8h39.1c5.3-.1 9.7 4.3 9.7 9.7z" fill="#fcab08"/><path d="m171.9 434.7v23.4h-29.6c-2.9 0-5.7-.9-8.1-2.6 0 0-.1 0-.1-.1-3.7-2.6-5.9-6.8-6-11.3-.2-7.8-.2-19.3-.2-19.3h34.3c5.3.1 9.7 4.5 9.7 9.9z" fill="#ffbf40"/><path d="m171.9 297.7v29.4c0 5.4-4.4 9.8-9.8 9.8h-39.1c-5.4 0-9.8-4.4-9.8-9.8v-29.4c0-5.4 4.4-9.8 9.8-9.8h39.1c5.4.1 9.8 4.5 9.8 9.8zm-9.8 58.8h-39.1c-5.4 0-9.8 4.4-9.8 9.8v29.4c0 5.4 4.4 9.8 9.8 9.8h39.1c5.4 0 9.8-4.4 9.8-9.8v-29.4c0-5.5-4.4-9.8-9.8-9.8zm38.1-88.1h39.1c5.4 0 9.8-4.4 9.8-9.8v-29.4c0-5.4-4.4-9.8-9.8-9.8h-39.1c-5.4 0-9.8 4.4-9.8 9.8v29.4c0 5.4 4.4 9.8 9.8 9.8zm0 68.5h39.1c5.4 0 9.8-4.4 9.8-9.8v-29.4c0-5.4-4.4-9.8-9.8-9.8h-39.1c-5.4 0-9.8 4.4-9.8 9.8v29.4c0 5.5 4.4 9.8 9.8 9.8zm-38.1-117.4h-39.1c-5.4 0-9.8 4.4-9.8 9.8v29.4c0 5.4 4.4 9.8 9.8 9.8h39.1c5.4 0 9.8-4.4 9.8-9.8v-29.4c0-5.4-4.4-9.8-9.8-9.8zm38.1 185.9h39.1c5.4 0 9.8-4.4 9.8-9.8v-29.4c0-5.4-4.4-9.8-9.8-9.8h-39.1c-5.4 0-9.8 4.4-9.8 9.8v29.4c0 5.4 4.4 9.8 9.8 9.8zm116.5-117.4h-39.1c-5.4 0-9.8 4.4-9.8 9.8v29.4c0 5.4 4.4 9.8 9.8 9.8h39.1c5.4 0 9.8-4.4 9.8-9.8v-29.4c-.1-5.4-4.5-9.8-9.8-9.8zm0-68.5h-39.1c-5.4 0-9.8 4.4-9.8 9.8v29.4c0 5.4 4.4 9.8 9.8 9.8h39.1c5.4 0 9.8-4.4 9.8-9.8v-29.4c-.1-5.4-4.5-9.8-9.8-9.8zm0 137h-39.1c-5.4 0-9.8 4.4-9.8 9.8v29.4c0 5.4 4.4 9.8 9.8 9.8h39.1c5.4 0 9.8-4.4 9.8-9.8v-29.4c-.1-5.5-4.5-9.8-9.8-9.8zm0 68.4h-115.4c-5.4 0-9.8 4.4-9.8 9.8v29.4c0 5.4 4.4 9.8 9.8 9.8h115.4c5.4 0 9.8-4.4 9.8-9.8v-29.4c-.1-5.4-4.5-9.8-9.8-9.8z" fill="#fcab08"/><path d="m171.9 366.2v23.4h-34.3c-5.4 0-9.8-4.4-9.8-9.8v-23.4h34.3c5.4.1 9.8 4.4 9.8 9.8zm-9.8-78.2h-34.3v23.4c0 5.4 4.4 9.8 9.8 9.8h34.3v-23.4c0-5.4-4.4-9.8-9.8-9.8zm52.8-35.3h34.3v-23.4c0-5.4-4.4-9.8-9.8-9.8h-34.3v23.5c.1 5.4 4.4 9.7 9.8 9.7zm0 68.6h34.3v-23.4c0-5.4-4.4-9.8-9.8-9.8h-34.3v23.4c.1 5.4 4.4 9.8 9.8 9.8zm-52.8-101.8h-34.3v23.5c0 5.4 4.4 9.8 9.8 9.8h34.3v-23.4c0-5.5-4.4-9.9-9.8-9.9zm154.6 68.5h-34.3v23.4c0 5.4 4.4 9.8 9.8 9.8h34.3v-23.4c-.1-5.4-4.5-9.8-9.8-9.8zm0-68.5h-34.3v23.5c0 5.4 4.4 9.8 9.8 9.8h34.3v-23.4c-.1-5.5-4.5-9.9-9.8-9.9zm0 137h-34.3v23.4c0 5.4 4.4 9.8 9.8 9.8h34.3v-23.4c-.1-5.5-4.5-9.8-9.8-9.8zm0 68.4h-110.6v23.4c0 5.4 4.4 9.8 9.8 9.8h110.5v-23.4c0-5.4-4.4-9.8-9.7-9.8zm-101.8-35.2h34.3v-23.4c0-5.4-4.4-9.8-9.8-9.8h-34.3v23.4c.1 5.4 4.4 9.8 9.8 9.8z" fill="#ffbf40"/><path d="m349.9 327.1v-97.8c0-5.4 4.4-9.8 9.8-9.8h29.3c5.4 0 9.8 4.4 9.8 9.8v97.8c0 5.4-4.4 9.8-9.8 9.8h-29.4c-5.3 0-9.7-4.3-9.7-9.8z" fill="#f47e14"/><path d="m367.5 311.5v-82.1c0-5.4 4.4-9.8 9.8-9.8h11.7c5.4 0 9.8 4.4 9.8 9.8v82.1c0 5.4-4.4 9.8-9.8 9.8h-11.8c-5.3 0-9.7-4.4-9.7-9.8z" fill="#f99841"/><path d="m398.8 366.2v97.8c0 1.1-.1 1.7-.4 2.7-3.2 2.3-7.3 5-10.5 7.1h-28.2c-5.4 0-9.8-4.4-9.8-9.8v-97.8c0-5.4 4.4-9.8 9.8-9.8h29.3c5.4.1 9.8 4.4 9.8 9.8z" fill="#00a0a3"/><path d="m377.3 458.1c-5.4 0-9.8-4.4-9.8-9.8v-82.1c0-5.4 4.4-9.8 9.8-9.8h11.7c5.4 0 9.8 4.4 9.8 9.8v92z" fill="#1fc9c9"/><path d="m389 170.6h-266c-5.4 0-9.8-4.4-9.8-9.8v-88c0-5.4 4.4-9.8 9.8-9.8h266c5.4 0 9.8 4.4 9.8 9.8v88c0 5.4-4.4 9.8-9.8 9.8z" fill="#58e0d9"/><path d="m389 170.6h-236.6c-5.4 0-9.8-4.4-9.8-9.8v-88c0-5.4 4.4-9.8 9.8-9.8h236.6c5.4 0 9.8 4.4 9.8 9.8v88c0 5.4-4.4 9.8-9.8 9.8z" fill="#89f7f4"/><path d="m377.3 141.2v-48.9c0-5.4-4.4-9.8-9.8-9.8h-9.8c-5.4 0-9.8 4.4-9.8 9.8v48.9c0 5.4 4.4 9.8 9.8 9.8h9.8c5.4.1 9.8-4.3 9.8-9.8zm-44.1 0v-48.9c0-5.4-4.4-9.8-9.8-9.8h-9.8c-5.4 0-9.8 4.4-9.8 9.8v48.9c0 5.4 4.4 9.8 9.8 9.8h9.8c5.5.1 9.8-4.3 9.8-9.8zm-53.8-39v-9.9c0-5.4-4.4-9.8-9.8-9.8h-9.8c-5.4 0-9.8 4.4-9.8 9.8v9.8c0 5.4 4.4 9.8 9.8 9.8h9.8c5.5.1 9.8-4.3 9.8-9.7zm-117.8 0v-9.9c0-5.4-4.4-9.8-9.8-9.8h-9.8c-5.4 0-9.8 4.4-9.8 9.8v9.8c0 5.4 4.4 9.8 9.8 9.8h9.8c5.4.1 9.8-4.3 9.8-9.7zm0 39v-9.8c0-5.4-4.4-9.8-9.8-9.8h-9.8c-5.4 0-9.8 4.4-9.8 9.8v9.8c0 5.4 4.4 9.8 9.8 9.8h9.8c5.4.1 9.8-4.3 9.8-9.8z" fill="#898989" opacity=".5"/></svg>