<svg enable-background="new 0 0 512 512" viewBox="0 0 512 512" xmlns="http://www.w3.org/2000/svg"><path d="m256 22c-135.3 0-245 109.7-245 245l74.1 175.5c44.1 43 104.4 69.5 170.9 69.5 135.3 0 245-109.7 245-245s-109.7-245-245-245z" fill="#535354"/><path d="m472.9 328.5c-7.6-8.9-18.9-8.6-30.2-2.4-26.4 14.7-83.7 41-83.7 41 1.8-2.9 2.9-6.5 2.9-11 0-14.4-21.4-22.1-46-26.3-18.9-5.2-39.1-6-61.9-21.3-26.4-17.7-54.8-13.9-74.8-7.9-21.5 6.4-37.3 4-53.3 4.5v3.8 105.8c8.8.8 19-.7 32.9 5 24.6 10 91 32.3 136.5 32.3 37.5 0 130.2-53.2 172.8-89.8 11.2-9.6 14.4-22.5 4.8-33.7z" fill="#ffbc80"/><path d="m359 367.1c-5.5 6.8-14.6 10.5-23.3 9.3l-81.4-11.3c-4.2-.6-8.1 2.3-8.6 6.5s2.3 8.1 6.5 8.6l81.4 11.3c14.3 2 29.3-3.7 39-17.4.7-1 1.6-3 7.5-14 .5-1 .8-2.1.9-3.2-12.8 6-22 10.2-22 10.2z" fill="#f7a269"/><path d="m197.5 296.6c-19 2.6-25.4 8.5-50 8.5h-21.7v109.6c8.8.8 18.9-.7 32.9 5 8.2 3.3 21.1 8.1 36.4 12.9-45.3-34.7-43.9-103.1 2.4-136z" fill="#f7a269"/><path d="m118.9 276.2h-46.3v153.2c4 4.5 8.2 8.9 12.5 13.1h33.8c5 0 9-4 9-9v-148.2c0-5-4-9.1-9-9.1z" fill="#eff9f8"/><path d="m81.1 360c-2.5-1.8-5.5-2.4-8.5-2v71.4c4 4.5 8.2 8.9 12.5 13.1h33.8c5 0 9-4 9-9v-78.9s-22.3 22.7-46.8 5.4z" fill="#daeae8"/><path d="m74.6 431.7c0-37.3 0-139.6 0-156.1 0-5-4-9-9-9h-54.6v.5c0 63.3 24.1 121.1 63.6 164.6z" fill="#ffb81f"/><path d="m67.8 359.7c-7.9 4.8-22 9.9-38.4.7 10.9 26.4 26.3 50.5 45.2 71.3 0-16.4 0-45.2 0-73.8-2.3-.1-4.7.5-6.8 1.8z" fill="#fcab08"/><path d="m478.3 208.1c-2.5-1.6-8.1-4.7-16.5-6.3-.9-.2-1.5-1.2-1.1-2.1s-.1-1.9-1.1-2.1c-2.9-.5-9.2-1.4-18-1-1 0-1.7-.9-1.5-1.9.3-1.1-.5-2.2-1.7-2.3-4.3-.1-13.8-.1-23.4 2.4-1 .3-2.1-.5-2.1-1.6v-.4c-.1-1.4-1.2-2.3-2.6-2.2-3.8.5-10.9 1.8-19.3 5.5-.9.4-2-.2-2.1-1.2-.1-1.5-1.8-2.4-3.1-1.5-6.6 4.5-23.8 15-43.2 19-1.3.3-2.1-1.4-1.1-2.3 20.2-16.6 45.6-25.1 55.7-28 1.9-.5 2.5-2.9 1.1-4.2-1-1-.8-2.5.5-3.1 10.6-5.3 17.8-11.1 21.4-14.5 1.3-1.2 1.3-3.1 0-4.3l-.4-.4c-1-1-.9-2.6.2-3.4 10.4-7.4 18.3-16.7 21.7-21.1.9-1.2.5-3-.9-3.6-1.2-.5-1.5-2-.6-3 7.7-8.5 12-15.3 13.9-18.7.6-1.1 0-2.4-1.2-2.7s-1.8-1.7-1.2-2.7c5.4-9.6 7-17.6 7.5-21.4.2-1.3-1-2.3-2.2-2.1-3.8.7-11.7 2.8-20.9 8.8-1 .7-2.4.2-2.8-1s-1.8-1.7-2.8-1c-3.2 2.1-9.7 6.9-17.7 15.1-.9.9-2.4.7-3-.4-.7-1.4-2.5-1.7-3.6-.7-4.1 3.6-12.9 12.1-19.6 23-.7 1.2-2.4 1.4-3.4.5l-.4-.4c-1.3-1.2-3.2-1.1-4.3.3-3.1 3.9-8.5 11.4-13.1 22.3-.5 1.2-2.1 1.6-3.1.7-1.4-1.3-3.7-.5-4.2 1.4-2.3 10.6-9.5 38.1-26 59.6-.8 1.1-2.5.3-2.3-1 4.1-29.4 18.1-56 24-66.2 1.1-2-.2-4.5-2.5-4.5-1.5 0-2.5-1.6-2-3 4.7-12.9 6.1-23.6 6.5-29.3.1-2-1.4-3.7-3.3-3.7h-.7c-1.6 0-2.7-1.5-2.4-3.1 2.8-14.6 2.1-28.8 1.6-35.1-.2-1.8-1.9-2.9-3.5-2.3-1.3.5-2.8-.6-2.8-2-.2-13.3-2-22.6-3-26.9-.3-1.4-1.8-2.1-3.1-1.4-1.2.7-2.7 0-3.1-1.4-3-12.4-7.8-20.5-10.4-24.1-.8-1.2-2.6-1.2-3.4 0-2.6 3.6-7.4 11.7-10.4 24.1-.3 1.4-1.8 2.1-3.1 1.4-1.2-.7-2.8 0-3.1 1.4-1 4.3-2.7 13.6-3 26.9 0 1.5-1.4 2.6-2.8 2-1.6-.6-3.4.5-3.5 2.3-.5 6.3-1.2 20.5 1.6 35.1.3 1.6-.9 3.1-2.4 3.1h-.7c-2 0-3.5 1.7-3.3 3.7.4 5.8 1.8 16.4 6.5 29.3.5 1.4-.5 3-2 3-2.2 0-3.6 2.5-2.5 4.5 5.9 10.2 19.9 36.8 24 66.2.2 1.3-1.5 2-2.3 1-16.4-21.6-23.7-49-26-59.6-.4-1.9-2.7-2.6-4.2-1.4-1 .9-2.6.6-3.1-.7-4.6-10.9-9.9-18.4-13.1-22.3-1.1-1.4-3.1-1.5-4.3-.3l-.4.4c-1 1-2.6.7-3.4-.5-6.7-10.9-15.5-19.3-19.6-23-1.1-1-2.9-.7-3.6.7-.6 1.1-2.1 1.4-3 .4-8-8.2-14.5-13-17.7-15.1-1-.7-2.4-.2-2.8 1s-1.8 1.7-2.8 1c-9.2-6-17.1-8.1-20.9-8.8-1.3-.2-2.4.8-2.2 2.1.5 3.8 2.1 11.8 7.5 21.4.6 1.1 0 2.4-1.2 2.7s-1.8 1.7-1.2 2.7c1.9 3.3 6.2 10.2 13.9 18.7.9 1 .5 2.5-.6 3-1.4.6-1.8 2.4-.9 3.6 3.4 4.3 11.3 13.6 21.7 21.1 1.1.8 1.3 2.4.2 3.4l-.4.4c-1.3 1.2-1.3 3.1 0 4.3 3.6 3.4 10.8 9.2 21.4 14.5 1.2.6 1.4 2.2.5 3.1-1.4 1.4-.8 3.7 1.1 4.2 10.1 2.9 35.5 11.4 55.7 28 1 .8.2 2.5-1.1 2.3-19.5-3.9-36.6-14.5-43.2-19-1.3-.9-3 0-3.1 1.5-.1 1-1.2 1.6-2.1 1.2-8.4-3.7-15.5-5-19.3-5.5-1.4-.2-2.5.8-2.6 2.2v.4c-.1 1.2-1.1 1.9-2.1 1.6-9.6-2.5-19.1-2.5-23.4-2.4-1.2 0-2 1.2-1.7 2.3.3 1-.4 1.9-1.5 1.9-8.9-.3-15.1.5-18 1-.9.2-1.5 1.2-1.1 2.1s-.1 1.9-1.1 2.1c-8.4 1.6-14 4.6-16.5 6.3-.8.5-.9 1.7-.1 2.4 2.3 1.9 7.5 5.5 15.7 8 .9.3 1.3 1.3.8 2.2s-.1 1.9.8 2.2c2.8.8 9 2.4 17.8 3 1 .1 1.6 1.1 1.2 2.1-.4 1.1.3 2.3 1.4 2.4 4.2.6 13.7 1.6 23.5.2 1.1-.2 2 .7 2 1.8v.4c-.1 1.4 1 2.5 2.3 2.4 3.9-.1 11-.6 19.8-3.3 1-.3 2 .4 2 1.5-.1 1.5 1.5 2.6 2.9 1.9 7-3.7 25.2-12.3 45-14 1.8-.2 2.5 2.3.8 3-8.4 4-16.9 5.7-20.8 6.3-.9.2-1.3 1.3-.6 2 .4.5.2 1.3-.3 1.5-5.3 2-9 4.4-10.9 5.8-.7.5-.7 1.5-.1 2.1l.2.2c.5.5.4 1.3-.2 1.7-5.3 3-9.4 7.1-11.2 9-.5.5-.3 1.4.4 1.8.6.3.7 1.1.2 1.5-4 3.7-6.3 6.8-7.3 8.3-.3.5-.1 1.2.5 1.4s.8.9.5 1.4c-2.9 4.4-3.9 8.2-4.2 10.1-.1.6.4 1.2 1 1.2 1.9-.1 5.8-.7 10.5-3.1.5-.3 1.2 0 1.4.6s.8.9 1.4.6c1.6-.8 5-2.8 9.1-6.3.5-.4 1.2-.2 1.5.4.3.7 1.2 1 1.8.6 2.1-1.5 6.6-5.2 10.2-10.1.4-.5 1.2-.6 1.7 0l.2.2c.6.7 1.5.7 2.1.1 1.6-1.7 4.5-5.1 7-10.1.3-.6 1.1-.7 1.5-.2.7.7 1.8.5 2.1-.4 1.4-5 5.6-17.8 14.1-27.3 1.9-2.2 4.7-3.4 7.6-3.4s5.7 1.2 7.6 3.4c8.4 9.5 12.6 22.3 14.1 27.3.3.9 1.4 1.1 2.1.4.4-.5 1.2-.4 1.5.2 2.5 5.1 5.4 8.4 7 10.1.6.6 1.5.5 2.1-.1l.2-.2c.5-.5 1.3-.5 1.7 0 3.6 4.9 8.1 8.6 10.2 10.1.6.4 1.5.2 1.8-.6.2-.6 1-.8 1.5-.4 4.1 3.5 7.5 5.5 9.1 6.3.5.3 1.2 0 1.4-.6s.8-.9 1.4-.6c4.7 2.4 8.6 3 10.5 3.1.6 0 1.1-.5 1-1.2-.3-1.9-1.3-5.7-4.2-10.1-.3-.5-.1-1.2.5-1.4s.8-.9.5-1.4c-1-1.5-3.3-4.6-7.3-8.3-.4-.4-.3-1.2.2-1.5.7-.4.9-1.3.4-1.8-1.8-1.9-5.9-6-11.2-9-.6-.3-.7-1.1-.2-1.7l.2-.2c.6-.7.5-1.6-.1-2.1-1.9-1.4-5.5-3.9-10.9-5.8-.6-.2-.8-1-.3-1.5.7-.7.3-1.9-.6-2-3.9-.6-12.4-2.4-20.8-6.3-1.6-.8-.9-3.2.8-3 19.7 1.8 37.9 10.4 45 14 1.4.7 3-.3 2.9-1.9-.1-1 1-1.8 2-1.5 8.8 2.7 15.9 3.3 19.8 3.3 1.4 0 2.4-1.1 2.3-2.4v-.4c-.1-1.1.9-1.9 2-1.8 9.8 1.4 19.3.4 23.5-.2 1.2-.2 1.8-1.4 1.4-2.4-.4-.9.2-2 1.2-2.1 8.9-.7 15-2.2 17.8-3 .9-.3 1.3-1.3.8-2.2-.5-.8-.1-1.9.8-2.2 8.2-2.5 13.4-6.1 15.7-8 0-.7-.1-1.9-.9-2.4z" fill="#00a0a3"/><path d="m328.3 220.8c0-2.9-2.5-5.2-5.5-4.9-2.6.2-4.5 2.6-4.5 5.1-.2 59.4-4.4 82.9-5.9 89.8-.3 1.2.6 2.3 1.8 2.3h9 9c1.2 0 2.1-1.1 1.8-2.3-1.3-6.8-5.5-30.4-5.7-90z" fill="#89f7f4"/><g fill="#1fc9c9"><path d="m329.5 266.3c-.9 2.8-3.6 4.7-6.7 4.4-2.6-.3-4.7-2.2-5.4-4.6-1.4 27.2-3.7 40-4.8 44.8-.3 1.2.6 2.3 1.8 2.3h9 9c1.2 0 2.1-1.1 1.8-2.3-1-4.8-3.3-17.5-4.7-44.6z"/><path d="m333.5 185.7c5.9-21.7 15.5-39.8 20.2-47.8 1.1-2-.2-4.5-2.5-4.5-1.5 0-2.5-1.6-2-3 4.7-12.9 6.1-23.6 6.5-29.3.1-2-1.4-3.7-3.3-3.7h-.7c-1.6 0-2.7-1.5-2.4-3.1 2.8-14.6 2.1-28.8 1.6-35.1-.2-1.8-1.9-2.9-3.5-2.3-1.3.5-2.8-.6-2.8-2-.2-13.3-2-22.6-3-26.9-.3-1.4-1.8-2.1-3.1-1.4-1.2.7-2.7 0-3.1-1.4-.4-1.7-.9-3.3-1.3-4.9-5.5 1.9-10.8 6.5-10.8 16.7v135.7c.1-.1-.1 11.9 10.2 13z"/><path d="m201.9 91.7c9.2 9.2 80.4 85.4 91.3 97.1 1.6 1.8 3.9 2.8 6.3 2.7 1.6-.1 3.5-.7 5.2-2.4-9.5-17.7-14.1-35.7-15.9-43.8-.4-1.9-2.7-2.6-4.1-1.4-1 .9-2.6.6-3.1-.6-4.6-10.9-9.9-18.4-13.1-22.3-1.1-1.4-3-1.5-4.3-.3l-.4.3c-1.1 1-2.7.8-3.4-.4-6.7-10.9-15.5-19.4-19.6-23-1.1-1-2.9-.7-3.6.6-.6 1.1-2.1 1.4-3 .5-8-8.2-14.6-13-17.8-15.1-1-.7-2.4-.2-2.8 1s-1.8 1.7-2.8 1c-4.9-3.2-9.4-5.2-13.1-6.6-.6 4.1.2 8.7 4.2 12.7z"/><path d="m452.9 103.2c-1.2-.3-1.8-1.7-1.2-2.7 1.6-2.8 2.8-5.4 3.8-7.8-5.2-.1-10.8 1.1-15.3 5.6-9.3 9.3-65.3 68.5-83.3 87.5-3.2 3.4-3.4 8.6-.4 12.1l1 1.2c16.1-9.4 32.2-14.7 39.7-16.9 1.9-.5 2.4-2.9 1.1-4.2-1-1-.8-2.6.4-3.2 10.6-5.3 17.8-11.1 21.4-14.5 1.3-1.2 1.3-3.1 0-4.3l-.4-.3c-1.1-1-1-2.6.2-3.5 10.4-7.4 18.3-16.8 21.7-21.1.9-1.2.5-2.9-.9-3.6-1.2-.5-1.6-2-.7-3 7.7-8.5 12-15.4 13.9-18.7.8-1 .2-2.3-1-2.6z"/><path d="m260.9 193.5c-1.2-.8-2.9 0-3.1 1.4-.1 1.1-1.1 1.8-2.1 1.3-8.4-3.7-15.5-5-19.3-5.5-1.4-.2-2.5.8-2.6 2.2v.4c-.1 1.2-1.1 1.9-2.1 1.6-9.6-2.5-19.1-2.5-23.4-2.4-1.2 0-2 1.2-1.7 2.3.3 1-.6 1.9-1.6 1.9-8.8-.3-15.1.5-18 1-.9.2-1.5 1.2-1.1 2.1s-.1 1.9-1.1 2.1c-4 .8-7.3 1.8-10 2.9 1.9 2.2 5.1 4.3 10.2 5.1 11.2 1.8 73.8 4.7 95 5.7 4.2.2 8-2.3 9.6-6.2l.4-.9c-13.3-4.9-24.2-11.7-29.1-15z"/><path d="m385.9 193.5c1.2-.8 2.9 0 3.1 1.4.1 1.1 1.1 1.8 2.1 1.3 8.4-3.7 15.5-5 19.3-5.5 1.4-.2 2.5.8 2.6 2.2v.4c.1 1.2 1.1 1.9 2.1 1.6 9.6-2.5 19.1-2.5 23.4-2.4 1.2 0 2 1.2 1.7 2.3-.3 1 .6 1.9 1.6 1.9 8.8-.3 15.1.5 18 1 .9.2 1.5 1.2 1.1 2.1s.1 1.9 1.1 2.1c4 .8 7.3 1.8 10 2.9-1.9 2.2-5.1 4.3-10.2 5.1-11.2 1.8-73.8 4.7-95 5.7-4.2.2-8-2.3-9.6-6.2l-.4-.9c13.2-4.9 24.1-11.7 29.1-15z"/><path d="m363.8 232.6c.7-.7.3-1.9-.6-2-3.2-.5-9.6-1.8-16.5-4.5-1.2 2.1-2.2 5.6 1.2 9.1 5.3 5.3 38.7 34.5 38.7 34.5s2.8 2.1 7 .3c-.4-.8-.9-1.7-1.5-2.6-.3-.5-.1-1.2.5-1.4s.8-.9.5-1.4c-1-1.5-3.3-4.6-7.3-8.3-.4-.4-.3-1.2.2-1.5.7-.4.9-1.3.4-1.8-1.8-1.9-5.9-6-11.2-9-.6-.3-.7-1.1-.2-1.7l.2-.2c.6-.7.5-1.6-.1-2.1-1.9-1.4-5.5-3.9-10.9-5.8-.6-.4-.8-1.2-.4-1.6z"/><path d="m298.4 234.3c-5.9 5.9-37.5 34.1-37.5 34.1s-3.7 3.5-1.2 8c.7-.3 1.4-.6 2.1-1 .5-.3 1.2 0 1.4.6s.8.9 1.4.6c1.6-.8 5-2.8 9.1-6.3.5-.4 1.2-.2 1.5.4.3.7 1.2 1 1.8.6 2.1-1.5 6.6-5.2 10.2-10.1.4-.5 1.2-.6 1.7 0l.2.2c.6.7 1.5.7 2.1.1 1.6-1.7 4.5-5.1 7-10.1.3-.6 1.1-.7 1.5-.2.7.7 1.8.5 2.1-.4 1-3.5 3.3-10.6 7.4-17.9-2.5-1.2-6.8-2.6-10.8 1.4z"/></g><path d="m334.3 77v46.2s-1.5 17.1 16.9 10.2c-1.5 0-2.5-1.6-2-3 4.7-12.9 6.1-23.6 6.5-29.3.1-2-1.4-3.7-3.3-3.7h-.7c-1.6 0-2.7-1.5-2.4-3.1 2.8-14.6 2.1-28.8 1.6-35.1 0-.1-16.6 3-16.6 17.8z" fill="#89f7f4"/><path d="m422.3 131.8c-6.4 6.4-22.2 23.6-29.6 31.6-4.3 4.6-.5 12.1 5.8 11.4h.3c10.6-5.3 17.8-11.1 21.4-14.5 1.3-1.2 1.3-3.1 0-4.3l-.4-.3c-1.1-1-1-2.6.2-3.5 10.4-7.4 18.3-16.8 21.7-21.1.9-1.2.5-2.9-.9-3.6 0 .1-10.1-4.1-18.5 4.3z" fill="#89f7f4"/><path d="m268.3 148.4c5.2 5.2 14.1 3 16.2-4 0-.1.1-.3.1-.4-1 .9-2.6.6-3.1-.6-4.6-10.9-9.9-18.4-13.1-22.3-1.1-1.4-3-1.5-4.3-.3l-.4.3c-1.1 1-2.7.8-3.4-.4-6.7-10.9-15.5-19.4-19.6-23-1.1-1-2.9-.7-3.6.6-.1.2-.2.3-.4.5-1.5 2-6.5 9.7-1.6 15.5 4.3 5 23.4 24.3 33.2 34.1z" fill="#89f7f4"/></svg>