<?xml version="1.0" encoding="utf-8"?>
<!-- Generator: Adobe Illustrator 24.2.3, SVG Export Plug-In . SVG Version: 6.00 Build 0)  -->
<svg version="1.1" id="Layer_1" xmlns="http://www.w3.org/2000/svg" xmlns:xlink="http://www.w3.org/1999/xlink" x="0px" y="0px"
	 viewBox="0 0 512 512" style="enable-background:new 0 0 512 512;" xml:space="preserve">
<style type="text/css">
	.st0{fill:#535354;}
	.st1{fill:#FFBC80;}
	.st2{fill:#F7A269;}
	.st3{fill:#EFF9F8;}
	.st4{fill:#DAEAE8;}
	.st5{fill:#FFB81F;}
	.st6{fill:#FCAB08;}
	.st7{fill:#00A0A3;}
	.st8{fill:#89F7F4;}
	.st9{fill:#1FC9C9;}
</style>
<g>
	<path class="st0" d="M256,22C120.7,22,11,131.7,11,267l74.1,175.5c44.1,43,104.4,69.5,170.9,69.5c135.3,0,245-109.7,245-245
		S391.3,22,256,22L256,22z"/>
	<path class="st1" d="M472.9,328.5c-7.6-8.9-18.9-8.6-30.2-2.4c-26.4,14.7-83.7,41-83.7,41h0c1.8-2.9,2.9-6.5,2.9-11
		c0-14.4-21.4-22.1-46-26.3c-18.9-5.2-39.1-6-61.9-21.3c-26.4-17.7-54.8-13.9-74.8-7.9c-21.5,6.4-37.3,4-53.3,4.5v3.8v105.8
		c8.8,0.8,19-0.7,32.9,5c24.6,10,91,32.3,136.5,32.3c37.5,0,130.2-53.2,172.8-89.8C479.3,352.6,482.5,339.7,472.9,328.5z"/>
	<path class="st2" d="M359,367.1c-5.5,6.8-14.6,10.5-23.3,9.3l-81.4-11.3c-4.2-0.6-8.1,2.3-8.6,6.5s2.3,8.1,6.5,8.6l81.4,11.3
		c14.3,2,29.3-3.7,39-17.4c0.7-1,1.6-3,7.5-14c0.5-1,0.8-2.1,0.9-3.2C368.2,362.9,359,367.1,359,367.1L359,367.1z"/>
	<g>
		<path class="st2" d="M197.5,296.6c-19,2.6-25.4,8.5-50,8.5h-21.7v109.6c8.8,0.8,18.9-0.7,32.9,5c8.2,3.3,21.1,8.1,36.4,12.9
			C149.8,397.9,151.2,329.5,197.5,296.6L197.5,296.6z"/>
	</g>
	<path class="st3" d="M118.9,276.2H72.6v153.2c4,4.5,8.2,8.9,12.5,13.1h33.8c5,0,9-4,9-9V285.3C127.9,280.3,123.9,276.2,118.9,276.2
		L118.9,276.2z"/>
	<path class="st4" d="M81.1,360c-2.5-1.8-5.5-2.4-8.5-2v71.4c4,4.5,8.2,8.9,12.5,13.1h33.8c5,0,9-4,9-9v-78.9
		C127.9,354.6,105.6,377.3,81.1,360L81.1,360z"/>
	<path class="st5" d="M74.6,431.7c0-37.3,0-139.6,0-156.1c0-5-4-9-9-9H11c0,0.2,0,0.3,0,0.5C11,330.4,35.1,388.2,74.6,431.7z"/>
	<path class="st6" d="M67.8,359.7c-7.9,4.8-22,9.9-38.4,0.7c10.9,26.4,26.3,50.5,45.2,71.3c0-16.4,0-45.2,0-73.8
		C72.3,357.8,69.9,358.4,67.8,359.7L67.8,359.7z"/>
	<path class="st7" d="M478.3,208.1c-2.5-1.6-8.1-4.7-16.5-6.3c-0.9-0.2-1.5-1.2-1.1-2.1c0.4-0.9-0.1-1.9-1.1-2.1
		c-2.9-0.5-9.2-1.4-18-1c-1,0-1.7-0.9-1.5-1.9c0.3-1.1-0.5-2.2-1.7-2.3c-4.3-0.1-13.8-0.1-23.4,2.4c-1,0.3-2.1-0.5-2.1-1.6l0-0.4
		c-0.1-1.4-1.2-2.3-2.6-2.2c-3.8,0.5-10.9,1.8-19.3,5.5c-0.9,0.4-2-0.2-2.1-1.2c-0.1-1.5-1.8-2.4-3.1-1.5c-6.6,4.5-23.8,15-43.2,19
		c-1.3,0.3-2.1-1.4-1.1-2.3c20.2-16.6,45.6-25.1,55.7-28c1.9-0.5,2.5-2.9,1.1-4.2c-1-1-0.8-2.5,0.5-3.1
		c10.6-5.3,17.8-11.1,21.4-14.5c1.3-1.2,1.3-3.1,0-4.3l-0.4-0.4c-1-1-0.9-2.6,0.2-3.4c10.4-7.4,18.3-16.7,21.7-21.1
		c0.9-1.2,0.5-3-0.9-3.6c-1.2-0.5-1.5-2-0.6-3c7.7-8.5,12-15.3,13.9-18.7c0.6-1.1,0-2.4-1.2-2.7c-1.2-0.3-1.8-1.7-1.2-2.7
		c5.4-9.6,7-17.6,7.5-21.4c0.2-1.3-1-2.3-2.2-2.1c-3.8,0.7-11.7,2.8-20.9,8.8c-1,0.7-2.4,0.2-2.8-1s-1.8-1.7-2.8-1
		c-3.2,2.1-9.7,6.9-17.7,15.1c-0.9,0.9-2.4,0.7-3-0.4c-0.7-1.4-2.5-1.7-3.6-0.7c-4.1,3.6-12.9,12.1-19.6,23
		c-0.7,1.2-2.4,1.4-3.4,0.5l-0.4-0.4c-1.3-1.2-3.2-1.1-4.3,0.3c-3.1,3.9-8.5,11.4-13.1,22.3c-0.5,1.2-2.1,1.6-3.1,0.7
		c-1.4-1.3-3.7-0.5-4.2,1.4c-2.3,10.6-9.5,38.1-26,59.6c-0.8,1.1-2.5,0.3-2.3-1c4.1-29.4,18.1-56,24-66.2c1.1-2-0.2-4.5-2.5-4.5
		c-1.5,0-2.5-1.6-2-3c4.7-12.9,6.1-23.6,6.5-29.3c0.1-2-1.4-3.7-3.3-3.7h-0.7c-1.6,0-2.7-1.5-2.4-3.1c2.8-14.6,2.1-28.8,1.6-35.1
		c-0.2-1.8-1.9-2.9-3.5-2.3c-1.3,0.5-2.8-0.6-2.8-2c-0.2-13.3-2-22.6-3-26.9c-0.3-1.4-1.8-2.1-3.1-1.4c-1.2,0.7-2.7,0-3.1-1.4
		c-3-12.4-7.8-20.5-10.4-24.1c-0.8-1.2-2.6-1.2-3.4,0c-2.6,3.6-7.4,11.7-10.4,24.1c-0.3,1.4-1.8,2.1-3.1,1.4c-1.2-0.7-2.8,0-3.1,1.4
		c-1,4.3-2.7,13.6-3,26.9c0,1.5-1.4,2.6-2.8,2c-1.6-0.6-3.4,0.5-3.5,2.3c-0.5,6.3-1.2,20.5,1.6,35.1c0.3,1.6-0.9,3.1-2.4,3.1h-0.7
		c-2,0-3.5,1.7-3.3,3.7c0.4,5.8,1.8,16.4,6.5,29.3c0.5,1.4-0.5,3-2,3c-2.2,0-3.6,2.5-2.5,4.5c5.9,10.2,19.9,36.8,24,66.2
		c0.2,1.3-1.5,2-2.3,1c-16.4-21.6-23.7-49-26-59.6c-0.4-1.9-2.7-2.6-4.2-1.4c-1,0.9-2.6,0.6-3.1-0.7c-4.6-10.9-9.9-18.4-13.1-22.3
		c-1.1-1.4-3.1-1.5-4.3-0.3l-0.4,0.4c-1,1-2.6,0.7-3.4-0.5c-6.7-10.9-15.5-19.3-19.6-23c-1.1-1-2.9-0.7-3.6,0.7
		c-0.6,1.1-2.1,1.4-3,0.4c-8-8.2-14.5-13-17.7-15.1c-1-0.7-2.4-0.2-2.8,1c-0.4,1.2-1.8,1.7-2.8,1c-9.2-6-17.1-8.1-20.9-8.8
		c-1.3-0.2-2.4,0.8-2.2,2.1c0.5,3.8,2.1,11.8,7.5,21.4c0.6,1.1,0,2.4-1.2,2.7c-1.2,0.3-1.8,1.7-1.2,2.7c1.9,3.3,6.2,10.2,13.9,18.7
		c0.9,1,0.5,2.5-0.6,3c-1.4,0.6-1.8,2.4-0.9,3.6c3.4,4.3,11.3,13.6,21.7,21.1c1.1,0.8,1.3,2.4,0.2,3.4l-0.4,0.4
		c-1.3,1.2-1.3,3.1,0,4.3c3.6,3.4,10.8,9.2,21.4,14.5c1.2,0.6,1.4,2.2,0.5,3.1c-1.4,1.4-0.8,3.7,1.1,4.2c10.1,2.9,35.5,11.4,55.7,28
		c1,0.8,0.2,2.5-1.1,2.3c-19.5-3.9-36.6-14.5-43.2-19c-1.3-0.9-3,0-3.1,1.5c-0.1,1-1.2,1.6-2.1,1.2c-8.4-3.7-15.5-5-19.3-5.5
		c-1.4-0.2-2.5,0.8-2.6,2.2l0,0.4c-0.1,1.2-1.1,1.9-2.1,1.6c-9.6-2.5-19.1-2.5-23.4-2.4c-1.2,0-2,1.2-1.7,2.3c0.3,1-0.4,1.9-1.5,1.9
		c-8.9-0.3-15.1,0.5-18,1c-0.9,0.2-1.5,1.2-1.1,2.1c0.4,0.9-0.1,1.9-1.1,2.1c-8.4,1.6-14,4.6-16.5,6.3c-0.8,0.5-0.9,1.7-0.1,2.4
		c2.3,1.9,7.5,5.5,15.7,8c0.9,0.3,1.3,1.3,0.8,2.2s-0.1,1.9,0.8,2.2c2.8,0.8,9,2.4,17.8,3c1,0.1,1.6,1.1,1.2,2.1
		c-0.4,1.1,0.3,2.3,1.4,2.4c4.2,0.6,13.7,1.6,23.5,0.2c1.1-0.2,2,0.7,2,1.8l0,0.4c-0.1,1.4,1,2.5,2.3,2.4c3.9-0.1,11-0.6,19.8-3.3
		c1-0.3,2,0.4,2,1.5c-0.1,1.5,1.5,2.6,2.9,1.9c7-3.7,25.2-12.3,45-14c1.8-0.2,2.5,2.3,0.8,3c-8.4,4-16.9,5.7-20.8,6.3
		c-0.9,0.2-1.3,1.3-0.6,2c0.4,0.5,0.2,1.3-0.3,1.5c-5.3,2-9,4.4-10.9,5.8c-0.7,0.5-0.7,1.5-0.1,2.1l0.2,0.2c0.5,0.5,0.4,1.3-0.2,1.7
		c-5.3,3-9.4,7.1-11.2,9c-0.5,0.5-0.3,1.4,0.4,1.8c0.6,0.3,0.7,1.1,0.2,1.5c-4,3.7-6.3,6.8-7.3,8.3c-0.3,0.5-0.1,1.2,0.5,1.4
		s0.8,0.9,0.5,1.4c-2.9,4.4-3.9,8.2-4.2,10.1c-0.1,0.6,0.4,1.2,1,1.2c1.9-0.1,5.8-0.7,10.5-3.1c0.5-0.3,1.2,0,1.4,0.6
		c0.2,0.6,0.8,0.9,1.4,0.6c1.6-0.8,5-2.8,9.1-6.3c0.5-0.4,1.2-0.2,1.5,0.4c0.3,0.7,1.2,1,1.8,0.6c2.1-1.5,6.6-5.2,10.2-10.1
		c0.4-0.5,1.2-0.6,1.7,0l0.2,0.2c0.6,0.7,1.5,0.7,2.1,0.1c1.6-1.7,4.5-5.1,7-10.1c0.3-0.6,1.1-0.7,1.5-0.2c0.7,0.7,1.8,0.5,2.1-0.4
		c1.4-5,5.6-17.8,14.1-27.3c1.9-2.2,4.7-3.4,7.6-3.4c2.9,0,5.7,1.2,7.6,3.4c8.4,9.5,12.6,22.3,14.1,27.3c0.3,0.9,1.4,1.1,2.1,0.4
		c0.4-0.5,1.2-0.4,1.5,0.2c2.5,5.1,5.4,8.4,7,10.1c0.6,0.6,1.5,0.5,2.1-0.1l0.2-0.2c0.5-0.5,1.3-0.5,1.7,0
		c3.6,4.9,8.1,8.6,10.2,10.1c0.6,0.4,1.5,0.2,1.8-0.6c0.2-0.6,1-0.8,1.5-0.4c4.1,3.5,7.5,5.5,9.1,6.3c0.5,0.3,1.2,0,1.4-0.6
		c0.2-0.6,0.8-0.9,1.4-0.6c4.7,2.4,8.6,3,10.5,3.1c0.6,0,1.1-0.5,1-1.2c-0.3-1.9-1.3-5.7-4.2-10.1c-0.3-0.5-0.1-1.2,0.5-1.4
		c0.6-0.2,0.8-0.9,0.5-1.4c-1-1.5-3.3-4.6-7.3-8.3c-0.4-0.4-0.3-1.2,0.2-1.5c0.7-0.4,0.9-1.3,0.4-1.8c-1.8-1.9-5.9-6-11.2-9
		c-0.6-0.3-0.7-1.1-0.2-1.7l0.2-0.2c0.6-0.7,0.5-1.6-0.1-2.1c-1.9-1.4-5.5-3.9-10.9-5.8c-0.6-0.2-0.8-1-0.3-1.5
		c0.7-0.7,0.3-1.9-0.6-2c-3.9-0.6-12.4-2.4-20.8-6.3c-1.6-0.8-0.9-3.2,0.8-3c19.7,1.8,37.9,10.4,45,14c1.4,0.7,3-0.3,2.9-1.9
		c-0.1-1,1-1.8,2-1.5c8.8,2.7,15.9,3.3,19.8,3.3c1.4,0,2.4-1.1,2.3-2.4l0-0.4c-0.1-1.1,0.9-1.9,2-1.8c9.8,1.4,19.3,0.4,23.5-0.2
		c1.2-0.2,1.8-1.4,1.4-2.4c-0.4-0.9,0.2-2,1.2-2.1c8.9-0.7,15-2.2,17.8-3c0.9-0.3,1.3-1.3,0.8-2.2c-0.5-0.8-0.1-1.9,0.8-2.2
		c8.2-2.5,13.4-6.1,15.7-8C479.2,209.8,479.1,208.6,478.3,208.1L478.3,208.1z"/>
	<path class="st8" d="M328.3,220.8c0-2.9-2.5-5.2-5.5-4.9c-2.6,0.2-4.5,2.6-4.5,5.1c-0.2,59.4-4.4,82.9-5.9,89.8
		c-0.3,1.2,0.6,2.3,1.8,2.3h9h9c1.2,0,2.1-1.1,1.8-2.3C332.7,304,328.5,280.4,328.3,220.8L328.3,220.8z"/>
	<g>
		<path class="st9" d="M329.5,266.3c-0.9,2.8-3.6,4.7-6.7,4.4c-2.6-0.3-4.7-2.2-5.4-4.6c-1.4,27.2-3.7,40-4.8,44.8
			c-0.3,1.2,0.6,2.3,1.8,2.3h9h9c1.2,0,2.1-1.1,1.8-2.3C333.2,306.1,330.9,293.4,329.5,266.3L329.5,266.3z"/>
		<path class="st9" d="M333.5,185.7c5.9-21.7,15.5-39.8,20.2-47.8c1.1-2-0.2-4.5-2.5-4.5c-1.5,0-2.5-1.6-2-3
			c4.7-12.9,6.1-23.6,6.5-29.3c0.1-2-1.4-3.7-3.3-3.7h-0.7c-1.6,0-2.7-1.5-2.4-3.1c2.8-14.6,2.1-28.8,1.6-35.1
			c-0.2-1.8-1.9-2.9-3.5-2.3c-1.3,0.5-2.8-0.6-2.8-2c-0.2-13.3-2-22.6-3-26.9c-0.3-1.4-1.8-2.1-3.1-1.4c-1.2,0.7-2.7,0-3.1-1.4
			c-0.4-1.7-0.9-3.3-1.3-4.9c-5.5,1.9-10.8,6.5-10.8,16.7v135.7C323.4,172.6,323.2,184.6,333.5,185.7L333.5,185.7z"/>
		<path class="st9" d="M201.9,91.7c9.2,9.2,80.4,85.4,91.3,97.1c1.6,1.8,3.9,2.8,6.3,2.7c1.6-0.1,3.5-0.7,5.2-2.4
			c-9.5-17.7-14.1-35.7-15.9-43.8c-0.4-1.9-2.7-2.6-4.1-1.4c-1,0.9-2.6,0.6-3.1-0.6c-4.6-10.9-9.9-18.4-13.1-22.3
			c-1.1-1.4-3-1.5-4.3-0.3l-0.4,0.3c-1.1,1-2.7,0.8-3.4-0.4c-6.7-10.9-15.5-19.4-19.6-23c-1.1-1-2.9-0.7-3.6,0.6
			c-0.6,1.1-2.1,1.4-3,0.5c-8-8.2-14.6-13-17.8-15.1c-1-0.7-2.4-0.2-2.8,1c-0.4,1.2-1.8,1.7-2.8,1c-4.9-3.2-9.4-5.2-13.1-6.6
			C197.1,83.1,197.9,87.7,201.9,91.7L201.9,91.7z"/>
		<path class="st9" d="M452.9,103.2c-1.2-0.3-1.8-1.7-1.2-2.7c1.6-2.8,2.8-5.4,3.8-7.8c-5.2-0.1-10.8,1.1-15.3,5.6
			c-9.3,9.3-65.3,68.5-83.3,87.5c-3.2,3.4-3.4,8.6-0.4,12.1l1,1.2c16.1-9.4,32.2-14.7,39.7-16.9c1.9-0.5,2.4-2.9,1.1-4.2
			c-1-1-0.8-2.6,0.4-3.2c10.6-5.3,17.8-11.1,21.4-14.5c1.3-1.2,1.3-3.1,0-4.3l-0.4-0.3c-1.1-1-1-2.6,0.2-3.5
			c10.4-7.4,18.3-16.8,21.7-21.1c0.9-1.2,0.5-2.9-0.9-3.6c-1.2-0.5-1.6-2-0.7-3c7.7-8.5,12-15.4,13.9-18.7
			C454.7,104.8,454.1,103.5,452.9,103.2L452.9,103.2z"/>
		<path class="st9" d="M260.9,193.5c-1.2-0.8-2.9,0-3.1,1.4c-0.1,1.1-1.1,1.8-2.1,1.3c-8.4-3.7-15.5-5-19.3-5.5
			c-1.4-0.2-2.5,0.8-2.6,2.2l0,0.4c-0.1,1.2-1.1,1.9-2.1,1.6c-9.6-2.5-19.1-2.5-23.4-2.4c-1.2,0-2,1.2-1.7,2.3
			c0.3,1-0.6,1.9-1.6,1.9c-8.8-0.3-15.1,0.5-18,1c-0.9,0.2-1.5,1.2-1.1,2.1c0.4,0.9-0.1,1.9-1.1,2.1c-4,0.8-7.3,1.8-10,2.9
			c1.9,2.2,5.1,4.3,10.2,5.1c11.2,1.8,73.8,4.7,95,5.7c4.2,0.2,8-2.3,9.6-6.2l0.4-0.9C276.7,203.6,265.8,196.8,260.9,193.5
			L260.9,193.5z"/>
		<path class="st9" d="M385.9,193.5c1.2-0.8,2.9,0,3.1,1.4c0.1,1.1,1.1,1.8,2.1,1.3c8.4-3.7,15.5-5,19.3-5.5
			c1.4-0.2,2.5,0.8,2.6,2.2l0,0.4c0.1,1.2,1.1,1.9,2.1,1.6c9.6-2.5,19.1-2.5,23.4-2.4c1.2,0,2,1.2,1.7,2.3c-0.3,1,0.6,1.9,1.6,1.9
			c8.8-0.3,15.1,0.5,18,1c0.9,0.2,1.5,1.2,1.1,2.1c-0.4,0.9,0.1,1.9,1.1,2.1c4,0.8,7.3,1.8,10,2.9c-1.9,2.2-5.1,4.3-10.2,5.1
			c-11.2,1.8-73.8,4.7-95,5.7c-4.2,0.2-8-2.3-9.6-6.2l-0.4-0.9C370,203.6,380.9,196.8,385.9,193.5L385.9,193.5z"/>
		<path class="st9" d="M363.8,232.6c0.7-0.7,0.3-1.9-0.6-2c-3.2-0.5-9.6-1.8-16.5-4.5c-1.2,2.1-2.2,5.6,1.2,9.1
			c5.3,5.3,38.7,34.5,38.7,34.5s2.8,2.1,7,0.3c-0.4-0.8-0.9-1.7-1.5-2.6c-0.3-0.5-0.1-1.2,0.5-1.4c0.6-0.2,0.8-0.9,0.5-1.4
			c-1-1.5-3.3-4.6-7.3-8.3c-0.4-0.4-0.3-1.2,0.2-1.5c0.7-0.4,0.9-1.3,0.4-1.8c-1.8-1.9-5.9-6-11.2-9c-0.6-0.3-0.7-1.1-0.2-1.7
			l0.2-0.2c0.6-0.7,0.5-1.6-0.1-2.1c-1.9-1.4-5.5-3.9-10.9-5.8C363.6,233.8,363.4,233,363.8,232.6L363.8,232.6z"/>
		<path class="st9" d="M298.4,234.3c-5.9,5.9-37.5,34.1-37.5,34.1s-3.7,3.5-1.2,8c0.7-0.3,1.4-0.6,2.1-1c0.5-0.3,1.2,0,1.4,0.6
			c0.2,0.6,0.8,0.9,1.4,0.6c1.6-0.8,5-2.8,9.1-6.3c0.5-0.4,1.2-0.2,1.5,0.4c0.3,0.7,1.2,1,1.8,0.6c2.1-1.5,6.6-5.2,10.2-10.1
			c0.4-0.5,1.2-0.6,1.7,0l0.2,0.2c0.6,0.7,1.5,0.7,2.1,0.1c1.6-1.7,4.5-5.1,7-10.1c0.3-0.6,1.1-0.7,1.5-0.2c0.7,0.7,1.8,0.5,2.1-0.4
			c1-3.5,3.3-10.6,7.4-17.9C306.7,231.7,302.4,230.3,298.4,234.3L298.4,234.3z"/>
	</g>
	<path class="st8" d="M334.3,77v46.2c0,0-1.5,17.1,16.9,10.2c-1.5,0-2.5-1.6-2-3c4.7-12.9,6.1-23.6,6.5-29.3c0.1-2-1.4-3.7-3.3-3.7
		h-0.7c-1.6,0-2.7-1.5-2.4-3.1c2.8-14.6,2.1-28.8,1.6-35.1C350.9,59.1,334.3,62.2,334.3,77L334.3,77z"/>
	<path class="st8" d="M422.3,131.8c-6.4,6.4-22.2,23.6-29.6,31.6c-4.3,4.6-0.5,12.1,5.8,11.4c0.1,0,0.2,0,0.3,0
		c10.6-5.3,17.8-11.1,21.4-14.5c1.3-1.2,1.3-3.1,0-4.3l-0.4-0.3c-1.1-1-1-2.6,0.2-3.5c10.4-7.4,18.3-16.8,21.7-21.1
		c0.9-1.2,0.5-2.9-0.9-3.6C440.8,127.6,430.7,123.4,422.3,131.8L422.3,131.8z"/>
	<path class="st8" d="M268.3,148.4c5.2,5.2,14.1,3,16.2-4c0-0.1,0.1-0.3,0.1-0.4c-1,0.9-2.6,0.6-3.1-0.6
		c-4.6-10.9-9.9-18.4-13.1-22.3c-1.1-1.4-3-1.5-4.3-0.3l-0.4,0.3c-1.1,1-2.7,0.8-3.4-0.4c-6.7-10.9-15.5-19.4-19.6-23
		c-1.1-1-2.9-0.7-3.6,0.6c-0.1,0.2-0.2,0.3-0.4,0.5c-1.5,2-6.5,9.7-1.6,15.5C239.4,119.3,258.5,138.6,268.3,148.4z"/>
</g>
</svg>
