<svg enable-background="new 0 0 512 512" viewBox="0 0 512 512" xmlns="http://www.w3.org/2000/svg"><path d="m44 144.2-9.9 18.8c-8.8 18.8-15.3 38.8-19.1 59.8l-4 43.9v.3c0 8.6.4 17 1.3 25.4l7.9 41.4c5.3 18.7 12.8 36.5 22.1 53.1l10.9 17.7c26.4 38.8 63.7 69.7 107.4 88.2l20 7.4c20.7 6.7 42.6 10.7 65.3 11.6h20c22.7-.9 44.6-4.9 65.3-11.6l20-7.4c43.8-18.5 81-49.3 107.4-88.2l10.9-17.7c9.3-16.6 16.8-34.4 22.1-53.1l7.9-41.4c.9-8.4 1.3-16.8 1.3-25.4 0-.1 0-.2 0-.3l-4-43.9c-3.8-21-10.3-41-19.1-59.8l-9.9-18.8c-42.2-73.1-121.2-122.2-211.8-122.2s-169.6 49.1-212 122.2z" fill="#535354"/><path d="m266 32v47.5c0 5.5-4.5 10-10 10s-10-4.5-10-10v-47.5c0-5.5 4.5-10 10-10s10 4.5 10 10z" fill="#898989"/><path d="m180.7 32v47.5c0 5.5-4.5 10-10 10s-10-4.5-10-10v-47.5c0-5.5 4.5-10 10-10s10 4.5 10 10z" fill="#898989"/><path d="m351.3 32v47.5c0 5.5-4.5 10-10 10s-10-4.5-10-10v-47.5c0-5.5 4.5-10 10-10s10 4.5 10 10z" fill="#898989"/><path d="m351.3 479.3c0-5.5-4.5-10-10-10s-10 4.5-10 10v20.9c6.8-2.2 13.5-4.7 20-7.4z" fill="#898989"/><path d="m180.7 479.3c0-5.5-4.5-10-10-10s-10 4.5-10 10v13.5c6.5 2.8 13.2 5.2 20 7.4z" fill="#898989"/><path d="m246 479.3v32.5c3.3.1 6.6.2 10 .2s6.7-.1 10-.2v-32.5c0-5.5-4.5-10-10-10s-10 4.4-10 10z" fill="#898989"/><path d="m361 276.8c-15.1 30.2-42.8 52.9-76.3 61.3l7.1 13.3c-.9 3.4-4.6 19.3 3.7 31.1 5.2 7.3 14 11.4 26.1 12.2-.7 3.9-1.8 13.3 3.5 19.5 3.3 3.8 8.3 5.7 15 5.6 22-21.7 35.6-51.9 35.6-85.3.1-20.9-5.2-40.6-14.7-57.7z" fill="#1fc9c9"/><path d="m323.6 393.3c-42.4-1.6-30.1-42-30.1-42l-7.2-13.5c-9.7 2.6-19.8 4-30.3 4-46 0-85.8-26.4-105-64.9-9.4 17.1-14.8 36.8-14.8 57.7 0 66.2 53.7 119.8 119.8 119.8 33.6 0 64-13.9 85.8-36.2-25.4 1.6-18.2-24.9-18.2-24.9z" fill="#00a0a3"/><path d="m284.8 338.1 7.1 13.3c-.9 3.4-4.6 19.3 3.7 31.1 5.2 7.3 14 11.4 26.1 12.2 0 .2-.1.5-.1.8 14.9-16 24-37.4 24-61 0-10.1-1.7-19.9-4.8-29-15 15.7-34.3 27.2-56 32.6z" fill="#89f7f4"/><path d="m293.5 351.2-7.2-13.5c-9.7 2.6-19.8 4-30.3 4-33.3 0-63.4-13.9-84.7-36.1-3.1 9.1-4.8 18.8-4.8 29 0 49.5 40.1 89.6 89.6 89.6 27 0 51.2-11.9 67.6-30.8-42.6-1.7-30.2-42.2-30.2-42.2z" fill="#58e0d9"/><path d="m254.5 359.8v19.4c0 .4 0 11 7.6 18.5 1.9 1.9 4 3.4 6.5 4.6l46.5-73.8h-3.7l-49.1 29.6c-2.4 1.5-5.2 2-7.8 1.7z" fill="#ff8f1f"/><path d="m256 379.2s0-7.8 0-19.3c-2.2 0-4.3-.6-6.2-1.7l-49.1-29.6h-3.7l55 87.4c1.8 2.9 6.1 2.9 8 0l9.4-14.9c-13.4-6.4-13.4-21.9-13.4-21.9z" fill="#f47e14"/><path d="m256 342.1c-.5 0-1 0-1.5 0v20c2.7.3 5.4-.2 7.8-1.6l52.8-31.9-1.7-1c-17.1 9.2-36.6 14.5-57.4 14.5z" fill="#89f7f4"/><path d="m256 342.1c-20.8 0-40.3-5.3-57.3-14.6l-1.7 1 52.8 31.9c1.9 1.2 4.1 1.7 6.2 1.7 0-5.7 0-12.6 0-20z" fill="#58e0d9"/><path d="m208.7 114.1c-1.1 3.2-3.1 11 .4 17.8 2.5 4.7 7.1 7.9 13.7 9.5-.9 3-2.2 9.6 1 15 2.4 4.1 6.9 6.7 13.2 7.5 3.1.4 6.9 1.4 7.6 3.8.9 3.4-4.6 9.4-8.3 12.4l-3.7 3 4.7-.3c.3 0 35.2-2 48.1 10.1 3.1 2.9 4.6 6.3 4.6 10.4 0 13.5-3.1 17.7-5 19-1.8 1.3-3.5.6-3.6.6l-3.9-1.6 18.8 34.3c-.5 2.6-2.1 13 3.9 21.2 4.1 5.6 10.7 8.8 19.7 9.8-.4 3.6-.8 12.4 4.5 18.1 3.5 3.8 8.7 5.5 15.6 5.1 22.1-21.7 35.9-52 35.9-85.5 0-66.2-53.7-119.8-119.8-119.8-16.9-.1-32.9 3.4-47.4 9.6z" fill="#ffb81f"/><path d="m321.6 285.1c-30.6-2.1-23.7-29.8-23.7-29.8l-17.1-31.1s10.7 4.3 10.7-21-54.2-22-54.2-22 20.2-16.1 0-18.8-12.5-22.1-12.5-22.1c-23.8-4.6-14.3-26.7-14.2-27-43.7 17.9-74.5 60.8-74.5 110.9 0 66.2 53.7 119.8 119.8 119.8 33.5 0 63.8-13.8 85.6-36-25 2.8-19.9-22.9-19.9-22.9z" fill="#fcab08"/><path d="m222.9 141.4c-.9 3-2.2 9.6 1 15 2.4 4.1 6.9 6.7 13.2 7.5 3.1.4 6.9 1.4 7.6 3.8.9 3.4-4.6 9.4-8.3 12.4l-3.7 3 4.7-.3c.3 0 35.2-2 48.1 10.1 3.1 2.9 4.6 6.3 4.6 10.4 0 13.5-3.1 17.7-5 19-1.8 1.3-3.5.6-3.6.6l-3.9-1.6 18.8 34.3c-.5 2.6-2.1 13 3.9 21.2 4.1 5.6 10.7 8.8 19.7 9.8 0 .2 0 .3-.1.5 15.9-16.2 25.7-38.3 25.7-62.8 0-49.5-40.1-89.6-89.6-89.6-11.9 0-23.3 2.3-33.7 6.5.2.1.4.1.6.2z" fill="#f9d39b"/><path d="m256 313.8c25.9 0 49.3-11 65.6-28.6-30.6-2.1-23.7-29.8-23.7-29.8l-17.1-31.1s10.7 4.3 10.7-21-54.2-22-54.2-22 20.2-16.1 0-18.8-12.5-22.1-12.5-22.1c-34.1 12.7-58.4 45.5-58.4 84 0 49.3 40.1 89.4 89.6 89.4z" fill="#f4ca8c"/><g fill="#ffa522"><path d="m270.8 232.2h-37.4c-4.4 0-8-3.6-8-8s3.6-8 8-8h37.4c7.2 0 13-5.8 13-13s-5.8-13-13-13h-50.5c-4.4 0-8-3.6-8-8s3.6-8 8-8h50.5c16 0 29 13 29 29s-13.1 29-29 29z"/><path d="m270.8 274.2h-50.5c-4.4 0-8-3.6-8-8s3.6-8 8-8h50.5c7.2 0 13-5.8 13-13s-5.8-13-13-13h-36.4c-4.4 0-8-3.6-8-8s3.6-8 8-8h36.4c16 0 29 13 29 29s-13.1 29-29 29z"/><path d="m233.4 273.2c-4.4 0-8-3.6-8-8v-82c0-4.4 3.6-8 8-8s8 3.6 8 8v82c0 4.4-3.6 8-8 8z"/><path d="m240.9 186.1c-4.4 0-8-3.6-8-8v-11.5c0-4.4 3.6-8 8-8s8 3.6 8 8v11.5c0 4.5-3.6 8-8 8z"/><path d="m271.1 186.1c-4.4 0-8-3.6-8-8v-11.5c0-4.4 3.6-8 8-8s8 3.6 8 8v11.5c0 4.5-3.6 8-8 8z"/><path d="m240.9 289.8c-4.4 0-8-3.6-8-8v-11.5c0-4.4 3.6-8 8-8s8 3.6 8 8v11.5c0 4.4-3.6 8-8 8z"/><path d="m271.1 289.8c-4.4 0-8-3.6-8-8v-11.5c0-4.4 3.6-8 8-8s8 3.6 8 8v11.5c0 4.4-3.6 8-8 8z"/><ellipse cx="321.7" cy="224.4" rx="10.8" ry="10.8"/></g><ellipse cx="193.3" cy="224.2" fill="#f99a1c" rx="10.8" ry="10.8"/><circle cx="256" cy="22.4" fill="#58e0d9" r="22.4"/><circle cx="170.7" cy="22.4" fill="#ffbf40" r="22.4"/><circle cx="341.3" cy="22.4" fill="#ffbf40" r="22.4"/><path d="m482.9 314.5c0-3.6.9-7 2.4-10h-69.8c-5.5 0-10 4.5-10 10s4.5 10 10 10h69.8c-1.6-3-2.4-6.4-2.4-10z" fill="#898989"/><path d="m482.9 244.4c0-3.6.9-7 2.4-10h-69.8c-5.5 0-10 4.5-10 10s4.5 10 10 10h69.8c-1.6-3-2.4-6.4-2.4-10z" fill="#898989"/><path d="m480.9 314.5c0 8.2 4.4 15.3 10.9 19.2 3.8-13.4 6.5-27.2 7.9-41.4-10.7 1.8-18.8 11.1-18.8 22.2z" fill="#58e0d9"/><path d="m497 222.9c-9.3 2.7-16.1 11.3-16.1 21.5 0 11.6 8.8 21.2 20.1 22.3 0-15-1.4-29.6-4-43.8z" fill="#ffbf40"/><path d="m29.1 314.5c0-3.6-.9-7-2.4-10h69.8c5.5 0 10 4.5 10 10s-4.5 10-10 10h-69.7c1.5-3 2.3-6.4 2.3-10z" fill="#898989"/><path d="m29.1 244.4c0-3.6-.9-7-2.4-10h69.8c5.5 0 10 4.5 10 10s-4.5 10-10 10h-69.7c1.5-3 2.3-6.4 2.3-10z" fill="#898989"/><path d="m31.1 314.5c0 8.2-4.4 15.3-10.9 19.2-3.8-13.4-6.4-27.2-7.9-41.4 10.7 1.8 18.8 11.1 18.8 22.2z" fill="#58e0d9"/><path d="m15 222.9c9.3 2.7 16.1 11.3 16.1 21.5 0 11.6-8.8 21.2-20.1 22.3 0-15 1.4-29.6 4-43.8z" fill="#ffbf40"/><path d="m461.4 181 16.5-18c-3-6.4-6.3-12.7-9.9-18.8l-18.4 20h-33.9c-5.3 0-10 4-10.3 9.3-.4 5.8 4.2 10.7 10 10.7h38.6c2.8 0 5.5-1.1 7.4-3.2z" fill="#898989"/><path d="m461.4 377.9c-1.9-2.1-4.6-3.2-7.4-3.2h-38.6c-5.7 0-10.4 4.8-10 10.7.3 5.3 5 9.3 10.3 9.3h33.9l9.1 9.9c3.9-5.7 7.5-11.6 10.9-17.7z" fill="#898989"/><path d="m50.6 181-16.5-18c3-6.4 6.3-12.7 9.9-18.8l18.4 20h33.9c5.3 0 10 4 10.3 9.3.4 5.8-4.2 10.7-10 10.7h-38.6c-2.8 0-5.5-1.1-7.4-3.2z" fill="#898989"/><path d="m50.6 377.9c1.9-2.1 4.6-3.2 7.4-3.2h38.6c5.7 0 10.4 4.8 10 10.7-.3 5.3-5 9.3-10.3 9.3h-34l-9.1 9.9c-3.9-5.7-7.5-11.6-10.9-17.7z" fill="#898989"/></svg>