<?xml version="1.0" encoding="utf-8"?>
<!-- Generator: Adobe Illustrator 24.2.3, SVG Export Plug-In . SVG Version: 6.00 Build 0)  -->
<svg version="1.1" id="Layer_1" xmlns="http://www.w3.org/2000/svg" xmlns:xlink="http://www.w3.org/1999/xlink" x="0px" y="0px"
	 viewBox="0 0 512 512" style="enable-background:new 0 0 512 512;" xml:space="preserve">
<style type="text/css">
	.st0{fill:#535354;}
	.st1{fill:#898989;}
	.st2{fill:#1FC9C9;}
	.st3{fill:#00A0A3;}
	.st4{fill:#89F7F4;}
	.st5{fill:#58E0D9;}
	.st6{fill:#FF8F1F;}
	.st7{fill:#F47E14;}
	.st8{fill:#FFB81F;}
	.st9{fill:#FCAB08;}
	.st10{fill:#F9D39B;}
	.st11{fill:#F4CA8C;}
	.st12{fill:#FFA522;}
	.st13{fill:#F99A1C;}
	.st14{fill:#FFBF40;}
</style>
<g>
	<path class="st0" d="M44,144.2L34.1,163c-8.8,18.8-15.3,38.8-19.1,59.8l-4,43.9c0,0.1,0,0.2,0,0.3c0,8.6,0.4,17,1.3,25.4l7.9,41.4
		c5.3,18.7,12.8,36.5,22.1,53.1l10.9,17.7c26.4,38.8,63.7,69.7,107.4,88.2l20,7.4c20.7,6.7,42.6,10.7,65.3,11.6h20
		c22.7-0.9,44.6-4.9,65.3-11.6l20-7.4c43.8-18.5,81-49.3,107.4-88.2l10.9-17.7c9.3-16.6,16.8-34.4,22.1-53.1l7.9-41.4
		c0.9-8.4,1.3-16.8,1.3-25.4c0-0.1,0-0.2,0-0.3l-4-43.9c-3.8-21-10.3-41-19.1-59.8l-9.9-18.8C425.6,71.1,346.6,22,256,22
		S86.4,71.1,44,144.2L44,144.2z"/>
	<g>
		<path class="st1" d="M266,32v47.5c0,5.5-4.5,10-10,10s-10-4.5-10-10V32c0-5.5,4.5-10,10-10C261.5,22,266,26.5,266,32z"/>
	</g>
	<g>
		<path class="st1" d="M180.7,32v47.5c0,5.5-4.5,10-10,10s-10-4.5-10-10V32c0-5.5,4.5-10,10-10S180.7,26.5,180.7,32z"/>
	</g>
	<g>
		<path class="st1" d="M351.3,32v47.5c0,5.5-4.5,10-10,10s-10-4.5-10-10V32c0-5.5,4.5-10,10-10S351.3,26.5,351.3,32z"/>
	</g>
	<g>
		<path class="st1" d="M351.3,479.3c0-5.5-4.5-10-10-10s-10,4.5-10,10v20.9c6.8-2.2,13.5-4.7,20-7.4V479.3z"/>
		<path class="st1" d="M180.7,479.3c0-5.5-4.5-10-10-10s-10,4.5-10,10v13.5c6.5,2.8,13.2,5.2,20,7.4V479.3z"/>
		<path class="st1" d="M246,479.3v32.5c3.3,0.1,6.6,0.2,10,0.2c3.4,0,6.7-0.1,10-0.2v-32.5c0-5.5-4.5-10-10-10S246,473.7,246,479.3z
			"/>
	</g>
	<path class="st2" d="M361,276.8c-15.1,30.2-42.8,52.9-76.3,61.3l7.1,13.3c-0.9,3.4-4.6,19.3,3.7,31.1c5.2,7.3,14,11.4,26.1,12.2
		c-0.7,3.9-1.8,13.3,3.5,19.5c3.3,3.8,8.3,5.7,15,5.6c22-21.7,35.6-51.9,35.6-85.3C375.8,313.6,370.5,293.9,361,276.8z"/>
	<path class="st3" d="M323.6,393.3c-42.4-1.6-30.1-42-30.1-42l-7.2-13.5c-9.7,2.6-19.8,4-30.3,4c-46,0-85.8-26.4-105-64.9
		c-9.4,17.1-14.8,36.8-14.8,57.7c0,66.2,53.7,119.8,119.8,119.8c33.6,0,64-13.9,85.8-36.2C316.4,419.8,323.6,393.3,323.6,393.3
		L323.6,393.3z"/>
	<path class="st4" d="M284.8,338.1l7.1,13.3c-0.9,3.4-4.6,19.3,3.7,31.1c5.2,7.3,14,11.4,26.1,12.2c0,0.2-0.1,0.5-0.1,0.8
		c14.9-16,24-37.4,24-61c0-10.1-1.7-19.9-4.8-29C325.8,321.2,306.5,332.7,284.8,338.1L284.8,338.1z"/>
	<path class="st5" d="M293.5,351.2l-7.2-13.5c-9.7,2.6-19.8,4-30.3,4c-33.3,0-63.4-13.9-84.7-36.1c-3.1,9.1-4.8,18.8-4.8,29
		c0,49.5,40.1,89.6,89.6,89.6c27,0,51.2-11.9,67.6-30.8C281.1,391.7,293.5,351.2,293.5,351.2L293.5,351.2z"/>
	<path class="st6" d="M254.5,359.8v19.4c0,0.4,0,11,7.6,18.5c1.9,1.9,4,3.4,6.5,4.6l46.5-73.8h-3.7l-49.1,29.6
		C259.9,359.6,257.1,360.1,254.5,359.8L254.5,359.8z"/>
	<path class="st7" d="M256,379.2c0,0,0-7.8,0-19.3c-2.2,0-4.3-0.6-6.2-1.7l-49.1-29.6H197l55,87.4c1.8,2.9,6.1,2.9,8,0l9.4-14.9
		C256,394.7,256,379.2,256,379.2z"/>
	<path class="st4" d="M256,342.1c-0.5,0-1,0-1.5,0v20c2.7,0.3,5.4-0.2,7.8-1.6l52.8-31.9l-1.7-1C296.3,336.8,276.8,342.1,256,342.1
		L256,342.1z"/>
	<path class="st5" d="M256,342.1c-20.8,0-40.3-5.3-57.3-14.6l-1.7,1l52.8,31.9c1.9,1.2,4.1,1.7,6.2,1.7
		C256,356.4,256,349.5,256,342.1z"/>
	<path class="st8" d="M208.7,114.1c-1.1,3.2-3.1,11,0.4,17.8c2.5,4.7,7.1,7.9,13.7,9.5c-0.9,3-2.2,9.6,1,15
		c2.4,4.1,6.9,6.7,13.2,7.5c3.1,0.4,6.9,1.4,7.6,3.8c0.9,3.4-4.6,9.4-8.3,12.4l-3.7,3l4.7-0.3c0.3,0,35.2-2,48.1,10.1
		c3.1,2.9,4.6,6.3,4.6,10.4c0,13.5-3.1,17.7-5,19c-1.8,1.3-3.5,0.6-3.6,0.6l-3.9-1.6l18.8,34.3c-0.5,2.6-2.1,13,3.9,21.2
		c4.1,5.6,10.7,8.8,19.7,9.8c-0.4,3.6-0.8,12.4,4.5,18.1c3.5,3.8,8.7,5.5,15.6,5.1c22.1-21.7,35.9-52,35.9-85.5
		c0-66.2-53.7-119.8-119.8-119.8C239.2,104.4,223.2,107.9,208.7,114.1L208.7,114.1z"/>
	<path class="st9" d="M321.6,285.1c-30.6-2.1-23.7-29.8-23.7-29.8l-17.1-31.1c0,0,10.7,4.3,10.7-21s-54.2-22-54.2-22
		s20.2-16.1,0-18.8s-12.5-22.1-12.5-22.1c-23.8-4.6-14.3-26.7-14.2-27c-43.7,17.9-74.5,60.8-74.5,110.9
		c0,66.2,53.7,119.8,119.8,119.8c33.5,0,63.8-13.8,85.6-36C316.5,310.8,321.6,285.1,321.6,285.1L321.6,285.1z"/>
	<path class="st10" d="M222.9,141.4c-0.9,3-2.2,9.6,1,15c2.4,4.1,6.9,6.7,13.2,7.5c3.1,0.4,6.9,1.4,7.6,3.8
		c0.9,3.4-4.6,9.4-8.3,12.4l-3.7,3l4.7-0.3c0.3,0,35.2-2,48.1,10.1c3.1,2.9,4.6,6.3,4.6,10.4c0,13.5-3.1,17.7-5,19
		c-1.8,1.3-3.5,0.6-3.6,0.6l-3.9-1.6l18.8,34.3c-0.5,2.6-2.1,13,3.9,21.2c4.1,5.6,10.7,8.8,19.7,9.8c0,0.2,0,0.3-0.1,0.5
		c15.9-16.2,25.7-38.3,25.7-62.8c0-49.5-40.1-89.6-89.6-89.6c-11.9,0-23.3,2.3-33.7,6.5C222.5,141.3,222.7,141.3,222.9,141.4
		L222.9,141.4z"/>
	<path class="st11" d="M256,313.8c25.9,0,49.3-11,65.6-28.6c-30.6-2.1-23.7-29.8-23.7-29.8l-17.1-31.1c0,0,10.7,4.3,10.7-21
		s-54.2-22-54.2-22s20.2-16.1,0-18.8c-20.2-2.7-12.5-22.1-12.5-22.1c-34.1,12.7-58.4,45.5-58.4,84
		C166.4,273.7,206.5,313.8,256,313.8L256,313.8z"/>
	<g>
		<g>
			<path class="st12" d="M270.8,232.2h-37.4c-4.4,0-8-3.6-8-8s3.6-8,8-8h37.4c7.2,0,13-5.8,13-13s-5.8-13-13-13h-50.5
				c-4.4,0-8-3.6-8-8s3.6-8,8-8h50.5c16,0,29,13,29,29S286.7,232.2,270.8,232.2z"/>
		</g>
		<g>
			<path class="st12" d="M270.8,274.2h-50.5c-4.4,0-8-3.6-8-8s3.6-8,8-8h50.5c7.2,0,13-5.8,13-13s-5.8-13-13-13h-36.4
				c-4.4,0-8-3.6-8-8s3.6-8,8-8h36.4c16,0,29,13,29,29S286.7,274.2,270.8,274.2z"/>
		</g>
		<g>
			<path class="st12" d="M233.4,273.2c-4.4,0-8-3.6-8-8v-82c0-4.4,3.6-8,8-8s8,3.6,8,8v82C241.4,269.6,237.8,273.2,233.4,273.2z"/>
		</g>
		<g>
			<path class="st12" d="M240.9,186.1c-4.4,0-8-3.6-8-8v-11.5c0-4.4,3.6-8,8-8s8,3.6,8,8v11.5C248.9,182.6,245.3,186.1,240.9,186.1z
				"/>
		</g>
		<g>
			<path class="st12" d="M271.1,186.1c-4.4,0-8-3.6-8-8v-11.5c0-4.4,3.6-8,8-8s8,3.6,8,8v11.5C279.1,182.6,275.5,186.1,271.1,186.1z
				"/>
		</g>
		<g>
			<path class="st12" d="M240.9,289.8c-4.4,0-8-3.6-8-8v-11.5c0-4.4,3.6-8,8-8s8,3.6,8,8v11.5C248.9,286.2,245.3,289.8,240.9,289.8z
				"/>
		</g>
		<g>
			<path class="st12" d="M271.1,289.8c-4.4,0-8-3.6-8-8v-11.5c0-4.4,3.6-8,8-8s8,3.6,8,8v11.5C279.1,286.2,275.5,289.8,271.1,289.8z
				"/>
		</g>
	</g>
	<ellipse class="st12" cx="321.7" cy="224.4" rx="10.8" ry="10.8"/>
	<ellipse class="st13" cx="193.3" cy="224.2" rx="10.8" ry="10.8"/>
	<g>
		<circle class="st5" cx="256" cy="22.4" r="22.4"/>
	</g>
	<g>
		<circle class="st14" cx="170.7" cy="22.4" r="22.4"/>
	</g>
	<g>
		<circle class="st14" cx="341.3" cy="22.4" r="22.4"/>
	</g>
	<path class="st1" d="M482.9,314.5c0-3.6,0.9-7,2.4-10h-69.8c-5.5,0-10,4.5-10,10s4.5,10,10,10h69.8
		C483.7,321.5,482.9,318.1,482.9,314.5z"/>
	<path class="st1" d="M482.9,244.4c0-3.6,0.9-7,2.4-10h-69.8c-5.5,0-10,4.5-10,10s4.5,10,10,10h69.8
		C483.7,251.4,482.9,248,482.9,244.4L482.9,244.4z"/>
	<path class="st5" d="M480.9,314.5c0,8.2,4.4,15.3,10.9,19.2c3.8-13.4,6.5-27.2,7.9-41.4C489,294.1,480.9,303.4,480.9,314.5z"/>
	<path class="st14" d="M497,222.9c-9.3,2.7-16.1,11.3-16.1,21.5c0,11.6,8.8,21.2,20.1,22.3C501,251.7,499.6,237.1,497,222.9
		L497,222.9z"/>
	<path class="st1" d="M29.1,314.5c0-3.6-0.9-7-2.4-10h69.8c5.5,0,10,4.5,10,10s-4.5,10-10,10H26.8C28.3,321.5,29.1,318.1,29.1,314.5
		z"/>
	<path class="st1" d="M29.1,244.4c0-3.6-0.9-7-2.4-10h69.8c5.5,0,10,4.5,10,10s-4.5,10-10,10H26.8C28.3,251.4,29.1,248,29.1,244.4z"
		/>
	<path class="st5" d="M31.1,314.5c0,8.2-4.4,15.3-10.9,19.2c-3.8-13.4-6.4-27.2-7.9-41.4C23,294.1,31.1,303.4,31.1,314.5z"/>
	<path class="st14" d="M15,222.9c9.3,2.7,16.1,11.3,16.1,21.5c0,11.6-8.8,21.2-20.1,22.3C11,251.7,12.4,237.1,15,222.9L15,222.9z"/>
	<g>
		<path class="st1" d="M461.4,181l16.5-18c-3-6.4-6.3-12.7-9.9-18.8l-18.4,20h-33.9c-5.3,0-10,4-10.3,9.3c-0.4,5.8,4.2,10.7,10,10.7
			H454C456.8,184.2,459.5,183.1,461.4,181z"/>
		<path class="st1" d="M461.4,377.9c-1.9-2.1-4.6-3.2-7.4-3.2h-38.6c-5.7,0-10.4,4.8-10,10.7c0.3,5.3,5,9.3,10.3,9.3h33.9l9.1,9.9
			c3.9-5.7,7.5-11.6,10.9-17.7L461.4,377.9z"/>
		<path class="st1" d="M50.6,181l-16.5-18c3-6.4,6.3-12.7,9.9-18.8l18.4,20h33.9c5.3,0,10,4,10.3,9.3c0.4,5.8-4.2,10.7-10,10.7H58
			C55.2,184.2,52.5,183.1,50.6,181z"/>
		<path class="st1" d="M50.6,377.9c1.9-2.1,4.6-3.2,7.4-3.2h38.6c5.7,0,10.4,4.8,10,10.7c-0.3,5.3-5,9.3-10.3,9.3H62.3l-9.1,9.9
			c-3.9-5.7-7.5-11.6-10.9-17.7L50.6,377.9z"/>
	</g>
</g>
</svg>
