<svg enable-background="new 0 0 512 512" viewBox="0 0 512 512" xmlns="http://www.w3.org/2000/svg"><circle cx="256" cy="267" fill="#535354" r="245"/><path d="m501 94.7v325.4c0 7.9-6.4 14.4-14.4 14.4h-167.4v68.9c-20.1 5.6-41.2 8.6-63.2 8.6s-43.1-3-63.2-8.6v-68.9h-167.4c-7.9 0-14.4-6.4-14.4-14.4v-325.4c0-7.9 6.4-14.4 14.4-14.4h461.3c7.9.1 14.3 6.5 14.3 14.4z" fill="#898989"/><path d="m235.9 453.6h83.3v50.1c-20.1 5.6-41.2 8.2-63.2 8.2-11.7 0-23.2-.9-34.5-2.5v-41.4c0-8 6.5-14.4 14.4-14.4zm250.7-373.2h-432.5c-7.9 0-14.4 6.4-14.4 14.4v325.4c0 7.9 6.4 14.4 14.4 14.4h432.6c7.9 0 14.4-6.4 14.4-14.4v-325.5c-.1-7.9-6.5-14.3-14.5-14.3z" fill="#a3a2a2"/><path d="m465.6 396.2h-419.2c-3.7 0-6.7-3-6.7-6.7v-225.9c0-3.7 3-6.7 6.7-6.7h419.2c3.7 0 6.7 3 6.7 6.7v225.9c0 3.7-3 6.7-6.7 6.7z" fill="#fff5f5"/><path d="m472.3 166.5h-432.6v-41.2c0-3.7 3-6.7 6.7-6.7h419.2c3.7 0 6.7 3 6.7 6.7z" fill="#89f7f4"/><path d="m106.7 142.6c0 5.3-4.3 9.6-9.6 9.6s-9.6-4.3-9.6-9.6 4.3-9.6 9.6-9.6 9.6 4.3 9.6 9.6zm-38.3-9.6c-5.3 0-9.6 4.3-9.6 9.6s4.3 9.6 9.6 9.6 9.6-4.3 9.6-9.6-4.3-9.6-9.6-9.6zm57.4 0c-5.3 0-9.6 4.3-9.6 9.6s4.3 9.6 9.6 9.6 9.6-4.3 9.6-9.6-4.3-9.6-9.6-9.6z" fill="#58e0d9"/><path d="m159.3 338.8h-90.5c-2.7 0-4.8-2.1-4.8-4.8v-9.6c0-2.7 2.1-4.8 4.8-4.8h90.5c2.7 0 4.8 2.1 4.8 4.8v9.6c0 2.7-2.1 4.8-4.8 4.8zm-23.5 23.9v-9.6c0-2.7-2.1-4.8-4.8-4.8h-62.2c-2.7 0-4.8 2.1-4.8 4.8v9.6c0 2.7 2.1 4.8 4.8 4.8h62.2c2.7 0 4.8-2.1 4.8-4.8zm305.9 0v-162.7c0-2.7-2.1-4.8-4.8-4.8h-239.3c-2.7 0-4.8 2.1-4.8 4.8v162.7c0 2.7 2.1 4.8 4.8 4.8h239.3c2.7 0 4.8-2.1 4.8-4.8z" fill="#fcdfac"/><path d="m275.3 314.9v52.6h-21.5v-52.6c0-2.7 2.1-4.8 4.8-4.8h12c2.6 0 4.7 2.1 4.7 4.8zm103-100.5h-12c-2.7 0-4.8 2.1-4.8 4.8v148.3h21.5v-148.4c.1-2.6-2.1-4.7-4.7-4.7zm35.8 57.4h-12c-2.7 0-4.8 2.1-4.8 4.8v90.9h21.5v-90.9c.1-2.7-2-4.8-4.7-4.8zm-71.8-28.7h-12c-2.7 0-4.8 2.1-4.8 4.8v119.6h21.5v-119.6c.1-2.7-2-4.8-4.7-4.8zm-35.8 38.3h-12c-2.7 0-4.8 2.1-4.8 4.8v81.3h21.5v-81.3c.1-2.7-2.1-4.8-4.7-4.8zm-74.2-76.6h-12c-2.7 0-4.8 2.1-4.8 4.8v157.9h21.5v-157.9c.1-2.7-2.1-4.8-4.7-4.8z" fill="#ffb81f"/><path d="m450.9 216.4-62.2 62.2c-1.8 1.8-4.2 2.8-6.8 2.8h-33l-45 72.1c-1.7 2.8-4.8 4.5-8.1 4.5-.2 0-.4 0-.7 0-3.5-.2-6.6-2.4-8-5.6l-42.1-92.7-47.7 47.7c-3.7 3.7-9.8 3.7-13.5 0s-3.7-9.8 0-13.5l57.4-57.4c2.2-2.2 5.4-3.3 8.5-2.7s5.7 2.6 7 5.5l40.5 89 38.4-61.4c1.7-2.8 4.8-4.5 8.1-4.5h34.3l59.4-59.4c3.7-3.7 9.8-3.7 13.5 0 3.7 3.5 3.7 9.6 0 13.4z" fill="#00a0a3"/><path d="m113 291.9c-26.1 0-47.3-21.2-47.3-47.3s21.2-47.3 47.3-47.3 47.3 21.2 47.3 47.3-21.2 47.3-47.3 47.3z" fill="#f9d39b"/><path d="m162.4 244.6v1.8c-.1 1.5-1.3 2.8-2.9 2.8h-48.6c-1.6 0-2.9-1.3-2.9-2.9v-48.1c0-1.5 1.2-2.8 2.8-2.9.8 0 1.5-.1 2.2-.1 27.3 0 49.4 22.1 49.4 49.4z" fill="#ff8602"/></svg>