<?xml version="1.0" encoding="utf-8"?>
<!-- Generator: Adobe Illustrator 24.2.3, SVG Export Plug-In . SVG Version: 6.00 Build 0)  -->
<svg version="1.1" id="Layer_1" xmlns="http://www.w3.org/2000/svg" xmlns:xlink="http://www.w3.org/1999/xlink" x="0px" y="0px"
	 viewBox="0 0 512 512" style="enable-background:new 0 0 512 512;" xml:space="preserve">
<style type="text/css">
	.st0{fill:#535354;}
	.st1{fill:#898989;}
	.st2{fill:#727272;}
	.st3{fill:#EFF9F8;}
	.st4{fill:#DAEAE8;}
	.st5{fill:#1FC9C9;}
	.st6{fill:#00A0A3;}
	.st7{fill:#BCBCBC;}
	.st8{fill:#A5A5A5;}
	.st9{fill:#89F7F4;}
	.st10{fill:#58E0D9;}
	.st11{fill:#6EEADE;}
	.st12{fill:#FFB81F;}
	.st13{fill:#FCAB08;}
	.st14{fill:#FF8F1F;}
	.st15{fill:#F47E14;}
</style>
<path class="st0" d="M115.2,467.5C155,495.5,203.6,512,256,512c52.4,0,101-16.5,140.8-44.5L480.6,365c13.1-30,20.4-63.1,20.4-98
	c0-135.3-109.7-245-245-245C120.7,22,11,131.7,11,267c0,34.8,7.3,68,20.4,98L115.2,467.5z"/>
<path class="st1" d="M458,0H54C40.6,0,29.6,11,29.6,24.4v43h452.8v-43C482.4,11,471.4,0,458,0z"/>
<path class="st2" d="M112.8,0H54C40.6,0,29.6,11,29.6,24.4v43h58.7v-43C88.4,11,99.3,0,112.8,0z"/>
<path class="st3" d="M482.4,173.2c-0.5-1.2-1-2.3-1.5-3.5c-4.6,2.2-9.8,3.5-15.3,3.5c-17.5,0-32.1-12.7-34.9-29.4
	c-2.8,16.7-17.4,29.4-34.9,29.4s-32.1-12.7-34.9-29.4c-2.8,16.7-17.4,29.4-34.9,29.4c-17.5,0-32.1-12.7-34.9-29.4
	c-2.8,16.7-17.4,29.4-34.9,29.4s-32.1-12.7-34.9-29.4c-2.8,16.7-17.4,29.4-34.9,29.4c-17.5,0-32.1-12.7-34.9-29.4
	c-2.8,16.7-17.4,29.4-34.9,29.4s-32.1-12.7-34.9-29.4c-2.8,16.7-17.4,29.4-34.9,29.4c-5.5,0-10.7-1.3-15.3-3.5
	c-0.5,1.2-1,2.3-1.5,3.5v187.6c18.5,44.6,49.8,82.6,89.4,109.3H393c39.5-26.7,70.8-64.7,89.4-109.3L482.4,173.2L482.4,173.2z"/>
<path class="st4" d="M88.4,159.6c-3.5-4.5-6-9.9-7-15.8c-2.8,16.7-17.4,29.4-34.9,29.4c-5.5,0-10.7-1.3-15.3-3.5
	c-0.5,1.2-1,2.3-1.5,3.5v187.6C43,393.2,63.2,422,88.4,445.7V159.6z"/>
<path class="st5" d="M387,367.6c0-8.2-6-14.9-13.4-14.9h-71.4c-7.4,0-13.4,6.7-13.4,14.9s6,14.9,13.4,14.9h71.4
	C381,382.5,387,375.8,387,367.6z"/>
<path class="st6" d="M326.9,367.8c0-8.1,6.2-14.7,13.9-14.7h-38c-7.7,0-13.9,6.6-13.9,14.7c0,8.1,6.2,14.7,13.9,14.7h38
	C333.1,382.5,326.9,375.9,326.9,367.8z"/>
<g>
	<path class="st7" d="M421.6,291.5h-125c-4.3,0-7.7-3.4-7.7-7.7s3.4-7.7,7.7-7.7h125c4.3,0,7.7,3.5,7.7,7.7S425.8,291.5,421.6,291.5
		z"/>
	<path class="st7" d="M421.6,257.6h-125c-4.3,0-7.7-3.5-7.7-7.7s3.4-7.7,7.7-7.7h125c4.3,0,7.7,3.4,7.7,7.7S425.8,257.6,421.6,257.6
		z"/>
	<path class="st7" d="M357.2,325.4h-60.6c-4.3,0-7.7-3.4-7.7-7.7s3.4-7.7,7.7-7.7h60.6c4.3,0,7.7,3.5,7.7,7.7
		S361.4,325.4,357.2,325.4z"/>
</g>
<path class="st8" d="M325.2,283.8c0-4.3,3.5-7.7,7.7-7.7h-36.3c-4.3,0-7.7,3.5-7.7,7.7s3.4,7.7,7.7,7.7h36.3
	C328.7,291.5,325.2,288,325.2,283.8z"/>
<path class="st8" d="M325.2,249.8c0-4.3,3.5-7.7,7.7-7.7h-36.3c-4.3,0-7.7,3.4-7.7,7.7s3.4,7.7,7.7,7.7h36.3
	C328.7,257.6,325.2,254.1,325.2,249.8z"/>
<path class="st8" d="M325.2,317.7c0-4.3,3.5-7.7,7.7-7.7h-36.3c-4.3,0-7.7,3.5-7.7,7.7s3.4,7.7,7.7,7.7h36.3
	C328.7,325.4,325.2,322,325.2,317.7z"/>
<path class="st9" d="M254.1,279.4l-37.8-37.8c-3.4-3.4-7.9-5.1-12.4-5.1h-73.9c-4.5,0-9,1.7-12.4,5.1l-37.8,37.8c-1,1-1,2.7,0,3.8
	l21.3,20.8c1,1,2.7,1,3.7,0l20.6-20.6c1.7-1.7,4.5-0.5,4.5,1.9v94.7c0,1.5,1.2,2.6,2.6,2.6h68.6c1.5,0,2.6-1.2,2.6-2.6v-94.7
	c0-2.4,2.9-3.5,4.5-1.9l20.6,20.6c1,1,2.7,1,3.7,0l21.3-20.8C255.2,282.1,255.2,280.4,254.1,279.4z"/>
<path class="st10" d="M167,262.4c14.3,0,26-11.6,26-26h-52C141.1,250.8,152.7,262.4,167,262.4z"/>
<path class="st11" d="M172,236.4c0,10.6-6.4,19.7-15.5,23.8c3.2,1.4,6.8,2.2,10.5,2.2c14.3,0,26-11.6,26-26H172z"/>
<path class="st12" d="M220.6,123v19.9c0,19.6,15.9,35.4,35.4,35.4s35.4-15.9,35.4-35.4V123H220.6z"/>
<path class="st13" d="M222.3,59.1l-1.8,63.9h70.9l-1.8-63.9H222.3z"/>
<path class="st14" d="M75.3,39.9c-5.7,0-10.3-4.7-10.3-10.3c0-6.6,6.1-11.3,12.3-10.1c4.8,1,8.3,5.2,8.3,10.1
	C85.6,35.2,81,39.9,75.3,39.9z"/>
<path class="st12" d="M112.5,39.9c-6.4,0-11.4-5.9-10.1-12.3c1.2-5.7,6.7-9.2,12.1-8.1c4.9,1,8.3,5.3,8.3,10.1
	C122.8,35.3,118.1,39.9,112.5,39.9z"/>
<path class="st5" d="M149.7,39.9c-5.7,0-10.3-4.6-10.3-10.3c0-6.6,6-11.3,12.3-10.1c5,1,8.3,5.3,8.3,10.1
	C160,35.2,155.3,39.9,149.7,39.9z"/>
<path class="st14" d="M361.3,123v19.9c0,19.6-15.9,35.4-35.4,35.4s-35.4-15.9-35.4-35.4V123H361.3z"/>
<path class="st15" d="M288.6,59.1l1.8,63.9h70.9l-3.5-63.9H288.6z"/>
<path class="st12" d="M431.1,123v19.9c0,19.6-15.9,35.4-35.4,35.4s-35.4-15.9-35.4-35.4V123H431.1z"/>
<path class="st13" d="M356.7,59.1l3.5,63.9h70.9l-6.5-63.9H356.7z"/>
<path class="st14" d="M501,123v19.9c0,19.6-15.9,35.4-35.4,35.4s-35.4-15.9-35.4-35.4V123H501z"/>
<path class="st15" d="M494,76.1c-1.1-9.7-9.3-17-19-17h-51.3l6.5,63.9H501L494,76.1z"/>
<path class="st14" d="M150.7,123v19.9c0,19.6,15.9,35.4,35.4,35.4s35.4-15.9,35.4-35.4V123H150.7z"/>
<path class="st15" d="M154.2,59.1l-3.5,63.9h70.9l1.8-63.9H154.2z"/>
<path class="st12" d="M80.9,123v19.9c0,19.6,15.9,35.4,35.4,35.4s35.4-15.9,35.4-35.4V123H80.9z"/>
<path class="st13" d="M87.3,59.1L80.9,123h70.9l3.5-63.9H87.3z"/>
<path class="st14" d="M11,123v19.9c0,19.6,15.9,35.4,35.4,35.4s35.4-15.9,35.4-35.4V123H11z"/>
<path class="st15" d="M18,76.1L11,123h70.9l6.5-63.9H37C27.3,59.1,19.1,66.4,18,76.1z"/>
<path class="st10" d="M103.2,256.1l-23.3,23.3c-1,1-1,2.7,0,3.8l21.3,20.8c1,1,2.7,1,3.7,0l19.5-19.5
	C108,287.9,95.3,270.6,103.2,256.1z"/>
<path class="st10" d="M150.1,376.1v-79.9c0-11.6-12.3-19.1-22.6-13.7l-0.1,0.1c1.4,0,2.7,1.1,2.7,2.6v94.7c0,1.5,1.2,2.6,2.6,2.6
	h19.5C149.8,380.3,150.1,376.1,150.1,376.1z"/>
</svg>
