<svg enable-background="new 0 0 512 512" viewBox="0 0 512 512" xmlns="http://www.w3.org/2000/svg"><path d="m115.2 467.5c39.8 28 88.4 44.5 140.8 44.5s101-16.5 140.8-44.5l83.8-102.5c13.1-30 20.4-63.1 20.4-98 0-135.3-109.7-245-245-245s-245 109.7-245 245c0 34.8 7.3 68 20.4 98z" fill="#535354"/><path d="m458 0h-404c-13.4 0-24.4 11-24.4 24.4v43h452.8v-43c0-13.4-11-24.4-24.4-24.4z" fill="#898989"/><path d="m112.8 0h-58.8c-13.4 0-24.4 11-24.4 24.4v43h58.7v-43c.1-13.4 11-24.4 24.5-24.4z" fill="#727272"/><path d="m482.4 173.2c-.5-1.2-1-2.3-1.5-3.5-4.6 2.2-9.8 3.5-15.3 3.5-17.5 0-32.1-12.7-34.9-29.4-2.8 16.7-17.4 29.4-34.9 29.4s-32.1-12.7-34.9-29.4c-2.8 16.7-17.4 29.4-34.9 29.4s-32.1-12.7-34.9-29.4c-2.8 16.7-17.4 29.4-34.9 29.4s-32.1-12.7-34.9-29.4c-2.8 16.7-17.4 29.4-34.9 29.4s-32.1-12.7-34.9-29.4c-2.8 16.7-17.4 29.4-34.9 29.4s-32.1-12.7-34.9-29.4c-2.8 16.7-17.4 29.4-34.9 29.4-5.5 0-10.7-1.3-15.3-3.5-.5 1.2-1 2.3-1.5 3.5v187.6c18.5 44.6 49.8 82.6 89.4 109.3h273.6c39.5-26.7 70.8-64.7 89.4-109.3z" fill="#eff9f8"/><path d="m88.4 159.6c-3.5-4.5-6-9.9-7-15.8-2.8 16.7-17.4 29.4-34.9 29.4-5.5 0-10.7-1.3-15.3-3.5-.5 1.2-1 2.3-1.5 3.5v187.6c13.3 32.4 33.5 61.2 58.7 84.9z" fill="#daeae8"/><path d="m387 367.6c0-8.2-6-14.9-13.4-14.9h-71.4c-7.4 0-13.4 6.7-13.4 14.9s6 14.9 13.4 14.9h71.4c7.4 0 13.4-6.7 13.4-14.9z" fill="#1fc9c9"/><path d="m326.9 367.8c0-8.1 6.2-14.7 13.9-14.7h-38c-7.7 0-13.9 6.6-13.9 14.7s6.2 14.7 13.9 14.7h38c-7.7 0-13.9-6.6-13.9-14.7z" fill="#00a0a3"/><g fill="#bcbcbc"><path d="m421.6 291.5h-125c-4.3 0-7.7-3.4-7.7-7.7s3.4-7.7 7.7-7.7h125c4.3 0 7.7 3.5 7.7 7.7s-3.5 7.7-7.7 7.7z"/><path d="m421.6 257.6h-125c-4.3 0-7.7-3.5-7.7-7.7s3.4-7.7 7.7-7.7h125c4.3 0 7.7 3.4 7.7 7.7s-3.5 7.7-7.7 7.7z"/><path d="m357.2 325.4h-60.6c-4.3 0-7.7-3.4-7.7-7.7s3.4-7.7 7.7-7.7h60.6c4.3 0 7.7 3.5 7.7 7.7s-3.5 7.7-7.7 7.7z"/></g><path d="m325.2 283.8c0-4.3 3.5-7.7 7.7-7.7h-36.3c-4.3 0-7.7 3.5-7.7 7.7s3.4 7.7 7.7 7.7h36.3c-4.2 0-7.7-3.5-7.7-7.7z" fill="#a5a5a5"/><path d="m325.2 249.8c0-4.3 3.5-7.7 7.7-7.7h-36.3c-4.3 0-7.7 3.4-7.7 7.7s3.4 7.7 7.7 7.7h36.3c-4.2.1-7.7-3.4-7.7-7.7z" fill="#a5a5a5"/><path d="m325.2 317.7c0-4.3 3.5-7.7 7.7-7.7h-36.3c-4.3 0-7.7 3.5-7.7 7.7s3.4 7.7 7.7 7.7h36.3c-4.2 0-7.7-3.4-7.7-7.7z" fill="#a5a5a5"/><path d="m254.1 279.4-37.8-37.8c-3.4-3.4-7.9-5.1-12.4-5.1h-73.9c-4.5 0-9 1.7-12.4 5.1l-37.8 37.8c-1 1-1 2.7 0 3.8l21.3 20.8c1 1 2.7 1 3.7 0l20.6-20.6c1.7-1.7 4.5-.5 4.5 1.9v94.7c0 1.5 1.2 2.6 2.6 2.6h68.6c1.5 0 2.6-1.2 2.6-2.6v-94.7c0-2.4 2.9-3.5 4.5-1.9l20.6 20.6c1 1 2.7 1 3.7 0l21.3-20.8c1.4-1.1 1.4-2.8.3-3.8z" fill="#89f7f4"/><path d="m167 262.4c14.3 0 26-11.6 26-26h-52c.1 14.4 11.7 26 26 26z" fill="#58e0d9"/><path d="m172 236.4c0 10.6-6.4 19.7-15.5 23.8 3.2 1.4 6.8 2.2 10.5 2.2 14.3 0 26-11.6 26-26z" fill="#6eeade"/><path d="m220.6 123v19.9c0 19.6 15.9 35.4 35.4 35.4s35.4-15.9 35.4-35.4v-19.9z" fill="#ffb81f"/><path d="m222.3 59.1-1.8 63.9h70.9l-1.8-63.9z" fill="#fcab08"/><path d="m75.3 39.9c-5.7 0-10.3-4.7-10.3-10.3 0-6.6 6.1-11.3 12.3-10.1 4.8 1 8.3 5.2 8.3 10.1 0 5.6-4.6 10.3-10.3 10.3z" fill="#ff8f1f"/><path d="m112.5 39.9c-6.4 0-11.4-5.9-10.1-12.3 1.2-5.7 6.7-9.2 12.1-8.1 4.9 1 8.3 5.3 8.3 10.1 0 5.7-4.7 10.3-10.3 10.3z" fill="#ffb81f"/><path d="m149.7 39.9c-5.7 0-10.3-4.6-10.3-10.3 0-6.6 6-11.3 12.3-10.1 5 1 8.3 5.3 8.3 10.1 0 5.6-4.7 10.3-10.3 10.3z" fill="#1fc9c9"/><path d="m361.3 123v19.9c0 19.6-15.9 35.4-35.4 35.4s-35.4-15.9-35.4-35.4v-19.9z" fill="#ff8f1f"/><path d="m288.6 59.1 1.8 63.9h70.9l-3.5-63.9z" fill="#f47e14"/><path d="m431.1 123v19.9c0 19.6-15.9 35.4-35.4 35.4s-35.4-15.9-35.4-35.4v-19.9z" fill="#ffb81f"/><path d="m356.7 59.1 3.5 63.9h70.9l-6.5-63.9z" fill="#fcab08"/><path d="m501 123v19.9c0 19.6-15.9 35.4-35.4 35.4s-35.4-15.9-35.4-35.4v-19.9z" fill="#ff8f1f"/><path d="m494 76.1c-1.1-9.7-9.3-17-19-17h-51.3l6.5 63.9h70.8z" fill="#f47e14"/><path d="m150.7 123v19.9c0 19.6 15.9 35.4 35.4 35.4s35.4-15.9 35.4-35.4v-19.9z" fill="#ff8f1f"/><path d="m154.2 59.1-3.5 63.9h70.9l1.8-63.9z" fill="#f47e14"/><path d="m80.9 123v19.9c0 19.6 15.9 35.4 35.4 35.4s35.4-15.9 35.4-35.4v-19.9z" fill="#ffb81f"/><path d="m87.3 59.1-6.4 63.9h70.9l3.5-63.9z" fill="#fcab08"/><path d="m11 123v19.9c0 19.6 15.9 35.4 35.4 35.4s35.4-15.9 35.4-35.4v-19.9z" fill="#ff8f1f"/><path d="m18 76.1-7 46.9h70.9l6.5-63.9h-51.4c-9.7 0-17.9 7.3-19 17z" fill="#f47e14"/><path d="m103.2 256.1-23.3 23.3c-1 1-1 2.7 0 3.8l21.3 20.8c1 1 2.7 1 3.7 0l19.5-19.5c-16.4 3.4-29.1-13.9-21.2-28.4z" fill="#58e0d9"/><path d="m150.1 376.1v-79.9c0-11.6-12.3-19.1-22.6-13.7l-.1.1c1.4 0 2.7 1.1 2.7 2.6v94.7c0 1.5 1.2 2.6 2.6 2.6h19.5c-2.4-2.2-2.1-6.4-2.1-6.4z" fill="#58e0d9"/></svg>