<svg enable-background="new 0 0 512 512" viewBox="0 0 512 512" xmlns="http://www.w3.org/2000/svg"><circle cx="256" cy="267" fill="#535354" r="245"/><path d="m259.3 99.9c-1.9-3.8-.3-8.4 3.4-10.3l26.3-13.1c.2-.1.3-.2.5-.2 11.3-4.7 23.8-3.7 34.2 2.6 3.6 2.2 4.8 6.9 2.6 10.5s-6.9 4.8-10.5 2.6c-6.2-3.7-13.5-4.3-20.1-1.7l-26 13c-3.9 1.9-8.5.4-10.4-3.4z" fill="#fcab08"/><ellipse cx="223.2" cy="355" fill="#00a0a3" rx="164.8" ry="35.6"/><path d="m233.6 319.4.2 2s85.4 38.3 40.1 67.4c66.3-4.6 114.2-18 114.2-33.9 0-18.9-68.3-34.3-154.5-35.5z" fill="#1fc9c9"/><path d="m494.3 190.2-256.8-121.4c-9-4.3-19.4-4.3-28.5 0l-164.8 77.9c-16.7 27.8-27.7 59.4-31.6 93.1l47.7 22.5v-26.9c0-16.3 65.5-33.8 163-33.8s163 17.5 163 33.8v26.9l108.1-51.1c8.8-4.2 8.8-16.8-.1-21z" fill="#1fc9c9"/><path d="m283.4 90.5-45.9-21.7c-9-4.3-19.4-4.3-28.5 0l-166.1 77.3c-16.7 27.8-26.4 60-30.3 93.7l47.7 22.5v-26.9c0-16.3 65.5-33.8 163-33.8h5.8c1.1-3.2 0-7-3.2-9.1-76-49.6 57.5-102 57.5-102z" fill="#00a0a3"/><path d="m223.2 199.8c-91 0-164.8 15.9-164.8 35.6v85.6c0-19.7 73.8-35.6 164.8-35.6s164.8 15.9 164.8 35.6v-85.6c.1-19.6-73.7-35.6-164.8-35.6z" fill="#6cefe8"/><path d="m223.2 199.8c-91 0-164.8 15.9-164.8 35.6v85.6c0-18.9 67.9-34.3 153.7-35.5 0-10.7 0-37.5 0-55.9 0-12 7-19.4 13.8-23.9 2.2-1.4 3.3-3.6 3.5-5.9-2 0-4.1 0-6.2 0z" fill="#4ad8cd"/><path d="m223.2 283c-91 0-164.8 15.9-164.8 35.6v36.4h.3c4.9-18.7 76.7-33.6 164.6-33.6s159.7 14.9 164.6 33.6h.3v-36.3c-.1-19.8-73.9-35.7-165-35.7z" fill="#ffc943"/><path d="m233.7 321.5c-1.1-1.2-2.4-2.3-4-3-18.5-8.4-17.6-28.3-17.6-28.3s0-2.7 0-7.1c-85.9 1.2-153.7 16.7-153.7 35.5v36.4h.3c4.9-18.7 76.7-33.6 164.6-33.6 3.5 0 7 0 10.4.1z" fill="#ffb332"/><path d="m396.9 297.9c-47.4-54.9-64.4-142.2-70.4-189.4-.9-6.9-4.8-12.9-10.7-16.5-3.6-2.2-4.8-6.9-2.6-10.5s6.9-4.8 10.5-2.6c10 6 16.5 16.2 18 27.7 5.7 45.5 22 129.5 66.8 181.3 2.8 3.2 2.4 8.1-.8 10.8-3.2 2.8-8 2.4-10.8-.8z" fill="#ffbf40"/><path d="m472.8 322.1c-21.2-2.9-34.5-9.7-42.2-15.2-1.4 7.2-6.9 12.9-14.1 14.5 14.4 13.9 21.4 29.7 24.5 39.1 1.5 4.5 6.6 6.7 10.9 4.6 17.2-8.6 24.3-23.3 27.3-32.8 1.4-4.7-1.6-9.5-6.4-10.2z" fill="#f9e6bd"/><path d="m458.7 319.3c-13.2-3.4-22.2-8.3-28.1-12.5-1.4 7.2-6.9 12.9-14.1 14.5 9.5 9.1 15.7 19.1 19.8 27.5-2.7-24.5 22.4-29.5 22.4-29.5z" fill="#ffc943"/><path d="m38.6 284.1c-8.6-5-18.3-6.1-27.2-4 1.7 31.2 9.5 60.7 22.2 87.5l202.5 116.9c.4.3.9.5 1.3.7-17.1-10.6-22.8-32.9-12.7-50.5 10.1-17.5 32.3-23.8 50-14.2-.4-.3-.8-.5-1.3-.8z" fill="#f9ebb2"/><path d="m224.7 434.7c2-3.5 4.6-6.6 7.4-9.1-15.4 7.9-27.2.2-27.2.2s-121.5-68.4-155-87.9c-26.4-15.4-21.3-45-17.9-56.9-6.8-2.3-13.9-2.6-20.6-1 1.7 31.2 8.5 60.9 21.2 87.6l203.5 116.7c.4.3.9.5 1.3.7-17.1-10.4-22.8-32.7-12.7-50.3z" fill="#f7d68d"/><path d="m273.8 419.9c-17.8-10-40.5-3.9-50.7 13.9-10.3 17.8-4.3 40.4 13.3 50.9 17.8 10 40.5 3.9 50.7-13.9 10.3-17.8 4.3-40.5-13.3-50.9z" fill="#ffc943"/><path d="m273.8 419.9c-5.4-3-11.2-4.6-17.1-4.8 10.5 11.7 12.9 29.3 4.6 43.7-7.1 12.4-20.3 19.1-33.7 18.7 2.5 2.8 5.4 5.2 8.8 7.2 17.8 10 40.5 3.9 50.7-13.9 10.3-17.8 4.3-40.5-13.3-50.9z" fill="#ffb332"/><ellipse cx="413.9" cy="305" fill="#ffb332" rx="18.3" ry="18.3"/><ellipse cx="417.2" cy="300.6" fill="#ffdd40" rx="7.1" ry="7.1"/><path d="m164.5 354c-5.9 5.8-21 12-27.8 14.9.1.6.8 2.1-.2 3.8l-3.5 6.1c14 3.6 31.5 6.6 49.3 6.2 5.5-.1 8.6-6.3 5.6-10.9-3.2-4.8-5.5-11.2-2.9-18.4 1-2.9-1.6-5.8-4.5-5-4.3 1.1-9.8 2.3-16 3.3z" fill="#ff8f1f"/><path d="m156 361.4-.6-1.2c-6.6 3.6-14.4 6.8-18.7 8.6.1.6.8 2.1-.2 3.8l-3.5 6.1c8 2 17.1 3.9 26.8 5-11.5-10.4-3.8-22.3-3.8-22.3z" fill="#ff6f03"/><path d="m127.3 388.5c-1 1.7-2.7 1.8-3.2 2.1.8 7 2.9 23.5.7 31.5 2.2 5.9 3.8 11.2 4.9 15.5.8 3 4.5 3.8 6.6 1.5 5-5.8 11.7-6.9 17.5-6.5 5.5.4 9.3-5.3 6.7-10.2-8.3-15.7-19.6-29.5-29.6-39.9z" fill="#ff8f1f"/><path d="m148.5 403.3c-5.8-7.9-11.9-14.9-17.6-20.9l-3.5 6.1c-1 1.7-2.7 1.8-3.2 2.1.6 4.9 1.8 14.5 1.7 22.5.5-.6 1-1.3 1.4-2.1 5.2-11.9 21.1-7.7 21.2-7.7z" fill="#ff6f03"/><path d="m121.2 313.6c-15.8 11-7.8 39.4-5.8 45.7 1.7-1.8 4.7-1.9 6.4.1 2.6 3.2 6.1 5.5 10 6.7 3.5-11.5 12.8-34.8 31.2-37.1h.2c-1.3-.6-2.7-1.2-4.4-1.6-15.8-3.8-19.8-26.2-37.6-13.8z" fill="#ff8f1f"/><path d="m108.5 382c-2.6-.4-4-3.1-3.2-5.5-6.5 1.3-35.1 8.4-36.9 27.5-2.1 21.6 19.4 14.1 30.5 26 1.1 1.2 2.3 2.2 3.5 3 0-.1-.1-.1-.1-.2-7-17.2 8.7-36.7 17-45.4-3.1-2.8-6.9-4.7-10.8-5.4z" fill="#ff8f1f"/><g fill="#ff6f03"><path d="m108.5 382c-2.6-.4-4-3.1-3.2-5.5-3.6.8-14.3 3.3-23.2 8.8.4 1 1.3 1.8 2.5 1.9 5.2.8 14.5 3.9 18.7 15.4.5 1.2 1.6 2 2.9 2.1 4-7.2 9.3-13.4 13.1-17.3-3.1-2.8-6.9-4.7-10.8-5.4z"/><path d="m137.2 344.6c-12.2 2-19.4-4.6-22.7-8.7-.7-.9-1.8-1.3-2.9-1.2-.4 10.5 2.6 21 3.7 24.6 1.7-1.8 4.7-1.9 6.4.1 2.6 3.2 6.1 5.5 10 6.7 1.6-5.2 4.4-12.9 8.7-19.9-.7-1.1-1.9-1.8-3.2-1.6z"/><path d="m161.9 328.4c-18.6 2.3-27.8 25.9-31.3 37.3 1.1.4 2.3.7 3.5.9 1.8.3 3.1 1.7 3.4 3.4 6.8-2.7 22.3-9.3 28.1-15.1 6.9-7.1 8.8-21.5-3.7-26.5z"/><path d="m120.8 389.3c-.8-.9-1.6-1.8-2.5-2.6-8.3 8.6-24.2 28.3-17.1 45.6 10.5 8.4 22.2-.3 24.9-9.8 2.2-7.9.4-24.7-.6-31.9-1.6.5-3.5.1-4.7-1.3z"/></g><path d="m120.8 389.3c-.8-.9-1.6-1.8-2.5-2.6-3.8 4-9.3 10.4-13.4 17.8.7.3 1.4.4 2.2.2 4-1 11.3-1.6 18.1 5.2.5.5 1.2.9 2 1-.1-7.5-1.1-15.8-1.7-20.4-1.6.6-3.5.2-4.7-1.2z" fill="#e25d03"/><path d="m139.6 345.2c-4.5 7.2-7.3 15.2-8.9 20.5 1.1.4 2.3.7 3.5.9 1.8.3 3.1 1.7 3.4 3.4 4.3-1.7 12-4.9 18.6-8.6-.4-.6-1.1-1-1.8-1.3-9.2-2.5-12.3-9.2-13.4-13.2-.4-.6-.9-1.2-1.4-1.7z" fill="#e25d03"/><path d="m127.7 363.3c-2.1-1.2-3.9-2.8-5.3-4.5-2.2-2.8-6.6-2.3-8.4.7l-9.2 15.8c-1.8 3.1 0 7 3.5 7.6 2.2.4 4.5 1.2 6.5 2.4 2.1 1.2 3.9 2.8 5.3 4.5 2.2 2.8 6.6 2.3 8.4-.7l9.2-15.8c1.8-3.1 0-7-3.5-7.6-2.2-.4-4.4-1.1-6.5-2.4z" fill="#fcb065"/><path d="m127.4 377.5c-1.4-1.8-3.2-3.3-5.3-4.5s-4.3-2-6.5-2.4c-3.5-.6-5.3-4.6-3.5-7.6l-7.2 12.3c-1.8 3.1 0 7 3.5 7.6 2.2.4 4.5 1.2 6.5 2.4 2.1 1.2 3.9 2.8 5.3 4.5 2.2 2.8 6.6 2.3 8.4-.7l7.2-12.3c-1.9 3-6.2 3.4-8.4.7z" fill="#ff8f1f"/></svg>