<?xml version="1.0" encoding="utf-8"?>
<!-- Generator: Adobe Illustrator 24.2.3, SVG Export Plug-In . SVG Version: 6.00 Build 0)  -->
<svg version="1.1" id="Layer_1" xmlns="http://www.w3.org/2000/svg" xmlns:xlink="http://www.w3.org/1999/xlink" x="0px" y="0px"
	 viewBox="0 0 512 512" style="enable-background:new 0 0 512 512;" xml:space="preserve">
<style type="text/css">
	.st0{fill:#535354;}
	.st1{fill:#FCAB08;}
	.st2{fill:#00A0A3;}
	.st3{fill:#1FC9C9;}
	.st4{fill:#6CEFE8;}
	.st5{fill:#4AD8CD;}
	.st6{fill:#FFC943;}
	.st7{fill:#FFB332;}
	.st8{fill:#FFBF40;}
	.st9{fill:#F9E6BD;}
	.st10{fill:#F9EBB2;}
	.st11{fill:#F7D68D;}
	.st12{fill:#FFDD40;}
	.st13{fill:#FF8F1F;}
	.st14{fill:#FF6F03;}
	.st15{fill:#E25D03;}
	.st16{fill:#FCB065;}
</style>
<circle class="st0" cx="256" cy="267" r="245"/>
<g>
	<path class="st1" d="M259.3,99.9c-1.9-3.8-0.3-8.4,3.4-10.3l26.3-13.1c0.2-0.1,0.3-0.2,0.5-0.2c11.3-4.7,23.8-3.7,34.2,2.6
		c3.6,2.2,4.8,6.9,2.6,10.5c-2.2,3.6-6.9,4.8-10.5,2.6c-6.2-3.7-13.5-4.3-20.1-1.7l-26,13C265.8,105.2,261.2,103.7,259.3,99.9z"/>
</g>
<ellipse class="st2" cx="223.2" cy="355" rx="164.8" ry="35.6"/>
<path class="st3" d="M233.6,319.4l0.2,2c0,0,85.4,38.3,40.1,67.4c66.3-4.6,114.2-18,114.2-33.9C388.1,336,319.8,320.6,233.6,319.4
	L233.6,319.4z"/>
<path class="st3" d="M494.3,190.2L237.5,68.8c-9-4.3-19.4-4.3-28.5,0L44.2,146.7c-16.7,27.8-27.7,59.4-31.6,93.1l47.7,22.5v-26.9
	c0-16.3,65.5-33.8,163-33.8s163,17.5,163,33.8v26.9l108.1-51.1C503.2,207,503.2,194.4,494.3,190.2L494.3,190.2z"/>
<path class="st2" d="M283.4,90.5l-45.9-21.7c-9-4.3-19.4-4.3-28.5,0L42.9,146.1c-16.7,27.8-26.4,60-30.3,93.7l47.7,22.5v-26.9
	c0-16.3,65.5-33.8,163-33.8c2,0,3.9,0,5.8,0c1.1-3.2,0-7-3.2-9.1C149.9,142.9,283.4,90.5,283.4,90.5z"/>
<path class="st4" d="M223.2,199.8c-91,0-164.8,15.9-164.8,35.6V321c0-19.7,73.8-35.6,164.8-35.6c91,0,164.8,15.9,164.8,35.6v-85.6
	C388.1,215.8,314.3,199.8,223.2,199.8z"/>
<path class="st5" d="M223.2,199.8c-91,0-164.8,15.9-164.8,35.6V321c0-18.9,67.9-34.3,153.7-35.5c0-10.7,0-37.5,0-55.9
	c0-12,7-19.4,13.8-23.9c2.2-1.4,3.3-3.6,3.5-5.9C227.4,199.8,225.3,199.8,223.2,199.8L223.2,199.8z"/>
<path class="st6" d="M223.2,283c-91,0-164.8,15.9-164.8,35.6V355h0.3c4.9-18.7,76.7-33.6,164.6-33.6s159.7,14.9,164.6,33.6h0.3
	v-36.3C388.1,298.9,314.3,283,223.2,283L223.2,283z"/>
<path class="st7" d="M233.7,321.5c-1.1-1.2-2.4-2.3-4-3c-18.5-8.4-17.6-28.3-17.6-28.3s0-2.7,0-7.1c-85.9,1.2-153.7,16.7-153.7,35.5
	V355h0.3c4.9-18.7,76.7-33.6,164.6-33.6C226.8,321.4,230.3,321.4,233.7,321.5L233.7,321.5z"/>
<g>
	<path class="st8" d="M396.9,297.9c-47.4-54.9-64.4-142.2-70.4-189.4c-0.9-6.9-4.8-12.9-10.7-16.5c-3.6-2.2-4.8-6.9-2.6-10.5
		c2.2-3.6,6.9-4.8,10.5-2.6c10,6,16.5,16.2,18,27.7c5.7,45.5,22,129.5,66.8,181.3c2.8,3.2,2.4,8.1-0.8,10.8
		C404.5,301.5,399.7,301.1,396.9,297.9z"/>
</g>
<path class="st9" d="M472.8,322.1c-21.2-2.9-34.5-9.7-42.2-15.2c-1.4,7.2-6.9,12.9-14.1,14.5c14.4,13.9,21.4,29.7,24.5,39.1
	c1.5,4.5,6.6,6.7,10.9,4.6c17.2-8.6,24.3-23.3,27.3-32.8C480.6,327.6,477.6,322.8,472.8,322.1L472.8,322.1z"/>
<path class="st6" d="M458.7,319.3L458.7,319.3c-13.2-3.4-22.2-8.3-28.1-12.5c-1.4,7.2-6.9,12.9-14.1,14.5
	c9.5,9.1,15.7,19.1,19.8,27.5c0,0,0,0,0,0C433.6,324.3,458.7,319.3,458.7,319.3L458.7,319.3z"/>
<path class="st10" d="M38.6,284.1c-8.6-5-18.3-6.1-27.2-4c1.7,31.2,9.5,60.7,22.2,87.5l202.5,116.9c0.4,0.3,0.9,0.5,1.3,0.7
	c-17.1-10.6-22.8-32.9-12.7-50.5c10.1-17.5,32.3-23.8,50-14.2c-0.4-0.3-0.8-0.5-1.3-0.8L38.6,284.1z"/>
<path class="st11" d="M224.7,434.7c2-3.5,4.6-6.6,7.4-9.1c-15.4,7.9-27.2,0.2-27.2,0.2s-121.5-68.4-155-87.9
	c-26.4-15.4-21.3-45-17.9-56.9c-6.8-2.3-13.9-2.6-20.6-1c1.7,31.2,8.5,60.9,21.2,87.6l203.5,116.7c0.4,0.3,0.9,0.5,1.3,0.7
	C220.3,474.6,214.6,452.3,224.7,434.7L224.7,434.7z"/>
<path class="st6" d="M273.8,419.9c-17.8-10-40.5-3.9-50.7,13.9c-10.3,17.8-4.3,40.4,13.3,50.9c17.8,10,40.5,3.9,50.7-13.9
	C297.4,453,291.4,430.3,273.8,419.9L273.8,419.9z"/>
<path class="st7" d="M273.8,419.9c-5.4-3-11.2-4.6-17.1-4.8c10.5,11.7,12.9,29.3,4.6,43.7c-7.1,12.4-20.3,19.1-33.7,18.7
	c2.5,2.8,5.4,5.2,8.8,7.2c17.8,10,40.5,3.9,50.7-13.9C297.4,453,291.4,430.3,273.8,419.9L273.8,419.9z"/>
<ellipse class="st7" cx="413.9" cy="305" rx="18.3" ry="18.3"/>
<ellipse class="st12" cx="417.2" cy="300.6" rx="7.1" ry="7.1"/>
<g>
	<path class="st13" d="M164.5,354c-5.9,5.8-21,12-27.8,14.9c0.1,0.6,0.8,2.1-0.2,3.8l-3.5,6.1c14,3.6,31.5,6.6,49.3,6.2
		c5.5-0.1,8.6-6.3,5.6-10.9c-3.2-4.8-5.5-11.2-2.9-18.4c1-2.9-1.6-5.8-4.5-5C176.2,351.8,170.7,353,164.5,354L164.5,354z"/>
	<path class="st14" d="M156,361.4l-0.6-1.2c-6.6,3.6-14.4,6.8-18.7,8.6c0.1,0.6,0.8,2.1-0.2,3.8l-3.5,6.1c8,2,17.1,3.9,26.8,5
		C148.3,373.3,156,361.4,156,361.4L156,361.4z"/>
</g>
<g>
	<path class="st13" d="M127.3,388.5c-1,1.7-2.7,1.8-3.2,2.1c0.8,7,2.9,23.5,0.7,31.5c2.2,5.9,3.8,11.2,4.9,15.5
		c0.8,3,4.5,3.8,6.6,1.5c5-5.8,11.7-6.9,17.5-6.5c5.5,0.4,9.3-5.3,6.7-10.2c-8.3-15.7-19.6-29.5-29.6-39.9L127.3,388.5z"/>
	<path class="st14" d="M148.5,403.3c-5.8-7.9-11.9-14.9-17.6-20.9l-3.5,6.1c-1,1.7-2.7,1.8-3.2,2.1c0.6,4.9,1.8,14.5,1.7,22.5
		c0.5-0.6,1-1.3,1.4-2.1C132.5,399.1,148.4,403.3,148.5,403.3z"/>
</g>
<path class="st13" d="M121.2,313.6c-15.8,11-7.8,39.4-5.8,45.7c1.7-1.8,4.7-1.9,6.4,0.1c2.6,3.2,6.1,5.5,10,6.7
	c3.5-11.5,12.8-34.8,31.2-37.1c0.1,0,0.2,0,0.2,0c-1.3-0.6-2.7-1.2-4.4-1.6C143,323.6,139,301.2,121.2,313.6z"/>
<path class="st13" d="M108.5,382c-2.6-0.4-4-3.1-3.2-5.5c-6.5,1.3-35.1,8.4-36.9,27.5c-2.1,21.6,19.4,14.1,30.5,26
	c1.1,1.2,2.3,2.2,3.5,3c0-0.1-0.1-0.1-0.1-0.2c-7-17.2,8.7-36.7,17-45.4C116.2,384.6,112.4,382.7,108.5,382z"/>
<g>
	<path class="st14" d="M108.5,382c-2.6-0.4-4-3.1-3.2-5.5c-3.6,0.8-14.3,3.3-23.2,8.8c0.4,1,1.3,1.8,2.5,1.9
		c5.2,0.8,14.5,3.9,18.7,15.4c0.5,1.2,1.6,2,2.9,2.1c4-7.2,9.3-13.4,13.1-17.3C116.2,384.6,112.4,382.7,108.5,382z"/>
	<path class="st14" d="M137.2,344.6c-12.2,2-19.4-4.6-22.7-8.7c-0.7-0.9-1.8-1.3-2.9-1.2c-0.4,10.5,2.6,21,3.7,24.6
		c1.7-1.8,4.7-1.9,6.4,0.1c2.6,3.2,6.1,5.5,10,6.7c1.6-5.2,4.4-12.9,8.7-19.9C139.7,345.1,138.5,344.4,137.2,344.6z"/>
	<path class="st14" d="M161.9,328.4c-18.6,2.3-27.8,25.9-31.3,37.3c1.1,0.4,2.3,0.7,3.5,0.9c1.8,0.3,3.1,1.7,3.4,3.4
		c6.8-2.7,22.3-9.3,28.1-15.1C172.5,347.8,174.4,333.4,161.9,328.4L161.9,328.4z"/>
	<path class="st14" d="M120.8,389.3c-0.8-0.9-1.6-1.8-2.5-2.6c-8.3,8.6-24.2,28.3-17.1,45.6c10.5,8.4,22.2-0.3,24.9-9.8
		c2.2-7.9,0.4-24.7-0.6-31.9C123.9,391.1,122,390.7,120.8,389.3z"/>
</g>
<path class="st15" d="M120.8,389.3c-0.8-0.9-1.6-1.8-2.5-2.6c-3.8,4-9.3,10.4-13.4,17.8c0.7,0.3,1.4,0.4,2.2,0.2
	c4-1,11.3-1.6,18.1,5.2c0.5,0.5,1.2,0.9,2,1c-0.1-7.5-1.1-15.8-1.7-20.4C123.9,391.1,122,390.7,120.8,389.3L120.8,389.3z"/>
<path class="st15" d="M139.6,345.2c-4.5,7.2-7.3,15.2-8.9,20.5c1.1,0.4,2.3,0.7,3.5,0.9c1.8,0.3,3.1,1.7,3.4,3.4
	c4.3-1.7,12-4.9,18.6-8.6c-0.4-0.6-1.1-1-1.8-1.3c-9.2-2.5-12.3-9.2-13.4-13.2C140.6,346.3,140.1,345.7,139.6,345.2L139.6,345.2z"/>
<path class="st16" d="M127.7,363.3c-2.1-1.2-3.9-2.8-5.3-4.5c-2.2-2.8-6.6-2.3-8.4,0.7l-9.2,15.8c-1.8,3.1,0,7,3.5,7.6
	c2.2,0.4,4.5,1.2,6.5,2.4c2.1,1.2,3.9,2.8,5.3,4.5c2.2,2.8,6.6,2.3,8.4-0.7l9.2-15.8c1.8-3.1,0-7-3.5-7.6
	C132,365.3,129.8,364.6,127.7,363.3z"/>
<path class="st13" d="M127.4,377.5c-1.4-1.8-3.2-3.3-5.3-4.5c-2.1-1.2-4.3-2-6.5-2.4c-3.5-0.6-5.3-4.6-3.5-7.6l-7.2,12.3
	c-1.8,3.1,0,7,3.5,7.6c2.2,0.4,4.5,1.2,6.5,2.4c2.1,1.2,3.9,2.8,5.3,4.5c2.2,2.8,6.6,2.3,8.4-0.7l7.2-12.3
	C133.9,379.8,129.6,380.2,127.4,377.5z"/>
</svg>
