<svg enable-background="new 0 0 512 512" viewBox="0 0 512 512" xmlns="http://www.w3.org/2000/svg"><circle cx="256" cy="266.5" fill="#535354" r="245"/><path d="m256.3 48.6 103.7 103.7c3.8 3.8 3.8 10 0 13.9l-160.6 160.5c-3.8 3.8-10 3.8-13.9 0l-103.7-103.7c-3.8-3.8-3.8-10 0-13.9l160.6-160.5c3.8-3.8 10.1-3.8 13.9 0z" fill="#58e0d9"/><path d="m277.1 69.3 83 83c3.8 3.8 3.8 10 0 13.9l-160.7 160.5c-3.8 3.8-10 3.8-13.9 0l-83-83c-3.8-3.8-3.8-10 0-13.9l160.7-160.5c3.8-3.8 10-3.8 13.9 0z" fill="#89f7f4"/><path d="m236.6 169.6c24.1 24.1 24.1 63.4 0 87.5s-63.4 24.1-87.5 0-24.1-63.4 0-87.5 63.3-24.2 87.5 0zm47.3-65.7-27.7-27.7c-3.8-3.8-10-3.8-13.9 0l-27.7 27.7c-3.8 3.8-3.8 10 0 13.9 19.1 19.1 50.1 19.1 69.2 0 4-3.9 4-10.1.1-13.9z" fill="#1fc9c9"/><path d="m363.9 24.4 103.7 103.7c3.8 3.8 3.8 10 0 13.9l-214.4 214.4c-3.8 3.8-10 3.8-13.9 0l-103.7-103.8c-3.8-3.8-3.8-10 0-13.9l214.4-214.3c3.8-3.9 10-3.9 13.9 0z" fill="#58e0d9"/><path d="m384.6 45.1 83 83c3.8 3.8 3.8 10 0 13.9l-214.4 214.4c-3.8 3.8-10 3.8-13.9 0l-83-83c-3.8-3.8-3.8-10 0-13.9l214.4-214.4c3.9-3.8 10.1-3.8 13.9 0z" fill="#89f7f4"/><path d="m322.3 93.6c-3.8-3.8-3.8-10 0-13.9l27.7-27.7c3.8-3.8 10-3.8 13.9 0l27.7 27.7c3.8 3.8 3.8 10 0 13.9-19.2 19-50.1 19-69.3 0zm117.6 34.5-27.7-27.7c-3.8-3.8-10-3.8-13.9 0-19.1 19.1-19.1 50.1 0 69.2 3.8 3.8 10 3.8 13.9 0l27.7-27.7c3.9-3.8 3.9-10 0-13.8zm-183.2 17.3c-24.1 24.1-24.1 63.4 0 87.5s63.4 24.1 87.5 0 24.1-63.4 0-87.5c-24.2-24.2-63.4-24.2-87.5 0z" fill="#1fc9c9"/><path d="m256 511.5c-80.5 0-151.7-36-195.1-96.9v-206.3c0-16.2 13.1-29.4 29.4-29.4h322.7c16.2 0 29.4 13.1 29.4 29.4v217.2c-44 54.3-111.2 86-186.4 86z" fill="#ffa522"/><path d="m89.3 345.3v-137c0-16.2 13.1-29.4 29.4-29.4h294.3c16.2 0 29.4 13.1 29.4 29.4v214.3c-19.6 24.2-43.8 44.5-71.4 59.6h-145c-31.9 0-62.8-11.1-87.3-31.5-31.3-26-49.4-64.7-49.4-105.4z" fill="#ffb81f"/><path d="m436.5 384.3h-127.2c-8.1 0-14.6-6.6-14.6-14.6v-48.9c0-8.1 6.6-14.6 14.6-14.6h127.2c8.1 0 14.6 6.6 14.6 14.6v48.9c0 8.1-6.6 14.6-14.6 14.6z" fill="#f47e14"/><path d="m436.5 345.3h-97.8c-8.1 0-14.6-6.6-14.6-14.6v-9.8c0-8.1 6.6-14.6 14.6-14.6h97.8c8.1 0 14.6 6.6 14.6 14.6v9.8c0 8-6.6 14.6-14.6 14.6z" fill="#ff8f1f"/><path d="m338.7 369.7c-13.5 0-24.4-10.9-24.4-24.4 0-13.5 10.9-24.4 24.4-24.4 13.5 0 24.4 10.9 24.4 24.4 0 13.5-10.9 24.4-24.4 24.4z" fill="#f9c45a"/></svg>