<svg enable-background="new 0 0 512 512" viewBox="0 0 512 512" xmlns="http://www.w3.org/2000/svg"><path d="m0 485.3h160c96-33.2 165-124.3 165-231.6 0-135.3-109.7-245-245-245s-245 109.7-245 245c0 107.2 69 198.4 165 231.6" fill="#535354" transform="translate(175.9995 13.373)"/><path d="m0 308h-160v88.6c25.1 8.7 52 13.4 80 13.4s54.9-4.7 80-13.4z" fill="#a5a5a5" transform="translate(336 102)"/><path d="m0 485.3c19 6.6 39.2 10.9 60 12.6v-101.3h-60z" fill="#898989" transform="translate(176 13.373)"/><path d="m0 328h-240c-16.6 0-30-13.4-30-30v-40h300v40c0 16.6-13.4 30-30 30" fill="#bcbcbc" transform="translate(376 92)"/><path d="m0 268v-40h-85v40c0 16.6 13.4 30 30 30h85c-16.6 0-30-13.4-30-30" fill="#939393" transform="translate(191 122)"/><path d="m0-512h-300c-22.1 0-40 17.9-40 40v280c0 22.1 17.9 40 40 40h300c22.1 0 40-17.9 40-40v-280c0-22.1-17.9-40-40-40" fill="#d1d3d3" transform="translate(406 512)"/><path d="m0 128v-280c0-22.1 17.9-40 40-40h-85c-22.1 0-40 17.9-40 40v280c0 22.1 17.9 40 40 40h85c-22.1 0-40-17.9-40-40" fill="#a5a5a5" transform="translate(151 192)"/><path d="m0-452h-300c-5.5 0-10 4.5-10 10v163.2l5.4 6.8-5.4 8.2v51.8c0 5.5 4.5 10 10 10h300c5.5 0 10-4.5 10-10v-230c0-5.5-4.5-10-10-10" fill="#0dbcb7" transform="translate(406 482)"/><path d="m0-452c-5.5 0-10 4.5-10 10v163.2l5.4 6.8-5.4 8.2v51.8c0 5.5 4.5 10 10 10h68.1v-250z" fill="#00a0a3" transform="translate(106 482)"/><path d="m0-105.6h-24.6l-11.9-35.6c-1-3.1-3.9-5.1-7.1-5.1h-.1c-3.3.1-6.1 2.2-7.1 5.4l-16.9 57.5-5.9-17.1c-1-3-3.9-5-7.1-5h-24.4l-11.9-35.6c-1-3.1-3.9-5.2-7.2-5.1s-6.1 2.2-7.1 5.4l-16.9 57.5-5.9-17.1c-1-3-3.9-5-7.1-5h-30v15h24.7l11.9 34.2c1.1 3.1 4 5.1 7.3 5s6.1-2.3 7-5.4l16.8-57.1 6 18.1c1 3.1 3.9 5.1 7.1 5.1h24.5l11.9 34.2c1 3 3.9 5 7.1 5h.2c3.3-.1 6.1-2.3 7-5.4l16.8-57.1 6 18.1c1 3.1 3.9 5.1 7.1 5.1h29.8c4.1 0 7.5-3.4 7.5-7.5s-3.4-7.5-7.5-7.5" fill="#89f7f4" transform="translate(287.2607 308.7871)"/><path d="m0-388.6c-13.7-6.1-24.8 6.3-24.8 6.3s-11.1-12.4-24.8-6.3-13.7 26.3-1.5 39.8c8.4 9.3 17.8 15 22.8 17.6 2.2 1.2 4.9 1.2 7.1 0 5-2.6 14.3-8.3 22.8-17.6 12.1-13.5 12.1-33.7-1.6-39.8" fill="#ff8f1f" transform="translate(377.4512 450.3174)"/><path d="m0-376s-11.1-12.4-24.8-6.3-13.7 26.3-1.5 39.8c8.4 9.3 17.8 15 22.8 17.6 2.2 1.2 4.9 1.2 7.1 0-7.4-10.6-16.6-40.2-3.6-51.1" fill="#f47e14" transform="translate(352.6562 444.0098)"/><g fill="#ffbf40"><path d="m60-82h-60c-5.5 0-10-4.5-10-10s4.5-10 10-10h60c5.5 0 10 4.5 10 10s-4.5 10-10 10z" transform="translate(322.6562 302)"/><path d="m60-142h-60c-5.5 0-10-4.5-10-10s4.5-10 10-10h60c5.5 0 10 4.5 10 10s-4.5 10-10 10z" transform="translate(322.6562 332)"/><path d="m60-202h-60c-5.5 0-10-4.5-10-10s4.5-10 10-10h60c5.5 0 10 4.5 10 10s-4.5 10-10 10z" transform="translate(322.6562 362)"/><path d="m60-22h-60c-5.5 0-10-4.5-10-10s4.5-10 10-10h60c5.5 0 10 4.5 10 10s-4.5 10-10 10z" transform="translate(322.6562 272)"/></g><path d="m0-332c0 5.5-4.5 10-10 10s-10-4.5-10-10 4.5-10 10-10 10 4.5 10 10" fill="#fff" transform="translate(144.0732 422)"/><path d="m0-332c0 5.5-4.5 10-10 10s-10-4.5-10-10 4.5-10 10-10 10 4.5 10 10" fill="#fff" transform="translate(184.0732 422)"/><path d="m0-332c0 5.5-4.5 10-10 10s-10-4.5-10-10 4.5-10 10-10 10 4.5 10 10" fill="#fff" transform="translate(224.0732 422)"/><path d="m0 120c0 8.3-6.7 15-15 15s-15-6.7-15-15 6.7-15 15-15 15 6.7 15 15" fill="#f47e14" transform="translate(136 196)"/><path d="m0 120c0-5.5 3-10.4 7.5-13-2.2-1.3-4.8-2-7.5-2-8.3 0-15 6.7-15 15s6.7 15 15 15c2.7 0 5.3-.7 7.5-2-4.5-2.6-7.5-7.5-7.5-13" fill="#d66407" transform="translate(121 196)"/><path d="m0 120c0 8.3-6.7 15-15 15s-15-6.7-15-15 6.7-15 15-15 15 6.7 15 15" fill="#ffdd40" transform="translate(196 196)"/><path d="m0 120c0 8.3-6.7 15-15 15s-15-6.7-15-15 6.7-15 15-15 15 6.7 15 15" fill="#89f7f4" transform="translate(256 196)"/><path d="m0 120c0 8.3-6.7 15-15 15s-15-6.7-15-15 6.7-15 15-15 15 6.7 15 15" fill="#a5a5a5" transform="translate(406 196)"/><path d="m0 120c0-5.5 3-10.4 7.5-13-2.2-1.3-4.8-2-7.5-2-8.3 0-15 6.7-15 15s6.7 15 15 15c2.7 0 5.3-.7 7.5-2-4.5-2.6-7.5-7.5-7.5-13" fill="#ffc839" transform="translate(181 196)"/><path d="m0 120c0-5.5 3-10.4 7.5-13-2.2-1.3-4.8-2-7.5-2-8.3 0-15 6.7-15 15s6.7 15 15 15c2.7 0 5.3-.7 7.5-2-4.5-2.6-7.5-7.5-7.5-13" fill="#58e0d9" transform="translate(241 196)"/><path d="m0 120c0-5.5 3-10.4 7.5-13-2.2-1.3-4.8-2-7.5-2-8.3 0-15 6.7-15 15s6.7 15 15 15c2.7 0 5.3-.7 7.5-2-4.5-2.6-7.5-7.5-7.5-13" fill="#898989" transform="translate(391 196)"/><path d="m0 268c0 8.3-6.7 15-15 15s-15-6.7-15-15 6.7-15 15-15 15 6.7 15 15" fill="#dfefee" transform="translate(376 122)"/><path d="m0 268c0-5.5 3-10.4 7.5-13-2.2-1.3-4.8-2-7.5-2-8.3 0-15 6.7-15 15s6.7 15 15 15c2.7 0 5.3-.7 7.5-2-4.5-2.6-7.5-7.5-7.5-13" fill="#b9d6d3" transform="translate(361 122)"/><path d="m0 288h-140c-5.5 0-10-4.5-10-10s4.5-10 10-10h140c5.5 0 10 4.5 10 10s-4.5 10-10 10" fill="#dfefee" transform="translate(286 112)"/><path d="m0 248h-45c-5.5 0-10 4.5-10 10s4.5 10 10 10h46.7c-1.1-3.1-1.7-6.5-1.7-10z" fill="#b9d6d3" transform="translate(191 132)"/></svg>