<svg enable-background="new 0 0 512 512" viewBox="0 0 512 512" xmlns="http://www.w3.org/2000/svg"><path d="m86 443.4h340c46.2-44.6 75-107.1 75-176.4s-28.8-131.8-75-176.4c-44.1-42.5-104-68.6-170-68.6s-125.9 26.1-170 68.6c-46.2 44.6-75 107.1-75 176.4s28.8 131.9 75 176.4z" fill="#535354"/><path d="m436 130.6h-30v-80h30c5.5 0 10 4.5 10 10v60c0 5.5-4.5 10-10 10z" fill="#a5a5a5"/><path d="m436 100.6h-30v30h30c5.5 0 10-4.5 10-10v-30c0 5.5-4.5 10-10 10z" fill="#898989"/><path d="m436 240.6h-30v-80h30c5.5 0 10 4.5 10 10v60c0 5.5-4.5 10-10 10z" fill="#a5a5a5"/><path d="m436 210.6h-30v30h30c5.5 0 10-4.5 10-10v-30c0 5.5-4.5 10-10 10z" fill="#898989"/><path d="m411 456.7c5.2-4.2 10.2-8.7 15-13.3v-403.4c0-22.1-17.9-40-40-40h-260c-22.1 0-40 17.9-40 40v403.4c4.8 4.6 9.8 9.1 15 13.3z" fill="#d1d3d3"/><path d="m189.9 456.7v-416.7c0-3.2.4-6.3 1.1-9.3 4.1-17.6 20-30.7 38.9-30.7h-103.9c-22.1 0-40 17.9-40 40v403.4c4.8 4.6 9.8 9.1 15 13.3z" fill="#a5a5a5"/><path d="m411 40v416.7c-42.2 34.5-96.2 55.3-155 55.3s-112.8-20.7-155-55.3v-416.7c0-13.8 11.2-25 25-25h23.8c9.9 0 18.8 5.8 22.9 14.9l2.6 5.8 4.2 9.5c4 9 13 14.8 22.9 14.8h107.5c9.9 0 18.8-5.8 22.9-14.8l4.2-9.5 2.6-5.8c4-9 13-14.9 22.9-14.9h23.5c13.8 0 25 11.2 25 25z" fill="#0dbcb7"/><path d="m189.9 56.7v446.3c-32.9-9.2-63.1-25.1-88.9-46.2v-416.8c0-13.8 11.2-25 25-25h23.8c9.9 0 18.8 5.8 22.9 14.9l2.6 5.8 4.2 9.5c2.1 4.9 5.8 8.9 10.4 11.5z" fill="#00a0a3"/><path d="m411 286.9h-66.3l-14.9-52.2c-.9-3.2-3.8-5.4-7.1-5.4-3.3-.1-6.2 2-7.3 5.1l-24.9 75.4-27.3-117.9c-.8-3.4-3.8-5.8-7.3-5.8s-6.5 2.4-7.3 5.8l-27.3 117.9-24.9-75.4c-1-3.1-4-5.2-7.3-5.1s-6.2 2.3-7.1 5.4l-14.8 52.2h-66.2v15h71.9c3.4 0 6.3-2.2 7.2-5.4l9.7-34.1 25.7 77.6c1.1 3.2 4.1 5.3 7.5 5.1s6.2-2.5 7-5.8l26-112.4 26 112.4c.8 3.3 3.6 5.6 7 5.8h.3c3.2 0 6.1-2.1 7.1-5.1l25.7-77.7 9.7 34.2c.9 3.2 3.9 5.4 7.2 5.4h72z" fill="#89f7f4"/><path d="m367.7 121.3c-19.4-8.6-35.1 8.9-35.1 8.9s-15.7-17.6-35.1-8.9c-19.4 8.6-19.4 37.3-2.2 56.4 10.6 11.8 22.3 19.5 29.7 23.6 4.7 2.6 10.4 2.6 15.1 0 7.4-4.2 19.1-11.8 29.7-23.6 17.4-19.1 17.4-47.8-2.1-56.4z" fill="#ff8f1f"/><path d="m340.2 201.3c-11.3-14.6-20.7-56.2-7.6-71.1 0 0-15.7-17.6-35.1-8.9-19.4 8.6-19.4 37.3-2.2 56.4 10.6 11.8 22.3 19.5 29.7 23.6 4.7 2.7 10.5 2.7 15.2 0z" fill="#f47e14"/><circle cx="211.2" cy="30" fill="#a5a5a5" r="7.5"/><path d="m300.8 37.5h-59.6c-4.1 0-7.5-3.4-7.5-7.5s3.4-7.5 7.5-7.5h59.6c4.1 0 7.5 3.4 7.5 7.5s-3.3 7.5-7.5 7.5z" fill="#a5a5a5"/><path d="m219.7 201.1h-59.6c-4.1 0-7.5-3.4-7.5-7.5s3.4-7.5 7.5-7.5h59.6c4.1 0 7.5 3.4 7.5 7.5s-3.4 7.5-7.5 7.5z" fill="#dfefee"/><path d="m285.8 480.1h-59.6c-4.1 0-7.5-3.4-7.5-7.5s3.4-7.5 7.5-7.5h59.6c4.1 0 7.5 3.4 7.5 7.5s-3.3 7.5-7.5 7.5z" fill="#dfefee"/><path d="m248.5 472.6c0-4.1 3.4-7.5 7.5-7.5h-29.8c-4.1 0-7.5 3.4-7.5 7.5s3.4 7.5 7.5 7.5h29.8c-4.1 0-7.5-3.4-7.5-7.5z" fill="#b9d6d3"/><path d="m316 445.1h-120c-16.6 0-30-13.4-30-30s13.4-30 30-30h120c16.6 0 30 13.4 30 30s-13.4 30-30 30z" fill="#ffbf40"/><path d="m182.4 193.6c0-4.1 3.4-7.5 7.5-7.5h-29.8c-4.1 0-7.5 3.4-7.5 7.5s3.4 7.5 7.5 7.5h29.8c-4.2 0-7.5-3.4-7.5-7.5z" fill="#b9d6d3"/><path d="m226 415.1c0-16.6 13.4-30 30-30h-60c-16.6 0-30 13.4-30 30s13.4 30 30 30h60c-16.6 0-30-13.4-30-30z" fill="#fcab08"/></svg>