<?xml version="1.0" encoding="utf-8"?>
<!-- Generator: Adobe Illustrator 24.2.3, SVG Export Plug-In . SVG Version: 6.00 Build 0)  -->
<svg version="1.1" id="Capa_1" xmlns="http://www.w3.org/2000/svg" xmlns:xlink="http://www.w3.org/1999/xlink" x="0px" y="0px"
	 viewBox="0 0 512 512" style="enable-background:new 0 0 512 512;" xml:space="preserve">
<style type="text/css">
	.st0{fill:#535354;}
	.st1{fill:#A5A5A5;}
	.st2{fill:#898989;}
	.st3{fill:#D1D3D3;}
	.st4{fill:#0DBCB7;}
	.st5{fill:#00A0A3;}
	.st6{fill:#89F7F4;}
	.st7{fill:#FF8F1F;}
	.st8{fill:#F47E14;}
	.st9{fill:#DFEFEE;}
	.st10{fill:#B9D6D3;}
	.st11{fill:#FFBF40;}
	.st12{fill:#FCAB08;}
</style>
<g>
	<g>
		<path class="st0" d="M86,443.4h340c46.2-44.6,75-107.1,75-176.4s-28.8-131.8-75-176.4C381.9,48.1,322,22,256,22
			S130.1,48.1,86,90.6C39.8,135.2,11,197.7,11,267S39.8,398.9,86,443.4L86,443.4z"/>
	</g>
	<g>
		<path class="st1" d="M436,130.6h-30v-80h30c5.5,0,10,4.5,10,10v60C446,126.1,441.5,130.6,436,130.6z"/>
	</g>
	<g>
		<path class="st2" d="M436,100.6h-30v30h30c5.5,0,10-4.5,10-10v-30C446,96.1,441.5,100.6,436,100.6z"/>
	</g>
	<g>
		<path class="st1" d="M436,240.6h-30v-80h30c5.5,0,10,4.5,10,10v60C446,236.1,441.5,240.6,436,240.6z"/>
	</g>
	<g>
		<path class="st2" d="M436,210.6h-30v30h30c5.5,0,10-4.5,10-10v-30C446,206.1,441.5,210.6,436,210.6z"/>
	</g>
	<g>
		<path class="st3" d="M411,456.7c5.2-4.2,10.2-8.7,15-13.3V40c0-22.1-17.9-40-40-40H126c-22.1,0-40,17.9-40,40v403.4
			c4.8,4.6,9.8,9.1,15,13.3H411z"/>
	</g>
	<g>
		<path class="st1" d="M189.9,456.7V40c0-3.2,0.4-6.3,1.1-9.3C195.1,13.1,211,0,229.9,0H126c-22.1,0-40,17.9-40,40v403.4
			c4.8,4.6,9.8,9.1,15,13.3L189.9,456.7z"/>
	</g>
	<g>
		<path class="st4" d="M411,40v416.7c-42.2,34.5-96.2,55.3-155,55.3s-112.8-20.7-155-55.3V40c0-13.8,11.2-25,25-25h23.8
			c9.9,0,18.8,5.8,22.9,14.9l2.6,5.8l4.2,9.5c4,9,13,14.8,22.9,14.8h107.5c9.9,0,18.8-5.8,22.9-14.8l4.2-9.5l2.6-5.8
			c4-9,13-14.9,22.9-14.9H386C399.8,15,411,26.2,411,40z"/>
	</g>
	<g>
		<path class="st5" d="M189.9,56.7V503c-32.9-9.2-63.1-25.1-88.9-46.2V40c0-13.8,11.2-25,25-25h23.8c9.9,0,18.8,5.8,22.9,14.9
			l2.6,5.8l4.2,9.5C181.6,50.1,185.3,54.1,189.9,56.7L189.9,56.7z"/>
	</g>
	<g>
		<path class="st6" d="M411,286.9h-66.3l-14.9-52.2c-0.9-3.2-3.8-5.4-7.1-5.4c-3.3-0.1-6.2,2-7.3,5.1l-24.9,75.4l-27.3-117.9
			c-0.8-3.4-3.8-5.8-7.3-5.8s-6.5,2.4-7.3,5.8l-27.3,117.9l-24.9-75.4c-1-3.1-4-5.2-7.3-5.1c-3.3,0.1-6.2,2.3-7.1,5.4l-14.8,52.2
			H101v15h71.9c3.4,0,6.3-2.2,7.2-5.4l9.7-34.1l25.7,77.6c1.1,3.2,4.1,5.3,7.5,5.1c3.4-0.2,6.2-2.5,7-5.8l26-112.4l26,112.4
			c0.8,3.3,3.6,5.6,7,5.8c0.1,0,0.2,0,0.3,0c3.2,0,6.1-2.1,7.1-5.1l25.7-77.7l9.7,34.2c0.9,3.2,3.9,5.4,7.2,5.4H411L411,286.9z"/>
	</g>
	<g>
		<path class="st7" d="M367.7,121.3c-19.4-8.6-35.1,8.9-35.1,8.9s-15.7-17.6-35.1-8.9c-19.4,8.6-19.4,37.3-2.2,56.4
			c10.6,11.8,22.3,19.5,29.7,23.6c4.7,2.6,10.4,2.6,15.1,0c7.4-4.2,19.1-11.8,29.7-23.6C387.2,158.6,387.2,129.9,367.7,121.3
			L367.7,121.3z"/>
	</g>
	<g>
		<path class="st8" d="M340.2,201.3c-11.3-14.6-20.7-56.2-7.6-71.1c0,0-15.7-17.6-35.1-8.9c-19.4,8.6-19.4,37.3-2.2,56.4
			c10.6,11.8,22.3,19.5,29.7,23.6C329.7,204,335.5,204,340.2,201.3L340.2,201.3z"/>
	</g>
	<g>
		<g>
			<circle class="st1" cx="211.2" cy="30" r="7.5"/>
		</g>
		<g>
			<path class="st1" d="M300.8,37.5h-59.6c-4.1,0-7.5-3.4-7.5-7.5s3.4-7.5,7.5-7.5h59.6c4.1,0,7.5,3.4,7.5,7.5S305,37.5,300.8,37.5z
				"/>
		</g>
	</g>
	<g>
		<path class="st9" d="M219.7,201.1h-59.6c-4.1,0-7.5-3.4-7.5-7.5s3.4-7.5,7.5-7.5h59.6c4.1,0,7.5,3.4,7.5,7.5
			S223.8,201.1,219.7,201.1z"/>
	</g>
	<g>
		<path class="st9" d="M285.8,480.1h-59.6c-4.1,0-7.5-3.4-7.5-7.5s3.4-7.5,7.5-7.5h59.6c4.1,0,7.5,3.4,7.5,7.5
			S290,480.1,285.8,480.1z"/>
	</g>
	<g>
		<path class="st10" d="M248.5,472.6c0-4.1,3.4-7.5,7.5-7.5h-29.8c-4.1,0-7.5,3.4-7.5,7.5s3.4,7.5,7.5,7.5H256
			C251.9,480.1,248.5,476.7,248.5,472.6z"/>
	</g>
	<g>
		<path class="st11" d="M316,445.1H196c-16.6,0-30-13.4-30-30s13.4-30,30-30h120c16.6,0,30,13.4,30,30S332.6,445.1,316,445.1z"/>
	</g>
	<g>
		<path class="st10" d="M182.4,193.6c0-4.1,3.4-7.5,7.5-7.5h-29.8c-4.1,0-7.5,3.4-7.5,7.5s3.4,7.5,7.5,7.5h29.8
			C185.7,201.1,182.4,197.7,182.4,193.6z"/>
	</g>
	<g>
		<path class="st12" d="M226,415.1c0-16.6,13.4-30,30-30h-60c-16.6,0-30,13.4-30,30s13.4,30,30,30h60
			C239.4,445.1,226,431.7,226,415.1z"/>
	</g>
</g>
</svg>
