<?xml version="1.0" encoding="utf-8"?>
<!-- Generator: Adobe Illustrator 24.2.3, SVG Export Plug-In . SVG Version: 6.00 Build 0)  -->
<svg version="1.1" id="svg7509" xmlns:svg="http://www.w3.org/2000/svg"
	 xmlns="http://www.w3.org/2000/svg" xmlns:xlink="http://www.w3.org/1999/xlink" x="0px" y="0px" viewBox="0 0 512 512"
	 style="enable-background:new 0 0 512 512;" xml:space="preserve">
<style type="text/css">
	.st0{fill:#535354;}
	.st1{fill:#A5A5A5;}
	.st2{fill:#898989;}
	.st3{fill:#BCBCBC;}
	.st4{fill:#939393;}
	.st5{fill:#D1D3D3;}
	.st6{fill:#0DBCB7;}
	.st7{fill:#00A0A3;}
	.st8{fill:#89F7F4;}
	.st9{fill:#FF8F1F;}
	.st10{fill:#F47E14;}
	.st11{fill:#FFBF40;}
	.st12{fill:#FFFFFF;}
	.st13{fill:#D66407;}
	.st14{fill:#FFDD40;}
	.st15{fill:#FFC839;}
	.st16{fill:#58E0D9;}
	.st17{fill:#DFEFEE;}
	.st18{fill:#B9D6D3;}
</style>
<g id="g7519">
	<g id="g7525" transform="translate(175.9995,13.373)">
		<path id="path7527" class="st0" d="M0,485.3h160c96-33.2,165-124.3,165-231.6c0-135.3-109.7-245-245-245
			c-135.3,0-245,109.7-245,245C-165,360.9-96,452.1,0,485.3"/>
	</g>
	<g id="g7529" transform="translate(336,102)">
		<path id="path7531" class="st1" d="M0,308h-160v88.6c25.1,8.7,52,13.4,80,13.4s54.9-4.7,80-13.4V308z"/>
	</g>
	<g id="g7533" transform="translate(176,13.373)">
		<path id="path7535" class="st2" d="M0,485.3c19,6.6,39.2,10.9,60,12.6V396.6H0V485.3z"/>
	</g>
	<g id="g7537" transform="translate(376,92)">
		<path id="path7539" class="st3" d="M0,328h-240c-16.6,0-30-13.4-30-30v-40H30v40C30,314.6,16.6,328,0,328"/>
	</g>
	<g id="g7541" transform="translate(191,122)">
		<path id="path7543" class="st4" d="M0,268v-40h-85v40c0,16.6,13.4,30,30,30h85C13.4,298,0,284.6,0,268"/>
	</g>
	<g id="g7545" transform="translate(406,512)">
		<path id="path7547" class="st5" d="M0-512h-300c-22.1,0-40,17.9-40,40v280c0,22.1,17.9,40,40,40H0c22.1,0,40-17.9,40-40v-280
			C40-494.1,22.1-512,0-512"/>
	</g>
	<g id="g7549" transform="translate(151,192)">
		<path id="path7551" class="st1" d="M0,128v-280c0-22.1,17.9-40,40-40h-85c-22.1,0-40,17.9-40,40v280c0,22.1,17.9,40,40,40h85
			C17.9,168,0,150.1,0,128"/>
	</g>
	<g id="g7553" transform="translate(406,482)">
		<path id="path7555" class="st6" d="M0-452h-300c-5.5,0-10,4.5-10,10v163.2l5.4,6.8l-5.4,8.2v51.8c0,5.5,4.5,10,10,10H0
			c5.5,0,10-4.5,10-10v-230C10-447.5,5.5-452,0-452"/>
	</g>
	<g id="g7557" transform="translate(106,482)">
		<path id="path7559" class="st7" d="M0-452c-5.5,0-10,4.5-10,10v163.2l5.4,6.8l-5.4,8.2v51.8c0,5.5,4.5,10,10,10h68.1v-250H0z"/>
	</g>
	<g id="g7561" transform="translate(287.2607,308.7871)">
		<path id="path7563" class="st8" d="M0-105.6h-24.6l-11.9-35.6c-1-3.1-3.9-5.1-7.1-5.1c0,0-0.1,0-0.1,0c-3.3,0.1-6.1,2.2-7.1,5.4
			l-16.9,57.5l-5.9-17.1c-1-3-3.9-5-7.1-5h-24.4l-11.9-35.6c-1-3.1-3.9-5.2-7.2-5.1c-3.3,0.1-6.1,2.2-7.1,5.4l-16.9,57.5l-5.9-17.1
			c-1-3-3.9-5-7.1-5h-30v15h24.7l11.9,34.2c1.1,3.1,4,5.1,7.3,5c3.3-0.1,6.1-2.3,7-5.4l16.8-57.1l6,18.1c1,3.1,3.9,5.1,7.1,5.1h24.5
			l11.9,34.2c1,3,3.9,5,7.1,5c0.1,0,0.1,0,0.2,0c3.3-0.1,6.1-2.3,7-5.4l16.8-57.1l6,18.1c1,3.1,3.9,5.1,7.1,5.1H0
			c4.1,0,7.5-3.4,7.5-7.5S4.1-105.6,0-105.6"/>
	</g>
	<g id="g7565" transform="translate(377.4512,450.3174)">
		<path id="path7567" class="st9" d="M0-388.6c-13.7-6.1-24.8,6.3-24.8,6.3s-11.1-12.4-24.8-6.3s-13.7,26.3-1.5,39.8
			c8.4,9.3,17.8,15,22.8,17.6c2.2,1.2,4.9,1.2,7.1,0c5-2.6,14.3-8.3,22.8-17.6C13.7-362.3,13.7-382.5,0-388.6"/>
	</g>
	<g id="g7569" transform="translate(352.6562,444.0098)">
		<path id="path7571" class="st10" d="M0-376c0,0-11.1-12.4-24.8-6.3c-13.7,6.1-13.7,26.3-1.5,39.8c8.4,9.3,17.8,15,22.8,17.6
			c2.2,1.2,4.9,1.2,7.1,0C-3.8-335.5-13-365.1,0-376"/>
	</g>
	<g id="g7573" transform="translate(322.6562,302)">
		<g id="path7575">
			<path class="st11" d="M60-82H0c-5.5,0-10-4.5-10-10s4.5-10,10-10h60c5.5,0,10,4.5,10,10S65.5-82,60-82z"/>
		</g>
	</g>
	<g id="g7577" transform="translate(322.6562,332)">
		<g id="path7579">
			<path class="st11" d="M60-142H0c-5.5,0-10-4.5-10-10s4.5-10,10-10h60c5.5,0,10,4.5,10,10S65.5-142,60-142z"/>
		</g>
	</g>
	<g id="g7581" transform="translate(322.6562,362)">
		<g id="path7583">
			<path class="st11" d="M60-202H0c-5.5,0-10-4.5-10-10s4.5-10,10-10h60c5.5,0,10,4.5,10,10S65.5-202,60-202z"/>
		</g>
	</g>
	<g id="g7585" transform="translate(322.6562,272)">
		<g id="path7587">
			<path class="st11" d="M60-22H0c-5.5,0-10-4.5-10-10s4.5-10,10-10h60c5.5,0,10,4.5,10,10S65.5-22,60-22z"/>
		</g>
	</g>
	<g id="g7589" transform="translate(144.0732,422)">
		<path id="path7591" class="st12" d="M0-332c0,5.5-4.5,10-10,10s-10-4.5-10-10s4.5-10,10-10S0-337.5,0-332"/>
	</g>
	<g id="g7593" transform="translate(184.0732,422)">
		<path id="path7595" class="st12" d="M0-332c0,5.5-4.5,10-10,10s-10-4.5-10-10s4.5-10,10-10S0-337.5,0-332"/>
	</g>
	<g id="g7597" transform="translate(224.0732,422)">
		<path id="path7599" class="st12" d="M0-332c0,5.5-4.5,10-10,10s-10-4.5-10-10s4.5-10,10-10S0-337.5,0-332"/>
	</g>
	<g id="g7601" transform="translate(136,196)">
		<path id="path7603" class="st10" d="M0,120c0,8.3-6.7,15-15,15s-15-6.7-15-15s6.7-15,15-15S0,111.7,0,120"/>
	</g>
	<g id="g7605" transform="translate(121,196)">
		<path id="path7607" class="st13" d="M0,120c0-5.5,3-10.4,7.5-13c-2.2-1.3-4.8-2-7.5-2c-8.3,0-15,6.7-15,15s6.7,15,15,15
			c2.7,0,5.3-0.7,7.5-2C3,130.4,0,125.5,0,120"/>
	</g>
	<g id="g7609" transform="translate(196,196)">
		<path id="path7611" class="st14" d="M0,120c0,8.3-6.7,15-15,15s-15-6.7-15-15s6.7-15,15-15S0,111.7,0,120"/>
	</g>
	<g id="g7613" transform="translate(256,196)">
		<path id="path7615" class="st8" d="M0,120c0,8.3-6.7,15-15,15s-15-6.7-15-15s6.7-15,15-15S0,111.7,0,120"/>
	</g>
	<g id="g7617" transform="translate(406,196)">
		<path id="path7619" class="st1" d="M0,120c0,8.3-6.7,15-15,15s-15-6.7-15-15s6.7-15,15-15S0,111.7,0,120"/>
	</g>
	<g id="g7621" transform="translate(181,196)">
		<path id="path7623" class="st15" d="M0,120c0-5.5,3-10.4,7.5-13c-2.2-1.3-4.8-2-7.5-2c-8.3,0-15,6.7-15,15s6.7,15,15,15
			c2.7,0,5.3-0.7,7.5-2C3,130.4,0,125.5,0,120"/>
	</g>
	<g id="g7625" transform="translate(241,196)">
		<path id="path7627" class="st16" d="M0,120c0-5.5,3-10.4,7.5-13c-2.2-1.3-4.8-2-7.5-2c-8.3,0-15,6.7-15,15s6.7,15,15,15
			c2.7,0,5.3-0.7,7.5-2C3,130.4,0,125.5,0,120"/>
	</g>
	<g id="g7629" transform="translate(391,196)">
		<path id="path7631" class="st2" d="M0,120c0-5.5,3-10.4,7.5-13c-2.2-1.3-4.8-2-7.5-2c-8.3,0-15,6.7-15,15s6.7,15,15,15
			c2.7,0,5.3-0.7,7.5-2C3,130.4,0,125.5,0,120"/>
	</g>
	<g id="g7633" transform="translate(376,122)">
		<path id="path7635" class="st17" d="M0,268c0,8.3-6.7,15-15,15s-15-6.7-15-15s6.7-15,15-15S0,259.7,0,268"/>
	</g>
	<g id="g7637" transform="translate(361,122)">
		<path id="path7639" class="st18" d="M0,268c0-5.5,3-10.4,7.5-13c-2.2-1.3-4.8-2-7.5-2c-8.3,0-15,6.7-15,15s6.7,15,15,15
			c2.7,0,5.3-0.7,7.5-2C3,278.4,0,273.5,0,268"/>
	</g>
	<g id="g7641" transform="translate(286,112)">
		<path id="path7643" class="st17" d="M0,288h-140c-5.5,0-10-4.5-10-10s4.5-10,10-10H0c5.5,0,10,4.5,10,10S5.5,288,0,288"/>
	</g>
	<g id="g7645" transform="translate(191,132)">
		<path id="path7647" class="st18" d="M0,248h-45c-5.5,0-10,4.5-10,10c0,5.5,4.5,10,10,10H1.7c-1.1-3.1-1.7-6.5-1.7-10V248z"/>
	</g>
</g>
</svg>
