<svg enable-background="new 0 0 512 512" viewBox="0 0 512 512" xmlns="http://www.w3.org/2000/svg"><circle cx="256" cy="267" fill="#535354" r="245"/><path d="m455.7 113.3c0-6.1-3.9-11.5-9.8-13.3-120.2-37.7-259.6-37.7-379.9 0-5.8 1.8-9.8 7.2-9.8 13.3v166c0 90.2 46.1 172.2 120.5 219.5 51.2 17.5 107.4 17.5 158.6 0 72.6-46.3 120.5-127.5 120.5-219.5z" fill="#eff9f8"/><path d="m66 100c-5.8 1.8-9.8 7.2-9.8 13.3v166c0 90.3 46.3 172.3 120.5 219.5 24.9 8.5 51.6 13.1 79.3 13.1v-440.3c-67.8 0-132.1 10.2-190 28.4z" fill="#daeae8"/><path d="m125.1 291.3v-206.5c-20.3 4.2-40 9.2-59.1 15.2-5.8 1.8-9.8 7.2-9.8 13.3v166c0 90.3 46.3 172.3 120.5 219.5 16.3 5.6 33.3 9.5 50.9 11.5-62.3-50.3-102.5-129.6-102.5-219z" fill="#c5ddda"/><path d="m468.7 279.3v-166c0-11.8-7.6-22.1-18.9-25.6-118.2-37-260.6-39.8-387.6 0-11.3 3.5-18.9 13.8-18.9 25.6v166c0 75 30.1 143.9 81.6 194.7 30.5 19.3 65.6 32.2 103.3 36.4-93.1-35.4-159.1-125.7-159.1-231v-166c0-.5.3-.9.8-1 120.5-37.8 257.2-36.1 372.2 0 1.4.5.4-9.8.8 167 0 106.9-67.2 195.8-159.2 231.1 37.7-4.2 72.9-17 103.5-36.5 8.2-8 16-16.7 23.1-25.7 37.4-47.6 58.4-106.7 58.4-169z" fill="#ffb81f"/><path d="m150.8 474c-51.3-50.6-81.6-119.5-81.6-194.7v-166-9.6c0-8.5 4-16.3 10.4-21.2-5.8 1.6-11.7 3.3-17.4 5.2-11.3 3.5-18.9 13.8-18.9 25.6v166c0 43.7 10 85.6 29.9 124.2 13.3 26 30.9 49.9 51.8 70.4 17.5 11.1 36.6 20.1 56.8 26.5-9.9-6.9-20.2-15.5-31-26.4z" fill="#f7a006"/><path d="m237.1 336.9-43.4-39c-10.9-9.9-11.9-26.7-2-37.7 9.9-10.9 26.7-11.9 37.7-2l24.4 21.9 66.3-67.7c10.3-10.5 27.2-10.7 37.7-.4s10.7 27.2.4 37.7l-84.2 86c-10.1 10.3-26.3 10.8-36.9 1.2z" fill="#1fc9c9"/><path d="m256.2 319.7-43.4-39c-8.2-7.4-10.8-18.8-7.4-28.5-5.2 1.1-10 3.9-13.8 8.1-9.9 10.9-9 27.8 2 37.7l43.4 39c10.6 9.6 26.9 9.1 36.9-1.1l11.6-11.8c-9.4 4.4-21.1 3-29.3-4.4z" fill="#00a0a3"/></svg>