<?xml version="1.0" encoding="utf-8"?>
<!-- Generator: Adobe Illustrator 24.2.3, SVG Export Plug-In . SVG Version: 6.00 Build 0)  -->
<svg version="1.1" id="Capa_1" xmlns="http://www.w3.org/2000/svg" xmlns:xlink="http://www.w3.org/1999/xlink" x="0px" y="0px"
	 viewBox="0 0 512 512" style="enable-background:new 0 0 512 512;" xml:space="preserve">
<style type="text/css">
	.st0{fill:#535354;}
	.st1{fill:#EFF9F8;}
	.st2{fill:#DAEAE8;}
	.st3{fill:#C5DDDA;}
	.st4{fill:#FFB81F;}
	.st5{fill:#F7A006;}
	.st6{fill:#1FC9C9;}
	.st7{fill:#00A0A3;}
</style>
<g>
	<circle class="st0" cx="256" cy="267" r="245"/>
	<path class="st1" d="M455.7,113.3c0-6.1-3.9-11.5-9.8-13.3C325.7,62.3,186.3,62.3,66,100c-5.8,1.8-9.8,7.2-9.8,13.3v166
		c0,90.2,46.1,172.2,120.5,219.5c51.2,17.5,107.4,17.5,158.6,0c72.6-46.3,120.5-127.5,120.5-219.5L455.7,113.3L455.7,113.3z"/>
	<path class="st2" d="M66,100c-5.8,1.8-9.8,7.2-9.8,13.3v166c0,90.3,46.3,172.3,120.5,219.5l0,0c24.9,8.5,51.6,13.1,79.3,13.1V71.6
		C188.2,71.6,123.9,81.8,66,100z"/>
	<path class="st3" d="M125.1,291.3V84.8C104.8,89,85.1,94,66,100c-5.8,1.8-9.8,7.2-9.8,13.3v166c0,90.3,46.3,172.3,120.5,219.5l0,0
		c16.3,5.6,33.3,9.5,50.9,11.5C165.3,460,125.1,380.7,125.1,291.3z"/>
	<path class="st4" d="M468.7,279.3v-166c0-11.8-7.6-22.1-18.9-25.6l0,0c-118.2-37-260.6-39.8-387.6,0c-11.3,3.5-18.9,13.8-18.9,25.6
		v166c0,75,30.1,143.9,81.6,194.7c30.5,19.3,65.6,32.2,103.3,36.4c-93.1-35.4-159.1-125.7-159.1-231v-166c0-0.5,0.3-0.9,0.8-1
		c120.5-37.8,257.2-36.1,372.2,0c1.4,0.5,0.4-9.8,0.8,167c0,106.9-67.2,195.8-159.2,231.1c37.7-4.2,72.9-17,103.5-36.5
		c8.2-8,16-16.7,23.1-25.7C447.7,400.7,468.7,341.6,468.7,279.3z"/>
	<path class="st5" d="M150.8,474c-51.3-50.6-81.6-119.5-81.6-194.7v-166v-9.6c0-8.5,4-16.3,10.4-21.2c-5.8,1.6-11.7,3.3-17.4,5.2
		c-11.3,3.5-18.9,13.8-18.9,25.6v166c0,43.7,10,85.6,29.9,124.2c13.3,26,30.9,49.9,51.8,70.4c17.5,11.1,36.6,20.1,56.8,26.5
		C171.9,493.5,161.6,484.9,150.8,474z"/>
	<path class="st6" d="M237.1,336.9l-43.4-39c-10.9-9.9-11.9-26.7-2-37.7c9.9-10.9,26.7-11.9,37.7-2l24.4,21.9l66.3-67.7
		c10.3-10.5,27.2-10.7,37.7-0.4s10.7,27.2,0.4,37.7L274,335.7C263.9,346,247.7,346.5,237.1,336.9z"/>
	<path class="st7" d="M256.2,319.7l-43.4-39c-8.2-7.4-10.8-18.8-7.4-28.5c-5.2,1.1-10,3.9-13.8,8.1c-9.9,10.9-9,27.8,2,37.7l43.4,39
		c10.6,9.6,26.9,9.1,36.9-1.1l11.6-11.8C276.1,328.5,264.4,327.1,256.2,319.7z"/>
</g>
</svg>
