<?xml version="1.0" encoding="utf-8"?>
<!-- Generator: Adobe Illustrator 24.2.3, SVG Export Plug-In . SVG Version: 6.00 Build 0)  -->
<svg version="1.1" id="Layer_1" xmlns="http://www.w3.org/2000/svg" xmlns:xlink="http://www.w3.org/1999/xlink" x="0px" y="0px"
	 viewBox="0 0 512 512" style="enable-background:new 0 0 512 512;" xml:space="preserve">
<style type="text/css">
	.st0{fill:#535354;}
	.st1{fill:#3D3D3D;}
	.st2{fill:#58E0D9;}
	.st3{fill:#1FC9C9;}
	.st4{fill:#00A0A3;}
	.st5{fill:#D86E05;}
	.st6{fill:#AF5605;}
	.st7{fill:#F9DEA2;}
	.st8{fill:#FFCE43;}
	.st9{fill:#FF8602;}
	.st10{fill:#FFB332;}
	.st11{fill:#F9A52B;}
</style>
<g>
	<path class="st0" d="M193.1,445.5c14.3,4.1,29.6-0.4,39.9-11.1c9.8-10.1,23.2-15.8,37.1-16.3c15.4-0.5,29.7-9.2,36.3-23.1
		c8.6-18,26.9-30.7,48.6-30.7c21.6,0,39.9,12.6,48.5,30.5c6.6,13.8,20.2,22.7,35.5,23.3c3,0.1,5.9,0.5,8.8,1.1
		C481.2,377.4,501,324.5,501,267c0-135.3-109.7-245-245-245S11,131.7,11,267c0,81.6,39.9,153.8,101.2,198.4
		C133.3,445.5,164.3,437.1,193.1,445.5L193.1,445.5z"/>
	<path class="st1" d="M439.1,415.1c-15.3-0.7-28.9-9.5-35.5-23.3c-8.6-17.9-27-30.5-48.5-30.5c-21.7,0-40,12.7-48.6,30.7
		c-6.6,13.9-20.9,22.6-36.3,23.1c-13.9,0.4-27.3,6.2-37.1,16.3c-10.4,10.6-25.7,15.2-39.9,11.1c-29.7-8.6-61.6,0.5-82.7,21.6
		c11,8.1,22.7,15.4,35.1,21.6c10.9-7,24.6-9.5,37.6-5.8c7.8,2.3,16.1-0.2,21.8-6c5.3-5.5,12.7-8.6,20.2-8.9
		c8.4-0.3,16.2-5,19.8-12.6c4.7-9.8,14.7-16.8,26.5-16.8c11.8,0,21.7,6.9,26.5,16.6c3.6,7.5,11,12.4,19.4,12.7
		c7.7,0.3,15.1,3.7,20.4,9.3c5.6,6,14.3,8.2,22.2,5.8c6.5-2,13.1-2.4,19.5-1.5c27.3-16,51.3-37.1,70.6-62
		C446.4,415.8,442.8,415.3,439.1,415.1L439.1,415.1z"/>
	<g>
		<path class="st2" d="M285.9,439.4c5.2,3,9.4,7.5,12,12.8c2.6,5.4,7.2,9.4,12.6,11.4c12.9-63.5-20.4-114.7-20.4-114.7l0,0
			C299,383.3,293.9,415.1,285.9,439.4z"/>
	</g>
	<path class="st3" d="M310.5,463.6c3.6-17.6,3.6-34.2,1.8-49.1c-0.7-0.1-1.4-0.1-2,0c-7.8,1.4-11.8-2.2-13.8-5.4
		c-0.7-1.2-1.8-2-3-2.5c-1.6,11.9-4.3,23-7.6,32.8c5.2,3,9.4,7.5,12,12.8C300.5,457.6,305,461.7,310.5,463.6z"/>
	<path class="st2" d="M331.4,235.3c-41.9,17.2-58.9,42-65.6,61.3c1.5,2.8,3.1,5.5,4.9,8.3c6.6,10.4,11.6,20.7,15.3,30.9l0,0
		c-6.4-60,43.1-83.1,52.2-86.8C335.4,244.8,333.1,240.2,331.4,235.3z"/>
	<g>
		<path class="st2" d="M230.1,237.6c-11.6-7.3-26.8-13.4-46.6-16.7c-0.4,5.3-1.4,10.3-3.1,15.1c13.2,2.8,40.8,11.9,56.4,39.6
			C232.7,262.4,230.7,249.6,230.1,237.6L230.1,237.6z"/>
	</g>
	<g>
		<path class="st3" d="M293.9,214.9c-1.8-1.2-4.1-1.2-5.9,0c-6.6,4.4-11,11.9-11,20.4s4.4,16,11,20.4c1.8,1.2,4.1,1.2,5.9,0
			c6.6-4.4,11-11.9,11-20.4C304.9,226.7,300.5,219.2,293.9,214.9z"/>
		<path class="st3" d="M327.3,335.5c-0.2-2.1-1.7-3.9-3.7-4.6c-7.6-2.4-16.1-1-22.7,4.4s-9.6,13.5-8.8,21.4c0.2,2.1,1.7,3.9,3.7,4.6
			c7.6,2.4,16.1,1,22.7-4.4C325,351.5,328.1,343.4,327.3,335.5z"/>
		<path class="st3" d="M234.2,348.4c9.1-22.6-10.2-46.2-34.1-41.8c-9.7,1.8-19.1,5.9-27.2,12.6c-16.3,13.3-23.8,33.4-21.8,52.9
			c0.5,5.2,4.2,9.7,9.2,11.3c18.7,5.8,39.9,2.5,56.2-10.9C224.6,365.8,230.5,357.5,234.2,348.4L234.2,348.4z"/>
	</g>
	<path class="st4" d="M151,372.1c0.5,5.2,4.2,9.7,9.2,11.3c18.7,5.8,39.9,2.5,56.2-10.9c1.6-1.3,3-2.6,4.4-4
		c-37.5,2.7-29.2-30.9-29.2-30.9c-20.5,2.3-18.8-18.4-18.8-18.4C156.5,332.5,149,352.6,151,372.1L151,372.1z"/>
	<path class="st3" d="M251.9,443c5.1-4.6,11.9-7.4,19.5-7.4c5.6,0,10.8,1.6,15.3,4.3c11.5-34.5,17.1-84.3-15-135.1
		c-37.5-59.1-22.6-120.7-17.5-137.5c-1.2,0.1-2.4,0.1-3.6,0.1c-4,0-7.9-0.3-11.7-0.8c-6.3,16.6-25.1,76.9,8.2,138.2
		C276.4,358.9,266.3,409.3,251.9,443z"/>
	<path class="st4" d="M286.7,439.9c3.3-9.8,6.1-20.9,7.7-32.8c-1.4-0.8-3-1.1-4.7-0.7c-11.4,2.9-18.6-2.2-22.2-6.1
		c-0.8-0.9-1.9-1.4-3-1.7c-2.3,16.7-7.1,31.7-12.6,44.4c5.1-4.6,11.9-7.4,19.5-7.4C277,435.6,282.2,437.2,286.7,439.9z"/>
	<g>
		<path class="st2" d="M228.3,223.9c-3,0-5.8-1.9-6.8-4.9c-5.8-17-20.1-18.9-20.7-19c-4-0.4-6.8-3.9-6.4-7.9s4-6.8,8-6.4
			c1,0.1,23.9,2.8,32.8,28.7c1.3,3.8-0.7,7.9-4.5,9.2C229.8,223.8,229.1,223.9,228.3,223.9L228.3,223.9z"/>
	</g>
	<g>
		<path class="st2" d="M175.6,354.3c-3-2.6-3.3-7.2-0.6-10.2c14-15.8,29.6-24.2,46.5-25c25.6-1.2,44.1,15.8,44.9,16.5
			c2.9,2.7,3.1,7.3,0.4,10.2c-2.7,2.9-7.3,3.1-10.2,0.4c-0.3-0.2-15.2-13.7-34.5-12.7c-12.8,0.7-24.9,7.4-36.2,20.2
			C183.1,356.7,178.5,357,175.6,354.3L175.6,354.3z"/>
	</g>
	<path class="st5" d="M359.8,478.1c-7.9,2.4-16.6,0.3-22.2-5.8c-5.3-5.7-12.7-9-20.4-9.3c-8.3-0.4-15.8-5.2-19.4-12.7
		c-4.7-9.8-14.7-16.6-26.5-16.6c-11.8,0-21.8,6.9-26.5,16.8c-3.6,7.6-11.4,12.3-19.8,12.6c-7.6,0.2-14.9,3.4-20.2,8.9
		c-5.6,5.8-14,8.3-21.8,6c-13.7-4-28.2-1-39.3,6.9C177.4,502.2,215.6,512,256,512c46.1,0,89.2-12.7,126-34.9
		C374.8,475.7,367.2,475.9,359.8,478.1z"/>
	<g>
		<path class="st6" d="M247.7,497.6c2.6-7.2,7.9-13.1,14.7-16.5c7.5-3.8,12.6-11.3,12.7-19.7c0.1-9,4.4-17.7,11.9-23.2
			c-4.5-2.8-9.8-4.4-15.5-4.4c-11.8,0-21.8,6.9-26.5,16.8c-3.6,7.6-11.4,12.3-19.8,12.6c-7.6,0.2-14.9,3.4-20.2,8.9
			c-5.6,5.8-14,8.3-21.8,6c-13.7-4-28.2-1-39.3,6.9c27.6,14.3,58.3,23.4,90.8,26.2C240.7,508.8,245.4,503.8,247.7,497.6L247.7,497.6
			z"/>
	</g>
	<circle class="st7" cx="385.6" cy="216.9" r="57.7"/>
	<path class="st8" d="M406.2,239.3c0,0,0.7-17-20.7-22.4c-21.3-5.4-18.2-27.2-18.2-27.2c-18.9,0-17.3-18.3-17.3-18.3
		c-13.5,10.6-22.2,27-22.2,45.4c0,31.8,25.8,57.7,57.7,57.7c16.5,0,31.4-7,42-18.1C406.9,259.3,406.2,239.3,406.2,239.3L406.2,239.3
		z"/>
	<g>
		<path class="st9" d="M385.6,262.3c-5,0-9.1-4.1-9.1-9.1v-9.4c0-5,4.1-9.1,9.1-9.1s9.1,4.1,9.1,9.1v9.4
			C394.7,258.2,390.6,262.3,385.6,262.3z"/>
	</g>
	<g>
		<path class="st9" d="M385.6,198.6c-5,0-9.1-4.1-9.1-9.1v-8.8c0-5,4.1-9.1,9.1-9.1s9.1,4.1,9.1,9.1v8.8
			C394.7,194.5,390.6,198.6,385.6,198.6z"/>
	</g>
	<g>
		<path class="st8" d="M385.6,281.9c-35.8,0-65-29.1-65-65s29.1-65,65-65s65,29.1,65,65S421.4,281.9,385.6,281.9z M385.6,166.5
			c-27.8,0-50.3,22.6-50.3,50.4c0,27.8,22.6,50.3,50.3,50.3c27.8,0,50.4-22.6,50.4-50.3C435.9,189.1,413.3,166.5,385.6,166.5z"/>
	</g>
	<path class="st10" d="M417.5,255.8C417.5,255.8,417.5,255.8,417.5,255.8c-8.7,7.1-19.8,11.4-31.9,11.4c-27.8,0-50.3-22.6-50.3-50.3
		c0-14.5,6.2-27.6,16.1-36.8c-9.7-0.4-11.1-6.3-11.1-9.6c-12.1,11.8-19.6,28.3-19.6,46.5c0,35.8,29.1,65,65,65
		c16,0,30.6-5.8,41.9-15.4C416.5,266.5,417.5,255.8,417.5,255.8L417.5,255.8z"/>
	<g>
		<path class="st11" d="M384.7,252.9c-6.9,0-11.2-0.8-17.7-5.1c-4.2-2.8-5.4-8.4-2.6-12.6s8.4-5.4,12.6-2.6c3,2,3.8,2.1,8.2,2.1
			c3.2,0,4.5-2.5,4.8-4c0.4-2.2-0.9-2.9-2.2-3.4c-0.1,0-0.1,0-0.2-0.1l-10.3-3.9c-10.2-3.6-15.8-13.1-14.1-23.6
			c1.9-11.1,11.4-19.2,22.7-19.3c7.2-0.1,11.6,0.7,18.3,5.1c4.2,2.8,5.4,8.4,2.6,12.7c-2.8,4.2-8.4,5.4-12.6,2.6
			c-3-2-3.8-2.1-8.2-2.1c-3.2,0-4.5,2.5-4.8,4c-0.4,2.2,0.9,2.9,2.2,3.4c0.1,0,0.1,0,0.2,0.1l10.3,3.9c10.2,3.6,15.8,13.1,14.1,23.6
			c-1.9,11.1-11.4,19.2-22.7,19.3C385.1,252.9,384.9,252.9,384.7,252.9L384.7,252.9z"/>
	</g>
	<circle class="st7" cx="126.6" cy="216.9" r="57.7"/>
	<path class="st8" d="M147.3,239.3c0,0,0.7-17-20.7-22.4c-21.3-5.4-18.2-27.2-18.2-27.2c-18.9,0-17.3-18.3-17.3-18.3
		C77.7,182,69,198.4,69,216.9c0,31.8,25.8,57.7,57.7,57.7c16.5,0,31.4-7,42-18.1C148,259.3,147.3,239.3,147.3,239.3L147.3,239.3z"/>
	<g>
		<path class="st9" d="M126.6,262.3c-5,0-9.1-4.1-9.1-9.1v-9.4c0-5,4.1-9.1,9.1-9.1s9.1,4.1,9.1,9.1v9.4
			C135.8,258.2,131.7,262.3,126.6,262.3z"/>
	</g>
	<g>
		<path class="st9" d="M126.6,198.6c-5,0-9.1-4.1-9.1-9.1v-8.8c0-5,4.1-9.1,9.1-9.1s9.1,4.1,9.1,9.1v8.8
			C135.8,194.5,131.7,198.6,126.6,198.6z"/>
	</g>
	<g>
		<path class="st8" d="M126.6,281.9c-35.8,0-65-29.1-65-65s29.1-65,65-65s65,29.1,65,65S162.5,281.9,126.6,281.9z M126.6,166.5
			c-27.8,0-50.3,22.6-50.3,50.4c0,27.8,22.6,50.3,50.3,50.3s50.4-22.6,50.4-50.3C177,189.1,154.4,166.5,126.6,166.5z"/>
	</g>
	<path class="st10" d="M158.6,255.8C158.6,255.8,158.6,255.8,158.6,255.8c-8.7,7.1-19.8,11.4-31.9,11.4c-27.8,0-50.3-22.6-50.3-50.3
		c0-14.5,6.2-27.6,16.1-36.8c-9.7-0.4-11.1-6.3-11.1-9.6c-12.1,11.8-19.6,28.3-19.6,46.5c0,35.8,29.1,65,65,65
		c16,0,30.6-5.8,41.9-15.4C157.6,266.5,158.6,255.8,158.6,255.8L158.6,255.8z"/>
	<g>
		<path class="st11" d="M125.7,252.9c-6.9,0-11.2-0.8-17.7-5.1c-4.2-2.8-5.4-8.4-2.6-12.6s8.4-5.4,12.7-2.6c3,2,3.8,2.1,8.2,2.1
			c3.2,0,4.5-2.5,4.8-4c0.4-2.2-0.9-2.9-2.2-3.4c-0.1,0-0.1,0-0.2-0.1l-10.3-3.9c-10.2-3.6-15.8-13.1-14.1-23.6
			c1.9-11.1,11.4-19.2,22.7-19.3c7.2-0.1,11.6,0.7,18.3,5.1c4.2,2.8,5.4,8.4,2.6,12.7c-2.8,4.2-8.4,5.4-12.6,2.6
			c-3-2-3.8-2.1-8.2-2.1c-3.2,0-4.5,2.5-4.8,4c-0.4,2.2,0.9,2.9,2.2,3.4c0.1,0,0.1,0,0.2,0.1L135,210c10.2,3.6,15.8,13.1,14.1,23.6
			c-1.9,11.1-11.4,19.2-22.7,19.3C126.2,252.9,126,252.9,125.7,252.9L125.7,252.9z"/>
	</g>
	
		<ellipse transform="matrix(8.999479e-02 -0.9959 0.9959 8.999479e-02 144.3422 326.2018)" class="st8" cx="250.7" cy="84.1" rx="84.1" ry="84.1"/>
	<path class="st10" d="M166.5,84.1c0,46.5,37.7,84.1,84.1,84.1c22.5,0,42.8-8.8,57.9-23.2c-0.4-0.3-0.9-0.6-1.4-0.6
		c-5.2-0.7-6.2-4.1-6.2-6.5c0-1.2-0.9-2.3-2.1-2.6c-5.8-1.4-6.8-5.6-6.9-8.2c0-1.3-1-2.3-2.2-2.5c-20.6-3.9-19.3-20-18.8-23.4
		c0.1-0.5,0-1-0.2-1.4c-1-2.4-5.3-10.1-20.3-15.7c-14.7-5.5-15-21-14.6-26.7c0.1-1.2-0.7-2.3-1.9-2.7c-11.7-4-11.6-14.8-10.9-19.6
		c0.2-1.3-0.6-2.5-1.8-2.9c-5.8-2-5.9-7-5.5-9.8c0.2-1.2-0.5-2.3-1.6-2.8c-3.8-1.7-4.2-5.1-4.1-7.4c0-0.6-0.1-1.2-0.4-1.7
		C184,24.9,166.5,52.5,166.5,84.1L166.5,84.1z"/>
	<circle class="st7" cx="250.6" cy="84.1" r="57.9"/>
	<path class="st8" d="M291.2,125.4c-0.4-0.4-0.9-0.7-1.4-0.8c-20.6-3.9-19.3-20-18.8-23.4c0.1-0.5,0-1-0.2-1.4
		c-1-2.4-5.3-10.1-20.3-15.7c-14.7-5.5-15-21-14.6-26.7c0.1-1.2-0.7-2.3-1.9-2.7c-11.7-4-11.6-14.8-10.9-19.6
		c0.1-0.7-0.1-1.3-0.4-1.8c-17.9,9.8-30.1,28.9-30.1,50.8c0,32,25.9,57.9,57.9,57.9C266.4,142,280.8,135.7,291.2,125.4L291.2,125.4z
		"/>
	<path class="st10" d="M250.6,26.2c32,0,57.9,25.9,57.9,57.9S282.6,142,250.6,142s-57.9-25.9-57.9-57.9S218.6,26.2,250.6,26.2
		 M250.6,11.8c-39.9,0-72.3,32.4-72.3,72.3s32.4,72.3,72.3,72.3s72.3-32.4,72.3-72.3S290.5,11.8,250.6,11.8z"/>
	<path class="st9" d="M250.6,156.4c19.3,0,36.8-7.6,49.8-20c-0.4-0.5-0.9-0.9-1.6-1.1c-5.8-1.4-6.8-5.6-6.9-8.2
		c0-0.7-0.3-1.3-0.8-1.8c-10.5,10.3-24.8,16.6-40.6,16.6c-32,0-57.9-25.9-57.9-57.9c0-21.9,12.1-40.9,30.1-50.8
		c-0.3-0.5-0.8-0.9-1.4-1.1c-5.8-2-5.9-7-5.5-9.8c0.1-0.6,0-1.1-0.3-1.6c-22.2,12.3-37.3,36.1-37.3,63.3
		C178.3,124,210.8,156.4,250.6,156.4z"/>
	<g>
		<path class="st9" d="M250.6,127.7c-4,0-7.2-3.2-7.2-7.2v-9.5c0-4,3.2-7.2,7.2-7.2s7.2,3.2,7.2,7.2v9.5
			C257.8,124.5,254.6,127.7,250.6,127.7L250.6,127.7z"/>
	</g>
	<g>
		<path class="st9" d="M250.6,63.7c-4,0-7.2-3.2-7.2-7.2v-8.9c0-4,3.2-7.2,7.2-7.2s7.2,3.2,7.2,7.2v8.9
			C257.8,60.5,254.6,63.7,250.6,63.7L250.6,63.7z"/>
	</g>
	<g>
		<path class="st11" d="M249.7,118.3c-6.5,0-10.6-0.8-16.7-4.8c-3.3-2.2-4.3-6.6-2.1-10c2.2-3.3,6.6-4.3,10-2.1
			c3.5,2.3,4.6,2.4,9.3,2.4c4.5,0,6.3-3.6,6.7-5.7c0.5-2.7-0.7-4.6-3.5-5.6c0,0-0.1,0-0.1-0.1l-10.4-3.9c-9.3-3.3-14.5-12-12.9-21.6
			c1.7-10.2,10.5-17.6,20.8-17.7c6.9,0,11,0.6,17.3,4.8c3.3,2.2,4.3,6.6,2.1,10c-2.2,3.3-6.6,4.3-10,2.1c-3.5-2.3-4.6-2.4-9.3-2.4
			c-4.5,0-6.3,3.6-6.7,5.7c-0.5,2.7,0.7,4.6,3.5,5.6c0,0,0.1,0,0.1,0.1l10.4,3.9c9.3,3.3,14.5,12,12.9,21.6
			c-1.7,10.2-10.5,17.6-20.8,17.7C250.1,118.3,249.9,118.3,249.7,118.3L249.7,118.3z"/>
	</g>
</g>
</svg>
