<svg enable-background="new 0 0 512 512" viewBox="0 0 512 512" xmlns="http://www.w3.org/2000/svg"><path d="m193.1 445.5c14.3 4.1 29.6-.4 39.9-11.1 9.8-10.1 23.2-15.8 37.1-16.3 15.4-.5 29.7-9.2 36.3-23.1 8.6-18 26.9-30.7 48.6-30.7 21.6 0 39.9 12.6 48.5 30.5 6.6 13.8 20.2 22.7 35.5 23.3 3 .1 5.9.5 8.8 1.1 33.4-41.8 53.2-94.7 53.2-152.2 0-135.3-109.7-245-245-245s-245 109.7-245 245c0 81.6 39.9 153.8 101.2 198.4 21.1-19.9 52.1-28.3 80.9-19.9z" fill="#535354"/><path d="m439.1 415.1c-15.3-.7-28.9-9.5-35.5-23.3-8.6-17.9-27-30.5-48.5-30.5-21.7 0-40 12.7-48.6 30.7-6.6 13.9-20.9 22.6-36.3 23.1-13.9.4-27.3 6.2-37.1 16.3-10.4 10.6-25.7 15.2-39.9 11.1-29.7-8.6-61.6.5-82.7 21.6 11 8.1 22.7 15.4 35.1 21.6 10.9-7 24.6-9.5 37.6-5.8 7.8 2.3 16.1-.2 21.8-6 5.3-5.5 12.7-8.6 20.2-8.9 8.4-.3 16.2-5 19.8-12.6 4.7-9.8 14.7-16.8 26.5-16.8s21.7 6.9 26.5 16.6c3.6 7.5 11 12.4 19.4 12.7 7.7.3 15.1 3.7 20.4 9.3 5.6 6 14.3 8.2 22.2 5.8 6.5-2 13.1-2.4 19.5-1.5 27.3-16 51.3-37.1 70.6-62-3.7-.7-7.3-1.2-11-1.4z" fill="#3d3d3d"/><path d="m285.9 439.4c5.2 3 9.4 7.5 12 12.8 2.6 5.4 7.2 9.4 12.6 11.4 12.9-63.5-20.4-114.7-20.4-114.7 8.9 34.4 3.8 66.2-4.2 90.5z" fill="#58e0d9"/><path d="m310.5 463.6c3.6-17.6 3.6-34.2 1.8-49.1-.7-.1-1.4-.1-2 0-7.8 1.4-11.8-2.2-13.8-5.4-.7-1.2-1.8-2-3-2.5-1.6 11.9-4.3 23-7.6 32.8 5.2 3 9.4 7.5 12 12.8 2.6 5.4 7.1 9.5 12.6 11.4z" fill="#1fc9c9"/><path d="m331.4 235.3c-41.9 17.2-58.9 42-65.6 61.3 1.5 2.8 3.1 5.5 4.9 8.3 6.6 10.4 11.6 20.7 15.3 30.9-6.4-60 43.1-83.1 52.2-86.8-2.8-4.2-5.1-8.8-6.8-13.7z" fill="#58e0d9"/><path d="m230.1 237.6c-11.6-7.3-26.8-13.4-46.6-16.7-.4 5.3-1.4 10.3-3.1 15.1 13.2 2.8 40.8 11.9 56.4 39.6-4.1-13.2-6.1-26-6.7-38z" fill="#58e0d9"/><g fill="#1fc9c9"><path d="m293.9 214.9c-1.8-1.2-4.1-1.2-5.9 0-6.6 4.4-11 11.9-11 20.4s4.4 16 11 20.4c1.8 1.2 4.1 1.2 5.9 0 6.6-4.4 11-11.9 11-20.4 0-8.6-4.4-16.1-11-20.4z"/><path d="m327.3 335.5c-.2-2.1-1.7-3.9-3.7-4.6-7.6-2.4-16.1-1-22.7 4.4s-9.6 13.5-8.8 21.4c.2 2.1 1.7 3.9 3.7 4.6 7.6 2.4 16.1 1 22.7-4.4 6.5-5.4 9.6-13.5 8.8-21.4z"/><path d="m234.2 348.4c9.1-22.6-10.2-46.2-34.1-41.8-9.7 1.8-19.1 5.9-27.2 12.6-16.3 13.3-23.8 33.4-21.8 52.9.5 5.2 4.2 9.7 9.2 11.3 18.7 5.8 39.9 2.5 56.2-10.9 8.1-6.7 14-15 17.7-24.1z"/></g><path d="m151 372.1c.5 5.2 4.2 9.7 9.2 11.3 18.7 5.8 39.9 2.5 56.2-10.9 1.6-1.3 3-2.6 4.4-4-37.5 2.7-29.2-30.9-29.2-30.9-20.5 2.3-18.8-18.4-18.8-18.4-16.3 13.3-23.8 33.4-21.8 52.9z" fill="#00a0a3"/><path d="m251.9 443c5.1-4.6 11.9-7.4 19.5-7.4 5.6 0 10.8 1.6 15.3 4.3 11.5-34.5 17.1-84.3-15-135.1-37.5-59.1-22.6-120.7-17.5-137.5-1.2.1-2.4.1-3.6.1-4 0-7.9-.3-11.7-.8-6.3 16.6-25.1 76.9 8.2 138.2 29.3 54.1 19.2 104.5 4.8 138.2z" fill="#1fc9c9"/><path d="m286.7 439.9c3.3-9.8 6.1-20.9 7.7-32.8-1.4-.8-3-1.1-4.7-.7-11.4 2.9-18.6-2.2-22.2-6.1-.8-.9-1.9-1.4-3-1.7-2.3 16.7-7.1 31.7-12.6 44.4 5.1-4.6 11.9-7.4 19.5-7.4 5.6 0 10.8 1.6 15.3 4.3z" fill="#00a0a3"/><path d="m228.3 223.9c-3 0-5.8-1.9-6.8-4.9-5.8-17-20.1-18.9-20.7-19-4-.4-6.8-3.9-6.4-7.9s4-6.8 8-6.4c1 .1 23.9 2.8 32.8 28.7 1.3 3.8-.7 7.9-4.5 9.2-.9.2-1.6.3-2.4.3z" fill="#58e0d9"/><path d="m175.6 354.3c-3-2.6-3.3-7.2-.6-10.2 14-15.8 29.6-24.2 46.5-25 25.6-1.2 44.1 15.8 44.9 16.5 2.9 2.7 3.1 7.3.4 10.2s-7.3 3.1-10.2.4c-.3-.2-15.2-13.7-34.5-12.7-12.8.7-24.9 7.4-36.2 20.2-2.8 3-7.4 3.3-10.3.6z" fill="#58e0d9"/><path d="m359.8 478.1c-7.9 2.4-16.6.3-22.2-5.8-5.3-5.7-12.7-9-20.4-9.3-8.3-.4-15.8-5.2-19.4-12.7-4.7-9.8-14.7-16.6-26.5-16.6s-21.8 6.9-26.5 16.8c-3.6 7.6-11.4 12.3-19.8 12.6-7.6.2-14.9 3.4-20.2 8.9-5.6 5.8-14 8.3-21.8 6-13.7-4-28.2-1-39.3 6.9 33.7 17.3 71.9 27.1 112.3 27.1 46.1 0 89.2-12.7 126-34.9-7.2-1.4-14.8-1.2-22.2 1z" fill="#d86e05"/><path d="m247.7 497.6c2.6-7.2 7.9-13.1 14.7-16.5 7.5-3.8 12.6-11.3 12.7-19.7.1-9 4.4-17.7 11.9-23.2-4.5-2.8-9.8-4.4-15.5-4.4-11.8 0-21.8 6.9-26.5 16.8-3.6 7.6-11.4 12.3-19.8 12.6-7.6.2-14.9 3.4-20.2 8.9-5.6 5.8-14 8.3-21.8 6-13.7-4-28.2-1-39.3 6.9 27.6 14.3 58.3 23.4 90.8 26.2 6-2.4 10.7-7.4 13-13.6z" fill="#af5605"/><circle cx="385.6" cy="216.9" fill="#f9dea2" r="57.7"/><path d="m406.2 239.3s.7-17-20.7-22.4c-21.3-5.4-18.2-27.2-18.2-27.2-18.9 0-17.3-18.3-17.3-18.3-13.5 10.6-22.2 27-22.2 45.4 0 31.8 25.8 57.7 57.7 57.7 16.5 0 31.4-7 42-18.1-20.6 2.9-21.3-17.1-21.3-17.1z" fill="#ffce43"/><path d="m385.6 262.3c-5 0-9.1-4.1-9.1-9.1v-9.4c0-5 4.1-9.1 9.1-9.1s9.1 4.1 9.1 9.1v9.4c0 5-4.1 9.1-9.1 9.1z" fill="#ff8602"/><path d="m385.6 198.6c-5 0-9.1-4.1-9.1-9.1v-8.8c0-5 4.1-9.1 9.1-9.1s9.1 4.1 9.1 9.1v8.8c0 5-4.1 9.1-9.1 9.1z" fill="#ff8602"/><path d="m385.6 281.9c-35.8 0-65-29.1-65-65s29.1-65 65-65 65 29.1 65 65-29.2 65-65 65zm0-115.4c-27.8 0-50.3 22.6-50.3 50.4s22.6 50.3 50.3 50.3c27.8 0 50.4-22.6 50.4-50.3-.1-27.8-22.7-50.4-50.4-50.4z" fill="#ffce43"/><path d="m417.5 255.8c-8.7 7.1-19.8 11.4-31.9 11.4-27.8 0-50.3-22.6-50.3-50.3 0-14.5 6.2-27.6 16.1-36.8-9.7-.4-11.1-6.3-11.1-9.6-12.1 11.8-19.6 28.3-19.6 46.5 0 35.8 29.1 65 65 65 16 0 30.6-5.8 41.9-15.4-11.1-.1-10.1-10.8-10.1-10.8z" fill="#ffb332"/><path d="m384.7 252.9c-6.9 0-11.2-.8-17.7-5.1-4.2-2.8-5.4-8.4-2.6-12.6s8.4-5.4 12.6-2.6c3 2 3.8 2.1 8.2 2.1 3.2 0 4.5-2.5 4.8-4 .4-2.2-.9-2.9-2.2-3.4-.1 0-.1 0-.2-.1l-10.3-3.9c-10.2-3.6-15.8-13.1-14.1-23.6 1.9-11.1 11.4-19.2 22.7-19.3 7.2-.1 11.6.7 18.3 5.1 4.2 2.8 5.4 8.4 2.6 12.7-2.8 4.2-8.4 5.4-12.6 2.6-3-2-3.8-2.1-8.2-2.1-3.2 0-4.5 2.5-4.8 4-.4 2.2.9 2.9 2.2 3.4.1 0 .1 0 .2.1l10.3 3.9c10.2 3.6 15.8 13.1 14.1 23.6-1.9 11.1-11.4 19.2-22.7 19.3-.2-.1-.4-.1-.6-.1z" fill="#f9a52b"/><circle cx="126.6" cy="216.9" fill="#f9dea2" r="57.7"/><path d="m147.3 239.3s.7-17-20.7-22.4c-21.3-5.4-18.2-27.2-18.2-27.2-18.9 0-17.3-18.3-17.3-18.3-13.4 10.6-22.1 27-22.1 45.5 0 31.8 25.8 57.7 57.7 57.7 16.5 0 31.4-7 42-18.1-20.7 2.8-21.4-17.2-21.4-17.2z" fill="#ffce43"/><path d="m126.6 262.3c-5 0-9.1-4.1-9.1-9.1v-9.4c0-5 4.1-9.1 9.1-9.1s9.1 4.1 9.1 9.1v9.4c.1 5-4 9.1-9.1 9.1z" fill="#ff8602"/><path d="m126.6 198.6c-5 0-9.1-4.1-9.1-9.1v-8.8c0-5 4.1-9.1 9.1-9.1s9.1 4.1 9.1 9.1v8.8c.1 5-4 9.1-9.1 9.1z" fill="#ff8602"/><path d="m126.6 281.9c-35.8 0-65-29.1-65-65s29.1-65 65-65 65 29.1 65 65-29.1 65-65 65zm0-115.4c-27.8 0-50.3 22.6-50.3 50.4s22.6 50.3 50.3 50.3 50.4-22.6 50.4-50.3c0-27.8-22.6-50.4-50.4-50.4z" fill="#ffce43"/><path d="m158.6 255.8c-8.7 7.1-19.8 11.4-31.9 11.4-27.8 0-50.3-22.6-50.3-50.3 0-14.5 6.2-27.6 16.1-36.8-9.7-.4-11.1-6.3-11.1-9.6-12.1 11.8-19.6 28.3-19.6 46.5 0 35.8 29.1 65 65 65 16 0 30.6-5.8 41.9-15.4-11.1-.1-10.1-10.8-10.1-10.8z" fill="#ffb332"/><path d="m125.7 252.9c-6.9 0-11.2-.8-17.7-5.1-4.2-2.8-5.4-8.4-2.6-12.6s8.4-5.4 12.7-2.6c3 2 3.8 2.1 8.2 2.1 3.2 0 4.5-2.5 4.8-4 .4-2.2-.9-2.9-2.2-3.4-.1 0-.1 0-.2-.1l-10.3-3.9c-10.2-3.6-15.8-13.1-14.1-23.6 1.9-11.1 11.4-19.2 22.7-19.3 7.2-.1 11.6.7 18.3 5.1 4.2 2.8 5.4 8.4 2.6 12.7-2.8 4.2-8.4 5.4-12.6 2.6-3-2-3.8-2.1-8.2-2.1-3.2 0-4.5 2.5-4.8 4-.4 2.2.9 2.9 2.2 3.4.1 0 .1 0 .2.1l10.3 3.8c10.2 3.6 15.8 13.1 14.1 23.6-1.9 11.1-11.4 19.2-22.7 19.3-.2 0-.4 0-.7 0z" fill="#f9a52b"/><ellipse cx="250.7" cy="84.1" fill="#ffce43" rx="84.1" ry="84.1" transform="matrix(.08999479 -.9959 .9959 .08999479 144.3422 326.2018)"/><path d="m166.5 84.1c0 46.5 37.7 84.1 84.1 84.1 22.5 0 42.8-8.8 57.9-23.2-.4-.3-.9-.6-1.4-.6-5.2-.7-6.2-4.1-6.2-6.5 0-1.2-.9-2.3-2.1-2.6-5.8-1.4-6.8-5.6-6.9-8.2 0-1.3-1-2.3-2.2-2.5-20.6-3.9-19.3-20-18.8-23.4.1-.5 0-1-.2-1.4-1-2.4-5.3-10.1-20.3-15.7-14.7-5.5-15-21-14.6-26.7.1-1.2-.7-2.3-1.9-2.7-11.7-4-11.6-14.8-10.9-19.6.2-1.3-.6-2.5-1.8-2.9-5.8-2-5.9-7-5.5-9.8.2-1.2-.5-2.3-1.6-2.8-3.8-1.7-4.2-5.1-4.1-7.4 0-.6-.1-1.2-.4-1.7-25.6 14.4-43.1 42-43.1 73.6z" fill="#ffb332"/><circle cx="250.6" cy="84.1" fill="#f9dea2" r="57.9"/><path d="m291.2 125.4c-.4-.4-.9-.7-1.4-.8-20.6-3.9-19.3-20-18.8-23.4.1-.5 0-1-.2-1.4-1-2.4-5.3-10.1-20.3-15.7-14.7-5.5-15-21-14.6-26.7.1-1.2-.7-2.3-1.9-2.7-11.7-4-11.6-14.8-10.9-19.6.1-.7-.1-1.3-.4-1.8-17.9 9.8-30.1 28.9-30.1 50.8 0 32 25.9 57.9 57.9 57.9 15.9 0 30.3-6.3 40.7-16.6z" fill="#ffce43"/><path d="m250.6 26.2c32 0 57.9 25.9 57.9 57.9s-25.9 57.9-57.9 57.9-57.9-25.9-57.9-57.9 25.9-57.9 57.9-57.9m0-14.4c-39.9 0-72.3 32.4-72.3 72.3s32.4 72.3 72.3 72.3 72.3-32.4 72.3-72.3-32.4-72.3-72.3-72.3z" fill="#ffb332"/><path d="m250.6 156.4c19.3 0 36.8-7.6 49.8-20-.4-.5-.9-.9-1.6-1.1-5.8-1.4-6.8-5.6-6.9-8.2 0-.7-.3-1.3-.8-1.8-10.5 10.3-24.8 16.6-40.6 16.6-32 0-57.9-25.9-57.9-57.9 0-21.9 12.1-40.9 30.1-50.8-.3-.5-.8-.9-1.4-1.1-5.8-2-5.9-7-5.5-9.8.1-.6 0-1.1-.3-1.6-22.2 12.3-37.3 36.1-37.3 63.3.1 40 32.6 72.4 72.4 72.4z" fill="#ff8602"/><path d="m250.6 127.7c-4 0-7.2-3.2-7.2-7.2v-9.5c0-4 3.2-7.2 7.2-7.2s7.2 3.2 7.2 7.2v9.5c0 4-3.2 7.2-7.2 7.2z" fill="#ff8602"/><path d="m250.6 63.7c-4 0-7.2-3.2-7.2-7.2v-8.9c0-4 3.2-7.2 7.2-7.2s7.2 3.2 7.2 7.2v8.9c0 4-3.2 7.2-7.2 7.2z" fill="#ff8602"/><path d="m249.7 118.3c-6.5 0-10.6-.8-16.7-4.8-3.3-2.2-4.3-6.6-2.1-10 2.2-3.3 6.6-4.3 10-2.1 3.5 2.3 4.6 2.4 9.3 2.4 4.5 0 6.3-3.6 6.7-5.7.5-2.7-.7-4.6-3.5-5.6 0 0-.1 0-.1-.1l-10.4-3.9c-9.3-3.3-14.5-12-12.9-21.6 1.7-10.2 10.5-17.6 20.8-17.7 6.9 0 11 .6 17.3 4.8 3.3 2.2 4.3 6.6 2.1 10-2.2 3.3-6.6 4.3-10 2.1-3.5-2.3-4.6-2.4-9.3-2.4-4.5 0-6.3 3.6-6.7 5.7-.5 2.7.7 4.6 3.5 5.6 0 0 .1 0 .1.1l10.4 3.9c9.3 3.3 14.5 12 12.9 21.6-1.7 10.2-10.5 17.6-20.8 17.7-.2 0-.4 0-.6 0z" fill="#f9a52b"/></svg>