<?xml version="1.0" encoding="utf-8"?>
<!-- Generator: Adobe Illustrator 24.2.3, SVG Export Plug-In . SVG Version: 6.00 Build 0)  -->
<svg version="1.1" id="Capa_1" xmlns="http://www.w3.org/2000/svg" xmlns:xlink="http://www.w3.org/1999/xlink" x="0px" y="0px"
	 viewBox="0 0 512 512" style="enable-background:new 0 0 512 512;" xml:space="preserve">
<style type="text/css">
	.st0{fill:#535354;}
	.st1{fill:#9B9A9A;}
	.st2{fill:#FCAB08;}
	.st3{fill:#FFA022;}
	.st4{fill:#FFB81F;}
	.st5{fill:#FF8602;}
	.st6{fill:#F47E14;}
</style>
<g>
	<path class="st0" d="M501,267c0,135.3-109.7,245-245,245S11,402.3,11,267S120.7,22,256,22S501,131.7,501,267z"/>
	<path class="st1" d="M289.5,146.4h-19.1v-124c6.5,0.4,12.8,1,19.1,1.9V146.4z M241.6,22.4c-6.5,0.4-12.8,1-19.1,1.9v122.1h19.1
		V22.4z M279.9,362.7v-70.8c0-5.3-4.3-9.6-9.6-9.6h-28.7c-5.3,0-9.6,4.3-9.6,9.6v95.7c0,5.3,4.3,9.6,9.6,9.6H256h0
		c21.1,0,38.3,17.1,38.3,38.3s-17.1,38.3-38.3,38.3c-18.5,0-34-13.2-37.5-30.6h-0.8c4.6,0,7-5.5,3.9-8.9l-32.5-35.6
		c-1-1.1-2.4-1.7-3.9-1.7l0,0c-2.9,0-5.3,2.4-5.3,5.3v40.9c3.8,38.7,36.5,68.9,76.2,68.9c42.3,0,76.6-34.3,76.6-76.6
		C332.6,401.5,310.5,372.8,279.9,362.7z"/>
	<path class="st2" d="M241.6,294.8v19.1c0,2.6-2.1,4.8-4.8,4.8h-19.1c-2.6,0-4.8-2.1-4.8-4.8v-19.1c0-2.6,2.1-4.8,4.8-4.8h19.1
		C239.5,290,241.6,292.1,241.6,294.8z M294.3,290h-19.1c-2.6,0-4.8,2.1-4.8,4.8v19.1c0,2.6,2.1,4.8,4.8,4.8h19.1
		c2.6,0,4.8-2.1,4.8-4.8v-19.1C299.1,292.1,296.9,290,294.3,290z"/>
	<path class="st3" d="M135.4,155.1l37.7-47h165.8l37.7,47v31.3l-75.4,94h-90.4l-75.4-94V155.1z"/>
	<path class="st4" d="M262.7,108.1l-95,118.5l-21.8-27.1l73.3-91.4H262.7z M338.9,108.1h-31.8L190.2,254.8l20.6,25.6h2.4l131.5-165
		L338.9,108.1z M367.6,144L258.9,280.4h42.3l75.4-94v-31.3L367.6,144z"/>
	<path class="st5" d="M289.5,103.3c0,18.5-15,33.5-33.5,33.5s-33.5-15-33.5-33.5s15-33.5,33.5-33.5S289.5,84.8,289.5,103.3z"/>
	<path class="st6" d="M270.4,103.3c0,7.9-6.4,14.4-14.4,14.4s-14.4-6.4-14.4-14.4S248.1,89,256,89S270.4,95.4,270.4,103.3z"/>
	<path class="st5" d="M304.8,299.5h-97.6c-2.6,0-4.8-2.1-4.8-4.8v-19.1c0-2.6,2.1-4.8,4.8-4.8h97.6c2.6,0,4.8,2.1,4.8,4.8v19.1
		C309.6,297.4,307.5,299.5,304.8,299.5z"/>
</g>
</svg>
