<svg enable-background="new 0 0 512 512" viewBox="0 0 512 512" xmlns="http://www.w3.org/2000/svg"><path d="m501 267c0 135.3-109.7 245-245 245s-245-109.7-245-245 109.7-245 245-245 245 109.7 245 245z" fill="#535354"/><path d="m289.5 146.4h-19.1v-124c6.5.4 12.8 1 19.1 1.9zm-47.9-124c-6.5.4-12.8 1-19.1 1.9v122.1h19.1zm38.3 340.3v-70.8c0-5.3-4.3-9.6-9.6-9.6h-28.7c-5.3 0-9.6 4.3-9.6 9.6v95.7c0 5.3 4.3 9.6 9.6 9.6h14.4c21.1 0 38.3 17.1 38.3 38.3s-17.1 38.3-38.3 38.3c-18.5 0-34-13.2-37.5-30.6h-.8c4.6 0 7-5.5 3.9-8.9l-32.5-35.6c-1-1.1-2.4-1.7-3.9-1.7-2.9 0-5.3 2.4-5.3 5.3v40.9c3.8 38.7 36.5 68.9 76.2 68.9 42.3 0 76.6-34.3 76.6-76.6-.1-34-22.2-62.7-52.8-72.8z" fill="#9b9a9a"/><path d="m241.6 294.8v19.1c0 2.6-2.1 4.8-4.8 4.8h-19.1c-2.6 0-4.8-2.1-4.8-4.8v-19.1c0-2.6 2.1-4.8 4.8-4.8h19.1c2.7 0 4.8 2.1 4.8 4.8zm52.7-4.8h-19.1c-2.6 0-4.8 2.1-4.8 4.8v19.1c0 2.6 2.1 4.8 4.8 4.8h19.1c2.6 0 4.8-2.1 4.8-4.8v-19.1c0-2.7-2.2-4.8-4.8-4.8z" fill="#fcab08"/><path d="m135.4 155.1 37.7-47h165.8l37.7 47v31.3l-75.4 94h-90.4l-75.4-94z" fill="#ffa022"/><path d="m262.7 108.1-95 118.5-21.8-27.1 73.3-91.4zm76.2 0h-31.8l-116.9 146.7 20.6 25.6h2.4l131.5-165zm28.7 35.9-108.7 136.4h42.3l75.4-94v-31.3z" fill="#ffb81f"/><path d="m289.5 103.3c0 18.5-15 33.5-33.5 33.5s-33.5-15-33.5-33.5 15-33.5 33.5-33.5 33.5 15 33.5 33.5z" fill="#ff8602"/><path d="m270.4 103.3c0 7.9-6.4 14.4-14.4 14.4s-14.4-6.4-14.4-14.4 6.5-14.3 14.4-14.3 14.4 6.4 14.4 14.3z" fill="#f47e14"/><path d="m304.8 299.5h-97.6c-2.6 0-4.8-2.1-4.8-4.8v-19.1c0-2.6 2.1-4.8 4.8-4.8h97.6c2.6 0 4.8 2.1 4.8 4.8v19.1c0 2.7-2.1 4.8-4.8 4.8z" fill="#ff8602"/></svg>