<svg enable-background="new 0 0 512 512" viewBox="0 0 512 512" xmlns="http://www.w3.org/2000/svg"><path d="m36.7 268.1c.1.5.1 1.1.1 1.6 0 9.2-7.5 16.7-16.7 16.7-3.4 0-6.5-1-9.1-2.7l12 20.6 26-15z" fill="#d3dcfb"/><path d="m256.1 22.6c-134.9 0-244.3 109.4-244.3 244.4 0 14.4 1.3 28.5 3.7 42.3l201.4 198.9c12.8 2.1 25.9 3.2 39.3 3.2 135 0 244.4-109.4 244.4-244.4s-109.5-244.4-244.5-244.4z" fill="#535354"/><ellipse cx="316.1" cy="59.1" fill="#ff8602" rx="59.1" ry="59.1"/><path d="m347.7 45.3c-5.3-9.8-17.9-13-27.6-7.6l-2.4 1.3c-1.1.6-2.4.6-3.5 0l-2.8-1.6c-9.8-5.5-22.2-1.8-27.4 8.2-4.9 9.4-1.6 21 7.6 26.3 7.7 4.5 15 10.1 21.2 16.8 1.7 1.8 4.6 1.8 6.3 0 6.2-6.7 13.5-12.3 21.2-16.8 9.3-5.3 12.5-17.1 7.4-26.6z" fill="#e9efff"/><ellipse cx="439.3" cy="281.7" fill="#ffb81f" rx="59.1" ry="59.1" transform="matrix(.7071 -.7071 .7071 .7071 -70.5245 393.1237)"/><path d="m412.8 252.7h53.1c4.7 0 8.5 3.8 8.5 8.5v37.7c0 4.7-3.8 8.5-8.5 8.5h-7.6c-.8 0-1.6.4-2.1 1.1l-5.2 8c-1.3 1.9-4.1 1.9-5.4 0l-5.2-8c-.5-.7-1.3-1.1-2.1-1.1h-25.4c-4.7 0-8.5-3.8-8.5-8.5v-37.7c-.1-4.7 3.7-8.5 8.4-8.5z" fill="#e9efff"/><path d="m158.1 401.2c-5.1 2.9-11.5 2.1-15.7-2l-.9-.9-19.9 11.5 39.5 41.3c.9-.4 1.7-.9 2.6-1.4 18.6-10.7 25-34.5 14.2-53.2-1-1.8-2.1-3.4-3.4-4.9z" fill="#bfddd8"/><path d="m142.4 399.2-.9-.9-19.9 11.5 39.5 41.3c.9-.4 1.7-.9 2.6-1.4 6.3-3.6 11.2-8.8 14.5-14.7-27.6-6.8-20.1-33.8-20.1-33.8-5.1 2.9-11.5 2.1-15.7-2z" fill="#a7c9c3"/><path d="m122.7 408.5-44.7 25.8c36.3 38.7 85.1 65.5 140 74.1z" fill="#daeae8"/><path d="m162.7 450.3-39.9-41.8-44.7 25.8c15.6 16.6 33.4 30.9 53.1 42.7-1.1-30.5 31.5-26.7 31.5-26.7z" fill="#bfddd8"/><path d="m79.6 436 64.4-37.2c-.9-.9-1.8-2-2.5-3.2l-67.4-116.9c-.7-1.2-1.2-2.5-1.5-3.7l-57.4 33c8.3 49.3 31.4 93.5 64.4 128z" fill="#f47e14"/><path d="m104.6 338v-6.4l-30.6-52.9c-.7-1.2-1.2-2.5-1.5-3.7l-57.3 33c4 23.8 11.5 46.4 21.8 67.3 1.4-12.8 9.9-17 9.9-17s17.5-10.2 32.7-18.6 25-1.7 25-1.7z" fill="#ff8f1f"/><path d="m218.1 361.6c45.5-18.1 94.2-20.7 139.6-9.7l-137.8-238.5c-13.1 44.8-39.7 85.7-78.2 116 2.8 1.2 5.3 3.3 7 6.2l67.5 116.9c1.7 2.9 2.3 6.1 1.9 9.1z" fill="#bfddd8"/><path d="m268.1 196.8-48.2-83.4c-13.1 44.8-39.7 85.7-78.2 116 2.8 1.2 5.3 3.3 7 6.2l32.9 56.9c38.5-27.8 68.1-61.4 86.5-95.7z" fill="#daeae8"/><path d="m212.8 371.5-53.8 31.1c-7.1 4.1-16.1 1.7-20.2-5.4l-67.5-116.9c-4.1-7.1-1.7-16.1 5.4-20.2l53.8-31.1c7.1-4.1 16.1-1.7 20.2 5.4l67.5 116.9c4 7.1 1.6 16.2-5.4 20.2z" fill="#ff8f1f"/><path d="m150.7 234.5c-4.1-7.1-13.1-9.5-20.2-5.4l-53.8 31.1c-7.1 4.1-9.5 13.1-5.4 20.2l33.3 57.7c3.8-16.8 17.8-9.3 17.8-9.3l44.7-25.8c2.1-16.2 16.3-11.7 16.3-11.7z" fill="#ffa022"/><g fill="#f47e14"><path d="m101.3 284.7c-2.6 0-5.1-1.3-6.5-3.7-2.1-3.6-.8-8.2 2.7-10.2l31.8-18.3c3.6-2.1 8.2-.8 10.2 2.7 2.1 3.6.8 8.2-2.7 10.2l-31.8 18.3c-1.2.7-2.5 1-3.7 1z"/><path d="m115 308.6c-2.6 0-5.1-1.3-6.5-3.7-2.1-3.6-.8-8.2 2.7-10.2l31.8-18.3c3.6-2.1 8.2-.8 10.2 2.7 2.1 3.6.8 8.2-2.7 10.2l-31.8 18.3c-1.1.7-2.4 1-3.7 1z"/><path d="m128.8 332.5c-2.6 0-5.1-1.3-6.5-3.7-2.1-3.6-.8-8.2 2.7-10.2l31.8-18.3c3.6-2.1 8.2-.8 10.2 2.7s.8 8.2-2.7 10.2l-31.8 18.3c-1.1.7-2.4 1-3.7 1z"/><path d="m142.6 356.4c-2.6 0-5.1-1.3-6.5-3.7-2.1-3.6-.8-8.2 2.7-10.2l31.8-18.3c3.6-2.1 8.2-.8 10.2 2.7 2.1 3.6.8 8.2-2.7 10.2l-31.8 18.3c-1.1.6-2.4 1-3.7 1z"/><path d="m156.4 380.2c-2.6 0-5.1-1.3-6.5-3.7-2.1-3.6-.8-8.2 2.7-10.2l31.8-18.3c3.6-2.1 8.2-.8 10.2 2.7 2.1 3.6.8 8.2-2.7 10.2l-31.8 18.3c-1.1.7-2.4 1-3.7 1z"/></g><path d="m376.9 359.3c-7.2 4.1-16.4 1.7-20.5-5.5l-138.7-240.3c-4.1-7.2-1.7-16.4 5.5-20.5s16.4-1.7 20.5 5.5l138.8 240.3c4.1 7.2 1.6 16.4-5.6 20.5z" fill="#daeae8"/><path d="m275.6 182.5c5.2-3 11.2-3 16.2-.7l-48.1-83.4c-4.1-7.2-13.3-9.6-20.5-5.5s-9.6 13.3-5.5 20.5l49.1 85.1c-.3-6.3 2.9-12.6 8.8-16z" fill="#eff9f8"/><circle cx="438.3" cy="137.9" fill="#1fc9c9" r="59.1"/><path d="m438.3 111.2c-17.5 0-32.8 9.6-41 23.8-1.1 1.8-1.1 4.1 0 6 8.1 14.2 23.4 23.8 41 23.8 17.5 0 32.8-9.6 41-23.8 1.1-1.8 1.1-4.1 0-6-8.1-14.3-23.4-23.8-41-23.8z" fill="#e9efff"/><path d="m423.4 113.6c-3.1 3.5-5 8.2-5 13.3 0 11 8.9 20 20 20s20-8.9 20-20c0-5.1-1.9-9.7-5-13.3-4.7-1.6-9.7-2.4-14.9-2.4-5.4 0-10.4.8-15.1 2.4z" fill="#47477f"/><circle cx="444.2" cy="123.9" fill="#5f5f9b" r="7.3"/></svg>