<?xml version="1.0" encoding="utf-8"?>
<!-- Generator: Adobe Illustrator 24.2.3, SVG Export Plug-In . SVG Version: 6.00 Build 0)  -->
<svg version="1.1" id="Layer_1" xmlns="http://www.w3.org/2000/svg" xmlns:xlink="http://www.w3.org/1999/xlink" x="0px" y="0px"
	 viewBox="0 0 512 512" style="enable-background:new 0 0 512 512;" xml:space="preserve">
<style type="text/css">
	.st0{fill:#D3DCFB;}
	.st1{fill:#535354;}
	.st2{fill:#FF8602;}
	.st3{fill:#E9EFFF;}
	.st4{fill:#FFB81F;}
	.st5{fill:#BFDDD8;}
	.st6{fill:#A7C9C3;}
	.st7{fill:#DAEAE8;}
	.st8{fill:#F47E14;}
	.st9{fill:#FF8F1F;}
	.st10{fill:#FFA022;}
	.st11{fill:#EFF9F8;}
	.st12{fill:#1FC9C9;}
	.st13{fill:#47477F;}
	.st14{fill:#5F5F9B;}
</style>
<g>
	<path class="st0" d="M36.7,268.1c0.1,0.5,0.1,1.1,0.1,1.6c0,9.2-7.5,16.7-16.7,16.7c-3.4,0-6.5-1-9.1-2.7L23,304.3l26-15
		L36.7,268.1z"/>
	<path class="st1" d="M256.1,22.6C121.2,22.6,11.8,132,11.8,267c0,14.4,1.3,28.5,3.7,42.3l201.4,198.9c12.8,2.1,25.9,3.2,39.3,3.2
		c135,0,244.4-109.4,244.4-244.4S391.1,22.6,256.1,22.6L256.1,22.6z"/>
	<g>
		<ellipse class="st2" cx="316.1" cy="59.1" rx="59.1" ry="59.1"/>
		<path class="st3" d="M347.7,45.3c-5.3-9.8-17.9-13-27.6-7.6l-2.4,1.3c-1.1,0.6-2.4,0.6-3.5,0l-2.8-1.6c-9.8-5.5-22.2-1.8-27.4,8.2
			h0c-4.9,9.4-1.6,21,7.6,26.3c7.7,4.5,15,10.1,21.2,16.8c1.7,1.8,4.6,1.8,6.3,0c6.2-6.7,13.5-12.3,21.2-16.8
			C349.6,66.6,352.8,54.8,347.7,45.3L347.7,45.3z"/>
	</g>
	<g>
		
			<ellipse transform="matrix(0.7071 -0.7071 0.7071 0.7071 -70.5245 393.1237)" class="st4" cx="439.3" cy="281.7" rx="59.1" ry="59.1"/>
		<path class="st3" d="M412.8,252.7h53.1c4.7,0,8.5,3.8,8.5,8.5v37.7c0,4.7-3.8,8.5-8.5,8.5h-7.6c-0.8,0-1.6,0.4-2.1,1.1l-5.2,8
			c-1.3,1.9-4.1,1.9-5.4,0l-5.2-8c-0.5-0.7-1.3-1.1-2.1-1.1h-25.4c-4.7,0-8.5-3.8-8.5-8.5v-37.7
			C404.3,256.5,408.1,252.7,412.8,252.7L412.8,252.7z"/>
	</g>
	<path class="st5" d="M158.1,401.2c-5.1,2.9-11.5,2.1-15.7-2l-0.9-0.9l-19.9,11.5l39.5,41.3c0.9-0.4,1.7-0.9,2.6-1.4
		c18.6-10.7,25-34.5,14.2-53.2c-1-1.8-2.1-3.4-3.4-4.9L158.1,401.2z"/>
	<path class="st6" d="M142.4,399.2l-0.9-0.9l-19.9,11.5l39.5,41.3c0.9-0.4,1.7-0.9,2.6-1.4c6.3-3.6,11.2-8.8,14.5-14.7
		c-27.6-6.8-20.1-33.8-20.1-33.8C153,404.1,146.6,403.3,142.4,399.2L142.4,399.2z"/>
	<path class="st7" d="M122.7,408.5l-44.7,25.8c36.3,38.7,85.1,65.5,140,74.1L122.7,408.5z"/>
	<path class="st5" d="M162.7,450.3l-39.9-41.8l-44.7,25.8c15.6,16.6,33.4,30.9,53.1,42.7C130.1,446.5,162.7,450.3,162.7,450.3
		L162.7,450.3z"/>
	<path class="st8" d="M79.6,436l64.4-37.2c-0.9-0.9-1.8-2-2.5-3.2L74.1,278.7c-0.7-1.2-1.2-2.5-1.5-3.7L15.2,308
		C23.5,357.3,46.6,401.5,79.6,436L79.6,436z"/>
	<path class="st9" d="M104.6,338l0-6.4l-30.6-52.9c-0.7-1.2-1.2-2.5-1.5-3.7L15.2,308c4,23.8,11.5,46.4,21.8,67.3
		c1.4-12.8,9.9-17,9.9-17s17.5-10.2,32.7-18.6C94.8,331.3,104.6,338,104.6,338z"/>
	<g>
		<path class="st5" d="M218.1,361.6c45.5-18.1,94.2-20.7,139.6-9.7L219.9,113.4c-13.1,44.8-39.7,85.7-78.2,116
			c2.8,1.2,5.3,3.3,7,6.2l67.5,116.9C217.9,355.4,218.5,358.6,218.1,361.6L218.1,361.6z"/>
	</g>
	<g>
		<path class="st7" d="M268.1,196.8l-48.2-83.4c-13.1,44.8-39.7,85.7-78.2,116c2.8,1.2,5.3,3.3,7,6.2l32.9,56.9
			C220.1,264.7,249.7,231.1,268.1,196.8L268.1,196.8z"/>
	</g>
	<path class="st9" d="M212.8,371.5l-53.8,31.1c-7.1,4.1-16.1,1.7-20.2-5.4L71.3,280.3c-4.1-7.1-1.7-16.1,5.4-20.2l53.8-31.1
		c7.1-4.1,16.1-1.7,20.2,5.4l67.5,116.9C222.2,358.4,219.8,367.5,212.8,371.5L212.8,371.5z"/>
	<path class="st10" d="M150.7,234.5c-4.1-7.1-13.1-9.5-20.2-5.4l-53.8,31.1c-7.1,4.1-9.5,13.1-5.4,20.2l33.3,57.7
		c3.8-16.8,17.8-9.3,17.8-9.3l44.7-25.8c2.1-16.2,16.3-11.7,16.3-11.7L150.7,234.5z"/>
	<g>
		<path class="st8" d="M101.3,284.7c-2.6,0-5.1-1.3-6.5-3.7c-2.1-3.6-0.8-8.2,2.7-10.2l31.8-18.3c3.6-2.1,8.2-0.8,10.2,2.7
			c2.1,3.6,0.8,8.2-2.7,10.2L105,283.7C103.8,284.4,102.5,284.7,101.3,284.7L101.3,284.7z"/>
	</g>
	<g>
		<path class="st8" d="M115,308.6c-2.6,0-5.1-1.3-6.5-3.7c-2.1-3.6-0.8-8.2,2.7-10.2l31.8-18.3c3.6-2.1,8.2-0.8,10.2,2.7
			c2.1,3.6,0.8,8.2-2.7,10.2l-31.8,18.3C117.6,308.3,116.3,308.6,115,308.6z"/>
	</g>
	<g>
		<path class="st8" d="M128.8,332.5c-2.6,0-5.1-1.3-6.5-3.7c-2.1-3.6-0.8-8.2,2.7-10.2l31.8-18.3c3.6-2.1,8.2-0.8,10.2,2.7
			s0.8,8.2-2.7,10.2l-31.8,18.3C131.4,332.2,130.1,332.5,128.8,332.5z"/>
	</g>
	<g>
		<path class="st8" d="M142.6,356.4c-2.6,0-5.1-1.3-6.5-3.7c-2.1-3.6-0.8-8.2,2.7-10.2l31.8-18.3c3.6-2.1,8.2-0.8,10.2,2.7
			c2.1,3.6,0.8,8.2-2.7,10.2l-31.8,18.3C145.2,356,143.9,356.4,142.6,356.4z"/>
	</g>
	<g>
		<path class="st8" d="M156.4,380.2c-2.6,0-5.1-1.3-6.5-3.7c-2.1-3.6-0.8-8.2,2.7-10.2l31.8-18.3c3.6-2.1,8.2-0.8,10.2,2.7
			c2.1,3.6,0.8,8.2-2.7,10.2l-31.8,18.3C159,379.9,157.7,380.2,156.4,380.2z"/>
	</g>
	<g>
		<path class="st7" d="M376.9,359.3c-7.2,4.1-16.4,1.7-20.5-5.5L217.7,113.5c-4.1-7.2-1.7-16.4,5.5-20.5c7.2-4.1,16.4-1.7,20.5,5.5
			l138.8,240.3C386.6,346,384.1,355.2,376.9,359.3L376.9,359.3z"/>
	</g>
	<path class="st11" d="M275.6,182.5c5.2-3,11.2-3,16.2-0.7l-48.1-83.4c-4.1-7.2-13.3-9.6-20.5-5.5c-7.2,4.1-9.6,13.3-5.5,20.5
		l49.1,85.1C266.5,192.2,269.7,185.9,275.6,182.5L275.6,182.5z"/>
	<g>
		<circle class="st12" cx="438.3" cy="137.9" r="59.1"/>
		<path class="st3" d="M438.3,111.2c-17.5,0-32.8,9.6-41,23.8c-1.1,1.8-1.1,4.1,0,6c8.1,14.2,23.4,23.8,41,23.8
			c17.5,0,32.8-9.6,41-23.8c1.1-1.8,1.1-4.1,0-6C471.2,120.7,455.9,111.2,438.3,111.2z"/>
		<path class="st13" d="M423.4,113.6c-3.1,3.5-5,8.2-5,13.3c0,11,8.9,20,20,20s20-8.9,20-20c0-5.1-1.9-9.7-5-13.3
			c-4.7-1.6-9.7-2.4-14.9-2.4C433.1,111.2,428.1,112,423.4,113.6L423.4,113.6z"/>
		<circle class="st14" cx="444.2" cy="123.9" r="7.3"/>
	</g>
</g>
</svg>
