<?xml version="1.0" encoding="utf-8"?>
<!-- Generator: Adobe Illustrator 24.2.3, SVG Export Plug-In . SVG Version: 6.00 Build 0)  -->
<svg version="1.1" id="Capa_1" xmlns="http://www.w3.org/2000/svg" xmlns:xlink="http://www.w3.org/1999/xlink" x="0px" y="0px"
	 viewBox="0 0 512 512" style="enable-background:new 0 0 512 512;" xml:space="preserve">
<style type="text/css">
	.st0{fill:#535354;}
	.st1{fill:#FF8F1F;}
	.st2{fill:#F47E14;}
	.st3{fill:#F9B04E;}
	.st4{fill:#DAEAE8;}
	.st5{fill:#04B2B2;}
	.st6{fill:#00A0A3;}
	.st7{fill:#FFB81F;}
	.st8{fill:#F79A06;}
	.st9{fill:#46CCC2;}
	.st10{fill:#58E0D9;}
	.st11{fill:#BFDDD8;}
	.st12{fill:#F9D39B;}
	.st13{fill:#89F7F4;}
	.st14{fill:#898989;}
	.st15{fill:#9E9E9E;}
</style>
<g>
	<path class="st0" d="M501,267c0,135.3-109.7,245-245,245c-75.6,0-143.2-34.2-188.1-88c-2-2.4,6.8-4.8,4.9-7.2
		c-32-41.4-51.1-93.3-51.1-149.7c0-69.1,17.9-131.4,63.9-176C129.6,48.3,189.7,22,256,22C391.3,22,501,131.7,501,267z"/>
	<path class="st0" d="M78,98.7v296.6c0,5.3-4.3,9.6-9.6,9.6h-15C26.6,365.5,11,318.1,11,267C11,201.8,36.5,142.6,78,98.7z"/>
	<path class="st1" d="M373.3,337.3L290,358.9c-5.1,1.3-10.3-1.7-11.7-6.9L201.4,55.6c-1.3-5.1,1.7-10.3,6.9-11.7l83.4-21.6
		c5.1-1.3,10.3,1.7,11.7,6.9l76.9,296.4C381.5,330.7,378.5,335.9,373.3,337.3L373.3,337.3z"/>
	<path class="st2" d="M306.8,354.5l-16.9,4.4c-5.1,1.3-10.3-1.7-11.7-6.9L201.4,55.6c-1.3-5.1,1.7-10.3,6.9-11.7l16.5-4.3l81,312.4
		C306,352.9,306.4,353.8,306.8,354.5L306.8,354.5z"/>
	<path class="st3" d="M298.1,138.9c1.1,4.4-1.5,8.8-5.9,9.9l-22.7,5.9c-4.4,1.1-8.8-1.5-9.9-5.9c-1.1-4.4,1.5-8.8,5.9-9.9l22.7-5.9
		C292.5,131.9,297,134.5,298.1,138.9z M288.6,84.2c4.4-1.1,7-5.6,5.9-9.9c-1.1-4.4-5.6-7-9.9-5.9l-48.9,12.7c-4.4,1.1-7,5.6-5.9,9.9
		c1.1,4.4,5.6,7,9.9,5.9L288.6,84.2z M302.8,104.9c-1.1-4.4-5.6-7-9.9-5.9L244,111.7c-4.4,1.1-7,5.6-5.9,9.9c1.1,4.4,5.6,7,9.9,5.9
		l48.9-12.7C301.4,113.7,304,109.2,302.8,104.9z M347.7,302.5l-48.1,12.5c-5.1,1.3-10.3-1.7-11.7-6.9L257,188.9
		c-1.3-5.1,1.7-10.3,6.9-11.7l48.1-12.5c5.1-1.3,10.3,1.7,11.7,6.9l30.9,119.2C355.9,295.9,352.8,301.1,347.7,302.5z"/>
	<path class="st4" d="M313.2,270.8c-4.4,1.1-8.8-1.5-9.9-5.9L290.6,216c-1.1-4.4,1.5-8.8,5.9-9.9c4.4-1.1,8.8,1.5,9.9,5.9l12.7,48.9
		C320.2,265.2,317.6,269.6,313.2,270.8z"/>
	<path class="st5" d="M405.8,353.8l-11.1,2.9c-5.1,1.3-10.3-1.7-11.7-6.9L306.1,53.4c-1.3-5.1,1.7-10.3,6.9-11.7l11.1-2.9
		c5.1-1.3,10.3,1.7,11.7,6.9l76.9,296.4C414,347.2,410.9,352.4,405.8,353.8L405.8,353.8z"/>
	<path class="st6" d="M400.8,355.1l-6.1,1.6c-5.1,1.3-10.3-1.7-11.7-6.9L306.1,53.4c-1.3-5.1,1.7-10.3,6.9-11.7l6.1-1.6L400.8,355.1
		z"/>
	<path class="st7" d="M154.6,404.8H78c-5.3,0-9.6-4.3-9.6-9.6V89c0-5.3,4.3-9.6,9.6-9.6h76.6c5.3,0,9.6,4.3,9.6,9.6v306.2
		C164.1,400.5,159.8,404.8,154.6,404.8z"/>
	<path class="st8" d="M105.1,404.8H78c-5.3,0-9.6-4.3-9.6-9.6V89c0-5.3,4.3-9.6,9.6-9.6h27.1c-5.3,0-9.6,4.3-9.6,9.6v306.2
		C95.5,400.5,99.8,404.8,105.1,404.8z"/>
	<path class="st9" d="M201.4,404.8h-28.7c-5.3,0-9.6-4.3-9.6-9.6V89c0-5.3,4.3-9.6,9.6-9.6h28.7c5.3,0,9.6,4.3,9.6,9.6v306.2
		C211,400.5,206.7,404.8,201.4,404.8z"/>
	<path class="st10" d="M201.4,404.8h-4.8c-5.3,0-9.6-4.3-9.6-9.6V89c0-5.3,4.3-9.6,9.6-9.6h4.8c5.3,0,9.6,4.3,9.6,9.6v306.2
		C211,400.5,206.7,404.8,201.4,404.8z"/>
	<path class="st4" d="M489.2,351.1v28.7c0,5.3-4.3,9.6-9.6,9.6H218.4c-5.3,0-9.6-4.3-9.6-9.6v-28.7c0-5.3,4.3-9.6,9.6-9.6h261.3
		C484.9,341.6,489.2,345.8,489.2,351.1z"/>
	<path class="st11" d="M254,389.4h-30c-5.3,0-9.6-4.3-9.6-9.6v-28.7c0-5.3,4.3-9.6,9.6-9.6h30c-5.3,0-9.6,4.3-9.6,9.6v28.7
		C244.4,385.1,248.7,389.4,254,389.4z"/>
	<path class="st1" d="M452.8,349v20.8c0,4.1-3.4,7.5-7.5,7.5s-7.5-3.4-7.5-7.5V349c0-4.1,3.4-7.5,7.5-7.5
		C449.4,341.6,452.8,344.9,452.8,349L452.8,349z"/>
	<path class="st8" d="M259.6,389.4c0,4-3.2,7.2-7.2,7.2h-33.8c-9.4,0-17-7.5-17-16.7v-28.7c0-9.2,7.6-16.7,17-16.7h33.8
		c4,0,7.2,3.2,7.2,7.2s-3.2,7.2-7.2,7.2h-33.8c-1.4,0-2.6,1.1-2.6,2.4v28.7c0,1.3,1.2,2.4,2.6,2.4h33.8
		C256.4,382.2,259.6,385.4,259.6,389.4z"/>
	<path class="st7" d="M238.4,341.6c0-4,3.2-7.2,7.2-7.2h242.1c4,0,7.3,3.3,7.2,7.4c-0.1,3.9-3.5,7-7.5,7H245.6
		C241.6,348.7,238.4,345.5,238.4,341.6L238.4,341.6z M487.3,382.2H245.6c-4,0-7.2,3.2-7.2,7.2s3.2,7.2,7.2,7.2h242.1
		c4,0,7.3-3.3,7.2-7.4C494.7,385.3,491.3,382.2,487.3,382.2z"/>
	<path class="st12" d="M145,311.6H87.6c-2.6,0-4.8-2.1-4.8-4.8V158.2c0-2.6,2.1-4.8,4.8-4.8H145c2.6,0,4.8,2.1,4.8,4.8v148.5
		C149.8,309.4,147.6,311.6,145,311.6z M149.8,356.3V340c0-2.6-2.1-4.8-4.8-4.8H87.6c-2.6,0-4.8,2.1-4.8,4.8v16.3
		c0,2.6,2.1,4.8,4.8,4.8H145C147.6,361,149.8,358.9,149.8,356.3z M145,129.8H87.6c-2.6,0-4.8-2.1-4.8-4.8v-16.3
		c0-2.6,2.1-4.8,4.8-4.8H145c2.6,0,4.8,2.1,4.8,4.8V125C149.8,127.7,147.6,129.8,145,129.8z"/>
	<path class="st7" d="M102.4,297.7c-4,0-7.2-3.2-7.2-7.2V174.5c0-4,3.2-7.2,7.2-7.2c4,0,7.2,3.2,7.2,7.2v116.1
		C109.6,294.5,106.4,297.7,102.4,297.7z M136.7,282.7V182.3c0-4-3.2-7.2-7.2-7.2c-4,0-7.2,3.2-7.2,7.2v100.4c0,4,3.2,7.2,7.2,7.2
		C133.4,289.9,136.7,286.7,136.7,282.7z"/>
	<path class="st13" d="M187.1,293.9c-4,0-7.2-3.2-7.2-7.2V186.3c0-4,3.2-7.2,7.2-7.2s7.2,3.2,7.2,7.2v100.4
		C194.3,290.7,191,293.9,187.1,293.9z"/>
	<path class="st14" d="M179.4,413.8v43.7c0,7.9-6.4,14.4-14.4,14.4s-14.4-6.4-14.4-14.4v-43.7c0-7.9,6.4-14.4,14.4-14.4
		S179.4,405.8,179.4,413.8z M346.9,399.4c-7.9,0-14.4,6.4-14.4,14.4v43.7c0,7.9,6.4,14.4,14.4,14.4s14.4-6.4,14.4-14.4v-43.7
		C361.3,405.8,354.8,399.4,346.9,399.4z"/>
	<path class="st14" d="M317.2,409.6c0,7.9-6.4,14.4-14.4,14.4h-235c-7.6-9-14.5-18.6-20.7-28.7h255.7
		C310.8,395.2,317.2,401.7,317.2,409.6z"/>
	<path class="st15" d="M481.9,409.6c0,7.9-6.4,14.4-14.4,14.4H130.6c-7.9,0-14.4-6.4-14.4-14.4s6.4-14.4,14.4-14.4h336.9
		C475.4,395.2,481.9,401.7,481.9,409.6z"/>
</g>
</svg>
