<svg enable-background="new 0 0 512 512" viewBox="0 0 512 512" xmlns="http://www.w3.org/2000/svg"><path d="m501 267c0 135.3-109.7 245-245 245-75.6 0-143.2-34.2-188.1-88-2-2.4 6.8-4.8 4.9-7.2-32-41.4-51.1-93.3-51.1-149.7 0-69.1 17.9-131.4 63.9-176 44-42.8 104.1-69.1 170.4-69.1 135.3 0 245 109.7 245 245z" fill="#535354"/><path d="m78 98.7v296.6c0 5.3-4.3 9.6-9.6 9.6h-15c-26.8-39.4-42.4-86.8-42.4-137.9 0-65.2 25.5-124.4 67-168.3z" fill="#535354"/><path d="m373.3 337.3-83.3 21.6c-5.1 1.3-10.3-1.7-11.7-6.9l-76.9-296.4c-1.3-5.1 1.7-10.3 6.9-11.7l83.4-21.6c5.1-1.3 10.3 1.7 11.7 6.9l76.9 296.4c1.2 5.1-1.8 10.3-7 11.7z" fill="#ff8f1f"/><path d="m306.8 354.5-16.9 4.4c-5.1 1.3-10.3-1.7-11.7-6.9l-76.8-296.4c-1.3-5.1 1.7-10.3 6.9-11.7l16.5-4.3 81 312.4c.2.9.6 1.8 1 2.5z" fill="#f47e14"/><path d="m298.1 138.9c1.1 4.4-1.5 8.8-5.9 9.9l-22.7 5.9c-4.4 1.1-8.8-1.5-9.9-5.9s1.5-8.8 5.9-9.9l22.7-5.9c4.3-1.1 8.8 1.5 9.9 5.9zm-9.5-54.7c4.4-1.1 7-5.6 5.9-9.9-1.1-4.4-5.6-7-9.9-5.9l-48.9 12.7c-4.4 1.1-7 5.6-5.9 9.9 1.1 4.4 5.6 7 9.9 5.9zm14.2 20.7c-1.1-4.4-5.6-7-9.9-5.9l-48.9 12.7c-4.4 1.1-7 5.6-5.9 9.9 1.1 4.4 5.6 7 9.9 5.9l48.9-12.7c4.5-1.1 7.1-5.6 5.9-9.9zm44.9 197.6-48.1 12.5c-5.1 1.3-10.3-1.7-11.7-6.9l-30.9-119.2c-1.3-5.1 1.7-10.3 6.9-11.7l48.1-12.5c5.1-1.3 10.3 1.7 11.7 6.9l30.9 119.2c1.3 5.1-1.8 10.3-6.9 11.7z" fill="#f9b04e"/><path d="m313.2 270.8c-4.4 1.1-8.8-1.5-9.9-5.9l-12.7-48.9c-1.1-4.4 1.5-8.8 5.9-9.9s8.8 1.5 9.9 5.9l12.7 48.9c1.1 4.3-1.5 8.7-5.9 9.9z" fill="#daeae8"/><path d="m405.8 353.8-11.1 2.9c-5.1 1.3-10.3-1.7-11.7-6.9l-76.9-296.4c-1.3-5.1 1.7-10.3 6.9-11.7l11.1-2.9c5.1-1.3 10.3 1.7 11.7 6.9l76.9 296.4c1.3 5.1-1.8 10.3-6.9 11.7z" fill="#04b2b2"/><path d="m400.8 355.1-6.1 1.6c-5.1 1.3-10.3-1.7-11.7-6.9l-76.9-296.4c-1.3-5.1 1.7-10.3 6.9-11.7l6.1-1.6z" fill="#00a0a3"/><path d="m154.6 404.8h-76.6c-5.3 0-9.6-4.3-9.6-9.6v-306.2c0-5.3 4.3-9.6 9.6-9.6h76.6c5.3 0 9.6 4.3 9.6 9.6v306.2c-.1 5.3-4.4 9.6-9.6 9.6z" fill="#ffb81f"/><path d="m105.1 404.8h-27.1c-5.3 0-9.6-4.3-9.6-9.6v-306.2c0-5.3 4.3-9.6 9.6-9.6h27.1c-5.3 0-9.6 4.3-9.6 9.6v306.2c0 5.3 4.3 9.6 9.6 9.6z" fill="#f79a06"/><path d="m201.4 404.8h-28.7c-5.3 0-9.6-4.3-9.6-9.6v-306.2c0-5.3 4.3-9.6 9.6-9.6h28.7c5.3 0 9.6 4.3 9.6 9.6v306.2c0 5.3-4.3 9.6-9.6 9.6z" fill="#46ccc2"/><path d="m201.4 404.8h-4.8c-5.3 0-9.6-4.3-9.6-9.6v-306.2c0-5.3 4.3-9.6 9.6-9.6h4.8c5.3 0 9.6 4.3 9.6 9.6v306.2c0 5.3-4.3 9.6-9.6 9.6z" fill="#58e0d9"/><path d="m489.2 351.1v28.7c0 5.3-4.3 9.6-9.6 9.6h-261.2c-5.3 0-9.6-4.3-9.6-9.6v-28.7c0-5.3 4.3-9.6 9.6-9.6h261.3c5.2.1 9.5 4.3 9.5 9.6z" fill="#daeae8"/><path d="m254 389.4h-30c-5.3 0-9.6-4.3-9.6-9.6v-28.7c0-5.3 4.3-9.6 9.6-9.6h30c-5.3 0-9.6 4.3-9.6 9.6v28.7c0 5.3 4.3 9.6 9.6 9.6z" fill="#bfddd8"/><path d="m452.8 349v20.8c0 4.1-3.4 7.5-7.5 7.5s-7.5-3.4-7.5-7.5v-20.8c0-4.1 3.4-7.5 7.5-7.5 4.1.1 7.5 3.4 7.5 7.5z" fill="#ff8f1f"/><path d="m259.6 389.4c0 4-3.2 7.2-7.2 7.2h-33.8c-9.4 0-17-7.5-17-16.7v-28.7c0-9.2 7.6-16.7 17-16.7h33.8c4 0 7.2 3.2 7.2 7.2s-3.2 7.2-7.2 7.2h-33.8c-1.4 0-2.6 1.1-2.6 2.4v28.7c0 1.3 1.2 2.4 2.6 2.4h33.8c4-.2 7.2 3 7.2 7z" fill="#f79a06"/><path d="m238.4 341.6c0-4 3.2-7.2 7.2-7.2h242.1c4 0 7.3 3.3 7.2 7.4-.1 3.9-3.5 7-7.5 7h-241.8c-4-.1-7.2-3.3-7.2-7.2zm248.9 40.6h-241.7c-4 0-7.2 3.2-7.2 7.2s3.2 7.2 7.2 7.2h242.1c4 0 7.3-3.3 7.2-7.4-.2-3.9-3.6-7-7.6-7z" fill="#ffb81f"/><path d="m145 311.6h-57.4c-2.6 0-4.8-2.1-4.8-4.8v-148.6c0-2.6 2.1-4.8 4.8-4.8h57.4c2.6 0 4.8 2.1 4.8 4.8v148.5c0 2.7-2.2 4.9-4.8 4.9zm4.8 44.7v-16.3c0-2.6-2.1-4.8-4.8-4.8h-57.4c-2.6 0-4.8 2.1-4.8 4.8v16.3c0 2.6 2.1 4.8 4.8 4.8h57.4c2.6-.1 4.8-2.2 4.8-4.8zm-4.8-226.5h-57.4c-2.6 0-4.8-2.1-4.8-4.8v-16.3c0-2.6 2.1-4.8 4.8-4.8h57.4c2.6 0 4.8 2.1 4.8 4.8v16.3c0 2.7-2.2 4.8-4.8 4.8z" fill="#f9d39b"/><path d="m102.4 297.7c-4 0-7.2-3.2-7.2-7.2v-116c0-4 3.2-7.2 7.2-7.2s7.2 3.2 7.2 7.2v116.1c0 3.9-3.2 7.1-7.2 7.1zm34.3-15v-100.4c0-4-3.2-7.2-7.2-7.2s-7.2 3.2-7.2 7.2v100.4c0 4 3.2 7.2 7.2 7.2 3.9 0 7.2-3.2 7.2-7.2z" fill="#ffb81f"/><path d="m187.1 293.9c-4 0-7.2-3.2-7.2-7.2v-100.4c0-4 3.2-7.2 7.2-7.2s7.2 3.2 7.2 7.2v100.4c0 4-3.3 7.2-7.2 7.2z" fill="#89f7f4"/><path d="m179.4 413.8v43.7c0 7.9-6.4 14.4-14.4 14.4s-14.4-6.4-14.4-14.4v-43.7c0-7.9 6.4-14.4 14.4-14.4s14.4 6.4 14.4 14.4zm167.5-14.4c-7.9 0-14.4 6.4-14.4 14.4v43.7c0 7.9 6.4 14.4 14.4 14.4s14.4-6.4 14.4-14.4v-43.7c0-8-6.5-14.4-14.4-14.4z" fill="#898989"/><path d="m317.2 409.6c0 7.9-6.4 14.4-14.4 14.4h-235c-7.6-9-14.5-18.6-20.7-28.7h255.7c8-.1 14.4 6.4 14.4 14.3z" fill="#898989"/><path d="m481.9 409.6c0 7.9-6.4 14.4-14.4 14.4h-336.9c-7.9 0-14.4-6.4-14.4-14.4s6.4-14.4 14.4-14.4h336.9c7.9 0 14.4 6.5 14.4 14.4z" fill="#9e9e9e"/></svg>