<svg enable-background="new 0 0 512 512" viewBox="0 0 512 512" xmlns="http://www.w3.org/2000/svg"><path d="m256 22c-135.3 0-245 109.7-245 245 0 101.4 61.6 188.4 149.4 225.6l84.8 19.1c3.6.2 7.2.3 10.8.3s7.2-.1 10.8-.3l84.8-19.1c87.8-37.2 149.4-124.2 149.4-225.6 0-135.3-109.7-245-245-245z" fill="#535354"/><path d="m57.1 281.5c7.9-1.6 14.9 3.9 17.4 11.6 6.2 19.3 18.7 54.2 18.7 54.2.3-2.2 1.2-4.5 3.1-6.8 5.6-6.9 18.6-2.9 32 4.3 23.3 11 29.9 17 43.4 18.4 7.1.7 18.9 3.1 33.1 10.1 23.4 11.5 36.8 41 36.8 63.9 0 6.8-2.5 26.2-1.5 32.9v.1c.2 1.7.4 3.2.6 4.5-.2 0-.4 0-.6 0l-79.4 1.8-1.6-11.7c-.4-2.6-2.2-4.7-4.7-5.5-14.3-4.2-40.6-21.2-65-41-19.4-15.7-37.6-81.1-44-117.5-1.6-9 2.7-17.4 11.7-19.3z" fill="#ffbc80"/><path d="m92.3 347.5.9-.2c.3-2.2 1.2-4.5 3.1-6.8 2.1-2.6 5.2-3.6 9-3.6 0 0 19.7 7.8 10.3 21.4-5.4 7.8-13.9 3.7-20.1-1.1-2.3-4.3-3-7.8-3.2-9.7z" fill="#f9ceaa"/><path d="m80 344c.2-1.8 1.2-9.4 6-17 4 11.3 7.2 20.3 7.2 20.3.4 5.3 4.7 21.9 35.7 36 35.6 16.3 35.7 16.7 36.9 19.8 2.3 6.4-5.2 11.8-10.5 7.7-1.1-.6-6.6-3.6-32-15.2-45.6-20.8-43.6-48.6-43.3-51.6z" fill="#f7a269"/><path d="m233.9 404.7h-.2s-1.8 57.1-79.2 54.7c2.5.7 4.3 2.9 4.7 5.5l1.2 27.8c26.2 11.1 54.8 17.8 84.8 19.1l-4.3-41.8c-.9-6.7.7-25.9.7-32.7 0-10.3-2.7-21.9-7.7-32.6z" fill="#f7a269"/><path d="m454.9 281.5c-7.9-1.6-14.9 3.9-17.4 11.6-6.2 19.3-18.7 54.2-18.7 54.2-.3-2.2-1.2-4.5-3.1-6.8-5.6-6.9-18.6-2.9-32 4.3-23.3 11-29.9 17-43.4 18.4-7.1.7-18.9 3.1-33.1 10.1-23.4 11.5-36.8 41-36.8 63.9 0 6.8 2.5 26.2 1.5 32.9v.1c-.2 1.7-.4 3.2-.6 4.5h.6l79.4 1.8 1.6-11.7c.4-2.6 2.2-4.7 4.7-5.5 14.3-4.2 40.6-21.2 65-41 19.4-15.7 37.7-81.1 44.1-117.5 1.5-9-2.8-17.4-11.8-19.3z" fill="#ffbc80"/><path d="m419.7 347.5-.9-.2c-.3-2.2-1.2-4.5-3.1-6.8-2.1-2.6-5.2-3.6-9-3.6 0 0-19.7 7.8-10.3 21.4 5.4 7.8 13.9 3.7 20.1-1.1 2.3-4.3 3-7.8 3.2-9.7z" fill="#f9ceaa"/><path d="m432 344c-.2-1.8-1.2-9.4-6-17-4 11.3-7.2 20.3-7.2 20.3-.4 5.3-4.7 21.9-35.7 36-35.6 16.3-35.7 16.7-36.9 19.8-2.3 6.4 5.2 11.8 10.5 7.7 1.1-.6 6.6-3.6 32-15.2 45.6-20.8 43.6-48.6 43.3-51.6z" fill="#f7a269"/><path d="m278.4 404.6h-.2c-5.1 10.7-7.8 22.3-7.7 32.6 0 6.8 1.7 26 .7 32.7l-4.3 41.8c30-1.3 58.5-8 84.8-19.1l1.2-27.8c.4-2.6 2.2-4.7 4.7-5.5-77.4 2.4-79.2-54.7-79.2-54.7z" fill="#f7a269"/><path d="m384.2 176.5h-65.2c-7.4 0-13.3-6-13.3-13.3s6-13.3 13.3-13.3h65.2c7.4 0 13.3 6 13.3 13.3s-6 13.3-13.3 13.3z" fill="#898989"/><ellipse cx="397.4" cy="163.3" fill="#ff8f1f" rx="28.2" ry="28.2" transform="matrix(.16 -.9871 .9871 .16 172.6337 529.4152)"/><path d="m355.1 47.3c3.2 0 6.4 1.1 8.9 3.4 5.4 4.9 5.9 13.4.9 18.8l-27.7 30.5c-2.5 2.8-6.1 4.4-9.9 4.4h-36.6c-7.4 0-13.3-6-13.3-13.3s6-13.3 13.3-13.3h30.7l23.7-26.1c2.8-2.9 6.4-4.4 10-4.4z" fill="#898989"/><ellipse cx="369.3" cy="45.2" fill="#58e0d9" rx="28.2" ry="28.2" transform="matrix(.23 -.9732 .9732 .23 240.4013 394.2281)"/><path d="m355.1 279.1c3.2 0 6.4-1.1 8.9-3.5 5.4-4.9 5.9-13.4.9-18.8l-27.7-30.5c-2.5-2.8-6.1-4.4-9.9-4.4h-36.6c-7.4 0-13.3 6-13.3 13.3 0 7.4 6 13.3 13.3 13.3h30.7l23.7 26.1c2.8 3 6.4 4.5 10 4.5z" fill="#898989"/><circle cx="369.3" cy="281.3" fill="#58e0d9" r="28.2"/><path d="m240.5 226.8c-34.3-2.3-61.5-30.8-61.5-65.7 0-19.4 8.4-36.9 21.8-49-39.6-1.8-35.3-47.9-35.3-47.9l-.1-.5c-.6.5-1.2 1-1.9 1.5-1.5 1.3-3.7 1.5-5.4.5l-29.1-16.8c-2.2-1.3-5.1-.5-6.4 1.7l-34.5 59.8c-1.3 2.2-.5 5.1 1.7 6.4l29.1 16.8c1.7 1 2.6 3 2.3 5-1.3 7.3-2 14.8-2 22.5s.7 15.2 2 22.5c.4 2-.5 4-2.3 5l-29.1 16.8c-2.2 1.3-3 4.2-1.7 6.4l34.5 59.8c1.3 2.2 4.2 3 6.4 1.7l29.1-16.8c1.7-1 3.9-.8 5.4.5 11.4 9.7 24.6 17.3 38.9 22.5 1.9.7 3.2 2.4 3.2 4.4v33.6c0 2.6 2.1 4.7 4.7 4.7h29.8c2.6 0 4.7-2.1 4.7-4.7v-86c.1-2.5-1.8-4.5-4.3-4.7z" fill="#fcab08"/><path d="m199.7 113.2c10.8-10.2 25-16.8 40.8-17.8 2.5-.2 4.4-2.2 4.4-4.7v-86c0-2.6-2.1-4.7-4.7-4.7h-29.8c-2.6 0-4.7 2.1-4.7 4.7v33.6c0 2-1.3 3.8-3.2 4.4-14.4 5.1-27.5 12.8-38.9 22.5 0 0-4.4 46.8 36.1 48z" fill="#ffb81f"/><ellipse cx="245.9" cy="162" fill="#ffbf40" rx="32.6" ry="32.6"/></svg>