<?xml version="1.0" encoding="utf-8"?>
<!-- Generator: Adobe Illustrator 24.2.3, SVG Export Plug-In . SVG Version: 6.00 Build 0)  -->
<svg version="1.1" id="Layer_1" xmlns="http://www.w3.org/2000/svg" xmlns:xlink="http://www.w3.org/1999/xlink" x="0px" y="0px"
	 viewBox="0 0 512 512" style="enable-background:new 0 0 512 512;" xml:space="preserve">
<style type="text/css">
	.st0{fill:#535354;}
	.st1{fill:#FFBC80;}
	.st2{fill:#F9CEAA;}
	.st3{fill:#F7A269;}
	.st4{fill:#898989;}
	.st5{fill:#FF8F1F;}
	.st6{fill:#58E0D9;}
	.st7{fill:#FCAB08;}
	.st8{fill:#FFB81F;}
	.st9{fill:#FFBF40;}
</style>
<g>
	<path class="st0" d="M256,22C120.7,22,11,131.7,11,267c0,101.4,61.6,188.4,149.4,225.6l84.8,19.1c3.6,0.2,7.2,0.3,10.8,0.3
		s7.2-0.1,10.8-0.3l84.8-19.1C439.4,455.4,501,368.4,501,267C501,131.7,391.3,22,256,22L256,22z"/>
	<path class="st1" d="M57.1,281.5c7.9-1.6,14.9,3.9,17.4,11.6c6.2,19.3,18.7,54.2,18.7,54.2l0,0c0.3-2.2,1.2-4.5,3.1-6.8
		c5.6-6.9,18.6-2.9,32,4.3c23.3,11,29.9,17,43.4,18.4c7.1,0.7,18.9,3.1,33.1,10.1c23.4,11.5,36.8,41,36.8,63.9
		c0,6.8-2.5,26.2-1.5,32.9c0,0,0,0.1,0,0.1c0.2,1.7,0.4,3.2,0.6,4.5c-0.2,0-0.4,0-0.6,0l-79.4,1.8l-1.6-11.7
		c-0.4-2.6-2.2-4.7-4.7-5.5c-14.3-4.2-40.6-21.2-65-41C70,402.6,51.8,337.2,45.4,300.8C43.8,291.8,48.1,283.4,57.1,281.5L57.1,281.5
		z"/>
	<path class="st2" d="M92.3,347.5l0.9-0.2l0,0c0.3-2.2,1.2-4.5,3.1-6.8c2.1-2.6,5.2-3.6,9-3.6c0,0,19.7,7.8,10.3,21.4
		c-5.4,7.8-13.9,3.7-20.1-1.1C93.2,352.9,92.5,349.4,92.3,347.5L92.3,347.5z"/>
	<path class="st3" d="M80,344c0.2-1.8,1.2-9.4,6-17c4,11.3,7.2,20.3,7.2,20.3l0,0c0.4,5.3,4.7,21.9,35.7,36
		c35.6,16.3,35.7,16.7,36.9,19.8c2.3,6.4-5.2,11.8-10.5,7.7c-1.1-0.6-6.6-3.6-32-15.2C77.7,374.8,79.7,347,80,344L80,344z"/>
	<path class="st3" d="M233.9,404.7l-0.2,0c0,0-1.8,57.1-79.2,54.7c2.5,0.7,4.3,2.9,4.7,5.5l1.2,27.8c26.2,11.1,54.8,17.8,84.8,19.1
		l-4.3-41.8c-0.9-6.7,0.7-25.9,0.7-32.7C241.6,427,238.9,415.4,233.9,404.7z"/>
	<path class="st1" d="M454.9,281.5c-7.9-1.6-14.9,3.9-17.4,11.6c-6.2,19.3-18.7,54.2-18.7,54.2l0,0c-0.3-2.2-1.2-4.5-3.1-6.8
		c-5.6-6.9-18.6-2.9-32,4.3c-23.3,11-29.9,17-43.4,18.4c-7.1,0.7-18.9,3.1-33.1,10.1c-23.4,11.5-36.8,41-36.8,63.9
		c0,6.8,2.5,26.2,1.5,32.9c0,0,0,0.1,0,0.1c-0.2,1.7-0.4,3.2-0.6,4.5c0.2,0,0.4,0,0.6,0l79.4,1.8l1.6-11.7c0.4-2.6,2.2-4.7,4.7-5.5
		c14.3-4.2,40.6-21.2,65-41c19.4-15.7,37.7-81.1,44.1-117.5C468.2,291.8,463.9,283.4,454.9,281.5L454.9,281.5z"/>
	<path class="st2" d="M419.7,347.5l-0.9-0.2l0,0c-0.3-2.2-1.2-4.5-3.1-6.8c-2.1-2.6-5.2-3.6-9-3.6c0,0-19.7,7.8-10.3,21.4
		c5.4,7.8,13.9,3.7,20.1-1.1C418.8,352.9,419.5,349.4,419.7,347.5L419.7,347.5z"/>
	<path class="st3" d="M432,344c-0.2-1.8-1.2-9.4-6-17c-4,11.3-7.2,20.3-7.2,20.3l0,0c-0.4,5.3-4.7,21.9-35.7,36
		c-35.6,16.3-35.7,16.7-36.9,19.8c-2.3,6.4,5.2,11.8,10.5,7.7c1.1-0.6,6.6-3.6,32-15.2C434.3,374.8,432.3,347,432,344L432,344z"/>
	<path class="st3" d="M278.4,404.6l-0.2,0c-5.1,10.7-7.8,22.3-7.7,32.6c0,6.8,1.7,26,0.7,32.7l-4.3,41.8c30-1.3,58.5-8,84.8-19.1
		l1.2-27.8c0.4-2.6,2.2-4.7,4.7-5.5C280.2,461.7,278.4,404.6,278.4,404.6L278.4,404.6z"/>
	<g>
		<path class="st4" d="M384.2,176.5H319c-7.4,0-13.3-6-13.3-13.3s6-13.3,13.3-13.3h65.2c7.4,0,13.3,6,13.3,13.3
			S391.5,176.5,384.2,176.5z"/>
	</g>
	<g>
		<g>
			
				<ellipse transform="matrix(0.16 -0.9871 0.9871 0.16 172.6337 529.4152)" class="st5" cx="397.4" cy="163.3" rx="28.2" ry="28.2"/>
		</g>
	</g>
	<g>
		<path class="st4" d="M355.1,47.3c3.2,0,6.4,1.1,8.9,3.4c5.4,4.9,5.9,13.4,0.9,18.8l-27.7,30.5c-2.5,2.8-6.1,4.4-9.9,4.4h-36.6
			c-7.4,0-13.3-6-13.3-13.3s6-13.3,13.3-13.3h30.7l23.7-26.1C347.9,48.8,351.5,47.3,355.1,47.3L355.1,47.3z"/>
	</g>
	<g>
		<g>
			
				<ellipse transform="matrix(0.23 -0.9732 0.9732 0.23 240.4013 394.2281)" class="st6" cx="369.3" cy="45.2" rx="28.2" ry="28.2"/>
		</g>
	</g>
	<g>
		<path class="st4" d="M355.1,279.1c3.2,0,6.4-1.1,8.9-3.5c5.4-4.9,5.9-13.4,0.9-18.8l-27.7-30.5c-2.5-2.8-6.1-4.4-9.9-4.4h-36.6
			c-7.4,0-13.3,6-13.3,13.3c0,7.4,6,13.3,13.3,13.3h30.7l23.7,26.1C347.9,277.6,351.5,279.1,355.1,279.1L355.1,279.1z"/>
	</g>
	<g>
		<g>
			<circle class="st6" cx="369.3" cy="281.3" r="28.2"/>
		</g>
	</g>
	<path class="st7" d="M240.5,226.8c-34.3-2.3-61.5-30.8-61.5-65.7c0-19.4,8.4-36.9,21.8-49c-39.6-1.8-35.3-47.9-35.3-47.9l-0.1-0.5
		c-0.6,0.5-1.2,1-1.9,1.5c-1.5,1.3-3.7,1.5-5.4,0.5L129,48.9c-2.2-1.3-5.1-0.5-6.4,1.7l-34.5,59.8c-1.3,2.2-0.5,5.1,1.7,6.4
		l29.1,16.8c1.7,1,2.6,3,2.3,5c-1.3,7.3-2,14.8-2,22.5s0.7,15.2,2,22.5c0.4,2-0.5,4-2.3,5l-29.1,16.8c-2.2,1.3-3,4.2-1.7,6.4
		l34.5,59.8c1.3,2.2,4.2,3,6.4,1.7l29.1-16.8c1.7-1,3.9-0.8,5.4,0.5c11.4,9.7,24.6,17.3,38.9,22.5c1.9,0.7,3.2,2.4,3.2,4.4v33.6
		c0,2.6,2.1,4.7,4.7,4.7h29.8c2.6,0,4.7-2.1,4.7-4.7v-86C244.9,229,243,227,240.5,226.8L240.5,226.8z"/>
	<path class="st8" d="M199.7,113.2c10.8-10.2,25-16.8,40.8-17.8c2.5-0.2,4.4-2.2,4.4-4.7v-86c0-2.6-2.1-4.7-4.7-4.7h-29.8
		c-2.6,0-4.7,2.1-4.7,4.7v33.6c0,2-1.3,3.8-3.2,4.4c-14.4,5.1-27.5,12.8-38.9,22.5C163.6,65.2,159.2,112,199.7,113.2L199.7,113.2z"
		/>
	<ellipse class="st9" cx="245.9" cy="162" rx="32.6" ry="32.6"/>
</g>
</svg>
