<svg enable-background="new 0 0 512 512" viewBox="0 0 512 512" xmlns="http://www.w3.org/2000/svg"><path d="m501.4 267c0 29.4-5.2 57.6-14.7 83.7-7.8 21.5-64.4 98.3-84.7 113.3-25.7 19-55.2 33.1-87.2 40.9-18.7 4.6-274.5-76-298.1-186.7-3.5-16.6-5.4-33.7-5.4-51.3 0-135.3 109.7-245 245-245s245.1 109.8 245.1 245.1z" fill="#535354"/><path d="m16.8 318.3c24.6-9.5 51.4-14.8 79.4-14.8 115.1 0 209.6 88.7 218.7 201.4-18.7 4.6-38.3 7-58.5 7-117.7.1-216-82.9-239.6-193.6z" fill="#00a0a3"/><path d="m334.8 459.5-7.1-7.1c-1.9-2-1.9-5.1 0-7.1l7.1-7.1c2-2 5.1-2 7.1 0l7.1 7.1c2 2 2 5.1 0 7.1l-7.1 7.1c-2 2-5.2 2-7.1 0zm-248.8-180 7.1-7.1c2-2 2-5.1 0-7.1l-7.1-7.1c-2-2-5.1-2-7.1 0l-7.1 7.1c-2 2-2 5.1 0 7.1l7.1 7.1c2 2 5.1 2 7.1 0z" fill="#898989"/><path d="m483.1 296.6-7.1 7.1c-2 1.9-5.1 1.9-7.1 0l-7.1-7.1c-2-2-2-5.1 0-7.1l7.1-7.1c2-2 5.1-2 7.1 0l7.1 7.1c1.9 2 1.9 5.2 0 7.1zm-417.1-124.1c-2-2-5.1-2-7.1 0l-7.1 7.1c-2 2-2 5.1 0 7.1l7.1 7.1c2 2 5.1 2 7.1 0l7.1-7.1c2-2 2-5.1 0-7.1zm175.8-124.2c-2-2-5.1-2-7.1 0l-7.1 7.1c-2 2-2 5.1 0 7.1l7.1 7.1c2 2 5.1 2 7.1 0l7.1-7.1c2-2 2-5.1 0-7.1z" fill="#fce19d"/><path d="m177.2 239.3-123.4-123.4c-7.8-7.8-7.8-20.5 0-28.3l70.7-70.7c7.8-7.8 20.5-7.8 28.3 0l123.4 123.4c7.8 7.8 7.8 20.5 0 28.3l-70.7 70.7c-7.8 7.8-20.4 7.8-28.3 0z" fill="#fcab08"/><path d="m486.7 350.7c-16.6 45.6-46.4 84.9-84.7 113.3l-329.7-329.7c-7.8-7.8-7.8-20.5 0-28.3l70.7-70.7c7.8-7.8 20.5-7.8 28.3 0l185.9 185.9 6.2 6.2 9.7 9.7z" fill="#f9bf4b"/><path d="m441.7 391.4 15.7 15.7c-3.7 5.2-7.5 10.4-11.6 15.3l-17.5-17.5c-2-2-5.1-2-7.1 0l-39.2 39.1-14.1-14.1 39.2-39.2c2-2 2-5.1 0-7.1l-28.3-28.3c-2-2-5.1-2-7.1 0l-39.2 39.2-14.1-14.1 39.2-39.2c2-2 2-5.1 0-7.1l-73.4-73.4-120.4-120.4c-2-2-5.1-2-7.1 0l-39.2 39.2-14.1-14.1 39.2-39.2c2-2 2-5.1 0-7.1l-52.3-52.3 13.4-13.4 52.3 52.3c2 2 5.1 2 7.1 0l39.2-39.2 14.1 14.1-39.2 39.2c-1.9 2-1.9 5.1 0 7.1l193.8 193.7c2 2 5.1 2 7.1 0l39.2-39.2 14.1 14.1-39.2 39.2c-2 2-2 5.1 0 7.1l28.3 28.3c2 2 5.1 2 7.1 0l39.2-39.2 14.2 14.1-39.2 39.2c-2 2-2 5.2-.1 7.2z" fill="#fcab08"/><path d="m461.2 231.9c-39.1 39-108.7 32.7-155.6-14.1-46.9-46.9-53.2-116.5-14.1-155.6 39-39.1 108.7-32.7 155.5 14.1 46.9 46.9 53.2 116.5 14.2 155.6z" fill="#1fc9c9"/><path d="m461.2 231.9c-32 32-84.5 33.5-128.2 7.3-26.2-43.7-24.7-96.2 7.3-128.2s84.5-33.5 128.2-7.3c26.2 43.7 24.7 96.2-7.3 128.2z" fill="#58e0d9"/><path d="m472.5 243.2-70.7 70.7c-7.8 7.8-20.5 7.8-28.3 0l-7.1-7.1-84.9 84.9c-7.8 7.8-20.5 7.8-28.3 0l-121.5-121.6c-7.8-7.8-7.8-20.5 0-28.3l84.9-84.9-7.1-7.1c-7.8-7.8-7.8-20.5 0-28.3l70.7-70.7c7.8-7.8 20.5-7.8 28.3 0l164.1 164.1c7.7 7.8 7.7 20.5-.1 28.3z" fill="#daeae8"/><path d="m227.1 188.8c5.9-5.9 15.4-5.9 21.2 0l118.1 118.1-84.9 84.9c-7.8 7.8-20.5 7.8-28.3 0l-8.5-8.5-42.4 42.4c-7.8 7.8-20.5 7.8-28.3 0l-77.8-77.8c-7.8-7.8-7.8-20.5 0-28.3zm245.4 26.1-142.8-142.8c-7.8-7.8-20.5-7.8-28.3 0l-49.5 49.5c-7.8 7.8-7.8 20.5 0 28.3l142.8 142.8c7.8 7.8 20.5 7.8 28.3 0l49.5-49.5c7.8-7.8 7.8-20.5 0-28.3z" fill="#eff9f8"/><path d="m117.5 442.6-36.8-36.8c-7.8-7.8-7.8-20.5 0-28.3l141.4-141.4c7.8-7.8 20.5-7.8 28.3 0l36.8 36.8c7.8 7.8 7.8 20.5 0 28.3l-141.4 141.4c-7.8 7.8-20.5 7.8-28.3 0z" fill="#a7c9c3"/><path d="m117.5 442.6-15.5-15.5c-7.8-7.8-7.8-20.5 0-28.3l141.4-141.4c7.8-7.8 20.5-7.8 28.3 0l15.6 15.6c7.8 7.8 7.8 20.5 0 28.3l-141.5 141.3c-7.8 7.8-20.5 7.8-28.3 0z" fill="#bfddd8"/></svg>