<?xml version="1.0" encoding="utf-8"?>
<!-- Generator: Adobe Illustrator 24.2.3, SVG Export Plug-In . SVG Version: 6.00 Build 0)  -->
<svg version="1.1" id="Layer_1" xmlns="http://www.w3.org/2000/svg" xmlns:xlink="http://www.w3.org/1999/xlink" x="0px" y="0px"
	 viewBox="0 0 512 512" style="enable-background:new 0 0 512 512;" xml:space="preserve">
<style type="text/css">
	.st0{fill:#535354;}
	.st1{fill:#00A0A3;}
	.st2{fill:#898989;}
	.st3{fill:#FCE19D;}
	.st4{fill:#FCAB08;}
	.st5{fill:#F9BF4B;}
	.st6{fill:#1FC9C9;}
	.st7{fill:#58E0D9;}
	.st8{fill:#DAEAE8;}
	.st9{fill:#EFF9F8;}
	.st10{fill:#A7C9C3;}
	.st11{fill:#BFDDD8;}
</style>
<g>
	<path class="st0" d="M501.4,267c0,29.4-5.2,57.6-14.7,83.7C478.9,372.2,422.3,449,402,464c-25.7,19-55.2,33.1-87.2,40.9
		c-18.7,4.6-274.5-76-298.1-186.7c-3.5-16.6-5.4-33.7-5.4-51.3c0-135.3,109.7-245,245-245S501.4,131.7,501.4,267z"/>
	<path class="st1" d="M16.8,318.3c24.6-9.5,51.4-14.8,79.4-14.8c115.1,0,209.6,88.7,218.7,201.4c-18.7,4.6-38.3,7-58.5,7
		C138.7,512,40.4,429,16.8,318.3z"/>
	<path class="st2" d="M334.8,459.5l-7.1-7.1c-1.9-2-1.9-5.1,0-7.1l7.1-7.1c2-2,5.1-2,7.1,0l7.1,7.1c2,2,2,5.1,0,7.1l-7.1,7.1
		C339.9,461.5,336.7,461.5,334.8,459.5z M86,279.5l7.1-7.1c2-2,2-5.1,0-7.1l-7.1-7.1c-2-2-5.1-2-7.1,0l-7.1,7.1c-2,2-2,5.1,0,7.1
		l7.1,7.1C80.9,281.5,84,281.5,86,279.5z"/>
	<path class="st3" d="M483.1,296.6l-7.1,7.1c-2,1.9-5.1,1.9-7.1,0l-7.1-7.1c-2-2-2-5.1,0-7.1l7.1-7.1c2-2,5.1-2,7.1,0l7.1,7.1
		C485,291.5,485,294.7,483.1,296.6z M66,172.5c-2-2-5.1-2-7.1,0l-7.1,7.1c-2,2-2,5.1,0,7.1l7.1,7.1c2,2,5.1,2,7.1,0l7.1-7.1
		c2-2,2-5.1,0-7.1L66,172.5z M241.8,48.3c-2-2-5.1-2-7.1,0l-7.1,7.1c-2,2-2,5.1,0,7.1l7.1,7.1c2,2,5.1,2,7.1,0l7.1-7.1
		c2-2,2-5.1,0-7.1L241.8,48.3z"/>
	<path class="st4" d="M177.2,239.3L53.8,115.9c-7.8-7.8-7.8-20.5,0-28.3l70.7-70.7c7.8-7.8,20.5-7.8,28.3,0l123.4,123.4
		c7.8,7.8,7.8,20.5,0,28.3l-70.7,70.7C197.7,247.1,185.1,247.1,177.2,239.3z"/>
	<path class="st5" d="M486.7,350.7c-16.6,45.6-46.4,84.9-84.7,113.3L72.3,134.3c-7.8-7.8-7.8-20.5,0-28.3L143,35.3
		c7.8-7.8,20.5-7.8,28.3,0l185.9,185.9l6.2,6.2l9.7,9.7L486.7,350.7z"/>
	<path class="st4" d="M441.7,391.4l15.7,15.7c-3.7,5.2-7.5,10.4-11.6,15.3l-17.5-17.5c-2-2-5.1-2-7.1,0L382,444l-14.1-14.1
		l39.2-39.2c2-2,2-5.1,0-7.1l-28.3-28.3c-2-2-5.1-2-7.1,0l-39.2,39.2l-14.1-14.1l39.2-39.2c2-2,2-5.1,0-7.1l-73.4-73.4L163.8,140.3
		c-2-2-5.1-2-7.1,0l-39.2,39.2l-14.1-14.1l39.2-39.2c2-2,2-5.1,0-7.1L90.3,66.8l13.4-13.4l52.3,52.3c2,2,5.1,2,7.1,0l39.2-39.2
		l14.1,14.1l-39.2,39.2c-1.9,2-1.9,5.1,0,7.1L371,320.6c2,2,5.1,2,7.1,0l39.2-39.2l14.1,14.1l-39.2,39.2c-2,2-2,5.1,0,7.1l28.3,28.3
		c2,2,5.1,2,7.1,0l39.2-39.2L481,345l-39.2,39.2C439.8,386.2,439.8,389.4,441.7,391.4z"/>
	<path class="st6" d="M461.2,231.9c-39.1,39-108.7,32.7-155.6-14.1c-46.9-46.9-53.2-116.5-14.1-155.6
		C330.5,23.1,400.2,29.5,447,76.3C493.9,123.2,500.2,192.8,461.2,231.9z"/>
	<path class="st7" d="M461.2,231.9c-32,32-84.5,33.5-128.2,7.3c-26.2-43.7-24.7-96.2,7.3-128.2s84.5-33.5,128.2-7.3
		C494.7,147.4,493.2,199.9,461.2,231.9z"/>
	<path class="st8" d="M472.5,243.2l-70.7,70.7c-7.8,7.8-20.5,7.8-28.3,0l-7.1-7.1l-84.9,84.9c-7.8,7.8-20.5,7.8-28.3,0L131.7,270.1
		c-7.8-7.8-7.8-20.5,0-28.3l84.9-84.9l-7.1-7.1c-7.8-7.8-7.8-20.5,0-28.3l70.7-70.7c7.8-7.8,20.5-7.8,28.3,0l164.1,164.1
		C480.3,222.7,480.3,235.4,472.5,243.2z"/>
	<path class="st9" d="M227.1,188.8c5.9-5.9,15.4-5.9,21.2,0l118.1,118.1l-84.9,84.9c-7.8,7.8-20.5,7.8-28.3,0l-8.5-8.5l-42.4,42.4
		c-7.8,7.8-20.5,7.8-28.3,0l-77.8-77.8c-7.8-7.8-7.8-20.5,0-28.3L227.1,188.8z M472.5,214.9L329.7,72.1c-7.8-7.8-20.5-7.8-28.3,0
		l-49.5,49.5c-7.8,7.8-7.8,20.5,0,28.3l142.8,142.8c7.8,7.8,20.5,7.8,28.3,0l49.5-49.5C480.3,235.4,480.3,222.7,472.5,214.9z"/>
	<path class="st10" d="M117.5,442.6l-36.8-36.8c-7.8-7.8-7.8-20.5,0-28.3l141.4-141.4c7.8-7.8,20.5-7.8,28.3,0l36.8,36.8
		c7.8,7.8,7.8,20.5,0,28.3L145.8,442.6C138,450.4,125.3,450.4,117.5,442.6z"/>
	<path class="st11" d="M117.5,442.6L102,427.1c-7.8-7.8-7.8-20.5,0-28.3l141.4-141.4c7.8-7.8,20.5-7.8,28.3,0l15.6,15.6
		c7.8,7.8,7.8,20.5,0,28.3L145.8,442.6C138,450.4,125.3,450.4,117.5,442.6z"/>
</g>
</svg>
