<?xml version="1.0" encoding="utf-8"?>
<!-- Generator: Adobe Illustrator 24.2.3, SVG Export Plug-In . SVG Version: 6.00 Build 0)  -->
<svg version="1.1" id="Capa_1" xmlns="http://www.w3.org/2000/svg" xmlns:xlink="http://www.w3.org/1999/xlink" x="0px" y="0px"
	 viewBox="0 0 512 512" style="enable-background:new 0 0 512 512;" xml:space="preserve">
<style type="text/css">
	.st0{fill:#535354;}
	.st1{fill:#DAEAE8;}
	.st2{fill:#EFF9F8;}
	.st3{fill:#04AFAF;}
	.st4{fill:#00A0A3;}
	.st5{fill:#028282;}
	.st6{fill:#D86E05;}
	.st7{fill:#AF5605;}
	.st8{fill:#898989;}
	.st9{fill:#707070;}
	.st10{fill:#F2C230;}
	.st11{fill:#F7D139;}
	.st12{fill:#FF8602;}
	.st13{fill:#58E0D9;}
</style>
<path class="st0" d="M501,267c0,134.5-108.8,245-245,245C120.1,512,11,401.8,11,267C11,131.7,120.7,22,256,22
	C391.6,22,501,131.9,501,267z"/>
<g>
	<path class="st1" d="M315.2,50v99.9c0,2.9-1.6,5.5-3.9,6.9c-1.2,0.7-2.6,1.1-4.1,1.1c-4.4,0-8-3.6-8-8V50c0-4.4,3.6-8,8-8
		c1.5,0,2.9,0.4,4.1,1.1c0.6,0.3,1.1,0.8,1.6,1.2C314.3,45.8,315.2,47.8,315.2,50z"/>
	<path class="st1" d="M363.9,50v99.9c0,2.9-1.6,5.5-3.9,6.9c-1.2,0.7-2.6,1.1-4.1,1.1c-4.4,0-8-3.6-8-8V50c0-4.4,3.6-8,8-8
		c1.5,0,2.9,0.4,4.1,1.1c0.6,0.3,1.1,0.8,1.6,1.2C363,45.8,363.9,47.8,363.9,50z"/>
</g>
<g>
	<path class="st2" d="M315.2,50v99.9c0,2.9-1.6,5.5-3.9,6.9c-2.4-1.4-3.9-4-3.9-6.9V50c0-2.9,1.6-5.5,3.9-6.9
		c0.6,0.3,1.1,0.8,1.6,1.2C314.3,45.8,315.2,47.8,315.2,50z"/>
	<path class="st2" d="M363.9,50v99.9c0,2.9-1.6,5.5-3.9,6.9c-2.4-1.4-3.9-4-3.9-6.9V50c0-2.9,1.6-5.5,3.9-6.9
		c0.6,0.3,1.1,0.8,1.6,1.2C363,45.8,363.9,47.8,363.9,50z"/>
</g>
<path class="st3" d="M456.1,204.7v194.1c0,3.6-0.2,7.1-0.7,10.6c-19.1,26.7-43.4,49.4-71.5,66.7h0c-1.7,0.1-3.5,0.2-5.2,0.2h-94.4
	c-42.8,0-77.4-34.7-77.4-77.4V204.7c0-42.8,34.7-77.4,77.4-77.4h94.4C421.4,127.3,456.1,161.9,456.1,204.7z"/>
<path class="st4" d="M386.6,35c0,4.4-1.8,8.4-4.7,11.3C379,49.2,375,51,370.6,51h-78.3c-8.8,0-16-7.2-16-16c0-4.4,1.8-8.4,4.7-11.3
	c2.9-2.9,6.9-4.7,11.3-4.7h78.3c7.9,0,14.5,5.8,15.8,13.3C386.5,33.2,386.6,34.1,386.6,35z"/>
<path class="st3" d="M386.4,32.4h-77.7c-7.9,0-14.5-5.8-15.8-13.3h77.7C378.5,19,385.1,24.8,386.4,32.4z"/>
<path class="st4" d="M410.7,239.8v208.9c0,3.5-0.7,6.9-2,9.9c-6.9,5.5-14,10.6-21.5,15.3c-0.6,0.1-1.2,0.1-1.8,0.1H284.3
	c-42.8,0-77.4-34.7-77.4-77.4V214.5h178.6C399.4,214.5,410.7,225.8,410.7,239.8z"/>
<g>
	<path class="st5" d="M273.4,167L273.4,167c-4.9,0-8.8,4-8.8,8.8v251.8c0,4.9,4,8.8,8.8,8.8l0,0c4.9,0,8.8-4,8.8-8.8V175.9
		C282.2,171,278.2,167,273.4,167z"/>
	<path class="st5" d="M331.5,167c-4.9,0-8.8,4-8.8,8.8v251.8c0,4.9,4,8.8,8.8,8.8c4.9,0,8.8-4,8.8-8.8V175.9
		C340.3,171,336.4,167,331.5,167z"/>
	<path class="st5" d="M389.6,167c-4.9,0-8.8,4-8.8,8.8v251.8c0,4.9,4,8.8,8.8,8.8c4.9,0,8.8-4,8.8-8.8V175.9
		C398.5,171,394.5,167,389.6,167z"/>
</g>
<path class="st6" d="M242.9,193.1h-96.2c-10.3,0-18.7,8.4-18.7,18.7v39.7h20.1v-33.8c0-0.3,0-0.7,0.1-1c0.5-4.1,3.9-7.2,8.1-7.2h77
	c4.2,0,7.7,3.2,8.1,7.2c0,0.3,0.1,0.6,0.1,1v33.8h20.1v-39.7C261.5,201.5,253.2,193.1,242.9,193.1z"/>
<g>
	<path class="st7" d="M128,216.7h20.1c0,0.3-0.1,0.6-0.1,1v33.8H128C128,251.5,128,216.7,128,216.7z"/>
	<path class="st7" d="M261.5,216.7v34.8h-20.1v-33.8c0-0.3,0-0.7-0.1-1L261.5,216.7L261.5,216.7z"/>
</g>
<path class="st8" d="M158.5,476.3c0,5.1-1.1,9.9-3,14.2c-4.2-1.9-8.4-3.9-12.5-6.1c-5-2.6-9.8-5.3-14.6-8.2
	c-7.3-4.5-14.3-9.3-21.1-14.5c-3.7-2.8-7.3-5.7-10.8-8.7c6.5-7.4,16-12.1,26.6-12.1C142.7,440.9,158.5,456.8,158.5,476.3z"/>
<path class="st9" d="M144.6,476.3c0,2.9-0.6,5.7-1.6,8.2c-5-2.6-9.8-5.3-14.6-8.2c-7.3-4.5-14.3-9.3-21.1-14.5
	c3.9-4.3,9.6-6.9,15.8-6.9C135,454.8,144.6,464.4,144.6,476.3z"/>
<circle class="st8" cx="267.5" cy="476.3" r="35.3"/>
<path class="st9" d="M289,476.3c0,8-4.3,14.9-10.7,18.6c-3.2,1.8-6.8,2.9-10.8,2.9c-11.9,0-21.5-9.6-21.5-21.5
	c0-11.9,9.6-21.5,21.5-21.5c3.9,0,7.6,1,10.8,2.9C284.7,461.4,289,468.3,289,476.3z"/>
<path class="st10" d="M372.6,262.4v191c0,12.6-10.2,22.8-22.8,22.8H128.4C72.7,442.1,31.7,386.4,17,320.9v-58.6
	c0-12.6,10.2-22.8,22.8-22.8h309.9C362.4,239.5,372.6,249.7,372.6,262.4z"/>
<path class="st11" d="M372.6,262.4v177H81.9c-1.3-1.3-2.5-2.6-3.8-3.9c-8.6-9.1-16.6-18.9-23.7-29.3V239.5h295.4
	C362.4,239.5,372.6,249.7,372.6,262.4z"/>
<path class="st12" d="M349.8,300.1l-54.6,19.4c-3.9,1.4-8.2-0.7-9.6-4.6L274,282.2c-1.4-3.9,0.7-8.2,4.6-9.6l54.6-19.4
	c3.9-1.4,8.2,0.7,9.6,4.6l11.6,32.7C355.8,294.4,353.7,298.7,349.8,300.1z"/>
<path class="st4" d="M221.6,414.1l-57.5,7.6c-4.1,0.5-7.9-2.3-8.4-6.5l-4.5-34.4c-0.5-4.1,2.3-7.9,6.5-8.4l57.5-7.6
	c4.1-0.5,7.9,2.3,8.4,6.5l4.5,34.4C228.6,409.7,225.7,413.5,221.6,414.1z"/>
<path class="st13" d="M90.6,334.5L34,322.2c-4-0.9-6.6-4.9-5.7-8.9l7.4-33.9c0.9-4,4.9-6.6,8.9-5.7l56.6,12.3c4,0.9,6.6,4.9,5.7,8.9
	l-7.4,33.9C98.7,332.8,94.7,335.4,90.6,334.5z"/>
<g>
	<path class="st7" d="M99.5,239.5v216c-1-0.8-2-1.7-3-2.5c-2.6-2.2-5.2-4.6-7.7-6.9c-2.4-2.2-4.7-4.4-6.9-6.7
		c-1.3-1.3-2.5-2.6-3.8-3.9V239.5L99.5,239.5L99.5,239.5z"/>
	<rect x="290" y="239.5" class="st7" width="21.4" height="236.7"/>
</g>
<g>
	<path class="st6" d="M99.5,239.5v216c-1-0.8-2-1.7-3-2.5c-2.6-2.2-5.2-4.6-7.7-6.9V239.5H99.5z"/>
	<rect x="300.7" y="239.5" class="st6" width="10.7" height="236.7"/>
</g>
</svg>
