<svg enable-background="new 0 0 512 512" viewBox="0 0 512 512" xmlns="http://www.w3.org/2000/svg"><path d="m501 267c0 134.5-108.8 245-245 245-135.9 0-245-110.2-245-245 0-135.3 109.7-245 245-245 135.6 0 245 109.9 245 245z" fill="#535354"/><path d="m315.2 50v99.9c0 2.9-1.6 5.5-3.9 6.9-1.2.7-2.6 1.1-4.1 1.1-4.4 0-8-3.6-8-8v-99.9c0-4.4 3.6-8 8-8 1.5 0 2.9.4 4.1 1.1.6.3 1.1.8 1.6 1.2 1.4 1.5 2.3 3.5 2.3 5.7z" fill="#daeae8"/><path d="m363.9 50v99.9c0 2.9-1.6 5.5-3.9 6.9-1.2.7-2.6 1.1-4.1 1.1-4.4 0-8-3.6-8-8v-99.9c0-4.4 3.6-8 8-8 1.5 0 2.9.4 4.1 1.1.6.3 1.1.8 1.6 1.2 1.4 1.5 2.3 3.5 2.3 5.7z" fill="#daeae8"/><path d="m315.2 50v99.9c0 2.9-1.6 5.5-3.9 6.9-2.4-1.4-3.9-4-3.9-6.9v-99.9c0-2.9 1.6-5.5 3.9-6.9.6.3 1.1.8 1.6 1.2 1.4 1.5 2.3 3.5 2.3 5.7z" fill="#eff9f8"/><path d="m363.9 50v99.9c0 2.9-1.6 5.5-3.9 6.9-2.4-1.4-3.9-4-3.9-6.9v-99.9c0-2.9 1.6-5.5 3.9-6.9.6.3 1.1.8 1.6 1.2 1.4 1.5 2.3 3.5 2.3 5.7z" fill="#eff9f8"/><path d="m456.1 204.7v194.1c0 3.6-.2 7.1-.7 10.6-19.1 26.7-43.4 49.4-71.5 66.7-1.7.1-3.5.2-5.2.2h-94.4c-42.8 0-77.4-34.7-77.4-77.4v-194.2c0-42.8 34.7-77.4 77.4-77.4h94.4c42.7 0 77.4 34.6 77.4 77.4z" fill="#04afaf"/><path d="m386.6 35c0 4.4-1.8 8.4-4.7 11.3s-6.9 4.7-11.3 4.7h-78.3c-8.8 0-16-7.2-16-16 0-4.4 1.8-8.4 4.7-11.3s6.9-4.7 11.3-4.7h78.3c7.9 0 14.5 5.8 15.8 13.3.1.9.2 1.8.2 2.7z" fill="#00a0a3"/><path d="m386.4 32.4h-77.7c-7.9 0-14.5-5.8-15.8-13.3h77.7c7.9-.1 14.5 5.7 15.8 13.3z" fill="#04afaf"/><path d="m410.7 239.8v208.9c0 3.5-.7 6.9-2 9.9-6.9 5.5-14 10.6-21.5 15.3-.6.1-1.2.1-1.8.1h-101.1c-42.8 0-77.4-34.7-77.4-77.4v-182.1h178.6c13.9 0 25.2 11.3 25.2 25.3z" fill="#00a0a3"/><g fill="#028282"><path d="m273.4 167c-4.9 0-8.8 4-8.8 8.8v251.8c0 4.9 4 8.8 8.8 8.8 4.9 0 8.8-4 8.8-8.8v-251.7c0-4.9-4-8.9-8.8-8.9z"/><path d="m331.5 167c-4.9 0-8.8 4-8.8 8.8v251.8c0 4.9 4 8.8 8.8 8.8 4.9 0 8.8-4 8.8-8.8v-251.7c0-4.9-3.9-8.9-8.8-8.9z"/><path d="m389.6 167c-4.9 0-8.8 4-8.8 8.8v251.8c0 4.9 4 8.8 8.8 8.8 4.9 0 8.8-4 8.8-8.8v-251.7c.1-4.9-3.9-8.9-8.8-8.9z"/></g><path d="m242.9 193.1h-96.2c-10.3 0-18.7 8.4-18.7 18.7v39.7h20.1v-33.8c0-.3 0-.7.1-1 .5-4.1 3.9-7.2 8.1-7.2h77c4.2 0 7.7 3.2 8.1 7.2 0 .3.1.6.1 1v33.8h20.1v-39.7c-.1-10.3-8.4-18.7-18.7-18.7z" fill="#d86e05"/><path d="m128 216.7h20.1c0 .3-.1.6-.1 1v33.8h-20z" fill="#af5605"/><path d="m261.5 216.7v34.8h-20.1v-33.8c0-.3 0-.7-.1-1z" fill="#af5605"/><path d="m158.5 476.3c0 5.1-1.1 9.9-3 14.2-4.2-1.9-8.4-3.9-12.5-6.1-5-2.6-9.8-5.3-14.6-8.2-7.3-4.5-14.3-9.3-21.1-14.5-3.7-2.8-7.3-5.7-10.8-8.7 6.5-7.4 16-12.1 26.6-12.1 19.6 0 35.4 15.9 35.4 35.4z" fill="#898989"/><path d="m144.6 476.3c0 2.9-.6 5.7-1.6 8.2-5-2.6-9.8-5.3-14.6-8.2-7.3-4.5-14.3-9.3-21.1-14.5 3.9-4.3 9.6-6.9 15.8-6.9 11.9-.1 21.5 9.5 21.5 21.4z" fill="#707070"/><circle cx="267.5" cy="476.3" fill="#898989" r="35.3"/><path d="m289 476.3c0 8-4.3 14.9-10.7 18.6-3.2 1.8-6.8 2.9-10.8 2.9-11.9 0-21.5-9.6-21.5-21.5s9.6-21.5 21.5-21.5c3.9 0 7.6 1 10.8 2.9 6.4 3.7 10.7 10.6 10.7 18.6z" fill="#707070"/><path d="m372.6 262.4v191c0 12.6-10.2 22.8-22.8 22.8h-221.4c-55.7-34.1-96.7-89.8-111.4-155.3v-58.6c0-12.6 10.2-22.8 22.8-22.8h309.9c12.7 0 22.9 10.2 22.9 22.9z" fill="#f2c230"/><path d="m372.6 262.4v177h-290.7c-1.3-1.3-2.5-2.6-3.8-3.9-8.6-9.1-16.6-18.9-23.7-29.3v-166.7h295.4c12.6 0 22.8 10.2 22.8 22.9z" fill="#f7d139"/><path d="m349.8 300.1-54.6 19.4c-3.9 1.4-8.2-.7-9.6-4.6l-11.6-32.7c-1.4-3.9.7-8.2 4.6-9.6l54.6-19.4c3.9-1.4 8.2.7 9.6 4.6l11.6 32.7c1.4 3.9-.7 8.2-4.6 9.6z" fill="#ff8602"/><path d="m221.6 414.1-57.5 7.6c-4.1.5-7.9-2.3-8.4-6.5l-4.5-34.4c-.5-4.1 2.3-7.9 6.5-8.4l57.5-7.6c4.1-.5 7.9 2.3 8.4 6.5l4.5 34.4c.5 4-2.4 7.8-6.5 8.4z" fill="#00a0a3"/><path d="m90.6 334.5-56.6-12.3c-4-.9-6.6-4.9-5.7-8.9l7.4-33.9c.9-4 4.9-6.6 8.9-5.7l56.6 12.3c4 .9 6.6 4.9 5.7 8.9l-7.4 33.9c-.8 4-4.8 6.6-8.9 5.7z" fill="#58e0d9"/><path d="m99.5 239.5v216c-1-.8-2-1.7-3-2.5-2.6-2.2-5.2-4.6-7.7-6.9-2.4-2.2-4.7-4.4-6.9-6.7-1.3-1.3-2.5-2.6-3.8-3.9v-196z" fill="#af5605"/><path d="m290 239.5h21.4v236.7h-21.4z" fill="#af5605"/><path d="m99.5 239.5v216c-1-.8-2-1.7-3-2.5-2.6-2.2-5.2-4.6-7.7-6.9v-206.6z" fill="#d86e05"/><path d="m300.7 239.5h10.7v236.7h-10.7z" fill="#d86e05"/></svg>