<svg enable-background="new 0 0 512 512" viewBox="0 0 512 512" xmlns="http://www.w3.org/2000/svg"><path d="m468.3 387.7c20.2-35.6 31.7-76.8 31.7-120.7 0-135.3-109.7-245-245-245-53.6 0-103.1 17.2-143.4 46.4l-17.6 319.3z" fill="#535354"/><path d="m136.5 394.6c3.7 4.2 9.5 7.6 17.2 9.9h.2c30.6 5.2 110.5 23.3 113 44.6.9 7.4-7.9 15-26.1 22.6-24.1 10.1-38.4 21.4-42.5 33.6 18.2 4.3 37.2 6.6 56.7 6.6 88.5 0 166.1-47 209.2-117.4z" fill="#898989"/><path d="m90.6 448.6c30.4 27.6 67.8 47.6 109.2 57.1 3.6-10.5 15.5-21.6 41.6-32.6 94-39.3-87.2-70-87.2-70-7.4-2.3-12.3-5.3-15.6-8.5h-45z" fill="#9b9b9b"/><path d="m299.4 68.4h-173.7c-1.8 2.2-5.6 7.4-5.6 14 0 5 2.1 9.8 6.3 14.1l7.1 34.5c-2.4 2.2-10.2 10.2-10.2 20.6 0 6.4 3 12.4 9 17.9-5.5 2.4-18.3 10.1-18.3 29.4v21.6l33.7 123.4 30.7 30.7h132.4v-294.9c-.1-6.3-5.2-11.3-11.4-11.3z" fill="#ffd685"/><path d="m127.7 68.4h-16.1c-11.4 8.2-22 17.4-31.8 27.4l35.6 130.1c0-12.2 0-22 0-27 0-23.6 19.7-28.9 19.7-28.9-23.3-19.1 0-38.4 0-38.4l-7.4-35.8c-13.9-13.9 0-27.4 0-27.4z" fill="#ffbf40"/><path d="m479 271c-10.1-8.2-24-5.9-35.3-18.3-8.3-9.2-12.3-24.1-14.1-38.5-2.8-22.5-20.3-39.2-41-39.2h-41.2c-1.8 1.9-4.8 5.8-5.2 11.3-.4 5.8 2.1 11.8 7.4 17.6 13.9 15.3.6 66.2-.3 69.7-.6 1.2-3.7 7.4-2.1 13.7 1 3.9 3.5 7 7.5 9.3 3.1 1.8 4.7 3.7 4.8 5.8.2 3.3-3.3 6.6-4.7 7.7-.4.3-10.4 7.9-11.3 19.5-.6 6.8 2.1 13.5 7.8 19.8 3 3.3 4.7 12.5 5.4 25h135.5v-74.4c0-11.4-4.9-22.1-13.2-29z" fill="#ff8f1f"/><path d="m349.7 175.1h-39.1v199.4h47.6c-.9-13.2-2.7-22.7-5.9-26.2-18.6-20.4 3.3-36.8 3.3-36.8s12.3-9.1-.2-16.2-4.6-20.9-4.6-20.9 15.2-54.9 0-71.5c-15.3-16.7-1.1-27.8-1.1-27.8z" fill="#f47e14"/><path d="m426.7 202.9h-38.6s-7.7 3.6-7.7 17.2 0 40.9 0 40.9.8 9.6 7.1 13.5h37.3c-4.2-2.7-7-7.7-7-13.5 0-8.6 6.4-15.7 14.3-15.7h6.3c-4.9-8.8-7.5-20.1-8.9-31.1-.4-3.9-1.4-7.7-2.8-11.3z" fill="#00a0a3"/><path d="m390.1 202.9h-39.4c-4.9 0-8.9 4.4-8.9 9.7v52.1c0 5.4 4 9.7 8.9 9.7h38.8c-6.3-3.9-7.1-13.5-7.1-13.5s0-27.2 0-40.9c0-13.5 7.7-17.1 7.7-17.1z" fill="#028989"/><path d="m446.4 243.6h-14.3c-8.7 0-15.8 7.8-15.8 17.4s7.1 17.4 15.8 17.4h14.3c8.7 0 15.8-7.8 15.8-17.4s-7.1-17.4-15.8-17.4z" fill="#bfddd8"/><path d="m449.6 247.2h-7.8c-4.8 0-8.7 4.3-8.7 9.5 0 5.3 3.9 9.5 8.7 9.5h7.8c4.8 0 8.7-4.3 8.7-9.5s-3.9-9.5-8.7-9.5z" fill="#daeae8"/><path d="m355.4 311.5c-4 0-7.3-3.5-7.4-8s3.2-8.2 7.3-8.3l9.5-.2c4.1-.1 7.4 3.5 7.5 8s-3.2 8.2-7.3 8.3l-9.5.2s0 0-.1 0z" fill="#fcab08"/><path d="m501 329.2c0-9.6-7.1-17.4-15.8-17.4h-20c-8.7 0-15.8 7.8-15.8 17.4s7.1 17.4 15.8 17.4h20c8.7-.1 15.8-7.8 15.8-17.4z" fill="#ffd685"/><path d="m113.9 346.9c-.3 1.3-1.8 8.1 2.1 14.8 3.1 5.4 8.9 9.3 17 11.6-.1.4-.3.8-.4 1.3h47.8l-28.4-28.4h-38z" fill="#ffbf40"/><path d="m115.4 346.1h-92.3c3.3 9.8 7.2 19.2 11.7 28.4h99.3c.5-1.4.9-2.3.9-2.3-25.3-6-19.7-25.1-19.7-25.1s.1-.4.1-1z" fill="#fcab08"/><path d="m131.7 95.8h-6c.2.2.4.5.7.7l7.1 34.5c-2.4 2.2-10.2 10.2-10.2 20.6 0 6.4 3 12.4 9 17.9-5.5 2.4-18.3 10.1-18.3 29.4v112.2l36 36h123.8c5.3 0 9.6-4.3 9.6-9.6v-90.2z" fill="#fcab08"/><path d="m115.4 312.6c0-38.7 0-98.1 0-113.7 0-23.6 19.7-28.9 19.7-28.9-23.3-19.1 0-38.4 0-38.4l-7.4-35.8h-47.9c-31.2 31.9-53.7 72.3-63.8 117.4z" fill="#ffa522"/><path d="m152.9 347.1-37.5-37.5-98.9-98.9c-4.2 18.1-6.5 36.9-6.5 56.3 0 28.1 4.7 55 13.4 80.1h92z" fill="#f9970b"/><path d="m79.8 95.8c-3.3 3.4-6.5 6.8-9.6 10.4l44.6 44.6h71.8l-55-55z" fill="#fcab08"/><path d="m273.7 95.8h-146l155.6 155.6v-146c0-5.3-4.3-9.6-9.6-9.6z" fill="#ffbf40"/><path d="m487.3 372.2h-357.5c1 .4 2 .7 3 1-1.1 2.9-2.6 9.2 0 15.8 2.4 6.1 7.7 10.8 15.8 14.2h338.7c8.1 0 14.7-6.9 14.7-15.5-.1-8.6-6.6-15.5-14.7-15.5z" fill="#daeae8"/><path d="m95.2 372.2v30.9h59c-30.5-9.4-19.1-30.9-19.1-30.9z" fill="#bfddd8"/><path d="m355.1 369.7c3 4.7 8 7.7 14.9 8.7 20.6 3 31.2 44.3 32.3 48.8-.7 2.3-3.2 13.1 3 21.6 2.7 3.7 6.7 6.4 11.9 8.1 18.3-10.9 30.6-30.9 30.6-53.7 0-34.4-28-62.5-62.5-62.5-11.9 0-23 3.3-32.4 9.1-.9 3.6-2.3 12.7 2.2 19.9z" fill="#00a0a3"/><path d="m403.9 427.2s-10.7-47.1-33.8-50.5c-22.9-3.3-15.4-27.8-15.4-28.1-19.1 10.7-32 31.1-32 54.5 0 34.4 28 62.5 62.5 62.5 12.4 0 24-3.7 33.7-9.9-22.1-6.1-15-28.5-15-28.5z" fill="#028989"/><ellipse cx="385.3" cy="403.4" fill="#daeae8" rx="30.5" ry="30.5"/><path d="m47.8 340.7c-8.8 0-17.2 1.8-24.8 5.1 3.5 10.2 7.6 20.1 12.3 29.6l3.3 5c10.8 5.9 18.2 22.2 22.4 34l7.4 11.2c6.9 8.1 14.4 15.8 22.3 23 12.1-11.4 19.7-27.6 19.7-45.5-.1-34.4-28.1-62.4-62.6-62.4z" fill="#00a0a3"/><path d="m47.8 372.7c-4.5 0-8.7 1-12.5 2.7 9 18.1 20.1 35 33.1 50.2 6.1-5.6 9.9-13.6 9.9-22.5 0-16.8-13.7-30.4-30.5-30.4z" fill="#daeae8"/><g fill="#ffd685"><path d="m202.5 205.9h-143c-3.9 0-7-3.1-7-7s3.1-7 7-7h143c3.9 0 7 3.1 7 7s-3.1 7-7 7z"/><path d="m202.5 233h-143c-3.9 0-7-3.1-7-7s3.1-7 7-7h143c3.9 0 7 3.1 7 7s-3.1 7-7 7z"/><path d="m202.5 260.1h-143c-3.9 0-7-3.1-7-7s3.1-7 7-7h143c3.9 0 7 3.1 7 7s-3.1 7-7 7z"/><path d="m202.5 314.2h-143c-3.9 0-7-3.1-7-7s3.1-7 7-7h143c3.9 0 7 3.1 7 7s-3.1 7-7 7z"/><path d="m202.5 287.2h-143c-3.9 0-7-3.1-7-7s3.1-7 7-7h143c3.9 0 7 3.1 7 7s-3.1 7-7 7z"/><path d="m123.2 151.6c0 6.4 3 12.4 9 17.9-.3.2-.7.3-1.1.5h76.6c3.6 0 6.5-2.9 6.5-6.5v-25.4c0-3.6-2.9-6.5-6.5-6.5h-74.8c-2.9 2.8-9.7 10.4-9.7 20z"/></g><path d="m135.1 131.6h-80.8c-3.6 0-6.5 2.9-6.5 6.5v25.4c0 3.6 2.9 6.5 6.5 6.5h80.8c-23.4-19.1 0-38.4 0-38.4z" fill="#ffbf40"/></svg>