<?xml version="1.0" encoding="utf-8"?>
<!-- Generator: Adobe Illustrator 24.2.3, SVG Export Plug-In . SVG Version: 6.00 Build 0)  -->
<svg version="1.1" id="Layer_1" xmlns="http://www.w3.org/2000/svg" xmlns:xlink="http://www.w3.org/1999/xlink" x="0px" y="0px"
	 viewBox="0 0 512 512" style="enable-background:new 0 0 512 512;" xml:space="preserve">
<style type="text/css">
	.st0{fill:#535354;}
	.st1{fill:#898989;}
	.st2{fill:#9B9B9B;}
	.st3{fill:#FFD685;}
	.st4{fill:#FFBF40;}
	.st5{fill:#FF8F1F;}
	.st6{fill:#F47E14;}
	.st7{fill:#00A0A3;}
	.st8{fill:#028989;}
	.st9{fill:#BFDDD8;}
	.st10{fill:#DAEAE8;}
	.st11{fill:#FCAB08;}
	.st12{fill:#FFA522;}
	.st13{fill:#F9970B;}
</style>
<g>
	<path class="st0" d="M468.3,387.7C488.5,352.1,500,310.9,500,267c0-135.3-109.7-245-245-245c-53.6,0-103.1,17.2-143.4,46.4
		L94,387.7H468.3z"/>
	<path class="st1" d="M136.5,394.6c3.7,4.2,9.5,7.6,17.2,9.9h0.2c30.6,5.2,110.5,23.3,113,44.6c0.9,7.4-7.9,15-26.1,22.6
		c-24.1,10.1-38.4,21.4-42.5,33.6c18.2,4.3,37.2,6.6,56.7,6.6c88.5,0,166.1-47,209.2-117.4L136.5,394.6L136.5,394.6z"/>
	<path class="st2" d="M90.6,448.6c30.4,27.6,67.8,47.6,109.2,57.1c3.6-10.5,15.5-21.6,41.6-32.6c94-39.3-87.2-70-87.2-70
		c-7.4-2.3-12.3-5.3-15.6-8.5h-45L90.6,448.6z"/>
	<g>
		<path class="st3" d="M299.4,68.4H125.7c-1.8,2.2-5.6,7.4-5.6,14c0,5,2.1,9.8,6.3,14.1l7.1,34.5c-2.4,2.2-10.2,10.2-10.2,20.6
			c0,6.4,3,12.4,9,17.9c-5.5,2.4-18.3,10.1-18.3,29.4v21.6l33.7,123.4l30.7,30.7h132.4V79.7C310.7,73.4,305.6,68.4,299.4,68.4
			L299.4,68.4z"/>
		<path class="st4" d="M127.7,68.4h-16.1c-11.4,8.2-22,17.4-31.8,27.4l35.6,130.1c0-12.2,0-22,0-27c0-23.6,19.7-28.9,19.7-28.9
			c-23.3-19.1,0-38.4,0-38.4l-7.4-35.8C113.8,81.9,127.7,68.4,127.7,68.4L127.7,68.4z"/>
		<g>
			<path class="st5" d="M479,271c-10.1-8.2-24-5.9-35.3-18.3c-8.3-9.2-12.3-24.1-14.1-38.5c-2.8-22.5-20.3-39.2-41-39.2h-41.2
				c-1.8,1.9-4.8,5.8-5.2,11.3c-0.4,5.8,2.1,11.8,7.4,17.6c13.9,15.3,0.6,66.2-0.3,69.7c-0.6,1.2-3.7,7.4-2.1,13.7
				c1,3.9,3.5,7,7.5,9.3c3.1,1.8,4.7,3.7,4.8,5.8c0.2,3.3-3.3,6.6-4.7,7.7c-0.4,0.3-10.4,7.9-11.3,19.5c-0.6,6.8,2.1,13.5,7.8,19.8
				c3,3.3,4.7,12.5,5.4,25h135.5V300C492.2,288.6,487.3,277.9,479,271L479,271z"/>
			<path class="st6" d="M349.7,175.1h-39.1v199.4h47.6c-0.9-13.2-2.7-22.7-5.9-26.2c-18.6-20.4,3.3-36.8,3.3-36.8s12.3-9.1-0.2-16.2
				s-4.6-20.9-4.6-20.9s15.2-54.9,0-71.5C335.5,186.2,349.7,175.1,349.7,175.1z"/>
			<path class="st7" d="M426.7,202.9h-38.6c0,0-7.7,3.6-7.7,17.2s0,40.9,0,40.9s0.8,9.6,7.1,13.5h37.3c-4.2-2.7-7-7.7-7-13.5
				c0-8.6,6.4-15.7,14.3-15.7h6.3c-4.9-8.8-7.5-20.1-8.9-31.1C429.1,210.3,428.1,206.5,426.7,202.9z"/>
			<path class="st8" d="M390.1,202.9h-39.4c-4.9,0-8.9,4.4-8.9,9.7v52.1c0,5.4,4,9.7,8.9,9.7h38.8c-6.3-3.9-7.1-13.5-7.1-13.5
				s0-27.2,0-40.9C382.4,206.5,390.1,202.9,390.1,202.9z"/>
			<path class="st9" d="M446.4,243.6h-14.3c-8.7,0-15.8,7.8-15.8,17.4s7.1,17.4,15.8,17.4h14.3c8.7,0,15.8-7.8,15.8-17.4
				C462.2,251.4,455.1,243.6,446.4,243.6L446.4,243.6z"/>
			<path class="st10" d="M449.6,247.2h-7.8c-4.8,0-8.7,4.3-8.7,9.5c0,5.3,3.9,9.5,8.7,9.5h7.8c4.8,0,8.7-4.3,8.7-9.5
				C458.3,251.5,454.4,247.2,449.6,247.2z"/>
			<g>
				<path class="st11" d="M355.4,311.5c-4,0-7.3-3.5-7.4-8s3.2-8.2,7.3-8.3l9.5-0.2c4.1-0.1,7.4,3.5,7.5,8s-3.2,8.2-7.3,8.3
					l-9.5,0.2C355.5,311.5,355.5,311.5,355.4,311.5L355.4,311.5z"/>
			</g>
			<path class="st3" d="M501,329.2c0-9.6-7.1-17.4-15.8-17.4h-20c-8.7,0-15.8,7.8-15.8,17.4s7.1,17.4,15.8,17.4h20
				C493.9,346.5,501,338.8,501,329.2z"/>
		</g>
		<path class="st4" d="M113.9,346.9c-0.3,1.3-1.8,8.1,2.1,14.8c3.1,5.4,8.9,9.3,17,11.6c-0.1,0.4-0.3,0.8-0.4,1.3h47.8L152,346.2
			h-38L113.9,346.9L113.9,346.9z"/>
		<path class="st11" d="M115.4,346.1H23.1c3.3,9.8,7.2,19.2,11.7,28.4h99.3c0.5-1.4,0.9-2.3,0.9-2.3c-25.3-6-19.7-25.1-19.7-25.1
			S115.4,346.7,115.4,346.1z"/>
		<path class="st11" d="M131.7,95.8h-6c0.2,0.2,0.4,0.5,0.7,0.7l7.1,34.5c-2.4,2.2-10.2,10.2-10.2,20.6c0,6.4,3,12.4,9,17.9
			c-5.5,2.4-18.3,10.1-18.3,29.4v112.2l36,36h123.8c5.3,0,9.6-4.3,9.6-9.6v-90.2L131.7,95.8z"/>
		<path class="st12" d="M115.4,312.6c0-38.7,0-98.1,0-113.7c0-23.6,19.7-28.9,19.7-28.9c-23.3-19.1,0-38.4,0-38.4l-7.4-35.8H79.8
			C48.6,127.7,26.1,168.1,16,213.2L115.4,312.6z"/>
		<path class="st13" d="M152.9,347.1l-37.5-37.5l0,0l-98.9-98.9C12.3,228.8,10,247.6,10,267c0,28.1,4.7,55,13.4,80.1h92l0,0H152.9z"
			/>
		<path class="st11" d="M79.8,95.8c-3.3,3.4-6.5,6.8-9.6,10.4l44.6,44.6h71.8l-55-55H79.8z"/>
		<path class="st4" d="M273.7,95.8h-146l155.6,155.6v-146C283.3,100.1,279,95.8,273.7,95.8z"/>
		<path class="st10" d="M487.3,372.2H129.8c1,0.4,2,0.7,3,1c-1.1,2.9-2.6,9.2,0,15.8c2.4,6.1,7.7,10.8,15.8,14.2h338.7
			c8.1,0,14.7-6.9,14.7-15.5C501.9,379.1,495.4,372.2,487.3,372.2L487.3,372.2z"/>
		<path class="st9" d="M95.2,372.2v30.9h59c-30.5-9.4-19.1-30.9-19.1-30.9H95.2z"/>
		<path class="st7" d="M355.1,369.7c3,4.7,8,7.7,14.9,8.7c20.6,3,31.2,44.3,32.3,48.8c-0.7,2.3-3.2,13.1,3,21.6
			c2.7,3.7,6.7,6.4,11.9,8.1c18.3-10.9,30.6-30.9,30.6-53.7c0-34.4-28-62.5-62.5-62.5c-11.9,0-23,3.3-32.4,9.1
			C352,353.4,350.6,362.5,355.1,369.7L355.1,369.7z"/>
		<path class="st8" d="M403.9,427.2c0,0-10.7-47.1-33.8-50.5c-22.9-3.3-15.4-27.8-15.4-28.1c-19.1,10.7-32,31.1-32,54.5
			c0,34.4,28,62.5,62.5,62.5c12.4,0,24-3.7,33.7-9.9C396.8,449.6,403.9,427.2,403.9,427.2L403.9,427.2z"/>
		<ellipse class="st10" cx="385.3" cy="403.4" rx="30.5" ry="30.5"/>
		<path class="st7" d="M47.8,340.7c-8.8,0-17.2,1.8-24.8,5.1c3.5,10.2,7.6,20.1,12.3,29.6l0,0l3.3,5c10.8,5.9,18.2,22.2,22.4,34
			l7.4,11.2l0,0c6.9,8.1,14.4,15.8,22.3,23c12.1-11.4,19.7-27.6,19.7-45.5C110.3,368.7,82.3,340.7,47.8,340.7z"/>
		<path class="st10" d="M47.8,372.7c-4.5,0-8.7,1-12.5,2.7c9,18.1,20.1,35,33.1,50.2c6.1-5.6,9.9-13.6,9.9-22.5
			C78.3,386.3,64.6,372.7,47.8,372.7z"/>
		<g>
			<path class="st3" d="M202.5,205.9h-143c-3.9,0-7-3.1-7-7s3.1-7,7-7h143c3.9,0,7,3.1,7,7S206.4,205.9,202.5,205.9z"/>
		</g>
		<g>
			<path class="st3" d="M202.5,233h-143c-3.9,0-7-3.1-7-7s3.1-7,7-7h143c3.9,0,7,3.1,7,7S206.4,233,202.5,233z"/>
		</g>
		<g>
			<path class="st3" d="M202.5,260.1h-143c-3.9,0-7-3.1-7-7c0-3.9,3.1-7,7-7h143c3.9,0,7,3.1,7,7C209.5,257,206.4,260.1,202.5,260.1
				z"/>
		</g>
		<g>
			<path class="st3" d="M202.5,314.2h-143c-3.9,0-7-3.1-7-7s3.1-7,7-7h143c3.9,0,7,3.1,7,7S206.4,314.2,202.5,314.2z"/>
		</g>
		<g>
			<path class="st3" d="M202.5,287.2h-143c-3.9,0-7-3.1-7-7s3.1-7,7-7h143c3.9,0,7,3.1,7,7S206.4,287.2,202.5,287.2z"/>
		</g>
		<path class="st3" d="M123.2,151.6c0,6.4,3,12.4,9,17.9c-0.3,0.2-0.7,0.3-1.1,0.5h76.6c3.6,0,6.5-2.9,6.5-6.5v-25.4
			c0-3.6-2.9-6.5-6.5-6.5h-74.8C130,134.4,123.2,142,123.2,151.6z"/>
		<path class="st4" d="M135.1,131.6H54.3c-3.6,0-6.5,2.9-6.5,6.5v25.4c0,3.6,2.9,6.5,6.5,6.5h80.8
			C111.7,150.9,135.1,131.6,135.1,131.6z"/>
	</g>
</g>
</svg>
