<?xml version="1.0" encoding="utf-8"?>
<!-- Generator: Adobe Illustrator 24.2.3, SVG Export Plug-In . SVG Version: 6.00 Build 0)  -->
<svg version="1.1" id="Layer_1" xmlns="http://www.w3.org/2000/svg" xmlns:xlink="http://www.w3.org/1999/xlink" x="0px" y="0px"
	 viewBox="0 0 1000 1000" style="enable-background:new 0 0 1000 1000;" xml:space="preserve">
<style type="text/css">
	.st0{fill:#ECECEC;}
	.st1{fill:#F5F5F5;}
	.st2{fill:#E1E1E1;}
	.st3{fill:#FFFFFF;}
	.st4{fill:#217573;}
	.st5{fill:#BA650F;}
	.st6{fill:#FF8900;}
	.st7{opacity:0.3;}
	.st8{fill:#F7671E;}
	.st9{opacity:0.39;}
	.st10{fill:#E8A691;}
	.st11{fill:#FFBB15;}
	.st12{opacity:0.2;}
	.st13{fill:#E5952C;}
	.st14{fill:#47310A;}
	.st15{fill:#281F0E;}
	.st16{fill:#D88F7C;}
	.st17{fill:#A85E4A;}
	.st18{fill:#6B6B6B;}
	.st19{fill:none;stroke:#E1BCB2;stroke-miterlimit:10;}
	.st20{fill:#EDA506;}
</style>
<circle class="st0" cx="500" cy="563" r="430.5"/>
<g>
	<g>
		<g>
			<path class="st0" d="M67.9,802.3l-4.7,1.8c0,2.3-0.4,6.2-0.9,8.4c-0.6,2.2-1.1,4.5-0.7,6.8c0.4,2.3,1.8,4.5,3.9,5.2
				c1.7,0.6,3.6,0.1,5.3-0.4c4.8-1.5,9.4-3.7,13.6-6.5c1.2-0.8,2.5-1.8,2.9-3.3c0.3-1.2-0.1-2.6-0.8-3.6c-0.8-1-1.8-1.8-2.9-2.5
				C78.9,805.1,73.5,803.1,67.9,802.3z"/>
		</g>
	</g>
	<g>
		<g>
			<path class="st0" d="M88.5,753.8c-2.3,0-4.5,1-6.4,2.2c-6.5,3.9-11.2,10.4-13.9,17.4c-2.7,7.1-3.5,14.8-3.3,22.3l7,3.2
				c5-0.6,9.6-3.3,13.2-6.8c3.6-3.5,6.4-7.8,8.8-12.2c1.8-3.2,3.4-6.4,4.2-10c0.8-3.5,0.7-7.4-1-10.6
				C95.4,756.1,92.1,753.7,88.5,753.8z"/>
		</g>
	</g>
	<g>
		<g>
			<path class="st1" d="M46.1,750.6c-2.6,1.2-4.2,3.8-5.1,6.5c-2.4,7.4-0.1,15.7,4.2,22.2c4.3,6.5,11.2,12.6,17.3,17.5l8.9-5.8
				c-0.6-7-2-13.5-4.1-20.2c-2.1-6.8-5.1-13.9-10.8-18C53.6,750.6,49.5,749.1,46.1,750.6z"/>
		</g>
	</g>
	<g>
		<g>
			<path class="st1" d="M99.6,784.7c-1.3,0-2.5,0.5-3.7,1c-9.7,4.2-18.7,10.6-29.2,11.8l1.3,4.7c4.8,2.1,9.7,3.8,14.8,5
				c3.1,0.7,6.5,1.3,9.6,0.3c3.4-1.1,6-3.9,7.7-7c1.6-3.2,2.4-6.7,3.2-10.2c0.3-1.4,0.6-2.9-0.1-4.1
				C102.3,785.2,100.9,784.7,99.6,784.7z"/>
		</g>
	</g>
	<g>
		<g>
			<path class="st1" d="M64.1,803.7c-0.1,8.3-6.2,16.1-13.8,19.4c-7.6,3.3-17,1.7-23.1-3.9c-1.3-1.2-2.5-2.8-2.4-4.5
				c0.2-2.5,2.9-3.8,5.3-4.5c10.4-3,21.3-4.5,31-9.3"/>
		</g>
	</g>
	<g>
		<g>
			<path class="st0" d="M34.9,778.5c-3-1.5-6.2-2.8-9.7-2.8c-3.5,0.1-7.2,1.8-9,5c-1.3,2.4-1.5,5.2-1,7.8c1.2,6.7,6.2,12,12.1,14.5
				c6,2.5,12.8,2.6,19.5,1.6c4.8-0.7,9.7-1.9,14.4-3.7l2.5-3.9C54.4,789.6,45.3,783.6,34.9,778.5z"/>
		</g>
	</g>
	<g>
		<g>
			<g>
				<path class="st2" d="M54.9,790.3c-0.1,0.1,1.3,1.4,3.2,2.7c1.9,1.3,3.7,2,3.8,1.9c0.1-0.1-1.6-1-3.5-2.2
					C56.4,791.4,54.9,790.2,54.9,790.3z"/>
			</g>
		</g>
	</g>
	<g>
		<g>
			<g>
				<path class="st2" d="M71,803.1c0,0,0.6,0.4,1.7,1c1.1,0.6,2.6,1.2,4.4,1.9c1.7,0.6,3.4,1.1,4.6,1.3c1.2,0.3,1.9,0.4,1.9,0.3
					c0-0.1-0.7-0.3-1.9-0.6c-1.2-0.3-2.8-0.8-4.5-1.4c-1.7-0.6-3.3-1.3-4.4-1.7C71.8,803.4,71.1,803.1,71,803.1z"/>
			</g>
		</g>
	</g>
	<g>
		<g>
			<g>
				<path class="st2" d="M89.7,788.8c0-0.1-1,0.5-2.6,1.3c-1.6,0.8-3.9,1.9-6.4,2.8c-2.6,0.9-5,1.6-6.7,2c-1.8,0.4-2.9,0.6-2.8,0.7
					c0,0,0.3,0,0.8-0.1c0.5-0.1,1.2-0.2,2.1-0.4c1.8-0.3,4.2-1,6.8-1.9c2.6-1,4.9-2.1,6.4-3c0.8-0.4,1.4-0.8,1.8-1.1
					C89.4,789,89.7,788.8,89.7,788.8z"/>
			</g>
		</g>
	</g>
	<g>
		<g>
			<g>
				<path class="st2" d="M63.9,804.9c-0.1,0-0.8,1.7-1.3,4c-0.5,2.3-0.5,4.2-0.3,4.2c0.1,0,0.3-1.9,0.8-4.1
					C63.5,806.8,64,805,63.9,804.9z"/>
			</g>
		</g>
	</g>
	<g>
		<g>
			<g>
				<path class="st2" d="M43,794.5c0,0,0.8,0.5,2.2,1.1c1.4,0.6,3.4,1.3,5.7,1.9c2.3,0.6,4.4,0.9,5.9,1c1.5,0.1,2.5,0.1,2.5,0.1
					c0-0.1-0.9-0.2-2.5-0.4c-1.5-0.2-3.6-0.5-5.9-1.1c-2.3-0.6-4.3-1.2-5.7-1.8C43.9,794.8,43.1,794.5,43,794.5z"/>
			</g>
		</g>
	</g>
	<g>
		<g>
			<g>
				<path class="st2" d="M56.1,775.5c0,0,0,0.3,0.2,0.8c0.1,0.5,0.3,1.2,0.6,2.1c0.6,1.8,1.5,4.2,2.6,6.9c1.2,2.6,2.4,5,3.3,6.6
					c0.5,0.8,0.9,1.5,1.1,1.9c0.3,0.4,0.5,0.7,0.5,0.7c0.1,0-0.5-1.1-1.4-2.7c-0.9-1.7-2-4-3.2-6.6c-1.1-2.6-2.1-5-2.7-6.8
					C56.5,776.6,56.1,775.5,56.1,775.5z"/>
			</g>
		</g>
	</g>
	<g>
		<g>
			<g>
				<path class="st2" d="M79.3,777.7c0,0-0.2,0.2-0.5,0.6c-0.3,0.4-0.7,1-1.2,1.7c-1,1.5-2.4,3.6-3.8,6c-1.4,2.4-2.6,4.6-3.4,6.2
					c-0.4,0.8-0.7,1.5-0.9,1.9c-0.2,0.5-0.3,0.7-0.3,0.7c0.1,0,0.6-0.9,1.5-2.5c0.9-1.6,2.1-3.7,3.5-6.1c1.4-2.4,2.7-4.5,3.6-6
					C78.7,778.6,79.3,777.7,79.3,777.7z"/>
			</g>
		</g>
	</g>
	<g>
		<g>
			<g>
				<path class="st2" d="M88,799.5c0-0.1-1,0-2.6,0c-1.6,0-3.8,0-6.2-0.3c-2.4-0.3-4.6-0.7-6.1-1.1c-1.5-0.4-2.5-0.7-2.5-0.6
					c0,0,0.2,0.1,0.6,0.3c0.4,0.2,1,0.4,1.8,0.6c1.5,0.5,3.7,0.9,6.1,1.2c2.4,0.3,4.7,0.2,6.3,0.1c0.8-0.1,1.4-0.1,1.9-0.2
					C87.8,799.6,88,799.5,88,799.5z"/>
			</g>
		</g>
	</g>
	<g>
		<g>
			<g>
				<path class="st2" d="M73.4,816.2c0,0-0.5-0.7-1.4-1.7c-0.8-1.1-1.9-2.6-3-4.4c-1-1.8-1.8-3.5-2.2-4.8c-0.5-1.3-0.7-2.1-0.8-2.1
					c0,0,0.1,0.8,0.5,2.2c0.4,1.3,1.1,3.1,2.2,4.9c1,1.8,2.2,3.3,3.1,4.4C72.7,815.7,73.3,816.2,73.4,816.2z"/>
			</g>
		</g>
	</g>
	<g>
		<g>
			<g>
				<path class="st2" d="M47.8,810.5c0,0,0.9-0.2,2.4-0.7c1.5-0.5,3.4-1.3,5.5-2.4c2.1-1.1,3.8-2.3,5-3.3c1.2-0.9,1.9-1.6,1.9-1.6
					c0,0-0.8,0.5-2,1.4c-1.2,0.9-3,2-5.1,3.1c-2,1.1-4,1.9-5.4,2.5C48.7,810.1,47.8,810.4,47.8,810.5z"/>
			</g>
		</g>
	</g>
	<g>
		<g>
			<path class="st3" d="M69.2,793.7c3.1,1.8,4.1,5.7,2.3,8.8c-1.8,3.1-5.7,4.1-8.8,2.3c-3.1-1.8-4.1-5.7-2.3-8.8
				C62.2,792.9,66.1,791.9,69.2,793.7z"/>
		</g>
	</g>
	<g>
		<g>
			<g>
				<path class="st2" d="M67.6,772.2c-0.1,0,0.1,1.2,0.3,3.1c0.2,1.9,0.4,4.6,0.6,7.5c0.1,2.9,0.1,5.6,0.1,7.5c0,1.9-0.1,3.1,0,3.1
					c0,0,0.1-0.3,0.1-0.8c0.1-0.5,0.1-1.3,0.2-2.3c0.1-1.9,0.2-4.6,0-7.5c-0.1-2.9-0.4-5.6-0.7-7.5c-0.1-1-0.3-1.7-0.4-2.3
					C67.7,772.5,67.7,772.2,67.6,772.2z"/>
			</g>
		</g>
	</g>
</g>
<g>
	<g>
		<g>
			<path class="st0" d="M180.8,182.6l-5.9-0.6c-1.2,2.4-3.7,6.3-5.5,8.3c-1.8,2-3.6,4.1-4.4,6.6c-0.8,2.5-0.6,5.6,1.3,7.5
				c1.5,1.5,3.7,2.1,5.8,2.4c5.8,1,11.8,1.2,17.7,0.5c1.7-0.2,3.6-0.5,4.8-1.8c1-1.1,1.3-2.7,1.1-4.2c-0.2-1.5-0.9-2.9-1.7-4.2
				C190.7,191.4,186.2,186.4,180.8,182.6z"/>
		</g>
	</g>
	<g>
		<g>
			<path class="st0" d="M228.2,142.9c-2.4-1.2-5.2-1.3-7.8-1.1c-8.9,0.6-17.2,4.8-23.9,10.8c-6.6,5.9-11.6,13.5-15.4,21.5l5.6,7.1
				c5.5,2.1,11.8,1.7,17.4,0c5.7-1.7,10.8-4.8,15.7-8.1c3.5-2.4,7-4.9,9.7-8.1s4.6-7.3,4.6-11.6C234.2,149.2,232,144.8,228.2,142.9z
				"/>
		</g>
	</g>
	<g>
		<g>
			<path class="st1" d="M185.7,117c-3.3-0.2-6.4,1.7-8.7,4.1c-6.5,6.5-8.5,16.4-7.5,25.5c1,9.1,5,19.1,8.7,27.5l12.4-1.3
				c3.1-7.7,5.2-15.1,6.6-23.3c1.4-8.2,2.1-17.2-1.6-24.6C193.5,120.9,190.1,117.2,185.7,117z"/>
		</g>
	</g>
	<g>
		<g>
			<path class="st1" d="M223.2,181.2c-1.4-0.7-2.9-0.8-4.4-0.9c-12.4-0.8-25.2,1-36.8-3.3l-1.2,5.6c3.8,4.8,8.1,9.2,12.7,13.2
				c2.9,2.5,6.1,4.8,9.8,5.5c4.1,0.7,8.4-0.8,11.8-3.2c3.4-2.4,6.1-5.7,8.7-8.9c1-1.3,2.1-2.7,2-4.3
				C225.7,183.2,224.6,181.9,223.2,181.2z"/>
		</g>
	</g>
	<g>
		<g>
			<path class="st1" d="M176,182c-4.5,8.6-15.1,13.5-24.8,12.8c-9.7-0.6-18.7-7.4-22-16.5c-0.7-1.9-1.1-4.2,0-6
				c1.6-2.4,5.1-2.4,7.9-1.8c12.4,2.4,24.6,6.8,37.3,6.8"/>
		</g>
	</g>
	<g>
		<g>
			<path class="st0" d="M159.1,140c-2.4-3.2-5-6.3-8.6-8.1c-3.6-1.8-8.5-2-12.1,0.4c-2.7,1.7-4.3,4.6-5.2,7.5
				c-2.4,7.7,0,15.8,4.9,21.6c4.9,5.8,12,9.5,19.4,12.1c5.4,1.9,11.1,3.1,17,3.8l4.6-2.7C173.5,162.1,167.2,151,159.1,140z"/>
		</g>
	</g>
	<g>
		<g>
			<g>
				<path class="st2" d="M173.6,163c-0.1,0,0.5,2.2,1.9,4.6c1.3,2.4,2.8,4.1,2.9,4c0.1-0.1-1.2-1.9-2.5-4.2
					C174.6,165,173.7,163,173.6,163z"/>
			</g>
		</g>
	</g>
	<g>
		<g>
			<g>
				<path class="st2" d="M183.6,185.1c-0.1,0,0.4,0.8,1.2,2c0.8,1.2,2.1,2.7,3.6,4.3c1.5,1.6,2.9,2.9,4,3.8c1.1,0.9,1.8,1.4,1.9,1.4
					c0-0.1-0.6-0.7-1.6-1.6c-1-1-2.4-2.3-3.9-3.9c-1.5-1.6-2.7-3.1-3.6-4.2C184.2,185.8,183.7,185.1,183.6,185.1z"/>
			</g>
		</g>
	</g>
	<g>
		<g>
			<g>
				<path class="st2" d="M210.7,180.1c0-0.1-1.3,0-3.4,0c-2.1,0-5-0.1-8.2-0.5c-3.2-0.4-6.1-1-8.1-1.5c-2.1-0.5-3.3-0.9-3.3-0.8
					c0,0,0.3,0.2,0.9,0.4c0.6,0.2,1.4,0.5,2.4,0.8c2,0.6,4.9,1.2,8.1,1.6c3.2,0.4,6.2,0.5,8.3,0.4c1.1,0,1.9-0.1,2.5-0.2
					C210.4,180.2,210.7,180.1,210.7,180.1z"/>
			</g>
		</g>
	</g>
	<g>
		<g>
			<g>
				<path class="st2" d="M175.2,183.2c-0.1-0.1-1.8,1.4-3.5,3.5c-1.7,2.1-2.7,4.1-2.6,4.2c0.1,0.1,1.3-1.8,3-3.9
					C173.8,184.8,175.3,183.3,175.2,183.2z"/>
			</g>
		</g>
	</g>
	<g>
		<g>
			<g>
				<path class="st2" d="M159,161.1c0,0,0.6,1,1.7,2.4c1.2,1.4,2.9,3.2,4.9,5.1c2.1,1.8,4.1,3.3,5.7,4.2c1.5,1,2.5,1.4,2.6,1.4
					c0-0.1-0.9-0.7-2.4-1.7c-1.5-1-3.5-2.5-5.5-4.3c-2.1-1.8-3.8-3.6-5-4.9C159.7,162,159,161.1,159,161.1z"/>
			</g>
		</g>
	</g>
	<g>
		<g>
			<g>
				<path class="st2" d="M182.7,148.3c0,0-0.1,0.3-0.3,0.9c-0.1,0.6-0.3,1.5-0.5,2.6c-0.4,2.2-0.7,5.2-1,8.6
					c-0.2,3.4-0.2,6.4-0.1,8.6c0,1.1,0.1,2,0.2,2.6c0.1,0.6,0.1,1,0.1,1c0.1,0,0-1.4,0-3.6c0-2.2,0-5.2,0.2-8.6
					c0.2-3.3,0.5-6.4,0.8-8.6C182.6,149.7,182.8,148.3,182.7,148.3z"/>
			</g>
		</g>
	</g>
	<g>
		<g>
			<g>
				<path class="st2" d="M205.8,162.9c0,0-0.3,0.1-0.8,0.4c-0.5,0.3-1.3,0.7-2.2,1.2c-1.9,1-4.4,2.5-7.1,4.2
					c-2.7,1.7-5.1,3.4-6.8,4.6c-0.9,0.6-1.5,1.1-2,1.5c-0.5,0.4-0.7,0.6-0.7,0.6c0,0.1,1.1-0.7,2.9-1.8c1.8-1.2,4.2-2.8,6.9-4.5
					c2.7-1.7,5.2-3.2,7-4.3C204.7,163.7,205.8,163,205.8,162.9z"/>
			</g>
		</g>
	</g>
	<g>
		<g>
			<g>
				<path class="st2" d="M203.3,190.4c0-0.1-1-0.5-2.7-1.3c-1.7-0.8-4-2-6.3-3.6c-2.4-1.6-4.4-3.2-5.8-4.4c-1.4-1.2-2.3-2-2.3-2
					c0,0,0.2,0.3,0.5,0.6c0.3,0.4,0.9,0.9,1.6,1.6c1.4,1.3,3.4,3,5.8,4.5c2.4,1.6,4.7,2.8,6.5,3.5c0.9,0.4,1.6,0.6,2.1,0.8
					C203,190.4,203.2,190.4,203.3,190.4z"/>
			</g>
		</g>
	</g>
	<g>
		<g>
			<g>
				<path class="st2" d="M179,200c0.1,0-0.2-1-0.5-2.5c-0.3-1.6-0.6-3.7-0.7-6.1c-0.1-2.4,0-4.6,0.2-6.2c0.2-1.6,0.3-2.6,0.3-2.6
					c-0.1,0-0.3,0.9-0.6,2.5c-0.3,1.6-0.5,3.8-0.4,6.3c0.1,2.5,0.5,4.6,0.9,6.2C178.6,199.1,179,200,179,200z"/>
			</g>
		</g>
	</g>
	<g>
		<g>
			<g>
				<path class="st2" d="M155.4,180.4c0,0.1,1.1,0.3,2.9,0.6c1.8,0.3,4.3,0.5,7,0.4c2.8-0.1,5.2-0.4,7-0.7c1.8-0.3,2.8-0.7,2.8-0.7
					c0-0.1-1.1,0.1-2.9,0.4c-1.8,0.2-4.2,0.5-7,0.6c-2.7,0.1-5.2-0.1-7-0.3C156.6,180.5,155.5,180.3,155.4,180.4z"/>
			</g>
		</g>
	</g>
	<g>
		<g>
			<path class="st3" d="M186.7,174.2c2.2,3.5,1.2,8.1-2.3,10.4c-3.5,2.2-8.1,1.2-10.4-2.3c-2.2-3.5-1.2-8.1,2.3-10.4
				C179.8,169.7,184.5,170.7,186.7,174.2z"/>
		</g>
	</g>
	<g>
		<g>
			<g>
				<path class="st2" d="M196.6,151c-0.1,0-0.6,1.3-1.4,3.4c-0.8,2.1-2,5-3.4,8.1c-1.4,3.1-2.9,5.9-3.9,7.9c-1.1,2-1.7,3.2-1.7,3.2
					c0,0,0.2-0.3,0.6-0.8c0.3-0.5,0.8-1.3,1.4-2.3c1.1-1.9,2.6-4.7,4.1-7.8c1.4-3.1,2.6-6,3.3-8.2c0.4-1.1,0.7-1.9,0.8-2.5
					C196.6,151.4,196.6,151,196.6,151z"/>
			</g>
		</g>
	</g>
</g>
<g>
	<g>
		<g>
			<path class="st0" d="M934.4,346.6l-3.8-3.3c-2,1-5.7,2.6-7.9,3.1c-2.2,0.5-4.5,1.1-6.3,2.5c-1.8,1.4-3.1,3.6-2.8,5.9
				c0.3,1.8,1.6,3.2,2.8,4.5c3.6,3.6,7.6,6.6,12.1,9c1.3,0.7,2.8,1.4,4.3,1.1c1.2-0.3,2.2-1.3,2.8-2.4c0.6-1.1,0.8-2.4,0.9-3.7
				C937.1,357.6,936.3,351.9,934.4,346.6z"/>
		</g>
	</g>
	<g>
		<g>
			<path class="st0" d="M987,342.2c-1.1-2-3-3.5-4.9-4.7c-6.5-3.9-14.4-5.1-21.9-4.2c-7.5,0.9-14.7,3.8-21.3,7.5l0.5,7.7
				c2.8,4.2,7.4,7,12.2,8.6c4.8,1.6,9.9,2,14.9,2.1c3.6,0.1,7.3,0,10.8-0.9c3.5-0.9,6.8-2.8,8.9-5.8
				C988.1,349.5,988.7,345.3,987,342.2z"/>
		</g>
	</g>
	<g>
		<g>
			<path class="st1" d="M970.1,303.2c-2.2-1.7-5.3-1.9-8.1-1.5c-7.7,1.3-14,7.2-17.7,14.1c-3.7,6.9-5.9,15.8-7.4,23.5l9.3,5.2
				c5.9-3.8,11-8,16-13c5-5,9.9-11,10.9-18C973.6,309.8,973.1,305.5,970.1,303.2z"/>
		</g>
	</g>
	<g>
		<g>
			<path class="st1" d="M964.7,366.4c-0.6-1.1-1.6-2-2.6-2.8c-8.2-6.6-18.1-11.7-24.1-20.4l-3.5,3.3c0.3,5.2,1.1,10.4,2.4,15.4
				c0.8,3.1,1.9,6.3,4.1,8.6c2.5,2.5,6.2,3.5,9.8,3.5c3.6,0,7-1,10.5-1.9c1.3-0.4,2.8-0.8,3.5-2C965.5,369,965.4,367.6,964.7,366.4z
				"/>
		</g>
	</g>
	<g>
		<g>
			<path class="st1" d="M931.4,343.8c-7.4,3.8-17.1,2-23.6-3.2c-6.4-5.2-9.4-14.3-7.3-22.3c0.5-1.7,1.3-3.5,2.9-4.2
				c2.3-0.9,4.7,0.8,6.4,2.6c7.5,7.8,13.9,16.8,22.7,23.1"/>
		</g>
	</g>
	<g>
		<g>
			<path class="st0" d="M940.2,306.2c-0.1-3.4-0.4-6.8-2.1-9.9c-1.7-3-4.9-5.6-8.6-5.7c-2.7-0.1-5.3,1.1-7.3,2.7
				c-5.4,4.2-7.7,11-7.2,17.5c0.6,6.5,3.7,12.5,7.6,18c2.9,4,6.2,7.7,9.9,11l4.6,0.4C939.4,328.7,940.5,317.9,940.2,306.2z"/>
		</g>
	</g>
	<g>
		<g>
			<g>
				<path class="st2" d="M939,329.4c-0.1,0-0.7,1.8-0.9,4.1c-0.2,2.3,0,4.2,0.1,4.2c0.1,0,0.1-1.9,0.3-4.2
					C938.8,331.3,939.2,329.4,939,329.4z"/>
			</g>
		</g>
	</g>
	<g>
		<g>
			<g>
				<path class="st2" d="M935.2,349.7c-0.1,0-0.1,0.8-0.1,2c0,1.2,0.1,2.9,0.4,4.7c0.3,1.8,0.6,3.5,0.9,4.7c0.3,1.2,0.6,1.9,0.6,1.9
					c0.1,0-0.1-0.7-0.3-1.9c-0.2-1.2-0.6-2.8-0.8-4.6c-0.3-1.8-0.4-3.5-0.5-4.7C935.3,350.5,935.2,349.7,935.2,349.7z"/>
			</g>
		</g>
	</g>
	<g>
		<g>
			<g>
				<path class="st2" d="M956.5,359.5c0-0.1-0.9-0.7-2.4-1.7c-1.5-1-3.5-2.6-5.5-4.4c-2-1.8-3.7-3.7-4.9-5c-1.2-1.4-1.9-2.2-1.9-2.2
					c0,0,0.1,0.3,0.4,0.7c0.3,0.4,0.7,1,1.3,1.7c1.1,1.4,2.8,3.3,4.9,5.1c2.1,1.9,4.1,3.3,5.6,4.3c0.8,0.5,1.4,0.9,1.8,1.1
					C956.3,359.4,956.5,359.5,956.5,359.5z"/>
			</g>
		</g>
	</g>
	<g>
		<g>
			<g>
				<path class="st2" d="M930.3,344.2c0-0.1-1.9,0.1-4.1,0.7c-2.2,0.7-3.9,1.5-3.9,1.6c0.1,0.1,1.8-0.6,4-1.2
					C928.5,344.7,930.3,344.3,930.3,344.2z"/>
			</g>
		</g>
	</g>
	<g>
		<g>
			<g>
				<path class="st2" d="M929.8,320.9c-0.1,0-0.1,1,0,2.5c0.1,1.5,0.4,3.7,1,6c0.6,2.3,1.3,4.3,1.9,5.7c0.6,1.4,1.1,2.3,1.1,2.2
					c0.1,0-0.3-0.9-0.8-2.3c-0.5-1.4-1.2-3.4-1.7-5.7c-0.6-2.3-0.9-4.4-1.1-5.9C929.9,321.9,929.8,320.9,929.8,320.9z"/>
			</g>
		</g>
	</g>
	<g>
		<g>
			<g>
				<path class="st2" d="M952.6,323.6c0,0-0.2,0.2-0.6,0.5c-0.4,0.4-0.9,0.9-1.6,1.6c-1.3,1.3-3.1,3.3-4.9,5.5
					c-1.8,2.2-3.3,4.4-4.3,6c-0.5,0.8-0.9,1.4-1.2,1.9c-0.3,0.5-0.4,0.7-0.4,0.7c0.1,0,0.7-0.9,1.8-2.5c1.1-1.5,2.6-3.6,4.4-5.9
					c1.8-2.2,3.5-4.2,4.8-5.6C951.9,324.5,952.7,323.7,952.6,323.6z"/>
			</g>
		</g>
	</g>
	<g>
		<g>
			<g>
				<path class="st2" d="M961.5,345.1c0,0-0.3-0.1-0.8-0.2c-0.5-0.1-1.2-0.2-2.1-0.3c-1.8-0.2-4.3-0.4-7-0.6c-2.7-0.1-5.2-0.1-7-0.1
					c-0.9,0-1.6,0-2.1,0.1c-0.5,0-0.8,0.1-0.8,0.1c0,0.1,1.1,0.1,2.9,0.1c1.8,0,4.3,0.1,7,0.2c2.7,0.1,5.2,0.3,7,0.4
					C960.4,345.1,961.5,345.2,961.5,345.1z"/>
			</g>
		</g>
	</g>
	<g>
		<g>
			<g>
				<path class="st2" d="M946.3,363.1c0.1,0-0.5-0.9-1.2-2.3c-0.8-1.4-1.8-3.4-2.7-5.6c-0.9-2.3-1.5-4.4-1.9-5.9
					c-0.4-1.5-0.6-2.5-0.6-2.5c0,0,0,0.3,0,0.7c0.1,0.4,0.2,1.1,0.3,1.9c0.3,1.6,0.9,3.7,1.8,6c0.9,2.3,2,4.2,2.8,5.6
					c0.4,0.7,0.8,1.2,1.1,1.6C946.1,362.9,946.3,363.1,946.3,363.1z"/>
			</g>
		</g>
	</g>
	<g>
		<g>
			<g>
				<path class="st2" d="M924.7,357.8c0.1,0,0.4-0.8,0.9-2c0.5-1.2,1.4-2.9,2.5-4.7c1.1-1.7,2.3-3.2,3.2-4.2c0.9-1,1.5-1.6,1.4-1.7
					c0,0-0.7,0.5-1.7,1.5c-1,1-2.2,2.4-3.3,4.2c-1.1,1.8-1.9,3.5-2.4,4.8C924.8,357,924.6,357.8,924.7,357.8z"/>
			</g>
		</g>
	</g>
	<g>
		<g>
			<g>
				<path class="st2" d="M917.9,332.6c0,0,0.6,0.8,1.7,1.8c1.1,1.1,2.7,2.4,4.7,3.7c1.9,1.3,3.8,2.3,5.2,2.9
					c1.4,0.6,2.3,0.9,2.3,0.9c0-0.1-0.8-0.5-2.2-1.2c-1.4-0.7-3.2-1.7-5.1-3c-1.9-1.3-3.6-2.6-4.7-3.6
					C918.6,333.2,917.9,332.6,917.9,332.6z"/>
			</g>
		</g>
	</g>
	<g>
		<g>
			<path class="st3" d="M942.7,343.7c-0.2,3.5-3.2,6.3-6.7,6.1c-3.5-0.2-6.3-3.2-6.1-6.7c0.2-3.5,3.2-6.3,6.7-6.1
				C940.1,337.1,942.9,340.1,942.7,343.7z"/>
		</g>
	</g>
	<g>
		<g>
			<g>
				<path class="st2" d="M961,332.3c0-0.1-1,0.6-2.6,1.7c-1.6,1.1-3.8,2.5-6.4,4c-2.5,1.5-4.9,2.7-6.6,3.6c-1.7,0.9-2.8,1.4-2.8,1.4
					c0,0,0.3-0.1,0.8-0.3c0.5-0.2,1.2-0.5,2.1-0.9c1.8-0.8,4.1-2,6.7-3.5c2.5-1.5,4.8-3,6.3-4.1c0.8-0.6,1.4-1,1.8-1.4
					C960.8,332.5,961,332.3,961,332.3z"/>
			</g>
		</g>
	</g>
</g>
<g>
	<g>
		<g>
			<path class="st2" d="M792.7,667.3c0,0-0.2,0.1-0.5,0.3c-0.4,0.2-0.9,0.5-1.6,0.8c-1.5,0.7-3.5,1.8-6.2,3.1
				c-1.3,0.7-2.8,1.4-4.5,2.2c-1.6,0.8-3.4,1.7-5.3,2.8c-3.7,2.1-8,4.4-12.6,7c-4.5,2.8-9.6,5.8-14.9,9.3c-2.6,1.8-5.3,3.6-8,5.5
				c-1.4,1-2.8,1.9-4.2,2.9c-1.4,1.1-2.8,2.1-4.2,3.2c-11.4,8.4-23,18.9-34.1,30.9c-1.4,1.5-2.7,3-4.1,4.5c-1.4,1.5-2.6,3.1-3.8,4.6
				c-1.2,1.5-2.5,3.1-3.7,4.6c-1.2,1.5-2.5,3-3.5,4.6c-2.2,3.1-4.4,6.2-6.6,9.2c-2,3.1-3.9,6.2-5.7,9.2
				c-7.1,12.2-12.7,23.8-16.3,33.8c-0.9,2.5-1.9,4.9-2.7,7.2c-0.7,2.3-1.4,4.5-2,6.5c-0.6,2-1.2,3.9-1.8,5.7
				c-0.4,1.8-0.9,3.4-1.2,4.8c-0.7,2.9-1.3,5.1-1.7,6.7c-0.2,0.7-0.3,1.3-0.5,1.7c-0.1,0.4-0.2,0.6-0.2,0.6c0,0,0-0.2,0.1-0.6
				c0.1-0.4,0.2-1,0.4-1.8c0.4-1.6,0.9-3.9,1.5-6.7c0.3-1.5,0.7-3.1,1.1-4.9c0.5-1.8,1.1-3.7,1.7-5.7c0.6-2,1.3-4.2,2-6.5
				c0.7-2.3,1.7-4.7,2.6-7.2c3.6-10.1,9.1-21.7,16.2-34c1.9-3,3.8-6.1,5.7-9.3c2.1-3,4.3-6.1,6.6-9.3c1.1-1.6,2.3-3.1,3.6-4.6
				c1.2-1.5,2.5-3.1,3.7-4.6c1.3-1.5,2.5-3.2,3.8-4.6c1.4-1.5,2.7-3,4.1-4.5c11.1-12.1,22.8-22.5,34.2-30.9c1.4-1.1,2.8-2.1,4.2-3.2
				c1.4-1,2.8-2,4.2-2.9c2.8-1.9,5.5-3.7,8.1-5.5c5.3-3.4,10.4-6.4,15-9.2c4.7-2.6,9-4.9,12.7-6.9c1.9-1,3.6-1.9,5.3-2.7
				c1.6-0.8,3.1-1.5,4.5-2.1c2.7-1.3,4.8-2.2,6.2-2.9c0.7-0.3,1.2-0.6,1.6-0.7C792.5,667.4,792.7,667.3,792.7,667.3z"/>
		</g>
	</g>
	<g>
		<g>
			<g>
				<g>
					<path class="st2" d="M891.6,631.1c0-0.1-1.6,0.6-4.1,1.7c-2.5,1.1-6,2.6-9.9,4.1c-3.9,1.5-7.5,2.7-10.1,3.6
						c-2.6,0.9-4.2,1.4-4.2,1.5c0,0.1,1.7-0.3,4.3-1c2.6-0.8,6.3-1.9,10.2-3.4c3.9-1.5,7.4-3.1,9.8-4.3
						C890.1,632,891.6,631.1,891.6,631.1z"/>
				</g>
			</g>
		</g>
		<g>
			<g>
				<path class="st0" d="M893.8,634.1c-1.9,0.9-4.1,0.1-5-1.8c-0.9-1.9-0.1-4.1,1.8-5c1.9-0.9,4.1-0.1,5,1.8
					C896.5,631,895.7,633.3,893.8,634.1z"/>
			</g>
		</g>
		<g>
			<g>
				<g>
					<path class="st2" d="M868.7,590.7c-0.1-0.1-1,1.3-2.6,3.6c-1.6,2.3-3.7,5.4-6.2,8.7c-2.5,3.3-4.9,6.3-6.6,8.4
						c-1.7,2.1-2.8,3.4-2.7,3.5c0.1,0.1,1.3-1.1,3.1-3.2c1.8-2,4.3-5,6.8-8.3c2.5-3.4,4.6-6.5,6.1-8.8
						C868,592.2,868.8,590.7,868.7,590.7z"/>
				</g>
			</g>
		</g>
		<g>
			<g>
				<path class="st0" d="M855.2,594c-2.9-8-12.6-12.9-20.9-10.5c-5.9,1.7-10.4,6.5-13.6,11.8c-9.5,15.8-9.1,36.7-21.4,50.4l4.6,14.1
					c11.6-10.5,23.2-21,34.9-31.5c5-4.5,10.1-9.1,13.6-14.9C855.8,607.6,857.5,600.4,855.2,594z"/>
			</g>
		</g>
		<g>
			<g>
				<path class="st0" d="M882.2,642c5.8,6.3,5.8,17.1-0.1,23.4c-4.2,4.5-10.6,6.3-16.7,6.7c-18.3,1.3-36.8-8.6-54.6-3.9l-10.5-10.5
					c14.6-5.6,29.3-11.1,43.9-16.7c6.3-2.4,12.7-4.8,19.5-5.3C870.4,635.3,877.7,637.1,882.2,642z"/>
			</g>
		</g>
		<g>
			<g>
				<g>
					<path class="st2" d="M898.2,607.3c-0.1-0.1-1.5,0.7-3.9,2.1c-2.4,1.3-5.7,3.2-9.4,5.1c-3.7,1.9-7.1,3.5-9.6,4.6
						c-2.5,1.1-4,1.8-4,1.9c0,0.1,1.6-0.4,4.2-1.5c2.5-1,6-2.6,9.8-4.5c3.7-1.9,7-3.8,9.3-5.3C896.8,608.4,898.2,607.4,898.2,607.3z
						"/>
				</g>
			</g>
		</g>
		<g>
			<g>
				<path class="st0" d="M900.7,610.1c-1.8,1.1-4.1,0.5-5.1-1.3c-1.1-1.8-0.5-4.1,1.3-5.1c1.8-1.1,4.1-0.5,5.1,1.3
					C903,606.8,902.5,609.1,900.7,610.1z"/>
			</g>
		</g>
		<g>
			<g>
				<path class="st0" d="M872.4,607.4c7.8,3.5,12,13.6,8.9,21.6c-2.2,5.8-7.3,9.9-12.8,12.7c-16.4,8.3-44.6,10.4-59.1,21.7l-6.4-9.7
					c11.3-10.8,22.7-21.6,34-32.4c4.9-4.7,9.9-9.4,15.9-12.4C858.9,605.7,866.3,604.6,872.4,607.4z"/>
			</g>
		</g>
		<g>
			<g>
				<path class="st2" d="M774.4,676.3c0,0,16.3-23.1,25.1-32.7c0,0,17.1,8.7,15.5,24.3L774.4,676.3L774.4,676.3z"/>
			</g>
		</g>
		<g>
			<g>
				<path class="st0" d="M872.2,592.1c-1.1,1.7-3.4,2.2-5.1,1.1c-1.7-1.1-2.2-3.4-1.1-5.1c1.1-1.7,3.4-2.2,5.1-1.1
					C872.8,588.1,873.4,590.4,872.2,592.1z"/>
			</g>
		</g>
		<g>
			<g>
				<g>
					<path class="st2" d="M846.2,614c0,0-0.6,0.4-1.7,1.2c-1.1,0.8-2.6,2-4.4,3.6c-3.7,3.1-8.6,7.4-14,12.4c-5.3,5-10,9.7-13.3,13.2
						c-1.6,1.7-3,3.2-3.8,4.2c-0.9,1-1.4,1.6-1.3,1.6c0,0,0.6-0.5,1.5-1.4c1-1,2.4-2.4,4-4c3.4-3.4,8.1-8,13.4-13
						c5.3-5,10.2-9.4,13.8-12.6c1.7-1.5,3.1-2.8,4.2-3.8C845.7,614.6,846.3,614.1,846.2,614z"/>
				</g>
			</g>
		</g>
		<g>
			<g>
				<g>
					<path class="st2" d="M830.3,645.7c-0.1-0.2-4.7,2.1-10.3,5c-5.6,3-10.1,5.5-10,5.7c0.1,0.2,4.7-2.1,10.3-5
						C825.9,648.4,830.4,645.8,830.3,645.7z"/>
				</g>
			</g>
		</g>
	</g>
	<g>
		<g>
			<path class="st2" d="M809.2,704.2c0,0-0.3,0-0.9-0.1c-0.7-0.1-1.5-0.3-2.6-0.5c-1.1-0.2-2.5-0.5-4-0.7c-1.6-0.2-3.4-0.6-5.4-0.8
				c-4-0.5-8.8-0.9-14.1-1.1c-5.3-0.2-11.2-0.1-17.3,0.3c-6.1,0.5-11.9,1.3-17.2,2.2c-5.2,1-9.9,2.1-13.8,3.2
				c-2,0.5-3.7,1.1-5.2,1.5c-1.5,0.5-2.8,0.9-3.9,1.3c-1,0.3-1.8,0.6-2.5,0.8c-0.6,0.2-0.9,0.3-0.9,0.2c0,0,0.3-0.2,0.8-0.4
				c0.7-0.3,1.4-0.6,2.4-1c1-0.4,2.3-0.9,3.9-1.4c1.5-0.5,3.2-1.1,5.2-1.7c3.9-1.2,8.6-2.3,13.8-3.4c5.3-1,11.1-1.8,17.3-2.3
				c6.2-0.4,12.1-0.5,17.4-0.2c5.3,0.3,10.1,0.7,14.1,1.4c2,0.3,3.8,0.6,5.4,0.9c1.6,0.3,2.9,0.6,4,0.9c1,0.3,1.8,0.5,2.5,0.6
				C808.9,704.1,809.2,704.2,809.2,704.2z"/>
		</g>
	</g>
	<g>
		<path class="st2" d="M824.6,718c-1.1-1.7-3-2.8-4.8-3.9c2.4,0.1,4.9,0.2,7.1-0.6c2.3-0.7,4.4-2.5,4.9-4.8c0.5-2.6-1.1-5.3-3.3-6.8
			c-2.2-1.5-5-2-7.6-2.5c-13.5-2.2-27.2-3-40.4,0.9c11.3,10.2,23.3,20.9,38.2,24.1c1.9,0.4,4.2,0.6,5.7-0.7
			C825.9,722.3,825.7,719.7,824.6,718z"/>
	</g>
</g>
<g>
	<g>
		<path class="st2" d="M646.3,916.7c15.6-9.2,32.3-19.7,44.7-32.9c12.4-13.3,21.1-31.3,19.1-49.3
			C678.4,850.2,653.8,882.1,646.3,916.7z"/>
	</g>
</g>
<g>
	<g>
		<path class="st2" d="M310.9,908.6c-3.6-17.8-8.1-36.9-16.6-53c-8.5-16.1-22.7-30.1-40.4-34.1C258.5,856.6,280.6,890.3,310.9,908.6
			z"/>
	</g>
</g>
<g>
	<path class="st4" d="M309.4,922.6c-15.2-33.2-49.1-57.1-85.5-60.3c17.4,32.2,50.4,55.4,86.6,60.7L309.4,922.6z"/>
</g>
<g>
	<g>
		<g>
			<path class="st4" d="M230.6,756.1c0,0,0.2,0.1,0.6,0.2c0.4,0.2,1,0.4,1.6,0.7c1.5,0.7,3.6,1.7,6.2,2.9c1.4,0.6,2.9,1.4,4.5,2.1
				c1.7,0.8,3.4,1.6,5.3,2.7c3.8,2,8,4.3,12.7,6.9c4.6,2.8,9.7,5.8,15,9.2c2.6,1.8,5.3,3.6,8.1,5.5c1.4,1,2.8,1.9,4.2,2.9
				c1.4,1,2.8,2.1,4.2,3.2c11.4,8.4,23.1,18.9,34.2,30.9c1.4,1.5,2.8,3,4.1,4.5c1.4,1.5,2.6,3.1,3.8,4.6c1.3,1.6,2.5,3.1,3.7,4.6
				c1.2,1.5,2.5,3,3.6,4.6c2.2,3.2,4.4,6.3,6.6,9.3c1.9,3.2,3.9,6.3,5.7,9.3c7.1,12.3,12.6,23.9,16.2,34c0.9,2.5,1.9,4.9,2.6,7.2
				c0.7,2.3,1.4,4.5,2,6.5c0.6,2,1.2,3.9,1.7,5.7c0.4,1.8,0.8,3.4,1.1,4.9c0.7,2.9,1.2,5.1,1.5,6.7c0.2,0.7,0.3,1.3,0.4,1.8
				c0.1,0.4,0.1,0.6,0.1,0.6c0,0-0.1-0.2-0.2-0.6c-0.1-0.4-0.3-1-0.5-1.7c-0.4-1.6-1-3.8-1.7-6.7c-0.4-1.5-0.8-3.1-1.2-4.8
				c-0.5-1.7-1.1-3.6-1.8-5.7c-0.6-2-1.3-4.2-2-6.5c-0.8-2.3-1.7-4.6-2.7-7.2c-3.6-10.1-9.2-21.6-16.3-33.8c-1.9-3-3.8-6.1-5.7-9.2
				c-2.1-3-4.3-6.1-6.6-9.2c-1.1-1.6-2.3-3.1-3.5-4.6c-1.2-1.5-2.5-3.1-3.7-4.6c-1.3-1.5-2.4-3.2-3.8-4.6c-1.4-1.5-2.7-3-4.1-4.5
				c-11-12-22.7-22.4-34.1-30.9c-1.4-1.1-2.8-2.1-4.2-3.2c-1.4-1-2.8-2-4.2-2.9c-2.8-1.9-5.4-3.7-8-5.5c-5.3-3.4-10.3-6.4-14.9-9.3
				c-4.7-2.6-8.9-4.9-12.6-7c-1.8-1.1-3.6-2-5.3-2.8c-1.6-0.8-3.1-1.6-4.5-2.2c-2.6-1.3-4.7-2.4-6.2-3.1c-0.7-0.3-1.2-0.6-1.6-0.8
				C230.7,756.2,230.6,756.1,230.6,756.1z"/>
		</g>
	</g>
	<g>
		<g>
			<g>
				<g>
					<path class="st5" d="M131.7,719.8c0-0.1,1.6,0.6,4.1,1.7c2.5,1.1,6,2.6,9.9,4.1c3.9,1.5,7.5,2.7,10.1,3.6
						c2.6,0.9,4.2,1.4,4.2,1.5c0,0.1-1.7-0.3-4.3-1c-2.6-0.8-6.3-1.9-10.2-3.4c-3.9-1.5-7.4-3.1-9.8-4.3
						C133.1,720.8,131.6,719.9,131.7,719.8z"/>
				</g>
			</g>
		</g>
		<g>
			<g>
				<path class="st6" d="M129.4,722.9c1.9,0.9,4.1,0.1,5-1.8c0.9-1.9,0.1-4.1-1.8-5c-1.9-0.9-4.1-0.1-5,1.8
					C126.8,719.8,127.6,722,129.4,722.9z"/>
			</g>
		</g>
		<g>
			<g>
				<g>
					<path class="st5" d="M154.5,679.5c0.1-0.1,1,1.3,2.6,3.6c1.6,2.3,3.7,5.3,6.2,8.7c2.5,3.3,4.9,6.3,6.6,8.4
						c1.7,2.1,2.8,3.4,2.7,3.5c-0.1,0.1-1.3-1.1-3.1-3.2c-1.8-2-4.3-5-6.8-8.3c-2.5-3.4-4.6-6.5-6.1-8.8
						C155.2,681,154.4,679.5,154.5,679.5z"/>
				</g>
			</g>
		</g>
		<g>
			<g>
				<path class="st6" d="M168,682.8c2.9-8,12.6-12.9,20.9-10.5c5.9,1.7,10.4,6.5,13.6,11.8c9.5,15.8,9.1,36.7,21.4,50.4l-4.6,14.1
					c-11.6-10.5-23.2-21-34.9-31.5c-5-4.5-10.1-9.1-13.6-14.9C167.4,696.4,165.7,689.1,168,682.8z"/>
			</g>
		</g>
		<g>
			<g>
				<path class="st6" d="M141,730.8c-5.8,6.3-5.8,17.1,0.1,23.4c4.2,4.5,10.6,6.3,16.7,6.7c18.3,1.3,36.8-8.6,54.6-3.9l10.5-10.5
					c-14.6-5.6-29.3-11.1-43.9-16.7c-6.3-2.4-12.7-4.8-19.5-5.3C152.8,724,145.6,725.8,141,730.8z"/>
			</g>
		</g>
		<g>
			<g>
				<g>
					<path class="st5" d="M125.1,696.1c0.1-0.1,1.5,0.7,3.9,2.1c2.4,1.3,5.7,3.2,9.4,5.1c3.7,1.9,7.1,3.5,9.6,4.6
						c2.5,1.1,4,1.8,4,1.9c0,0.1-1.6-0.4-4.2-1.5c-2.5-1-6-2.6-9.8-4.5c-3.7-1.9-7-3.8-9.3-5.3C126.4,697.1,125,696.1,125.1,696.1z"
						/>
				</g>
			</g>
		</g>
		<g>
			<g>
				<path class="st6" d="M122.5,698.9c1.8,1.1,4.1,0.5,5.1-1.3c1.1-1.8,0.5-4.1-1.3-5.1c-1.8-1.1-4.1-0.5-5.1,1.3
					C120.2,695.5,120.8,697.8,122.5,698.9z"/>
			</g>
		</g>
		<g>
			<g>
				<path class="st6" d="M150.8,696.2c-7.8,3.5-12,13.6-8.9,21.6c2.2,5.8,7.3,9.9,12.8,12.7c16.4,8.3,44.6,10.4,59.1,21.7l6.4-9.7
					c-11.3-10.8-22.7-21.6-34-32.4c-4.9-4.7-9.9-9.4-15.9-12.4C164.3,694.5,157,693.4,150.8,696.2z"/>
			</g>
		</g>
		<g>
			<g>
				<path class="st4" d="M248.9,765.1c0,0-16.3-23.1-25.1-32.7c0,0-17.1,8.7-15.5,24.3L248.9,765.1L248.9,765.1z"/>
			</g>
		</g>
		<g>
			<g>
				<path class="st6" d="M151,680.9c1.1,1.7,3.4,2.2,5.1,1.1c1.7-1.1,2.2-3.4,1.1-5.1c-1.1-1.7-3.4-2.2-5.1-1.1
					C150.4,676.9,149.9,679.2,151,680.9z"/>
			</g>
		</g>
		<g>
			<g>
				<g>
					<path class="st5" d="M177,702.8c0,0,0.6,0.4,1.7,1.2c1.1,0.8,2.6,2,4.4,3.6c3.7,3.1,8.6,7.4,14,12.4c5.3,5,10,9.7,13.3,13.2
						c1.6,1.7,3,3.2,3.8,4.2c0.9,1,1.4,1.6,1.3,1.6c0,0-0.6-0.5-1.5-1.4c-1-1-2.4-2.4-4-4c-3.4-3.4-8.1-8-13.4-13
						c-5.3-5-10.2-9.4-13.8-12.6c-1.7-1.5-3.1-2.8-4.2-3.8C177.5,703.4,177,702.8,177,702.8z"/>
				</g>
			</g>
		</g>
		<g>
			<g>
				<g>
					<path class="st5" d="M192.9,734.4c0.1-0.2,4.7,2.1,10.3,5c5.6,3,10.1,5.5,10,5.7c-0.1,0.2-4.7-2.1-10.3-5
						C197.3,737.2,192.8,734.6,192.9,734.4z"/>
				</g>
			</g>
		</g>
	</g>
	<g>
		<g>
			<path class="st4" d="M214,793c0,0,0.3-0.1,0.8-0.3c0.7-0.2,1.5-0.4,2.5-0.6c1.1-0.3,2.4-0.6,3.9-0.9c1.5-0.3,3.3-0.7,5.3-0.9
				c3.9-0.6,8.6-1.1,13.8-1.4c5.2-0.2,11-0.2,17,0.2c6,0.5,11.7,1.3,16.9,2.3c5.1,1,9.7,2.2,13.5,3.4c1.9,0.5,3.6,1.2,5.1,1.7
				c1.5,0.5,2.7,1,3.8,1.4c0.9,0.4,1.7,0.7,2.3,1c0.5,0.2,0.8,0.4,0.8,0.4c0,0-0.3,0-0.9-0.2c-0.7-0.2-1.5-0.5-2.4-0.8
				c-1-0.4-2.3-0.8-3.8-1.3c-1.5-0.5-3.2-1-5.1-1.5c-3.8-1.1-8.3-2.2-13.4-3.2c-5.1-0.9-10.8-1.7-16.8-2.2c-6-0.4-11.7-0.4-16.9-0.3
				c-5.2,0.2-9.9,0.6-13.8,1.2c-2,0.2-3.7,0.5-5.3,0.8c-1.5,0.2-2.9,0.5-4,0.7c-1,0.2-1.8,0.3-2.5,0.4C214.3,793,214,793,214,793z"
				/>
		</g>
	</g>
	<g>
		<path class="st6" d="M198.7,806.7c1.1-1.7,3-2.8,4.8-3.9c-2.4,0.1-4.9,0.2-7.1-0.6c-2.3-0.7-4.4-2.5-4.9-4.8
			c-0.5-2.6,1.1-5.3,3.3-6.8s5-2,7.6-2.5c13.5-2.2,27.2-3,40.4,0.9c-11.3,10.2-23.3,20.9-38.2,24.1c-1.9,0.4-4.2,0.6-5.7-0.7
			C197.4,811.1,197.5,808.5,198.7,806.7z"/>
	</g>
</g>
<g>
	<g>
		<path class="st4" d="M661.5,926.2c17.8-3.6,36.9-8.1,53-16.6c16.1-8.5,30.1-22.7,34.1-40.4C713.5,873.8,679.8,895.9,661.5,926.2z"
			/>
	</g>
</g>
<g>
	<path class="st4" d="M712.5,747.7c-29.3,23.5-69.7,116.3-64.7,149.1C668.1,870.4,720.8,795.2,712.5,747.7z"/>
</g>
<g>
	<g>
		<g>
			<path class="st4" d="M333.9,635.5c0,0-6.3,54.5,34.5,81.7C368.4,717.2,374.4,670.8,333.9,635.5z"/>
		</g>
	</g>
</g>
<g>
	<g>
		<g>
			<path class="st4" d="M462.2,752.6c0,0-48.1,26.5-46.6,75.4C415.5,828,456.8,806,462.2,752.6z"/>
		</g>
	</g>
</g>
<g>
	<g>
		<g>
			<path class="st4" d="M248.5,680.8c0,0,44,32.8,88,11.2C336.5,692,299.3,663.5,248.5,680.8z"/>
		</g>
	</g>
</g>
<g>
	<g>
		<g>
			<path class="st4" d="M338.1,738.1c0,0,21.8,50.3,70.7,53.5C408.9,791.6,390.8,748.4,338.1,738.1z"/>
		</g>
	</g>
</g>
<g>
	<g>
		<g>
			<path class="st4" d="M244.5,575.9c0,0-5.6,54.6,35.6,81.2C280.1,657.2,285.4,610.7,244.5,575.9z"/>
		</g>
	</g>
</g>
<g>
	<g>
		<g>
			<path class="st4" d="M158.6,608.4c0,0,39.2,38.4,85.7,22.9C244.3,631.4,211.3,598.1,158.6,608.4z"/>
		</g>
	</g>
</g>
<g>
	<g>
		<g>
			<path class="st4" d="M137.1,477.2c0,0-0.5,54.9,43,77.6C180.1,554.7,181.1,508,137.1,477.2z"/>
		</g>
	</g>
</g>
<g>
	<g>
		<g>
			<path class="st4" d="M189.7,357c0,0-31,45.3-7.6,88.4C182.1,445.4,209.1,407.1,189.7,357z"/>
		</g>
	</g>
</g>
<g>
	<g>
		<g>
			<path class="st4" d="M210.8,507.1c0,0-30.1,45.9-5.9,88.5C204.9,595.6,231.1,556.8,210.8,507.1z"/>
		</g>
	</g>
</g>
<g>
	<g>
		<g>
			<path class="st4" d="M220.8,424.1c0,0-48.6,25.4-48.2,74.5C172.6,498.5,214.4,477.4,220.8,424.1z"/>
		</g>
	</g>
</g>
<g>
	<g>
		<path class="st4" d="M232.9,371.3c0,0-0.4,0.4-1.3,1.1c-0.9,0.7-2.2,1.8-3.9,3.2c-1.7,1.4-3.7,3.3-6.1,5.5
			c-1.2,1.1-2.4,2.4-3.7,3.7c-1.3,1.3-2.7,2.7-4.1,4.4c-5.6,6.3-11.9,14.5-17.8,25c-5.9,10.4-11.3,23.1-15.2,37.6
			c-4,14.5-6.5,31-7,48.7c-0.2,8.9,0.1,18,1.2,27.4c1.1,9.4,2.8,19,6.5,28.2c3.6,9.3,8.4,18.3,14.3,26.9
			c5.9,8.6,12.8,16.8,20.5,24.4c15.3,15.4,33.7,28.5,53.1,40.9c19.4,12.4,39,23.6,56.9,35.8c18,12.2,34.5,25.5,47.8,40.4
			c13.4,14.9,23,31.7,29.1,48.4c6.1,16.7,9.6,33,11.7,48c4.3,30,3.4,54.6,2.2,71.4c-0.3,4.2-0.7,7.9-1.1,11.2
			c-0.2,1.6-0.3,3.1-0.5,4.5c-0.2,1.4-0.4,2.6-0.5,3.7c-0.3,2.2-0.6,3.8-0.8,5c-0.2,1.1-0.3,1.7-0.3,1.7s0-0.6,0.2-1.7
			c0.2-1.2,0.4-2.8,0.7-5c0.2-1.1,0.3-2.3,0.5-3.7c0.1-1.4,0.3-2.9,0.5-4.5c0.3-3.2,0.7-7,1-11.2c1.1-16.8,1.9-41.4-2.5-71.3
			c-2.2-14.9-5.7-31.1-11.8-47.8c-6.1-16.6-15.7-33.3-29.1-48.1c-13.3-14.8-29.7-28.1-47.7-40.2c-18-12.2-37.5-23.4-56.9-35.8
			c-19.4-12.4-37.9-25.5-53.2-41c-7.7-7.7-14.6-15.9-20.6-24.5c-5.9-8.7-10.8-17.8-14.3-27.1c-3.7-9.3-5.4-19.1-6.5-28.5
			c-1-9.4-1.3-18.6-1.1-27.5c0.5-17.8,3-34.3,7.1-48.8c4-14.6,9.4-27.3,15.4-37.7c5.9-10.5,12.3-18.7,18-25c1.4-1.6,2.8-3,4.1-4.3
			c1.3-1.3,2.5-2.6,3.7-3.7c2.4-2.1,4.4-4,6.2-5.4c1.7-1.4,3.1-2.4,4-3.1C232.5,371.6,232.9,371.3,232.9,371.3z"/>
	</g>
</g>
<g>
	<g>
		<path class="st4" d="M641.5,913.7c0,0,0-0.2,0.1-0.5c0.1-0.4,0.2-0.9,0.3-1.5c0.1-0.7,0.3-1.4,0.5-2.4c0.1-0.5,0.2-1,0.3-1.5
			c0.2-0.5,0.3-1.1,0.5-1.7c1.2-4.8,3.8-11.6,8.2-19.3c4.4-7.7,10.9-16.2,19.2-24.5c8.3-8.3,18.5-16.4,29.7-23.9
			c11.2-7.6,22.4-14.1,32.5-20c10.1-5.9,19.2-11.2,26.7-16c7.5-4.7,13.4-8.7,17.4-11.6c2-1.4,3.5-2.6,4.6-3.4
			c0.5-0.4,0.9-0.6,1.2-0.9c0.3-0.2,0.4-0.3,0.4-0.3c0,0-0.1,0.1-0.4,0.3c-0.3,0.2-0.7,0.6-1.1,0.9c-1,0.8-2.5,2-4.5,3.5
			c-3.9,3-9.8,7.1-17.3,11.9c-7.5,4.8-16.5,10.2-26.6,16.2c-10.1,6-21.2,12.5-32.4,20.1c-11.2,7.5-21.3,15.6-29.6,23.7
			c-8.3,8.2-14.8,16.6-19.3,24.2c-4.4,7.6-7.1,14.3-8.4,19.1c-0.2,0.6-0.4,1.1-0.5,1.7c-0.1,0.5-0.3,1-0.4,1.5
			c-0.2,0.9-0.4,1.7-0.6,2.3c-0.2,0.6-0.3,1.1-0.4,1.4C641.6,913.5,641.5,913.7,641.5,913.7z"/>
	</g>
</g>
<g>
	<g>
		<path class="st6" d="M801.4,786.9l-6.5-4.3c-2.9,2-8.2,5.1-11.5,6.4c-3.3,1.2-6.7,2.6-9.2,5.1c-2.5,2.5-4.1,6.2-3.1,9.6
			c0.8,2.7,3.1,4.7,5.3,6.4c6.2,4.8,13.1,8.6,20.4,11.5c2.2,0.8,4.6,1.6,6.8,0.8c1.9-0.7,3.2-2.4,3.8-4.3c0.6-1.9,0.7-3.9,0.6-5.9
			C807.7,803.4,805.4,794.7,801.4,786.9z"/>
	</g>
</g>
<g>
	<g>
		<path class="st6" d="M881.5,769.3c-2.1-2.9-5.3-4.7-8.5-6.2c-10.8-4.7-23.2-4.9-34.6-2c-11.4,2.9-21.9,8.8-31.3,15.9l2.3,11.8
			c5.2,5.8,12.8,9.2,20.5,10.7c7.7,1.4,15.6,1,23.4,0.2c5.6-0.6,11.2-1.5,16.4-3.6c5.2-2.2,9.9-5.8,12.5-10.8
			C884.7,780.3,884.8,773.9,881.5,769.3z"/>
	</g>
</g>
<g>
	<g>
		<path class="st6" d="M847.4,712.8c-3.8-2.2-8.6-1.9-12.8-0.6c-11.6,3.6-20,14-24.4,25.4c-4.3,11.3-5.8,25.6-6.6,37.7l15.3,6.1
			c8.4-7.1,15.4-14.6,22-23.3c6.7-8.7,13-18.9,13.1-29.9C854.2,722.2,852.5,715.7,847.4,712.8z"/>
	</g>
</g>
<g class="st7">
	<g>
		<g>
			<path class="st8" d="M847.4,712.8c-3.8-2.2-8.6-1.9-12.8-0.6c-11.6,3.6-20,14-24.4,25.4c-4.3,11.3-5.8,25.6-6.6,37.7l7.3,5.4
				c6.9-2.8,23.4-13.9,30.1-22.7c6.7-8.7,13-18.9,13.1-29.9C854.2,722.2,852.5,715.7,847.4,712.8z"/>
		</g>
	</g>
</g>
<g>
	<g>
		<path class="st6" d="M852.2,811.3c-1.2-1.6-2.9-2.7-4.7-3.8c-14-8.5-30.3-14.3-41.3-26.4l-4.8,5.8c1.6,8,3.9,15.8,6.9,23.3
			c1.9,4.7,4.2,9.4,8.2,12.4c4.4,3.4,10.3,4.2,15.8,3.4c5.5-0.8,10.7-3,15.7-5.2c2-0.8,4.1-1.9,5-3.8
			C853.9,815.1,853.4,812.9,852.2,811.3z"/>
	</g>
</g>
<g class="st7">
	<g>
		<g>
			<path class="st8" d="M852.2,811.3c-1.2-1.6-2.9-2.7-4.7-3.8c-14-8.5-28.4-15.1-39.4-27.3l-6.6,6.7c1.6,8,3.9,15.8,6.9,23.3
				c1.9,4.7,4.2,9.4,8.2,12.4c4.4,3.4,10.3,4.2,15.8,3.4c5.5-0.8,10.7-3,15.7-5.2c2-0.8,4.1-1.9,5-3.8
				C853.9,815.1,853.4,812.9,852.2,811.3z"/>
		</g>
	</g>
</g>
<g>
	<g>
		<path class="st6" d="M796.2,783.3c-10.6,7.3-26,6.6-37-0.1c-11-6.7-17.4-20.1-15.8-32.9c0.4-2.7,1.2-5.7,3.6-7.1
			c3.3-1.9,7.5,0.3,10.5,2.7c13.1,10.5,24.8,23,39.7,30.9"/>
	</g>
</g>
<g class="st7">
	<g>
		<g>
			<path class="st8" d="M796.2,783.3c-10.6,7.3-26,6.6-37-0.1c-11-6.7-17.4-20.1-15.8-32.9c0.4-2.7,1.2-5.7,3.6-7.1
				c3.3-1.9,7.5,0.3,10.5,2.7c13.1,10.5,24.8,23,39.7,30.9"/>
		</g>
	</g>
</g>
<g>
	<g>
		<path class="st6" d="M802,723.6c-0.8-5.2-2-10.4-5.2-14.8c-3.2-4.3-8.7-7.6-14.5-7c-4.2,0.4-7.9,2.8-10.8,5.7
			c-7.5,7.5-9.6,18.6-7.4,28.4s8.3,18.6,15.5,26.1c5.3,5.5,11.2,10.5,17.6,14.9l7.1-0.3C805.3,758.4,804.8,741.5,802,723.6z"/>
	</g>
</g>
<g>
	<g>
		<g>
			<path class="st5" d="M804.9,759.5c-0.2,0-0.7,2.9-0.6,6.5c0.1,3.6,0.8,6.5,1,6.5c0.2,0-0.2-2.9-0.3-6.5
				C804.9,762.5,805.1,759.5,804.9,759.5z"/>
		</g>
	</g>
</g>
<g>
	<g>
		<g>
			<path class="st5" d="M803.2,791.6c-0.1,0,0,1.2,0.3,3.1c0.3,1.9,0.8,4.4,1.5,7.2c0.8,2.8,1.7,5.2,2.4,7c0.7,1.7,1.3,2.8,1.4,2.7
				c0.1,0-0.3-1.1-0.9-2.9c-0.6-1.8-1.4-4.2-2.2-7c-0.8-2.8-1.3-5.3-1.7-7.1C803.5,792.7,803.3,791.6,803.2,791.6z"/>
		</g>
	</g>
</g>
<g>
	<g>
		<g>
			<path class="st5" d="M838.1,802.3c0-0.1-1.5-0.8-4-2.1c-2.5-1.3-5.8-3.2-9.4-5.6c-3.5-2.4-6.5-4.9-8.6-6.7
				c-2.1-1.8-3.4-3.1-3.4-3c0,0,0.2,0.4,0.8,1c0.5,0.6,1.3,1.4,2.3,2.4c2,1.9,5,4.5,8.6,6.9c3.6,2.4,7,4.3,9.5,5.5
				c1.3,0.6,2.3,1.1,3.1,1.3C837.7,802.2,838.1,802.4,838.1,802.3z"/>
		</g>
	</g>
</g>
<g>
	<g>
		<g>
			<path class="st5" d="M794.5,784.1c0-0.2-2.9,0.5-6.2,2c-3.3,1.5-5.7,3.2-5.6,3.3c0.1,0.2,2.6-1.3,5.9-2.7
				C791.8,785.3,794.5,784.3,794.5,784.1z"/>
		</g>
	</g>
</g>
<g>
	<g>
		<g>
			<path class="st5" d="M788.9,748.3c-0.1,0,0.1,1.5,0.6,3.8c0.5,2.3,1.4,5.6,2.7,9c1.3,3.4,2.9,6.4,4.1,8.4
				c1.2,2.1,2.1,3.3,2.2,3.2c0.1-0.1-0.7-1.3-1.8-3.4c-1.1-2.1-2.5-5.1-3.9-8.5c-1.3-3.4-2.3-6.5-2.9-8.8
				C789.3,749.8,789,748.3,788.9,748.3z"/>
		</g>
	</g>
</g>
<g>
	<g>
		<g>
			<path class="st5" d="M824.7,747.8c0,0-0.3,0.3-0.9,0.9c-0.5,0.6-1.3,1.6-2.1,2.7c-1.8,2.3-4.1,5.7-6.4,9.5
				c-2.3,3.8-4.2,7.4-5.4,10.1c-0.6,1.3-1.1,2.4-1.4,3.2c-0.3,0.8-0.5,1.2-0.4,1.2c0.1,0,0.9-1.6,2.2-4.2c1.3-2.6,3.3-6.1,5.6-10
				c2.3-3.8,4.5-7.2,6.2-9.6C823.7,749.3,824.8,747.9,824.7,747.8z"/>
		</g>
	</g>
</g>
<g>
	<g>
		<g>
			<path class="st5" d="M842.9,779.1c0,0-0.4-0.1-1.2-0.1c-0.8,0-1.9,0-3.3,0c-2.8,0-6.7,0.2-10.9,0.6c-4.3,0.4-8.1,0.9-10.9,1.3
				c-1.4,0.2-2.5,0.4-3.3,0.6c-0.8,0.2-1.2,0.3-1.2,0.3c0,0.1,1.7-0.1,4.5-0.4c2.8-0.3,6.6-0.7,10.9-1.1c4.2-0.4,8.1-0.6,10.9-0.8
				C841.1,779.3,842.9,779.2,842.9,779.1z"/>
		</g>
	</g>
</g>
<g>
	<g>
		<g>
			<path class="st5" d="M823.1,809.9c0.1-0.1-0.9-1.3-2.4-3.2c-1.5-2-3.4-4.8-5.3-8.1c-1.8-3.3-3.2-6.4-4.1-8.7
				c-0.9-2.3-1.4-3.8-1.5-3.7c0,0,0,0.4,0.2,1.1c0.2,0.7,0.5,1.6,0.9,2.8c0.8,2.4,2.1,5.5,4,8.9c1.9,3.3,3.9,6.1,5.5,8.1
				c0.8,1,1.5,1.7,1.9,2.2C822.7,809.7,823,809.9,823.1,809.9z"/>
		</g>
	</g>
</g>
<g>
	<g>
		<g>
			<path class="st5" d="M788.7,806.3c0.1,0,0.4-1.3,1-3.3c0.6-2,1.5-4.8,2.9-7.7c1.4-2.9,2.9-5.4,4-7.1c1.2-1.7,2-2.8,1.9-2.9
				c-0.1-0.1-1,0.9-2.3,2.6c-1.3,1.7-2.9,4.2-4.3,7.1c-1.4,2.9-2.3,5.8-2.7,7.8C788.7,805,788.6,806.3,788.7,806.3z"/>
		</g>
	</g>
</g>
<g>
	<g>
		<g>
			<path class="st5" d="M773,768.8c0,0.1,1,1.1,3,2.5c1.9,1.4,4.7,3.2,8,4.8c3.3,1.6,6.4,2.8,8.7,3.5c2.3,0.7,3.7,1,3.8,0.9
				c0-0.1-1.4-0.5-3.6-1.3c-2.2-0.8-5.3-2-8.5-3.6c-3.2-1.6-6-3.3-8-4.6C774.2,769.6,773,768.7,773,768.8z"/>
		</g>
	</g>
</g>
<g>
	<g>
		<path class="st3" d="M813.5,780.7c0.5,5.5-3.6,10.3-9.1,10.8c-5.5,0.5-10.3-3.6-10.8-9.1s3.6-10.3,9.1-10.8
			C808.2,771.2,813,775.2,813.5,780.7z"/>
	</g>
</g>
<g>
	<g>
		<g>
			<path class="st5" d="M839.4,759.5c-0.1-0.1-1.4,1.2-3.7,3.1c-2.2,2-5.4,4.6-9,7.4c-3.6,2.8-7,5.2-9.4,6.9c-2.5,1.7-4,2.7-4,2.8
				c0,0,0.4-0.2,1.2-0.6c0.7-0.4,1.8-1,3-1.8c2.5-1.6,6-3.9,9.6-6.7c3.6-2.8,6.7-5.5,8.9-7.6c1.1-1,2-1.9,2.5-2.5
				C839.1,759.9,839.4,759.5,839.4,759.5z"/>
		</g>
	</g>
</g>
<g>
	<g>
		<path class="st6" d="M249.5,341.5l-7.9-3.8c-2.9,2.7-8.2,7-11.7,8.9c-3.5,1.9-7,4-9.4,7.2c-2.4,3.1-3.5,7.6-1.9,11.2
			c1.3,2.9,4.2,4.7,6.9,6.2c7.7,4.3,15.9,7.5,24.5,9.4c2.5,0.6,5.3,1,7.6-0.2c2-1.1,3.2-3.2,3.6-5.4c0.4-2.2,0.1-4.4-0.3-6.6
			C259.2,358.7,255.2,349.5,249.5,341.5z"/>
	</g>
</g>
<g>
	<g>
		<path class="st6" d="M335.4,309.2c-2.8-2.8-6.6-4.4-10.4-5.5c-12.7-3.5-26.5-1.7-38.7,3.4c-12.2,5.1-22.8,13.3-32.1,22.6l4.4,12.7
			c6.7,5.6,15.6,8.2,24.4,8.6c8.8,0.4,17.5-1.4,26-3.6c6.1-1.6,12.2-3.4,17.6-6.6c5.4-3.2,10.1-8,12.1-13.9
			C340.8,320.9,339.8,313.7,335.4,309.2z"/>
	</g>
</g>
<g>
	<g>
		<path class="st6" d="M288.7,252c-4.5-1.9-9.8-0.7-14.2,1.4c-12.3,5.9-20,18.8-23,32c-3,13.3-2.4,29.2-1.3,42.8l17.9,4.3
			c8.1-9.2,14.7-18.6,20.7-29.4c6-10.7,11.4-23,9.8-35.2C297.7,261.4,294.7,254.5,288.7,252z"/>
	</g>
</g>
<g class="st9">
	<g>
		<path class="st8" d="M288.7,252c-4.5-1.9-9.8-0.7-14.2,1.4c-12.3,5.9-20,18.8-23,32c-3,13.3-2.4,29.2-1.3,42.8l17.9,4.3
			c8.1-9.2,14.7-18.6,20.7-29.4c6-10.7,11.4-23,9.8-35.2C297.7,261.4,294.7,254.5,288.7,252z"/>
	</g>
</g>
<g>
	<g>
		<path class="st6" d="M309.7,360.4c-1.6-1.6-3.7-2.6-5.8-3.5c-16.9-7.2-35.8-11-50-22.7l-4.4,7.2c3,8.6,6.8,16.8,11.4,24.7
			c2.8,4.9,6.1,9.7,11,12.5c5.4,3,12.1,3,18.1,1.2c6-1.7,11.3-5,16.6-8.2c2.1-1.3,4.3-2.7,5-5.1C312.3,364.4,311.3,362,309.7,360.4z
			"/>
	</g>
</g>
<g class="st7">
	<g>
		<g>
			<path class="st8" d="M309.7,360.4c-1.6-1.6-3.7-2.6-5.8-3.5c-16.9-7.2-33.9-12.2-48-24l-6.3,8.5c3,8.6,6.8,16.8,11.4,24.7
				c2.8,4.9,6.1,9.7,11,12.5c5.4,3,12.1,3,18.1,1.2c6-1.7,11.3-5,16.6-8.2c2.1-1.3,4.3-2.7,5-5.1C312.3,364.4,311.3,362,309.7,360.4
				z"/>
		</g>
	</g>
</g>
<g>
	<g>
		<path class="st6" d="M243.2,338.4c-10.5,9.8-27.7,11.4-41,5.8c-13.2-5.6-22.5-19.5-22.8-33.9c0-3.1,0.5-6.5,2.9-8.4
			c3.4-2.7,8.3-0.9,12,1.3c16.2,9.5,31.2,21.5,48.9,27.9"/>
	</g>
</g>
<g class="st7">
	<g>
		<g>
			<path class="st8" d="M243.2,338.4c-10.5,9.8-27.7,11.4-41,5.8c-13.2-5.6-22.5-19.5-22.8-33.9c0-3.1,0.5-6.5,2.9-8.4
				c3.4-2.7,8.3-0.9,12,1.3c16.2,9.5,31.2,21.5,48.9,27.9"/>
		</g>
	</g>
</g>
<g>
	<g>
		<path class="st6" d="M240.1,271.2c-1.7-5.6-3.9-11.3-8.1-15.5c-4.2-4.3-10.9-7-17.1-5.4c-4.6,1.1-8.3,4.4-11,8
			c-7.1,9.6-7.7,22.1-3.7,32.7c4,10.5,12.1,19.2,21.3,26.5c6.7,5.3,14,9.9,21.9,13.7l7.8-1.5C249.3,309.3,246.1,290.6,240.1,271.2z"
			/>
	</g>
</g>
<g>
	<g>
		<g>
			<path class="st5" d="M249.1,310.6c-0.2,0-0.3,3.3,0.4,7.3c0.7,4,1.9,7.1,2.1,7c0.2-0.1-0.7-3.2-1.4-7.1
				C249.5,313.9,249.3,310.6,249.1,310.6z"/>
		</g>
	</g>
</g>
<g>
	<g>
		<g>
			<path class="st5" d="M252.3,346.4c-0.1,0,0.2,1.3,0.8,3.3c0.6,2,1.6,4.8,2.9,7.8c1.3,3,2.7,5.5,3.8,7.4c1.1,1.8,1.9,2.9,1.9,2.8
				c0.1-0.1-0.5-1.2-1.5-3.1c-1-1.9-2.3-4.5-3.6-7.4c-1.3-2.9-2.3-5.6-3-7.6C252.8,347.6,252.4,346.4,252.3,346.4z"/>
		</g>
	</g>
</g>
<g>
	<g>
		<g>
			<path class="st5" d="M292.7,352.7c0-0.1-1.8-0.7-4.8-1.7c-3-1-7-2.6-11.3-4.8c-4.3-2.1-8-4.4-10.6-6.1c-2.6-1.7-4.2-2.8-4.3-2.8
				c0,0,0.3,0.4,1,0.9c0.7,0.6,1.7,1.3,3,2.3c2.6,1.8,6.3,4.2,10.6,6.3c4.3,2.1,8.4,3.7,11.4,4.6c1.5,0.5,2.7,0.8,3.6,1
				C292.2,352.7,292.7,352.8,292.7,352.7z"/>
		</g>
	</g>
</g>
<g>
	<g>
		<g>
			<path class="st5" d="M241.4,339.5c-0.1-0.2-3.1,1-6.6,3.2c-3.4,2.2-5.8,4.4-5.7,4.6c0.1,0.2,2.7-1.8,6.1-4
				C238.6,341.2,241.5,339.7,241.4,339.5z"/>
		</g>
	</g>
</g>
<g>
	<g>
		<g>
			<path class="st5" d="M229.5,300.8c-0.1,0,0.3,1.6,1.3,4.2c0.9,2.5,2.4,5.9,4.4,9.5c2,3.6,4.2,6.6,5.9,8.7
				c1.7,2.1,2.9,3.3,2.9,3.2c0.1-0.1-0.9-1.4-2.5-3.5c-1.6-2.2-3.6-5.2-5.6-8.7c-2-3.5-3.5-6.9-4.6-9.3
				C230.2,302.3,229.6,300.7,229.5,300.8z"/>
		</g>
	</g>
</g>
<g>
	<g>
		<g>
			<path class="st5" d="M269.1,294.4c0,0-0.3,0.4-0.8,1.2c-0.5,0.8-1.2,1.9-1.9,3.4c-1.6,2.9-3.6,6.9-5.5,11.5
				c-1.9,4.6-3.4,8.9-4.4,12c-0.5,1.6-0.8,2.8-1,3.7c-0.2,0.9-0.3,1.4-0.3,1.4c0.1,0,0.7-1.9,1.8-5c1.1-3.1,2.6-7.3,4.6-11.9
				c1.9-4.6,3.9-8.7,5.3-11.6C268.3,296.3,269.2,294.5,269.1,294.4z"/>
		</g>
	</g>
</g>
<g>
	<g>
		<g>
			<path class="st5" d="M294.2,326.3c0-0.1-0.5,0-1.4,0.1c-0.9,0.1-2.1,0.3-3.7,0.5c-3.1,0.5-7.4,1.3-12,2.4
				c-4.7,1.1-8.8,2.2-11.8,3.2c-1.5,0.5-2.7,0.9-3.5,1.1c-0.8,0.3-1.3,0.5-1.3,0.5c0,0.1,1.9-0.4,4.9-1.2c3-0.8,7.2-1.9,11.9-2.9
				c4.6-1.1,8.9-2,11.9-2.6C292.4,326.8,294.2,326.4,294.2,326.3z"/>
		</g>
	</g>
</g>
<g>
	<g>
		<g>
			<path class="st5" d="M277.2,363.5c0.1-0.1-1.2-1.2-3.2-3.2c-2-2-4.5-4.8-7.1-8.1c-2.6-3.4-4.6-6.6-6-9c-1.4-2.4-2.2-3.9-2.3-3.9
				c0,0,0.1,0.4,0.4,1.1c0.3,0.7,0.8,1.7,1.4,3c1.3,2.5,3.3,5.8,5.9,9.2c2.6,3.4,5.3,6.2,7.3,8.1c1,0.9,1.9,1.7,2.5,2.1
				C276.8,363.3,277.2,363.5,277.2,363.5z"/>
		</g>
	</g>
</g>
<g>
	<g>
		<g>
			<path class="st5" d="M238.6,365c0.1,0,0.2-1.5,0.6-3.8c0.3-2.3,0.9-5.5,2-9c1-3.4,2.3-6.4,3.3-8.6c1-2.1,1.7-3.4,1.6-3.5
				c-0.1,0-0.9,1.1-2.1,3.2c-1.1,2.1-2.5,5.1-3.6,8.6c-1.1,3.5-1.6,6.8-1.8,9.1C238.4,363.5,238.5,365,238.6,365z"/>
		</g>
	</g>
</g>
<g>
	<g>
		<g>
			<path class="st5" d="M215.2,326c0,0.1,1.3,1,3.7,2.2c2.4,1.2,5.7,2.8,9.6,4c3.9,1.3,7.5,2,10.2,2.4c2.6,0.4,4.3,0.5,4.3,0.4
				c0-0.1-1.6-0.4-4.2-0.9c-2.6-0.5-6.2-1.4-10-2.6c-3.8-1.3-7.2-2.7-9.6-3.8C216.7,326.7,215.2,325.9,215.2,326z"/>
		</g>
	</g>
</g>
<g>
	<g>
		
			<ellipse transform="matrix(0.5193 -0.8546 0.8546 0.5193 -165.7936 375.7721)" class="st3" cx="251.1" cy="335.3" rx="11.2" ry="11.2"/>
	</g>
</g>
<g>
	<g>
		<g>
			<path class="st5" d="M287.2,305.1c-0.1-0.1-1.4,1.5-3.6,4.1c-2.2,2.5-5.2,6-8.8,9.7c-3.5,3.7-6.9,6.8-9.4,9.1
				c-2.5,2.3-4,3.6-3.9,3.7c0,0,0.5-0.3,1.2-0.8c0.7-0.6,1.8-1.4,3.1-2.5c2.6-2.2,6-5.3,9.5-9c3.6-3.7,6.6-7.2,8.6-9.8
				c1-1.3,1.9-2.4,2.4-3.2C287,305.5,287.3,305.1,287.2,305.1z"/>
		</g>
	</g>
</g>
<g>
	<g>
		<g>
			<path class="st4" d="M687.8,432.3c0,0-54.7-4.1-80.3,37.7C607.6,470.1,654.2,474.2,687.8,432.3z"/>
		</g>
	</g>
</g>
<g>
	<g>
		<path class="st4" d="M632.1,356.8c0,0,0.1,0.4,0.3,1.2c0.2,0.9,0.5,2.1,0.8,3.5c0.2,0.8,0.3,1.6,0.5,2.5c0.2,0.9,0.3,2,0.5,3.1
			c0.3,2.2,0.8,4.7,0.9,7.5c0.1,1.4,0.2,2.9,0.4,4.4c0.1,1.5,0.1,3.1,0.2,4.8c0.2,3.3,0,6.8-0.1,10.5c-0.5,7.4-1.5,15.5-3.4,23.8
			c-2,8.3-4.7,16-7.6,22.9c-1.5,3.4-3,6.6-4.6,9.5c-0.8,1.4-1.5,2.9-2.3,4.2c-0.8,1.3-1.6,2.6-2.3,3.8c-1.4,2.4-2.9,4.5-4.2,6.3
			c-0.6,0.9-1.2,1.8-1.8,2.5c-0.6,0.7-1.1,1.4-1.6,2c-0.9,1.2-1.7,2.1-2.3,2.8c-0.5,0.6-0.8,1-0.8,0.9c0,0,0.2-0.4,0.7-1.1
			c0.5-0.7,1.3-1.7,2.1-2.9c0.5-0.6,1-1.3,1.6-2.1c0.5-0.8,1.1-1.6,1.7-2.6c1.2-1.9,2.7-3.9,4-6.3c0.7-1.2,1.5-2.5,2.2-3.8
			c0.8-1.3,1.4-2.7,2.2-4.2c1.6-2.9,3-6.1,4.5-9.5c2.8-6.8,5.5-14.5,7.5-22.7c1.9-8.3,3-16.3,3.5-23.7c0.1-3.7,0.4-7.2,0.2-10.5
			c0-1.6,0-3.2-0.1-4.7c-0.1-1.5-0.2-3-0.3-4.4c-0.1-2.8-0.5-5.3-0.8-7.5c-0.1-1.1-0.2-2.1-0.4-3.1c-0.2-0.9-0.3-1.8-0.5-2.6
			c-0.2-1.5-0.4-2.6-0.6-3.5C632.1,357.2,632.1,356.8,632.1,356.8z"/>
	</g>
</g>
<g>
	<g>
		<path class="st4" d="M687.3,383.4c0,0-0.2,0.2-0.8,0.5c-0.6,0.3-1.4,0.7-2.2,1.2c-1,0.5-2.2,1.1-3.5,1.9c-1.4,0.8-2.9,1.6-4.6,2.6
			c-3.4,2-7.3,4.5-11.6,7.6c-4.2,3.1-8.7,6.6-13.1,10.6c-4.4,4-8.4,8.2-11.8,12.1c-3.4,3.9-6.3,7.6-8.6,10.8
			c-1.2,1.6-2.2,3.1-3.1,4.3c-0.9,1.3-1.6,2.4-2.2,3.3c-0.6,0.8-1,1.5-1.4,2.1c-0.3,0.5-0.5,0.7-0.5,0.7c0,0,0.1-0.3,0.4-0.8
			c0.3-0.6,0.8-1.3,1.2-2.2c0.5-1,1.2-2.1,2.1-3.4c0.9-1.3,1.8-2.8,3-4.4c2.2-3.3,5.1-7,8.5-11c3.4-3.9,7.4-8.1,11.9-12.2
			c4.5-4,9-7.6,13.3-10.6c4.3-3,8.3-5.5,11.7-7.4c1.7-1,3.3-1.8,4.7-2.5c1.4-0.7,2.6-1.3,3.6-1.8c0.9-0.4,1.7-0.7,2.3-1
			C687,383.5,687.3,383.4,687.3,383.4z"/>
	</g>
</g>
<g>
	<path class="st6" d="M707.9,384.8c-2-0.7-4.1-0.4-6.2-0.1c1.9-1.4,3.9-2.9,5.3-4.9c1.3-2,1.9-4.7,0.8-6.8c-1.2-2.4-4.2-3.5-6.8-3.3
		c-2.7,0.2-5.1,1.5-7.5,2.8c-12,6.6-23.3,14.5-31.2,25.6c15.2,1.1,31.2,2.1,45-4.6c1.8-0.9,3.7-2.1,4-4.1
		C711.6,387.4,709.9,385.4,707.9,384.8z"/>
</g>
<g>
	<g>
		<path class="st10" d="M822.5,419.4c4.3-25.4-4.7-200.2-4.7-200.2L760,214l-23.6,191L604.5,550.4l7.3,29l15.7,81
			c0,0,79.3-81.8,101.9-114.4C755.3,508.8,815.4,461.2,822.5,419.4z"/>
	</g>
	<g>
		<g>
			<path class="st10" d="M718.3,113.1l15.3,63.8l25.6,37.9l58.5,4.5l0.7-4.6c1-6,0.5-12.1-1.4-17.8c-3.5-10.7-9.2-28-10.9-33.1
				c-2.4-7.3-8.8-25.1-8.8-25.1L751,119.2l-13.7,1.6L718.3,113.1z"/>
		</g>
	</g>
	<g>
		<g>
			<path class="st10" d="M789.5,159.7c-1.5-0.7-2.5-2.2-3.1-3.7c-1.1-2.7-1.3-5.6-1.5-8.5c-0.3-3.8-0.6-7.7-0.9-11.5
				c-0.2-2.1-0.3-4.3,1-6c0.8-1.1,2.2-1.7,3.6-2c1.4-0.2,2.8-0.1,4.1,0.1l1.8,1.6c2.1,3.9,2.7,8.4,3.2,12.7
				c0.5,3.9,0.9,7.9-0.1,11.7c-0.5,1.8-1.4,3.5-2.8,4.7S791.2,160.4,789.5,159.7z"/>
		</g>
	</g>
	<g>
		<path class="st11" d="M562.1,184.3l132.6-61.7l73.9,139.5c-42.5,29.7-90.4,50.8-144.2,62.3L562.1,184.3z"/>
	</g>
	<g>
		<path class="st11" d="M518.4,223.5c0,0,148.6,55.9,148.6,57.2c0,1.3-30.2,29.2-30.2,29.2l-124.4-72.2l-21.6,15.1l24.9-53.8
			L518.4,223.5z"/>
	</g>
	<g class="st12">
		<path class="st3" d="M711.4,154.7c0,0-29.7,113.4-91.2,160.3l1.6,3.7c0,0,61.7-34,92.2-158.7L711.4,154.7z"/>
	</g>
	<g class="st12">
		<path class="st3" d="M722.5,175.1c0,0-29.5,97.3-80.1,145.1l35.6-10.3c0,0,36.1-35.7,55-115L722.5,175.1z"/>
	</g>
	<g>
		<g>
			<path class="st11" d="M701.1,143.1c2.5-8.8,10.9-14.1,19.7-15.6c9.8-1.7,19.6,2.5,26.9,9.4c16.7,15.7,22.3,41.8,18.9,63.9
				c-2.1,13.3-7.1,25.9-15,36.8c-1.5,2.1-0.4,5.2,1.7,6.4c2.4,1.4,4.9,0.4,6.4-1.7c16-22,21.1-51.3,14.2-77.5
				c-6.1-23.3-25.2-50-52.5-46.8c-13.1,1.5-25.5,9.4-29.3,22.6C690.4,146.4,699.4,148.9,701.1,143.1L701.1,143.1z"/>
		</g>
	</g>
	<g>
		<g>
			<path class="st10" d="M764.1,166.2c-7.4-8.4-13.6-11-17-11.9c-1.8-0.4-2.9-0.4-2.9-0.4s-1.9-2-6.5-16.5
				c-4.6-14.5-17.7-20.1-17.7-20.1c-8.6-1-3.9,15.1-3.9,15.1l4.1,21.6c0,0,9.9,24.7,10.4,25.7c0.4,1,30.2,35.6,30.2,35.6"/>
		</g>
	</g>
	<g>
		<path class="st10" d="M728.1,122.4c-3.1-2-5.4-4.6-8.8-5.8l-0.6-2.1c-1-3.7,0.6-7.9,3.6-10c3-2.1,7-2.2,10.4-0.6
			c3.3,1.6,5.9,4.8,7.3,8.4c0.7,1.9,1.1,3.9,0.9,5.9c-0.2,2-1.1,3.9-2.5,5.1C735.4,125.6,731.2,124.4,728.1,122.4z"/>
	</g>
	<g>
		<g>
			<path class="st10" d="M741.3,127.5c-1-3.1-1.3-6.5-0.4-9.7c0.9-3.1,3.1-6,6-7.4c3-1.4,6.8-1,9.2,1.1c1.7,1.5,2.7,3.8,3.6,5.9
				c3,7.3,6.1,14.7,6.5,22.6c0.2,3.1-0.1,6.2-1.5,8.9c-1.5,2.7-4.3,4.8-7.4,4.6c-2.3-0.1-4.4-1.6-5.9-3.4c-1.5-1.8-3.2-4-4.2-6.1
				C744.7,138.4,743.3,133.7,741.3,127.5"/>
		</g>
	</g>
	<g>
		<g>
			<path class="st10" d="M773.2,164.9c-2.2-1-3.5-3.1-4.4-5.3c-1.5-3.8-1.9-8-2.2-12.1c-0.4-5.5-0.9-11-1.3-16.5
				c-0.2-2.9-0.4-6.2,1.4-8.5c1.2-1.6,3.1-2.5,5.1-2.8c1.2-0.2,2.5-0.2,3.7-0.1c1.4,0.1,2.8,0.7,3.8,1.6l0,0
				c0.7,0.6,1.2,1.3,1.6,2.1c2.5,5.2,3.2,11.2,4,17c0.7,5.5,1.4,11.3-0.1,16.6c-0.7,2.6-2,5-4,6.7
				C778.6,165.3,775.6,166,773.2,164.9z"/>
		</g>
	</g>
	<g>
		<path class="st13" d="M514.9,198.1c2.3,1-1.3,14-8,29c-6.7,15-14.1,26.3-16.4,25.3c-2.3-1,1.3-14,8-29
			C505.3,208.4,512.6,197.1,514.9,198.1z"/>
	</g>
	<g>
		<g>
			<path class="st5" d="M496.8,234.7c0.3,0.1,0.2,0.7,0,1.4c-0.3,0.7-0.7,1.1-0.9,1c-0.3-0.1-0.2-0.7,0-1.4
				C496.2,235.1,496.6,234.6,496.8,234.7z"/>
		</g>
	</g>
	<g>
		<g>
			<path class="st5" d="M510.8,206.7c0.3,0.1,0.2,0.7,0,1.4c-0.3,0.7-0.7,1.1-0.9,1c-0.3-0.1-0.2-0.7,0-1.4
				C510.2,207.1,510.6,206.6,510.8,206.7z"/>
		</g>
	</g>
	<g>
		<g>
			<path class="st5" d="M503.3,221.1c0.2,0.1,0.1,0.9-0.3,1.7c-0.4,0.8-0.9,1.3-1.2,1.2c-0.2-0.1-0.1-0.9,0.3-1.7
				C502.6,221.5,503.1,220.9,503.3,221.1z"/>
		</g>
	</g>
	<g>
		<g>
			<path class="st5" d="M500.3,228.1c0.2,0.1,0.1,0.9-0.3,1.7c-0.4,0.8-0.9,1.3-1.2,1.2c-0.2-0.1-0.1-0.9,0.3-1.7
				C499.6,228.5,500.1,227.9,500.3,228.1z"/>
		</g>
	</g>
	<g>
		<g>
			<path class="st5" d="M498.3,239.1c0.2,0.1,0.1,0.9-0.3,1.7c-0.4,0.8-0.9,1.3-1.2,1.2c-0.2-0.1-0.1-0.9,0.3-1.7
				C497.6,239.5,498.1,238.9,498.3,239.1z"/>
		</g>
	</g>
	<g>
		<g>
			<path class="st5" d="M504.3,226.1c0.2,0.1,0.1,0.9-0.3,1.7c-0.4,0.8-0.9,1.3-1.2,1.2c-0.2-0.1-0.1-0.9,0.3-1.7
				C503.6,226.5,504.1,225.9,504.3,226.1z"/>
		</g>
	</g>
	<g>
		<g>
			<path class="st5" d="M506.7,211.2c0.3,0.1,0.3,0.8,0,1.7c-0.3,0.9-0.7,1.5-0.9,1.4c-0.3-0.1-0.3-0.8,0-1.7
				C506,211.8,506.4,211.2,506.7,211.2z"/>
		</g>
	</g>
	<g>
		<g>
			<path class="st5" d="M507.7,217.2c0.3,0.1,0.3,0.8,0,1.7c-0.3,0.9-0.7,1.5-0.9,1.4c-0.3-0.1-0.3-0.8,0-1.7
				C507,217.8,507.4,217.2,507.7,217.2z"/>
		</g>
	</g>
	<g>
		<path class="st2" d="M459,237.5c-0.9,1.7-1.2,5.1,0.7,6.4c2.1,1.4,5,1.5,7-0.9c1.6-1.9,1.5-4.7,2.3-7.1s2.3-4.8,4.7-5.4
			C467.7,229.5,462,231.5,459,237.5z"/>
	</g>
	<g>
		<path class="st2" d="M473.9,239.5c-0.9,1.7-1.2,5.1,0.7,6.4c2.1,1.4,5,1.5,7-0.9c1.6-1.9,1.5-4.7,2.3-7.1c0.8-2.4,2.3-4.8,4.7-5.4
			C482.6,231.5,476.9,233.4,473.9,239.5z"/>
	</g>
	<g>
		<path class="st2" d="M475.3,219.1c-0.9,1.7-1.2,5.1,0.7,6.4c2.1,1.4,5,1.5,7-0.9c1.6-1.9,1.5-4.7,2.3-7.1c0.8-2.4,2.3-4.8,4.7-5.4
			C484,211.1,478.3,213.1,475.3,219.1z"/>
	</g>
	<path class="st13" d="M562,184l133-61c0,0-3,17-65,43S562,184,562,184z"/>
	<g>
		<g>
			<path class="st11" d="M591.9,172.5c-9.5-22.4-21.2-52-4.3-74c6.5-8.4,16.3-13.2,27.1-12.2c11.1,1,21.2,7.7,28.4,15.8
				c9.3,10.4,14.8,23.6,20.1,36.3c0.9,2.2,2.9,3.7,5.4,3c2.1-0.6,4-3.2,3.1-5.3c-5.3-12.8-10.7-25.6-19.4-36.6
				c-8.1-10.2-19.4-18.6-32.5-21.1c-12.9-2.5-25.8,1.1-35.2,10.3c-10,9.7-14.4,23.4-14.4,37c-0.1,17.3,6.4,33.5,13.1,49.2
				c0.9,2.2,2.9,3.7,5.4,3C590.9,177.3,592.8,174.7,591.9,172.5L591.9,172.5z"/>
		</g>
	</g>
</g>
<g>
	<path class="st4" d="M779.9,474.5c-5.7,13.3-9.4,36.3-11.4,50.6c23.7-20.1,38.8-50.1,40.7-81.2
		C795.6,449.1,785.6,461.2,779.9,474.5z"/>
</g>
<g>
	<path class="st14" d="M605,576.4c-29.8-73.3,3.8-142.4-29.4-234.5c-20.4-56.6-106.3-67.8-106.3-67.8
		c-104.1,0.5-117.5,74.4-123.3,141.2c-2.7,31.4-37.5,149.6-39.2,196.8c-2.1,47.1,8.4,50.7-23.6,93.1c-6.6,8.7-18.6,18.1-10.9,36
		c4.1,9.7,22.6,28.3,33.8,30.6c-9.3,14.7-4.9,34.4,7.7,46.5c12.6,12.2,31.8,17.4,50.2,17.1c18.5-0.3,36.5-5.6,53.7-11.9
		c59.3-21.8,113.4-57.2,150.8-104.6C605.8,671.5,637.2,639.4,605,576.4z"/>
</g>
<g>
	<path class="st10" d="M473.9,297.1l-7.3-5.2l-65.3,38.3c-10,2-16.7,11.4-15.5,21.5l28.9,133.7c2.2,15.4,26,122.1,26,122.1l9.2,20.8
		c26.6,26.1,72,16.9,84.8-18.1c0.9-2.4,1.5-4.6,1.6-6.2c0.1-2.1,0.4-3.5,0.3-5.2c-0.6-18.5,1.1-18.9,1.1-18.9
		c-1.7-20.2-6.5-43.9-6.5-43.7c0,0,41.8-11.2,45.2-67.5c1.7-28-4.9-65.2-12-101.8C554.6,316.5,514.8,291,473.9,297.1z"/>
</g>
<g>
	<path class="st15" d="M477.3,418.7c0.5,3.7-2.3,7.3-6.2,7.8c-3.9,0.6-7.5-2-8-5.7c-0.5-3.7,2.3-7.3,6.1-7.8
		C473.3,412.4,476.8,414.9,477.3,418.7z"/>
</g>
<g>
	<path class="st15" d="M547.8,408.4c0.5,3.7-2.3,7.3-6.2,7.8c-3.9,0.6-7.5-2-8-5.7c-0.5-3.7,2.3-7.3,6.1-7.8
		C543.7,402.1,547.3,404.7,547.8,408.4z"/>
</g>
<g>
	<path class="st16" d="M531.2,536.4c0,0-37.1,6-76.2-12.6c0,0,23.6,36.5,78.6,25.9L531.2,536.4z"/>
</g>
<g>
	<path class="st17" d="M514.3,472.9c-6.2,0.3-11.7,3.3-15.1,7.2l-0.3,1.2c1,3.2,2.4,6.3,4.8,9c2.5,2.7,6.3,4.9,10.5,5.2
		c6.6,0.5,12.4-3.5,14.5-8.1c1-2.3,1.4-4.9,0.4-7.2C527.3,475.5,520.5,472.6,514.3,472.9z"/>
</g>
<g>
	<path class="st17" d="M495,473.7c1.2-0.8,7.7,9.2,19.9,9.8c12.2,0.7,17.4-6.6,18.5-5.7c0.6,0.4,0.1,2.9-3.6,5.2
		c-3.6,2.3-7.8,5.4-15.3,5c-7.4-0.4-11.4-3.9-14.5-6.5C496.7,478.8,494.4,474,495,473.7z"/>
</g>
<g>
	<path class="st14" d="M489.9,388c-0.7,2.2-9.7,2.1-20,4.2c-10.4,1.9-18.6,5.4-20.1,3.7c-0.7-0.8,0.6-2.9,3.8-5.3
		c3.2-2.3,8.4-4.8,14.6-6c6.2-1.2,14.9-3.6,18.8-2.6C491,382.9,490.2,387,489.9,388z"/>
</g>
<g>
	<path class="st14" d="M558.6,378.4c-1.6,1.8-8.7,0.9-17.1,1.8c-8.4,0.7-15.3,2.8-17.1,1.3c-0.8-0.7-2.5-3.3,0.4-5.1
		c2.9-1.8,10.4-2.7,16.2-3.3c5.8-0.5,10.9,0.3,14,1.6C558.2,376,559.3,377.5,558.6,378.4z"/>
</g>
<g>
	<path class="st14" d="M401.4,448.1c0,0,40.7,6.3,48.5-93c2.7-34,38-61.7,38-61.7l-21.7-5.3c0,0-73.5,33-74.7,34.2
		c-1.1,1.2-13.5,42.6-13.5,42.6L401.4,448.1z"/>
</g>
<g>
	<path class="st10" d="M417.9,442c-0.4-4.1-6.1-13.4-10.3-13.6C396.6,427.8,384,431,392,459c10.4,36.5,28.3,25.8,28.2,24.7
		C420.2,482.9,419.3,456.3,417.9,442z"/>
</g>
<path class="st10" d="M385.6,743.3l-75.5-37.1l-37.7,213.6c-0.4,2.3,0.3,4.7,1.9,6.5c2.2,2.4,7.1,6.5,10.5,8.2
	c6.6,3.3,52.3,24.1,70.1,32c2.7,1.2,11,5,11,4c0-1-6.7-40.3-8.4-47.6L385.6,743.3z"/>
<g>
	<g>
		<g>
			<path class="st10" d="M394.7,594.8c2.5-0.6,35.2-12.3,35.2-12.3l96.4-14l49.5,1.3l-12.9,76l-36.6,36.7l-53.5,7.5
				c0,0-67.9-20.8-65.7-21.3C409.2,668.1,394.7,594.8,394.7,594.8z"/>
		</g>
		<g>
			<path class="st11" d="M621,567l-69.3,1.1c0,0,14.7,100.7-53.2,96.8c-67.9-3.9-91.8-74.6-91.8-74.6S372,600.3,342,611
				c-30.1,10.7-62.1,123.2-62.1,123.2l81.6,26.3c0,0,3.3,40.4,16.9,78.3c9.7,27.1-2,101.6-5.5,132.7c-1,9,53.9,17.5,65.1,19l107.1,3
				c9.7-0.3,95.7-16.4,95.1-26c-2.3-34.7,5.9-109.3,11.7-133.4c4.8-20.3,7.5-31.8,10.3-47.6C673.4,720.8,621,567,621,567z"/>
		</g>
		<g>
			<g>
				<path class="st11" d="M357.1,711c0.3,0,1.7,13,3.2,29c1.5,16.1,2.5,29.1,2.2,29.1c-0.3,0-1.7-13-3.2-29
					C357.8,724.1,356.8,711,357.1,711z"/>
			</g>
		</g>
		<g>
			<g>
				<path class="st11" d="M538.9,875.6c0,0.3-28.9-4.2-64.5-10.1c-35.6-5.8-64.4-10.7-64.3-11c0-0.3,28.9,4.2,64.5,10.1
					C510.2,870.4,539,875.3,538.9,875.6z"/>
			</g>
		</g>
	</g>
</g>
<g>
	<g class="st7">
		<g>
			<path class="st18" d="M529.5,757.4c27,15.4,60.4,19.3,90.2,10.5c-9.4-11.1-24.2-16.3-38.7-17.2c-14.5-0.8-28.9,2.2-43.1,5.3"/>
		</g>
	</g>
	<g class="st7">
		<g>
			<path class="st18" d="M431.9,809c27,15.4,60.4,19.3,90.2,10.5c-9.4-11.1-24.2-16.3-38.7-17.2c-14.5-0.8-28.9,2.2-43.1,5.3"/>
		</g>
	</g>
	<g class="st7">
		<g>
			<path class="st18" d="M383.8,867.3c30.4,6.6,63.4,0.4,89.2-16.8c-12.3-7.8-28-8.4-42.1-4.9c-14.1,3.5-26.9,10.7-39.6,17.9"/>
		</g>
	</g>
	<g class="st7">
		<g>
			<g>
				<path class="st18" d="M634.4,670.8c0,0-52.1,17.1-59.8,65.5C574.6,736.3,619.3,722.4,634.4,670.8z"/>
			</g>
		</g>
	</g>
	<g class="st7">
		<g>
			<g>
				<path class="st18" d="M531.7,719.7c0,0-52.1,17.1-59.8,65.5C471.9,785.2,516.6,771.2,531.7,719.7z"/>
			</g>
		</g>
	</g>
	<g class="st7">
		<g>
			<g>
				<path class="st18" d="M389.1,757.9c0,0-26.3,48.1,1.2,88.7C390.3,846.6,413.4,805.9,389.1,757.9z"/>
			</g>
		</g>
	</g>
	<g class="st7">
		<g>
			<path class="st18" d="M382.2,853.2c0,0,0.1-0.2,0.5-0.5c0.4-0.3,0.8-0.7,1.5-1.3c1.4-1.2,3.3-2.9,5.9-5.1l0,0
				c7.1-8.4,21.1-23.4,42.8-38.2c21.5-14.9,50-29.7,81.5-43.9c20.2-9.2,39.5-17.6,56.8-26c17.3-8.3,32.6-16.3,45.4-23.2
				c12.8-6.9,22.9-12.9,29.8-17.1c3.4-2.1,6.1-3.8,8-4.9c0.9-0.5,1.6-1,2.1-1.3c0.5-0.3,0.7-0.4,0.7-0.4c0,0-0.2,0.2-0.7,0.5
				c-0.5,0.3-1.2,0.8-2,1.4c-1.8,1.2-4.4,2.9-7.9,5.1c-6.9,4.3-17,10.4-29.7,17.4c-12.7,7-28.1,15-45.3,23.4
				c-17.3,8.4-36.6,16.8-56.8,26c-31.4,14.2-59.9,28.9-81.4,43.7c-21.7,14.6-35.7,29.4-43,37.7l0,0l0,0c-2.6,2.2-4.6,3.8-6,5
				c-0.7,0.5-1.2,0.9-1.5,1.2C382.4,853.1,382.2,853.2,382.2,853.2z"/>
		</g>
	</g>
</g>
<g>
	<path class="st11" d="M568,567l1.9-3.9c5-6.1,7.9-10.5,15.4-8.1l0,0l61.2-55.1l83.9,83.2l-83.9,99.2L568,567z"/>
</g>
<g>
	<g>
		<path class="st19" d="M755.7,536.3"/>
	</g>
</g>
<g>
	<g>
		<path class="st4" d="M770.8,501.7c0,0,0,0.5-0.1,1.6c-0.1,1.1-0.2,2.6-0.3,4.6c-0.4,4-1,9.9-2.3,17.5c-1.3,7.5-3.4,16.7-6.7,27
			c-3.3,10.3-7.9,21.9-14.5,33.9c-13,24.1-34.2,49.6-62.5,72.2c-28.2,22.8-62.9,42.7-100.1,61.4c-18.6,9.5-37.2,17.9-55.1,25.9
			c-17.9,8.1-35.2,15.9-51.4,24c-32.2,16.2-60,33.8-79.4,53.1c-1.2,1.2-2.5,2.3-3.6,3.5c-1.1,1.2-2.2,2.4-3.3,3.6
			c-1.1,1.2-2.2,2.4-3.2,3.6c-1.1,1.2-2.1,2.3-3,3.5c-3.8,4.8-6.7,9.9-8.6,14.9c-1.9,5-2.9,10-3.2,14.7c-0.3,4.6,0,8.9,0.6,12.6
			c1.2,7.5,3.5,13.1,5,16.8c0.8,1.8,1.5,3.2,1.9,4.2c0.4,0.9,0.6,1.4,0.6,1.4s-0.3-0.5-0.7-1.4c-0.5-0.9-1.2-2.3-2-4.1
			c-1.6-3.7-3.9-9.2-5.2-16.8c-0.7-3.8-1-8.1-0.7-12.7c0.3-4.7,1.2-9.7,3.2-14.8c1.9-5.1,4.8-10.2,8.7-15.1c0.9-1.2,2-2.4,3-3.6
			c1.1-1.2,2.1-2.4,3.2-3.6c1.1-1.2,2.2-2.4,3.3-3.7c1.1-1.2,2.4-2.3,3.6-3.6c19.4-19.4,47.2-37.2,79.4-53.4
			c16.1-8.2,33.4-16,51.4-24.1c17.9-8.1,36.5-16.5,55-25.9c37.2-18.7,71.8-38.6,100-61.3c28.2-22.5,49.5-47.8,62.5-71.9
			c6.6-12,11.2-23.5,14.6-33.8c3.4-10.3,5.5-19.4,6.9-26.9c1.4-7.5,2-13.4,2.5-17.4c0.2-2,0.3-3.5,0.4-4.6
			C770.7,502.2,770.8,501.7,770.8,501.7z"/>
	</g>
</g>
<g>
	<path class="st4" d="M521.6,750.1c27,15.4,60.4,19.3,90.2,10.5c-9.4-11.1-24.2-16.3-38.7-17.2c-14.5-0.8-28.9,2.2-43.1,5.3"/>
</g>
<g>
	<path class="st4" d="M422.7,801.7c27,15.4,60.4,19.3,90.2,10.5c-9.4-11.1-24.2-16.3-38.7-17.2c-14.5-0.8-28.9,2.2-43.1,5.3"/>
</g>
<g>
	<path class="st4" d="M373.1,860.9c30.4,6.6,63.4,0.4,89.2-16.8c-12.3-7.8-28-8.4-42.1-4.9c-14.1,3.5-26.9,10.7-39.6,17.9"/>
</g>
<g>
	<path class="st4" d="M635,691.2c27,15.4,60.4,19.3,90.2,10.5c-9.4-11.1-24.2-16.3-38.7-17.2c-14.5-0.8-28.9,2.2-43.1,5.3"/>
</g>
<g>
	<path class="st4" d="M699.5,645.1c30.3,6.9,63.3,0.9,89.4-16.1c-12.2-7.9-27.9-8.6-42-5.2c-14.1,3.4-27,10.5-39.7,17.6"/>
</g>
<g>
	<path class="st4" d="M769.9,566.1c-11.5,8.8-25.9,27-34.7,38.6c30.5-5.9,58.3-24.7,75.3-50.8C796.1,551.6,781.4,557.3,769.9,566.1z
		"/>
</g>
<g>
	<g>
		<g>
			<path class="st4" d="M626.5,662.5c0,0-52.1,17.1-59.8,65.5C566.7,728.1,611.4,714.1,626.5,662.5z"/>
		</g>
	</g>
</g>
<g>
	<g>
		<g>
			<path class="st4" d="M708.2,584.8c0,0-43.3,33.6-34.3,81.8C673.9,666.6,711.3,638.4,708.2,584.8z"/>
		</g>
	</g>
</g>
<g>
	<g>
		<g>
			<path class="st4" d="M735.7,480.6c0,0-15.6,52.6,19.8,86.4C755.5,567,769.5,522.3,735.7,480.6z"/>
		</g>
	</g>
</g>
<g>
	<g>
		<g>
			<path class="st4" d="M522.1,712.3c0,0-52.1,17.1-59.8,65.5C462.3,777.9,507,763.9,522.1,712.3z"/>
		</g>
	</g>
</g>
<g>
	<g>
		<g>
			<path class="st4" d="M383.1,750.6c0,0-26.3,48.1,1.2,88.7C384.3,839.3,407.3,798.5,383.1,750.6z"/>
		</g>
	</g>
</g>
<g>
	<g>
		<g>
			<path class="st4" d="M346,415.3c0,0-0.1,0.2-0.4,0.4c-0.3,0.3-0.8,0.7-1.4,1.2c-1.2,1-2.9,2.6-5.1,4.7c-4.2,4.3-9.9,11-14.9,20.5
				c-2.5,4.7-4.9,10.2-6.6,16.2c-1.8,6.1-2.9,12.8-2.8,19.9c0.1,7.1,1.4,14.5,3.9,21.8c2.4,7.3,6.1,14.5,10.6,21.3
				c9.1,13.7,21.1,24.2,33,31.9c11.9,7.8,23.7,13,33.7,16.9c10.1,3.9,18.4,6.5,24.2,8.3c2.8,0.9,5.1,1.5,6.7,2
				c0.7,0.2,1.3,0.4,1.7,0.5c0.4,0.1,0.6,0.2,0.6,0.2c0,0-0.2,0-0.6-0.1c-0.4-0.1-1-0.3-1.8-0.4c-1.5-0.4-3.8-1-6.7-1.8
				c-5.8-1.7-14.2-4.2-24.3-8c-10.1-3.9-22-9-34-16.8c-12-7.7-24.1-18.3-33.3-32.2c-4.6-6.9-8.3-14.2-10.7-21.6
				c-2.4-7.4-3.7-14.9-3.8-22.1c-0.1-7.2,1.1-14,2.9-20.1c1.8-6.1,4.2-11.6,6.8-16.3c5.1-9.6,11-16.3,15.3-20.5
				c2.2-2.1,4-3.6,5.3-4.6c0.6-0.5,1.1-0.8,1.4-1.1C345.8,415.4,346,415.3,346,415.3z"/>
		</g>
	</g>
	<g class="st7">
		<g>
			<g>
				<path class="st18" d="M372.8,496.4c0,0,3,54.8,47.7,74.7C420.5,571.2,418.6,524.4,372.8,496.4z"/>
			</g>
		</g>
	</g>
	<g class="st7">
		<path class="st18" d="M323.7,517.6l-5,22c12.5,4.1,27.1,5.7,42.9,1.4C361.6,541,348.1,525.8,323.7,517.6z"/>
	</g>
	<g>
		<g>
			<g>
				<path class="st4" d="M365.2,504c0,0,3,54.8,47.7,74.7C413,578.7,411.1,531.9,365.2,504z"/>
			</g>
		</g>
	</g>
	<g>
		<g>
			<g>
				<path class="st4" d="M319.6,415.3c0,0-26.7,47.9,0.5,88.7C320.1,504,343.4,463.4,319.6,415.3z"/>
			</g>
		</g>
	</g>
	<g>
		<g>
			<g>
				<path class="st4" d="M269.8,521c0,0,37,40.5,84.3,27.6C354.1,548.5,323,513.6,269.8,521z"/>
			</g>
		</g>
	</g>
</g>
<path class="st14" d="M488,293c0,0-38,16-42,78c0,0,88-20,91-20l-4-13c0,0,7,8,8,10l19,0.2C560,348.2,556,306,488,293z"/>
<path class="st16" d="M515.4,410c0,0-0.6,5.1,1.6,8.9c2.3,3.8,17.1,27.8,16.2,29.9s-6.5,7.5-12.5,7.9c-6,0.4-19.9,2.4-18,0.3
	s25.6-6.9,25.4-8.9c-0.1-2-14.8-24-14.9-26s-3.1-14.8-0.1-15C516.2,407,515.4,410,515.4,410z"/>
<path class="st16" d="M797.4,138.6c0,0,6.6,30.4-2.4,31.4c-4.1,0.5-6.5-1.2-7.9-3.1c-1.7-2.3-1.9-5-1.9-5S781,166,773,165
	c0,0,5,5,8,5s10,8,14,6s10-2,11-12L797.4,138.6z"/>
<path class="st16" d="M733.1,128.4c0,0,3.9,16.6,3.9,19.6c0,0,9,12,8,14c0,0,18,2,17,7c0,0-3.6-7.6-9.8-12.8
	c-6.2-5.2-13-11.3-12.6-14.8C740,138,733.1,128.4,733.1,128.4z"/>
<path class="st20" d="M651.4,676.2c0,0-37.4-71.2-50.4-81.2l57.8,72.5L651.4,676.2z"/>
<polygon class="st20" points="585,555 611,584 587.7,552.8 "/>
<path class="st20" d="M361.5,760.5c0,0,4.5-58.5,16.5-78.5s-4-3-5,0s-11.3,11.4-15.7,77.7L361.5,760.5z"/>
</svg>
