<?xml version="1.0" encoding="utf-8"?>
<!-- Generator: Adobe Illustrator 24.2.3, SVG Export Plug-In . SVG Version: 6.00 Build 0)  -->
<svg version="1.1" id="Layer_1" xmlns="http://www.w3.org/2000/svg" xmlns:xlink="http://www.w3.org/1999/xlink" x="0px" y="0px"
	 viewBox="0 0 1000 1000" style="enable-background:new 0 0 1000 1000;" xml:space="preserve">
<style type="text/css">
	.st0{fill:#ECECEC;}
	.st1{fill:#FFC19D;}
	.st2{fill:#FFBB15;}
	.st3{fill:#1A2E35;}
	.st4{opacity:0.6;}
	.st5{fill:#FF9C6A;}
	.st6{fill:#443A22;}
	.st7{fill:#217573;}
	.st8{fill:#E1E1E1;}
	.st9{fill:#FF8900;}
	.st10{fill:#ED7600;}
	.st11{fill:#FFFFFF;}
	.st12{fill:#C27460;}
	.st13{fill:#514233;}
	.st14{fill:#028C88;}
	.st15{fill:#474746;}
	.st16{fill:#272428;}
	.st17{fill:#2D1C0F;}
	.st18{fill:#7C4235;}
	.st19{fill:#3A2D29;}
	.st20{fill:#375A64;}
	.st21{fill:#B26859;}
	.st22{fill:#1E6662;}
	.st23{fill:#D8765F;}
	.st24{fill:#00ADAD;}
	.st25{fill:#939392;}
	.st26{fill:#2D2D2C;}
	.st27{fill:#525252;}
	.st28{fill:#232323;}
	.st29{opacity:0.6;fill:#8D4032;}
	.st30{fill:#D8D8D8;}
	.st31{fill:#353535;}
	.st32{fill:#EDA506;}
	.st33{fill:#2A4948;}
	.st34{fill:#F98E5F;}
</style>
<circle class="st0" cx="500" cy="554" r="430.5"/>
<g>
	<path class="st1" d="M564.3,428.1c1.1,2.6,23.2,55.6,41.6,57.1c18.4,1.5,64.7-29.4,64.7-29.4l-7.3-15.6l-47,12L592.1,404l-24.7,6.1
		L564.3,428.1z"/>
</g>
<g>
	<path class="st2" d="M450.2,555.4c0,1.5-10.5,133.6-9.7,146c0.8,12.4,4.2,110.4,4.2,110.4H473c0,0,10.1-118.9,11.1-124.8
		c1-6,7.3-25.3,7.3-25.3l21.1-86.9c0,0-1.9,70.5,0,81.5c1.9,10.9-2.3,33.3-2.3,39.7c0,6.5,0.2,116.9,0.2,116.9l27,1.6
		c0,0,1-8.7,2.3-14c0.8-3.4,7.9-63.6,8.4-66.4c1.2-7.4,2.9-28.4,4.9-37.5c1.5-6.6,12.9-78.1,13.5-79.4c0.8-2,6.4-49.2,6.4-49.2
		v-18.3L453.3,535L450.2,555.4z"/>
</g>
<g>
	<g>
		<g>
			<g>
				<path class="st3" d="M560.9,267.3c3.6,4.4,3.4,7.9,3.1,9.6c-0.1,0.5-0.3,1.1-0.9,1.2c-0.3,0-0.5-0.1-0.7-0.3
					c-4.5-2.8-9.1-5.7-13.6-8.5"/>
			</g>
		</g>
	</g>
</g>
<g>
	<g>
		<g>
			<g>
				<g>
					<g>
						<g>
							<g>
								<g>
									<g>
										<g>
											<path class="st3" d="M504.3,314c-1.7-6.9-3.4-13.8-3.9-20.9c-0.5-7.1,0.2-14.4,3.2-20.8c0.4-1,4.1-7.5,5.2-7.3
												c0.8,0.1-1.6,6.3-1.3,7c3.2,6.6,3.7,14.3,2.6,21.5C508.9,300.7,506.9,307.2,504.3,314"/>
										</g>
									</g>
								</g>
							</g>
						</g>
					</g>
				</g>
			</g>
		</g>
	</g>
</g>
<g>
	<g>
		<g>
			<g>
				<g>
					<g>
						<g>
							<g>
								<g>
									<g>
										<g>
											<g>
												<path class="st1" d="M501.5,352.3l4-65.3c0.7-17.8,11.6-32.2,29.3-31l1.6,0.2c16.4,2,28.6,16.4,27.8,32.9
													c-0.7,15.4-1.6,32.4-2.7,40.6c-2.3,16.9-19.6,17.4-19.6,17.4c0,0-1.5,17.3-1.9,22.3l-25.5-3.5l-6.1-1.1L501.5,352.3z"/>
											</g>
										</g>
									</g>
								</g>
							</g>
						</g>
					</g>
				</g>
			</g>
		</g>
	</g>
</g>
<g class="st4">
	<g>
		<g>
			<g>
				<g>
					<g>
						<g>
							<g>
								<g>
									<g>
										<g>
											<g>
												<g>
													<path class="st5" d="M542,347.1c0,0-10.8-0.7-21.2-9.3c0,0,3.7,13.4,20.8,14L542,347.1z"/>
												</g>
											</g>
										</g>
									</g>
								</g>
							</g>
						</g>
					</g>
				</g>
			</g>
		</g>
	</g>
</g>
<g>
	<g>
		<g>
			<g>
				<g>
					<g>
						<g>
							<g>
								<g>
									<g>
										<g>
											<g>
												<g>
													<g>
														<g>
															<g>
																<g>
																	<g>
																		<g>
																			<path class="st3" d="M555.1,304.5c-0.1,1.3-1.3,2.2-2.6,2.1c-1.3-0.1-2.3-1.2-2.2-2.5c0.1-1.3,1.3-2.2,2.6-2.2
																				C554.2,302.1,555.2,303.2,555.1,304.5z"/>
																		</g>
																	</g>
																</g>
															</g>
														</g>
													</g>
												</g>
											</g>
										</g>
									</g>
								</g>
							</g>
						</g>
					</g>
				</g>
			</g>
		</g>
	</g>
</g>
<g>
	<g>
		<g>
			<g>
				<g>
					<g>
						<g>
							<g>
								<g>
									<g>
										<g>
											<g>
												<g>
													<g>
														<g>
															<g>
																<g>
																	<g>
																		<g>
																			<g>
																				<path class="st6" d="M560.6,294.9c-0.4,0.4-2.6-1.7-5.9-2.1c-3.3-0.5-6,1-6.3,0.5c-0.2-0.2,0.3-0.9,1.5-1.5
																					c1.1-0.6,3-1.2,5.1-0.9c2.1,0.3,3.7,1.2,4.6,2.2C560.6,294,560.8,294.8,560.6,294.9z"/>
																			</g>
																		</g>
																	</g>
																</g>
															</g>
														</g>
													</g>
												</g>
											</g>
										</g>
									</g>
								</g>
							</g>
						</g>
					</g>
				</g>
			</g>
		</g>
	</g>
</g>
<g>
	<g>
		<g>
			<g>
				<g>
					<g>
						<g>
							<g>
								<g>
									<g>
										<g>
											<g>
												<g>
													<g>
														<g>
															<g>
																<g>
																	<g>
																		<g>
																			<path class="st3" d="M532.4,300.6c-0.1,1.3-1.3,2.2-2.6,2.2c-1.3-0.1-2.3-1.2-2.2-2.5c0.1-1.3,1.3-2.2,2.6-2.2
																				C531.5,298.2,532.5,299.3,532.4,300.6z"/>
																		</g>
																	</g>
																</g>
															</g>
														</g>
													</g>
												</g>
											</g>
										</g>
									</g>
								</g>
							</g>
						</g>
					</g>
				</g>
			</g>
		</g>
	</g>
</g>
<g>
	<g>
		<g>
			<g>
				<g>
					<g>
						<g>
							<g>
								<g>
									<g>
										<g>
											<g>
												<g>
													<g>
														<g>
															<g>
																<g>
																	<g>
																		<g>
																			<g>
																				<path class="st6" d="M536,291.7c-0.4,0.4-2.6-1.7-5.9-2.1c-3.3-0.5-6,1-6.3,0.5c-0.2-0.2,0.3-0.9,1.5-1.5
																					c1.1-0.6,3-1.2,5.1-0.9c2.1,0.3,3.7,1.2,4.6,2.2C535.9,290.7,536.2,291.5,536,291.7z"/>
																			</g>
																		</g>
																	</g>
																</g>
															</g>
														</g>
													</g>
												</g>
											</g>
										</g>
									</g>
								</g>
							</g>
						</g>
					</g>
				</g>
			</g>
		</g>
	</g>
</g>
<g class="st4">
	<g>
		<g>
			<g>
				<g>
					<g>
						<g>
							<g>
								<g>
									<g>
										<g>
											<g>
												<g>
													<g>
														<g>
															<g>
																<g>
																	<g>
																		<g>
																			<path class="st5" d="M541,314.7c0-0.1,1.7-0.2,4.3-0.2c0.7,0,1.3,0,1.5-0.5c0.2-0.5,0-1.2-0.2-2
																				c-0.4-1.7-0.9-3.5-1.3-5.3c-1.8-7.5-3.1-13.7-2.8-13.8c0.3-0.1,2,6,3.9,13.5c0.4,1.9,0.9,3.6,1.2,5.3
																				c0.2,0.8,0.5,1.7,0,2.7c-0.2,0.5-0.8,0.8-1.2,0.8c-0.4,0.1-0.8,0-1.1,0C542.7,315,541,314.8,541,314.7z"/>
																		</g>
																	</g>
																</g>
															</g>
														</g>
													</g>
												</g>
											</g>
										</g>
									</g>
								</g>
							</g>
						</g>
					</g>
				</g>
			</g>
		</g>
	</g>
</g>
<g>
	<g>
		<g>
			<g>
				<g>
					<g>
						<g>
							<g>
								<g>
									<g>
										<g>
											<path class="st1" d="M505.3,299.7c-0.3-0.2-10.5-7.2-9.9,5.8c0.6,11.7,8.4,11.2,8.4,10.9
												C504,316.1,505.3,299.7,505.3,299.7z"/>
										</g>
									</g>
								</g>
							</g>
						</g>
					</g>
				</g>
			</g>
		</g>
	</g>
</g>
<g>
	<g>
		<g>
			<g>
				<g>
					<g>
						<g>
							<g>
								<g>
									<g>
										<g>
											<path class="st6" d="M558.4,269.2c2-0.9-3.2-7.5-7.6-9.9c-6.7-3.8-17.2-6.6-23.8-5.3c-7.9,1.6-14.7,4.9-19.2,11.6
												c-4.5,6.7-6.6,14.9-7.1,22.9c-0.1,2.5-0.1,5.1,1,7.2c1.4,2.7,3.6,4.2,4,8.1c0.1,1.3,0.1,2.6,0.9,3.7
												c1.9,2.4,4.7,0.5,6.1-1.5c2.9-4.3,3.7-9.8,4.3-15c0.5-3.7,0.9-7.5,0.2-11.1c-0.4-2-1.2-3.9-1.5-5.9
												c-0.3-2-0.1-4.2,1.3-5.7c0.2-0.2,0.6-0.5,1-0.9c3.5-2.6,8.2-3.1,12.2-1.3c6.4,2.9,17.3,7.3,20.4,5.3
												c4.5-2.8,5.6-4.9,5.6-4.9L558.4,269.2z"/>
										</g>
									</g>
								</g>
							</g>
						</g>
					</g>
				</g>
			</g>
		</g>
	</g>
</g>
<g>
	<g>
		<g>
			<g>
				<path class="st7" d="M497.3,298.5c-0.2-0.2-0.5-0.3-0.7-0.5c-12.6-14.2-0.7-25.9-0.2-29.8c0.7-5.4-6.3,0.9-6.5-6.2
					c-0.3-9.5,10-12.6,22.7-15.6c5.3-1.3,18-0.7,28.9,2.5c9.7,2.9,15.7,10.5,19,16.2c0,0,2.2,1.3,2.7,2.4c1.5,3.4,0.6,4.6,0.6,4.6
					s-20.9-13.2-40.5,0.2c-19.6,13.4-17.3,26.5-22.2,26.3L497.3,298.5z"/>
			</g>
		</g>
	</g>
</g>
<g>
	<g>
		<g>
			<g>
				<path class="st3" d="M550.8,267.7c-0.1,0,0.5-1.6,0.2-3.5c-0.3-1.9-1.5-3.2-1.4-3.2c0,0,0.4,0.2,0.7,0.8c0.4,0.5,0.8,1.4,1,2.4
					c0.2,1,0.1,1.9-0.1,2.6C551,267.3,550.8,267.7,550.8,267.7z"/>
			</g>
		</g>
	</g>
</g>
<g>
	<g>
		<g>
			<g>
				<path class="st3" d="M560.2,270.8c-0.1,0,0.4-1.2,0.5-2.7c0.1-1.5-0.3-2.7-0.2-2.8c0.1,0,0.6,1.2,0.5,2.8
					C560.9,269.7,560.2,270.8,560.2,270.8z"/>
			</g>
		</g>
	</g>
</g>
<g>
	<path class="st6" d="M568.3,259.9c-2.3-3.5-7-4.8-11-3.6c-4,1.2-7.1,4.5-8.6,8.4c-2.5-1.5-6-0.7-7.7,1.6l-5.1,0.6
		c0.4,2.1,0.9,4.2,2,6c1.1,1.8,2.9,3.4,5,3.6c2.1,0.2,4.4-1.2,4.7-3.3c1,3.6,4.7,5.8,8.4,6.5c2.9,0.6,6.1,0.4,8.4-1.3
		c2.4-1.7,3.4-5.4,1.6-7.7C569.6,268.8,570.6,263.4,568.3,259.9z"/>
</g>
<g>
	<path class="st8" d="M461.4,401.2l48.7,59.4l63.7,21.7l-5.2,26c0,0-59.5-11.4-71-16.9c-11.4-5.5-48.6-36.7-48.6-36.7L461.4,401.2z"
		/>
</g>
<g>
	<path class="st9" d="M422.7,427.3c-0.4-1.3,19.6-52.7,25.8-59.5c6.2-6.8,9.4-8.2,21-12c11.6-3.7,31.3-7.1,31.3-7.1
		s9,11.6,25.4,10.9c16.4-0.7,15.1-6.8,15.1-6.8s36.2,13.2,40.4,19.3c4.2,6.1,9.3,13.5,14.7,30.7c4.8,15.2,7.5,24.3,7.5,24.3
		l-26.6,6.4c0,0-0.8,24.2-1.1,51c-0.4,31.9-0.2,67.6,2.6,71.2c2.9,3.8-5.8,13.8-5.8,13.8s-124.2,3.8-127.8,0
		c-3.6-3.8-3.4-13.5-3.3-14c0.1-0.5,4.9-4.5,4.9-4.5l6-57.1l3.1-54.3L422.7,427.3z"/>
</g>
<g>
	<g>
		<path class="st10" d="M559.2,560.5c0,0.6-20.9,1.7-46.7,2.5c-25.7,0.8-46.6,1.1-46.5,0.5c0-0.6,20.9-1.7,46.7-2.5
			C538.5,560.2,559.3,559.9,559.2,560.5z"/>
	</g>
</g>
<g>
	<path class="st11" d="M535.6,455.9c-0.9-6.8-2.3-16.5-4.1-28.5L530,418l-1.4,9.5c-1.3,8.7-2.7,18.9-4.3,29.9
		c-2.7-8.7-5.6-17.9-8.5-27.4c-0.5-1.5-0.9-3-1.4-4.4l-5.2-16.4l1.5,17.1c1,11.3,1.9,22.2,2.8,32.4c-4.5-8.4-8.6-16.1-12.2-22.8
		l-2.9-5.3l0.3,6c0.6,10.6,1.7,19.2,2.6,25.1c0.9,5.9,1.7,9.1,2,9c0.3,0,0-3.3-0.5-9.2c-0.4-4.7-0.9-11.1-1.2-18.8
		c3.8,7.5,8.1,16,12.8,25.2l4,7.7l-0.7-8.7c-0.6-7.7-1.2-15.9-1.9-24.5c2.6,8.3,5.2,16.2,7.5,23.7l2.5,7.8l1-8.1
		c1.3-10.3,2.5-19.9,3.5-28.6c1.4,7.7,2.7,14.1,3.6,19c1.4,6.7,2.3,10.4,2.5,10.3C536.8,466.4,536.5,462.7,535.6,455.9z"/>
</g>
<g>
	<g>
		<g>
			<path class="st1" d="M465.5,352.9c0,0,1.3-4.8,3.5-4.8c2.2,0.1,2.2,0.1,2.2,0.1s2.1-3.4,4.1-3.3c2,0.2,4.2,1.7,4.2,1.7
				s1.8-1.9,3.9-1.9c3,0.1,5.4,0.9,5.4,0.9l9.6,3.9l0,0c-0.7,1.6-1.5,2.2-3.3,2.5c-0.8,0.1-2.8,0.1-3.9-0.1
				c-2.1-0.5-4.1-1.4-4.1-1.4s5.6,15.3,4.3,16.9c-1.4,1.6-3.8,0.3-4.2,0.1c-0.4-0.2-6.6-12.7-6.6-12.7s4.1,15.7,2.6,17.6
				c-1.5,1.8-3.4,0.1-4,0.1c-0.6,0-1.9-3.3-1.9-3.3s-3.6,4.8-6,0.3c-1-1.9-1.8-4.3-1.8-4.3l-1.7-7.1l-1.1-0.6c0,0,1.4,7.9,0,8.3
				c-1.4,0.4-2.6,0.1-3.7-3.6c-0.5-1.7-1.3-4-1.3-5.6c0-1.3,0.8-2.5,2-2.9L465.5,352.9z"/>
		</g>
	</g>
	<g>
		<g>
			<g>
				<path class="st5" d="M472.5,354.6c-0.2,0,0.3,3.7,1.7,8c1.4,4.3,3.2,7.5,3.3,7.4c0.2-0.1-1.2-3.4-2.6-7.7
					C473.6,358.1,472.7,354.6,472.5,354.6z"/>
			</g>
		</g>
	</g>
	<g>
		<g>
			<g>
				<path class="st5" d="M479,348.9c-0.1,0-0.2,0.4-0.1,1.1c0.1,0.7,0.4,1.5,0.8,2.5c0.9,1.8,1.3,3.2,1.5,3.2c0.1,0,0.2-0.4,0.1-1.1
					c-0.1-0.7-0.4-1.5-0.8-2.5C479.6,350.3,479.2,348.9,479,348.9z"/>
			</g>
		</g>
	</g>
</g>
<g>
	<g>
		<path class="st12" d="M582.9,497.8c0,0,4-2.6,3.3-4.5c-0.7-1.9-0.7-1.9-0.7-1.9s2.5-2.9,1.8-4.6c-0.7-1.7-2.7-3.3-2.7-3.3
			s1.2-2.1,0.6-4c-0.9-2.7-2.3-4.6-2.3-4.6l-6.2-7.5l0,0c-1.3,1.1-1.5,2-1.3,3.6c0.1,0.8,0.7,2.5,1.2,3.5c1,1.7,2.4,3.2,2.4,3.2
			s-15.3-0.7-16.4,0.9c-1.1,1.7,0.8,3.5,1.1,3.8c0.3,0.3,13.3,2.4,13.3,2.4s-15.3,0.8-16.5,2.7c-1.2,1.9,0.9,3,1,3.6
			c0.2,0.5,3.5,0.7,3.5,0.7s-3.3,4.5,1.5,5.5c2,0.4,4.3,0.4,4.3,0.4l6.9-0.4l0.8,0.8c0,0-7.5,1-7.5,2.3c0,1.4,0.7,2.4,4.3,2.3
			c1.7,0,4,0,5.4-0.4c1.2-0.4,2-1.4,2.1-2.6L582.9,497.8z"/>
	</g>
</g>
<g>
	<g>
		<path class="st1" d="M176.1,396.3c-0.2,2-9.6,18.3-15.8,37l-9.2-47H133c0,0,2.8,47.4,5.9,62c3.8,17.8,15.9,23,26,19
			c10.1-4,19.9-24.5,19.9-24.5l8.7-20.9L176.1,396.3z"/>
	</g>
	<g>
		<g>
			<g>
				<path class="st1" d="M153.9,337.9c0,0,4.7-2.2,3.6,2.8c-1.1,5-5.3,19.9-5.3,19.9l-1.4,34.2l-16.6-6.3c-1.8-0.7-3-2.4-3.1-4.3
					l-0.5-10.3c0,0-4.9-8.8-3.9-10.4c1-1.5,2-1.2,2-1.2s-0.1-2.8,1-5.2c1.1-2.4,3.3-1.6,4.6-0.8c1.3,0.9,2.5,4.1,2.5,4.1l1.7-2.1
					c0,0-4-21.5-3.7-21.9c0.3-0.4,2.6-3.2,4.2,0.7c1.6,3.9,4.1,19,5.2,19.6c1.1,0.7,3.2,0.5,3.4-1.3
					C147.7,353.9,153.9,337.9,153.9,337.9z"/>
			</g>
		</g>
		<g>
			<g>
				<path class="st5" d="M129,362.4c-0.1,0-0.2,1.4,0.2,3.7c0.2,1.1,0.6,2.4,1.2,3.9c0.3,0.7,0.8,1.5,1.7,1.9c0.5,0.2,1,0.2,1.5,0
					c0.5-0.2,0.9-0.5,1.1-0.9c0.6-0.9,0.6-1.8,0.6-2.6c0-0.8-0.1-1.6-0.1-2.4c-0.1-1.4-0.2-2.8-0.2-4c-0.1-2.3-0.3-3.7-0.4-3.7
					c-0.1,0-0.2,1.4-0.1,3.7c0,1.2,0,2.6,0.1,4c0,0.8,0,1.5,0.1,2.3c0,0.8-0.1,1.6-0.5,2.2c-0.4,0.6-1.1,0.9-1.7,0.7
					c-0.6-0.2-1-0.9-1.3-1.5c-0.6-1.3-1-2.6-1.3-3.7C129.2,363.8,129.1,362.4,129,362.4z"/>
			</g>
		</g>
		<g>
			<g>
				<path class="st5" d="M130.4,373.4c0,0.2,0.9,0.2,1.3-0.6c0.5-0.8,0-1.6-0.2-1.4c-0.2,0.1-0.2,0.6-0.5,1.1
					C130.8,373,130.4,373.2,130.4,373.4z"/>
			</g>
		</g>
		<g>
			<g>
				<path class="st1" d="M150.4,379.3c-1.5-4.4-4.7-7.9-8.2-10.9c-3.5-3-7.4-5.5-10.8-8.6c-0.8,0.8-1.1,2.1-0.9,3.3
					c0.2,1.2,0.7,2.2,1.3,3.2c1.6,2.8,3.6,5.5,5.8,7.9c-2.8,3.7-3.7,8.9-2.1,13.3"/>
			</g>
			<g>
				<g>
					<path class="st5" d="M135.5,387.4c0.1,0-0.5-1.3-0.6-3.8c-0.1-2.4,0.4-6,2.9-9.3l0.2-0.2l-0.2-0.2c-1.5-1.6-3-3.5-4.4-5.6
						c-0.7-1.1-1.4-2.2-2-3.4c-0.6-1.2-0.9-2.5-0.6-3.7c0.1-0.5,0.4-0.9,0.7-1.2l-0.5,0c2.9,2.6,5.9,4.7,8.5,6.7
						c2.6,2,4.8,4,6.5,5.9c1.6,1.9,2.7,3.6,3.3,4.8c0.6,1.2,0.9,1.9,1,1.9c0,0,0-0.2-0.1-0.5c-0.1-0.4-0.3-0.9-0.6-1.5
						c-0.6-1.3-1.6-3.1-3.2-5c-1.6-1.9-3.8-4-6.4-6.1c-2.6-2.1-5.6-4.2-8.5-6.7l-0.3-0.2l-0.3,0.3c-0.4,0.4-0.7,1-0.9,1.5
						c-0.4,1.5,0,3,0.6,4.3c0.6,1.2,1.3,2.4,2,3.4c1.4,2.1,3,4,4.5,5.7l0-0.4c-2.6,3.5-3,7.3-2.8,9.8c0.1,1.2,0.4,2.2,0.6,2.8
						C135.3,387.1,135.5,387.4,135.5,387.4z"/>
				</g>
			</g>
		</g>
	</g>
</g>
<g>
	<g>
		<g>
			<path class="st1" d="M309.5,422.6l4.4,62.4l0.4,27.8l-1,36.3l-8.9,6.1c-4.6-19.4-11.1-40.3-13.4-56.5l-8.1-62.7l2-6.7
				L309.5,422.6z"/>
		</g>
	</g>
</g>
<g>
	<g>
		<g>
			<path class="st13" d="M286.2,338.3c0.8-7.8,2.7-15.5,3.1-23.4c0.4-7.9-0.9-16.2-5.9-22.3c-5-6.1-14.3-9.1-21-5.1l-1.9,6.5
				c-0.2,30.4-3.3,61.1-3.4,91.5c0,4,2.9,7.9,4.4,11.6c1.5,3.7,4.8,7,8.8,7.1c5.2,0.1,9.1-4.8,11.2-9.6
				C288.9,377.2,284.3,357.2,286.2,338.3z"/>
		</g>
	</g>
</g>
<g>
	<g>
		<g>
			<path class="st9" d="M271,296c-1-2-2-4.1-3.5-5.8c-1.5-1.6-3.7-2.8-6-2.6c-1.1,0.1-2.2,0.6-2.6,1.6c-0.4,1,0.2,2.4,1.3,2.4
				l0.2,0.2c2.2,2.3,4.4,4.5,6.6,6.7c0.6,0.6,1.2,1.1,1.9,1.4c0.7,0.3,1.7,0.3,2.2-0.3C272.1,298.8,271.6,297.2,271,296z"/>
		</g>
	</g>
</g>
<g>
	<g>
		<g>
			<path class="st13" d="M274.7,304.1c-7-10.2-16.9-16.7-29.3-18c-6.9-0.7-9.9,0.5-15.1,1.4c-5.1,0.9-9.9,3.2-13.3,7.2
				c-4,4.7-7.5,10.1-8.7,16.2c-1.2,6.2-1.3,12.4-0.6,17.6c0.9,6.3,4.3,16.1,7.6,21.5l10.6,2.2c8.8,1.1,17.8,2.2,26.6,0.9
				c8.8-1.3,17.6-5.2,22.9-12.3C282.9,330.9,281.7,314.3,274.7,304.1z"/>
		</g>
	</g>
</g>
<g>
	<g>
		<path class="st1" d="M260.5,302.7l-20.6-10.4l-5.6,0.2c-12.6-1.1-22.5,12-23.5,22.2c-1.1,11.3-2,25.2-0.9,33.7
			c2.1,17.1,16.3,19.8,16.3,19.8s-1.1,8.9-1.7,14.5l33,0.6l8.3-74.2C265.8,305.9,263.5,303.1,260.5,302.7z"/>
	</g>
</g>
<g>
	<g>
		<g>
			<g>
				<g>
					<g>
						<g>
							<g>
								<g>
									<g>
										<g>
											<g>
												<g>
													<g>
														<g>
															<g>
																<g>
																	<g>
																		<g>
																			<path class="st14" d="M217.1,328.9c-0.1,1.2,0.8,2.2,2,2.3c1.2,0.1,2.2-0.7,2.3-1.9c0.1-1.2-0.8-2.2-2-2.3
																				C218.2,326.9,217.2,327.7,217.1,328.9z"/>
																		</g>
																	</g>
																</g>
															</g>
														</g>
													</g>
												</g>
											</g>
										</g>
									</g>
								</g>
							</g>
						</g>
					</g>
				</g>
			</g>
		</g>
	</g>
</g>
<g>
	<g>
		<g>
			<g>
				<g>
					<g>
						<g>
							<g>
								<g>
									<g>
										<g>
											<g>
												<g>
													<g>
														<g>
															<g>
																<g>
																	<g>
																		<g>
																			<path class="st5" d="M230.1,342.8c0-0.1-1.5-0.2-3.9-0.1c-0.6,0-1.2,0-1.3-0.4c-0.2-0.4-0.1-1.1,0.1-1.8
																				c0.3-1.5,0.7-3.1,1.1-4.8c1.5-6.8,2.5-12.3,2.2-12.4c-0.3-0.1-1.7,5.4-3.2,12.2c-0.4,1.7-0.7,3.3-1,4.8
																				c-0.1,0.7-0.4,1.5,0,2.4c0.2,0.4,0.7,0.7,1.1,0.7c0.4,0.1,0.7,0,1,0C228.7,343.1,230.2,342.9,230.1,342.8z"/>
																		</g>
																	</g>
																</g>
															</g>
														</g>
													</g>
												</g>
											</g>
										</g>
									</g>
								</g>
							</g>
						</g>
					</g>
				</g>
			</g>
		</g>
	</g>
</g>
<g>
	<g>
		<g>
			<g>
				<g>
					<g>
						<g>
							<g>
								<g>
									<g>
										<g>
											<g>
												<g>
													<g>
														<g>
															<g>
																<g>
																	<g>
																		<path class="st5" d="M226,368.1c0,0,11.4,1.1,23-5.3c0,0-6.5,11.6-23.4,9.4L226,368.1z"/>
																	</g>
																</g>
															</g>
														</g>
													</g>
												</g>
											</g>
										</g>
									</g>
								</g>
							</g>
						</g>
					</g>
				</g>
			</g>
		</g>
	</g>
</g>
<g>
	<g>
		<g>
			<g>
				<g>
					<g>
						<g>
							<g>
								<g>
									<g>
										<g>
											<g>
												<g>
													<g>
														<g>
															<g>
																<g>
																	<g>
																		<g>
																			<path class="st14" d="M242.7,329.1c0,1.2-1.1,2.1-2.3,2c-1.2,0-2.1-1-2.1-2.1c0-1.2,1.1-2.1,2.3-2
																				C241.8,327,242.8,328,242.7,329.1z"/>
																		</g>
																	</g>
																</g>
															</g>
														</g>
													</g>
												</g>
											</g>
										</g>
									</g>
								</g>
							</g>
						</g>
					</g>
				</g>
			</g>
		</g>
	</g>
</g>
<g>
	<g>
		<g>
			<g>
				<g>
					<g>
						<g>
							<g>
								<g>
									<g>
										<g>
											<g>
												<g>
													<g>
														<g>
															<g>
																<g>
																	<g>
																		<path class="st1" d="M260.2,337.1c0-1.3,1.6-4.2,2.9-4.4c3.4-0.4,7.1-0.2,5.3,8c-2.2,9.6-8,9.4-8,9.1
																			C260.2,349.6,260,341.5,260.2,337.1z"/>
																	</g>
																</g>
															</g>
														</g>
													</g>
												</g>
											</g>
										</g>
									</g>
								</g>
							</g>
						</g>
					</g>
				</g>
			</g>
		</g>
	</g>
</g>
<g>
	<g>
		<g>
			<g>
				<path class="st13" d="M263.5,332.9l-3.2,2.8c-11.6-13.2-33.6-45.8-32.4-43.9c0,0,9-2.8,18.3-0.4c9.3,2.4,26.7,8.7,25.4,19.8
					C270.3,322.3,263.5,332.9,263.5,332.9z"/>
			</g>
		</g>
	</g>
</g>
<g>
	<path class="st15" d="M276.4,490.6c0,0,22.5,47.3,23.8,64.7c1.3,17.4-10.4,47.9-16.5,85.8c-4.9,30.6-7.8,84.6-10.2,104.7
		c-2.2,18.4-5.7,65.2-5.7,65.2l-37.8-0.1c0,0,0.3-123.1,0.3-137.9s0.6-87.4,0.6-87.4l-38.3,117.7l-18,112.4l-31.7-1.4
		c0,0,4.4-95.6,6-113.4c2.4-26.4,21-123.7,25.3-140.9c8.1-31.9,19.5-65.8,19.5-65.8L276.4,490.6z"/>
</g>
<g>
	<path class="st1" d="M274.8,678.3c-10.9,4.8-32.8,4.7-42.1-3.7C243.4,669.5,265.2,671.2,274.8,678.3z"/>
</g>
<g>
	<g>
		<polyline class="st1" points="280.6,387.8 257.7,375.7 227.2,376.8 208.6,383.3 237,401.3 252.5,404.2 280.6,388.8 		"/>
	</g>
	<g>
		<g>
			<path class="st9" d="M185.5,427.3l-20.3-10.9c0,0,9-18.1,14.6-26.4c5.6-8.4,18.1-9.5,18.1-9.5l22.4-2.6c0,0,7.1,8.6,20.8,12.8
				c13.7,4.2,29.7-9,29.7-9s17.2,5.3,23.4,9.1c0,0,7.1,3.4,18.6,39.5l-29.8,6.3l-6.4,36.7l7.3,24.5h-98.3c0,0-0.7-38.4-0.2-65.4
				C185.3,431.6,185.4,428.3,185.5,427.3z"/>
		</g>
	</g>
	<g>
		<polygon class="st11" points="185.1,467.6 185.2,436.5 282.4,442.2 276.5,473.2 		"/>
	</g>
</g>
<g>
	<g>
		<path class="st5" d="M163.3,457.9c-0.1,0,0.1-1.5,0.2-3.8c0.1-2.3,0.1-5.6-0.3-9.1c-0.4-3.5-1.1-6.7-1.8-9c-0.6-2.3-1.1-3.6-1-3.7
			c0.1,0,0.7,1.3,1.5,3.5c0.8,2.2,1.6,5.4,2,9c0.4,3.6,0.3,6.9,0,9.3C163.7,456.5,163.4,457.9,163.3,457.9z"/>
	</g>
</g>
<path class="st10" d="M457,395c0,0,1-22,5-32c0,0,2-6-5-3s-19.5,28.8-19.5,28.8S457,395,457,395z"/>
<g>
	<g>
		<path class="st16" d="M357.9,292.9c-3,0.3-5.7,2.6-6.4,5.5c-0.2,0.7-0.3,1.5-0.7,2.1c-0.6,0.7-1.6,1-2.4,1.4
			c-2.3,1.1-3.8,3.7-3.6,6.3c-1.8,0.5-3.7,1.1-5,2.4c-1.3,1.4-1.5,3.9,0.1,5c-2.8,2-3,6.8-0.3,9c-3.3,1.7-5.4,5.6-4.9,9.3
			c-1.7,0.5-3.6,1.1-4.6,2.6c-1,1.5-0.6,4.1,1.2,4.4c-1.1,1.9-0.6,4.5,1.2,5.8c-2.1,1-2.5,4.3-0.8,5.8c1.7,1.5,4.9,0.7,5.7-1.5
			c0.5,2.1,2.1,3.9,4.1,4.6c-1.3,2.6-0.8,6,1.3,8.1c-1.8,0.6-2.9,2.9-2.2,4.6c0.7,1.8,2.9,2.8,4.7,2.2c0.3,1.8,0.8,3.6,1.9,4.9
			c1.2,1.4,3.2,2.1,4.8,1.4c-1.1,2.8-1.1,6.3,0.9,8.6c0.6,0.7,1.3,1.2,1.9,1.8c1.4,1.1,2.8,2.2,4.3,3.4c1.4,1.1,3.5,2.1,4.6,0.8
			c2,3.3,7.3,3.9,10.1,1.2c1.6,3.5,6.4,3.9,10.3,3.6c1.2-0.1,2.5-0.2,3.5-0.8c1.6-1.1,2-3.2,3-4.8c0.5-0.9,1.3-1.7,1.8-2.6
			c1.3-2.4,0.6-5.7-1.6-7.4c2.2-3.2,1.7-7.5,1.1-11.4c-0.5-3.3-1.1-6.7-3-9.5c-0.3-0.4-0.6-0.8-0.6-1.3c0-0.7,0.6-1.1,1.1-1.5
			c2.4-2.2,3.4-5.9,2.4-9c-0.3-0.9-0.8-1.8-0.6-2.8c0.1-0.8,0.7-1.4,1.1-2.1c2.3-3.1,3.5-8,0.5-10.5c4-3.3,5.1-9.5,2.5-14
			c3.9-2.5,5.1-8.3,2.5-12.1c1.5-1.9,3.1-4,3.4-6.4c0.3-2.4-1.4-5.3-3.9-5.3c1.1-1.1,0.9-3.1,0-4.4c-0.9-1.3-2.3-2.1-3.6-2.9
			c-2-1.2-4.2-2.4-6.5-2.5c-2.4-0.1-5,1.1-5.5,3.4c-0.3-1.2-1.7-2-3-1.8c-1.3,0.1-2.4,0.8-3.5,1.5c-1.8-2.7-6.7-2.2-7.9,0.7
			c-2.4-2.2-7.1-0.8-7.9,2.5"/>
	</g>
</g>
<g>
	<g>
		<path class="st16" d="M470.2,316.5c-0.9-2.3-3.5-3.6-6-3.8c1.5-1.8,0.7-4.8-1.2-6.2c-1.9-1.4-4.6-1.3-6.7-0.5
			c0.8-2.8-0.4-5.9-2.7-7.7c-2.2-1.8-5.3-2.4-8.1-2.1c0.9-2.4,0.4-5.2-1.2-7.1c-1.7-1.9-4.4-2.8-6.9-2.2c-0.5-1.9-2.5-3.2-4.6-3.5
			c-2-0.3-4,0.2-6,0.7c-1-3.3-4-5.8-7.4-6.3c-3.4-0.5-7,1.1-8.9,3.9c-4.9-2.3-14.6,0.2-14.7,7.2l21.4,97.3c2.2,1.8,6.8,4.5,15.5,4.5
			c2.8,0,9.4-5,9-7.8c4.3-0.3,7.9-4.6,7.5-8.9c2.7,1,5-2.1,6.3-4.6c0.7-1.3-0.3,0.5,0.4-0.8c2.1-3.8,0.7-7.8-0.3-8.8
			c1.6,0.3,4.7,0.8,6.4-2.2c0.7-1.2,0.1-4.4,0.1-4.4c0.3-1.5,0.9-2.2,1.2-3.7c0.3-1.5,0-3.3-1.3-4.1c2.2-0.3,4.9-1.2,5-3.4
			c0-1-0.5-1.9-0.5-2.9c0-0.7,0.3-1.4,0.5-2.1c0.7-3.4-2.4-6.3-5.1-8.4c1.5-0.6,3-1.2,4.1-2.3c1.1-1.1,1.7-2.9,1-4.3
			C469.6,322,471.1,318.8,470.2,316.5z"/>
	</g>
</g>
<g>
	<g>
		<path class="st12" d="M422.2,389.8c-0.4-5.6-1-12.6-1-12.6c0,0,13-2.2,15.7-19.1c1.3-8.4,0.9-22.2,0.2-33.5
			c-0.6-10.2-10.1-23.5-22.6-22.9l-5.6-0.3L388,311c-3.1,0.3-5.4,3-5.3,6l6.9,72.8l11.3,23l21.6-14.4L422.2,389.8z"/>
	</g>
</g>
<g>
	<g>
		<path class="st17" d="M430.1,338.2c0,1.1-0.9,2.1-2.1,2.2c-1.2,0.1-2.2-0.8-2.2-2c0-1.1,0.9-2.1,2.1-2.2
			C429.1,336.2,430.1,337.1,430.1,338.2z"/>
	</g>
</g>
<g class="st4">
	<g>
		<path class="st18" d="M419.6,349.5c0-0.1,1.4-0.4,3.8-0.7c0.6-0.1,1.2-0.2,1.3-0.6c0.1-0.4-0.1-1.1-0.4-1.8
			c-0.6-1.4-1.1-3-1.8-4.5c-2.5-6.5-4.2-11.8-4-11.9c0.3-0.1,2.5,5.1,4.9,11.5c0.6,1.6,1.2,3.1,1.7,4.6c0.2,0.7,0.6,1.4,0.3,2.3
			c-0.2,0.4-0.6,0.8-1,0.9c-0.4,0.1-0.7,0.1-1,0.1C421.1,349.7,419.6,349.7,419.6,349.5z"/>
	</g>
</g>
<g class="st4">
	<g>
		<path class="st18" d="M421.2,377.2c0,0-11.4,0.7-22.7-6c0,0,6,11.7,23,10.1L421.2,377.2z"/>
	</g>
</g>
<g>
	<g>
		<g>
			<path class="st19" d="M433.1,330.3c-0.4,0.6-2.2,0.2-4.3,0.4c-2.1,0.1-3.8,0.7-4.3,0.2c-0.2-0.3,0-0.8,0.7-1.4
				c0.7-0.6,1.9-1.1,3.4-1.2c1.4-0.1,2.7,0.3,3.5,0.7C433,329.5,433.3,330,433.1,330.3z"/>
		</g>
	</g>
</g>
<g>
	<g>
		<path class="st17" d="M405.6,338.4c0,1.1,1,2.1,2.2,2.1c1.2,0,2.2-0.9,2.2-2c0-1.1-1-2.1-2.2-2.1
			C406.6,336.4,405.6,337.3,405.6,338.4z"/>
	</g>
</g>
<g>
	<g>
		<g>
			<path class="st19" d="M403,328.7c0.5,0.5,2.3-0.1,4.4-0.2c2.2-0.2,4,0.2,4.4-0.4c0.2-0.3-0.1-0.8-1-1.3c-0.8-0.5-2.1-0.8-3.6-0.7
				c-1.5,0.1-2.8,0.6-3.5,1.2C403,327.9,402.8,328.5,403,328.7z"/>
		</g>
	</g>
</g>
<g>
	<g>
		<path class="st12" d="M387.1,345.3c0-1.3-1.5-4.2-2.7-4.4c-3.3-0.5-7.5,3.4-5.6,10.3c3.2,11.1,8.8,6.5,8.8,6.2
			C387.7,357.1,387.1,349.6,387.1,345.3z"/>
	</g>
</g>
<g>
	<g>
		<g>
			<g>
				<g>
					<g>
						<g>
							<g>
								<g>
									<g>
										<g>
											<path class="st16" d="M405.2,305.4c-7.8,0-15.6,1.5-22.9,4.4c-2.2,0.9-4.4,2-5.6,4c-1.1,1.7-1.2,3.9-1.1,6
												c0.1,6.4,2.8,14.2,5.3,20.1l8.1,4.7c6.2-1.5,3.2-12.1,2.8-17.5c4.3-1.9,7.2-6.5,7.2-11.2
												C402.5,313.5,404.8,309.5,405.2,305.4z"/>
										</g>
									</g>
								</g>
							</g>
						</g>
					</g>
				</g>
			</g>
		</g>
	</g>
</g>
<g>
	<g>
		<path class="st16" d="M402.9,302.3c-2.6-0.2-5.2,1-6.6,3.2c-1.4,2.2-1.4,5.1-0.1,7.3c-2.8,0.3-5.1,2.9-5.3,5.7
			c-0.1,2.8,2,5.5,4.8,6.1c-1.7,0.7-2.8,2.5-2.8,4.3c-0.1,1.8,0.8,3.6,2.2,4.7c1,0.8,2.2,1.4,3.5,1.2c1.3-0.1,2.5-1,2.8-2.2
			c0.3-1.2-0.4-2.7-1.7-2.9c1.7-0.4,2.7-2.4,2.6-4.2c-0.1-1.8-1-3.4-1.9-4.9c1.9-1,2.1-4.1,0.5-5.5c2.7-0.3,5.1-2.4,5.8-5
			c0.2-0.6-0.3-1.7-0.8-1.3c1.9-0.6,3-2.9,2.2-4.8"/>
	</g>
</g>
<g>
	<g>
		<path class="st16" d="M443,328.5c0.9-4.8-1.5-8.5-5-11.9c2.8-4.7,1.4-11.5-3.1-14.6c0.5-2-0.3-4.3-2-5.6c-1.6-1.3-4-1.5-5.9-0.6
			c-1.5-2-3.2-4-5.5-4.9c-2.3-0.9-5.5,0-6.2,2.4c-2.3-3.6-8.1-4.3-11.1-1.2c-3.1-1.5-7.3,1.5-6.9,4.9l4,5.4c-1.9,1.3-3,3.8-2.4,6.1
			c0.6,2.3,2.6,4,4.9,4.3c-0.9,2.6-0.2,5.7,1.7,7.7c0.9,0.9,2.9,1.3,3.2,0c0.9,1.2,3,0.2,3.3-1.3c0.3-1.5-0.5-2.9-1.3-4.2
			c1.4,0.5,3.2-0.3,3.8-1.7c0.6-1.4-0.1-3.2-1.4-3.9c1.2,0.1,2.4,0.2,3.7,0.3c-0.3,1.8,0.1,3.8,1.3,5.2c1.2,1.4,3.5,1.8,5,0.7
			c-0.9,3.5,2.4,7.5,6,7.2c0,0,1.9,0.7,2.8-1.5c0.9-2.2,0-4.9,0-4.9s0.8,6.4,3.5,7.1c1,0.3,1.6,1.5,2,3
			C437.9,328.9,440.9,330,443,328.5L443,328.5z"/>
	</g>
</g>
<g>
	<g>
		<path class="st16" d="M391.2,341.3c2.2-1.1,2.7-4.5,0.9-6.2c1.7-1.9,0.9-5.3-1.4-6.3c1.5-2,1.7-4.9,0.5-7.1
			c-1.2-2.2-3.9-3.5-6.4-2.9c-2.4,0.6-4.3,3.1-3.9,5.6l1.1,11.3c-0.7,0.7-0.7,1.8-0.2,2.6c0.6,0.7,1.7,0.9,2.5,0.4
			c-1.1,1.4-1.5,3.4-1,5.1c0.2,0.6,0.5,1.2,1,1.4c0.3,0.2,0.7,0.2,1.1,0c-0.9,1.1-0.8,3,0.4,3.8c1.3,1,3.6,0.3,4.1-1.3
			c0.7,0.6,1.8,0.4,2.5-0.3c0.6-0.7,0.8-1.6,0.9-2.5C393.4,343.4,392.7,341.6,391.2,341.3z"/>
	</g>
</g>
<g>
	<g>
		<g>
			<path class="st16" d="M332.3,360.4c0-0.1,0.4-0.1,1.1-0.2c0.7-0.1,1.7-0.5,2.7-1.1c0.5-0.3,1-0.8,1.3-1.3
				c0.3-0.5,0.4-1.3,0.2-1.9c-0.1-0.3-0.3-0.6-0.5-0.8c-0.3-0.2-0.6-0.3-0.9-0.4c-0.3,0-0.6,0.1-0.8,0.2c-0.2,0.2-0.4,0.5-0.4,0.8
				c0,0.3,0,0.6,0.2,0.8c0.2,0.2,0.5,0.3,0.8,0.4c0.6,0.1,1.4-0.3,1.9-0.8c1.1-1.1,1.7-2.5,1.8-3.7c0.2-1.2,0-2.2-0.2-2.9
				c-0.2-0.7-0.4-1.1-0.3-1.1c0.1,0,0.4,0.2,0.8,0.9c0.4,0.7,0.7,1.8,0.7,3.2c-0.1,1.4-0.6,3.1-1.9,4.5c-0.3,0.3-0.7,0.7-1.2,0.9
				c-0.5,0.2-1.1,0.4-1.7,0.4c-0.6,0-1.2-0.3-1.7-0.8c-0.2-0.2-0.4-0.6-0.6-0.9c-0.1-0.3-0.1-0.7-0.1-1c0.1-0.7,0.4-1.3,1-1.7
				c0.5-0.4,1.2-0.6,1.9-0.5c1.2,0.1,2.2,1,2.6,2.1c0.3,1.1,0.1,2.1-0.4,2.9c-0.5,0.8-1.2,1.3-1.8,1.6c-1.3,0.6-2.4,0.8-3.2,0.8
				C332.6,360.7,332.3,360.5,332.3,360.4z"/>
		</g>
	</g>
</g>
<g>
	<g>
		<g>
			<path class="st16" d="M358.5,393.4c0,0,0.1-0.1,0.1-0.1c0,0,0-0.1,0-0.2c0-0.2,0.2-0.5,0.3-0.9c0.3-0.7,0.9-1.7,1.5-2.7
				c1.3-2,2.4-3.6,2.8-3.5c0.3,0.2-0.3,2.1-1.6,4.2c-0.6,1-1.3,1.9-1.9,2.5c-0.3,0.3-0.5,0.5-0.7,0.7c-0.1,0.1-0.3,0.1-0.4,0.1
				C358.5,393.5,358.5,393.5,358.5,393.4z"/>
		</g>
	</g>
</g>
<g>
	<g>
		<g>
			<path class="st16" d="M470.9,356.5c0,0.1-0.4,0.4-1.5,0.7c-1,0.2-2.7,0.2-4.4-0.9c-0.4-0.3-0.8-0.6-1.2-1c-0.4-0.4-0.7-0.9-1-1.4
				c-0.5-1.1-0.8-2.3-0.6-3.6c0.2-1.3,0.7-2.7,1.7-3.7c0.5-0.5,1.1-1,1.8-1.3c0.7-0.3,1.5-0.5,2.4-0.3c0.8,0.1,1.6,0.6,2.2,1.3
				c0.3,0.3,0.5,0.8,0.5,1.2c0.1,0.4,0.1,0.9,0,1.3c-0.2,0.8-0.7,1.5-1.3,1.9c-0.6,0.5-1.3,0.7-2,0.8c-1.3,0.2-2.6,0-3.7-0.5
				c-1.1-0.5-1.9-1.2-2.5-2c-0.6-0.8-0.9-1.6-1.1-2.4c-0.2-0.7-0.2-1.4-0.1-1.9c0.1-1.1,0.4-1.6,0.5-1.5c0.1,0,0,0.6,0,1.6
				c0.1,0.9,0.4,2.4,1.5,3.6c0.5,0.6,1.3,1.2,2.2,1.5c0.9,0.3,2,0.5,3,0.3c0.5-0.1,1-0.3,1.4-0.6c0.4-0.3,0.7-0.7,0.8-1.2
				c0.1-0.5,0-0.9-0.3-1.3c-0.3-0.4-0.8-0.7-1.3-0.7c-1-0.2-2.2,0.4-3,1.2c-0.8,0.8-1.3,1.9-1.4,2.9c-0.2,1.1,0,2.1,0.4,3
				c0.2,0.4,0.4,0.8,0.7,1.2c0.3,0.3,0.6,0.6,0.9,0.9c1.4,1,2.8,1.2,3.8,1.2C470.3,356.6,470.8,356.4,470.9,356.5z"/>
		</g>
	</g>
</g>
<g>
	<g>
		<g>
			<path class="st16" d="M473.2,332c0.1,0.1-0.2,0.5-0.9,1c-0.7,0.5-2,1-3.7,0.7c-0.8-0.2-1.7-0.6-2.4-1.3c-0.7-0.7-1.3-1.6-1.5-2.7
				c-0.2-1.1-0.2-2.4,0.5-3.5c0.3-0.6,0.8-1.1,1.5-1.4c0.7-0.3,1.4-0.4,2.2-0.2c0.4,0.1,0.7,0.3,1,0.6c0.3,0.3,0.5,0.6,0.6,1
				c0.3,0.7,0.2,1.4,0,2.1c-0.1,0.3-0.3,0.6-0.5,0.9c-0.2,0.3-0.4,0.5-0.6,0.7c-0.5,0.4-1,0.7-1.5,0.9c-2.1,0.8-4,0.6-5.5,0.1
				c-1.5-0.5-2.6-1.2-3.2-1.8c-0.6-0.6-0.9-1-0.8-1.1c0.1-0.1,0.4,0.2,1.1,0.7c0.7,0.4,1.7,1,3.1,1.3c1.4,0.3,3.1,0.3,4.8-0.4
				c0.8-0.3,1.6-0.9,1.8-1.7c0.1-0.4,0.1-0.8,0-1.2c-0.1-0.3-0.4-0.6-0.7-0.7c-0.4-0.1-0.8-0.1-1.2,0.1c-0.3,0.2-0.7,0.5-0.9,0.8
				c-0.5,0.7-0.6,1.7-0.4,2.5c0.2,0.8,0.6,1.6,1.1,2.2c0.5,0.6,1.2,0.9,1.8,1.1c1.3,0.4,2.5,0.1,3.2-0.2
				C472.7,332.2,473.1,331.9,473.2,332z"/>
		</g>
	</g>
</g>
<g>
	<g>
		<g>
			<path class="st16" d="M344.1,381.6c-0.1,0.1-0.4-0.2-0.8-0.8c-0.4-0.6-1.1-1.4-1.5-2.7c-0.2-0.6-0.3-1.4-0.2-2.2
				c0.1-0.8,0.4-1.7,1.1-2.5c0.7-0.7,1.6-1.2,2.7-1.3c1.1-0.1,2.3,0.3,3.1,1.2c0.2,0.2,0.4,0.5,0.5,0.8c0.1,0.3,0.2,0.6,0.2,0.9
				c0,0.6-0.2,1.2-0.6,1.7c-0.4,0.5-1,0.8-1.6,0.9c-0.6,0-1.2-0.2-1.6-0.5c-0.8-0.7-1.2-1.5-1.4-2.4c-0.2-0.8-0.1-1.6,0-2.2
				c0.3-1.3,0.9-2.3,1.5-2.8c0.5-0.5,0.9-0.7,1-0.6c0.1,0.1-0.2,0.4-0.6,0.9c-0.4,0.6-0.8,1.4-0.9,2.6c-0.1,0.6,0,1.2,0.1,1.8
				c0.1,0.6,0.5,1.2,1,1.6c0.2,0.2,0.5,0.2,0.7,0.2c0.2,0,0.4-0.2,0.6-0.4c0.2-0.2,0.3-0.5,0.3-0.8c0-0.3-0.1-0.6-0.3-0.8
				c-0.4-0.5-1.2-0.8-1.9-0.7c-0.7,0-1.4,0.4-1.9,0.9c-0.5,0.5-0.7,1.1-0.9,1.7c-0.1,0.6-0.1,1.3,0.1,1.8c0.2,1.1,0.7,2,1,2.7
				C344.1,381.1,344.2,381.5,344.1,381.6z"/>
		</g>
	</g>
</g>
<g>
	<g>
		<g>
			<path class="st16" d="M447.4,382.8c0-0.1,0.3-0.2,0.7-0.4c0.5-0.2,1.1-0.6,1.7-1.2c0.6-0.7,1.2-1.6,1.2-2.8
				c0-1.2-0.4-2.6-1.5-3.5l-2.1-1.8l2.7,0.7c1.6,0.4,3.5,0.2,5.2-0.8c0.9-0.5,1.8-1.2,2.4-2c0.6-0.8,1-1.7,1.3-2.6
				c0.4-1.8,0.1-3.6-0.4-4.9c-0.6-1.3-1.3-2.3-1.9-2.8c-0.1-0.1-0.3-0.3-0.4-0.4c-0.1-0.1-0.2-0.2-0.3-0.3c-0.2-0.2-0.2-0.3-0.2-0.3
				c0,0,0.1,0,0.4,0.1c0.1,0,0.2,0.1,0.4,0.2c0.2,0.1,0.3,0.2,0.5,0.3c0.7,0.5,1.7,1.4,2.5,2.8c0.7,1.4,1.2,3.4,0.8,5.6
				c-0.2,1.1-0.7,2.2-1.4,3.1c-0.7,0.9-1.7,1.8-2.8,2.4c-2,1.1-4.3,1.3-6.2,0.8l0.6-1.1c1.4,1.3,1.9,3.1,1.7,4.5
				c-0.1,1.5-1,2.7-1.7,3.3c-0.8,0.7-1.6,1-2.2,1.1C447.7,382.9,447.4,382.9,447.4,382.8z"/>
		</g>
	</g>
</g>
<g>
	<g>
		<g>
			<path class="st16" d="M370.7,287c-0.1-0.1,0.1-0.4,0.6-0.9c0.5-0.5,1.4-1.2,2.6-1.7c1.2-0.5,2.9-0.8,4.7-0.5
				c0.9,0.2,1.9,0.4,2.7,1.2c0.4,0.4,0.8,0.9,1,1.5c0.2,0.6,0.2,1.3-0.1,1.9l-1.3-0.5c0.4-1.2,1.1-2.4,2.1-3.3
				c1.9-1.8,4.6-2.6,6.9-2.3c1.2,0.1,2.2,0.6,3.1,1.1c0.9,0.5,1.6,1.2,2.1,1.8c1.1,1.3,1.5,2.7,1.7,3.6c0.1,0.9,0,1.4,0,1.4
				c-0.1,0-0.2-0.5-0.5-1.3c-0.3-0.8-0.8-2-1.9-3c-1-1.1-2.6-2.1-4.6-2.3c-1.9-0.2-4.1,0.5-5.7,2.1c-0.8,0.8-1.4,1.7-1.8,2.7
				L381,288c0.3-0.5,0-1.4-0.5-1.9c-0.5-0.5-1.3-0.8-2.1-1c-1.5-0.3-3-0.2-4.1,0.2c-1.2,0.3-2,0.8-2.6,1.2
				C371.1,286.9,370.8,287.1,370.7,287z"/>
		</g>
	</g>
</g>
<g>
	<g>
		<g>
			<path class="st16" d="M425.4,285.9c-0.1,0,0.1-0.8,0.1-2.2c0-0.7-0.1-1.5-0.4-2.4c-0.3-0.9-0.8-1.9-1.5-2.9
				c-0.4-0.5-0.8-0.9-1.3-1.3c-0.5-0.4-1.1-0.8-1.7-1c-0.6-0.3-1.3-0.5-2.1-0.5c-0.7-0.1-1.5-0.1-2.3,0c-1.5,0.2-3.1,0.9-4.4,2
				c-0.6,0.6-1.2,1.2-1.5,2c-0.4,0.7-0.6,1.6-0.4,2.3c0.2,0.7,0.7,1.4,1.3,1.5c0.6,0.1,1.3-0.2,1.8-0.7c0.2-0.3,0.4-0.6,0.4-0.9
				c0.1-0.3,0-0.7-0.1-1c-0.2-0.7-0.6-1.3-1.2-1.7c-1.1-0.8-2.7-0.9-4.1-0.7c-1.4,0.3-2.6,0.9-3.5,1.6c-1.9,1.5-2.9,3.3-3.4,4.6
				c-0.5,1.3-0.5,2.1-0.6,2.1c-0.1,0-0.2-0.8,0.1-2.2c0.3-1.4,1.3-3.5,3.3-5.2c1-0.8,2.3-1.6,3.9-2c0.8-0.2,1.6-0.3,2.5-0.2
				c0.9,0.1,1.8,0.4,2.6,0.9c0.8,0.6,1.4,1.4,1.7,2.4c0.1,0.5,0.2,1.1,0.1,1.6c-0.1,0.6-0.4,1.1-0.7,1.5c-0.4,0.4-0.8,0.8-1.3,1
				c-0.5,0.2-1.2,0.3-1.8,0.2c-0.6-0.1-1.2-0.5-1.6-0.9c-0.4-0.5-0.7-1-0.8-1.6c-0.3-1.2,0-2.3,0.5-3.3c0.5-0.9,1.1-1.7,1.9-2.4
				c1.5-1.3,3.3-2,5.1-2.3c0.9-0.1,1.8-0.1,2.6,0c0.8,0.1,1.6,0.4,2.4,0.7c0.7,0.3,1.4,0.8,1.9,1.3c0.6,0.5,1,1,1.4,1.6
				c0.8,1.1,1.2,2.2,1.5,3.3c0.2,1,0.3,1.9,0.2,2.7C425.8,285.2,425.4,285.9,425.4,285.9z"/>
		</g>
	</g>
</g>
<g>
	<g>
		<g>
			<g>
				<g>
					<g>
						<g>
							<g>
								<g>
									<g>
										<g>
											<g>
												<g>
													<g>
														<g>
															<g>
																<polygon class="st12" points="355.8,764.1 343.8,810.5 365.5,814.7 382.3,770.9 																"/>
															</g>
														</g>
													</g>
												</g>
											</g>
										</g>
									</g>
								</g>
							</g>
						</g>
					</g>
				</g>
			</g>
		</g>
	</g>
</g>
<g>
	<g>
		<g>
			<g>
				<g>
					<g>
						<g>
							<g>
								<g>
									<g>
										<g>
											<g>
												<g>
													<g>
														<path class="st20" d="M367.6,810.2c0,0-37.6,22.8-22.7-4.5l-3.1,3.9L326,825c-0.7,0.7-1.3,1.4-1.8,2.3l-6.5,7.6
															c-2.3,2.7-5.2,8.6-2.7,11.2c1.5,1.6,5.3,3,7,3c1.7,0,7.6-1.2,9-2c7.7-4.1,35.7-22,36.3-24.9l1.9-7.6
															C369.6,812.9,369,811.2,367.6,810.2L367.6,810.2z"/>
													</g>
												</g>
											</g>
										</g>
									</g>
								</g>
							</g>
						</g>
					</g>
				</g>
			</g>
		</g>
	</g>
</g>
<g>
	<g>
		<g>
			<g>
				<g>
					<g>
						<g>
							<g>
								<g>
									<g>
										<g>
											<g>
												<g>
													<g>
														<g>
															<g>
																<polygon class="st21" points="394.2,764.3 398,812 377.7,813.1 367,767.4 																"/>
															</g>
														</g>
													</g>
												</g>
											</g>
										</g>
									</g>
								</g>
							</g>
						</g>
					</g>
				</g>
			</g>
		</g>
	</g>
</g>
<g>
	<polygon class="st22" points="334.8,591.9 357.2,736.4 374.4,803.8 400.4,800.2 399.1,597.6 	"/>
</g>
<g>
	<g>
		<path class="st7" d="M388.4,596.8c-2,7-18.2,57.8-18.9,77.8c-0.7,20-15.1,74.9-17,83c-2.5,10.3-7.3,44.4-7.3,44.4l25.7,1.9
			c0,0,33.4-84.5,39-105.6c5.1-19.4,11.4-33.6,15.5-45.3c3.2-9.2,23.7-50.6,23.7-50.6"/>
	</g>
</g>
<g>
	<g>
		<g>
			<g>
				<path class="st23" d="M316.6,547.3c-0.1,0.5-0.1,3.4,2.1,6.9c2.3,3.5,2.9,9.5,2.9,9.5s0.5,12.6,0.5,16.7c0,4.1-0.5,7.7-3.6,6.5
					c-3.1-1.2-3.7-3.7-3.2-11.1l-1.3-4.1l-2.1,2.7l-2,11.7c0,0,6.9,8.8,6,11c-0.9,2.1-2.3,1.5-2.3,1.5l-1.5,1l-11-10.5l-2.2-16.2
					l4.3-19.8l2.3-15.5l13.3,0.2L316.6,547.3z"/>
			</g>
		</g>
		<g>
			<g>
				<path class="st11" d="M371.1,389c0,0-23.7,4.2-28.7,17.5c-4.9,13.2-15.1,54-16.8,59.6c-1.7,5.6-7.2,14.1-12.2,30.7
					c-5.8,19.2-12.3,45.9-12.3,45.9l17.8,3.6c0,0,13-22.2,20.5-39.8c7.4-17.1,10.8-23.5,14.6-32.7c5.7-13.8,7.5-26.2,7.5-26.2
					L371.1,389z"/>
			</g>
		</g>
	</g>
	<g>
		<g>
			<g>
				<g>
					<path class="st1" d="M314,574.6c2.7-1.1-0.3-6.4-2.5-8.5c-0.7-0.7-1.8-1.3-2.7-0.9c-0.8,0.4-1.1,1.4-0.9,2.2
						c0.2,0.8,1.1,1.3,1.6,2c-0.3-0.6-1-0.9-1.5-1.3c-0.5-0.4-1.2-0.6-1.7-0.4c-0.9,0.4-1,1.6-0.8,2.6c0.3,1.9,0.7,2.4,1.5,4.1
						c-0.3-0.6,0,0-0.5-0.5c-0.5-0.5-1.2-0.8-1.8-0.5c-0.6,0.2-1,0.9-1,1.5c-0.1,0.6,0.1,1.3,0.3,1.9c1.2,3.5,3.2,6.7,5.8,9.2
						c1.5-0.9,2.4-2.7,2.2-4.5c1.3-0.4,2.4-1.5,2.8-2.9C315.2,577.2,314.9,575.7,314,574.6"/>
				</g>
			</g>
		</g>
	</g>
	<g>
		<g>
			<g>
				<g>
					<path class="st5" d="M306.6,573.9c0.1-0.2,2.1,1,3.6,3.2c1.6,2.2,2,4.4,1.8,4.5c-0.3,0.1-1.1-1.8-2.6-3.9
						C307.9,575.5,306.4,574.1,306.6,573.9z"/>
				</g>
			</g>
		</g>
	</g>
	<g>
		<g>
			<g>
				<g>
					<path class="st5" d="M308.4,568c0.2-0.2,1.9,0.9,3.6,2.9c1.7,1.9,2.6,3.8,2.3,4c-0.2,0.1-1.5-1.5-3.1-3.3
						C309.6,569.6,308.2,568.2,308.4,568z"/>
				</g>
			</g>
		</g>
	</g>
</g>
<g>
	<path class="st11" d="M363.8,490.2c0,0-21.3,43.1-24.1,57.9c-2.8,14.7-7.1,43.6-7.1,43.6L449,602.5c0,0,6.8-21.9,4.4-64.4
		c-1.2-20.6-8.1-36.3-9.1-39.8c-1-3.5,11.7-62.1,11.7-62.1l0.7-40.8l-11.9-4.6l-22.9-5.4c-3.4,9.3-27.2,10.7-32.9-1.4
		c-0.6-1.3-30,8.1-30,8.1s-0.4,36.2,1.3,57.3C361.9,469.5,363.8,490.2,363.8,490.2z"/>
</g>
<g>
	<path class="st24" d="M365.1,482.5c2.1-0.2,40.7,8,40.7,8v11.6l-49.1,1.9c0,0-3.5-7.1,2.3-15.3
		C364.7,480.5,365.1,482.5,365.1,482.5z"/>
</g>
<g>
	<path class="st24" d="M446.4,483.9c1.4,5.7,1.8,12.4,1.4,20.2l-42-1.9v-11.6L446.4,483.9z"/>
</g>
<path class="st10" d="M575.8,426.4C574,424,575,406,574,401s-5.8-37.1-5.8-37.1s25.1,24.2,25.4,32.1L575.8,426.4z"/>
<g>
	<path class="st24" d="M415.1,496.2c0,5.1-4.1,9.2-9.2,9.2c-5.1,0-9.2-4.1-9.2-9.2c0-5.1,4.1-9.2,9.2-9.2
		C411,487,415.1,491.1,415.1,496.2z"/>
</g>
<g>
	<path class="st24" d="M415.6,556.7c-1.1-9.2-4-18.1-5.9-27.2c-1.9-9.1-2.9-18.6-0.3-27.5l-10.1-0.6c-8.4,11.6-12.9,26-12.7,40.3
		c0.3,16,6.3,31.4,7,47.3c4.6,0.8,11.1,2,15.8,0.8c0,0,0.7-4.5,1.7-6.1C415.9,575.7,416.7,565.9,415.6,556.7z"/>
</g>
<g>
	<path class="st24" d="M442.3,545.3c-4.7-8-10.9-15-16.3-22.5c-5.4-7.5-10.2-15.9-11.4-25.1l-9.4,3.5c-3,14-1.4,29,4.6,42
		c6.7,14.5,18.4,26.2,25.5,40.5c4.6-1.1,11-2.7,14.7-5.6c0,0-1.2-4.4-0.9-6.3C450.3,562.6,447,553.3,442.3,545.3z"/>
</g>
<g>
	<g>
		<path class="st14" d="M438.1,491.9c0,0.6-5.3,1-11.8,2.3c-6.4,1.2-11.6,2.6-11.8,2.1c-0.2-0.5,4.8-2.8,11.4-4
			C432.7,491,438.2,491.4,438.1,491.9z"/>
	</g>
</g>
<g>
	<g>
		<path class="st14" d="M378.6,492.5c0-0.4,4.5-0.8,9.9,0.5c5.4,1.3,9.3,3.7,9.1,4c-0.2,0.4-4.2-1.3-9.5-2.6
			C383,493.2,378.6,492.9,378.6,492.5z"/>
	</g>
</g>
<g>
	<path class="st1" d="M354.7,408.5c0,0,3.2-2.7,1.7-4.2c-1.5-1.6-7.4-2.1-7.4-2.1s6.1-2.1,6.9-5.7c0.7-3.5-0.8-4.7-2-4.2
		c-1.2,0.5-4.5,3.6-7,4.9c-2.4,1.3-6.4,4.7-6.4,4.7s-3.4,2.2-1,5.2c0,0-4.7,3.2-2.5,5.9c0,0-3.9,2.1-2.5,5.2l1,2.1
		c0,0-3.4,1.7-0.2,5.9l6.1-5.1c0,0,5.2,0.4,5.8-1.7c0.6-2.1,0.5-3.5,0.5-3.5s6.4-0.6,7.3-2.8C355.8,410.8,354.7,408.5,354.7,408.5z"
		/>
</g>
<g>
	<g>
		<g>
			<path class="st1" d="M684,402.1c2.3,0.6,14.5,7.4,18.1,18.8c2.9,9.5,7.6,64.7,8,63.7c0,0,10.3,57.7,15.9,82.5c0,0-7.5,8.6-11.6,9
				c-2.1,0.2-24.2-53.2-27.4-72.6c-1-5.8-7.6-16.8-8.6-19.4c-1.5-3.8,0-55.3,0-55.3L684,402.1z"/>
		</g>
	</g>
</g>
<g>
	<path class="st25" d="M646.7,340.4c-8.7-22.4-22.2-29.9-22.2-29.9l-55.1,27.6c-1.4,11.9,2.8,32.4,2.9,44.6c0.1,10.5-2,17-2,17
		l21.9-5.5c0,0-1.4-7.2-0.6-8c0.7-0.8,4.6,6.7,4.6,6.7l55.6-18.6C651.8,374.4,651.8,353.5,646.7,340.4z"/>
</g>
<g>
	<g>
		<path class="st25" d="M624.5,310.6c-10.2-6-21.5-7.4-32.7-3.4c-6.3,2.2-8.4,4.5-12.5,7.4c-4.1,2.9-7.2,6.8-8.5,11.7
			c-1.5,5.7-2.3,11.8-0.8,17.6c1.5,5.9,4,11.3,6.8,15.5c3.4,5.1,10.4,12.1,15.4,15.5l10.1-2.4c8.1-2.7,16.3-5.5,23.4-10.2
			c7.1-4.7,13.1-11.7,14.7-20.1C642.7,330.3,634.8,316.5,624.5,310.6z"/>
	</g>
</g>
<g>
	<g>
		<path class="st1" d="M611.6,315.3l-22.2-0.5l-4.8,2.5c-11.3,4.3-14.5,19.7-11.1,28.9c3.7,10.2,8.7,22.6,13.1,29.5
			c8.9,13.9,22.3,10.3,22.3,10.3s1.1,3.2,2.4,7.2c2.8,8.5,12.1,12.9,20.5,9.8l0,0c8.1-3,12.2-11.9,9.4-20l-22.6-64.5
			C617.5,315.8,614.4,314.4,611.6,315.3z"/>
	</g>
</g>
<g>
	<g>
		<g>
			<g>
				<g>
					<g>
						<g>
							<g>
								<g>
									<g>
										<g>
											<g>
												<g>
													<g>
														<g>
															<g>
																<g>
																	<g>
																		<g>
																			<g>
																				<path class="st26" d="M585.3,355.6c0.4,1,1.6,1.5,2.7,1.1c1.1-0.4,1.6-1.6,1.2-2.6c-0.4-1-1.6-1.5-2.7-1.1
																					C585.5,353.4,584.9,354.6,585.3,355.6z"/>
																			</g>
																		</g>
																	</g>
																</g>
															</g>
														</g>
													</g>
												</g>
											</g>
										</g>
									</g>
								</g>
							</g>
						</g>
					</g>
				</g>
			</g>
		</g>
	</g>
</g>
<g class="st4">
	<g>
		<g>
			<g>
				<g>
					<g>
						<g>
							<g>
								<g>
									<g>
										<g>
											<g>
												<g>
													<g>
														<g>
															<g>
																<g>
																	<g>
																		<g>
																			<g>
																				<path class="st5" d="M600.6,363.4c0-0.1-1.4,0.2-3.6,0.9c-0.6,0.2-1.1,0.3-1.3,0c-0.3-0.3-0.3-1-0.3-1.7
																					c-0.1-1.5-0.1-3.1-0.2-4.7c-0.3-6.7-0.8-12-1.1-12c-0.3,0-0.2,5.4,0.1,12.1c0.1,1.6,0.2,3.2,0.3,4.7
																					c0.1,0.7,0,1.5,0.6,2.2c0.3,0.3,0.8,0.4,1.2,0.4c0.4,0,0.7-0.2,0.9-0.3C599.3,364.1,600.6,363.6,600.6,363.4z"
																					/>
																			</g>
																		</g>
																	</g>
																</g>
															</g>
														</g>
													</g>
												</g>
											</g>
										</g>
									</g>
								</g>
							</g>
						</g>
					</g>
				</g>
			</g>
		</g>
	</g>
</g>
<g class="st4">
	<g>
		<g>
			<g>
				<g>
					<g>
						<g>
							<g>
								<g>
									<g>
										<g>
											<g>
												<g>
													<g>
														<g>
															<g>
																<g>
																	<g>
																		<g>
																			<path class="st5" d="M608.9,386c0,0,10.3-3.7,17.7-14.1c0,0,0,15.8-15.6,20.9L608.9,386z"/>
																		</g>
																	</g>
																</g>
															</g>
														</g>
													</g>
												</g>
											</g>
										</g>
									</g>
								</g>
							</g>
						</g>
					</g>
				</g>
			</g>
		</g>
	</g>
</g>
<g>
	<g>
		<g>
			<g>
				<g>
					<g>
						<g>
							<g>
								<g>
									<g>
										<g>
											<g>
												<g>
													<g>
														<g>
															<g>
																<g>
																	<g>
																		<g>
																			<g>
																				<path class="st26" d="M608.3,346c0.4,1-0.1,2.2-1.1,2.7c-1,0.5-2.3,0-2.7-1c-0.4-1,0.1-2.2,1.1-2.7
																					C606.7,344.5,607.9,345,608.3,346z"/>
																			</g>
																		</g>
																	</g>
																</g>
															</g>
														</g>
													</g>
												</g>
											</g>
										</g>
									</g>
								</g>
							</g>
						</g>
					</g>
				</g>
			</g>
		</g>
	</g>
</g>
<g>
	<g>
		<g>
			<g>
				<g>
					<g>
						<g>
							<g>
								<g>
									<g>
										<g>
											<g>
												<g>
													<g>
														<g>
															<g>
																<g>
																	<g>
																		<g>
																			<g>
																				<g>
																					<path class="st26" d="M609.1,344.4c0,0.3-1.6,0.2-2.8,1.2c-1.3,1-1.5,2.6-1.8,2.5c-0.1,0-0.3-0.5-0.2-1.2
																						c0.1-0.7,0.5-1.6,1.2-2.2c0.8-0.6,1.7-0.8,2.4-0.8C608.7,344.1,609.1,344.3,609.1,344.4z"/>
																				</g>
																			</g>
																		</g>
																	</g>
																</g>
															</g>
														</g>
													</g>
												</g>
											</g>
										</g>
									</g>
								</g>
							</g>
						</g>
					</g>
				</g>
			</g>
		</g>
	</g>
</g>
<g>
	<g>
		<g>
			<g>
				<g>
					<g>
						<g>
							<g>
								<g>
									<g>
										<g>
											<g>
												<g>
													<g>
														<g>
															<g>
																<g>
																	<g>
																		<g>
																			<g>
																				<g>
																					<path class="st26" d="M583.1,354.4c0.2,0.3,1.4-0.8,3-0.7c1.6,0.1,2.7,1.2,2.9,0.9c0.1-0.1-0.1-0.6-0.5-1.1
																						c-0.5-0.5-1.3-1-2.3-1.1c-1,0-1.9,0.4-2.4,0.8C583.3,353.8,583.1,354.3,583.1,354.4z"/>
																				</g>
																			</g>
																		</g>
																	</g>
																</g>
															</g>
														</g>
													</g>
												</g>
											</g>
										</g>
									</g>
								</g>
							</g>
						</g>
					</g>
				</g>
			</g>
		</g>
	</g>
</g>
<g>
	<g>
		<g>
			<g>
				<g>
					<g>
						<g>
							<g>
								<g>
									<g>
										<g>
											<g>
												<g>
													<g>
														<g>
															<g>
																<g>
																	<g>
																		<g>
																			<path class="st1" d="M625.6,345.2c-0.5-1.1-0.3-4.3,0.7-5c2.7-1.7,6.5-3.7,8.8,4.1c3.3,10.9-4,12.1-4.1,11.8
																				C630.8,355.9,627.3,349,625.6,345.2z"/>
																		</g>
																	</g>
																</g>
															</g>
														</g>
													</g>
												</g>
											</g>
										</g>
									</g>
								</g>
							</g>
						</g>
					</g>
				</g>
			</g>
		</g>
	</g>
</g>
<g>
	<g>
		<g>
			<path class="st25" d="M626.7,340.1l-1.6,3.7c-15.5-6.7-48-25.7-46.1-24.5c0,0,6.6-6.1,15.6-7.9c9-1.7,26.7-3.5,30.2,6.6
				C628.3,328.1,626.7,340.1,626.7,340.1z"/>
		</g>
	</g>
</g>
<g>
	<g>
		<g>
			<path class="st24" d="M686.9,418.3c0.3,1.3-8.8,47.1-8.8,47.1l2.3,24.3c0,0,3,7.3,2.1,11.8c-2.6,7.4-22.2,15.4-49.8,17.8
				C609,520,598,508,598,508c-1.1-15.3-3-97-8-110.8l20.6-5.4c3.6,12,24.1,6.6,24.1,6.6c1.8-1.4,6.6-12.2,6.6-12.2l28.4,0.4
				L686.9,418.3z"/>
		</g>
	</g>
	<g>
		<g>
			<path class="st24" d="M663.4,386c16.7,2.2,36.1,6.7,42.2,50.6c0.1,0.8-27.6,11.2-27.6,11.2s-4.8-24.3-5-25
				C672.7,422,663.4,386,663.4,386z"/>
		</g>
	</g>
	<g>
		<path class="st24" d="M590.9,397.2c0,0-11.8,2.9-14.1,13.2c-2.1,9.6,0.3,30.8,0.3,30.8l-0.1,17.4c0,0,21.9-12.7,20.9-13.7
			c-1-0.9-7.1-46.3-7.1-46.3"/>
	</g>
</g>
<g>
	<g>
		<g>
			<path class="st27" d="M702,653c2.8-58.9,20.3-97.3-17.5-153.4c0,0-65.4,16.5-87.1-1.9c0,0-7.5,21.6-9.8,37.3
				c-1.3,8.8-4.1,33.1-4.1,33.1s-8.3,83.7-13,113.3c-0.7,4.3-0.5,8.7,0.6,12.9l18,106.9l43.1,1.3l-11.7-111.2l26-100l2.3,0.2
				l6.4,206.5l40.9,0.6L702,653z"/>
		</g>
	</g>
	<g>
		<path class="st27" d="M603.4,502c-0.5-0.8-8.4-75.2,0.6-75.7c9-0.5,67.2-12.3,69-3.6c1.8,8.8,4.8,102.8,4.8,102.8l-35.3,30.1
			l-39-51.3"/>
	</g>
	<g>
		<path class="st27" d="M666.3,386c-4.3-1.5-8.7-1.4-13.3,0.3c0,0,1.3,31.4,4.3,34.8c3,3.5,11.4,0,11.4,0L666.3,386z"/>
	</g>
	<g>
		<path class="st27" d="M608.4,393.3c-4.5-0.7-8.8,0.2-13,2.7c0,0,6.8,30.6,10.4,33.5c3.6,2.9,11.2-2,11.2-2L608.4,393.3z"/>
	</g>
	<g>
		<path class="st15" d="M611.5,427c1,0,2,0.9,2,1.9c0,1-0.9,2-1.9,2c-1,0-2-0.9-2-1.9C609.6,428,610.5,427,611.5,427"/>
	</g>
	<g>
		<path class="st15" d="M663.6,419.2c1,0,2,0.9,2,1.9c0,1-0.9,2-1.9,2c-1,0-2-0.9-2-1.9C661.6,420.1,662.5,419.2,663.6,419.2"/>
	</g>
	<path class="st15" d="M616,451.8c2-3.9,40.4-5.9,40.4-5.9s5.9,28.7,2,33.2s-33.2,4.6-37.8,3.3C616,481.1,616,451.8,616,451.8z"/>
	<path class="st15" d="M588,532.6c0,0,7.6-0.9,15.4-30.6l-6.1-4.3C597.3,497.7,587.7,527.1,588,532.6z"/>
	<path class="st15" d="M676.6,502.3c0,0,17.9,26.1,22.8,26.7c0,0-5.5-16.7-15-29.4L676.6,502.3z"/>
</g>
<g>
	<path class="st2" d="M846.2,370.7c-0.7-2.1-2.7-3.5-4.7-4.5c-5.7-2.9-12.2-4.1-18.6-4.8c-13.2-1.5-26.7-1.4-39.9,0.5
		c-5.8,0.8-11.7,2-17,4.5c-1.8,0.8-3.5,1.8-4.7,3.3c-1.2,1.5-1.9,3.6-1.3,5.4c0.6,1.8,2.7,3.2,4.5,2.6l72.9,2.9
		c2.3-0.8,4.7-1.7,6.5-3.3C845.8,375.6,846.9,373,846.2,370.7z"/>
</g>
<g>
	<path class="st28" d="M752.2,296.6c-1.6-1.5-1.9-4.4-0.4-6c1.1-3.7,5.3-6.3,9.1-5.5c1.3-2.5,4.1-4.1,6.9-4
		c-0.8-0.1-1.6-0.2-2.4-0.3c0-0.8,0.1-1.6,0.1-2.4c-2,0.6-4.1-1.5-3.7-3.5c-1.6-0.4-2.6-2.2-2.2-3.7c1.8-1.6,4.5-2,6.7-1.1
		c3.2,0,6.4,0.8,9.2,2.4c0.4-0.7,0.7-1.4,1.1-2.2c-1.1-2.7-1.2-5.8-0.5-8.6c0.3-1.3,1-2.7,2.3-3.2c1.3-0.4,3,1,2.3,2.1
		c1.5-1,3.8-0.3,4.5,1.4c2.1-0.4,3.9,2.4,2.7,4.1c1.4-0.9,3.3,0.5,3.6,2.1c0.2,1,0,2.1-0.3,3.1c0.7-0.6,1.6-0.9,2.5-0.5
		c-0.2-2,2.3-3.6,4-2.6c1.6-2.8,4.4-4.8,7.4-5.6c-0.9-0.4-0.7-1.9,0.1-2.4c0.9-0.5,2-0.1,2.7,0.6c0.7,0.7,1,1.6,1.4,2.5
		c0.7,1.9,1.4,3.8,1.2,5.8c-0.2,2-1.6,3.9-3.6,4.1c2.1,2.7,0.1,7.4-3.3,7.7l-32,22c-2.1,1.9-4.2,3.8-6.3,5.7
		c-1.8,1.6-3.7,3.3-6.1,3.8c-2.4,0.5-5.3-0.7-5.7-3.1c-0.3-1.7,0.7-3.4,1.7-4.8c2.6-3.5,5.9-6.5,9.5-8.9c-1.9,1.1-3.9,2.1-6.1,2.5
		C756.2,298.5,753.8,298.1,752.2,296.6z"/>
</g>
<g>
	<path class="st28" d="M765.6,297.3c-1-0.9-2.5-1-3.6-0.4c-1.1,0.7-1.7,2.1-1.4,3.3c-0.6-0.5-1.5-0.6-2.2-0.2
		c-0.7,0.4-1.1,1.3-0.9,2c-0.5-0.3-1.2-0.2-1.6,0.3c-0.4,0.5-0.3,1.2,0.1,1.6c-0.5-0.1-1.1,0.1-1.4,0.5s-0.2,1.1,0.1,1.5
		c-0.6,0.2-1,0.8-1,1.4c0,0.6,0.5,1.2,1,1.3c-0.5,0.3-0.6,1-0.4,1.4c0.3,0.5,0.9,0.7,1.4,0.4c-0.3,0.7-0.4,1.5,0.1,2.1
		c0.5,0.5,1.7,0.2,1.5-0.5c-0.1,0.4,0.4,0.8,0.8,0.9c0.4,0.1,0.9,0,1.3-0.2c1.2-0.4,2.5-0.7,3.8-1.1c2.2-0.4,4.3-1.6,5.9-3.2
		L765.6,297.3z"/>
</g>
<g>
	<path class="st23" d="M764.5,342.9c-0.1-8.1,0.2-21.4,1.4-36.6c1.3-16.3,14.8-28.8,31-28.8l1.6,0c17.4,1,22.9,17.1,21.4,34.5
		l0.2,69.9c-13,6.2-26.1,6.6-39.4,1.1l-0.4-20.1C780.3,362.9,764.7,359.7,764.5,342.9z"/>
</g>
<g>
	<g>
		<g>
			<g>
				<g>
					<g>
						<g>
							<g>
								<g>
									<g>
										<g>
											<g>
												<g>
													<g>
														<path class="st29" d="M780.3,362.9c0,0,18.5,0.6,29.6-13.7c0,0-4.9,23.8-29.5,19.6L780.3,362.9z"/>
													</g>
												</g>
											</g>
										</g>
									</g>
								</g>
							</g>
						</g>
					</g>
				</g>
			</g>
		</g>
	</g>
</g>
<g>
	<g>
		<g>
			<g>
				<g>
					<g>
						<g>
							<g>
								<g>
									<g>
										<g>
											<g>
												<g>
													<g>
														<g>
															<g>
																<g>
																	<path class="st28" d="M772.7,321.8c0,1.3,1,2.3,2.3,2.4c1.3,0.1,2.4-0.9,2.5-2.2c0-1.3-1-2.3-2.3-2.4
																		C773.8,319.5,772.7,320.5,772.7,321.8z"/>
																</g>
															</g>
														</g>
													</g>
												</g>
											</g>
										</g>
									</g>
								</g>
							</g>
						</g>
					</g>
				</g>
			</g>
		</g>
	</g>
</g>
<g>
	<g>
		<g>
			<g>
				<g>
					<g>
						<g>
							<g>
								<g>
									<g>
										<g>
											<g>
												<g>
													<g>
														<g>
															<g>
																<g>
																	<path class="st28" d="M795.3,321.4c0,1.3,1,2.3,2.3,2.4c1.3,0.1,2.4-0.9,2.5-2.2c0-1.3-1-2.3-2.3-2.4
																		C796.4,319.2,795.3,320.2,795.3,321.4z"/>
																</g>
															</g>
														</g>
													</g>
												</g>
											</g>
										</g>
									</g>
								</g>
							</g>
						</g>
					</g>
				</g>
			</g>
		</g>
	</g>
</g>
<g>
	<g>
		<g>
			<g>
				<g>
					<g>
						<g>
							<g>
								<g>
									<g>
										<g>
											<g>
												<g>
													<g>
														<g>
															<g>
																<g>
																	<path class="st29" d="M785.4,334.1c0-0.1-1.6-0.4-4.2-0.8c-0.7-0.1-1.3-0.2-1.4-0.6c-0.2-0.5,0.1-1.2,0.4-2
																		c0.6-1.6,1.3-3.3,1.9-5c2.7-7.1,4.6-13,4.3-13.1c-0.3-0.1-2.7,5.6-5.4,12.8c-0.6,1.8-1.3,3.4-1.8,5.1
																		c-0.2,0.7-0.7,1.6-0.3,2.6c0.2,0.5,0.7,0.8,1.1,1c0.4,0.1,0.8,0.1,1.1,0.2C783.8,334.3,785.4,334.3,785.4,334.1z"
																		/>
																</g>
															</g>
														</g>
													</g>
												</g>
											</g>
										</g>
									</g>
								</g>
							</g>
						</g>
					</g>
				</g>
			</g>
		</g>
	</g>
</g>
<g>
	<g>
		<g>
			<g>
				<g>
					<g>
						<g>
							<g>
								<g>
									<g>
										<g>
											<g>
												<g>
													<path class="st28" d="M768.7,313c0.7,0.6,3.5-0.1,6.8-0.3c3.3-0.2,6.2,0.2,6.8-0.4c0.3-0.3-0.2-0.9-1.4-1.4
														c-1.2-0.5-3.3-0.9-5.6-0.8c-2.3,0.1-4.3,0.7-5.4,1.4C768.8,312.1,768.4,312.7,768.7,313z"/>
												</g>
											</g>
										</g>
									</g>
								</g>
							</g>
						</g>
					</g>
				</g>
			</g>
		</g>
	</g>
</g>
<g>
	<g>
		<g>
			<g>
				<g>
					<g>
						<g>
							<g>
								<g>
									<g>
										<g>
											<g>
												<g>
													<path class="st28" d="M805.4,313c-0.7,0.6-3.5-0.1-6.8-0.3c-3.3-0.2-6.2,0.2-6.8-0.4c-0.3-0.3,0.2-0.9,1.4-1.4
														c1.2-0.5,3.3-0.9,5.6-0.8c2.3,0.1,4.3,0.7,5.4,1.4C805.3,312.1,805.7,312.7,805.4,313z"/>
												</g>
											</g>
										</g>
									</g>
								</g>
							</g>
						</g>
					</g>
				</g>
			</g>
		</g>
	</g>
</g>
<g>
	<g>
		<g>
			<g>
				<g>
					<g>
						<g>
							<g>
								<g>
									<g>
										<g>
											<g>
												<path class="st28" d="M767.5,298.6c0,0,4.4-10.5,9.4-13c6.1-3,8.7,3.8,14.6,2.1c5.8-1.6,11.6-4.5,17.6,0
													c6.5,4.9,3.5,8.4,3.9,15.9c1.7,30.2,7.2,38.7,8.7,24.5c0.2-1.6,4.5-2.8,5.1-9.4c0.8-8.5,1.1-18.9-0.8-25
													c-1.6-5.1-4.5-8.6-9.7-12.5c-8.2-6.1-19.5-6.3-27.1-5.5C781.5,276.6,766.8,285.4,767.5,298.6z"/>
											</g>
										</g>
									</g>
								</g>
							</g>
						</g>
					</g>
				</g>
			</g>
		</g>
	</g>
</g>
<g>
	<g>
		<g>
			<g>
				<g>
					<g>
						<g>
							<g>
								<g>
									<g>
										<g>
											<g>
												<path class="st23" d="M818.5,327.7c0.1-2.6,2.3-4.6,4.9-4.4c3.1,0.3,5.4,1.1,2.8,9.3c-3.5,10.9-8.1,8-8.2,7.7
													C818,340,818.3,332.5,818.5,327.7z"/>
											</g>
										</g>
									</g>
								</g>
							</g>
						</g>
					</g>
				</g>
			</g>
		</g>
	</g>
</g>
<g>
	<path class="st28" d="M775.8,278.6c1-1.3,2.8-1.9,4.3-1.3l23.4-0.2c0.4-1.9,1.9-3.5,3.9-3.9c1.9-0.4,4,0.4,5.1,2
		c0.9-1.4,2.7-2.1,4.3-1.9c1.6,0.3,3,1.6,3.4,3.2c1.7-1.4,4.1-1.8,6.2-1c2,0.8,3.6,2.7,4,4.8c2.3-0.5,4.8-1.1,6.9,0.1
		c2,1.1,2.6,4.7,0.5,5.6c0.7,0.9,0.5,2.3-0.3,3c-0.8,0.8-2.2,0.8-3.1,0.1c0.9,1.5-0.7,3.8-2.4,3.5c2.1,1,3.7,2.8,4.6,4.9
		c0.7,1.6,0.8,3.7-0.3,5c-1.1,1.4-3.8,1.3-4.3-0.4c-0.4,1.3-1.9,2.2-3.2,2.1c-1.4-0.2-2.5-1.4-2.6-2.8c-1.5,1.9-5,1.3-5.8-1
		c-1.7,1.3-4.4,0.5-5.4-1.3c0.4,1.4,0.2,3-0.8,4.1c-1.1,1.3-3.1,1.9-4.7,1.3c-0.2,2.2-1.6,4.2-3.6,5.2c-1.6-0.6-3.2-1.3-4.2-2.7
		c-0.9-1.4-0.5-3.8,1.1-4.2c-1.4-1.5-1.5-4.1-0.2-5.7c-1.7,0.8-4-1.4-3.2-3.1c-0.6,2.9-3.9,4.9-6.7,4.1c-1.6,1.7-4.7,1.8-6.4,0.1
		c-1.7-1.6-1.7-4.7-0.1-6.4c-0.9-1.8,0.3-4.2,2.3-4.6c-1.4,0.6-3.2-0.4-3.4-1.8c-3.4,0.5-7.7,0.6-9.5-2.4
		C774.8,281.7,774.8,279.9,775.8,278.6z"/>
</g>
<g>
	<path class="st28" d="M748.5,292.7c0.2-0.4,0.6-0.7,1.1-0.7c-0.1-0.1-0.1-0.3-0.1-0.4c0.1-0.3,0.4-0.5,0.8-0.6
		c0.9-0.4,1.8-0.6,2.8-0.7c0.4-0.8,1.1-1.4,1.9-1.7c-0.2-0.1-0.3-0.3-0.5-0.4c0.1-0.6,0.7-1.1,1.3-1.3l9.7,6.4
		c-0.3,0.9-0.7,2-1.6,2.5c-0.7,0.4-1.9,0.1-2.2-0.6c0.1,0.8-0.3,1.6-1,2c-0.8,0.4-1.9,0.1-2.4-0.6c0.3,0.7-0.1,1.7-0.9,1.8
		c-0.8,0.2-1.6-0.5-1.6-1.3c-0.1,0.6-0.7,1.1-1.3,1c-0.6-0.1-1.1-0.7-1-1.3c-0.3,0.5-1.1,0.7-1.6,0.4c-0.5-0.3-0.7-1.1-0.4-1.6
		c-0.9,0.3-2-0.5-2-1.5C748.7,294.1,748.3,293.3,748.5,292.7z"/>
</g>
<g>
	<path class="st28" d="M776.3,288.9c-1.2-0.1-2.1-1.4-1.8-2.5c-0.9-0.7-1.3-1.9-1.2-3c0.1-1.1,0.9-2.1,1.9-2.6l11.5,3.5
		c0.3,0.9,0,1.9-0.6,2.6c-0.7,0.7-1.7,0.9-2.6,0.7c0.2,0.8-0.1,1.8-0.8,2.3c-0.6,0.6-1.6,0.8-2.4,0.5c0.6,1.4-0.1,3.3-1.6,3.9
		c-1.4,0.6-3.3-0.1-3.9-1.5C774.2,291.4,774.9,289.5,776.3,288.9z"/>
</g>
<polygon class="st11" points="747,798.8 747,805.6 764.9,805.3 764.9,798.1 "/>
<polygon class="st11" points="822.9,798.8 823.6,811.2 842.1,809.5 844.4,798.1 "/>
<g>
	<path class="st7" d="M741.5,571.3c0,0-4.1,109.1-4.1,115.9c0,7.9-0.5,29.1-0.4,38.5c0.2,9.5,4.5,58.9,4.5,58.9l1.3,17.5h31.5
		c0,0,10.2-114.2,10.9-123.6c0.7-9.5,13.6-99.6,14.3-97.4c0.7,2.2,14.6,90.2,15.2,99.6c0.6,9.5,0,121.4,0,121.4H850
		c0,0,6.6-71.1,8.7-104c1.9-30.5,9-93.8,9-93.8v-46.6l-70.2-7.2L741.5,571.3z"/>
</g>
<g>
	<g>
		<path class="st23" d="M723.2,550c-0.1,0.5,0.4,3.4,3.1,6.5c2.7,3.1,4.2,8.9,4.2,8.9s2.3,12.4,2.9,16.4c0.6,4,0.6,7.7-2.6,7
			c-3.2-0.7-4.2-3.2-4.8-10.5l-1.9-3.9l-1.7,3l-0.3,11.9c0,0,8.1,7.7,7.5,10c-0.6,2.2-2.1,1.9-2.1,1.9l-1.3,1.2l-12.4-8.8l-4.6-15.7
			l1.3-20.2l0-15.7l13.2-1.7L723.2,550z"/>
	</g>
</g>
<g>
	<g>
		<path class="st2" d="M754.2,379.3c0,0-21.3,2-29.9,30.1c-4.1,13.5-5,47.2-5.8,53c-0.9,5.8-3.1,21-5.7,38.1
			c-2.9,19.9-5.5,47.2-5.5,47.2l2.6,8l14.8-1.7l0.8-5.2c0,0,9.6-23.9,14.5-42.3c4.8-18,7.3-24.8,9.7-34.5c3.6-14.5,3.7-27,3.7-27
			L754.2,379.3z"/>
	</g>
</g>
<g>
	<g>
		<g>
			<g>
				<path class="st1" d="M724.6,577.5c2.5-1.5-1.3-6.3-3.8-8.1c-0.8-0.6-2-1-2.8-0.5c-0.7,0.5-0.9,1.5-0.6,2.3
					c0.3,0.8,1.3,1.1,1.9,1.7c-0.4-0.5-1.1-0.7-1.6-1.1c-0.5-0.3-1.2-0.4-1.8-0.1c-0.8,0.5-0.8,1.7-0.5,2.7c0.6,1.8,1,2.2,2.1,3.8
					c-0.3-0.6,0,0-0.5-0.4c-0.5-0.4-1.3-0.6-1.9-0.3c-0.6,0.3-0.8,1-0.8,1.6c0,0.6,0.3,1.2,0.6,1.8c1.7,3.3,4.1,6.1,7.1,8.3
					c1.3-1.1,2-3.1,1.5-4.8c1.2-0.6,2.2-1.9,2.4-3.3C726.1,579.9,725.6,578.4,724.6,577.5"/>
			</g>
		</g>
	</g>
</g>
<g>
	<g>
		<g>
			<g>
				<path class="st5" d="M717.1,577.9c0.1-0.2,2.2,0.7,4.1,2.6c1.9,2,2.7,4.1,2.4,4.2c-0.3,0.1-1.4-1.7-3.1-3.5
					C718.7,579.3,717,578.1,717.1,577.9z"/>
			</g>
		</g>
	</g>
</g>
<g>
	<g>
		<g>
			<g>
				<path class="st5" d="M718.1,571.7c0.1-0.2,2,0.6,4,2.3c1.9,1.7,3.1,3.4,2.9,3.6c-0.2,0.2-1.7-1.2-3.5-2.8
					C719.6,573.2,718,572,718.1,571.7z"/>
			</g>
		</g>
	</g>
</g>
<g>
	<g>
		<g>
			<path class="st23" d="M880.8,561.1c0.1,0.5-0.6,3.4-3.5,6.5c-3,3.1-4.8,9-4.8,9s-3,12.6-3.8,16.7c-0.8,4.1-1,7.9,2.3,7.3
				c3.3-0.6,4.4-3,5.4-10.6l2.1-3.9l1.6,3.2l-0.3,12.2c0,0-8.7,7.6-8.2,9.9c0.5,2.3,2.1,2,2.1,2l1.3,1.3l13.1-8.5l5.4-15.9
				l-0.4-20.8l0.8-16.1l-13.5-2.4L880.8,561.1z"/>
		</g>
	</g>
	<g>
		<g>
			<path class="st2" d="M857.2,381.3c0,0,21.8,6,29.3,35.3c3.6,14.1,2.8,48.8,3.5,54.7c0.6,6,2.2,21.7,4,39.5
				c2.1,20.6,3.4,48.7,3.4,48.7l-3,8.1l-15.1-2.5l-0.6-5.4c0,0-8.7-25-12.9-44.2c-4.1-18.7-6.3-25.8-8.3-35.9
				c-3-15-2.5-27.9-2.5-27.9L857.2,381.3z"/>
		</g>
	</g>
</g>
<g>
	<path class="st11" d="M781.3,374l-32.4,7.3l6.4,108.3l-14.8,82.3c2,7.9,43.5,8.4,66.8,7.7c22.1-0.6,58.3-9.8,60.9-13.9
		c2.6-4.1-11.1-92.6-11.1-92.6v-91.8l-35.7-8.1C821.5,373.2,801.3,385.3,781.3,374z"/>
</g>
<g>
	<path class="st2" d="M741.6,558.7c0,0,60.5,3.3,75.7,2.2c24-1.7,51.3-10.4,51.3-10.4v-8.4c0,0,10.6-8.7,3.2-13.2
		c-3.2-1.9-3.1-10.8-4.1-16.6c-3.6-20.7-5.1-58.4-5.1-58.4l-5.4-72.6l-15.8-5.2l-19.1-6.9l-20.2,18.1c0,0-16.7-14.4-23.2-18.1
		l-30.5,12.1l-3.5,100.2c0,0-2.5,19.8-4.2,33.3c-0.9,7.2-4.6,12.7-4.6,18.4c0,7.2,7.2,13.8,7.2,13.8L741.6,558.7z"/>
</g>
<g>
	<g>
		<path class="st2" d="M748.5,381.3c-1.5,0.5-20.8,7.1-25.1,40.5c-2.6,19.9-1.1,41.8-1.1,41.8l33.9-2.8L748.5,381.3z"/>
	</g>
</g>
<path class="st12" d="M345,806c0,0-4,4-5,12s18,0,19-1s7.7-5.6,7.7-5.6l1.2-3L345,806z"/>
<path class="st20" d="M375,814c0,0-1,10,7,21s16,16,20,15s6-3,4-23s-7.3-19.7-7.3-19.7S378,809,375,814z"/>
<path class="st21" d="M377.2,812c0,0,5.8,11,12.8,11c6,0,6-1,7-2s2-10.5,0.4-13.6C393,799,377.2,812,377.2,812z"/>
<path class="st14" d="M405,505c0,0,2,19,5,24s5.1,23.6,5.1,23.6l2,3.3c0,0-2.1-19.9-4.1-23.9C413,532,404,507,405,505z"/>
<path class="st14" d="M397,496c0,0-2.3,8.8,8.9,9.4C417,506,415,496,415,496s-2.5,6.4-9.2,6.2C399,502,397,496,397,496z"/>
<path class="st14" d="M402,496c0,0,8,1,9-2C411,494,403,494,402,496z"/>
<path class="st10" d="M575.2,469.7c0,0,0.1,2.5,1,3.9l-0.1,3.9l-2-0.1C574.2,477.5,573.4,470.5,575.2,469.7z"/>
<path class="st10" d="M576,484.8l0-0.2c0,0-12.2-2-12.3-2.2c-0.1-0.2-1.2-1.2-1.4-2.3c0,0-0.6,2.2,0.6,3.1c1.2,0.9,5.4,2.3,5.4,2.3
	S575.8,484.8,576,484.8z"/>
<path class="st10" d="M565,491.7c0,0-3.8-0.7-4.1-1.4c-0.3-0.8-0.5-0.2-0.5-0.1c0.1,0.1,0.4,2.3,2.6,2.4
	C565.3,492.7,565,491.7,565,491.7z"/>
<path class="st10" d="M564,495c0,0,0,1.4,1.8,1.9s4.6,0.6,5.1,0.6c0.4,0,5.1-0.4,5.1-0.4l0,0.9c0,0-6.8,0.5-8,0.4
	c-1.2-0.2-3.9-1-4.1-1.9C563.6,495.6,564,495,564,495z"/>
<path class="st10" d="M571.3,501.3c0,0,0.7,1.1,2.5,1.2c1.8,0,2.1,0.1,2.1,0.1l0,1.2c0,0-2.2,0-2.9-0.3
	C572.3,503.1,571.4,502.6,571.3,501.3z"/>
<path class="st15" d="M436.5,803.7c9.8-4.2,21.5,2.6,21.8,8.8c0,0-4.6-9.4,6.8-7.8c11.4,1.6,11.1-2.3,12.7-1.3
	c1.6,1-3.6,10.1-4.2,16s2.6,7.8,1.6,10.8c-1,2.9-3.6,6.5-9.1,7.5s-21.5,0-27.4,0c-5.9,0-16.3,1-20.2,0c-3.9-1-9.4-1.3-9.1-8.5
	c0.3-6.2,12.4-8.8,17.9-8.5s16.9-1.3,17.9-3.9C446.3,814.1,436.5,803.7,436.5,803.7z"/>
<path class="st0" d="M457.4,809.5c0,0,2.3,13-19.2,13.4C438.1,822.9,452.8,820.9,457.4,809.5z"/>
<circle class="st0" cx="459.3" cy="825.5" r="4.6"/>
<g>
	<g>
		<path class="st30" d="M444.3,812.6c1.8,0.6,3.7,0.7,5.5,0.9c0,0,0.3,0,0.2,0c-0.1,0,0.3,0,0.3,0c0.2,0,0.4,0.1,0.7,0.1
			c0.4,0.1,0.9,0.2,1.3,0.3c0.2,0.1,0.4,0.1,0.6,0.2c0.1,0,0.2,0.1,0.3,0.1c-0.2-0.1,0,0,0.1,0c0.2,0.1,0.4,0.2,0.5,0.3
			c0.1,0,0.2,0.1,0.2,0.1c0.4,0.2-0.2-0.2,0.1,0.1c0.6,0.5,1.5,0.6,2.1,0c0.5-0.5,0.6-1.6,0-2.1c-1.6-1.3-3.5-1.8-5.5-2.1
			c-1-0.1-2.1-0.2-3.1-0.4c0,0-0.4-0.1-0.1,0c-0.1,0-0.2,0-0.3,0c-0.2,0-0.5-0.1-0.7-0.1c-0.4-0.1-0.9-0.2-1.3-0.3
			c-0.8-0.2-1.6,0.3-1.8,1C443,811.6,443.5,812.4,444.3,812.6L444.3,812.6z"/>
	</g>
</g>
<g>
	<g>
		<path class="st30" d="M443.9,819.6c0.1,0.1,0.3,0.2,0.4,0.3C444.2,819.8,444.1,819.8,443.9,819.6c0.8,0.6,1.5,1.3,2,2
			c-0.1-0.1-0.2-0.2-0.2-0.3c0.1,0.1,0.2,0.2,0.3,0.4c0.1,0.2,0.2,0.3,0.4,0.4c0.1,0.1,0.3,0.2,0.5,0.3c0.4,0.1,0.8,0.1,1.2-0.2
			c0.3-0.2,0.6-0.5,0.7-0.9c0.1-0.4,0.1-0.8-0.2-1.2c-0.4-0.6-0.9-1.2-1.4-1.7c-0.5-0.5-1.1-1-1.7-1.4c-0.3-0.2-0.8-0.2-1.2-0.2
			c-0.3,0.1-0.7,0.4-0.9,0.7c-0.2,0.3-0.3,0.8-0.2,1.2c0.1,0.1,0.1,0.2,0.2,0.4C443.5,819.3,443.7,819.5,443.9,819.6L443.9,819.6z"
			/>
	</g>
</g>
<g>
	<g>
		<path class="st30" d="M444.2,810.4c-0.3,0.3-0.6,0.5-0.9,0.8c0.1-0.1,0.2-0.2,0.3-0.2c-0.2,0.2-0.5,0.3-0.7,0.5
			c-0.2,0.1-0.3,0.2-0.4,0.4c-0.1,0.1-0.2,0.3-0.3,0.5c-0.1,0.2-0.1,0.4,0,0.6c0,0.2,0.1,0.4,0.2,0.6c0.2,0.3,0.5,0.6,0.9,0.7
			c0.1,0,0.3,0,0.4,0.1c0.3,0,0.5-0.1,0.8-0.2c0.7-0.5,1.3-1,1.9-1.5c0.1-0.1,0.2-0.3,0.3-0.5c0.1-0.2,0.1-0.4,0.1-0.6
			c0-0.2,0-0.4-0.1-0.6c-0.1-0.2-0.2-0.3-0.3-0.5c-0.3-0.3-0.7-0.5-1.1-0.4c-0.1,0-0.3,0-0.4,0.1
			C444.7,810.1,444.4,810.3,444.2,810.4L444.2,810.4z"/>
	</g>
</g>
<g>
	<g>
		<path class="st30" d="M435.4,824.1c-0.2-1.3-0.5-2.6-1-3.9c-0.1-0.4-0.3-0.7-0.7-0.9c-0.3-0.2-0.8-0.3-1.2-0.2
			c-0.7,0.2-1.3,1-1,1.8c0.4,1.3,0.8,2.6,1,3.9c0,0.3,0.4,0.7,0.7,0.9c0.3,0.2,0.8,0.3,1.2,0.2c0.4-0.1,0.7-0.3,0.9-0.7
			c0.1-0.1,0.1-0.2,0.2-0.4C435.4,824.7,435.4,824.4,435.4,824.1L435.4,824.1z"/>
	</g>
</g>
<g>
	<g>
		<path class="st30" d="M426.3,824.5c-0.1-1.1-0.3-2.3-0.7-3.3c0-0.2-0.1-0.4-0.3-0.5c-0.1-0.2-0.2-0.3-0.4-0.4
			c-0.3-0.2-0.8-0.3-1.2-0.2c-0.4,0.1-0.7,0.3-0.9,0.7c-0.2,0.3-0.3,0.8-0.2,1.2c0.3,0.7,0.5,1.5,0.6,2.2c0-0.1,0-0.3-0.1-0.4
			c0,0.2,0.1,0.5,0.1,0.7c0,0.4,0.2,0.8,0.4,1.1c0.3,0.3,0.7,0.5,1.1,0.4c0.4,0,0.8-0.1,1.1-0.4
			C426.1,825.3,426.3,824.9,426.3,824.5L426.3,824.5z"/>
	</g>
</g>
<g>
	<g>
		<path class="st30" d="M442,821.8c-0.3-0.8-0.8-1.6-1.3-2.3c-0.1-0.2-0.2-0.3-0.4-0.4c-0.1-0.1-0.3-0.2-0.5-0.3
			c-0.2-0.1-0.4-0.1-0.6,0c-0.2,0-0.4,0.1-0.6,0.2c-0.3,0.2-0.6,0.5-0.7,0.9c-0.1,0.4-0.1,0.8,0.2,1.2c0.5,0.7,1,1.5,1.3,2.3
			c0.1,0.2,0.2,0.3,0.4,0.4c0.1,0.1,0.3,0.2,0.5,0.3c0.2,0.1,0.4,0.1,0.6,0c0.2,0,0.4-0.1,0.6-0.2c0.3-0.2,0.6-0.5,0.7-0.9
			c0-0.1,0-0.3,0.1-0.4C442.2,822.3,442.2,822.1,442,821.8L442,821.8z"/>
	</g>
</g>
<g>
	<g>
		<path class="st30" d="M472.9,812.8c-2.6,1.7-5.8,2.2-8.8,2.3c-3.1,0.1-6.4-0.1-9.2-1.4c-0.7-0.3-1.6-0.2-2.1,0.5
			c-0.4,0.6-0.2,1.7,0.5,2.1c3.3,1.5,7.1,1.9,10.7,1.8c3.5-0.1,7.3-0.8,10.3-2.7C476,814.4,474.5,811.8,472.9,812.8L472.9,812.8z"/>
	</g>
</g>
<g>
	<g>
		<path class="st30" d="M475.2,810.2c-6.5,3-13.8,1.8-20.7,1.7c-1.9,0-1.9,3,0,3c7.6,0.1,15.1,1.1,22.3-2.2
			C478.4,812,476.9,809.4,475.2,810.2L475.2,810.2z"/>
	</g>
</g>
<path class="st15" d="M515.7,812.8c0,0-3.9-2.9-1.6-5.5s20.5-3.3,19.9,0.3c-0.7,3.6-1.3,6.5-1.3,6.5s4.9-4.9,6.5-5.9
	s3.6,4.6,2.3,7.5s-4.6,6.2-4.9,9.8c-0.3,3.6,0.3,3.3,1.6,8.1c1.3,4.9,4.6,13.4,2.9,16c-1.6,2.6-12.1,7.8-19.9,5.9
	c-7.8-2-14-7.2-12.4-10.1s4.9-15.3,4.2-18.6c-0.7-3.3-5.9-9.1-6.2-11.1c-0.3-2-2.3-5.2,1-7.2C511.1,806.6,515.7,812.8,515.7,812.8z"
	/>
<g>
	<g>
		<path class="st30" d="M513.7,816.6c-0.2,0.1-0.5,0.2-0.8,0.2c-0.1,0-0.1,0-0.2,0c0.2,0,0.2,0,0.1,0c-0.1,0-0.3,0-0.4,0
			c-0.5,0-1,0-1.5-0.1c-1-0.1-2-0.3-3.1-0.3c-0.8,0-1.5,0.7-1.5,1.5c0,0.8,0.7,1.5,1.5,1.5c1.1,0,2.1,0.2,3.2,0.3
			c1.1,0.1,2.3,0.1,3.4-0.3c0.7-0.3,1.3-1,1-1.8C515.3,816.9,514.4,816.3,513.7,816.6L513.7,816.6z"/>
	</g>
</g>
<g>
	<g>
		<path class="st30" d="M509.4,821.4c1.6,0.4,3.3,0.4,5,0.4c0.8,0,1.5-0.7,1.5-1.5c0-0.8-0.7-1.5-1.5-1.5c-1.1,0-2.3,0-3.4-0.1
			c0.1,0,0.3,0,0.4,0.1c-0.4-0.1-0.8-0.1-1.2-0.2c-0.8-0.2-1.7,0.2-1.8,1C508.2,820.3,508.6,821.2,509.4,821.4L509.4,821.4z"/>
	</g>
</g>
<g>
	<g>
		<path class="st30" d="M533.9,819.1c0.8,0.1,1.6,0.2,2.4,0.2c0.8,0,1.6-0.1,2.3-0.2c0.3-0.1,0.7-0.4,0.9-0.7
			c0.2-0.3,0.3-0.8,0.2-1.2c-0.1-0.4-0.3-0.7-0.7-0.9c-0.4-0.2-0.7-0.2-1.2-0.2c-0.1,0-0.3,0-0.4,0.1c0.1,0,0.3,0,0.4-0.1
			c-1.1,0.1-2.2,0.1-3.3,0c0.1,0,0.3,0,0.4,0.1c-0.1,0-0.1,0-0.2,0c-0.4-0.1-0.8-0.1-1.2,0.2c-0.3,0.2-0.6,0.5-0.7,0.9
			c-0.1,0.4-0.1,0.8,0.2,1.2C533.2,818.7,533.5,819.1,533.9,819.1L533.9,819.1z"/>
	</g>
</g>
<g>
	<g>
		<path class="st30" d="M535.3,820.8c0.2,0,0.5-0.1,0.7-0.1c-0.1,0-0.3,0-0.4,0.1c0.8-0.1,1.7-0.2,2.5-0.2c0.4,0,0.8-0.2,1.1-0.4
			c0.3-0.3,0.5-0.7,0.4-1.1c0-0.4-0.1-0.8-0.4-1.1c-0.3-0.3-0.7-0.5-1.1-0.4c-1.2,0.1-2.4,0.2-3.7,0.4c-0.3,0.1-0.7,0.4-0.9,0.7
			c-0.2,0.3-0.3,0.8-0.2,1.2c0.1,0.4,0.3,0.7,0.7,0.9c0.1,0.1,0.2,0.1,0.4,0.2C534.8,820.8,535,820.8,535.3,820.8L535.3,820.8z"/>
	</g>
</g>
<g>
	<g>
		<path class="st30" d="M524.2,814.3c-2.1-2-6.4-1.9-8.5-0.1c-1.3,1.1-1.4,2.9-0.5,4.3c0.6,1,1.6,1.9,2.8,1.7c1-0.1,1.7-0.8,2.4-1.5
			c1.5-1.5,3.4-1.8,5.4-2.1c1.2-0.2,2.4-0.2,3.6-0.1c0.7,0,1,0.1,1.7,0.3c0.1,0,0.5,0.2,0.2,0.1c0.1,0.1,0.2,0.1,0.4,0.2
			c0.1,0,0.3,0.2,0.1,0.1c0.1,0.1,0.4,0.4,0.2,0.1c0.1,0.1,0.2,0.3,0.1,0.1c0,0.1,0.1,0.4,0,0.1c0,0.1,0,0.2,0,0.3c0,0,0-0.2,0,0
			c0,0.2-0.1,0.4-0.2,0.6c-0.1,0.2-0.2,0.3-0.5,0.4c-0.1,0-0.4,0-0.5-0.1c-0.4-0.1-0.7-0.2-1.1-0.4c-0.1,0-0.7-0.3-0.9-0.5
			c-0.4-0.2-0.8-0.4-1.1-0.7c-1.1-0.7-2.1-1.6-3.2-2.1c-1.7-0.9-3.2,1.7-1.5,2.6c0.9,0.5,1.8,1.2,2.6,1.8c1.3,0.8,2.7,1.7,4.2,2.1
			c1.5,0.4,3,0.3,4.1-0.9c1.1-1.2,1.5-3.3,0.7-4.7c-1.4-2.5-5.2-2.5-7.7-2.3c-1.8,0.1-3.7,0.3-5.3,0.9c-1.1,0.4-2.1,0.9-2.9,1.7
			c-0.3,0.3-0.6,0.7-1,0.9c0,0-0.3,0.2-0.3,0.2c0-0.1,0.3,0,0.2,0c0.1,0,0.2,0,0.3,0.1c0.2,0.1,0.1,0.1-0.1-0.1
			c-0.1-0.1-0.3-0.5-0.3-0.5c0,0.1-0.2-0.4,0-0.1c0,0,0-0.1,0-0.2c0-0.1,0-0.1,0,0c0,0.1,0,0.1,0,0c-0.1,0,0,0.1,0,0.1
			c0,0,0.2-0.3,0-0.1c-0.1,0.2,0.3-0.2,0,0c0.1-0.1,0.3-0.2,0.5-0.3c0,0,0.2-0.1,0.1,0c-0.1,0.1,0.1,0,0.2,0
			c0.2-0.1,0.3-0.1,0.5-0.1c0.4-0.1,0.4-0.1,0.9-0.1c0.2,0,0.4,0,0.6,0c0.1,0,0.6,0.1,0.4,0c0.3,0.1,0.7,0.1,1,0.3
			c0,0,0.2,0.1,0.1,0c-0.2-0.1,0.1,0.1,0.2,0.1c0.1,0,0.1,0.1,0.2,0.1c0.2,0.1-0.2-0.2,0,0C523.5,817.8,525.6,815.7,524.2,814.3
			L524.2,814.3z"/>
	</g>
</g>
<g>
	<g>
		<path class="st30" d="M443.1,809.2c-1.2-0.7-2.6-0.8-3.7,0c-1.1,0.7-1.6,2-1.7,3.3c-0.1,1.3,0.5,2.6,1.6,3.3
			c1.3,0.8,3.1,0.8,4.4,0c1.2-0.7,1.8-2,2.3-3.3c0-0.1,0.1-0.1,0.1-0.2c0.1-0.3-0.1,0.2,0,0c0.1-0.1,0.1-0.3,0.2-0.4
			c0.1-0.3,0.3-0.5,0.4-0.8c0-0.1,0.1-0.1,0.1-0.2c0.2-0.3-0.2,0.2,0,0c0.1-0.1,0.2-0.2,0.3-0.3c0.2-0.2-0.2,0.1,0.1-0.1
			c0.1-0.1,0.3-0.2,0.4-0.2c-0.3,0.2,0.1,0,0.2-0.1c0.1,0,0.2,0,0.2-0.1c0.2-0.1-0.3,0-0.1,0c0.1,0,0.3,0,0.4,0c0.1,0,0.1,0,0.2,0
			c0.2,0-0.3-0.1,0,0c0.3,0.1,0.7,0.2,1,0.3c0.1,0,0.2,0.1,0.2,0.1c0.2,0.1-0.2-0.1,0,0c0.2,0.1,0.3,0.2,0.5,0.3
			c0.2,0.1,0.3,0.2,0.5,0.3c0.1,0,0.1,0.1,0.2,0.1c0.2,0.1-0.2-0.2,0,0c0.1,0.1,0.2,0.2,0.4,0.3c0.1,0.1,0.4,0.5,0.2,0.2
			c0.1,0.1,0.2,0.3,0.3,0.4c0.2,0.3,0-0.2,0,0.1c0,0.1,0,0.1,0,0.2c0.1,0.2,0-0.3,0-0.1c0,0,0,0.2,0,0.2c0,0.1,0.1-0.2,0,0
			c0,0-0.1,0.4,0,0.1c0.1-0.2-0.1,0.1-0.1,0.1c0,0.1-0.1,0.1-0.1,0.2c0.2-0.3-0.1,0.1-0.1,0.1c-0.1,0.1-0.1,0.1-0.2,0.2
			c0.2-0.1,0,0-0.1,0c-0.1,0-0.1,0.1-0.2,0.1c-0.1,0-0.1,0,0.1,0c-0.1,0-0.1,0-0.2,0.1c-0.1,0-0.6,0.1-0.3,0.1c-0.2,0-0.4,0-0.6,0
			c-0.1,0-0.2,0-0.3,0c-0.3,0,0.1,0-0.1,0c-0.2,0-0.5-0.1-0.7-0.1c-1-0.3-1.4-0.5-2.2-1c-0.4-0.2-0.7-0.4-1.1-0.7
			c-0.1,0-0.1-0.1-0.2-0.1c0.3,0.2,0,0-0.1-0.1c-0.1-0.1-0.3-0.2-0.4-0.3c-0.6-0.6-1.5-0.6-2.1,0c-0.6,0.6-0.6,1.6,0,2.1
			c1.2,1.1,2.7,2,4.2,2.6c1.6,0.6,3.5,0.9,5.1,0.2c1.8-0.7,3-2.6,2.6-4.5c-0.3-1.6-1.7-2.8-3-3.5c-1.4-0.8-3-1.2-4.6-0.9
			c-1.5,0.3-2.7,1.4-3.4,2.7c-0.1,0.3-0.2,0.5-0.4,0.8c-0.1,0.2-0.2,0.4-0.3,0.6c0,0.1-0.1,0.1-0.1,0.2c0.1-0.1,0.1-0.2,0,0
			c-0.1,0.3-0.2,0.5-0.4,0.8c-0.1,0.1-0.1,0.2-0.2,0.3c0,0.1-0.1,0.1-0.1,0.2c0.1-0.2,0.2-0.2,0,0c-0.1,0.1-0.2,0.2-0.3,0.2
			c0.2-0.2,0.1-0.1-0.1,0c-0.1,0.1-0.2,0,0.1,0c-0.1,0-0.1,0.1-0.2,0.1c-0.1,0-0.1,0-0.2,0.1c-0.3,0.1,0.3,0-0.1,0
			c-0.2,0-0.3,0-0.5,0c-0.1,0-0.2-0.1,0.1,0c-0.1,0-0.1,0-0.2,0c-0.1,0-0.2-0.1-0.3-0.1c0.6,0.1-0.1,0-0.1-0.1c0,0,0.3,0.3,0.1,0.1
			c0,0-0.2-0.2-0.2-0.2c0,0,0.2,0.3,0.1,0.1c0-0.1-0.1-0.1-0.1-0.2c-0.2-0.2,0.1,0.3,0,0c0,0,0-0.1,0-0.1c-0.1-0.3,0.1,0,0,0.1
			c0,0,0-0.3,0-0.4c0-0.1,0-0.1,0-0.2c0-0.2-0.1,0.3,0,0.1c0-0.1,0.1-0.3,0.1-0.4c0.1-0.4-0.1,0.1,0,0c0.1-0.1,0.1-0.2,0.2-0.3
			c0.1-0.2-0.1,0.2-0.1,0.1c0,0,0.1-0.2,0.1-0.2c0,0,0.1-0.1,0.1-0.1c0.1-0.2-0.2,0.1-0.1,0.1c0,0,0.1-0.1,0.1-0.1
			c0.3-0.1-0.2,0-0.1,0c0.1,0,0.3-0.1,0.3-0.1c0.2,0.2-0.4,0-0.2,0c0,0,0.2,0,0.2,0c0,0.1-0.4-0.1-0.2,0c0.1,0,0.2,0.1,0.2,0.1
			c0,0-0.3-0.2-0.1,0c0.1,0.1,0.2,0.1,0.3,0.1c0.7,0.4,1.6,0.2,2.1-0.5C444.1,810.6,443.8,809.6,443.1,809.2L443.1,809.2z"/>
	</g>
</g>
<g>
	<g>
		<path class="st30" d="M519.3,826c1.5-0.5,3.1-0.5,4.6-0.3c1.7,0.3,3.3,0.8,5,1.3c0.8,0.2,1.6-0.3,1.8-1c0.2-0.8-0.3-1.6-1-1.8
			c-3.6-1-7.5-2.3-11.2-1c-0.8,0.3-1.3,1-1,1.8C517.7,825.7,518.6,826.3,519.3,826L519.3,826z"/>
	</g>
</g>
<g>
	<g>
		<path class="st30" d="M520.2,832.2c1.4,0,2.7-0.1,4.1-0.1c0.7,0,1.4,0,2.1,0.1c0.1,0,0.4,0,0.1,0c0.2,0,0.3,0.1,0.5,0.1
			c0.3,0.1,0.7,0.2,1,0.3c0.7,0.2,1.7-0.3,1.8-1c0.2-0.8-0.2-1.6-1-1.8c-2.7-0.9-5.7-0.4-8.5-0.4c-0.8,0-1.5,0.7-1.5,1.5
			C518.8,831.5,519.4,832.2,520.2,832.2L520.2,832.2z"/>
	</g>
</g>
<g>
	<g>
		<path class="st30" d="M521.3,838.2c0.1,0,0.2-0.1,0.3-0.1c-0.1,0.1,0,0,0.1,0c0.2-0.1,0.4-0.1,0.6-0.2c0.2-0.1,0.4-0.1,0.7-0.2
			c0,0,0.3-0.1,0.2,0c-0.1,0,0.2,0,0.2,0c0.9-0.1,1.8-0.1,2.6,0c0.1,0,0.2,0,0.1,0c0.1,0,0.2,0,0.3,0.1c0.2,0,0.4,0.1,0.6,0.1
			c0.4,0.1,0.8,0.2,1.3,0.3c0.8,0.2,1.6,0.5,2.4,0.8c0.8,0.3,1.6-0.3,1.8-1c0.2-0.9-0.3-1.5-1-1.8c-3.6-1.4-8-2.3-11.6-0.5
			c-0.7,0.4-0.9,1.4-0.5,2.1C519.7,838.4,520.6,838.6,521.3,838.2L521.3,838.2z"/>
	</g>
</g>
<g>
	<g>
		<path class="st30" d="M519,839.2c0.2-0.1,0.3-0.2,0.5-0.2c-0.1,0.1-0.2,0.1-0.4,0.2c0.4-0.2,0.9-0.3,1.4-0.4c-0.1,0-0.3,0-0.4,0.1
			c0.1,0,0.3,0,0.4,0c0.4,0,0.8-0.2,1.1-0.4c0.3-0.3,0.5-0.7,0.4-1.1c0-0.4-0.1-0.8-0.4-1.1c-0.3-0.3-0.7-0.5-1.1-0.4
			c-0.5,0-1.1,0.1-1.6,0.3c-0.5,0.1-1,0.4-1.5,0.6c-0.3,0.2-0.6,0.5-0.7,0.9c-0.1,0.2-0.1,0.4,0,0.6c0,0.2,0.1,0.4,0.2,0.6
			c0.2,0.3,0.5,0.6,0.9,0.7C518.3,839.4,518.7,839.4,519,839.2L519,839.2z"/>
	</g>
</g>
<g>
	<g>
		<path class="st30" d="M518.3,832.5c0.9,0,1.7,0,2.6,0c0.4,0,0.8-0.2,1.1-0.4c0.3-0.3,0.5-0.7,0.4-1.1c0-0.4-0.1-0.8-0.4-1.1
			c-0.3-0.3-0.7-0.4-1.1-0.4c-0.9,0-1.7,0-2.6,0c-0.4,0-0.8,0.2-1.1,0.4c-0.3,0.3-0.5,0.7-0.4,1.1c0,0.4,0.1,0.8,0.4,1.1
			C517.5,832.4,517.9,832.5,518.3,832.5L518.3,832.5z"/>
	</g>
</g>
<g>
	<g>
		<path class="st30" d="M527.4,832.1c0.1,0.1,0.2,0.2,0.3,0.3c0,0,0,0,0,0c0,0,0,0,0.1,0.1c0.1,0.1,0.2,0.2,0.3,0.3c0,0,0,0,0,0
			c0,0,0.1,0,0.1,0c0.1,0.1,0.3,0.1,0.4,0.2c0,0,0.1,0,0.1,0c0,0,0,0,0.1,0c0.1,0,0.3,0,0.4,0.1c0,0,0.1,0,0.1,0
			c0.2,0,0.4,0,0.6-0.1c0.2-0.1,0.3-0.2,0.5-0.3c0.1-0.1,0.2-0.3,0.3-0.5c0.1-0.2,0.1-0.4,0.1-0.6c0-0.1,0-0.3-0.1-0.4
			c-0.1-0.3-0.2-0.5-0.4-0.7c-0.1-0.1-0.2-0.2-0.3-0.2c-0.2-0.1-0.5-0.2-0.8-0.2c0,0-0.1,0-0.1,0c0.1,0,0.3,0,0.4,0.1
			c-0.1,0-0.1,0-0.2-0.1c0.1,0.1,0.2,0.1,0.4,0.2c-0.1,0-0.1-0.1-0.2-0.1c0.1,0.1,0.2,0.2,0.3,0.2c-0.1,0-0.1-0.1-0.2-0.2
			c0.1,0.1,0.2,0.2,0.2,0.3c0,0,0,0,0,0c-0.1-0.2-0.2-0.3-0.4-0.4c-0.1-0.1-0.3-0.2-0.5-0.3c-0.2-0.1-0.4-0.1-0.6,0
			c-0.2,0-0.4,0.1-0.6,0.2c-0.1,0.1-0.2,0.2-0.3,0.2c-0.2,0.2-0.3,0.4-0.4,0.7c0,0.1,0,0.3-0.1,0.4
			C527.2,831.6,527.3,831.9,527.4,832.1L527.4,832.1z"/>
	</g>
</g>
<path class="st31" d="M409.1,832c0,0-1,3.3,0.3,4.6c1.3,1.3,2.6,3.9,9.4,3.9s17.9,0.3,21.2,0c3.3-0.3,22.8,2.9,28.7,0
	c5.9-2.9,7.5-7.2,7.5-7.2l-1-3.3c0,0-2.9,6.2-9.1,7.5s-23.1-1.6-24.8-1.6s-22.2,1.3-26.1,0S409.1,832,409.1,832z"/>
<path class="st31" d="M508.8,847.7v4.2c0,0,6.5,8.5,16.3,8.1c9.8-0.3,16.6-7.2,16.6-7.2l-0.7-3.3c0,0-5.9,4.6-15.3,5.5
	C516.3,856.1,508.8,847.7,508.8,847.7z"/>
<path class="st11" d="M784.1,343.3c0,0,8.5-1.3,10.1-5.5c0,0,0.7,6.5-2.3,8.1S784.1,343.3,784.1,343.3z"/>
<path class="st32" d="M761.7,377.5c0,0,14.3,14.7,33.2,15.6C794.9,393.2,772.1,397.1,761.7,377.5z"/>
<path class="st32" d="M812.5,391.9c0,0,19.6-3.2,31.5-14.6C843.9,377.3,846.4,390.6,812.5,391.9z"/>
<path class="st32" d="M838.9,496.1c0,0,2.9,31.6,14.7,31.6C853.5,527.7,841.1,506.9,838.9,496.1z"/>
<path class="st32" d="M774,499.7c0,0-1,24.1-11.1,29.3C763,529,774.7,503.6,774,499.7z"/>
<path class="st32" d="M743.2,546.9c0,0,42.7,13.7,124.7-3.7l0.7,7.4c0,0-37.9,10.8-54.5,11.1c-16.6,0.3-72.5-2.9-72.5-2.9
	L743.2,546.9z"/>
<path class="st32" d="M858.7,420.5c0,0,0.3,53.4,2.6,66.1c2.3,12.7,11.1,47.9,10.4,51.1c0,0-1-27.4-4.2-33.9s-4.6-37.8-4.9-41
	C862.3,459.6,858.7,420.5,858.7,420.5z"/>
<path class="st32" d="M742.8,495.5c0,0,5.2-58.6,3.6-76.2c0,0-6.8,63.2-6.8,67.1C739.5,490.3,740.8,495.8,742.8,495.5z"/>
<path class="st33" d="M744.1,804.3c0,0-5.4,11.6-8.8,17.3c-3.4,5.6-8.1,13.4-10.1,17.9c-1.4,3.3-9.6,17.2,12.2,8.2s30-27,32.2-30.4
	c2.2-3.4,1.5-11.6,0-13.5C768.1,802,744.1,804.3,744.1,804.3z"/>
<path class="st33" d="M821.7,803.6c-2.1,2.5-3.6,5-4,9.8c-0.4,4.9-2.4,11.3,6.4,11.6c8.8,0.3,34.1,2.8,47.2,2.7
	c13.1,0,20.7-1.5,18.9-4.2s-26.7-14.7-30.3-15.2s-9.5-4.3-12.4-4.5S821.7,803.6,821.7,803.6z"/>
<path class="st31" d="M146.7,814.3l20,0.9c0,0-0.9,5.6,0,8.3s3,6.1,3.5,10s-3,14.3-3,14.3h-13.9l-0.4-7.8c0,0-3,7.8-11.7,8.7
	s-25.6,0-28.7-1.3s-10.4-2.2-11.7-3.9c-1.3-1.7,2.6-6.1,6.1-6.5s21.3-1.7,26.5-5.2S146.2,816.5,146.7,814.3z"/>
<path class="st31" d="M239.2,811.3l19.1-0.4c0,0-0.9,13,0,15.6s7,9.1,3.9,14.3c-3,5.2-8.7,16.9-14.8,16.5s-15.6-14.8-16.1-18.2
	c-0.4-3.5,6.1-11.3,7.4-13.9C240.1,822.6,239.2,811.3,239.2,811.3z"/>
<path class="st34" d="M601.7,371.5c0,0,1.5-2.1,1.6-2.8s2.1-1,2.9-1.2c0.8-0.3,1.8-2.6,2.8-2.3c1,0.3,2.6-0.7,3.6-1.6
	c0,0-0.9,3.8-3.8,6.6C606,373,601.7,371.5,601.7,371.5z"/>
<path class="st26" d="M586.5,343c0,0,1.1,0.5,0.7,1.3s-9.9,0.7-10.8,5C576.4,349.3,574.4,344.3,586.5,343z"/>
<path class="st26" d="M599,339.4c0,0-0.6,1.1,0.3,1.4c0.9,0.3,8.2-5.6,11.6-2.6C610.8,338.2,609.3,333,599,339.4z"/>
<path class="st11" d="M221.4,346.5c0,0,5.4,4.7,12.6,0c0,0-2.2,9-7.2,8.3C221.7,354,221.4,346.5,221.4,346.5z"/>
<path class="st13" d="M212.7,321.7c0,0,5.2-1.7,10.9-0.4C223.6,321.3,224.4,313,212.7,321.7z"/>
<path class="st13" d="M246.6,321.7c0,0-5.2-1.7-10.9-0.4C235.7,321.3,234.9,313,246.6,321.7z"/>
<path class="st11" d="M530,319.6c0,0,7.2,7.8,13,6.5c0,0-1.3,6.2-9.1,2.6C526,325.1,530,319.6,530,319.6z"/>
<path class="st18" d="M411.4,356.9c0,0,4.6,0.4,5.6,0s3.5-1.1,4.6,0.2c1.1,1.3,3.3,2.4,3,3.7c-0.2,1.3-3.5,3.5-7.2,2
	S412.5,358,411.4,356.9z"/>
<path class="st15" d="M564.5,827.8c-2.6,2.6-8.3,7.4,8.3,7.8c16.5,0.4,54.7-3.5,59.9-3s8.7-6.5,8.3-8.7s-4.3-9.6-5.6-10.4
	s-12.6,7-24.8,8.7c-12.2,1.7-19.1-3.9-24.3-3.5S564.5,827.8,564.5,827.8z"/>
<path class="st1" d="M586.3,818.7c0,0,15.2-2.6,17.4-4.3s-0.9-12.6-0.9-12.6l24.8,0.4l7.8,11.3c0,0-14.8,7.4-20.4,8.3
	c-5.6,0.9-12.6,1.3-16.1,0S586.3,818.7,586.3,818.7z"/>
<path class="st15" d="M670.5,810.8c0,0-7,7.8-7,10.4s-2.2,11.7,3.5,16.1c5.6,4.3,10.4,9.1,14.8,7.8s9.6-7.4,10.4-10.4
	c0.9-3,1.7-10.9,0.4-14.8c-1.3-3.9-7.8-9.1-7.8-9.1H670.5z"/>
<path class="st1" d="M667.9,798.2c0,0,3,9.1,2.6,12.6s-4.3,5.2-2.2,9.6c2.2,4.3,4.8,9.1,10,9.1s10-6.1,10.4-8.7s-4.3-8.7-3.9-10
	s1.3-12.6,1.3-12.6H667.9z"/>
</svg>
