<?xml version="1.0" encoding="utf-8"?>
<!-- Generator: Adobe Illustrator 24.2.3, SVG Export Plug-In . SVG Version: 6.00 Build 0)  -->
<svg version="1.1" id="Layer_1" xmlns="http://www.w3.org/2000/svg" xmlns:xlink="http://www.w3.org/1999/xlink" x="0px" y="0px"
	 viewBox="0 0 1000 1000" style="enable-background:new 0 0 1000 1000;" xml:space="preserve">
<style type="text/css">
	.st0{fill:#ECECEC;}
	.st1{fill:#C17560;}
	.st2{fill:#FFBF9D;}
	.st3{fill:#FF9A6C;}
	.st4{fill:#7C4236;}
	.st5{fill:#525252;}
	.st6{fill:#3F3F3F;}
	.st7{opacity:0.6;}
	.st8{fill:#999899;}
	.st9{fill:#00ADAD;}
	.st10{opacity:0.1;}
	.st11{fill:#35312C;}
	.st12{fill:#FF8900;}
	.st13{opacity:0.2;}
	.st14{fill:#FFFFFF;}
	.st15{opacity:0.1;fill:#525252;}
	.st16{opacity:0.3;}
	.st17{fill:#FFBB15;}
</style>
<circle class="st0" cx="500" cy="554" r="430.5"/>
<g>
	<path class="st1" d="M501.3,702.6c0,0,6.9-3.6,13-2.2c6.1,1.3,28.3,15.8,28.3,15.8l17.9-3.3l10.5,50.4l-69.7,29V702.6z"/>
	<path class="st2" d="M449.8,720.2c0,0,16-2,21.7-4.9c5.8-2.9,19.6-15.1,22.5-14.9c2.9,0.2,13.3,2.2,13.3,2.2l-4.2,12.7
		c0,0,20.9,12.7,27.1,17.3c6.2,4.7,25.8,25.6,26.7,30.7c0.9,5.1-0.7,11.1-3.1,13.1c-2.4,2-11.3-2-11.3-2s1.3,4.7-2,9.1
		c-3.3,4.4-11.1,2.9-11.1,2.9s-0.7,7.3-4.2,8.7c-3.6,1.3-11.6-2.7-11.6-2.7s-2.4,6.2-5.3,6.9c-2.9,0.7-11.1-4.2-11.1-4.2
		s-35.6-25.6-43.6-29.4s-10.5-4-10.5-4L449.8,720.2z"/>
	<g>
		<path class="st3" d="M513.6,792.5c-0.2,0-0.3-0.6-0.6-1.6c-0.4-0.9-1-2.2-1.8-3.6c-1.6-2.7-3-4.9-2.8-5.1c0.2-0.2,2,1.7,3.7,4.5
			c0.8,1.4,1.4,2.8,1.6,3.9C513.9,791.8,513.7,792.5,513.6,792.5z"/>
	</g>
	<g>
		<path class="st3" d="M528.3,788.1c-0.3,0.1-2-3-4.5-6.7c-2.4-3.7-5-6.2-4.9-6.4c0.2-0.2,3.2,2,5.7,5.8
			C527.3,784.6,528.6,788,528.3,788.1z"/>
	</g>
	<g>
		<path class="st3" d="M542.6,775.3c-0.3,0.1-1.3-3.8-3.8-7.9c-2.4-4.2-5.3-6.9-5.1-7.2c0.2-0.2,3.5,2.3,6,6.6
			C542.3,771.2,542.9,775.3,542.6,775.3z"/>
	</g>
	<g>
		<path class="st3" d="M532.2,747.6c0.3-0.1,1,2.6,1.2,6c0.2,3.4-0.4,6.1-0.7,6c-0.3,0-0.3-2.7-0.4-6
			C532.2,750.3,531.9,747.6,532.2,747.6z"/>
	</g>
	<path class="st1" d="M480.4,727.5c0,0,5.6-17.8,7.6-20c2-2.2,20.6-7.1,20.6-7.1l5.8,14.9l-4.1,4.4l-8.9-0.6
		C501.3,719.1,495.8,733.8,480.4,727.5z"/>
	<path class="st1" d="M446.3,762.7c0,0-2.5,2,0,6.6c2.5,4.7,9.4,1.3,11.7,0c0,0-3.3,7.8,0.9,10.2c4.2,2.4,9.3,1.8,9.3,1.8
		s-0.2,4.7,5.8,7.8c6,3.1,7.6,0,7.6,0s0.7,7.8,7.6,8.5c6.9,0.7,9.3-1.7,9.3-1.7l-3.1-4.6c0,0,4-8.2,0.9-11.7
		c-3.1-3.6-8.2-3.1-8.2-3.1s1.4-7.2-2.6-9.2c-7.4-3.7-10.5,3.2-10.5,3.2s-0.4-7.9-6.2-7.7c-5.8,0.2-8.9,3.7-8.9,3.7L446.3,762.7z"/>
	<g>
		<path class="st4" d="M474.9,770.5c0.3,0.1-0.8,2.8-2.7,5.9c-1.8,3.1-3.7,5.4-3.9,5.2c-0.2-0.2,1.2-2.7,3-5.7
			C473.1,772.8,474.6,770.3,474.9,770.5z"/>
	</g>
	<g>
		<path class="st4" d="M488.1,777.5c0.3,0.1-0.9,3-3,6.2c-2.1,3.1-4.4,5.3-4.6,5.1c-0.2-0.2,1.7-2.6,3.8-5.7
			C486.3,779.9,487.8,777.3,488.1,777.5z"/>
	</g>
</g>
<g>
	<g>
		<path class="st5" d="M350.4,861.4h-33.7L308,984.1h33.8C347.6,965.4,362,868,362,868L350.4,861.4z"/>
	</g>
	<path class="st5" d="M159.3,861.4c0,0-21.6,50.6-19.4,71.1c2.2,20.5,14.3,51.6,14.3,51.6h167.1c0,0,4.7-17.1,8.3-42.4
		c3.6-25.3,13.3-80.3,13.3-80.3H159.3z"/>
</g>
<g>
	<g>
		<path class="st6" d="M380.1,372.8c-5.6-7.1-12.6-14-14.1-23c-1.3-8.2,2.3-17.3-1.4-24.8c-4.6-9.2-17.6-11-23.3-19.6
			c-2.7-4.2-3.4-9.4-6.1-13.6c-4.6-7.1-14.1-9.4-22.6-8.9c-8.5,0.5-16.7,3.1-25.2,3.3c-11.6,0.2-23.4-4.1-34.7-1.3
			c-12.5,3.1-20.5,13.6-29,23.7l-11,11.7c-2.3,2-4.6,3.8-7.2,5.3c-4.5,2.6-9.6,4.3-13.6,7.8c-8.4,7.3-8.5,22.2-0.1,29.6
			c-9.1,2.4-15.9,11.4-15.8,20.8c0,5.2,1.9,10.1,3.3,15.1c1.3,5,2,10.5-0.3,15.1c-2.3,4.6-8.5,7.6-12.9,4.8
			c1.3,6.7,5.8,12.8,11.8,16c-2.5,2.4-6,3.7-9.5,3.7c8.3,22.5,33.4,35.4,57.4,36.7c24,1.3,47.4-6.7,70.1-14.6l65.4-13.7
			c5.7-1,8.4-7.8,8.6-13.6c0.2-5.8-1-12,1.3-17.3c3.2-7.3,12.1-10.9,15.4-18.1C390.5,389.5,385.7,379.9,380.1,372.8z"/>
	</g>
</g>
<g>
	<g>
		<g>
			<g>
				<g>
					<g>
						<path class="st6" d="M224.4,424.5c-4-14.8-7.9-29.8-9.3-45.1c-1.4-15.3-0.1-31.1,6-45.2c0.9-2.1,8.6-16.4,10.9-16.1
							c1.6,0.2-3.3,13.7-2.5,15.1c7.3,14.1,8.6,30.7,6.5,46.4C233.8,395.5,229.8,409.6,224.4,424.5"/>
					</g>
				</g>
			</g>
		</g>
	</g>
</g>
<g>
	<path class="st2" d="M225.9,365.9c0.7-38.5,23.7-70.2,62.2-68.4l3.5,0.4c35.7,3.8,62.5,34.3,61.6,70.1c-0.8,33.4-2.2,70.2-4.2,88
		c-4.3,36.7-41.7,38.5-41.7,38.5c-0.1,0-1,60.6-1,60.6l-87.5-60.6L225.9,365.9z"/>
</g>
<g class="st7">
	<g>
		<g>
			<g>
				<g>
					<g>
						<g>
							<g>
								<path class="st3" d="M307.3,494.5c0,0-23.3-1.1-46.4-19.2c0,0,8.6,31.1,45.6,31.6L307.3,494.5z"/>
							</g>
						</g>
					</g>
				</g>
			</g>
		</g>
	</g>
</g>
<g>
	<g>
		<g>
			<g>
				<g>
					<g>
						<g>
							<g>
								<g>
									<g>
										<g>
											<g>
												<g>
													<g>
														<path class="st5" d="M340.5,396.5c-0.2,2.8-2.7,4.9-5.6,4.8c-2.9-0.2-5.1-2.5-4.9-5.3c0.2-2.8,2.7-4.9,5.6-4.8
															C338.5,391.4,340.7,393.7,340.5,396.5z"/>
													</g>
												</g>
											</g>
										</g>
									</g>
								</g>
							</g>
						</g>
					</g>
				</g>
			</g>
		</g>
	</g>
</g>
<g>
	<g>
		<g>
			<g>
				<g>
					<g>
						<g>
							<g>
								<g>
									<g>
										<g>
											<g>
												<g>
													<g>
														<path class="st5" d="M289.4,396.5c-0.2,2.8-2.7,4.9-5.6,4.8c-2.9-0.1-5.1-2.5-4.9-5.3c0.2-2.8,2.7-4.9,5.6-4.8
															C287.4,391.4,289.6,393.7,289.4,396.5z"/>
													</g>
												</g>
											</g>
										</g>
									</g>
								</g>
							</g>
						</g>
					</g>
				</g>
			</g>
		</g>
	</g>
</g>
<g class="st7">
	<g>
		<g>
			<g>
				<g>
					<g>
						<g>
							<g>
								<g>
									<g>
										<g>
											<g>
												<g>
													<g>
														<path class="st3" d="M306.9,430.4c0-0.3,3.6-0.6,9.3-0.7c1.5,0,2.9-0.1,3.2-1.1c0.4-1,0-2.6-0.5-4.4
															c-1-3.6-2-7.4-3.1-11.4c-4.3-16.3-7.2-29.6-6.6-29.7c0.7-0.2,4.7,12.9,8.9,29.1c1,4,2,7.8,2.9,11.5
															c0.4,1.7,1.1,3.7,0.2,5.7c-0.5,1-1.6,1.7-2.6,1.9c-1,0.2-1.8,0.1-2.5,0.1C310.5,431.1,306.9,430.8,306.9,430.4z"/>
													</g>
												</g>
											</g>
										</g>
									</g>
								</g>
							</g>
						</g>
					</g>
				</g>
			</g>
		</g>
	</g>
</g>
<g>
	<g>
		<g>
			<g>
				<g>
					<g>
						<path class="st2" d="M226,393.4c-0.6-0.3-27-11.4-19,18.6c6.5,24.4,16.5,18.4,16.6,17.6C223.7,428.9,226,393.4,226,393.4z"/>
					</g>
				</g>
			</g>
		</g>
	</g>
</g>
<g>
	<g>
		<g>
			<g>
				<g>
					<g>
						<path class="st6" d="M339.6,325.2c4.2-2-7.2-16-16.9-21.2c-14.7-7.9-37.6-13.6-51.8-10.5c-17.1,3.7-31.7,11.2-41.1,25.9
							c-9.4,14.8-13.8,32.4-14.4,49.9c-0.2,5.3,0,10.9,2.6,15.6c3.2,5.8,9.7,9.8,8.9,17.4c-0.3,2.8,0.3,5.7,2.1,7.9
							c4.3,5.2,10.2,1,13.1-3.5c6.2-9.5,7.6-21.3,8.8-32.6c0.9-8,1.7-16.2-0.1-24.1c-1-4.3-2.7-8.4-3.4-12.7
							c-0.7-4.3-0.3-9.2,2.6-12.5c0.5-0.5,1.2-1.2,2.2-1.9c7.5-5.8,17.7-7,26.4-3.3c13.9,5.9,37.7,15,44.3,10.6
							c9.6-6.3,12-10.7,12-10.7L339.6,325.2z"/>
					</g>
				</g>
			</g>
		</g>
	</g>
</g>
<g>
	<g>
		<g>
			<g>
				<g>
					<g>
						<path class="st6" d="M272.4,290.2c14.2-3.7,29.9-2.5,42.5,5.1c6.7,4,12.5,10.1,14.1,17.7c1.6,7.6-2.2,16.6-9.5,19.1l-0.5,0.3
							c-11,2.9-17.9,1-28.4-3.4c-8.8-3.7-16.5-9.8-25.3-13.5c-9.4-3.9-20-4.9-29.9-2.8C245.6,302.3,258.3,293.9,272.4,290.2z"/>
					</g>
				</g>
			</g>
		</g>
	</g>
</g>
<g>
	<path class="st8" d="M278.8,285.8c0-0.1,0.9,0,2.6,0.3c1.6,0.3,4,0.8,6.8,1.8c2.8,1,6,2.6,9.3,4.8c3.3,2.2,6.6,5.1,9.3,8.9
		c2.7,3.8,4.1,8,5.1,11.8c0.9,3.8,1.3,7.4,1.6,10.3c0.2,3,0.2,5.4,0.2,7c0,1.7-0.1,2.6-0.2,2.6c-0.1,0-0.1-0.9-0.2-2.6
		c-0.1-1.6-0.2-4-0.5-7c-0.3-2.9-0.8-6.4-1.8-10.1c-1-3.7-2.4-7.8-5-11.4c-2.6-3.6-5.8-6.5-8.9-8.7c-3.2-2.2-6.3-3.8-9-4.9
		C282.4,286.4,278.8,286,278.8,285.8z"/>
</g>
<g>
	<path class="st8" d="M302,284.4c0-0.1,0.8,0.1,2.2,0.6c0.7,0.3,1.6,0.4,2.5,0.9c1,0.5,2,1,3.2,1.6c4.5,2.6,10,7.9,13.1,15.4
		c0.8,1.8,1.3,3.7,1.9,5.5c0.3,1.9,0.7,3.6,0.8,5.4c0.2,1.7,0.1,3.4,0.1,4.9c-0.2,1.5-0.3,3-0.6,4.2c-0.3,1.3-0.5,2.4-0.9,3.4
		c-0.4,1-0.6,1.8-1,2.5c-0.7,1.3-1.1,2-1.2,1.9c-0.2-0.1,1.5-2.9,2.4-7.9c0.3-1.2,0.3-2.7,0.4-4.2c0-1.5,0.1-3.1-0.2-4.8
		c-0.1-1.7-0.5-3.4-0.9-5.2c-0.5-1.8-1-3.6-1.8-5.4c-3-7.3-8.2-12.4-12.5-15.1c-1.1-0.6-2.1-1.2-3-1.7c-0.9-0.5-1.7-0.8-2.4-1.1
		C302.7,284.8,302,284.5,302,284.4z"/>
</g>
<path class="st9" d="M318.5,549.1c0,3.5,17.3,79.6,24,98.3c6.6,18.7,27.7,206.3,24.9,219.7c-2.8,13.4-10,12.8-10,12.8
	s-169.8-10.7-188-9.1s-26,1.1-30.4-19.8c-4.4-20.8,0.1-129.2-3.7-155.4c-3.9-26.2-3.9-38.9-5.4-77.8c-1.3-33.7,6.4-60.8,22.4-80.3
	c16-19.5,51.5-39.3,51.5-39.3l12.6-18.4l89.1,47.1l2-10.7l5.4,16.7L318.5,549.1z"/>
<g class="st10">
	<path d="M356.8,781.2c-1.5-3.8-6.3-4.7-10.3-5.2c-37.8-4.2-77.1-13.6-104.6-39.7c-10.8-10.2-19.3-22.6-27.5-35
		c-17.9-27.1-34.8-54.9-51.6-82.7l-13.1,4.9c8,39.2,15.9,67.6,29,99.8c13.1,32.2,23.2,63.3,56.3,73.9c21.4,6.8,62,1.6,84.4-0.2
		c9.3-0.7,18.8-1.6,27.7-4.3c2.7-0.8,5.5-1.9,7.5-3.8S357.8,783.8,356.8,781.2z"/>
</g>
<path class="st9" d="M145,613.3c1,1.7,76.5,163.1,110.3,169.8c33.7,6.6,138.6,8.2,159,4.3c20.5-3.9,40.5-7.5,40.5-7.5
	s14.8-35.2,1.3-65.2l-28.2,0.9c0,0-78.3-4.2-89.4-7.2c-11.1-3-20.6-13.4-30.6-12.8l-59.6-138.6c0,0-38.7-35.9-66.4-24.9
	C154.4,543.1,136.9,598.9,145,613.3z"/>
<g class="st10">
	<path d="M221.8,507.4c15.5,11.6,31,23.1,46.5,34.7c10.2,7.6,20.7,15.4,32.9,19.3c-0.2-10.8-0.4-21.5-0.7-32.3l-4.8,22.7
		L221.8,507.4z"/>
</g>
<g>
	<g>
		<path class="st11" d="M700.7,345.5c-8.1,1.1-16.5-4.7-18.4-12.7c-1.9-7.9,3-16.9,10.7-19.6c-5.1-5.1-6.6-13.5-3.4-20
			c3.2-6.5,10.8-10.5,17.9-9.5c0.2-7.1,4.3-14.1,10.5-17.6c6.2-3.5,14.3-3.5,20.5,0c7.7-6.9,20.4-7.4,28.7-1.1
			c6.9-1.4,14.5,2.1,17.9,8.3c3.4,6.2,2.2,14.5-2.7,19.6"/>
	</g>
</g>
<g>
	<g>
		<g>
			<path class="st1" d="M698.3,347.9c2.2-36.8,32.3-65.7,69.2-66.5l3.7-0.1c39.5,1.5,60.3,35.9,57.7,75.4l2.3,140.8l0,0l-96,34.5
				l-0.8-50.7c0,0-38.1-5.1-39.3-43.1C694.4,420,696.3,382.1,698.3,347.9z"/>
		</g>
	</g>
</g>
<g class="st7">
	<g>
		<g>
			<g>
				<g>
					<path class="st4" d="M734,481.3c0,0,24.3,1,49.4-15.6c0,0-11.1,27.5-49.1,24.9L734,481.3z"/>
				</g>
			</g>
		</g>
	</g>
</g>
<g>
	<g>
		<g>
			<g>
				<g>
					<g>
						<g>
							<g>
								<path class="st11" d="M709,382.2c0,2.9,2.3,5.3,5.3,5.4c3,0.1,5.4-2.1,5.5-5c0-2.9-2.3-5.3-5.3-5.4
									C711.5,377.1,709,379.4,709,382.2z"/>
							</g>
						</g>
					</g>
				</g>
			</g>
		</g>
	</g>
</g>
<g>
	<g>
		<g>
			<g>
				<g>
					<g>
						<g>
							<g>
								<g>
									<path class="st11" d="M706.8,357.2c0.8,0.9,5.2-3.2,11.7-3.3c6.4-0.2,11.2,3.6,11.9,2.6c0.3-0.4,3.7-2.8,1.6-4.5
										c-2.1-1.7-9.7-2.6-13.7-2.5c-4,0.1-7.3,2-9.3,3.8C707.1,355.1,706.4,356.8,706.8,357.2z"/>
								</g>
							</g>
						</g>
					</g>
				</g>
			</g>
		</g>
	</g>
</g>
<g>
	<g>
		<g>
			<g>
				<g>
					<g>
						<g>
							<g>
								<path class="st11" d="M762.1,382.2c0,2.9,2.3,5.3,5.3,5.4c3,0.1,5.4-2.1,5.5-5c0-2.9-2.3-5.3-5.3-5.4
									C764.6,377.1,762.2,379.4,762.1,382.2z"/>
							</g>
						</g>
					</g>
				</g>
			</g>
		</g>
	</g>
</g>
<g>
	<g>
		<g>
			<g>
				<g>
					<g>
						<g>
							<g>
								<g>
									<path class="st11" d="M756.1,357.1c0.8,0.9,5.2-3.2,11.7-3.3c6.4-0.2,11.2,3.6,11.9,2.6c0.3-0.4-0.4-2.1-2.5-3.8
										c-2.1-1.7-5.5-3.4-9.5-3.2c-4,0.1-8.6,0.8-10.6,2.6C755.1,353.9,755.7,356.7,756.1,357.1z"/>
								</g>
							</g>
						</g>
					</g>
				</g>
			</g>
		</g>
	</g>
</g>
<g class="st7">
	<g>
		<g>
			<g>
				<g>
					<g>
						<g>
							<g>
								<path class="st4" d="M743.9,409.9c0-0.3-3.6-0.9-9.5-1.5c-1.5-0.1-2.9-0.4-3.2-1.4c-0.4-1.1,0.2-2.7,0.9-4.4
									c1.3-3.6,2.7-7.4,4.2-11.4c5.8-16.3,9.9-29.6,9.3-29.9c-0.7-0.2-5.9,12.8-11.7,29c-1.4,4-2.7,7.8-4,11.5
									c-0.5,1.7-1.5,3.6-0.7,5.9c0.4,1.1,1.5,1.9,2.5,2.1c1,0.3,1.8,0.3,2.5,0.3C740.3,410.3,743.9,410.3,743.9,409.9z"/>
							</g>
						</g>
					</g>
				</g>
			</g>
		</g>
	</g>
</g>
<g>
	<g>
		<g>
			<path class="st11" d="M701.6,330.4c0,0,9.5-24,20.9-29.7c13.7-7,20,8.1,33.2,4.1c13.1-4,26.3-10.7,40-0.7
				c15,10.9,8.2,18.9,9.5,35.7c5.1,68.2,18,87.2,20.8,55c0.3-3.5,10-6.5,11.2-21.4c1.5-19.3,1.8-42.8-2.8-56.4
				c-3.9-11.5-10.6-19.3-22.6-27.9c-18.9-13.5-44.5-13.3-61.9-11.2C732.5,280,699.4,300.7,701.6,330.4z"/>
		</g>
	</g>
</g>
<g>
	<g>
		<g>
			<path class="st1" d="M823.6,393.8c0.1-5.9,5.1-10.6,10.9-10.2c7.1,0.5,12.5,3.3,8.5,19.3c-6.3,25.2-20,20-20,19.3
				C823,421.8,823.3,404.7,823.6,393.8z"/>
		</g>
	</g>
</g>
<g>
	<g>
		<path class="st11" d="M822,343.6c-3.3,2.4-6.8,4.8-10.9,5.3c-4.1,0.5-8.7-1.8-9.5-5.8c-0.3-1.8,0.1-3.9-1.2-5.3
			c-1.5-1.6-4.1-1.1-6.2-0.8c-7.5,1-15.4-4.2-17.4-11.5c-1.9,2.9-6.4,2.9-9.3,1.1c-2.9-1.8-4.9-4.9-7.2-7.4c-2.3-2.6-5.6-4.8-9-4.3
			c-1.9,0.3-3.7,1.5-5.6,1.4c-3.4-0.2-5.2-4.2-5.7-7.6c-0.6-3.4-1.1-7.3-4-9.1c-2.7-1.6-6.2-0.6-9.3-0.1c-3.1,0.5-7.2-0.1-8.1-3.2
			c-0.5-1.6,0.2-3.3,1.1-4.7c3.9-6.4,12.7-9.4,19.7-6.8c2.4-8.6,10.2-15.5,19.1-16.6c8.9-1.1,18.2,3.5,22.6,11.3
			c5.4-5.1,13.3-7.3,20.6-5.8c7.3,1.5,13.6,6.7,16.6,13.5c6.3-1.8,13.5,0.5,17.6,5.6c4.1,5.1,4.8,12.6,1.8,18.4
			c4.7,2.6,8.8,7.1,9,12.5c0.2,5.4-4.9,10.8-10.1,9.5c2.2,4.1,0.6,9.8-3.4,12.3c-4,2.4-9.8,1.2-12.4-2.7"/>
	</g>
</g>
<g>
	<path class="st12" d="M552,707.2c3.3-1.3,111.9-14.4,111.9-14.4l44.1-37.3l-4.1,108l-138.7,13.4L552,707.2z"/>
	<path class="st13" d="M688.6,672c-1.3,0.7-12.2,10.3-12.2,10.3l3.3,83.2L688.6,672z"/>
</g>
<path class="st5" d="M873.7,867.6H690.2c0,0,9.7,51.8,13.3,75.6c3.6,23.9,8.9,40.8,8.9,40.8h166.2c0,0,12.4-30.1,14.6-49.4
	C895.3,915.4,873.7,867.6,873.7,867.6z"/>
<path class="st5" d="M676.5,873.9c0,0-5.1,59,0,110.2h63.6v-47.1L676.5,873.9z"/>
<path class="st14" d="M711.8,584.6l19.8-43.3l2.5-26.8c0,0,37.9-23.8,55.9-32.8c18-9,42.2-17.1,42.2-17.1v25.2L711.8,584.6z"/>
<path class="st12" d="M877.1,805.7c0,0,10.7-144.4,11.5-155.1c0,0,6.3-77.1-7.4-106.5c-13.7-29.4-44.3-55.2-44.3-55.2l-2.8-15.4
	l-59.9,37.7l-27.7,24.1c0,0-15.7,16.6-26.1,32.5c-7.9,10.9-16.6,24.9-20.5,42.4c-1.4,6.4-17.9,83.3-18.4,136.8
	c0,0-2.5,46.7-5.2,73.2c-3.3,32.8-8.4,107.5-7.3,151.7l194-5.9c47.9-7.3,39.5-12.1,39.5-12.1L877.1,805.7z"/>
<path class="st12" d="M767.1,603.8l2.3,192.6l-29.3,187.6h77.3c0,0,35.1-142.4,43.3-172.4c7.9-29.1,19.9-175.4,20.9-182.6
	c0.4-2.8,8.8-53.3-15.9-77.2"/>
<g class="st10">
	<path d="M687.7,720.7c8.4-12.2,11.5-23.7,15.9-37.8c6.7-20.9,8.5-44.6,18.9-64c6.1-11.4,13.4-23.1,24.1-30.4
		c10.4-7.1,12-16.2,11.8-40.7c7.4,0.1,15.3-5.7,16.3-6.7c5.1-5.5,8.7-14.1,9.1-17.1c-5.2,5.7-13.9,15.1-13.9,15.1
		s-18.9,3.5-18.6,3.4c-0.5,9.4-0.5,17.7-0.9,27.1c0,0-36.2,38.5-39.1,46.2C708.4,623.7,687.7,720.7,687.7,720.7z"/>
</g>
<g class="st10">
	<path d="M822.2,960.8c45.9-87,60.2-201.3,57.5-310.2c0,0-13.2,132.4-17.6,155.1C857.7,828.3,822.2,960.8,822.2,960.8z"/>
</g>
<path class="st15" d="M734.4,517.4L744,534l30-23c0,0-28.9,24.9-29,26s-4.6,5.4-4.6,5.4L734.4,517.4z"/>
<g class="st16">
	
		<image style="overflow:visible;" width="240" height="238" xlink:href="B375A371FF8AC1A9.png"  transform="matrix(1 0 0 1 442 209)">
	</image>
</g>
<g class="st16">
	
		<image style="overflow:visible;" width="179" height="213" xlink:href="B375A371FF8AC1AB.png"  transform="matrix(1 0 0 1 377 238)">
	</image>
</g>
<g>
	<g>
		<g>
			<g>
				<g>
					<g>
						<g>
							<path class="st14" d="M639.6,380.8l-25.7-3c-10.3,10.5-23.6,18.4-39,22.2c-44.2,10.9-88.9-16.2-99.7-60.4
								c-10.9-44.2,16.2-88.9,60.4-99.7c44.2-10.9,88.9,16.2,99.7,60.4c4.5,18.5,2.4,37-4.7,53.1l0,0L639.6,380.8z"/>
						</g>
					</g>
				</g>
			</g>
		</g>
	</g>
</g>
<g>
	<g>
		<g>
			<g>
				<polygon class="st17" points="517.3,321.9 527.2,310.9 548.1,327.7 579.2,292 589.3,301.9 547.6,347.9 				"/>
			</g>
		</g>
	</g>
</g>
<g>
	<path class="st14" d="M413.4,388c3.7-0.5,9.2-1.1,16.3-2c0.1,0,0.1,0,0.2,0.1c6.4,6.4,16.2,13.7,29.7,17.8c3.4,1.1,7,1.6,10.7,2.4
		c1.9,0.2,3.8,0.3,5.8,0.5c1,0.1,2,0.1,3,0.1c1,0,2,0,3,0c8.1-0.2,16.7-1.9,25-5.4c2.1-0.9,4.3-1.9,6.4-3.1
		c-0.6-0.2-1.3-0.5-1.9-0.7c-9.7-4-19-10.1-27-18.3c-8-8.2-14.6-18.3-18.6-30c-4-11.6-5.4-24.4-3.8-37.2
		c1.5-12.9,6.6-25.5,14.3-36.5c0.9-1.4,1.9-2.6,3-3.9l3.1-3.8l1.3-1.3c-0.8,0-1.5-0.1-2.3-0.1c-10.4-0.2-20.4,1.9-29.3,5.7
		c-8.9,3.8-16.7,9.4-22.8,15.8c-6.2,6.4-10.8,13.7-14,21.1c-1.7,3.6-2.7,7.4-3.8,11c-0.9,3.7-1.5,7.3-1.8,10.8
		c-1.2,14,2,25.9,5.7,34.3c0,0.1,0,0.2-0.1,0.3c-2.5,7.5-4.5,13.3-5.8,17.3c-0.7,2-1.2,3.5-1.5,4.5c-0.3,1-0.5,1.6-0.5,1.6
		s0.5-0.1,1.5-0.2C410.2,388.4,411.6,388.2,413.4,388z"/>
</g>
<path class="st5" d="M291,361c0,0,5,9,0,9s-25,0-31,2S256,363,291,361z"/>
<path class="st5" d="M319.6,361c0,0-5,9,0,9s25,0,31,2S354.6,363,319.6,361z"/>
<path class="st14" d="M290,437c0,0,15,9,25,10c0,0-2,11-17,8S290,437,290,437z"/>
<path class="st14" d="M761,426c0,0-31,0-34-3c0,0,6,16,15,15S758,429,761,426z"/>
<path class="st10" d="M318.3,696.8c0,0-6.3,20.2-21.3,32.2s-12,15-4,10s40.2-33.1,40.2-33.1S323.5,705.6,318.3,696.8z"/>
<polygon class="st10" points="307.8,532 315,555 318,549 "/>
<path class="st10" d="M778,696c0,0-1,81,4,88s44,6,44,10s-32-1-34,0s9,7,3,8s-12-9-15-5s-21.3,82.3-21.3,82.3S752,868,769,796
	C769,796,773,700,778,696z"/>
<circle class="st13" cx="692" cy="773" r="6"/>
<circle class="st13" cx="687" cy="838" r="6"/>
<path class="st10" d="M204,555c0,0,32-16,114,142C318,697,239,523,204,555z"/>
</svg>
