<?xml version="1.0" encoding="utf-8"?>
<!-- Generator: Adobe Illustrator 24.2.3, SVG Export Plug-In . SVG Version: 6.00 Build 0)  -->
<svg version="1.1" id="Layer_1" xmlns="http://www.w3.org/2000/svg" xmlns:xlink="http://www.w3.org/1999/xlink" x="0px" y="0px"
	 viewBox="0 0 1000 1000" style="enable-background:new 0 0 1000 1000;" xml:space="preserve">
<style type="text/css">
	.st0{fill:#ECECEC;}
	.st1{fill:#CCCCCC;}
	.st2{fill:#E1E1E1;}
	.st3{fill:#F5F5F5;}
	.st4{fill:#FFBB15;}
	.st5{opacity:0.2;}
	.st6{fill:#1A2E35;}
	.st7{fill:#FFFFFF;}
	.st8{fill:#FF8900;}
	.st9{fill:#909293;}
	.st10{fill:#525252;}
	.st11{opacity:0.5;fill:#525252;}
	.st12{opacity:0.3;}
	.st13{display:none;}
	.st14{display:inline;fill:#FF735D;}
	.st15{display:inline;opacity:0.3;}
	.st16{display:inline;fill:#FFFFFF;}
	.st17{display:inline;fill:#375A64;}
	.st18{display:inline;}
	.st19{fill:#EFAC7F;}
	.st20{fill:#E59661;}
	.st21{fill:#3A2D1E;}
	.st22{fill:#4F3A1F;}
	.st23{fill:#D37A57;}
	.st24{fill:#377F7D;}
	.st25{fill:#00ADAD;}
	.st26{opacity:0.1;}
	.st27{fill:#777777;}
	.st28{fill:#22605D;}
	.st29{fill:#213A38;}
</style>
<circle class="st0" cx="500" cy="554" r="430.5"/>
<g>
	<path class="st1" d="M890.2,249c0,0-11-6.5-22.8,19.7c-11.8,26.2-16,41.2-16,41.2s-3.2,5.5-7,2.2c-3.9-3.3-9.4-13-15.6-10.9
		c-6.4,2.2-8.2,9.5-6.4,20.1c1.8,10.6,4.8,33.9,5,36c0.3,2.1-0.8,5.2-3.8,3.4c-3-1.8-20.5-19.5-28.4-10.7
		c-7.9,8.8,1.9,37.5,2.9,40.6c1,3.2,0.4,4.5-1,5.4c-1.5,0.9-6.8-5.6-12-10.5c-5.2-4.8-12.1-9.5-16.2-4c-4.1,5.5-4.4,27.4,18.1,61.7
		l11.5,15.3l19.1-2c40.5-6.8,56.4-21.9,57.6-28.6s-6.9-8.6-13.9-9.2c-7.1-0.5-15.5-0.1-15.8-1.7c-0.4-1.7,0.3-3,3.3-4.4
		c3-1.4,30.7-13.7,31.8-25.4c1.1-11.8-23.8-12.7-27.1-13.6c-3.4-0.9-1.8-3.8-0.1-5c1.7-1.2,20.9-14.8,29.9-20.7
		c9-5.9,13.2-12.2,10.4-18.3c-2.6-6-13.5-3.5-18.6-4c-5.1-0.6-3.1-6.7-3.1-6.7s8.2-13.3,19.4-39.7c11.3-26.4-1.3-30.1-1.3-30.1"/>
</g>
<g>
	<g>
		<path class="st2" d="M795.6,462.1c8.4-19.4,23.8-53.6,36.9-83c13.1-29.4,24.9-56,33.4-75.4c4.2-9.7,7.6-17.5,10-22.9
			c1.2-2.7,2.1-4.8,2.7-6.2c0.3-0.7,0.5-1.2,0.7-1.6c0.2-0.4,0.3-0.5,0.3-0.5s-0.1,0.2-0.2,0.6c-0.2,0.4-0.4,0.9-0.7,1.6
			c-0.6,1.5-1.5,3.6-2.6,6.3c-2.3,5.4-5.6,13.3-9.8,23c-8.4,19.4-20.1,46-33.2,75.4c-13.1,29.4-28.6,63.6-37.1,82.9"/>
	</g>
</g>
<g>
	<g>
		<path class="st2" d="M836.1,315c0,0,0.2,0.4,0.5,1.3c0.3,0.8,0.7,2,1.3,3.5c1,3,2.3,7.2,3.7,11.8c1.3,4.6,2.5,8.7,3.4,11.9
			c0.4,1.4,0.8,2.6,1.1,3.6c0.3,0.8,0.4,1.3,0.3,1.3c0,0-0.2-0.4-0.6-1.3c-0.3-0.8-0.7-2-1.2-3.5c-1-3-2.2-7.2-3.6-11.9
			c-1.3-4.6-2.6-8.7-3.5-11.9c-0.4-1.4-0.8-2.6-1.1-3.6C836.1,315.5,836,315.1,836.1,315z"/>
	</g>
</g>
<g>
	<g>
		<path class="st2" d="M848.1,348.8c-0.1-0.2,8.5-3.2,19-6.8c10.6-3.6,19.2-6.4,19.2-6.3c0.1,0.2-8.5,3.2-19,6.8
			C856.7,346.1,848.1,348.9,848.1,348.8z"/>
	</g>
</g>
<g>
	<g>
		<path class="st2" d="M825.9,393c0,0,0.5-0.1,1.4-0.1c1,0,2.3-0.1,3.8-0.2c3.2-0.2,7.7-0.4,12.6-0.8c4.9-0.4,9.3-1,12.6-1.4
			c1.5-0.2,2.8-0.4,3.8-0.5c0.9-0.1,1.4-0.2,1.4-0.1c0,0-0.5,0.2-1.4,0.3c-0.9,0.2-2.2,0.4-3.8,0.7c-3.2,0.5-7.6,1.1-12.6,1.6
			c-4.9,0.4-9.4,0.6-12.6,0.6c-1.6,0-2.9,0-3.8,0C826.4,393.1,825.9,393.1,825.9,393z"/>
	</g>
</g>
<g>
	<g>
		<path class="st2" d="M808.3,364.9c0,0,0.3,0.3,0.8,1c0.5,0.8,1.2,1.8,2,2.9c1.7,2.5,3.9,5.9,6.4,9.8c2.5,3.8,4.7,7.3,6.2,9.9
			c0.7,1.2,1.3,2.2,1.8,3c0.4,0.7,0.6,1.1,0.6,1.2c0,0-0.3-0.3-0.8-1c-0.5-0.8-1.2-1.8-2-2.9c-1.7-2.5-3.9-5.9-6.4-9.8
			c-2.5-3.8-4.7-7.3-6.2-9.9c-0.7-1.2-1.3-2.2-1.8-3C808.5,365.3,808.3,364.9,808.3,364.9z"/>
	</g>
</g>
<g>
	<g>
		<path class="st2" d="M783.8,401.5c0,0,0.4,0.5,1,1.3c0.7,1,1.5,2.2,2.6,3.7c2.1,3.2,5.1,7.6,8.3,12.5c3.2,4.9,6.1,9.3,8.1,12.6
			c1,1.6,1.8,2.8,2.4,3.8c0.6,0.9,0.9,1.4,0.8,1.5c0,0-0.4-0.5-1-1.3c-0.7-1-1.5-2.2-2.6-3.7c-2.1-3.2-5.1-7.6-8.3-12.5
			c-3.2-4.9-6.1-9.3-8.1-12.6c-1-1.6-1.8-2.8-2.4-3.8C784.1,402,783.8,401.5,783.8,401.5z"/>
	</g>
</g>
<g>
	<g>
		<path class="st2" d="M806.7,435.9c0,0,0.6-0.1,1.8-0.2c1.2-0.1,2.9-0.2,4.8-0.4c4.1-0.3,9.7-0.8,16-1.6c6.2-0.7,11.8-1.5,15.9-2.1
			c1.9-0.3,3.6-0.5,4.8-0.7c1.1-0.2,1.8-0.2,1.8-0.2c0,0-0.6,0.2-1.7,0.4c-1.1,0.2-2.8,0.5-4.8,0.9c-4,0.7-9.7,1.6-15.9,2.3
			c-6.2,0.7-11.9,1.1-16,1.4c-2.1,0.1-3.7,0.2-4.9,0.2C807.4,435.9,806.7,435.9,806.7,435.9z"/>
	</g>
</g>
<g>
	<path class="st1" d="M141.5,360.8c0,0-9.5,3.7,1.1,23.9c10.6,20.2,17.9,30.1,17.9,30.1s1.9,4.7-2.1,5.5c-4,0.8-12.7-0.5-14.4,4.4
		c-1.8,5.1,1.9,9.8,9.4,13.8c7.5,4.1,23.5,13.6,24.9,14.5c1.4,0.9,2.9,3,0.2,4c-2.6,1-22.2,3.2-20.6,12.5
		c1.6,9.2,24.3,17.2,26.8,18.1c2.5,0.9,3.1,1.9,2.9,3.3c-0.2,1.3-6.8,1.5-12.4,2.4c-5.6,0.9-11.8,2.9-10.4,8.1
		c1.4,5.3,14.9,16.2,47.4,19l15.1,0.3l8.1-12.9c15.6-28.6,14-45.9,10.4-50c-3.6-4.1-8.7,0.1-12.5,4.2c-3.8,4.1-7.6,9.6-8.8,9
		c-1.2-0.6-1.8-1.7-1.2-4.2c0.6-2.6,6.5-25.8-0.3-32.3c-6.8-6.5-19.5,8.6-21.8,10.3c-2.2,1.6-3.3-0.8-3.2-2.4
		c0.1-1.7,1-20.3,1.7-28.8c0.7-8.5-1.1-14.2-6.3-15.5c-5-1.3-8.8,6.7-11.6,9.6c-2.8,2.9-5.7-1.3-5.7-1.3s-4.3-11.6-15.2-31.6
		c-11-20-19.5-13.9-19.5-13.9"/>
</g>
<g>
	<g>
		<path class="st2" d="M228.2,524.1c-8-14.7-21.8-41.1-33.7-63.6c-11.9-22.6-22.8-43-30.7-57.7c-4-7.4-7.2-13.3-9.4-17.4
			c-1.1-2-2-3.6-2.6-4.7c-0.3-0.5-0.5-0.9-0.7-1.2c-0.1-0.3-0.2-0.4-0.2-0.4s0.1,0.1,0.3,0.4c0.2,0.3,0.4,0.7,0.7,1.2
			c0.6,1.1,1.5,2.7,2.6,4.7c2.3,4.1,5.5,10,9.5,17.4c8,14.7,18.9,35.1,30.8,57.7c11.9,22.6,25.7,49,33.6,63.7"/>
	</g>
</g>
<g>
	<g>
		<path class="st2" d="M156.2,427c0,0,0.4,0.1,1.1,0.3c0.7,0.2,1.6,0.5,2.8,1c2.4,0.8,5.6,2.1,9.2,3.5c3.5,1.4,6.7,2.7,9.1,3.7
			c1.1,0.4,2,0.8,2.8,1.1c0.7,0.3,1,0.4,1,0.4s-0.4-0.1-1.1-0.3c-0.7-0.2-1.6-0.5-2.8-1c-2.4-0.9-5.6-2.1-9.1-3.6
			c-3.5-1.4-6.7-2.7-9.1-3.6c-1.1-0.4-2-0.8-2.8-1.1C156.6,427.1,156.2,427,156.2,427z"/>
	</g>
</g>
<g>
	<g>
		<path class="st2" d="M183.2,436c-0.1,0,2.1-6.8,5.1-15.2c2.9-8.4,5.4-15.1,5.5-15c0.1,0-2.1,6.8-5.1,15.2
			C185.8,429.3,183.3,436,183.2,436z"/>
	</g>
</g>
<g>
	<g>
		<path class="st2" d="M199.9,471.5c0,0,0.2-0.4,0.6-0.9c0.5-0.7,1.1-1.5,1.8-2.5c1.5-2.1,3.5-5,5.7-8.3c2.1-3.3,4-6.3,5.3-8.5
			c0.6-1,1.1-1.9,1.6-2.6c0.4-0.6,0.6-0.9,0.6-0.9c0,0-0.1,0.4-0.5,1c-0.3,0.6-0.8,1.6-1.4,2.7c-1.2,2.3-3,5.3-5.2,8.6
			c-2.1,3.3-4.2,6.2-5.8,8.2c-0.8,1-1.4,1.8-1.9,2.4C200.2,471.2,200,471.5,199.9,471.5z"/>
	</g>
</g>
<g>
	<g>
		<path class="st2" d="M173.8,468.7c0,0,0.4,0,1,0c0.8,0.1,1.7,0.1,2.8,0.2c2.4,0.2,5.6,0.5,9.2,0.8c3.6,0.3,6.9,0.7,9.2,0.9
			c1.1,0.1,2,0.2,2.8,0.3c0.7,0.1,1,0.2,1,0.2c0,0-0.4,0-1,0c-0.8-0.1-1.7-0.1-2.8-0.2c-2.4-0.2-5.6-0.5-9.2-0.8
			c-3.6-0.3-6.9-0.7-9.2-0.9c-1.1-0.1-2-0.2-2.8-0.3C174.1,468.8,173.8,468.7,173.8,468.7z"/>
	</g>
</g>
<g>
	<g>
		<path class="st2" d="M184.6,501.9c0,0,0.5,0,1.3,0c0.9,0.1,2.1,0.1,3.6,0.2c3,0.2,7.2,0.5,11.8,0.9c4.6,0.4,8.8,0.8,11.8,1.1
			c1.4,0.2,2.6,0.3,3.6,0.4c0.8,0.1,1.3,0.2,1.3,0.2c0,0-0.5,0-1.3,0c-0.9-0.1-2.1-0.1-3.6-0.2c-3-0.2-7.2-0.5-11.8-0.9
			c-4.6-0.4-8.8-0.8-11.8-1.1c-1.4-0.2-2.6-0.3-3.6-0.4C185.1,502,184.6,501.9,184.6,501.9z"/>
	</g>
</g>
<g>
	<g>
		<path class="st2" d="M217.3,504.4c0,0,0.2-0.4,0.7-1.2c0.5-0.8,1.3-1.9,2.1-3.2c1.8-2.7,4.2-6.5,6.8-10.7
			c2.6-4.2,4.9-8.1,6.5-10.9c0.8-1.4,1.4-2.5,1.9-3.3c0.5-0.8,0.7-1.2,0.7-1.2c0,0-0.2,0.5-0.6,1.3c-0.4,0.8-1,2-1.8,3.4
			c-1.5,2.9-3.8,6.8-6.4,11c-2.6,4.2-5.1,8-7,10.7c-0.9,1.3-1.7,2.4-2.2,3.1C217.6,504,217.3,504.4,217.3,504.4z"/>
	</g>
</g>
<rect x="259.9" y="371.1" class="st3" width="77.9" height="20.4"/>
<g>
	<g>
		<g>
			<g>
				<g>
					<g>
						<g>
							<path class="st4" d="M763.3,324.3H236.7c-9.1,0-16.4,7.4-16.4,16.4v372c0,9.1,7.4,16.4,16.4,16.4h202.1
								c0,0,12.9,39.8-27,60.3h189c0,0-45-15.4-33.4-60.3h196c9.1,0,16.4-7.4,16.4-16.4v-372C779.8,331.6,772.4,324.3,763.3,324.3z"
								/>
						</g>
					</g>
				</g>
			</g>
			<g class="st5">
				<g>
					<g>
						<g>
							<path class="st6" d="M507,690c7.2,10.2-4,21.5-14.3,14.3c-0.3-0.2-0.6-0.5-0.9-0.9c-7.1-10.2,4.1-21.4,14.3-14.3
								C506.5,689.4,506.8,689.7,507,690z"/>
						</g>
					</g>
				</g>
			</g>
		</g>
		<g>
			<g>
				<path class="st7" d="M770.7,661.1H229.3V345.7c0-8.1,6.6-14.7,14.7-14.7H756c8.1,0,14.7,6.6,14.7,14.7V661.1z"/>
			</g>
		</g>
	</g>
	<g>
		<g>
			<circle class="st2" cx="246.5" cy="345.4" r="3.8"/>
		</g>
		<g>
			<circle class="st2" cx="257.9" cy="345.4" r="3.8"/>
		</g>
		<g>
			<circle class="st2" cx="268.6" cy="345.4" r="3.8"/>
		</g>
	</g>
	<g>
		<g>
			<path class="st0" d="M770.7,358.5H229.3v-13.6c0-7.6,6.2-13.8,13.8-13.8h516.2c6.3,0,11.4,5.1,11.4,11.4V358.5z"/>
		</g>
		<rect x="229.5" y="402.9" class="st3" width="540" height="120.5"/>
		<rect x="714" y="371.1" class="st3" width="42.7" height="20.4"/>
		<rect x="631.3" y="371.1" class="st3" width="69.8" height="20.4"/>
		<rect x="547" y="371.1" class="st3" width="69.8" height="20.4"/>
		<rect x="255.8" y="557.4" class="st3" width="475.9" height="21.4"/>
		<rect x="255.8" y="597.1" class="st3" width="475.9" height="21.4"/>
	</g>
	<g>
		<g>
			<g>
				<g>
					<polygon class="st8" points="443.2,475.4 456.3,462.2 479.2,483.1 519.5,442.8 531.7,455.9 477.3,508.4 					"/>
				</g>
			</g>
		</g>
	</g>
</g>
<g>
	<g>
		<g>
			<g>
				<g>
					<g>
						<g>
							<g>
								<g>
									<g>
										<g>
											<g>
												<g>
													<g>
														<g>
															<g>
																<g>
																	<path class="st9" d="M874.6,771.8l-201.5,0c-5.5,0-9.9-4.4-9.9-9.9l0-297.8c0-5.5,4.4-9.9,9.9-9.9l201.5,0
																		c5.5,0,9.9,4.4,9.9,9.9l0,297.8C884.4,767.4,880,771.8,874.6,771.8z"/>
																</g>
															</g>
														</g>
													</g>
												</g>
											</g>
										</g>
									</g>
								</g>
							</g>
						</g>
						<g>
							<g>
								<g>
									<g>
										<g>
											<g>
												<g>
													<g>
														<g>
															<g>
																<path class="st9" d="M782.3,755.8c0,4.7-3.8,8.5-8.5,8.5c-4.7,0-8.5-3.8-8.5-8.5c0-4.7,3.8-8.5,8.5-8.5
																	C778.5,747.3,782.3,751.1,782.3,755.8z"/>
															</g>
														</g>
													</g>
												</g>
											</g>
										</g>
									</g>
								</g>
							</g>
						</g>
					</g>
				</g>
			</g>
		</g>
	</g>
	<g>
		<g>
			<path class="st0" d="M801.4,469.5h-45.2c-1.7,0-3.2-1.4-3.2-3.2l0,0c0-1.7,1.4-3.2,3.2-3.2h45.2c1.7,0,3.2,1.4,3.2,3.2l0,0
				C804.6,468.1,803.2,469.5,801.4,469.5z"/>
		</g>
	</g>
	<g>
		<g>
			<g>
				<g>
					<g>
						<g>
							<g>
								<g>
									<g>
										<path class="st7" d="M874,742.1l-200.7,0c-1.8,0-3.3-1.5-3.3-3.3l0-258.6c0-1.8,1.5-3.3,3.3-3.3l200.7,0
											c1.8,0,3.3,1.5,3.3,3.3l0,258.6C877.3,740.6,875.8,742.1,874,742.1z"/>
									</g>
								</g>
							</g>
						</g>
					</g>
				</g>
			</g>
		</g>
	</g>
	<g>
		<rect x="671.2" y="514.7" class="st3" width="205.2" height="75.1"/>
		<rect x="675.8" y="489.2" class="st3" width="48.6" height="12.7"/>
		<rect x="828.8" y="489.2" class="st3" width="43.5" height="12.7"/>
		<rect x="777" y="489.2" class="st3" width="43.5" height="12.7"/>
		<rect x="683.9" y="628.5" class="st3" width="175.2" height="13.3"/>
		<rect x="683.9" y="603.3" class="st3" width="175.2" height="13.3"/>
		<rect x="683.9" y="680.1" class="st3" width="175.2" height="13.3"/>
		<rect x="683.9" y="654.9" class="st3" width="175.2" height="13.3"/>
	</g>
	<g>
		<g>
			<g>
				<g>
					<polygon class="st8" points="734,580.8 745.8,569 766.4,587.8 802.6,551.6 813.6,563.4 764.7,610.5 					"/>
				</g>
			</g>
		</g>
	</g>
</g>
<g>
	<g>
		<g>
			<g>
				<g>
					<g>
						<g>
							<g>
								<g>
									<g>
										<g>
											<g>
												<path class="st10" d="M935.6,795.2l-79.5,0c-9.6,0-17.3-7.7-17.3-17.3l0-198.8c0-9.5,7.8-17.3,17.3-17.3l79.5,0
													c9.6,0,17.3,7.7,17.3,17.3l0,198.8C953,787.5,945.2,795.2,935.6,795.2z"/>
											</g>
										</g>
									</g>
								</g>
							</g>
						</g>
					</g>
				</g>
			</g>
			<g>
				<g>
					<g>
						<g>
							<g>
								<g>
									<g>
										<g>
											<path class="st7" d="M936.2,567.8l-15.5-0.1c-2.1,0-3.8,1.7-3.8,3.9l0,2.8c0,2.2-1.7,3.9-3.8,3.9l-30.2-0.1
												c-2.1,0-3.7-1.8-3.7-3.9l0-2.8c0-2.2-1.7-3.9-3.7-3.9l-5.4,0l-13.5-0.1c-6.7,0-12.2,5.4-12.2,12.1l-0.8,195.2
												c0,6.7,5.4,12.2,12.1,12.2l79.6,0.4c6.7,0,12.2-5.4,12.2-12.1l0.8-195.2C948.3,573.3,942.9,567.9,936.2,567.8z"/>
										</g>
									</g>
								</g>
							</g>
						</g>
					</g>
				</g>
			</g>
		</g>
	</g>
	<g>
		<rect x="844.1" y="616.4" class="st3" width="103.6" height="37.9"/>
		<rect x="846.4" y="603.6" class="st3" width="24.5" height="6.4"/>
		<rect x="923.7" y="603.6" class="st3" width="22" height="6.4"/>
		<rect x="897.5" y="603.6" class="st3" width="22" height="6.4"/>
		<rect x="850.5" y="673.9" class="st3" width="88.5" height="6.7"/>
		<rect x="850.5" y="661.2" class="st3" width="88.5" height="6.7"/>
		<rect x="850.5" y="700" class="st3" width="88.5" height="6.7"/>
		<rect x="850.5" y="711.8" class="st3" width="88.5" height="6.7"/>
		<rect x="850.5" y="725.4" class="st3" width="88.5" height="6.7"/>
		<rect x="850.5" y="739" class="st3" width="88.5" height="6.7"/>
		<rect x="850.5" y="752.6" class="st3" width="88.5" height="6.7"/>
		<rect x="850.5" y="687.2" class="st3" width="88.5" height="6.7"/>
	</g>
	<g>
		<g>
			<g>
				<g>
					<polygon class="st8" points="867.9,685.4 876.4,676.8 892.9,691.5 925.3,660.3 933.2,668.9 891.7,708 					"/>
				</g>
			</g>
		</g>
	</g>
</g>
<g>
	<g>
		<g>
			<g>
				<g>
					<path class="st9" d="M411.8,782.3H56.7c-11.7,0-21.2-9.5-21.2-21.2V540.7c0-11.7,9.5-21.2,21.2-21.2h355.1
						c11.7,0,21.2,9.5,21.2,21.2v220.4C433,772.8,423.5,782.3,411.8,782.3z"/>
				</g>
			</g>
		</g>
	</g>
	<g>
		<g>
			<g>
				<g>
					<path class="st9" d="M428.7,788.3H42c-12.1,0-22-9.8-22-22v-1h430.6v1C450.6,778.5,440.8,788.3,428.7,788.3z"/>
				</g>
			</g>
		</g>
	</g>
	<g>
		<g>
			<g>
				<g>
					<rect x="46.2" y="529.9" class="st9" width="375" height="222"/>
				</g>
			</g>
		</g>
	</g>
	<g>
		<g>
			<g>
				<g>
					<polygon class="st11" points="195.1,762.9 200.4,771.4 275.6,771.4 280.6,762.9 					"/>
				</g>
			</g>
		</g>
	</g>
</g>
<g>
	<g>
		<g>
			<g>
				<g>
					<g>
						<g>
							<g>
								<path class="st0" d="M409.5,751.2H58.7c-2.6,0-4.8-2.1-4.8-4.8V542.2c0-2.6,2.1-4.8,4.8-4.8h350.8c2.6,0,4.8,2.1,4.8,4.8
									v204.2C414.3,749,412.1,751.2,409.5,751.2z"/>
							</g>
						</g>
					</g>
				</g>
			</g>
			<g>
				<g>
					<g>
						<g>
							<g>
								<polygon class="st7" points="413.9,751.5 53.5,751.5 53.9,553.4 413.9,553.4 								"/>
							</g>
						</g>
					</g>
				</g>
			</g>
			<g class="st12">
				<g>
					<g>
						<g>
							<g>
								<path class="st10" d="M83.5,545.7c0,1.6-1.3,2.9-2.9,2.9c-1.6,0-2.9-1.3-2.9-2.9c0-1.6,1.3-2.9,2.9-2.9
									C82.2,542.8,83.5,544.1,83.5,545.7z"/>
							</g>
						</g>
					</g>
				</g>
			</g>
			<g class="st12">
				<g>
					<g>
						<g>
							<g>
								<path class="st10" d="M66,545.7c0,1.6-1.3,2.9-2.9,2.9c-1.6,0-2.9-1.3-2.9-2.9c0-1.6,1.3-2.9,2.9-2.9
									C64.8,542.8,66,544.1,66,545.7z"/>
							</g>
						</g>
					</g>
				</g>
			</g>
			<g class="st12">
				<g>
					<g>
						<g>
							<g>
								<path class="st10" d="M74.4,545.7c0,1.6-1.3,2.9-2.9,2.9c-1.6,0-2.9-1.3-2.9-2.9c0-1.6,1.3-2.9,2.9-2.9
									C73.1,542.8,74.4,544.1,74.4,545.7z"/>
							</g>
						</g>
					</g>
				</g>
			</g>
		</g>
	</g>
</g>
<g>
	<rect x="53.9" y="585.3" class="st3" width="360.3" height="80.4"/>
	<rect x="62.8" y="564.2" class="st3" width="52" height="13.6"/>
	<rect x="377.2" y="564.2" class="st3" width="28.5" height="13.6"/>
	<rect x="322.1" y="564.2" class="st3" width="46.6" height="13.6"/>
	<rect x="265.8" y="564.2" class="st3" width="46.6" height="13.6"/>
	<rect x="71.5" y="713.2" class="st3" width="317.6" height="14.3"/>
	<rect x="71.5" y="686.3" class="st3" width="317.6" height="14.3"/>
</g>
<g>
	<g>
		<g>
			<g>
				<polygon class="st8" points="188.4,638.9 201,626.2 225.4,647.9 273.1,601.9 284.9,614.5 223.6,672.2 				"/>
			</g>
		</g>
	</g>
</g>
<g class="st13">
	<circle class="st14" cx="252.3" cy="266.9" r="105.5"/>
	<circle class="st15" cx="252.3" cy="266.9" r="105.5"/>
	<circle class="st14" cx="249.4" cy="260.2" r="105.5"/>
	
		<ellipse transform="matrix(0.7071 -0.7071 0.7071 0.7071 -110.8958 252.5835)" class="st16" cx="249.4" cy="260.2" rx="82" ry="82"/>
	
		<ellipse transform="matrix(0.7071 -0.7071 0.7071 0.7071 -110.8957 252.5836)" class="st14" cx="249.4" cy="260.2" rx="57.7" ry="57.7"/>
	
		<ellipse transform="matrix(0.9175 -0.3978 0.3978 0.9175 -82.9048 120.7039)" class="st16" cx="249.4" cy="260.2" rx="30.5" ry="30.5"/>
	<polygon class="st17" points="331,174.7 328.2,152.2 351.1,127.7 352.7,152 	"/>
	<polygon class="st17" points="380.2,156.8 357,154.9 333.7,177.3 357,179.8 	"/>
	<path class="st15" d="M249.4,261.9l86.6-62c-2.7-4.1-7.1-9.5-11-13.6L250.9,258L249.4,261.9z"/>
	<g class="st18">
		<path class="st6" d="M356.2,147.3c-3.6,3.7-7.2,7.3-10.9,11c-8.7,8.8-17.4,17.6-26.1,26.4c-10.5,10.6-21,21.2-31.4,31.8
			c-9.1,9.2-18.2,18.4-27.3,27.7c-4.4,4.5-9,8.8-13.3,13.5c-0.1,0.1-0.1,0.1-0.2,0.2c-2.6,2.6,1.4,6.6,4,4c3.6-3.7,7.2-7.3,10.9-11
			c8.7-8.8,17.4-17.6,26.1-26.4c10.5-10.6,21-21.2,31.4-31.8c9.1-9.2,18.2-18.4,27.3-27.7c4.4-4.5,9-8.8,13.3-13.5
			c0.1-0.1,0.1-0.1,0.2-0.2C362.7,148.7,358.7,144.7,356.2,147.3L356.2,147.3z"/>
	</g>
</g>
<g>
	<g>
		<g>
			<path class="st19" d="M567.1,497.2c2.7-21.4,21.5-37.2,43.1-36.2l2.1,0.1c23.1,2.4,33.9,23.4,30.8,46.4l-8.9,75.9l-1.8,18.1
				l-50.4-5.2l1-19.6c0,0-22.1-4.5-21.3-26.7C562,539.2,564.5,517.1,567.1,497.2z"/>
		</g>
	</g>
</g>
<g>
	<g>
		<g>
			<g>
				<g>
					<g>
						<path class="st20" d="M582.7,576.6c0,0,14.2,1.5,29.5-7.2c0,0-7.6,15.7-29.7,12.6L582.7,576.6z"/>
					</g>
				</g>
			</g>
		</g>
	</g>
</g>
<g>
	<g>
		<g>
			<g>
				<g>
					<g>
						<g>
							<g>
								<g>
									<path class="st21" d="M572,517.7c-0.1,1.7,1.2,3.2,2.9,3.3c1.7,0.2,3.3-1,3.4-2.7c0.1-1.7-1.2-3.2-2.9-3.3
										C573.6,514.8,572.1,516,572,517.7z"/>
								</g>
							</g>
						</g>
					</g>
				</g>
			</g>
		</g>
	</g>
</g>
<g>
	<g>
		<g>
			<g>
				<g>
					<g>
						<g>
							<g>
								<g>
									<path class="st21" d="M603.1,519.2c-0.1,1.7,1.2,3.2,2.9,3.3c1.7,0.2,3.3-1,3.4-2.7c0.1-1.7-1.2-3.2-2.9-3.3
										C604.7,516.4,603.2,517.6,603.1,519.2z"/>
								</g>
							</g>
						</g>
					</g>
				</g>
			</g>
		</g>
	</g>
</g>
<g>
	<g>
		<g>
			<g>
				<g>
					<g>
						<g>
							<g>
								<g>
									<path class="st20" d="M591.3,535.2c0-0.2-2.1-0.7-5.5-1.3c-0.9-0.1-1.7-0.3-1.8-0.9c-0.2-0.6,0.2-1.6,0.7-2.6
										c0.9-2.1,1.9-4.2,2.9-6.5c4-9.3,7-16.9,6.6-17.1c-0.4-0.2-3.9,7.2-8,16.5c-1,2.3-1.9,4.5-2.8,6.6c-0.4,1-1,2.1-0.6,3.4
										c0.2,0.7,0.8,1.2,1.4,1.3c0.6,0.2,1,0.2,1.5,0.3C589.1,535.3,591.3,535.4,591.3,535.2z"/>
								</g>
							</g>
						</g>
					</g>
				</g>
			</g>
		</g>
	</g>
</g>
<g>
	<g>
		<g>
			<g>
				<path class="st22" d="M569.7,487.1c0,0,6.5-13.6,13.4-16.6c8.3-3.6,11.4,5.5,19.2,3.7c7.8-1.8,15.8-5.2,23.4,1.1
					c8.4,7,4.1,11.4,4.2,21.3c0.3,40.1,7.1,51.7,10,33c0.3-2.1,6.1-3.4,7.4-12.1c1.6-11.3,2.7-25,0.6-33.1
					c-1.8-6.9-5.4-11.7-12.1-17.2c-10.5-8.6-25.5-9.5-35.7-9C589.7,458.8,569.6,469.6,569.7,487.1z"/>
			</g>
		</g>
	</g>
</g>
<g>
	<g>
		<g>
			<g>
				<path class="st19" d="M638.5,529c0.3-3.4,3.4-6,6.8-5.5c4.1,0.6,6.7,4.5,4.7,11.5c-4.2,14.6-12.9,11-12.9,10.6
					C637.1,545.3,638,535.3,638.5,529z"/>
			</g>
		</g>
	</g>
</g>
<path class="st23" d="M584,546c0,0,9,0,15-3c0,0-2,5-8,7S584,546,584,546z"/>
<g>
	<path class="st24" d="M537.3,795.2l134.6,1.8c0,0,37.7-15.8,48-16.2c10.3-0.4,30.9,0.9,40.4,16.2c9.8,15.8,11.2,43.7-19.1,63.9
		c-29.5,19.7-164.2,38-182.7,36.3l-34-45.7c0,0-0.4-37.5,0-39.2c0.4-1.8,6.1-17.8,6.1-17.8L537.3,795.2z"/>
</g>
<g>
	<path class="st24" d="M530.6,794.5c0,0-58.1-21.7-79.5-18.9c-12,1.6-30.7,10.7-32.1,26c-1.4,15.3,2.3,35.9,23,45.8
		c20.7,10,103.3,47,122.9,52.7c19.6,5.7,68.5,19.1,68.5,19.1l18.6-53c0,0-101.4-35.1-106.7-39c-5.4-3.9-18.9-9.3-18.9-9.3
		L530.6,794.5z"/>
</g>
<g>
	<g>
		<path class="st10" d="M506.2,809.9c-0.1,0.1-1.7-1.2-4.5-2.9c-2.8-1.7-6.8-3.8-11.5-5.5c-4.7-1.7-9.2-2.5-12.4-2.9
			c-3.3-0.4-5.3-0.4-5.3-0.6c0,0,0.5-0.1,1.4-0.1c0.9,0,2.3,0,3.9,0.2c3.3,0.3,7.8,1.1,12.6,2.8c4.8,1.7,8.8,3.9,11.5,5.7
			c1.4,0.9,2.4,1.7,3.2,2.3C505.8,809.5,506.2,809.9,506.2,809.9z"/>
	</g>
</g>
<g>
	<g>
		<path class="st25" d="M679,609.2c0,0,16.7,9.6,20.1,21c2.1,6.9,17.7,94.9,20.1,112.2c2.5,17.5-2.7,30.2-10.1,36
			c-7.4,5.8-29.8,13.4-29.8,13.4l-31.6,10.2l-9-23l30-43.2l-2.9-29.1L679,609.2z"/>
	</g>
	<g>
		<path class="st25" d="M646.1,594l-12.6-7.2c0,0-11.5,13.4-27.1,11.8c-15.6-1.6-24.9-13.6-24.9-13.6l-46.6,9.5v0
			c-3.1,0.6-8.8,2.6-14.3,10.4c-6.1,8.7-34.9,47.2-34.9,47.2h-20.2c-5.6,0-10.7,3.1-13.3,8c-3.4,6.6-7.6,15.3-7.2,19
			c0.7,6.1-0.5,23,7.7,28.3c2.6,1.7,12,6.7,19.2,6.3c10.7-0.5,23.2-6.1,30.3-11.1c6.1-4.2,20.2-18.9,25.6-24.6l0,0.1l3.5,122.2
			l122.2-3.5L679,609.2C679,609.2,647.4,594,646.1,594z"/>
	</g>
	<g class="st5">
		<g>
			<path class="st10" d="M586.7,589.7c0.1,0.2-1.3,1-2.8,2.3c-1.5,1.3-2.5,2.7-2.7,2.6c-0.1-0.1,0.7-1.6,2.2-3
				C585,590.2,586.6,589.6,586.7,589.7z"/>
		</g>
	</g>
	<g class="st5">
		<g>
			<path class="st10" d="M599.4,597.1c0.1,0.1-1.1,1.5-2.1,3.4c-1,1.9-1.4,3.7-1.6,3.7c-0.2,0-0.1-1.9,1-4
				C597.8,598.2,599.3,597,599.4,597.1z"/>
		</g>
	</g>
	<g class="st5">
		<g>
			<path class="st10" d="M621.2,604.8c-0.2,0-0.7-1.6-1.4-3.6c-0.7-2-1.4-3.6-1.2-3.7c0.1-0.1,1.1,1.4,1.8,3.5
				C621.1,603,621.3,604.7,621.2,604.8z"/>
		</g>
	</g>
	<g class="st5">
		<g>
			<path class="st10" d="M635.2,598.1c-0.2,0-0.7-2.1-2-4.3c-1.4-2.3-3-3.7-2.9-3.8c0.1-0.1,2,1.1,3.4,3.5
				C635.1,595.9,635.3,598.1,635.2,598.1z"/>
		</g>
	</g>
	<path class="st26" d="M490,657c0,0,0-5,4-3s17,34,13,36s-7-17-10-19s4,20,1,24s-4-5-4-14S490,657,490,657z"/>
</g>
<g>
	<g class="st5">
		
			<image style="overflow:visible;" width="227" height="166" xlink:href="7B6AAEE4BCFF3726.png"  transform="matrix(1 0 0 1 493 675)">
		</image>
	</g>
	<g>
		<g>
			<path class="st2" d="M510,724.8l4.8,90.7c0.2,3.5,3.1,6.2,6.6,6.2l144.5,0.3c3.5,0,6.5-2.8,6.6-6.3l5.5-89.2
				c0.2-3.7-2.5-8.6-6.2-8.7l-155.1,0C512.9,717.8,509.8,721,510,724.8z"/>
		</g>
	</g>
</g>
<g>
	<g>
		<path class="st7" d="M603.5,769.1c0,4.7-3.8,8.5-8.5,8.5c-4.7,0-8.5-3.8-8.5-8.5c0-4.7,3.8-8.5,8.5-8.5
			C599.7,760.6,603.5,764.4,603.5,769.1z"/>
	</g>
</g>
<g>
	<g>
		<path class="st19" d="M471.4,616.5c-0.8-0.7,2.9-15,2.9-15s-9.8-16-10.1-21.1c-0.3-5.2,3.9-15.7,3.9-15.7l28.1-7.2
			c0,0,9,16.8,10.8,22.7c1.8,5.9-3.1,26-3.1,26l-4.8,10.3C499.1,616.5,484.8,627.9,471.4,616.5z"/>
	</g>
	<g>
		<g>
			<path class="st19" d="M464.2,583.5c0,0-1.2-2.1-3-6.2c-1.8-4.2-4-8.4,0-10.7c2.3-1.4,4.2-0.7,4.2-0.7s-0.6-3.6,1.5-4.9
				c2.1-1.3,4.2-0.4,4.2-0.4s-0.7-5,2.4-7.1c3.8-2.7,7.8-0.2,7.8-0.2s-2.4-21.9-2.6-23.1c-0.8-4.3,0.8-8,5.1-7
				c1.6,0.4,2.4,2,4.2,9.2c1.8,7.1,4.8,19.3,4.8,19.3s4.9,8.6,7.3,13.2c2.3,4.7,6.9,15.2,7.3,18.1c1,7.3-3.3,16.9-3.3,16.9
				l-29.9,1.7C474.3,601.6,465.4,585.6,464.2,583.5z"/>
		</g>
		<g>
			<g>
				<path class="st20" d="M466.1,566.8c0.1,0,1,1.2,2.3,3.2c0.7,1.1,1.5,2.3,2.4,3.6c0.4,0.7,0.9,1.4,1.3,2.2
					c0.4,0.8,0.6,1.8,0.4,2.8c-0.2,1-0.9,1.9-1.9,2.2c-1,0.3-1.9,0-2.7-0.3c-0.8-0.4-1.4-0.8-2-1.2c-0.6-0.4-1.1-0.8-1.6-1.2
					c-1-0.8-1.7-1.4-2.2-1.9c-0.5-0.5-0.8-0.7-0.7-0.8c0.1-0.1,1.2,0.9,3.2,2.3c1,0.7,2.2,1.6,3.6,2.3c0.7,0.3,1.5,0.5,2.3,0.3
					c0.7-0.2,1.3-0.9,1.5-1.8c0.2-0.8,0-1.7-0.3-2.5c-0.3-0.8-0.8-1.5-1.2-2.2c-0.8-1.3-1.6-2.6-2.2-3.7
					C466.8,568.2,466,566.9,466.1,566.8z"/>
			</g>
		</g>
		<g>
			<g>
				<path class="st20" d="M490.6,569.4c-0.2,0-0.3-2.1,0.3-4.7c0.6-2.6,1.7-4.4,1.9-4.3c0.2,0.1-0.7,2-1.3,4.5
					C490.9,567.4,490.8,569.4,490.6,569.4z"/>
			</g>
		</g>
		<g>
			<g>
				<path class="st19" d="M502.5,575.9c-2.7-2.7-6.3-4.4-10-5.2c-3.7-0.8-7.6-0.8-11.4-0.4c-3,0.3-6.5,1.1-7.9,3.8
					c-1.4,2.8,0.3,6.4,3,8c2.7,1.6,6,1.7,9.2,1.4c3.1-0.3,6.3-0.9,9.4-0.4"/>
			</g>
			<g>
				<g>
					<path class="st20" d="M494.7,583c0,0.1-0.8-0.1-2.4-0.1c-1.5,0-3.7,0.3-6.4,0.6c-1.4,0.2-2.9,0.3-4.5,0.2
						c-1.6-0.1-3.4-0.4-5-1.3c-1.7-0.9-3.1-2.4-3.7-4.3c-0.3-1-0.4-2.1-0.2-3.1c0.2-1,0.8-2,1.6-2.8c1.7-1.5,3.8-1.9,5.7-2.2
						c2-0.2,3.9-0.3,5.7-0.3c3.6,0,6.9,0.5,9.5,1.4c2.6,0.9,4.5,2.1,5.7,3.1c0.6,0.5,1,0.9,1.3,1.2c0.3,0.3,0.4,0.5,0.4,0.5
						c0,0-0.6-0.6-1.9-1.5c-1.2-0.9-3.1-2-5.7-2.9c-2.6-0.8-5.8-1.3-9.4-1.3c-1.8,0-3.7,0.1-5.6,0.4c-1.9,0.3-3.9,0.8-5.4,2.1
						c-0.7,0.6-1.2,1.5-1.5,2.4c-0.2,0.9-0.1,1.9,0.2,2.8c0.6,1.8,1.9,3.2,3.4,4c1.5,0.8,3.2,1.1,4.8,1.3c1.6,0.1,3.1,0,4.4-0.1
						c2.7-0.3,4.9-0.5,6.5-0.4c0.8,0,1.4,0.1,1.8,0.2C494.5,582.9,494.7,583,494.7,583z"/>
				</g>
			</g>
		</g>
		<g>
			<g>
				<path class="st19" d="M466.3,567.2c3.1,4.8,5.9,10,8.6,15.1c0.8,1.5,1.6,3,3,3.9c1.1,0.7,3.9-0.6,5.2-1l-8.6-19.6"/>
			</g>
			<g>
				<g>
					<path class="st20" d="M474.5,565.5c0,0,0.3,0.5,0.8,1.5c0.5,1.1,1.1,2.4,1.9,4.1c1.6,3.5,3.8,8.4,6.2,13.9l0.1,0.3l-0.3,0.1
						c-0.9,0.3-1.9,0.8-3,1c-0.4,0.1-0.9,0.2-1.3,0.2c-0.2,0-0.5,0-0.7-0.1c-0.2-0.1-0.5-0.2-0.7-0.3c-0.7-0.5-1.3-1.2-1.7-1.9
						c-0.9-1.4-1.5-2.8-2.2-4.1c-1.4-2.6-2.6-5-3.7-6.9c-1.1-1.9-2-3.5-2.6-4.6c-0.6-1.1-1-1.7-0.9-1.7c0,0,0.5,0.5,1.1,1.6
						c0.7,1,1.7,2.6,2.8,4.5c1.1,1.9,2.4,4.2,3.8,6.8c0.7,1.3,1.4,2.7,2.2,4c0.4,0.6,0.9,1.2,1.6,1.7c0.5,0.4,1.4,0.3,2.2,0.1
						c1-0.3,2-0.7,3-1l-0.2,0.4c-2.4-5.6-4.6-10.5-6.1-14c-0.7-1.7-1.3-3.1-1.7-4.2C474.6,566.1,474.4,565.5,474.5,565.5z"/>
				</g>
			</g>
		</g>
		<g>
			<g>
				<path class="st19" d="M472.1,559.7c2.8,7,5.6,13.9,8.3,20.9c0.6,1.5,1.2,3,2.2,4.2c1,1.2,2.6,2.1,4.2,1.8
					c2.2-0.3,3.6-2.6,3.7-4.8c0.1-2.2-0.8-4.3-1.6-6.3c-2.5-6.3-4.5-12.9-6-19.5"/>
			</g>
			<g>
				<g>
					<path class="st20" d="M483.1,555.9c0,0,0.1,0.2,0.2,0.6c0.1,0.5,0.3,1.1,0.5,1.8c0.4,1.6,1.1,3.9,1.9,6.7
						c0.9,2.8,2,6.2,3.4,9.8c0.7,1.8,1.6,3.7,1.7,6c0.1,1.1-0.1,2.3-0.6,3.3c-0.5,1-1.3,2-2.5,2.5c-1.2,0.5-2.5,0.3-3.5-0.3
						c-1-0.5-1.9-1.4-2.5-2.3c-1.2-1.9-1.8-3.9-2.5-5.7c-1.4-3.6-2.7-6.9-3.8-9.7c-1-2.7-1.9-4.9-2.5-6.6c-0.3-0.7-0.5-1.3-0.7-1.8
						c-0.1-0.4-0.2-0.6-0.2-0.6c0,0,0.1,0.2,0.3,0.6c0.2,0.5,0.5,1,0.8,1.8c0.7,1.6,1.6,3.8,2.7,6.5c1.1,2.8,2.5,6,3.9,9.7
						c0.8,1.8,1.4,3.8,2.5,5.5c0.6,0.9,1.3,1.6,2.2,2.1c0.9,0.5,2,0.6,3,0.3c1-0.4,1.7-1.2,2.2-2.1c0.5-0.9,0.6-2,0.6-3
						c-0.1-2.1-1-4-1.7-5.8c-1.4-3.7-2.5-7-3.3-9.9c-0.8-2.9-1.4-5.2-1.7-6.8c-0.2-0.8-0.3-1.4-0.4-1.9
						C483.1,556.1,483,555.9,483.1,555.9z"/>
				</g>
			</g>
		</g>
	</g>
	<g>
		<g>
			<path class="st19" d="M472.8,608.6c0,0-19.1,56.2-19.8,59s3.8,22.8,12,27.6c8.3,4.8,24.3-15.1,26.3-22.3c2-7.3,0-19.6,0-19.6
				l12.9-48.4"/>
		</g>
	</g>
	<g>
		<g>
			<path class="st20" d="M491.4,599.9c0,0.1-0.7,0.1-1.8-0.2c-1.1-0.3-2.5-1-3.8-2.2c-1.3-1.2-2.1-2.5-2.5-3.6
				c-0.4-1.1-0.5-1.8-0.4-1.8c0.2-0.1,0.8,2.7,3.3,4.9C488.6,599.3,491.4,599.7,491.4,599.9z"/>
		</g>
	</g>
</g>
<g>
	<g>
		<path class="st10" d="M335,402.8H178.5c-3.8,0-6.9-3.1-6.9-6.9V168c0-3.8,3.1-6.9,6.9-6.9H335c3.8,0,6.9,3.1,6.9,6.9v227.9
			C341.9,399.7,338.8,402.8,335,402.8z"/>
	</g>
</g>
<g class="st12">
	<g>
		<polygon points="187.7,396.8 330.5,396 332.1,368.4 327.8,351.8 186.4,373.9 		"/>
	</g>
</g>
<g class="st12">
	<g>
		<polygon points="299.7,161.6 302.9,171.2 302.9,175.9 299.3,175.9 		"/>
	</g>
</g>
<g>
	<polygon class="st7" points="179,171 179,393 334.1,393 334.1,353.3 334.1,171 	"/>
</g>
<g>
	<g>
		<polygon class="st27" points="270.4,146.5 250.5,146.5 252.8,163.6 267.8,163.6 		"/>
	</g>
</g>
<g>
	<g>
		<path class="st9" d="M299.7,177.8h-78.5v-18.7c0-2.2,1.8-4.1,4.1-4.1h70.4c2.2,0,4.1,1.8,4.1,4.1V177.8z"/>
	</g>
</g>
<g>
	<g>
		<path class="st10" d="M244.3,197.3c0,0.1-10.6,0.2-23.7,0.2c-13.1,0-23.7-0.1-23.7-0.2c0-0.1,10.6-0.2,23.7-0.2
			C233.7,197.1,244.3,197.2,244.3,197.3z"/>
	</g>
</g>
<g>
	<g>
		<path class="st10" d="M244.3,205.6c0,0.1-10.6,0.2-23.7,0.2c-13.1,0-23.7-0.1-23.7-0.2c0-0.1,10.6-0.2,23.7-0.2
			C233.7,205.5,244.3,205.5,244.3,205.6z"/>
	</g>
</g>
<g>
	<g>
		<path class="st10" d="M244.3,214c0,0.1-10.6,0.2-23.7,0.2c-13.1,0-23.7-0.1-23.7-0.2c0-0.1,10.6-0.2,23.7-0.2
			C233.7,213.8,244.3,213.9,244.3,214z"/>
	</g>
</g>
<g>
	<g>
		<path class="st10" d="M244.3,222.3c0,0.1-10.6,0.2-23.7,0.2c-13.1,0-23.7-0.1-23.7-0.2c0-0.1,10.6-0.2,23.7-0.2
			C233.7,222.1,244.3,222.2,244.3,222.3z"/>
	</g>
</g>
<g>
	<g>
		<path class="st10" d="M244.3,230.6c0,0.1-10.6,0.2-23.7,0.2c-13.1,0-23.7-0.1-23.7-0.2c0-0.1,10.6-0.2,23.7-0.2
			C233.7,230.4,244.3,230.5,244.3,230.6z"/>
	</g>
</g>
<g>
	<g>
		<path class="st10" d="M244.3,238.9c0,0.1-10.6,0.2-23.7,0.2c-13.1,0-23.7-0.1-23.7-0.2c0-0.1,10.6-0.2,23.7-0.2
			C233.7,238.8,244.3,238.8,244.3,238.9z"/>
	</g>
</g>
<g>
	<g>
		<path class="st10" d="M212.5,332.2c0,0,0-0.1,0-0.3c0-0.2,0-0.4,0-0.7c0-0.7,0-1.6,0-2.7c0-2.4,0-5.7-0.1-9.7l0.1,0.1
			c-3.9,0-8.5,0-13.4,0c0,0,0.3-0.3,0.2-0.2v0v0v0v0v0.1v0.1l0,0.2l0,0.5c0,0.3,0,0.6,0,0.9c0,0.6,0,1.2,0,1.8c0,1.2,0,2.3,0,3.5
			c0,2.2,0,4.4,0,6.3l-0.1-0.1c4,0,7.3,0.1,9.7,0.1c1.2,0,2.1,0,2.7,0c0.3,0,0.5,0,0.7,0C212.4,332.2,212.5,332.2,212.5,332.2
			c0,0-0.1,0-0.2,0c-0.2,0-0.4,0-0.7,0c-0.7,0-1.6,0-2.7,0c-2.4,0-5.7,0-9.8,0.1l-0.1,0l0-0.1c0-1.9,0-4.1,0-6.3c0-1.1,0-2.3,0-3.5
			c0-0.6,0-1.2,0-1.8c0-0.3,0-0.6,0-0.9l0-0.5V319v-0.1v-0.1v0v0v0v0c-0.1,0.1,0.2-0.2,0.2-0.2c4.9,0,9.5,0,13.4,0l0.1,0l0,0.1
			c0,4-0.1,7.4-0.1,9.8c0,1.1,0,2,0,2.7c0,0.3,0,0.5,0,0.7C212.5,332.1,212.5,332.2,212.5,332.2z"/>
	</g>
</g>
<g>
	<g>
		<rect x="220.9" y="321.9" class="st2" width="93.4" height="7.8"/>
	</g>
</g>
<g>
	<g>
		<path class="st10" d="M212.5,355.4c0,0,0-0.1,0-0.3c0-0.2,0-0.4,0-0.7c0-0.7,0-1.6,0-2.7c0-2.4,0-5.7-0.1-9.7l0.1,0.1
			c-3.9,0-8.5,0-13.4,0c0,0,0.3-0.3,0.2-0.2v0v0v0v0v0.1v0.1l0,0.2l0,0.5c0,0.3,0,0.6,0,0.9c0,0.6,0,1.2,0,1.8c0,1.2,0,2.3,0,3.5
			c0,2.2,0,4.4,0,6.3l-0.1-0.1c4,0,7.3,0.1,9.7,0.1c1.2,0,2.1,0,2.7,0c0.3,0,0.5,0,0.7,0C212.4,355.4,212.5,355.4,212.5,355.4
			c0,0-0.1,0-0.2,0c-0.2,0-0.4,0-0.7,0c-0.7,0-1.6,0-2.7,0c-2.4,0-5.7,0-9.8,0.1l-0.1,0l0-0.1c0-1.9,0-4.1,0-6.3c0-1.1,0-2.3,0-3.5
			c0-0.6,0-1.2,0-1.8c0-0.3,0-0.6,0-0.9l0-0.5v-0.2v-0.1v-0.1v0v0v0v0c-0.1,0.1,0.2-0.2,0.2-0.2c4.9,0,9.5,0,13.4,0l0.1,0l0,0.1
			c0,4-0.1,7.4-0.1,9.8c0,1.1,0,2,0,2.7c0,0.3,0,0.5,0,0.7C212.5,355.3,212.5,355.4,212.5,355.4z"/>
	</g>
</g>
<g>
	<g>
		<rect x="220.9" y="345.1" class="st2" width="93.4" height="7.8"/>
	</g>
</g>
<g>
	<g>
		<g>
			<path class="st10" d="M212.5,309c0,0,0-0.1,0-0.3c0-0.2,0-0.4,0-0.7c0-0.7,0-1.6,0-2.7c0-2.4,0-5.7-0.1-9.7l0.1,0.1
				c-3.9,0-8.5,0-13.4,0c0,0,0.3-0.3,0.2-0.2v0v0v0v0v0.1v0.1l0,0.2l0,0.5c0,0.3,0,0.6,0,0.9c0,0.6,0,1.2,0,1.8c0,1.2,0,2.3,0,3.5
				c0,2.2,0,4.4,0,6.3l-0.1-0.1c4,0,7.3,0.1,9.7,0.1c1.2,0,2.1,0,2.7,0c0.3,0,0.5,0,0.7,0C212.4,309,212.5,309,212.5,309
				s-0.1,0-0.2,0c-0.2,0-0.4,0-0.7,0c-0.7,0-1.6,0-2.7,0c-2.4,0-5.7,0-9.8,0.1l-0.1,0l0-0.1c0-1.9,0-4.1,0-6.3c0-1.1,0-2.3,0-3.5
				c0-0.6,0-1.2,0-1.8c0-0.3,0-0.6,0-0.9l0-0.5v-0.2v-0.1v-0.1v0v0v0v0c-0.1,0.1,0.2-0.2,0.2-0.2c4.9,0,9.5,0,13.4,0l0.1,0l0,0.1
				c0,4-0.1,7.4-0.1,9.8c0,1.1,0,2,0,2.7c0,0.3,0,0.5,0,0.7C212.5,308.9,212.5,309,212.5,309z"/>
		</g>
	</g>
	<g>
		<g>
			<rect x="220.9" y="298.7" class="st2" width="93.4" height="7.8"/>
		</g>
	</g>
	<g>
		<g>
			<g>
				<g>
					<g>
						<polygon class="st8" points="201.2,301.7 203,299.9 206.5,303 213.3,296.4 215,298.2 206.3,306.4 						"/>
					</g>
				</g>
			</g>
		</g>
	</g>
</g>
<g>
	<g>
		<g>
			<path class="st10" d="M212.5,287.2c0,0,0-0.1,0-0.3c0-0.2,0-0.4,0-0.7c0-0.7,0-1.6,0-2.7c0-2.4,0-5.7-0.1-9.7l0.1,0.1
				c-3.9,0-8.5,0-13.4,0c0,0,0.3-0.3,0.2-0.2v0v0v0v0v0.1v0.1l0,0.2l0,0.5c0,0.3,0,0.6,0,0.9c0,0.6,0,1.2,0,1.8c0,1.2,0,2.3,0,3.5
				c0,2.2,0,4.4,0,6.3l-0.1-0.1c4,0,7.3,0.1,9.7,0.1c1.2,0,2.1,0,2.7,0c0.3,0,0.5,0,0.7,0C212.4,287.2,212.5,287.2,212.5,287.2
				c0,0-0.1,0-0.2,0c-0.2,0-0.4,0-0.7,0c-0.7,0-1.6,0-2.7,0c-2.4,0-5.7,0-9.8,0.1l-0.1,0l0-0.1c0-1.9,0-4.1,0-6.3c0-1.1,0-2.3,0-3.5
				c0-0.6,0-1.2,0-1.8c0-0.3,0-0.6,0-0.9l0-0.5V274v-0.1v-0.1v0v0v0v0c-0.1,0.1,0.2-0.2,0.2-0.2c4.9,0,9.5,0,13.4,0l0.1,0l0,0.1
				c0,4-0.1,7.4-0.1,9.8c0,1.1,0,2,0,2.7c0,0.3,0,0.5,0,0.7C212.5,287.1,212.5,287.2,212.5,287.2z"/>
		</g>
	</g>
	<g>
		<g>
			<rect x="220.9" y="276.9" class="st2" width="93.4" height="7.8"/>
		</g>
	</g>
	<g>
		<g>
			<g>
				<g>
					<g>
						<polygon class="st8" points="201.2,279.9 203,278.1 206.5,281.2 213.3,274.6 215,276.4 206.3,284.7 						"/>
					</g>
				</g>
			</g>
		</g>
	</g>
</g>
<g>
	<g>
		<path class="st10" d="M212.5,265.4c0,0,0-0.1,0-0.3c0-0.2,0-0.4,0-0.7c0-0.7,0-1.6,0-2.7c0-2.4,0-5.7-0.1-9.7l0.1,0.1
			c-3.9,0-8.5,0-13.4,0c0,0,0.3-0.3,0.2-0.2v0v0v0v0v0.1v0.1l0,0.2l0,0.5c0,0.3,0,0.6,0,0.9c0,0.6,0,1.2,0,1.8c0,1.2,0,2.3,0,3.5
			c0,2.2,0,4.4,0,6.3l-0.1-0.1c4,0,7.3,0.1,9.7,0.1c1.2,0,2.1,0,2.7,0c0.3,0,0.5,0,0.7,0C212.4,265.4,212.5,265.4,212.5,265.4
			c0,0-0.1,0-0.2,0c-0.2,0-0.4,0-0.7,0c-0.7,0-1.6,0-2.7,0c-2.4,0-5.7,0-9.8,0.1l-0.1,0l0-0.1c0-1.9,0-4.1,0-6.3c0-1.1,0-2.3,0-3.5
			c0-0.6,0-1.2,0-1.8c0-0.3,0-0.6,0-0.9l0-0.5v-0.2v-0.1v-0.1v0v0v0v0c-0.1,0.1,0.2-0.2,0.2-0.2c4.9,0,9.5,0,13.4,0l0.1,0l0,0.1
			c0,4-0.1,7.4-0.1,9.8c0,1.1,0,2,0,2.7c0,0.3,0,0.5,0,0.7C212.5,265.3,212.5,265.4,212.5,265.4z"/>
	</g>
</g>
<g>
	<g>
		<rect x="220.9" y="255.1" class="st2" width="93.4" height="7.8"/>
	</g>
</g>
<g>
	<g>
		<g>
			<g>
				<g>
					<polygon class="st8" points="201.2,258.1 203,256.3 206.5,259.4 213.3,252.8 215,254.6 206.3,262.9 					"/>
				</g>
			</g>
		</g>
	</g>
</g>
<g>
	<g>
		<g>
			<g>
				<g>
					<polygon class="st8" points="201.2,324.1 203,322.3 206.5,325.4 213.3,318.8 215,320.6 206.3,328.9 					"/>
				</g>
			</g>
		</g>
	</g>
</g>
<g>
	<g>
		<g>
			<g>
				<g>
					<polygon class="st8" points="201.2,347.1 203,345.3 206.5,348.4 213.3,341.8 215,343.7 206.3,351.9 					"/>
				</g>
			</g>
		</g>
	</g>
</g>
<g>
	<g>
		<path class="st10" d="M234.4,371.8c0,0.1-7.9,0.2-17.6,0.2c-9.7,0-17.6-0.1-17.6-0.2c0-0.1,7.9-0.2,17.6-0.2
			C226.5,371.6,234.4,371.7,234.4,371.8z"/>
	</g>
</g>
<g>
	<g>
		<path class="st10" d="M252,371.5c0,0.1-2.9,0.2-6.5,0.2c-3.6,0-6.5-0.1-6.5-0.2c0-0.1,2.9-0.2,6.5-0.2
			C249.1,371.4,252,371.4,252,371.5z"/>
	</g>
</g>
<g>
	<g>
		<path class="st10" d="M311.4,366.4c0,0.1-7.1,0.2-15.9,0.2c-8.8,0-15.9-0.1-15.9-0.2c0-0.1,7.1-0.2,15.9-0.2
			C304.3,366.3,311.4,366.3,311.4,366.4z"/>
	</g>
</g>
<g>
	<g>
		<path class="st10" d="M299.6,385.3c0,0,0.1-0.2,0.3-0.6c0.2-0.4,0.3-1,0.3-1.8c0-0.8-0.2-1.8-0.5-2.9c-0.2-1.1-0.6-2.5-0.2-3.9
			c0.3-1.4,1.3-2.9,2.9-3.7c1.6-0.9,3.7-0.8,5.4,0.2c0.9,0.5,1.6,1.2,2.1,2.2c0.2,0.5,0.4,1,0.3,1.6c-0.1,0.6-0.6,1.1-1.2,1.1
			c-0.6,0.1-1.1,0-1.6,0c-0.5,0-1.1,0-1.6,0c-1.1,0-2.2-0.1-3.3-0.2c-2.2-0.2-4.4-0.6-6.4-1.4c-1-0.3-2-0.6-2.9-0.2
			c-0.9,0.4-1.5,1.2-2.2,1.9c-0.4,0.3-0.8,0.6-1.3,0.7c-0.5,0.1-1,0-1.4-0.3c-0.8-0.5-1.4-1.3-2-1.8c-0.3-0.3-0.6-0.5-1-0.7
			c-0.4-0.1-0.8-0.1-1.1,0c-0.7,0.3-1.2,0.9-1.7,1.4c-1.1,1.1-2.6,1.4-3.7,1.2c-1.2-0.2-2-0.9-2.5-1.6c-0.5-0.7-0.7-1.3-0.7-1.7
			c-0.1-0.4,0-0.7,0-0.7c0,0,0,0.2,0.1,0.6c0.1,0.4,0.3,1,0.8,1.7c0.5,0.6,1.3,1.3,2.4,1.5c1.1,0.2,2.5-0.1,3.5-1.1
			c0.5-0.5,1-1.2,1.8-1.5c0.4-0.2,0.9-0.2,1.3,0c0.4,0.1,0.8,0.4,1.1,0.7c0.6,0.6,1.2,1.3,1.9,1.8c0.4,0.2,0.8,0.3,1.2,0.2
			c0.4-0.1,0.8-0.3,1.2-0.7c0.7-0.6,1.3-1.5,2.3-2c0.5-0.2,1-0.3,1.6-0.2c0.5,0.1,1,0.2,1.5,0.4c2,0.7,4.1,1.2,6.3,1.4
			c1.1,0.1,2.2,0.1,3.3,0.2c0.5,0,1.1,0,1.6,0c0.5,0,1.1,0,1.6,0c0.5-0.1,0.9-0.4,0.9-0.9c0.1-0.5,0-1-0.2-1.4c-0.4-0.9-1.2-1.6-2-2
			c-1.6-1-3.6-1-5.1-0.2c-1.5,0.8-2.5,2.2-2.8,3.6c-0.3,1.4,0,2.7,0.2,3.9c0.2,1.1,0.4,2.1,0.4,3c0,0.8-0.2,1.5-0.4,1.8
			C299.7,385.1,299.6,385.3,299.6,385.3z"/>
	</g>
</g>
<g>
	<g>
		<path class="st10" d="M317.9,378.9c0,0-0.1,0-0.4,0c-0.3,0-0.7,0-1.2,0c-1.1,0-2.7,0-4.6,0c-3.9,0-9.2,0.1-15,0.3
			c-5.9,0.2-11.2,0.4-15,0.6c-1.9,0.1-3.4,0.2-4.6,0.2c-0.5,0-0.9,0-1.2,0.1c-0.3,0-0.4,0-0.4,0c0,0,0.1,0,0.4-0.1
			c0.3,0,0.7-0.1,1.2-0.1c1.1-0.1,2.6-0.2,4.5-0.3c3.8-0.3,9.2-0.5,15-0.7c5.9-0.2,11.2-0.2,15.1-0.2c1.9,0,3.5,0,4.6,0.1
			c0.5,0,0.9,0,1.2,0C317.7,378.9,317.9,378.9,317.9,378.9z"/>
	</g>
</g>
<g>
	<g>
		<g>
			<g>
				<polygon class="st25" points="287.6,226.9 285.2,253.6 278.1,246.2 268.7,250.8 278.5,224.7 				"/>
			</g>
		</g>
	</g>
</g>
<g>
	<g>
		<g>
			<g>
				<g>
					<path class="st24" d="M281.8,229.4c0,0,0,0.1,0,0.2c0,0.1-0.1,0.3-0.1,0.5c-0.1,0.4-0.2,1.1-0.3,1.8c-0.3,1.5-0.7,3.6-1.2,5.9
						c-0.5,2.3-1,4.4-1.4,5.9c-0.2,0.7-0.3,1.4-0.5,1.8c0,0.2-0.1,0.4-0.1,0.5c0,0.1,0,0.2,0,0.2c0,0,0-0.1,0.1-0.2
						c0-0.1,0.1-0.3,0.2-0.5c0.1-0.4,0.3-1,0.5-1.8c0.4-1.5,0.9-3.6,1.4-5.9c0.5-2.3,0.9-4.4,1.1-6c0.1-0.8,0.2-1.4,0.3-1.8
						c0-0.2,0-0.4,0.1-0.5C281.8,229.4,281.8,229.4,281.8,229.4z"/>
				</g>
			</g>
		</g>
	</g>
</g>
<g>
	<g>
		<g>
			<g>
				<polygon class="st25" points="288.1,227.8 293.2,254.1 299.5,246 309.3,249.6 297,224.6 				"/>
			</g>
		</g>
	</g>
</g>
<g>
	<g>
		<g>
			<g>
				<g>
					<path class="st24" d="M294.1,229.6c0,0,0,0.1,0.1,0.2c0,0.1,0.1,0.3,0.2,0.5c0.1,0.4,0.3,1,0.5,1.8c0.4,1.5,1.1,3.5,1.8,5.8
						c0.7,2.3,1.5,4.3,2,5.7c0.3,0.7,0.5,1.3,0.6,1.7c0.1,0.2,0.1,0.4,0.2,0.5c0,0.1,0.1,0.2,0,0.2c0,0,0-0.1-0.1-0.2
						c-0.1-0.1-0.1-0.3-0.2-0.5c-0.2-0.4-0.4-1-0.7-1.7c-0.6-1.5-1.3-3.5-2.1-5.7c-0.7-2.3-1.4-4.3-1.8-5.8
						c-0.2-0.7-0.4-1.4-0.5-1.8c0-0.2-0.1-0.4-0.1-0.5C294.1,229.7,294.1,229.6,294.1,229.6z"/>
				</g>
			</g>
		</g>
	</g>
</g>
<g class="st5">
	<path d="M290.3,239.2c0,0,2.1,0.7,3.4-0.2c1.3-1,1.6-1.7,2.4-2.1c0.8-0.3,2.3,0.7,4.1,0.2c1.8-0.4,2.2-1.5,2.2-1.5l-2.7-5.5
		l-10.3,4.3L290.3,239.2z"/>
</g>
<g class="st5">
	<path d="M274.4,235.5c0,0,1.4,1.8,3,1.7c1.6-0.1,2.3-0.5,3.2-0.4c0.8,0.2,1.5,1.8,3.3,2.4c1.7,0.6,2.7,0,2.7,0l0.5-6.2l-11-2.1
		L274.4,235.5z"/>
</g>
<g>
	<g>
		<g>
			<g>
				<g>
					<path class="st8" d="M284.2,190.4C284.2,190.4,284.2,190.4,284.2,190.4c0,0,0,0.1,0,0.2C284.2,190.5,284.2,190.5,284.2,190.4z"
						/>
				</g>
			</g>
		</g>
	</g>
	<g>
		<g>
			<g>
				<g>
					<path class="st25" d="M306.3,223.2c-0.8-0.4-1.8-0.9-2.8-1.5c-1.3-0.7-2.6-1.4-3.4-1.9c-0.6-0.4-1.1-0.6-1.3-0.8
						c-0.2,0.3-0.3,0.5-0.5,0.8c-0.7,1-1.4,1.8-2.3,2.6c-0.2,0.2-0.5,0.4-0.7,0.6c-1.8,1.4-4,2.4-6.3,2.8c-0.1,0-0.2,0-0.3,0
						c0.2,0.1,0.4,0.3,0.6,0.5c0,0,0,0.1,0,0.1c0.2,0.4,0.3,1,0.3,1.5c0,0.6,0,1.3,0,2c0,0.9,0,1.8,0,2.5c0,0.4,0,0.7,0,1
						c0,0.9-0.1,1.5-0.1,1.5c0,0-0.1-0.6-0.1-1.5c0-0.9,0-2.2,0-3.6c0-0.7,0-1.4,0-2c0-0.6,0-1.1-0.2-1.5c-0.2-0.3-0.4-0.5-0.6-0.6
						c-0.1,0-0.2,0-0.3,0c-0.2,0-0.3,0-0.5,0c-1.6,0.1-3.1,0-4.6-0.3c0,0,0.1,0.1,0.1,0.1c0,0,0,0.1,0.1,0.1
						c0.2,0.2,0.3,0.5,0.4,0.9c0,0.1,0,0.2,0,0.3c0,0.4,0,0.9-0.1,1.3c-0.2,0.6-0.4,1.2-0.6,1.9c-0.5,1.3-1,2.5-1.4,3.3
						c-0.2,0.5-0.4,0.9-0.6,1.1c0.2,0,0.4,0,0.5,0.1c1.5,0.4,2.5,2.3,3.9,2c0,0,0.1,0,0.1,0c1-0.3,1.5-1.7,2.6-1.9
						c0.5-0.1,0.9,0.1,1.4,0.3c0.6,0.3,1.2,0.8,1.9,1c1,0.2,1.8-0.4,2.6-1.1c0.7-0.7,1.4-1.5,2.2-1.9c0.3-0.2,0.7-0.3,1.1-0.4
						c0.9-0.1,1.9,0.3,2.7,0.3c0.4,0,0.8-0.1,1.1-0.4c0.8-0.8,0.3-2.2,0.4-3.3c-0.1-0.1-0.2-0.2-0.2-0.3c-0.6-0.8-1.4-1.8-2.3-3
						c-0.4-0.6-0.8-1.1-1.2-1.7c-0.4-0.5-0.7-1-1.1-1.3c-0.4-0.3-0.8-0.2-1-0.1c-0.2,0.1-0.3,0.3-0.3,0.3c0,0,0-0.2,0.2-0.4
						c0.2-0.2,0.6-0.2,1.1,0c0,0,0.1,0,0.1,0c0.4,0.3,0.8,0.8,1.1,1.3c0.4,0.5,0.8,1.1,1.2,1.6c0,0,0,0,0,0.1c0.9,1.1,1.6,2.2,2.2,3
						c0,0.1,0.1,0.1,0.1,0.2c0,0,0-0.1,0-0.1c0.1-0.2,0.1-0.3,0.2-0.5c0.9-1.2,3.2-0.4,4.1-1.6c0.1-0.1,0.2-0.2,0.2-0.4
						c0.4-0.8,0.1-2,0.6-2.8c0.1-0.1,0.1-0.2,0.2-0.3c0,0,0,0,0-0.1c-0.1,0-0.2-0.1-0.3-0.1C306.7,223.5,306.5,223.4,306.3,223.2z
						 M291.4,231.2c-0.1,0-0.2-0.6-0.3-1.4c-0.1-0.8-0.2-1.4-0.1-1.4c0.1,0,0.3,0.6,0.4,1.4C291.5,230.5,291.5,231.2,291.4,231.2z
						 M295.7,231.9c0.3,0.7,0.4,1.2,0.4,1.2c0,0-0.2-0.4-0.5-1.1c-0.3-0.8-0.7-1.7-1.2-2.8c-0.4-1-0.8-2-1.2-2.7
						c-0.2-0.4-0.3-0.7-0.4-0.9c-0.1-0.2-0.1-0.3-0.1-0.3c0,0,0.3,0.4,0.6,1.1c0.3,0.7,0.8,1.6,1.3,2.7c0.1,0.3,0.2,0.6,0.4,0.9
						C295.2,230.7,295.5,231.3,295.7,231.9z M300.7,223.9c-0.8-0.9-1.3-1.8-1.3-1.8c0.1,0,0.7,0.7,1.5,1.6c0.8,0.9,1.5,1.6,1.5,1.6
						C302.3,225.5,301.5,224.9,300.7,223.9z"/>
				</g>
			</g>
		</g>
		<g>
			<g>
				<g>
					<path class="st25" d="M310.8,214.1c0.1-0.2,0.1-0.4,0.1-0.7c-0.1-1.2-1.7-1.9-1.7-3.1c0,0,0,0,0,0c-0.4,0-0.7,0-1.1,0.1
						c-0.6,0-1.3,0.1-2.1,0.1c-1.3,0.1-2.4,0.1-3.4,0.1c-0.9,0-1.4,0-1.4,0c0,0,0.4-0.1,1.1-0.2c0.1,0,0.2,0,0.3,0
						c0.9-0.1,2.1-0.2,3.4-0.2c1.2-0.1,2.4-0.1,3.2-0.1c0.1-1,1.2-1.6,1.4-2.5c0.1-0.5,0-1-0.3-1.4c-0.2-0.3-0.4-0.6-0.7-0.9
						c-0.6-0.6-1.4-1.2-1.7-2c-0.1-0.3-0.2-0.5-0.2-0.8c-0.1-1,0-2.2-0.6-3c-0.2-0.2-0.4-0.4-0.6-0.5c-0.9-0.6-2.2-0.7-2.9-1.5
						c0,0,0,0,0,0c-1.1-1.3-0.2-3.5-1.4-4.7c-0.1-0.1-0.1-0.1-0.2-0.1c-0.3-0.2-0.6-0.3-0.9-0.4l0,0c-0.9-0.2-1.9-0.1-2.8-0.3
						c-0.3-0.1-0.6-0.2-0.8-0.4c-0.7-0.6-1-1.6-1.8-2c-0.3-0.1-0.5-0.2-0.8-0.2c-0.9,0-1.9,0.6-2.9,0.4c-0.3,0-0.5-0.1-0.7-0.2
						c-0.2,0.8-0.5,2.1-0.8,3.5c-0.6,2.5-1.1,4.4-1.2,4.4c-0.1,0,0.4-2,1-4.5c0.3-1.4,0.7-2.7,0.9-3.5c0,0-0.1,0-0.1,0
						c-0.4-0.1-0.7-0.4-1-0.8c-0.5-0.7-1.6-1.2-2.6-1c-0.3,0.1-0.6,0.2-0.9,0.4c-0.7,0.5-1.4,2.5-1.9,2.6c-0.2,0-0.3-0.1-0.5-0.2
						c0,0.1,0,0.1,0,0.2c0.1,0.6,0.3,1.9,0.4,3.5c0.2,1.5,0.3,2.7,0.3,3.4c0.3,0,0.7-0.1,1-0.1c1.1,0,2.1,0.1,3.2,0.2
						c0.3,0.1,0.5,0.1,0.8,0.2c1.2,0.3,2.3,0.7,3.4,1.3c0,0,0,0,0,0c0,0,0-0.1,0-0.1c0,0,0,0,0,0c0-0.2,0.1-0.4,0.3-0.5
						c0.2-0.3,0.4-0.6,0.7-1c0.4-0.5,0.7-1.1,1.2-1.6c0.7-1,1.4-1.9,1.9-2.6c0.5-0.7,0.8-1.1,0.9-1c0,0-0.2,0.5-0.7,1.1
						c-0.5,0.7-1.1,1.6-1.9,2.6c-0.7,1-1.4,1.9-1.9,2.6c-0.2,0.2-0.3,0.4-0.3,0.6c0.1,0.1,0.2,0.1,0.3,0.2c1.3,0.8,2.5,1.8,3.5,2.9
						c0.1,0.1,0.2,0.2,0.3,0.3c0-0.1,0-0.3,0-0.5c0-0.1,0.1-0.2,0.1-0.4c0.1-0.3,0.3-0.5,0.6-0.7c0.4-0.3,0.8-0.7,1.2-1
						c0.9-0.7,1.7-1.3,2.3-1.7c0.4-0.3,0.7-0.5,0.9-0.5c0.1,0,0.1-0.1,0.1,0c0,0-0.3,0.3-0.9,0.7c-0.6,0.4-1.4,1-2.2,1.7
						c-0.8,0.7-1.7,1.3-1.9,1.9c-0.1,0.2-0.1,0.5,0,0.6c0.1,0.1,0.2,0.2,0.2,0.3c0.7,0.9,1.3,2,1.7,3.1c0.2,0.5,0.4,1,0.5,1.5
						c0.2,0.7,0.4,1.5,0.5,2.3c0,0.1,0,0.3,0,0.4c0,0.4,0.1,0.8,0.1,1.2c0,1.1-0.1,2.1-0.3,3.1c-0.1,0.5-0.2,1-0.4,1.5
						c-0.3,0.9-0.7,1.8-1.2,2.6c0,0,0,0.1,0,0.1c0.2,0.1,0.6,0.3,1.2,0.6c0,0,0.1,0,0.1,0.1c0.9,0.5,2.1,1.1,3.5,1.8
						c1.3,0.7,2.5,1.4,3.4,1.9c0.1,0.1,0.2,0.1,0.3,0.2c0.4-0.4,1-0.7,1.5-1.1c0.3-0.2,0.6-0.5,0.7-0.8c0.5-1.2-0.5-2.4-0.8-3.6
						c-0.8-0.3-2.1-0.8-3.5-1.3c-1.1-0.4-2.2-0.9-3-1.2c-0.9-0.4-1.5-0.6-1.4-0.7c0-0.1,2,0.7,4.5,1.6c1.1,0.4,2.1,0.8,2.9,1.1
						c0.2,0.1,0.3,0.1,0.5,0.2c0,0,0,0,0-0.1c0-0.2,0-0.5,0-0.7C309,215.9,310.4,215.1,310.8,214.1z M291.6,194.7
						c0.7-1.1,1.2-2,1.3-1.9c0.1,0-0.4,1-1,2.1c-0.7,1.1-1.3,1.9-1.4,1.9C290.4,196.7,290.9,195.8,291.6,194.7z M297.4,196.9
						c-0.9,0.8-1.8,1.3-1.8,1.2c0-0.1,0.7-0.7,1.7-1.4c0.9-0.8,1.7-1.4,1.7-1.4C299,195.4,298.4,196.1,297.4,196.9z M301.3,200.9
						c0.7-0.4,1.4-0.7,1.4-0.6c0,0.1-0.6,0.4-1.3,0.9c-0.7,0.4-1.3,0.8-1.4,0.7C300,201.8,300.6,201.3,301.3,200.9z M300.1,206.1
						C300.1,206.1,300.1,206.1,300.1,206.1c0.1-0.1,0.4-0.3,0.9-0.6c0.6-0.3,1.4-0.8,2.3-1.2c0.9-0.5,1.8-0.9,2.4-1.2
						c0.6-0.3,1-0.4,1-0.4c0,0-0.1,0.1-0.3,0.2c-0.2,0.1-0.4,0.2-0.6,0.3c-0.6,0.3-1.4,0.8-2.3,1.2c-0.9,0.5-1.8,0.9-2.4,1.2
						C300.5,206,300.1,206.1,300.1,206.1z"/>
				</g>
			</g>
		</g>
		<g>
			<g>
				<g>
					<path class="st25" d="M282.7,230.4c0.2-0.7,0.5-1.3,0.6-1.9c0.2-0.6,0.2-1.1,0.2-1.6c-0.1-0.4-0.2-0.7-0.3-1
						c-0.1-0.1-0.1-0.2-0.2-0.3c-1-0.2-1.9-0.6-2.8-1c0,0,0,0,0,0c-0.1,0.2-0.2,0.4-0.5,0.8c0,0,0,0.1-0.1,0.1
						c-0.4,0.6-0.8,1.3-1.4,2c-0.6,0.8-1.2,1.5-1.6,2.1c-0.4,0.5-0.7,0.8-0.7,0.8c0,0,0-0.1,0.1-0.2c0.3-0.5,1.1-1.5,2-2.8
						c1-1.3,1.8-2.5,2.1-2.8c-0.4-0.2-0.7-0.4-1-0.6c-0.2,0.3-0.6,0.7-1.1,1.2c-0.7,0.7-1.4,1.3-1.4,1.2c-0.1-0.1,0.5-0.7,1.3-1.4
						c0.4-0.4,0.7-0.7,1-0.9c0.1-0.1,0.1-0.1,0.2-0.2c-1-0.6-2-1.4-2.8-2.3c-0.2-0.2-0.4-0.4-0.6-0.6c-0.8-0.9-1.5-1.9-2-3
						c-0.1-0.2-0.2-0.5-0.3-0.8c-0.4-1.1-0.8-2.2-1-3.4c0-0.2-0.1-0.3-0.1-0.5c0-0.2-0.1-0.5-0.1-0.7c-0.1-1.1,0-2.2,0.2-3.3
						c0-0.1,0-0.2,0.1-0.4c-0.1,0.1-0.3,0.2-0.5,0.2c-0.1,0-0.3,0-0.4,0c-0.9,0-1.9-0.2-3.1-0.5c-1.3-0.3-2.5-0.8-3.4-1.1
						c-0.6-0.2-1-0.4-1.2-0.5c-0.1,0-0.1-0.1-0.1-0.1c0,0,0.5,0.1,1.4,0.4c0.3,0.1,0.7,0.2,1.1,0.4c0.7,0.2,1.4,0.5,2.3,0.7
						c0.2,0.1,0.5,0.1,0.7,0.2c1.1,0.2,2,0.4,2.8,0.4c0.2,0,0.4-0.1,0.5-0.2c0,0,0,0,0.1-0.1c0.1-0.3,0.1-0.6,0.2-0.9
						c-0.5-0.2-1.2-0.5-2.1-0.8c-1.4-0.6-2.6-1.2-2.6-1.2c0-0.1,1.2,0.4,2.7,1c0.3,0.1,0.6,0.3,0.9,0.4c0.5,0.2,0.9,0.4,1.1,0.5
						c0.3-1,0.7-2,1.2-2.9c-0.1,0-0.2-0.1-0.2-0.1c-0.7-0.3-1.6-0.9-2.6-1.5c-1-0.6-1.8-1.3-2.4-1.8c0,0,0,0,0,0
						c-0.6-0.5-0.9-0.8-0.9-0.8c0,0,0.4,0.3,1,0.7c0.6,0.5,1.5,1.1,2.4,1.7c1,0.6,1.9,1.2,2.5,1.6c0.1,0,0.2,0.1,0.2,0.1
						c0.1-0.3,0.3-0.5,0.5-0.8c0,0,0,0,0,0c0,0,0,0,0,0c-0.3-0.3-0.7-0.7-1.1-1.1c-0.9-0.9-1.5-1.8-1.4-1.8c0,0,0.4,0.3,0.9,0.8
						c0.2,0.2,0.5,0.5,0.8,0.8c0.4,0.4,0.8,0.9,1.1,1.2c0.7-1,1.5-1.9,2.4-2.8c0.1,0,0.1-0.1,0.2-0.1c0,0-0.4-0.2-0.9-0.7
						c-0.2-0.1-0.4-0.3-0.5-0.5c-0.4-0.4-0.9-0.8-1.4-1.3c-0.7-0.7-1.4-1.4-1.8-1.9c-0.4-0.5-0.7-0.8-0.7-0.9c0,0,0.2,0.1,0.4,0.4
						c0.5,0.5,1.3,1.3,2.3,2.2c1.4,1.4,2.7,2.6,2.6,2.7c0.2-0.2,0.4-0.4,0.7-0.5c0.8-0.6,1.6-1.1,2.5-1.5c0-0.1-0.1-0.2-0.1-0.3
						c-0.3-0.7-0.6-1.6-1-2.6c-0.3-1-0.6-2-0.7-2.7c-0.1-0.6-0.2-0.9-0.2-1.1c0,0,0-0.1,0-0.1c0,0,0.2,0.4,0.4,1.1
						c0.2,0.7,0.5,1.6,0.8,2.6c0.3,0.9,0.6,1.7,0.8,2.3c0,0.1,0.1,0.2,0.1,0.3c0,0.1,0.1,0.2,0.1,0.3c0,0,0,0,0.1,0
						c0.3-0.1,0.5-0.2,0.8-0.3c-0.1-0.1-0.2-0.8-0.5-1.6c-0.2-0.9-0.4-1.6-0.4-1.7c0.1,0,0.4,0.7,0.6,1.6c0.1,0.3,0.1,0.6,0.2,0.9
						c0,0.1,0,0.3,0,0.4c0,0.2,0,0.3,0,0.4c0,0,0,0,0,0c1.1-0.4,2.3-0.7,3.5-0.9c0,0,0.1,0,0.1,0c0,0,0.1,0,0.1,0
						c-0.1-0.6-0.2-1.6-0.4-2.8c0-0.2,0-0.4-0.1-0.5c-0.2-1.9-0.3-3.5-0.3-3.8c-0.6-0.6-1.3-1.8-2.4-1.8c-0.9,0-1.4,0.2-1.7,0.6
						c-0.4,0.4-0.6,1.2-1.1,2.3c-0.2,0.4-0.6,0.6-1,0.7c-0.6,0.1-1.4,0-1.9-0.4c-0.9-0.6-2.3-0.4-3.3,0.2c-0.2,0.1-0.3,0.2-0.5,0.3
						c-0.8,0.6-0.9,1.7-1.3,2.7c-0.2,0.5-0.4,0.9-0.8,1.3c-0.6,0.5-1.4,0.5-2.1,0.8c-0.4,0.1-0.8,0.3-1,0.7
						c-0.5,0.7-0.1,1.8-0.3,2.6c0,0.2-0.1,0.4-0.3,0.6c-0.7,0.9-2.2,0.5-3,1.3c-0.3,0.3-0.4,0.7-0.4,1.1c0,1,0.5,2.1,0.3,3.1
						c0,0.2-0.1,0.4-0.2,0.6c-0.3,0.7-0.9,1.3-1.2,2c-0.2,0.4-0.3,0.8-0.2,1.3c0.1,0.6,0.4,1.1,0.9,1.2l-0.1-0.4
						c0.8,0.3,1.2,1.3,1,2.2c-0.1,0.6-0.3,1.1-0.6,1.6c-0.1,0.3-0.3,0.6-0.4,0.9c-0.3,0.8-0.5,1.8,0,2.5c0,0,0,0,0.1,0.1
						c0.6,0.7,1.6,0.9,2.2,1.7c0.3,0.5,0.4,1,0.3,1.6c-0.2,1.5-1,3.1,0,4.1c0.1,0.1,0.2,0.2,0.4,0.3c1.1,0.6,2.9,0.1,3.7,1.1
						c0.1,0.1,0.2,0.3,0.2,0.4c0.3,0.7,0.1,1.6,0.5,2.3c0.4,0.6,1.2,0.8,2,0.8c1.1,0.1,2.2,0,3,0.6c0.1,0.1,0.2,0.2,0.3,0.4
						c0.7,1.1,0.4,2.8,1.4,3.6c0.2,0.2,0.4,0.2,0.6,0.3c1.2,0.3,2.6-0.6,3.9-0.6c0.1-0.2,0.3-0.6,0.5-1.2
						C281.8,232.9,282.2,231.7,282.7,230.4z M276.3,199.1c-0.5-0.9-0.8-1.6-0.8-1.7c0.1,0,0.5,0.7,1,1.5c0.5,0.9,1,1.5,0.9,1.6
						C277.4,200.6,276.8,199.9,276.3,199.1z M271.8,213.4c0,0.1-0.8,0.1-1.7,0c-0.9-0.1-1.7-0.2-1.7-0.2c0-0.1,0.8-0.1,1.7,0
						C271.1,213.2,271.8,213.3,271.8,213.4z M263.2,214.7c0,0,0.5-0.1,1.3-0.1c0.8-0.1,1.9-0.2,3.1-0.3c1.2-0.1,2.3-0.2,3.1-0.3
						c0.8-0.1,1.3-0.1,1.3-0.1c0,0-0.5,0.1-1.2,0.3c-0.5,0.1-1.2,0.2-1.9,0.3c-0.4,0-0.8,0.1-1.2,0.1c-1.2,0.1-2.3,0.2-3.1,0.2
						c-0.4,0-0.6,0-0.9,0C263.3,214.7,263.2,214.7,263.2,214.7z M265.1,221.8c0,0,0.5-0.3,1.2-0.6c0.3-0.1,0.7-0.3,1.1-0.5
						c0.6-0.2,1.2-0.5,2-0.8c0.6-0.2,1.1-0.5,1.7-0.7c0.5-0.2,1-0.4,1.3-0.6c0.7-0.4,1-0.9,1-0.8c0,0,0,0.1-0.1,0.3
						c-0.1,0.1-0.2,0.3-0.4,0.4c-0.1,0.1-0.2,0.2-0.4,0.3c-0.4,0.2-0.8,0.4-1.3,0.6c-0.5,0.2-1.1,0.4-1.7,0.7
						c-1.2,0.5-2.3,0.9-3,1.2C265.6,221.6,265.2,221.8,265.1,221.8z M270.8,226.6c-0.6,0.5-1,0.8-1,0.7c0,0,0.3-0.4,0.9-0.9
						c0.3-0.3,0.8-0.7,1.2-1.1c0.4-0.3,0.7-0.6,1.1-0.9c0.9-0.8,1.8-1.5,2.4-2c0.1-0.1,0.2-0.3,0.2-0.4c0-0.1,0-0.3,0-0.4
						c-0.1-0.2-0.2-0.2-0.2-0.2c0,0,0.2,0,0.3,0.2c0.1,0.1,0.1,0.2,0.1,0.4c0,0,0,0.1,0,0.1c0,0.1-0.1,0.3-0.2,0.4
						c-0.6,0.6-1.4,1.2-2.3,2C272.2,225.5,271.4,226.2,270.8,226.6z"/>
				</g>
			</g>
		</g>
		<g>
			<g>
				<g>
					<path class="st25" d="M273.9,213.3c0.8,6.9,7.1,11.8,14,11c6.9-0.8,11.8-7.1,11-14c-0.8-6.9-7.1-11.8-14-11
						C278,200.1,273.1,206.4,273.9,213.3z"/>
				</g>
			</g>
		</g>
	</g>
</g>
<g>
	<g>
		<g>
			<g>
				<g>
					<path class="st24" d="M301.1,205.7c0.6-0.3,1.5-0.7,2.4-1.2c0.9-0.5,1.7-0.9,2.3-1.2c0.2-0.1,0.4-0.2,0.6-0.3
						c0.2-0.1,0.3-0.2,0.3-0.2c0,0-0.4,0.1-1,0.4c-0.6,0.3-1.5,0.7-2.4,1.2c-0.9,0.5-1.7,0.9-2.3,1.2c-0.5,0.3-0.9,0.5-0.9,0.6
						c0,0,0,0,0,0C300.1,206.1,300.5,206,301.1,205.7z"/>
				</g>
			</g>
		</g>
	</g>
	<g>
		<g>
			<g>
				<g>
					<path class="st24" d="M302.5,210.4c-0.1,0-0.2,0-0.3,0c-0.7,0.1-1.1,0.1-1.1,0.2c0,0,0.5,0,1.4,0c1,0,2.1-0.1,3.4-0.1
						c0.7,0,1.4-0.1,2.1-0.1c0.4,0,0.8,0,1.1-0.1c0,0,0-0.1,0-0.1c0,0,0,0,0-0.1c-0.9,0-2,0-3.2,0.1
						C304.6,210.2,303.4,210.3,302.5,210.4z"/>
				</g>
			</g>
		</g>
	</g>
	<g>
		<g>
			<g>
				<g>
					<path class="st24" d="M305.4,216.5c-2.5-1-4.5-1.7-4.5-1.6c0,0,0.5,0.3,1.4,0.7c0.8,0.3,1.8,0.7,3,1.2c1.4,0.5,2.7,1,3.5,1.3
						c0-0.1,0-0.1,0-0.2c-0.2-0.1-0.3-0.1-0.5-0.2C307.5,217.3,306.5,216.9,305.4,216.5z"/>
				</g>
			</g>
		</g>
	</g>
	<g>
		<g>
			<g>
				<g>
					<path class="st24" d="M303.6,221.5c-1.3-0.7-2.6-1.4-3.5-1.8c-0.1,0-0.1-0.1-0.1-0.1c-0.6-0.3-1-0.5-1.2-0.6c0,0,0-0.1,0-0.1
						c0.5-0.8,0.9-1.7,1.2-2.6c0.2-0.5,0.3-1,0.4-1.5c0.2-1,0.3-2,0.3-3.1c0-0.4,0-0.8-0.1-1.2c0-0.1,0-0.3,0-0.4
						c-0.1-0.8-0.3-1.5-0.5-2.3c-0.1-0.5-0.3-1-0.5-1.5c-0.5-1.1-1-2.1-1.7-3.1c-0.1-0.1-0.2-0.2-0.2-0.3c0-0.2,0-0.4,0-0.6
						c0.2-0.7,1.1-1.2,1.9-1.9c0.9-0.7,1.7-1.3,2.2-1.7c0.6-0.4,0.9-0.7,0.9-0.7c0,0-0.1,0-0.1,0c-0.2,0.1-0.5,0.3-0.9,0.5
						c-0.6,0.4-1.4,1-2.3,1.7c-0.4,0.3-0.8,0.7-1.2,1c-0.2,0.2-0.5,0.5-0.6,0.7c-0.1,0.1-0.1,0.2-0.1,0.4c0,0.2,0,0.3,0,0.5
						c-0.1-0.1-0.2-0.2-0.3-0.3c-1-1.2-2.2-2.2-3.5-2.9c-0.1-0.1-0.2-0.1-0.3-0.2c0-0.2,0.1-0.4,0.3-0.6c0.5-0.7,1.2-1.6,1.9-2.6
						c0.7-1,1.4-2,1.9-2.6c0.5-0.7,0.7-1.1,0.7-1.1c0,0-0.4,0.4-0.9,1c-0.5,0.7-1.2,1.6-1.9,2.6c-0.4,0.6-0.8,1.1-1.2,1.6
						c-0.3,0.4-0.5,0.7-0.7,1c-0.1,0.2-0.2,0.3-0.3,0.5c0,0,0,0,0,0c0,0,0,0.1,0,0.1c0,0,0,0,0,0c-1.1-0.6-2.2-1-3.4-1.3
						c-0.3-0.1-0.5-0.1-0.8-0.2c-1-0.2-2.1-0.3-3.2-0.2c-0.3,0-0.7,0-1,0.1c0-0.7-0.1-1.9-0.3-3.4c-0.2-1.5-0.3-2.9-0.4-3.5
						c0-0.1,0-0.2,0-0.2c0,0,0,0-0.1-0.1c0,0.3,0.1,1.9,0.3,3.8c0,0.2,0,0.4,0.1,0.5c0.1,1.2,0.3,2.3,0.4,2.8c0,0-0.1,0-0.1,0
						c0,0-0.1,0-0.1,0c-1.2,0.2-2.4,0.5-3.5,0.9c0,0,0,0,0,0c0-0.1,0-0.2,0-0.4c0-0.1,0-0.2,0-0.4c0-0.3-0.1-0.6-0.2-0.9
						c-0.2-0.9-0.6-1.6-0.6-1.6c-0.1,0,0.1,0.8,0.4,1.7c0.2,0.8,0.4,1.5,0.5,1.6c-0.3,0.1-0.5,0.2-0.8,0.3c0,0,0,0-0.1,0
						c0-0.1-0.1-0.2-0.1-0.3c0-0.1-0.1-0.2-0.1-0.3c-0.2-0.6-0.5-1.4-0.8-2.3c-0.3-1-0.6-2-0.8-2.6c-0.2-0.7-0.3-1.1-0.4-1.1
						c0,0,0,0,0,0.1c0,0.1,0.1,0.5,0.2,1.1c0.2,0.7,0.4,1.6,0.7,2.7c0.3,1,0.7,1.9,1,2.6c0,0.1,0.1,0.2,0.1,0.3
						c-0.9,0.4-1.7,0.9-2.5,1.5c-0.2,0.2-0.4,0.4-0.7,0.5c0-0.1-1.2-1.2-2.6-2.7c-1-1-1.8-1.8-2.3-2.2c-0.2-0.2-0.4-0.4-0.4-0.4
						c0,0,0.2,0.4,0.7,0.9c0.4,0.5,1.1,1.2,1.8,1.9c0.5,0.5,1,0.9,1.4,1.3c0.2,0.2,0.4,0.3,0.5,0.5c0.5,0.4,0.8,0.7,0.9,0.7
						c-0.1,0-0.1,0.1-0.2,0.1c-0.9,0.8-1.7,1.7-2.4,2.8c-0.3-0.3-0.6-0.7-1.1-1.2c-0.3-0.3-0.5-0.6-0.8-0.8
						c-0.5-0.5-0.8-0.9-0.9-0.8c-0.1,0,0.6,0.9,1.4,1.8c0.4,0.4,0.8,0.8,1.1,1.1c0,0,0,0,0,0c0,0,0,0,0,0c-0.2,0.3-0.3,0.5-0.5,0.8
						c-0.1,0-0.1-0.1-0.2-0.1c-0.7-0.4-1.6-0.9-2.5-1.6c-1-0.6-1.8-1.3-2.4-1.7c-0.6-0.5-1-0.7-1-0.7c0,0,0.3,0.3,0.9,0.8
						c0,0,0,0,0,0c0.6,0.5,1.4,1.1,2.4,1.8c1,0.6,1.9,1.2,2.6,1.5c0.1,0,0.2,0.1,0.2,0.1c-0.5,0.9-0.9,1.9-1.2,2.9
						c-0.3-0.1-0.7-0.3-1.1-0.5c-0.3-0.1-0.6-0.2-0.9-0.4c-1.4-0.6-2.6-1-2.7-1c0,0.1,1.1,0.6,2.6,1.2c0.8,0.4,1.6,0.7,2.1,0.8
						c-0.1,0.3-0.2,0.6-0.2,0.9c0,0,0,0-0.1,0.1c-0.1,0.1-0.3,0.1-0.5,0.2c-0.7,0-1.7-0.2-2.8-0.4c-0.2-0.1-0.5-0.1-0.7-0.2
						c-0.8-0.2-1.6-0.4-2.3-0.7c-0.4-0.1-0.8-0.3-1.1-0.4c-0.9-0.3-1.4-0.5-1.4-0.4c0,0,0,0,0.1,0.1c0.2,0.1,0.6,0.3,1.2,0.5
						c0.8,0.3,2,0.8,3.4,1.1c1.2,0.3,2.2,0.4,3.1,0.5c0.1,0,0.3,0,0.4,0c0.2,0,0.4-0.1,0.5-0.2c0,0.1,0,0.2-0.1,0.4
						c-0.2,1.1-0.2,2.2-0.2,3.3c0,0.2,0,0.5,0.1,0.7c0,0.2,0,0.3,0.1,0.5c0.2,1.2,0.5,2.3,1,3.4c0.1,0.3,0.2,0.5,0.3,0.8
						c0.5,1.1,1.2,2.1,2,3c0.2,0.2,0.4,0.4,0.6,0.6c0.8,0.9,1.8,1.6,2.8,2.3c-0.1,0-0.1,0.1-0.2,0.2c-0.3,0.2-0.6,0.6-1,0.9
						c-0.7,0.7-1.3,1.4-1.3,1.4c0.1,0.1,0.7-0.5,1.4-1.2c0.5-0.5,0.9-1,1.1-1.2c0.3,0.2,0.7,0.4,1,0.6c-0.3,0.3-1.1,1.5-2.1,2.8
						c-0.9,1.2-1.7,2.3-2,2.8c-0.1,0.1-0.1,0.2-0.1,0.2c0,0,0.3-0.3,0.7-0.8c0.4-0.5,1-1.2,1.6-2.1c0.6-0.8,1-1.5,1.4-2
						c0,0,0-0.1,0.1-0.1c0.2-0.4,0.4-0.7,0.5-0.8c0,0,0,0,0,0c0.9,0.4,1.8,0.8,2.8,1c0,0.1,0.1,0.1,0.2,0.3c0.1,0.2,0.3,0.5,0.3,1
						c0.1,0.4,0,1-0.2,1.6c-0.2,0.6-0.4,1.2-0.6,1.9c-0.5,1.3-1,2.5-1.3,3.4c-0.2,0.5-0.4,0.9-0.5,1.2c0,0,0.1,0,0.1,0
						c0.1-0.2,0.3-0.6,0.6-1.1c0.4-0.8,0.9-2,1.4-3.3c0.2-0.7,0.5-1.3,0.6-1.9c0.1-0.5,0.2-0.9,0.1-1.3c0-0.1,0-0.2,0-0.3
						c-0.1-0.4-0.2-0.7-0.4-0.9c0,0,0-0.1-0.1-0.1c-0.1-0.1-0.1-0.1-0.1-0.1c1.5,0.3,3,0.5,4.6,0.3c0.2,0,0.3,0,0.5,0
						c0.1,0,0.2,0,0.3,0c0.2,0.1,0.5,0.3,0.6,0.6c0.2,0.4,0.3,0.9,0.2,1.5c0,0.6,0,1.3,0,2c0,1.4,0,2.7,0,3.6s0,1.5,0.1,1.5
						c0,0,0.1-0.6,0.1-1.5c0-0.3,0-0.7,0-1c0-0.7,0-1.6,0-2.5c0-0.7,0-1.4,0-2c0-0.6-0.1-1.1-0.3-1.5c0,0,0-0.1,0-0.1
						c-0.2-0.2-0.4-0.4-0.6-0.5c0.1,0,0.2,0,0.3,0c2.4-0.4,4.5-1.4,6.3-2.8c0.3-0.2,0.5-0.4,0.7-0.6c0.9-0.8,1.6-1.7,2.3-2.6
						c0.2-0.3,0.3-0.5,0.5-0.8c0.2,0.1,0.6,0.4,1.3,0.8c0.9,0.5,2.1,1.2,3.4,1.9c1,0.6,2,1.1,2.8,1.5c0.2,0.1,0.5,0.2,0.7,0.3
						c0.1,0.1,0.2,0.1,0.3,0.1c0,0,0.1-0.1,0.1-0.1c-0.1-0.1-0.2-0.1-0.3-0.2C306.2,222.9,304.9,222.2,303.6,221.5z M287.9,224.3
						c-6.9,0.8-13.2-4.1-14-11c-0.8-6.9,4.1-13.2,11-14c6.9-0.8,13.2,4.1,14,11C299.8,217.2,294.8,223.5,287.9,224.3z"/>
				</g>
			</g>
		</g>
	</g>
	<g>
		<g>
			<g>
				<g>
					<path class="st24" d="M302.3,225.4c0.1-0.1-0.7-0.7-1.5-1.6c-0.8-0.9-1.4-1.7-1.5-1.6c-0.1,0,0.4,0.9,1.3,1.8
						C301.5,224.9,302.3,225.5,302.3,225.4z"/>
				</g>
			</g>
		</g>
	</g>
	<g>
		<g>
			<g>
				<g>
					<path class="st24" d="M299.4,226.2C299.4,226.2,299.4,226.2,299.4,226.2c-0.5-0.6-0.9-1.2-1.3-1.7c-0.4-0.5-0.7-1-1.1-1.3
						c0,0-0.1,0-0.1,0c-0.4-0.2-0.8-0.1-1.1,0c-0.2,0.2-0.3,0.4-0.2,0.4c0,0,0.1-0.1,0.3-0.3c0.2-0.1,0.6-0.2,1,0.1
						c0.4,0.3,0.7,0.8,1.1,1.3c0.4,0.5,0.8,1.1,1.2,1.7c0.9,1.2,1.7,2.2,2.3,3c0.1,0.1,0.2,0.2,0.2,0.3c0-0.1,0-0.1,0-0.2
						c0-0.1-0.1-0.1-0.1-0.2C301,228.4,300.3,227.4,299.4,226.2z"/>
				</g>
			</g>
		</g>
	</g>
	<g>
		<g>
			<g>
				<g>
					<path class="st24" d="M294.3,229.2c0.4,1,0.8,2,1.2,2.8c0.3,0.7,0.5,1.1,0.5,1.1c0,0-0.1-0.5-0.4-1.2c-0.2-0.5-0.4-1.2-0.7-1.9
						c-0.1-0.3-0.2-0.6-0.4-0.9c-0.5-1.1-0.9-2-1.3-2.7c-0.3-0.7-0.6-1.1-0.6-1.1c0,0,0,0.1,0.1,0.3c0.1,0.2,0.2,0.5,0.4,0.9
						C293.5,227.2,293.9,228.1,294.3,229.2z"/>
				</g>
			</g>
		</g>
	</g>
	<g>
		<g>
			<g>
				<g>
					<path class="st24" d="M291,228.4c-0.1,0,0,0.6,0.1,1.4c0.1,0.8,0.2,1.4,0.3,1.4c0.1,0,0.1-0.6,0-1.4
						C291.3,228.9,291.1,228.3,291,228.4z"/>
				</g>
			</g>
		</g>
	</g>
	<g>
		<g>
			<g>
				<g>
					<path class="st24" d="M275.7,221.7c-0.1-0.2-0.3-0.2-0.3-0.2C275.3,221.6,275.5,221.6,275.7,221.7c0,0.1,0,0.3,0,0.4
						c0,0.1-0.1,0.3-0.2,0.4c-0.6,0.5-1.5,1.2-2.4,2c-0.4,0.3-0.8,0.6-1.1,0.9c-0.5,0.4-0.9,0.8-1.2,1.1c-0.6,0.5-0.9,0.9-0.9,0.9
						c0,0,0.4-0.3,1-0.7c0.6-0.5,1.5-1.2,2.4-1.9c0.9-0.8,1.8-1.5,2.3-2c0.1-0.1,0.2-0.3,0.2-0.4c0,0,0-0.1,0-0.1
						C275.8,222,275.7,221.8,275.7,221.7z"/>
				</g>
			</g>
		</g>
	</g>
	<g>
		<g>
			<g>
				<g>
					<path class="st24" d="M273.2,218.2c0.1-0.2,0.2-0.3,0.1-0.3c0,0-0.2,0.5-1,0.8c-0.4,0.2-0.8,0.3-1.3,0.6
						c-0.5,0.2-1.1,0.4-1.7,0.7c-0.7,0.3-1.4,0.6-2,0.8c-0.4,0.2-0.7,0.3-1.1,0.5c-0.8,0.3-1.2,0.6-1.2,0.6c0,0,0.5-0.1,1.3-0.4
						c0.8-0.3,1.9-0.7,3-1.2c0.6-0.2,1.1-0.5,1.7-0.7c0.5-0.2,1-0.4,1.3-0.6c0.2-0.1,0.3-0.2,0.4-0.3
						C273,218.5,273.1,218.3,273.2,218.2z"/>
				</g>
			</g>
		</g>
	</g>
	<g>
		<g>
			<g>
				<g>
					<path class="st24" d="M271.8,213.9c0,0-0.5,0-1.3,0.1c-0.8,0.1-1.9,0.2-3.1,0.3c-1.2,0.1-2.3,0.2-3.1,0.3
						c-0.8,0.1-1.3,0.1-1.3,0.1c0,0,0.2,0,0.4,0c0.2,0,0.5,0,0.9,0c0.8,0,1.9-0.1,3.1-0.2c0.4,0,0.8-0.1,1.2-0.1
						c0.7-0.1,1.4-0.2,1.9-0.3C271.4,214,271.9,213.9,271.8,213.9z"/>
				</g>
			</g>
		</g>
	</g>
	<g>
		<g>
			<g>
				<g>
					<path class="st24" d="M270.1,213.4c0.9,0.1,1.7,0,1.7,0c0-0.1-0.8-0.2-1.7-0.2c-0.9-0.1-1.7,0-1.7,0
						C268.4,213.3,269.2,213.4,270.1,213.4z"/>
				</g>
			</g>
		</g>
	</g>
	<g>
		<g>
			<g>
				<g>
					<path class="st24" d="M277.5,200.5c0.1,0-0.4-0.7-0.9-1.6c-0.5-0.8-0.9-1.6-1-1.5c-0.1,0,0.2,0.8,0.8,1.7
						C276.8,199.9,277.4,200.6,277.5,200.5z"/>
				</g>
			</g>
		</g>
	</g>
	<g>
		<g>
			<g>
				<g>
					<path class="st24" d="M289.3,197.5c0.1,0,0.6-2,1.2-4.4c0.3-1.4,0.6-2.7,0.8-3.5c-0.1,0-0.1,0-0.2,0c-0.2,0.8-0.6,2.1-0.9,3.5
						C289.7,195.5,289.3,197.5,289.3,197.5z"/>
				</g>
			</g>
		</g>
	</g>
	<g>
		<g>
			<g>
				<g>
					<path class="st24" d="M291.8,194.9c0.7-1.1,1.1-2,1-2.1c-0.1,0-0.6,0.8-1.3,1.9c-0.7,1.1-1.2,2-1.1,2
						C290.5,196.8,291.1,196,291.8,194.9z"/>
				</g>
			</g>
		</g>
	</g>
	<g>
		<g>
			<g>
				<g>
					<path class="st24" d="M297.4,196.9c0.9-0.8,1.6-1.5,1.6-1.6c-0.1-0.1-0.8,0.6-1.7,1.4c-0.9,0.8-1.7,1.4-1.7,1.4
						C295.6,198.2,296.5,197.7,297.4,196.9z"/>
				</g>
			</g>
		</g>
	</g>
	<g>
		<g>
			<g>
				<g>
					<path class="st24" d="M301.3,200.9c-0.7,0.4-1.3,0.9-1.3,0.9c0,0.1,0.6-0.3,1.4-0.7c0.7-0.4,1.3-0.8,1.3-0.9
						C302.7,200.2,302.1,200.5,301.3,200.9z"/>
				</g>
			</g>
		</g>
	</g>
</g>
<g class="st12">
	<g>
		<g>
			<g>
				<g>
					<path class="st24" d="M289.2,197.2c0,0.2-0.1,0.3,0,0.5c0.3,0.1,0.5,0.1,0.8,0.2c0.1-0.1,0.3-0.3,0.3-0.4
						c1.4-2.3,2.9-4.7,4.3-7c0.2-0.3,0.4-0.7,0.3-1.1c0,0,0,0,0-0.1c-0.9,0-1.9,0.6-2.9,0.4c-0.3,0-0.5-0.1-0.7-0.2
						c-0.2,0.8-0.5,2.1-0.8,3.5c-0.6,2.5-1.1,4.4-1.2,4.4c-0.1,0,0.4-2,1-4.5c0.3-1.4,0.7-2.7,0.9-3.5c0,0-0.1,0-0.1,0l-0.1,0.1
						C290.4,192.1,289.8,194.6,289.2,197.2z M291.6,194.7c0.7-1.1,1.2-2,1.3-1.9c0.1,0-0.4,1-1,2.1c-0.7,1.1-1.3,1.9-1.4,1.9
						C290.4,196.7,290.9,195.8,291.6,194.7z"/>
				</g>
			</g>
		</g>
	</g>
	<g>
		<g>
			<g>
				<g>
					<path class="st24" d="M295.5,195.9c0.7-1,1.4-1.9,1.9-2.6c0.5-0.7,0.8-1.1,0.9-1c0,0-0.2,0.5-0.7,1.1c-0.5,0.7-1.1,1.6-1.9,2.6
						c-0.7,1-1.4,1.9-1.9,2.6c-0.2,0.2-0.3,0.4-0.3,0.6c0.1,0.1,0.2,0.1,0.3,0.2c2.7-2.1,5.8-4.7,8.2-6.9c-0.3-0.2-0.6-0.3-0.9-0.4
						l0,0c-0.9-0.2-1.9-0.1-2.8-0.3c-1.2,1.7-2.8,3.7-4,5.7C294.7,197,295,196.5,295.5,195.9z"/>
				</g>
			</g>
		</g>
	</g>
	<g>
		<g>
			<g>
				<g>
					<path class="st24" d="M302.9,197.9c0,0-0.3,0.3-0.9,0.7c-0.6,0.4-1.4,1-2.2,1.7c-0.8,0.7-1.7,1.3-1.9,1.9
						c-0.1,0.2-0.1,0.5,0,0.6c0.1,0.1,0.2,0.2,0.2,0.3c2.3-0.8,5.9-3,8.5-4.4c-0.9-0.6-2.2-0.7-2.9-1.5c-0.3,0.2-0.5,0.4-0.8,0.6
						C302.8,197.9,302.9,197.9,302.9,197.9z M301.5,201.1c-0.7,0.4-1.3,0.8-1.4,0.7c0-0.1,0.5-0.5,1.3-0.9c0.7-0.4,1.4-0.7,1.4-0.6
						C302.8,200.3,302.2,200.7,301.5,201.1z"/>
				</g>
			</g>
		</g>
	</g>
	<g>
		<g>
			<g>
				<g>
					<path class="st24" d="M305.8,203.3c-0.6,0.3-1.4,0.8-2.3,1.2c-0.9,0.5-1.8,0.9-2.4,1.2c-0.6,0.3-1,0.4-1,0.4c0,0,0,0,0,0
						c-0.1,0.1-0.3,0.2-0.4,0.2c0.2,0.5,0.4,1,0.5,1.5c0.1,0,0.3,0,0.4,0c2.5-0.4,6.7-1.1,9.7-1.7c-0.2-0.3-0.4-0.6-0.7-0.9
						c-0.6-0.6-1.4-1.2-1.7-2c-0.1-0.3-0.2-0.5-0.2-0.8c-0.4,0.2-0.8,0.4-1.2,0.6C306.3,203,306.1,203.2,305.8,203.3z"/>
				</g>
			</g>
		</g>
	</g>
	<g>
		<g>
			<g>
				<g>
					<path class="st24" d="M305.9,210.4c-1.3,0.1-2.4,0.1-3.4,0.1c-0.9,0-1.4,0-1.4,0c0,0,0.4-0.1,1.1-0.2c-0.4,0-0.8,0-1.3,0.1
						c-0.1,0-0.2,0-0.2,0c0,0.4,0.1,0.8,0.1,1.2c2.8,0.7,6.8,1.6,10,2.3c0.1-0.2,0.1-0.4,0.1-0.7c-0.1-1.2-1.7-1.9-1.7-3.1
						c-0.4,0-0.8,0-1.1,0C307.4,210.3,306.7,210.4,305.9,210.4z"/>
				</g>
			</g>
		</g>
	</g>
	<g>
		<g>
			<g>
				<g>
					<path class="st24" d="M302.4,215.5c-0.5-0.2-1-0.4-1.5-0.6c-0.1-0.1-0.3-0.1-0.4-0.1c-0.1,0.5-0.2,1-0.4,1.5
						c2.5,1.5,6,4.2,8.8,6.2c0.3-0.2,0.6-0.5,0.7-0.8c0.5-1.2-0.5-2.4-0.8-3.6c-0.8-0.3-2.1-0.8-3.5-1.3
						C304.2,216.3,303.1,215.8,302.4,215.5z"/>
				</g>
			</g>
		</g>
	</g>
	<g>
		<g>
			<g>
				<g>
					<path class="st24" d="M303.5,221.7c-1.3-0.7-2.6-1.4-3.4-1.9c-0.6-0.4-1.1-0.6-1.3-0.8c-0.2,0.3-0.3,0.5-0.5,0.8
						c0.2,0.3,0.5,0.5,0.7,0.7c1.9,1.6,5,4.4,7.3,6.4c0.4-0.8,0.1-2,0.6-2.8c0.1-0.1,0.1-0.2,0.2-0.3c-0.3-0.2-0.6-0.4-0.9-0.5
						C305.5,222.8,304.5,222.3,303.5,221.7z"/>
				</g>
			</g>
		</g>
	</g>
	<g>
		<g>
			<g>
				<g>
					<path class="st24" d="M299.2,226.3c-0.4-0.6-0.8-1.1-1.2-1.7c-0.4-0.5-0.7-1-1.1-1.3c-0.4-0.3-0.8-0.2-1-0.1
						c-0.2,0.1-0.3,0.3-0.3,0.3c0,0,0-0.2,0.2-0.4c0.2-0.2,0.6-0.2,1.1,0c-0.3-0.3-0.6-0.6-0.8-0.8c-0.2,0.2-0.5,0.4-0.7,0.6
						c0.9,2.9,3,7,4.8,10.2c0.4,0,0.8-0.1,1.1-0.4c0.8-0.8,0.3-2.2,0.4-3.3c-0.1-0.1-0.2-0.2-0.2-0.3
						C300.8,228.6,300,227.5,299.2,226.3z"/>
				</g>
			</g>
		</g>
	</g>
	<g>
		<g>
			<g>
				<g>
					<path class="st24" d="M295.7,231.9c0.3,0.7,0.4,1.2,0.4,1.2c0,0-0.2-0.4-0.5-1.1c-0.3-0.8-0.7-1.7-1.2-2.8
						c-0.4-1-0.8-2-1.2-2.7c-0.2-0.4-0.3-0.7-0.4-0.9c-0.1-0.1-0.1-0.2-0.2-0.3c0.2,2.9,0.9,6.9,1.5,10.1c0.7-0.7,1.4-1.5,2.2-1.9
						c-0.4-1.1-0.8-2.3-1.3-3.4C295.2,230.7,295.5,231.3,295.7,231.9z"/>
				</g>
			</g>
		</g>
	</g>
	<g>
		<g>
			<g>
				<g>
					<path class="st24" d="M289.5,233.6c0,0.9-0.1,1.5-0.1,1.5c0,0-0.1-0.6-0.1-1.5s0-2.2,0-3.6c0-0.7,0-1.4,0-2
						c0-0.6,0-1.1-0.2-1.5c-0.2-0.3-0.4-0.5-0.6-0.6c-0.1,0-0.2,0-0.3,0c-0.2,0-0.3,0-0.5,0c0,0,0,0,0,0.1c-0.3,0.3-0.4,0.8-0.5,1.2
						c-0.6,2.7-1,6.6-1.5,9.5c1-0.3,1.5-1.7,2.6-1.9c0.5-0.1,0.9,0.1,1.4,0.3c0-0.9-0.1-1.8-0.1-2.8
						C289.5,233,289.5,233.3,289.5,233.6z"/>
				</g>
			</g>
		</g>
	</g>
	<g>
		<g>
			<g>
				<g>
					<path class="st24" d="M282.7,230.4c0.2-0.7,0.5-1.3,0.6-1.9c0.2-0.6,0.2-1.1,0.2-1.6c-0.1-0.4-0.2-0.7-0.3-1
						c-0.2,0-0.3,0.2-0.5,0.4c-1.7,2.4-4,6.2-5.7,9.2c1.2,0.3,2.6-0.6,3.9-0.6c0.1-0.2,0.3-0.6,0.5-1.2
						C281.8,232.9,282.2,231.7,282.7,230.4z"/>
				</g>
			</g>
		</g>
	</g>
	<g>
		<g>
			<g>
				<g>
					<path class="st24" d="M276,230.3c0.3-0.5,1.1-1.5,2-2.8c1-1.3,1.8-2.5,2.1-2.8c-0.4-0.2-0.7-0.4-1-0.6
						c-0.2,0.3-0.6,0.7-1.1,1.2c-0.7,0.7-1.4,1.3-1.4,1.2c-0.1-0.1,0.5-0.7,1.3-1.4c0.4-0.4,0.7-0.7,1-0.9c-0.6,0.3-1.1,0.8-1.6,1.2
						c-1.8,1.7-3.6,3.4-5.4,5.2c1.1,0.1,2.2,0,3,0.6c0.1,0.1,0.2,0.2,0.3,0.4C275.3,231.2,275.6,230.7,276,230.3z"/>
				</g>
			</g>
		</g>
	</g>
	<g>
		<g>
			<g>
				<g>
					<path class="st24" d="M273,224.5c0.9-0.8,1.8-1.5,2.4-2c0.1-0.1,0.2-0.3,0.2-0.4c0-0.1,0-0.3,0-0.4c-0.1-0.2-0.2-0.2-0.2-0.2
						c0,0,0.2,0,0.3,0.2c0.1,0.1,0.1,0.2,0.1,0.4c0,0,0,0.1,0,0.1c0.1-0.1,0.3-0.3,0.3-0.5c-0.2-0.2-0.4-0.4-0.6-0.6
						c-0.2,0-0.4,0.1-0.6,0.2c-2.6,1-6.5,3.1-9.6,4.6c1.1,0.6,2.9,0.1,3.7,1.1c0.1,0.1,0.2,0.3,0.2,0.4c0.8-0.6,1.7-1.3,2.6-2.1
						C272.2,225.1,272.6,224.8,273,224.5z"/>
				</g>
			</g>
		</g>
	</g>
	<g>
		<g>
			<g>
				<g>
					<path class="st24" d="M269.4,219.9c0.6-0.2,1.1-0.5,1.7-0.7c0.5-0.2,1-0.4,1.3-0.6c0.7-0.4,1-0.9,1-0.8c0,0,0,0.1-0.1,0.3
						c-0.1,0.1-0.2,0.3-0.4,0.4c0.1,0,0.1-0.1,0.2-0.1c0.2-0.1,0.4-0.2,0.5-0.4c-0.1-0.2-0.2-0.5-0.3-0.8c-0.2-0.1-0.5-0.1-0.7,0
						c-3.3,0.3-6.7,0.6-10,0.9c0.6,0.7,1.6,0.9,2.2,1.7c0.3,0.5,0.4,1,0.3,1.6c0.8-0.3,1.6-0.6,2.4-0.9
						C268,220.5,268.7,220.2,269.4,219.9z"/>
				</g>
			</g>
		</g>
	</g>
	<g>
		<g>
			<g>
				<g>
					<path class="st24" d="M263.2,214.7c0,0,0.5-0.1,1.3-0.1c0.8-0.1,1.9-0.2,3.1-0.3c1.2-0.1,2.3-0.2,3.1-0.3
						c0.8-0.1,1.3-0.1,1.3-0.1c0,0-0.5,0.1-1.2,0.3c-0.5,0.1-1.2,0.2-1.9,0.3c1.2-0.1,2.4-0.2,3.4-0.4c0,0,0.1,0,0.1,0
						c0-0.2-0.1-0.3-0.1-0.5c0-0.2-0.1-0.5-0.1-0.7c0,0-0.1,0-0.1,0c-2.9-1.3-7-2-10.4-2.5c0.1,0.6,0.4,1.1,0.9,1.2l-0.1-0.4
						c0.8,0.3,1.2,1.3,1,2.2c-0.1,0.6-0.3,1.1-0.6,1.6c0.2,0,0.5,0,0.8,0C263.3,214.7,263.2,214.7,263.2,214.7z M270.1,213.1
						c0.9,0.1,1.7,0.2,1.7,0.2c0,0.1-0.8,0.1-1.7,0c-0.9-0.1-1.7-0.2-1.7-0.2C268.4,213.1,269.2,213.1,270.1,213.1z"/>
				</g>
			</g>
		</g>
	</g>
	<g>
		<g>
			<g>
				<g>
					<path class="st24" d="M263.5,207.1c0,0,0.5,0.1,1.4,0.4c0.3,0.1,0.7,0.2,1.1,0.4c1,0.3,2,0.6,3,0.8c1.1,0.2,2,0.4,2.8,0.4
						c0.2,0,0.4-0.1,0.5-0.2c0,0,0,0,0.1-0.1c0.1-0.3,0.1-0.6,0.2-0.9c-0.5-0.2-1.2-0.5-2.1-0.8c-1.4-0.6-2.6-1.2-2.6-1.2
						c0-0.1,1.2,0.4,2.7,1c0.3,0.1,0.6,0.3,0.9,0.4c-2.9-1.5-5.7-2.9-8.5-4c0,1,0.5,2.1,0.3,3.1c0,0.2-0.1,0.4-0.2,0.6
						c0.2,0.1,0.4,0.1,0.6,0.2C263.6,207.2,263.5,207.1,263.5,207.1z"/>
				</g>
			</g>
		</g>
	</g>
	<g>
		<g>
			<g>
				<g>
					<path class="st24" d="M267.7,200.7c0,0,0.4,0.3,1,0.7c0.6,0.5,1.5,1.1,2.4,1.7c1,0.6,1.9,1.2,2.5,1.6c0.1,0,0.2,0.1,0.2,0.1
						c0.1-0.3,0.3-0.5,0.5-0.8c0,0,0,0,0,0c-0.3-0.3-0.7-0.7-1.1-1.1c-0.9-0.9-1.5-1.8-1.4-1.8c0,0,0.4,0.3,0.9,0.8
						c-1.5-1.8-3.2-3.6-4.7-5c-0.4,0.1-0.8,0.3-1,0.7c-0.5,0.7-0.1,1.8-0.3,2.6c0.6,0.4,1.2,0.8,1.9,1.3
						C268,201,267.6,200.7,267.7,200.7z"/>
				</g>
			</g>
		</g>
	</g>
	<g>
		<g>
			<g>
				<g>
					<path class="st24" d="M274.3,198.3c1.4,1.4,2.7,2.6,2.6,2.7c0.2-0.2,0.4-0.4,0.7-0.5c0,0,0-0.1,0-0.1c-1.2-2.3-3.4-5.9-4.9-8.5
						c-0.2,0.1-0.3,0.2-0.5,0.3c-0.8,0.6-0.9,1.7-1.3,2.7c0.3,0.3,0.7,0.8,1.1,1.2C272.5,196.5,273.4,197.4,274.3,198.3z
						 M275.5,197.4c0.1,0,0.5,0.7,1,1.5c0.5,0.9,1,1.5,0.9,1.6c-0.1,0-0.6-0.6-1.2-1.4C275.8,198.2,275.5,197.5,275.5,197.4z"/>
				</g>
			</g>
		</g>
	</g>
	<g>
		<g>
			<g>
				<g>
					<path class="st24" d="M278,192.2c0,0,0.2,0.4,0.4,1.1c0.2,0.7,0.5,1.6,0.8,2.6c0.3,0.9,0.6,1.7,0.8,2.3
						c0.1,0.2,0.2,0.4,0.3,0.6c0.3-0.1,0.5-0.2,0.8-0.3c-0.1-0.1-0.2-0.8-0.5-1.6c-0.2-0.9-0.4-1.6-0.4-1.7c0.1,0,0.4,0.7,0.6,1.6
						c0.1,0.3,0.1,0.6,0.2,0.9c-0.3-2.6-0.7-5.9-1-8.6c-0.4,0.4-0.6,1.2-1.1,2.3c-0.2,0.4-0.6,0.6-1,0.7
						C278,192.1,278,192.1,278,192.2C278,192.2,278,192.2,278,192.2z"/>
				</g>
			</g>
		</g>
	</g>
	<g>
		<g>
			<g>
				<g>
					<path class="st24" d="M284.7,194.1c0.2,1.5,0.3,2.7,0.3,3.4c0.3,0,0.7-0.1,1-0.1c0.5-0.9,0.6-1.9,0.8-2.9
						c0.2-1.8,0.5-4.7,0.7-6.8c-0.3,0.1-0.6,0.2-0.9,0.4c-0.7,0.5-1.4,2.5-1.9,2.6c-0.2,0-0.3-0.1-0.5-0.2c0,0.1,0,0.1,0,0.2
						C284.3,191.2,284.5,192.6,284.7,194.1z"/>
				</g>
			</g>
		</g>
	</g>
</g>
<g>
	<g>
		<g>
			<path class="st7" d="M299.2,211.6c0.2,7.1-5.5,13-12.6,13.2c-7.1,0.2-13-5.5-13.2-12.6c-0.2-7.1,5.5-13,12.6-13.2
				C293.2,198.9,299.1,204.5,299.2,211.6z"/>
		</g>
	</g>
</g>
<g>
	<g>
		<g>
			<g>
				<g>
					<polygon class="st24" points="279.8,212.4 281.6,210.4 285.4,213.5 292.2,206.2 294.1,208 285.3,217.1 					"/>
				</g>
			</g>
		</g>
	</g>
</g>
<rect x="-139" y="192" class="st8" width="52" height="60"/>
<rect x="-145" y="98" class="st4" width="65" height="56"/>
<rect x="-142" y="285" class="st25" width="59" height="72"/>
<rect x="-137" y="-1" class="st10" width="59" height="60"/>
<rect x="-138" y="407" class="st24" width="55" height="62"/>
<path class="st22" d="M601,501v4c0,0,14-2,18,4C619,509,624,502,601,501z"/>
<path class="st22" d="M586.5,499v4c0,0-14-2-18,4C568.5,507,563.5,500,586.5,499z"/>
<path class="st22" d="M576,459c0,0,1,8,2,8c0,0-5-3-5-3s0,0,0,0s1,8,8,13s15,3,16,2s10-6,14-8s-10-11-10-11s-10-2-9-4c0,0-3,1-2,4
	c0,0-12-4-12-6c0,0,0,3,2,5C580,459,579,461,576,459z"/>
<path class="st28" d="M472,783c0,0,27.5,19.7,28.3,21.3c0,0-23.3-8.3-28.3-6.3s23.2,4.9,33.1,10.9c9.9,6.1,8.9,4.3,8.9,4.3l0.2-3.5
	C514.2,809.8,477,782,472,783z"/>
<polygon class="st28" points="534.8,822.1 578.9,839.7 647.5,822.1 "/>
<path class="st28" d="M672.7,811.7c0,0,13.6-5.1,16.9-7.4c3.3-2.3,25.1-11.1,39.7-3.7c0,0,0.6-7.6-29.4-2.6s-26.6,4.6-26.6,4.6
	L672.7,811.7z"/>
<path class="st28" d="M582.6,842.1l96.4,38.7l9.8-2.2C688.8,878.6,592.2,837.2,582.6,842.1z"/>
<path class="st29" d="M494.8,955.5c0,0-4.8,3.5-7.8-0.5s-9-29,1-53s11.7-28.3,11.7-28.3l4.3,1.3L494.8,955.5z"/>
<path class="st28" d="M503.7,875.4c0,0-5.8,8.7-9.1,20.9c-3.3,12.2-7.6,33-7.3,41.4c0.2,8.5,3.1,24.2,15,15.3
	c11.9-8.8,23.1-40.7,26.6-44.4c3.5-3.7,19-15.1,19-15.1L503.7,875.4z"/>
<g>
	<path class="st28" d="M647.5,875.2c0,0,18.2-5.1,24.4,6.1c6.2,11.2,23.6,78.3,23.6,84.5s2.5,24.9-12.4,22.4
		c-14.9-2.5-28.6-52.2-33.6-58.4c-5-6.2-16.2-18.1-16.2-18.1L647.5,875.2z"/>
	<path class="st29" d="M667.8,876.8l10.4,2l6.2,18.6c0,0-4.1,7.1-0.8,11s7,11.4,9.5,23.8c2.5,12.4,8.7,36.1,7.5,44.8
		c-1.2,8.7-10.1,10-10.1,10s9.3-16.5,1.6-36.9c-7.7-20.4-7.2-33.5-9.3-35.6c-2.1-2.1-7.1-11.5-6.5-17.4
		C676.9,891.2,667.8,876.8,667.8,876.8z"/>
</g>
</svg>
