<?xml version="1.0" encoding="utf-8"?>
<!-- Generator: Adobe Illustrator 24.2.3, SVG Export Plug-In . SVG Version: 6.00 Build 0)  -->
<svg version="1.1" id="Layer_1" xmlns="http://www.w3.org/2000/svg" xmlns:xlink="http://www.w3.org/1999/xlink" x="0px" y="0px"
	 viewBox="0 0 1000 1000" style="enable-background:new 0 0 1000 1000;" xml:space="preserve">
<style type="text/css">
	.st0{fill:#ECECEC;}
	.st1{fill:#7A5305;}
	.st2{fill:#F5F5F5;}
	.st3{fill:#FFFFFF;}
	.st4{fill:#FFB81F;}
	.st5{fill:#C17560;}
	.st6{fill:#5F5F5F;}
	.st7{fill:#231A1A;}
	.st8{opacity:0.5;}
	.st9{fill:#8D4032;}
	.st10{opacity:0.5;fill:#8D4032;}
	.st11{fill:#EFA30A;}
	.st12{fill:#3F3F3F;}
	.st13{fill:#E1E1E1;}
	.st14{fill:#C1C1C1;}
	.st15{fill:#237C7A;}
	.st16{opacity:0.3;}
	.st17{fill:#725533;}
	.st18{fill:#FF8602;}
	.st19{fill:#FFBF9D;}
	.st20{fill:#5B4324;}
	.st21{opacity:0.6;}
	.st22{fill:#FF9A6C;}
	.st23{fill:#6B6B6B;}
	.st24{fill:#2D2D2D;}
	.st25{fill:#355666;}
	.st26{fill:#EAAD92;}
	.st27{fill:#F4B498;}
	.st28{fill:#BC9746;}
	.st29{fill:#E8D19A;}
	.st30{fill:#00A0A3;}
	.st31{fill:#4C3711;}
	.st32{fill:#E07B53;}
	.st33{opacity:0.6;fill:#FF9A6C;}
</style>
<circle class="st0" cx="501.6" cy="557.5" r="430.5"/>
<path class="st1" d="M307.1,924.9c0,0-0.9,8.5-2.2,11.4c-1.3,2.9-5,8.5-5.3,10.5c-0.2,2,2.2,7.3,2,8.3c-0.1,1,16.8,3,16.8,3
	s6.4-3.3,11.9,1.4c5.5,4.7,38.7,4.6,38.7,4.6s1.5-3.9,0.6-5c-0.9-1.1-19.4-6.3-26-10.1c-6.6-3.8-12.8-10.6-12.5-13.6
	c0.4-3,1.2-9.9,1.2-9.9L307.1,924.9z"/>
<g>
	<g>
		<path class="st0" d="M257.1,166.5c1.4-10.3-13.1-18.7-23.9-19.6c-5.2-0.4-10.6,0.4-15.5-1.3c-10.6-3.7-14.9-17.5-25.3-21.9
			c-7.8-3.3-16.7-0.4-24.2,3.4s-15,8.6-23.4,9.1c-7.3,0.5-15.3-2.2-21.7,1.3c-4.8,2.7-7.3,8.2-11.7,11.4c-4.3,3.2-9.9,3.8-15.3,4.1
			c-5.3,0.3-10.9,0.3-15.7,2.6c-4.9,2.2-8.9,7.4-7.9,12.6L257.1,166.5z"/>
	</g>
</g>
<g>
	<g>
		<path class="st2" d="M958.9,143.5c1.9-13.8-17.6-25.2-32.3-26.4c-7-0.6-14.3,0.5-20.9-1.8c-14.4-5-20.1-23.5-34.1-29.5
			c-10.5-4.4-22.5-0.5-32.7,4.6c-10.2,5.1-20.2,11.5-31.5,12.3c-9.9,0.6-20.6-3-29.2,1.8c-6.4,3.6-9.8,11-15.7,15.4
			c-5.8,4.3-13.4,5.2-20.6,5.6c-7.2,0.4-14.6,0.5-21.2,3.5c-6.6,3-12,9.9-10.6,17L958.9,143.5z"/>
	</g>
</g>
<g>
	<g>
		<path class="st3" d="M794.2,271c1.3-9.7-12.4-17.7-22.7-18.6c-4.9-0.4-10,0.4-14.7-1.3c-10.1-3.5-14.1-16.6-24-20.7
			c-7.4-3.1-15.9-0.3-23,3.3c-7.1,3.6-14.2,8.1-22.2,8.6c-6.9,0.4-14.5-2.1-20.6,1.3c-4.5,2.5-6.9,7.7-11.1,10.8
			c-4.1,3-9.4,3.6-14.5,3.9c-5.1,0.3-10.3,0.3-14.9,2.4c-4.6,2.1-8.4,7-7.5,12L794.2,271z"/>
	</g>
</g>
<g>
	<g>
		<path class="st3" d="M394.5,340.6c1.7-12.5-15.9-22.8-29.2-23.9c-6.3-0.5-12.9,0.5-18.9-1.6c-13-4.5-18.2-21.3-30.9-26.7
			c-9.5-4-20.4-0.4-29.6,4.2c-9.2,4.6-18.3,10.4-28.5,11.1c-8.9,0.6-18.6-2.7-26.4,1.6c-5.8,3.3-8.9,10-14.2,13.9
			c-5.2,3.9-12.1,4.7-18.6,5c-6.5,0.4-13.3,0.4-19.2,3.1c-5.9,2.7-10.8,9-9.6,15.4L394.5,340.6z"/>
	</g>
</g>
<g>
	<g>
		<g>
			<path class="st4" d="M504.5,51.4l6.4,13c0.5,0.9,1.3,1.6,2.4,1.7l14.3,2.1c2.6,0.4,3.6,3.5,1.7,5.3L519,83.7
				c-0.7,0.7-1.1,1.8-0.9,2.8l2.4,14.3c0.4,2.6-2.2,4.5-4.5,3.3l-12.8-6.7c-0.9-0.5-2-0.5-2.9,0l-12.8,6.7c-2.3,1.2-5-0.7-4.5-3.3
				l2.4-14.3c0.2-1-0.2-2.1-0.9-2.8l-10.4-10.1c-1.9-1.8-0.8-5,1.7-5.3l14.3-2.1c1-0.1,1.9-0.8,2.4-1.7l6.4-13
				C500.1,49.1,503.4,49.1,504.5,51.4z"/>
			<g>
				<path class="st4" d="M480.1,60c-0.1,0.1-8.3-7.4-18.2-16.9c-9.9-9.5-17.9-17.2-17.7-17.3c0.1-0.1,8.3,7.4,18.2,16.9
					C472.3,52.1,480.2,59.9,480.1,60z"/>
			</g>
			<g>
				<path class="st4" d="M463.1,68c0,0.2-7-0.1-15.6-0.6c-8.6-0.5-15.6-1.1-15.6-1.3c0-0.2,7,0.1,15.6,0.6
					C456.1,67.3,463.1,67.8,463.1,68z"/>
			</g>
			<g>
				<path class="st4" d="M489.6,44.7c-0.2,0.1-2.2-4.1-4.5-9.3c-2.3-5.2-4.1-9.5-3.9-9.6c0.2-0.1,2.2,4.1,4.5,9.3
					C488,40.4,489.8,44.7,489.6,44.7z"/>
			</g>
			<g>
				<path class="st4" d="M500.5,3.1c0.2,0,0.3,8.5,0.3,19.1c0,10.5-0.1,19.1-0.3,19.1c-0.2,0-0.3-8.5-0.3-19.1
					C500.1,11.6,500.3,3.1,500.5,3.1z"/>
			</g>
			<g>
				<path class="st4" d="M522.1,26.1c0.2,0.1-1.7,4.2-4.1,9.3c-2.4,5-4.5,9.1-4.6,9c-0.2-0.1,1.7-4.2,4.1-9.3
					C519.9,30.1,522,26.1,522.1,26.1z"/>
			</g>
			<g>
				<path class="st4" d="M557.2,32.4c0.1,0.1-9.3,6.8-20.9,15c-11.6,8.1-21.2,14.6-21.3,14.4c-0.1-0.1,9.3-6.8,20.9-15
					C547.6,38.7,557.1,32.2,557.2,32.4z"/>
			</g>
			<g>
				<path class="st4" d="M558.1,59.5c0.1,0.2-4.6,2.1-10.3,4.4c-5.8,2.2-10.5,3.9-10.6,3.8c-0.1-0.2,4.6-2.1,10.3-4.4
					C553.3,61,558,59.3,558.1,59.5z"/>
			</g>
			<g>
				<path class="st4" d="M476.5,85.6c0.1,0.2-12.1,4.5-27.2,9.7c-15.1,5.2-27.3,9.2-27.4,9.1c-0.1-0.2,12.1-4.5,27.2-9.7
					C464.2,89.5,476.5,85.5,476.5,85.6z"/>
			</g>
			<g>
				<path class="st4" d="M572.4,99c0,0.2-10.8-2.7-23.9-6.4c-13.2-3.7-23.8-6.8-23.7-7c0-0.2,10.8,2.7,23.9,6.4
					C561.8,95.7,572.5,98.8,572.4,99z"/>
			</g>
		</g>
		<g>
			<path class="st4" d="M466.5,121.2c-0.1-0.1,3.1-3.1,7.3-6.7c4.1-3.6,7.6-6.4,7.7-6.2c0.1,0.1-3.1,3.1-7.3,6.7
				C470.1,118.5,466.6,121.3,466.5,121.2z"/>
		</g>
		<g>
			<path class="st4" d="M501.5,151.2c-0.2,0-0.3-10.5-0.2-23.4c0.1-12.9,0.3-23.4,0.4-23.4c0.2,0,0.3,10.5,0.2,23.4
				C501.9,140.7,501.7,151.2,501.5,151.2z"/>
		</g>
		<g>
			<path class="st4" d="M537.6,123.8c-0.1,0.1-3.5-2.9-7.5-6.7c-4-3.8-7.2-7-7.1-7.1c0.1-0.1,3.5,2.9,7.5,6.7
				C534.6,120.5,537.8,123.7,537.6,123.8z"/>
		</g>
	</g>
	<path class="st4" d="M563.9,79.6l0.1,2.1c0,0.2,0.1,0.3,0.2,0.4l1.8,1.1c0.3,0.2,0.3,0.7-0.1,0.8l-2,0.8c-0.1,0.1-0.2,0.2-0.3,0.3
		l-0.5,2.1c-0.1,0.4-0.6,0.5-0.8,0.2l-1.3-1.6c-0.1-0.1-0.2-0.2-0.4-0.2l-2.1,0.2c-0.4,0-0.6-0.4-0.4-0.7l1.2-1.8
		c0.1-0.1,0.1-0.3,0-0.4l-0.8-2c-0.1-0.4,0.2-0.7,0.5-0.6l2,0.5c0.1,0,0.3,0,0.4-0.1l1.6-1.4C563.5,79,563.9,79.2,563.9,79.6z"/>
	<path class="st4" d="M577.5,57.4l1,1c0.1,0.1,0.2,0.1,0.3,0.1l1.4-0.2c0.2,0,0.4,0.2,0.3,0.4l-0.7,1.2c0,0.1,0,0.2,0,0.3l0.6,1.2
		c0.1,0.2-0.1,0.5-0.3,0.4l-1.4-0.2c-0.1,0-0.2,0-0.3,0.1l-1,1c-0.2,0.2-0.5,0.1-0.5-0.2l-0.2-1.4c0-0.1-0.1-0.2-0.2-0.2l-1.2-0.6
		c-0.2-0.1-0.2-0.4,0-0.5l1.3-0.6c0.1,0,0.2-0.1,0.2-0.2l0.2-1.4C577,57.3,577.3,57.2,577.5,57.4z"/>
	<path class="st4" d="M421.9,40.7l1,1c0.1,0.1,0.2,0.1,0.3,0.1l1.4-0.2c0.2,0,0.4,0.2,0.3,0.4l-0.7,1.2c0,0.1,0,0.2,0,0.3l0.6,1.2
		c0.1,0.2-0.1,0.5-0.3,0.4l-1.4-0.2c-0.1,0-0.2,0-0.3,0.1l-1,1c-0.2,0.2-0.5,0.1-0.5-0.2l-0.2-1.4c0-0.1-0.1-0.2-0.2-0.2l-1.2-0.6
		c-0.2-0.1-0.2-0.4,0-0.5l1.3-0.6c0.1,0,0.2-0.1,0.2-0.2l0.2-1.4C421.4,40.6,421.7,40.5,421.9,40.7z"/>
</g>
<g>
	<g>
		<g>
			<g>
				<path class="st5" d="M570.6,677l9.3,7.3c1.8,1.4,3.1,3.2,3.9,5.4l3.1,8.7l-11.6,12.9l-14-9.7c0,0-4.4-7.2-4.7-9.1
					c-0.3-2,2.2-3.3,2.2-3.3c-0.8-2.5,2.3-5,2.3-5c-0.5-2.9,3-3.8,3-3.8s-0.2-3.5,0.7-4.3c0.3-0.3,1-0.5,1.6-0.5
					C567.9,675.5,569.4,676,570.6,677z"/>
			</g>
		</g>
	</g>
	<g>
		<g>
			<g>
				<path class="st5" d="M650.4,779.2c0,0-42-12.7-53.6-21c-6.3-4.5-25.1-50.2-25.1-50.2l14.1-11.8l25.9,42.7l50.5,12L650.4,779.2z"
					/>
			</g>
		</g>
	</g>
</g>
<g>
	<g>
		<path class="st6" d="M419.6,376.5c39.4,0,78.7,0,118.1,0c11.1,0,22.2,0,33.3,0c5.8,0,5.8-9,0-9c-39.4,0-78.7,0-118.1,0
			c-11.1,0-22.2,0-33.3,0C413.8,367.4,413.8,376.5,419.6,376.5L419.6,376.5z"/>
	</g>
	<g>
		<rect x="415" y="135.7" class="st6" width="10.8" height="843.4"/>
	</g>
	<g>
		<path class="st6" d="M425.3,979.1c-0.3,0-0.5-188.7-0.5-421.4c0-232.8,0.2-421.5,0.5-421.5c0.3,0,0.5,188.7,0.5,421.5
			C425.7,790.4,425.5,979.1,425.3,979.1z"/>
	</g>
	<g>
		<path class="st6" d="M419.6,305.3c39.4,0,78.7,0,118.1,0c11.1,0,22.2,0,33.3,0c5.8,0,5.8-9,0-9c-39.4,0-78.7,0-118.1,0
			c-11.1,0-22.2,0-33.3,0C413.8,296.3,413.8,305.3,419.6,305.3L419.6,305.3z"/>
	</g>
	<g>
		<rect x="566.4" y="134.3" class="st6" width="10.8" height="844.8"/>
	</g>
	<g>
		<path class="st6" d="M566.6,781.6c-0.3,0-0.5-144.6-0.5-323c0-178.4,0.2-323,0.5-323c0.3,0,0.5,144.6,0.5,323
			C567.1,637,566.9,781.6,566.6,781.6z"/>
	</g>
	<g>
		<path class="st6" d="M421.4,814.7c39.4,0,78.7,0,118.1,0c11.1,0,22.2,0,33.3,0c5.8,0,5.8-9,0-9c-39.4,0-78.7,0-118.1,0
			c-11.1,0-22.2,0-33.3,0C415.6,805.7,415.6,814.7,421.4,814.7L421.4,814.7z"/>
	</g>
	<g>
		<path class="st6" d="M421.4,888.7c39.4,0,78.7,0,118.1,0c11.1,0,22.2,0,33.3,0c5.8,0,5.8-9,0-9c-39.4,0-78.7,0-118.1,0
			c-11.1,0-22.2,0-33.3,0C415.6,879.7,415.6,888.7,421.4,888.7L421.4,888.7z"/>
	</g>
	<g>
		<path class="st6" d="M421.4,956c39.4,0,78.7,0,118.1,0c11.1,0,22.2,0,33.3,0c5.8,0,5.8-9,0-9c-39.4,0-78.7,0-118.1,0
			c-11.1,0-22.2,0-33.3,0C415.6,947,415.6,956,421.4,956L421.4,956z"/>
	</g>
	<g>
		<path class="st6" d="M424.2,661.1c36.9,0,73.8,0,110.7,0c10.5,0,21,0,31.5,0c5.8,0,5.8-9,0-9c-36.9,0-73.8,0-110.7,0
			c-10.5,0-21,0-31.5,0C418.4,652,418.3,661.1,424.2,661.1L424.2,661.1z"/>
	</g>
	<g>
		<path class="st6" d="M424.2,234.2c36.9,0,73.8,0,110.7,0c10.5,0,21,0,31.5,0c5.8,0,5.8-9,0-9c-36.9,0-73.8,0-110.7,0
			c-10.5,0-21,0-31.5,0C418.4,225.1,418.3,234.2,424.2,234.2L424.2,234.2z"/>
	</g>
	<g>
		<path class="st6" d="M424.2,163c36.9,0,73.8,0,110.7,0c10.5,0,21,0,31.5,0c5.8,0,5.8-9,0-9c-36.9,0-73.8,0-110.7,0
			c-10.5,0-21,0-31.5,0C418.4,154,418.3,163,424.2,163L424.2,163z"/>
	</g>
	<g>
		<path class="st6" d="M419.6,589.9c39.4,0,78.7,0,118.1,0c11.1,0,22.2,0,33.3,0c5.8,0,5.8-9,0-9c-39.4,0-78.7,0-118.1,0
			c-11.1,0-22.2,0-33.3,0C413.8,580.9,413.8,589.9,419.6,589.9L419.6,589.9z"/>
	</g>
	<g>
		<path class="st6" d="M419.6,518.8c39.4,0,78.7,0,118.1,0c11.1,0,22.2,0,33.3,0c5.8,0,5.8-9,0-9c-39.4,0-78.7,0-118.1,0
			c-11.1,0-22.2,0-33.3,0C413.8,509.7,413.8,518.8,419.6,518.8L419.6,518.8z"/>
	</g>
	<g>
		<path class="st6" d="M419.6,447.6c39.4,0,78.7,0,118.1,0c11.1,0,22.2,0,33.3,0c5.8,0,5.8-9,0-9c-39.4,0-78.7,0-118.1,0
			c-11.1,0-22.2,0-33.3,0C413.8,438.6,413.8,447.6,419.6,447.6L419.6,447.6z"/>
	</g>
	<g>
		<path class="st6" d="M421.4,746.3c37.3,0,74.6,0,112,0c10.6,0,21.3,0,31.9,0c5.8,0,5.8-9,0-9c-37.3,0-74.6,0-112,0
			c-10.6,0-21.3,0-31.9,0C415.5,737.2,415.5,746.3,421.4,746.3L421.4,746.3z"/>
	</g>
</g>
<g>
	<g>
		<g>
			<g>
				<path class="st7" d="M690.7,652.1c0.6-3.3,4.4-5.7,7.7-4.7c2.2-3.5,7.5-4.6,10.9-2.2c1.6,1.1,2.8,2.8,4.4,4
					c1.5,1.1,3.4,1.8,5,2.7c1.6,1,3.1,2.6,3.2,4.5c0,2.1-1.8,3.9-3.8,4.5c-2,0.6-4.2,0.3-6.3,0c0.9,0.6,0.9,2,0.4,2.9
					c-0.6,0.9-1.6,1.4-2.6,1.7c-3.4,1-7.3-0.1-9.6-2.8l-3.6-3.4C692.9,659,690.1,655.5,690.7,652.1z"/>
			</g>
			<g>
				<path class="st4" d="M699.3,666.2c0.7,0.8,2,0.8,2.8,0.2c0.8-0.6,1.1-1.8,0.9-2.8c-0.2-1-0.8-1.9-1.7-2.5
					c-0.8-0.6-1.7-1.1-2.7-1.5c-1.5-0.6-3-1.1-4.5-1.3c-0.6-0.1-1.1-0.1-1.7,0c-0.5,0.2-1,0.6-1.1,1.1c-0.1,0.8,0.5,1.5,1.1,2
					c2.2,2,4.6,3.7,7.1,5.3"/>
			</g>
			<g>
				<path class="st7" d="M701.6,666c4.1-3.8,13.3-2.3,15.3,0.6c3.4-1.4,7.7,0.5,9,3.9c3.2,1,6.4,2,9.7,3c1.6,0.5,3.4,1.1,4.6,2.3
					c1.2,1.3,1.6,3.4,0.4,4.7c3.4,1.2,4.3,6.5,1.5,8.8c1.3,1.6,0.8,4.3-1,5.4c2.4,3.5,4.3,7.4,5.4,11.5c0.5,1.7,0.8,3.6,0,5.2
					c-0.8,1.6-3.1,2.6-4.4,1.4c0.9,1.4,0.8,3.4-0.2,4.7c1.7,0.2,1.9,2.8,0.7,3.9c-1.3,1.1-3.1,1.1-4.8,0.9c-1.7-0.2-3.5-0.4-4.9,0.4
					c0,0.5,0.2,0.8,0.4,1.1c2.7,2.6,3.1,6.7,0.7,9.5c-0.2,0.3-0.4,0.5-0.6,0.7c-1.1,1.3-3.6,2.3-5.1,3c-3.9,1.6-6.2,1.1-10.4,1.3
					c0.9,2.8-6.5,8.2-13.8,1.6c-16,2.8-27.4,3.4-43.6,2c-2.3-0.2-5.1-0.8-5.9-2.9c-1.9,0.3-3.9-0.7-5.1-2.2c-1.3-1.5-2-3.3-2.7-5.2
					c-3.9-1.4-6.6-5.6-6.4-9.7c-2.5-2.4-4-5.8-3.9-9.3c-3.8-1.5-5.5-6.8-3.3-10.2c1.3-4.7,3.3-9.2,6-13.2c-2.6-0.8-3.3-4.5-2-6.8
					c1.3-2.4,3.9-3.8,6.3-5c-2,0.3-3.5-2.3-2.9-4.2c0.6-1.9,2.6-3.2,4.4-4.1c2.7-1.3,5.6-2.3,8.5-2.9c1.3-3.4,6.1-7,9.5-8.2
					C676.6,653,686,652.3,701.6,666"/>
			</g>
			<g>
				<path class="st5" d="M703.4,680.7l-22.4-9.9c-8.9-2.2-16.4,8-18.3,17c-2.1,10-4.2,22.2-4.1,29.8c0.2,15.4,13.3,20.8,13.3,20.8
					c0,0-1.2,9.2-1.2,9.2c0.5,7.2,8,8.1,8,8.1c20.6,2.5,23.1-9.1,23.1-9.1l5.4-57.2C707.8,686.7,706.1,681.4,703.4,680.7z"/>
			</g>
			<g class="st8">
				<g>
					<g>
						<g>
							<g>
								<g>
									<g>
										<path class="st9" d="M672,738.5c0,0,8.3,0.3,19.2-4.3c0,0-4.4,9.2-19.8,8.9L672,738.5z"/>
									</g>
								</g>
							</g>
						</g>
					</g>
				</g>
			</g>
			<g>
				<g>
					<g>
						<g>
							<path class="st7" d="M666.3,687.5c0.3,0.5,1.8,0.2,3.5,0.5c1.7,0.2,3.1,0.8,3.5,0.3c0.2-0.2,0-0.7-0.6-1.3
								c-0.6-0.5-1.6-1-2.8-1.2c-1.2-0.1-2.3,0.2-2.9,0.5C666.4,686.8,666.1,687.3,666.3,687.5z"/>
						</g>
					</g>
				</g>
			</g>
			<g>
				<path class="st7" d="M655.3,694.4c0.4-2.4,1.4-4.7,3.1-6.3c1-0.9,2.2-1.5,3.1-2.4c1.9-2.1,2-5.2,3-7.8c1.3-3.4,4.3-6.1,7.8-7
					c2.9-0.7,6.1-0.3,8.9-1.4c2.1-0.9,3.7-2.5,5.9-3.3c4.1-1.4,8.5,1,12,3.6c0.5,3-1.7,5.4-3.7,7.7c-2,2.3-5.1,3.6-8.2,3.5
					c-2.4-0.1-5.1-0.9-6.9,0.6c-1.9,1.6-1.5,4.8-3.2,6.7c-2.3,2.7-6.9,1.1-10.2,2.6c-2.5,1.2-3.8,3.9-5.2,6.3
					c-1.4,2.4-3.8,4.7-6.5,4.3C655.1,699.2,654.9,696.8,655.3,694.4z"/>
			</g>
			<g>
				<path class="st7" d="M692.7,674.6c6.9,0.6,13.7,2.5,19.9,5.6c1.8,0.9,3.7,2.1,4.7,3.9c0.8,1.6,0.7,3.5,0.5,5.4
					c-0.6,5.7-3.6,12.4-6.2,17.4l-7.5,3.5c-5.3-1.8-1.9-11-1.2-15.7c-3.6-2-5.9-6.3-5.6-10.5C694.4,682.1,692.6,678.4,692.7,674.6z"
					/>
			</g>
			<g>
				<g>
					<g>
						<g>
							<g>
								<g>
									<g>
										<g>
											<path class="st5" d="M704.4,708.5c0.5-3.2,4.6-3.5,7.2-1.5c1.4,1.1,2.4,3,1.9,6.4c-1.4,9.1-10.3,5.8-10.3,5.6
												C703.2,718.8,703.7,712.3,704.4,708.5z"/>
										</g>
									</g>
								</g>
							</g>
						</g>
					</g>
				</g>
			</g>
			<g>
				<g>
					<g>
						<g>
							<g>
								<g>
									<g>
										<g>
											<g>
												<path class="st9" d="M706.5,715.9c0,0,0.1,0.1,0.4,0.3c0.2,0.2,0.7,0.3,1.2,0.2c1-0.2,2.1-1.6,2.4-3.2
													c0.2-0.8,0.1-1.6-0.1-2.3c-0.2-0.7-0.5-1.2-1-1.4c-0.5-0.2-0.9,0.1-1,0.3c-0.2,0.2-0.1,0.4-0.2,0.4c0,0-0.2-0.2,0-0.5
													c0.1-0.2,0.2-0.4,0.4-0.5c0.2-0.1,0.6-0.2,0.9-0.1c0.7,0.2,1.2,0.9,1.4,1.7c0.3,0.8,0.3,1.7,0.2,2.6
													c-0.3,1.8-1.6,3.4-2.9,3.6c-0.7,0.1-1.2-0.2-1.4-0.5C706.5,716.1,706.5,715.9,706.5,715.9z"/>
											</g>
										</g>
									</g>
								</g>
							</g>
						</g>
					</g>
				</g>
			</g>
			<g>
				<path class="st4" d="M712.7,718.9c0,0,0.5,0.2,1.3,0.9c0.7,0.7,1.7,2,1.9,3.9c0.1,0.9,0,2-0.4,3c-0.4,1-1.1,2-2,2.9
					c-0.9,0.8-2.1,1.5-3.4,1.8c-1.3,0.3-2.8,0.2-4.1-0.3c-1.3-0.5-2.5-1.4-3.3-2.5c-0.8-1.1-1.3-2.4-1.3-3.6c-0.2-2.5,1-4.7,2.4-5.9
					c0.7-0.6,1.5-0.9,2.2-1.1c0.7-0.2,1.3-0.3,1.9-0.3c0.5,0,0.9,0.1,1.2,0.2c0.3,0.1,0.4,0.2,0.4,0.2c0,0-0.5-0.2-1.6-0.2
					c-0.5,0-1.1,0.1-1.8,0.3c-0.7,0.2-1.4,0.6-2.1,1.1c-1.3,1.2-2.4,3.3-2.2,5.7c0.1,1.2,0.5,2.4,1.3,3.4c0.8,1,1.9,1.9,3.1,2.4
					c1.3,0.5,2.6,0.6,3.9,0.3c1.3-0.3,2.4-0.9,3.3-1.7c0.9-0.8,1.5-1.7,1.9-2.7c0.4-1,0.5-2,0.4-2.9c-0.2-1.8-1-3.1-1.7-3.8
					C713.2,719.2,712.7,718.9,712.7,718.9z"/>
			</g>
			<g>
				<g>
					<g>
						<g>
							<g>
								<path class="st7" d="M683.3,704.3c-0.2,1,0.5,2.1,1.6,2.3c1.1,0.2,2.1-0.5,2.3-1.5c0.2-1-0.5-2.1-1.6-2.3
									C684.5,702.6,683.5,703.3,683.3,704.3z"/>
							</g>
						</g>
					</g>
				</g>
			</g>
			<g>
				<g>
					<g>
						<g>
							<g>
								<path class="st7" d="M665,702.2c-0.2,1,0.5,2.1,1.6,2.3c1.1,0.2,2.1-0.5,2.3-1.5c0.2-1-0.5-2.1-1.6-2.3
									C666.2,700.5,665.1,701.2,665,702.2z"/>
							</g>
						</g>
					</g>
				</g>
			</g>
			<g>
				<g>
					<g>
						<g>
							<g>
								<g>
									<path class="st7" d="M665.8,694.5c0.2,0.3,1.8-0.6,3.7-0.2c1.9,0.4,3.1,1.8,3.4,1.6c0.1-0.1,0-0.6-0.5-1.3
										c-0.5-0.6-1.4-1.4-2.6-1.6c-1.2-0.2-2.3,0.1-3,0.5C666,693.9,665.7,694.4,665.8,694.5z"/>
								</g>
							</g>
						</g>
					</g>
				</g>
			</g>
			<g>
				<g>
					<g>
						<g>
							<g>
								<g>
									<path class="st7" d="M684.4,697.9c0.2,0.3,2-0.8,4.4-0.6c2.4,0.2,3.9,1.7,4.2,1.4c0.1-0.1-0.1-0.7-0.8-1.4
										c-0.7-0.7-1.9-1.4-3.3-1.5c-1.5-0.1-2.8,0.3-3.5,0.8C684.6,697.3,684.2,697.8,684.4,697.9z"/>
								</g>
							</g>
						</g>
					</g>
				</g>
			</g>
			<path class="st10" d="M676,701c0,0,0,2,0,3s-4,7-4,8s4,2,5,2s1,1-1,1s-6-2-6-3S676,701,676,701z"/>
			<path class="st9" d="M684,720c0,0-4,2-6,1s-4-2-6-1s-3,2-1,4s6,2,7,1S684,720,684,720z"/>
		</g>
	</g>
	<g>
		<g>
			<path class="st11" d="M669.8,746.1c0,0-1.7,2.7-4.6,6.1c-2.5,2.9-20.3,21-20.3,21l6.6,8.7l14.6-4.3L669.8,746.1z"/>
		</g>
		<g>
			<path class="st11" d="M656.8,789.4l0.3-4.3l-19.6-7.5l10.4-30.9l14.5,2.6c2.3-1.9,7.3-3.3,7.4-3.3l0.1-0.1l0,0.2l-3.7,31.5l0,0
				L656.8,789.4z"/>
		</g>
	</g>
	<g>
		<g>
			<g>
				<g>
					<path class="st4" d="M732.8,814.7v-1.5l-13.3-50.3c-3.3-12.4-12-20.6-24.6-23.3c-1.2-0.3-25.1,5.5-25.3,5.5l-8,23.6
						c0,0-7.6,21-6.3,31.6c0.8,6.6,19.3,34.7,19.3,34.7l-4.9,7.5c43.2,21.5,83.6,19,83.6,19C749.2,840.7,732.8,814.7,732.8,814.7z"
						/>
				</g>
			</g>
			<g>
				<g>
					<g>
						<g>
							<path class="st4" d="M703.7,822.2c0,0.1-1.2,1-3.3,2.3c-2.1,1.3-5.1,3.1-8.5,4.9c-3.4,1.8-6.6,3.2-8.9,4.1
								c-2.3,0.9-3.8,1.4-3.8,1.4c0-0.1,1.4-0.7,3.6-1.8c2.3-1.1,5.4-2.5,8.8-4.3c3.4-1.7,6.4-3.4,8.6-4.7
								C702.3,822.9,703.6,822.1,703.7,822.2z"/>
						</g>
					</g>
				</g>
			</g>
		</g>
	</g>
	<g>
		<g>
			<g>
				<path class="st5" d="M688.9,783.7c0,0-50.4,33.4-58,31.9c-7.6-1.5-54.6-42.4-54.6-42.4l10.6-14.2l45.1,29l46-32.9L688.9,783.7z"
					/>
			</g>
		</g>
	</g>
	<g>
		<g>
			<g>
				<g>
					<path class="st4" d="M707.3,745.7c-7.3-7.2-22.5,0.1-33.2,6.4c-9.7,5.7-24.9,17.4-24.9,17.4l21.9,31.1l28.4-18.1
						c7-4.2,13.7-12.5,14.2-20.6C713.9,756.8,712.4,750.8,707.3,745.7z"/>
					<g>
						<path class="st4" d="M707.3,745.7c0,0,0.1,0.1,0.3,0.2c0.2,0.2,0.5,0.4,0.8,0.8c0.7,0.7,1.7,1.9,2.7,3.5c1,1.7,2,3.9,2.5,6.6
							c0.5,2.7,0.6,6-0.4,9.4c-2,6.8-7.8,13.7-16,18.3c-7.9,5-16.6,10.6-25.8,16.5l-0.4,0.2l-0.3-0.4c-2.5-3.5-5.1-7.2-7.7-11
							c-4.9-7-9.7-13.8-14.2-20.2l-0.3-0.4l0.4-0.3c7.6-5.8,14.9-11,21.7-15.4c6.8-4.2,13.2-7.5,18.8-9.4c5.6-1.9,10.5-2.3,13.7-1.2
							c0.4,0.1,0.7,0.3,1.1,0.4c0.3,0.1,0.6,0.3,0.9,0.5c0.6,0.3,1,0.6,1.3,0.9C707,745.4,707.3,745.7,707.3,745.7
							c-0.1,0.1-1.2-1.4-4.3-2.3c-3.1-0.9-7.9-0.5-13.4,1.5c-5.5,2-11.8,5.2-18.6,9.5c-6.7,4.3-13.9,9.6-21.6,15.4l0.1-0.6
							c4.4,6.3,9.2,13.1,14.2,20.1c2.6,3.8,5.2,7.5,7.7,11l-0.7-0.1c9.3-5.9,18-11.4,25.9-16.4c8.1-4.5,13.8-11.1,15.9-17.7
							c1.1-3.3,1-6.4,0.5-9.1c-0.5-2.7-1.4-4.9-2.3-6.5C708.9,747.2,707.2,745.8,707.3,745.7z"/>
					</g>
				</g>
			</g>
		</g>
	</g>
	<g>
		<g>
			<g>
				<g>
					<g>
						<g>
							<g>
								<g>
									<g>
										<g>
											<g>
												<g>
													<g>
														<g>
															<g>
																<g>
																	<g>
																		<g>
																			<g>
																				<path class="st12" d="M682.5,949.1l29.3-10c0,0,20,26.4,25.6,25.1L720,906.7l-46.3,13.7L682.5,949.1z"/>
																			</g>
																		</g>
																	</g>
																</g>
															</g>
														</g>
													</g>
												</g>
											</g>
										</g>
									</g>
								</g>
							</g>
						</g>
					</g>
				</g>
			</g>
			<g>
				<g>
					<g>
						<g>
							<g>
								<g>
									<g>
										<g>
											<g>
												<g>
													<g>
														<g>
															<g>
																<g>
																	<g>
																		<g>
																			<g>
																				<g>
																					<path class="st13" d="M703.9,922.1c0-1.2,1-2.4,2.2-2.4c1.2-0.1,2.4,0.9,2.4,2.1c0.1,1.2-1.1,2.6-2.3,2.6
																						c-1.2-0.1-2.5-1.3-2.3-2.5"/>
																				</g>
																			</g>
																		</g>
																	</g>
																</g>
															</g>
														</g>
													</g>
												</g>
											</g>
										</g>
									</g>
								</g>
							</g>
						</g>
					</g>
				</g>
			</g>
			<g>
				<g>
					<g>
						<g>
							<g>
								<g>
									<g>
										<g>
											<g>
												<g>
													<g>
														<g>
															<g>
																<g>
																	<g>
																		<g>
																			<g>
																				<path class="st14" d="M721.2,906.3l-4.5,1.3l17.1,55.2c0,0,1.9,2.2,3.6,1.4L721.2,906.3z"/>
																			</g>
																		</g>
																	</g>
																</g>
															</g>
														</g>
													</g>
												</g>
											</g>
										</g>
									</g>
								</g>
							</g>
						</g>
					</g>
				</g>
			</g>
			<g>
				<g>
					<g>
						<g>
							<g>
								<g>
									<g>
										<g>
											<g>
												<g>
													<g>
														<g>
															<g>
																<g>
																	<g>
																		<g>
																			<g>
																				<g>
																					<path class="st15" d="M711.7,940.1c0.3-0.1,0-1.5,0.5-3.2c0.4-1.7,1.4-2.7,1.3-3c-0.1-0.2-1.7,0.7-2.2,2.7
																						C710.6,938.7,711.5,940.3,711.7,940.1z"/>
																				</g>
																			</g>
																		</g>
																	</g>
																</g>
															</g>
														</g>
													</g>
												</g>
											</g>
										</g>
									</g>
								</g>
							</g>
						</g>
					</g>
				</g>
			</g>
			<g>
				<g>
					<g>
						<g>
							<g>
								<g>
									<g>
										<g>
											<g>
												<g>
													<g>
														<g>
															<g>
																<g>
																	<g>
																		<g>
																			<g>
																				<g>
																					<path class="st15" d="M716,945.4c0.3,0,0.4-1.4,1.3-2.7c0.9-1.3,2.1-2,2-2.2c0-0.3-1.7,0-2.8,1.7
																						C715.4,943.8,715.8,945.5,716,945.4z"/>
																				</g>
																			</g>
																		</g>
																	</g>
																</g>
															</g>
														</g>
													</g>
												</g>
											</g>
										</g>
									</g>
								</g>
							</g>
						</g>
					</g>
				</g>
			</g>
			<g>
				<g>
					<g>
						<g>
							<g>
								<g>
									<g>
										<g>
											<g>
												<g>
													<g>
														<g>
															<g>
																<g>
																	<g>
																		<g>
																			<g>
																				<g>
																					<path class="st15" d="M724.3,946.7c0-0.3-1.5-0.2-2.9,0.9c-1.3,1.2-1.5,2.7-1.3,2.7c0.3,0.1,0.8-1,1.9-2
																						C723.2,947.4,724.4,947,724.3,946.7z"/>
																				</g>
																			</g>
																		</g>
																	</g>
																</g>
															</g>
														</g>
													</g>
												</g>
											</g>
										</g>
									</g>
								</g>
							</g>
						</g>
					</g>
				</g>
			</g>
			<g>
				<g>
					<g>
						<g>
							<g>
								<g>
									<g>
										<g>
											<g>
												<g>
													<g>
														<g>
															<g>
																<g>
																	<g>
																		<g>
																			<g>
																				<g>
																					<path class="st15" d="M705.4,943.2c0.3-0.2-0.6-1.6-1.1-3.5c-0.5-1.9-0.3-3.5-0.6-3.6
																						c-0.3-0.1-1.1,1.7-0.5,3.9C703.7,942.3,705.2,943.5,705.4,943.2z"/>
																				</g>
																			</g>
																		</g>
																	</g>
																</g>
															</g>
														</g>
													</g>
												</g>
											</g>
										</g>
									</g>
								</g>
							</g>
						</g>
					</g>
				</g>
			</g>
			<g>
				<g>
					<g>
						<path class="st15" d="M675.2,860.9c-1.3-0.4-59.1,61.7-60.5,71.9c-1.3,10.3,0.8,19.2,7.6,25c6.8,5.8,84.6-13.1,84.6-13.1
							l-7.4-32.6l28.1-9.5l-25.1-46L675.2,860.9z"/>
					</g>
				</g>
			</g>
			<g class="st16">
				<g>
					<g>
						<path d="M661.5,874.6l-1.9,2c0,0,33.1,34.8,43.3,34.3l16.3-5.5l-55.1-33.8L661.5,874.6z"/>
					</g>
				</g>
			</g>
			<g>
				<g>
					<g>
						<g>
							<path class="st15" d="M699.8,912.9c0.1,0.2-12,3.9-26.9,8.3c-14.9,4.4-27.1,7.8-27.2,7.6c-0.1-0.2,12-3.9,26.9-8.3
								C687.6,916.1,699.7,912.7,699.8,912.9z"/>
						</g>
					</g>
				</g>
			</g>
			<g>
				<g>
					<g>
						<g>
							<g>
								<g>
									<g>
										<g>
											<g>
												<g>
													<g>
														<g>
															<g>
																<g>
																	<g>
																		<g>
																			<g>
																				<path class="st12" d="M633.3,917.6l9.1,29c0,0-26.4,19-25.2,24.6l56.9-15.7l-12.4-45.8L633.3,917.6z"/>
																			</g>
																		</g>
																	</g>
																</g>
															</g>
														</g>
													</g>
												</g>
											</g>
										</g>
									</g>
								</g>
							</g>
						</g>
					</g>
				</g>
			</g>
			<g>
				<g>
					<g>
						<g>
							<g>
								<g>
									<g>
										<g>
											<g>
												<g>
													<g>
														<g>
															<g>
																<g>
																	<g>
																		<g>
																			<g>
																				<g>
																					<path class="st13" d="M659.3,939.3c1.2,0,2.3,1,2.3,2.2c0.1,1.2-1,2.3-2.2,2.3c-1.2,0-2.5-1.2-2.5-2.3
																						c0.1-1.2,1.4-2.4,2.5-2.2"/>
																				</g>
																			</g>
																		</g>
																	</g>
																</g>
															</g>
														</g>
													</g>
												</g>
											</g>
										</g>
									</g>
								</g>
							</g>
						</g>
					</g>
				</g>
			</g>
			<g>
				<g>
					<g>
						<g>
							<g>
								<g>
									<g>
										<g>
											<g>
												<g>
													<g>
														<g>
															<g>
																<g>
																	<g>
																		<g>
																			<g>
																				<path class="st14" d="M674.4,956.7l-1.2-4.4l-54.6,15.5c0,0-2.2,1.8-1.4,3.5L674.4,956.7z"/>
																			</g>
																		</g>
																	</g>
																</g>
															</g>
														</g>
													</g>
												</g>
											</g>
										</g>
									</g>
								</g>
							</g>
						</g>
					</g>
				</g>
			</g>
			<g>
				<g>
					<g>
						<g>
							<g>
								<g>
									<g>
										<g>
											<g>
												<g>
													<g>
														<g>
															<g>
																<g>
																	<g>
																		<g>
																			<g>
																				<g>
																					<path class="st15" d="M641.4,946.6c0.1,0.3,1.5,0,3.1,0.5c1.6,0.5,2.7,1.5,2.9,1.3c0.2-0.1-0.6-1.7-2.6-2.3
																						C642.9,945.5,641.3,946.3,641.4,946.6z"/>
																				</g>
																			</g>
																		</g>
																	</g>
																</g>
															</g>
														</g>
													</g>
												</g>
											</g>
										</g>
									</g>
								</g>
							</g>
						</g>
					</g>
				</g>
			</g>
			<g>
				<g>
					<g>
						<g>
							<g>
								<g>
									<g>
										<g>
											<g>
												<g>
													<g>
														<g>
															<g>
																<g>
																	<g>
																		<g>
																			<g>
																				<g>
																					<path class="st15" d="M636.1,950.7c0,0.3,1.3,0.4,2.6,1.3c1.3,0.9,1.9,2.1,2.2,2c0.3,0,0-1.7-1.6-2.8
																						C637.7,950.1,636,950.4,636.1,950.7z"/>
																				</g>
																			</g>
																		</g>
																	</g>
																</g>
															</g>
														</g>
													</g>
												</g>
											</g>
										</g>
									</g>
								</g>
							</g>
						</g>
					</g>
				</g>
			</g>
			<g>
				<g>
					<g>
						<g>
							<g>
								<g>
									<g>
										<g>
											<g>
												<g>
													<g>
														<g>
															<g>
																<g>
																	<g>
																		<g>
																			<g>
																				<g>
																					<path class="st15" d="M634.7,958.8c0.3,0,0.3-1.5-0.9-2.8c-1.1-1.3-2.6-1.6-2.7-1.3c-0.1,0.3,1,0.9,1.9,2
																						C634,957.7,634.4,958.8,634.7,958.8z"/>
																				</g>
																			</g>
																		</g>
																	</g>
																</g>
															</g>
														</g>
													</g>
												</g>
											</g>
										</g>
									</g>
								</g>
							</g>
						</g>
					</g>
				</g>
			</g>
			<g>
				<g>
					<g>
						<g>
							<g>
								<g>
									<g>
										<g>
											<g>
												<g>
													<g>
														<g>
															<g>
																<g>
																	<g>
																		<g>
																			<g>
																				<g>
																					<path class="st15" d="M640,939.7c0.2,0.2,1.4-0.5,3-0.8c1.6-0.4,3-0.2,3-0.4c0.1-0.2-1.4-0.9-3.2-0.5
																						C640.9,938.3,639.8,939.6,640,939.7z"/>
																				</g>
																			</g>
																		</g>
																	</g>
																</g>
															</g>
														</g>
													</g>
												</g>
											</g>
										</g>
									</g>
								</g>
							</g>
						</g>
					</g>
				</g>
			</g>
			<g class="st16">
				<g>
					<g>
						<polygon points="678.2,951.1 673.9,934.2 677.1,932.7 657.6,879.5 653.8,882.7 669.2,931.5 674.7,951.9 						"/>
					</g>
				</g>
			</g>
			<g>
				<g>
					<g>
						<path class="st15" d="M632,819.3c-7.7-1.6-15.7,0-22,4.7c-5.3,3.9-9.6,10.3-8.2,20.2c3.2,22.1,31.4,97.5,31.4,97.5l39-11.7
							c0.2-0.1,0.4-0.7,0.3-0.5c-0.3,0.5-19.8-62.3-19.3-61.5c0.5,0.8,39.4,32.2,55.6,37.9c16.6,5.9,33-1.2,40.9-12.2
							c3.8-5.3,13.7-29-3.6-52l-33.5,1.8c0,0-76.5-22.8-77.7-23.3C634.4,819.8,633.3,819.6,632,819.3z"/>
					</g>
				</g>
			</g>
			<g>
				<g>
					<g>
						<g>
							<path class="st15" d="M635.4,850.6c0-0.1,1.3,0.5,3.2,1.8c1.9,1.2,4.5,3.1,7,5.5c2.5,2.4,4.5,4.9,5.8,6.8
								c1.3,1.9,1.9,3.2,1.8,3.2c-0.1,0.1-0.9-1.1-2.2-2.9c-1.4-1.8-3.4-4.2-5.9-6.5c-2.5-2.4-5-4.3-6.8-5.6
								C636.5,851.5,635.3,850.7,635.4,850.6z"/>
						</g>
					</g>
				</g>
			</g>
			<g>
				<g>
					<g>
						<g>
							<path class="st15" d="M648.7,846.2c0.1,0,0.7,1.1,1.4,2.9c0.7,1.9,1.6,4.5,2.3,7.5c0.7,3,1,5.8,1.1,7.8c0.1,2,0.1,3.3,0,3.3
								c-0.2,0-0.5-4.9-1.8-10.9C650.4,850.9,648.5,846.3,648.7,846.2z"/>
						</g>
					</g>
				</g>
			</g>
		</g>
	</g>
	<g>
		<g>
			<g>
				<path class="st5" d="M571.5,738.8l9.3,7.3c1.8,1.4,3.1,3.3,3.9,5.4l3.1,8.7l-11.6,12.9l-14-9.7c0,0-4.4-7.2-4.7-9.1
					c-0.3-2,2.2-3.3,2.2-3.3c-0.8-2.5,2.3-5,2.3-5c-0.5-2.9,3-3.8,3-3.8s-0.2-3.5,0.7-4.3c0.3-0.3,1-0.5,1.6-0.5
					C568.8,737.3,570.3,737.9,571.5,738.8z"/>
			</g>
		</g>
	</g>
	<path class="st11" d="M698,836c0,0,21-13,18-9s-17.2,12.2-17.2,12.2l-4.6-1.3L698,836z"/>
	<path class="st11" d="M671,801c0,0,25-17,27-22c0,0-6,14-26,24L671,801z"/>
</g>
<g>
	<g>
		<path class="st5" d="M584.2,690.1c-2.2-4.9-4.8-9.6-7.9-14c-0.2-0.3-0.4-0.5-0.7-0.6c-0.6-0.2-1,0.4-1.3,0.9
			c-1.9,3.4-1.1,8.1,1.8,10.7c0.5,0.4,1,0.9,1,1.5c0.1,0.7-0.5,1.2-0.9,1.7c-1.4,1.6-2.1,3.8-2,6c0.2,2.1,1.2,4.2,2.8,5.6"/>
	</g>
	<g>
		<g>
			<path class="st5" d="M566,680.9c3.5,1.1,6.6,3.4,8.6,6.5c0.5,0.8,1,1.7,0.7,2.6c-0.2,0.8-1,1.4-1.9,1.6c-0.8,0.2-1.7,0.1-2.6-0.1
				l-7.9-5.7"/>
		</g>
		<path class="st5" d="M563,685.5c2.6,1.8,5.4,3.7,6.9,6.5c0.6,1.1,1,2.6,0.1,3.6c-0.5,0.5-1.2,0.7-1.9,0.6
			c-0.7-0.1-1.3-0.3-1.9-0.6c-2.4-1.1-4.6-2.8-6.4-4.8"/>
		<g>
			<path class="st5" d="M561.3,692.2c2,1.3,4,2.8,5.1,4.9c0.5,0.8,0.7,2,0.1,2.7c-0.4,0.4-0.9,0.5-1.4,0.5c-0.5,0-1-0.2-1.5-0.5
				c-1.8-0.9-3.5-2.1-4.8-3.6"/>
		</g>
	</g>
</g>
<g>
	<g>
		<g>
			<g>
				<path class="st17" d="M300,488.4c-3.5-1.6-5-6.3-3.7-10c1.3-3.7,4.7-6.3,8.5-7.4c5.4-1.6,11.5-0.5,16,3c2.4,1.9,4.5,4.5,7.5,5.1
					c2.6,0.5,5.3-0.6,8-0.7c3.6,0,7,2.1,9.2,4.9c2.2,2.8,3.5,6.3,4.4,9.7c0.8,3.2,1.6,6.7,4.1,8.8c2.5,2,6,2,9,3.3
					c5.6,2.4,8.3,9.8,5.6,15.2c-0.9,1.7-2.2,3.4-2.1,5.3c0.1,1.8,1.5,3.1,2.2,4.7c1.9,4.1-0.9,9.6-5.3,10.5
					c-2.2,0.4-4.8-0.1-6.7,1.2c-1.9,1.3-2.3,3.8-3.3,5.8c-2,4-7.1,6.1-11.4,4.7c-1.8-0.6-3.5-1.7-5.4-1.3c-1.8,0.4-3.1,2.2-4.8,2.8
					c-2.3,0.8-4.8-0.7-6.5-2.4c-1.7-1.8-3-3.9-5-5.3c-2.7-1.8-6.1-1.8-9.2-2.5c-6.9-1.4-13.2-5.9-16.7-12
					c-3.5-6.1-4.2-13.8-1.9-20.4"/>
			</g>
		</g>
	</g>
</g>
<g>
	<g>
		<g>
			<g>
				<path class="st18" d="M340.5,527.9c0.6-0.8,1.5-1.6,2.4-2.1l-0.2,0c0.2-0.1,0.4-0.1,0.6-0.2c0.7-0.3,1.4-0.3,2.1,0l0,0
					c1.2,0.3,2.3,1,3,2c1.2,1.8,1.2,4.2,0.1,6.1c-0.9,1.6-2.7,2.8-4.5,2.6c-1.7-0.2-3.1-1.5-3.8-3
					C339.4,531.5,339.4,529.4,340.5,527.9z"/>
			</g>
		</g>
	</g>
</g>
<g>
	<g>
		<g>
			<g>
				<g>
					<g>
						<g>
							<path class="st19" d="M301.4,563l-11.5-59.3c-0.5-2.8,1.2-5.5,3.9-6.2l27.3-11.9c9-2.5,16.9,7.7,19,16.8
								c2.3,10.1,4.8,22.4,4.9,30.2c0.1,15.7-12.2,19.7-12.2,19.7c0-0.1,0.4,3.9,1.3,9.4l-3.2,19.7L301.4,563z"/>
						</g>
					</g>
				</g>
			</g>
		</g>
	</g>
</g>
<g>
	<g>
		<g>
			<g>
				<g>
					<g>
						<g>
							<g>
								<g>
									<g>
										<g>
											<g>
												<g>
													<g>
														<g>
															<g>
																<g>
																	<g>
																		<path class="st20" d="M334.8,510.8c0.2,1-0.5,2.1-1.6,2.3c-1.1,0.2-2.1-0.4-2.3-1.4c-0.2-1,0.5-2.1,1.6-2.3
																			C333.5,509.1,334.6,509.7,334.8,510.8z"/>
																	</g>
																</g>
															</g>
														</g>
													</g>
												</g>
											</g>
										</g>
									</g>
								</g>
							</g>
						</g>
					</g>
				</g>
			</g>
		</g>
	</g>
</g>
<g>
	<g>
		<g>
			<g>
				<g>
					<g>
						<g>
							<g>
								<g>
									<g>
										<g>
											<g>
												<g>
													<g>
														<g>
															<g>
																<g>
																	<g>
																		<path class="st20" d="M319.9,514.3c0.2,1-0.5,2.1-1.6,2.3c-1.1,0.2-2.1-0.4-2.3-1.4c-0.2-1,0.5-2.1,1.6-2.3
																			C318.7,512.7,319.7,513.3,319.9,514.3z"/>
																	</g>
																</g>
															</g>
														</g>
													</g>
												</g>
											</g>
										</g>
									</g>
								</g>
							</g>
						</g>
					</g>
				</g>
			</g>
		</g>
	</g>
</g>
<g class="st21">
	<g>
		<g>
			<g>
				<g>
					<g>
						<g>
							<g>
								<g>
									<g>
										<g>
											<g>
												<g>
													<g>
														<g>
															<g>
																<g>
																	<g>
																		<path class="st22" d="M333,552.6c0,0-9.3,2-20.4-2.7c0,0,5.7,10.9,20.9,7.3L333,552.6z"/>
																	</g>
																</g>
															</g>
														</g>
													</g>
												</g>
											</g>
										</g>
									</g>
								</g>
							</g>
						</g>
					</g>
				</g>
			</g>
		</g>
	</g>
</g>
<g>
	<g>
		<g>
			<g>
				<g>
					<g>
						<g>
							<g>
								<g>
									<g>
										<g>
											<g>
												<g>
													<g>
														<g>
															<g>
																<g>
																	<g>
																		<path class="st17" d="M319.6,504.9c0.1,0.6-2.5,1.9-5.2,3.9c-2.7,2-4.6,4-5.3,3.8c-0.3-0.1-0.2-0.8,0.5-1.8
																			c0.6-1,1.8-2.4,3.4-3.6c1.6-1.2,3.3-2,4.5-2.4C318.8,504.6,319.6,504.6,319.6,504.9z"/>
																	</g>
																</g>
															</g>
														</g>
													</g>
												</g>
											</g>
										</g>
									</g>
								</g>
							</g>
						</g>
					</g>
				</g>
			</g>
		</g>
	</g>
</g>
<g>
	<g>
		<g>
			<g>
				<g>
					<g>
						<g>
							<g>
								<g>
									<g>
										<g>
											<g>
												<g>
													<g>
														<g>
															<g>
																<g>
																	<g>
																		<path class="st17" d="M336.8,504.4c-0.6,0.2-2.5-0.4-4.9-0.9c-2.4-0.5-4.5-0.5-4.9-1c-0.2-0.2,0.2-0.5,1.1-0.6
																			c0.9-0.2,2.4-0.2,4.1,0.1c1.6,0.3,3,0.8,3.8,1.3C336.8,503.9,337,504.3,336.8,504.4z"/>
																	</g>
																</g>
															</g>
														</g>
													</g>
												</g>
											</g>
										</g>
									</g>
								</g>
							</g>
						</g>
					</g>
				</g>
			</g>
		</g>
	</g>
</g>
<g>
	<g>
		<g>
			<g>
				<path class="st17" d="M349.9,497.6c-1-2.2-2.6-4.2-4.8-5.2c-1.2-0.6-2.5-0.8-3.7-1.5c-2.5-1.5-3.4-4.5-5.1-6.8
					c-2.2-3-5.9-4.8-9.6-4.6c-3.1,0.1-6.1,1.4-9.1,1.1c-2.3-0.3-4.4-1.4-6.6-1.5c-4.4-0.2-8,3.4-10.7,6.9c0.4,3.1,3.2,4.8,5.8,6.5
					c2.6,1.7,6,2.1,9,1.1c2.3-0.8,4.7-2.3,6.9-1.3c2.3,1,2.9,4.2,5,5.6c3,2,7.1-0.8,10.7-0.3c2.8,0.4,4.8,2.7,6.9,4.6
					c2.1,1.9,5,3.6,7.6,2.4C351.5,502.2,351,499.8,349.9,497.6z"/>
			</g>
		</g>
	</g>
</g>
<g>
	<g>
		<g>
			<g>
				<path class="st17" d="M315.7,489.1c-2-0.3-6.1-1-7.4-2.5c-2.8-3.3-7.1-5.3-11.1-4.5c-4,0.8-7.5,4.5-7.7,8.9
					c-4.9,0.7-9.3,4.5-11,9.4c-0.2,0.6-0.4,1.3-0.5,1.9c-1.2,2.9-1,6.3,0.5,9.1c0.9,1.7,2.3,3.4,1.6,5.2c-0.7,1.8-3,2.2-4.7,3
					c-3,1.5-4.5,5.4-3.4,8.5c0.4,1.1,1.1,2.2,1,3.4c-0.1,1.2-1,2.2-1.7,3.3c-1.7,2.6-1.8,6.1-0.4,8.9c1.4,2.7,4.4,4.6,7.5,4.8
					c1.4,0.1,2.9-0.2,4.2,0.4c1.5,0.7,2.3,2.2,3.4,3.4c2.2,2.2,5.8,2.8,8.6,1.4c0.6-0.3,1.1-0.6,1.5-1.1c1.1,1.2,2.7,1.8,5.1,1.5
					l-5-32.2c0.4,0.6,1.1,1.2,2.2,1.3c5.3,0.5,4.6-10.3,3.1-13.1c1.6-1.9,3.3-3.9,4.4-6.2c1.1-2.3,1.6-8.3,0.9-10.8
					C309,492.9,316.6,489.2,315.7,489.1z"/>
			</g>
		</g>
	</g>
</g>
<g>
	<g>
		<g>
			<g>
				<g>
					<g>
						<g>
							<g>
								<g>
									<g>
										<g>
											<path class="st19" d="M298.3,524.3c-0.6-3.3-4.1-4.7-6.7-2.7c-1.4,1.1-1.8,2.9-0.7,6.3c3,9.6,9,7.2,8.9,7
												C299.7,534.7,299,528.1,298.3,524.3z"/>
										</g>
									</g>
								</g>
							</g>
						</g>
					</g>
				</g>
			</g>
		</g>
	</g>
</g>
<g>
	<g>
		<g>
			<g>
				<path class="st18" d="M293.3,535.8c0.6-0.8,1.5-1.6,2.4-2.1l-0.2,0c0.2-0.1,0.4-0.1,0.6-0.2c0.7-0.3,1.4-0.3,2.1,0l0,0
					c1.2,0.3,2.3,1,3,2c1.2,1.8,1.2,4.2,0.1,6.1c-0.9,1.6-2.7,2.8-4.5,2.6c-1.7-0.2-3.1-1.5-3.8-3
					C292.2,539.5,292.2,537.4,293.3,535.8z"/>
			</g>
		</g>
	</g>
</g>
<g class="st16">
	<g>
		<g>
			<g>
				<g>
					<g>
						<g>
							<polygon points="328.1,916.5 327.7,921.7 299.9,920.3 300,915.6 							"/>
						</g>
					</g>
				</g>
			</g>
		</g>
	</g>
</g>
<g>
	<g>
		<path class="st23" d="M297.2,697.8c0,0-8.1,23.2-7.4,31.2c0.2,2.7,1.7,11.1,2.6,17.6c1.6,11.3,3,25.3,3.4,28.1l3.8,66l1.1,18.7
			c0,0-3.9,48.1-3.7,69.3l41.1,1.9L352.1,824l9.7-121.8L297.2,697.8z"/>
	</g>
</g>
<g>
	<g>
		<g>
			<g>
				<g>
					<g>
						<path class="st18" d="M284.8,604.1l14.7,59.8c0,0-11.9,32-11.1,45c0.5,7.5,2.7,21.6,2.7,21.6l71,0.1c0,0,6.3-80.9-3-118
							c-5.5-21.7-23.4-41.9-23.4-41.9l0,0l0.6-13.6l-36-2l-1.5,10.7C298.8,565.9,281.9,586.3,284.8,604.1z"/>
					</g>
				</g>
			</g>
		</g>
	</g>
	<g>
		<g>
			<g>
				<g>
					<path class="st18" d="M309.4,634.8c0,0,0,0.1,0,0.4c-0.1,0.3-0.1,0.6-0.2,1c-0.1,0.9-0.4,2.1-0.7,3.7c-0.7,3.1-1.8,7.4-3.3,12
						c-1.6,4.6-3.3,8.6-4.6,11.5c-0.7,1.4-1.2,2.6-1.7,3.4c-0.2,0.3-0.3,0.6-0.5,0.9c-0.1,0.2-0.2,0.3-0.2,0.3c0,0,0-0.1,0.1-0.3
						c0.1-0.3,0.3-0.6,0.4-0.9c0.4-0.8,0.9-2,1.6-3.4c1.3-2.9,3-6.9,4.5-11.5c1.6-4.6,2.7-8.8,3.4-11.9c0.4-1.5,0.6-2.8,0.8-3.7
						c0.1-0.4,0.2-0.7,0.2-1C309.4,634.9,309.4,634.8,309.4,634.8z"/>
				</g>
			</g>
		</g>
	</g>
	<g>
		<g>
			<g>
				<g>
					<g>
						<path class="st18" d="M284.8,604.1l14.7,59.8c0,0-14.6,28.3-13.9,43.6c0.3,7.5,1.4,23,1.4,23l76.2,2.4c0,0,5.3-83.2-4-120.2
							c-5.5-21.7-23.4-41.9-23.4-41.9l0,0l0.6-13.6l-36-2l-1.5,10.7C298.8,565.9,281.9,586.3,284.8,604.1z"/>
					</g>
				</g>
			</g>
		</g>
	</g>
	<g>
		<g>
			<g>
				<g>
					<g>
						<g>
							<g>
								<path class="st18" d="M316.9,580.2c-3.4-2.9-6-4.5-13.6-4.6c-1,0-2,0.1-3.1,0.4c-10.4,2.5-16.3,13.4-13.4,23.7l4.4,10.8
									l33.9,50.8c0,0,6.5,11.1,26.1,7.7c7.2-1.3,48.6-7.6,48.6-7.6l-1-21.5l-48.3-1.4L316.9,580.2z"/>
							</g>
						</g>
					</g>
				</g>
			</g>
		</g>
	</g>
	<g>
		<g>
			<g>
				<path class="st18" d="M289.1,608.1c0,0,0.3,0.3,0.8,1c0.5,0.8,1.3,1.8,2.2,3.1c1.9,2.8,4.6,6.7,7.9,11.5
					c6.7,9.8,15.8,23.2,25.9,38l1,1.3c0.3,0.4,0.7,0.8,1.1,1.1c0.7,0.8,1.6,1.3,2.4,2c1.7,1.1,3.6,2,5.5,2.6
					c3.8,1.1,7.9,1.2,11.4,0.5l0,0c11.8-1.8,21.8-3.3,29-4.4c3.5-0.5,6.3-0.9,8.3-1.2c0.9-0.1,1.6-0.2,2.2-0.3
					c0.5-0.1,0.8-0.1,0.8-0.1c0,0-0.3,0.1-0.8,0.2c-0.6,0.1-1.3,0.2-2.2,0.4c-2,0.3-4.8,0.8-8.3,1.4c-7.2,1.2-17.2,2.8-29,4.7l0,0
					c-3.8,0.7-7.8,0.7-11.8-0.5c-2-0.6-3.9-1.5-5.7-2.7c-0.8-0.7-1.8-1.3-2.5-2.1c-0.4-0.4-0.8-0.8-1.1-1.2l-1-1.3
					c-10.2-14.9-19.2-28.4-25.7-38.2c-3.2-4.9-5.8-8.8-7.7-11.6c-0.9-1.3-1.6-2.4-2.1-3.2C289.3,608.5,289,608.1,289.1,608.1z"/>
			</g>
		</g>
	</g>
	<g>
		<g>
			<g>
				<path class="st18" d="M297.7,576.1c0,0,0.1-0.1,0.4-0.2c0.3-0.1,0.7-0.3,1.2-0.5c1.1-0.3,2.8-0.7,5-0.5
					c4.4,0.3,10.3,3.4,15.3,9.1l0,0l0,0c5.3,9.1,12,20.7,19.3,33.3c4.3,7.4,8.3,14.5,12,20.9l-0.3-0.2c11.4,0.5,21.1,0.9,28.1,1.2
					c3.4,0.2,6.1,0.3,8,0.4c0.9,0.1,1.6,0.1,2.1,0.1c0.5,0,0.7,0.1,0.7,0.1c0,0-0.3,0-0.7,0c-0.6,0-1.3,0-2.1,0
					c-1.9,0-4.7-0.1-8-0.2c-7-0.2-16.7-0.5-28.1-0.9l-0.2,0l-0.1-0.2c-3.7-6.4-7.8-13.5-12.1-20.9c-7.2-12.6-13.9-24.2-19.1-33.4
					l0,0c-4.9-5.7-10.6-8.8-14.8-9.2c-2.1-0.2-3.8,0-4.9,0.3c-0.5,0.1-0.9,0.3-1.2,0.4C297.8,576.1,297.7,576.1,297.7,576.1z"/>
			</g>
		</g>
	</g>
</g>
<g>
	<g>
		<g>
			<path class="st19" d="M428.7,637.8l-11.8-1.2c-2.2-0.2-4.5,0.2-6.5,1.2l-8.3,4.2l-3.2-0.4l1,18.7l18.6,1.7c0,0,8.1-2.1,9.7-3.3
				c1.6-1.2,0.7-3.9,0.7-3.9c2.3-1.2,1.8-5.2,1.8-5.2c2.4-1.7,0.5-4.8,0.5-4.8s2.6-2.4,2.5-3.6c0-0.5-0.4-1-0.9-1.5
				C431.7,638.6,430.2,637.9,428.7,637.8z"/>
		</g>
	</g>
</g>
<path class="st19" d="M548.1,250.2l-9.6-21.4c0,0,0.5-11.4-1.1-12.4c-2.2-1.3-2.8-0.2-3.4,3.6l-0.9,5.6c0,0-3.7-8-7.1-8.3
	c-2.3-0.2-3,3.8-3,3.8s-3.9-3.6-6.6-2.8c-2.6,0.8-1.9,4.6-1.9,4.6s-3.2-1.9-4.6,1.5c-1.6,3.9,5.4,9.8,6.5,12.5
	c2.3,5.5-2.5,5.7-2.5,5.7s-12.3-1.6-11.6,1.6c0.6,3.1,4.7,3.1,7.9,3.5c2.6,0.3,12.5,2.7,15.7,3.5c0.7,0.2,1.3,0.4,1.9,0.8l7.3,7.5
	L548.1,250.2z"/>
<g>
	<polygon class="st24" points="452.2,653.5 452.3,648 480.7,648 480.6,653.2 	"/>
	<path class="st25" d="M452,648c0,0,2-15,5-17s19-2,20-1s4,14,4,18H452z"/>
	<path class="st26" d="M457,617.7c0,0,0,9.3,0,13.3s19,1,19,1l-0.7-15L457,617.7z"/>
</g>
<g>
	<polygon class="st24" points="513.2,792.5 513.3,787 541.7,787 541.6,792.2 	"/>
	<path class="st25" d="M513,787c0,0,2-15,5-17s19-2,20-1s4,14,4,18H513z"/>
	<path class="st27" d="M518,756.7c0,0,0,9.3,0,13.3s19,1,19,1l-0.7-15L518,756.7z"/>
</g>
<g>
	<g>
		<g>
			<path class="st28" d="M486.4,245.7l0.8-0.2c2.3-4.1,6.9-6.7,11.5-6.9c4.7-0.2,9.3,1.7,12.8,4.8c2.4,2.2,4.4,4.8,6.8,7
				c2.4,2.1,5.7,3.8,8.9,3.1c0.4,1.2-1.8,1.9-1.7,3.1c0.1,0.6,0.7,1,1.3,1.1c0.9,0.2,1.7,0,2.6,0c0.9,0,1.9,0.4,2.1,1.3
				c0.1,0.4,0,0.9-0.1,1.3c-1,3.7-2.5,7.4-5.2,10.1c-2.7,2.8-6.6,4.5-10.3,3.8c-3-0.6-5.5-2.5-7.9-4.4c-4.5-3.6-9.1-7.3-13.6-10.9
				c-2.1-1.7-4.2-3.4-5.8-5.5C487,251.1,486,248.4,486.4,245.7z"/>
		</g>
	</g>
</g>
<g>
	<g>
		<g>
			<path class="st28" d="M489.3,246.5c-1.9-1.5-4-2.7-6.3-3.1c-2.3-0.5-4.9-0.1-6.8,1.3c-1.8,1.3-2.9,3.3-4.2,5.1
				c-1.3,1.8-2.9,3.6-5.1,3.9c-0.4,0.1-0.8,0.1-1.1,0.3c-0.5,0.5-0.1,1.4,0.5,1.7c0.6,0.3,1.4,0.1,2,0c-1.1,1.3-2.6,2.1-4.3,2.4
				c0.4,1.6,2.2,2.7,3.8,2.2c-0.6,2.6-1.3,5.2-1.3,7.8c0,2.6,0.8,5.4,2.5,7.3c2,2.1,5.2,3.3,6.1,6.1"/>
		</g>
	</g>
</g>
<g>
	<g>
		<g>
			<g>
				<g>
					<g>
						<g>
							<g>
								<g>
									<g>
										<g>
											<path class="st19" d="M508.3,339.8l-35.4-0.5l3.9-30.1c0,0-2.4-0.5-2.6-13.6c-0.2-13.1-0.8-35.4-0.8-35.4l0,0
												c15.2-6.5,32.7-4.3,45.7,5.8l1.9,1.5L508.3,339.8z"/>
										</g>
									</g>
								</g>
							</g>
						</g>
					</g>
				</g>
			</g>
		</g>
	</g>
</g>
<g>
	<g>
		<g>
			<g>
				<g>
					<g>
						<g>
							<g>
								<g>
									<path class="st19" d="M517.2,283.6c0.2-0.1,9-2.7,8.7,6.3c-0.3,9-9.2,6.8-9.2,6.6C516.7,296.2,517.2,283.6,517.2,283.6z"/>
								</g>
							</g>
						</g>
					</g>
				</g>
			</g>
		</g>
	</g>
</g>
<g>
	<g>
		<g>
			<g>
				<g>
					<g>
						<g>
							<g>
								<g>
									<path class="st19" d="M475.1,281.7c-0.2-0.1-8.2-2.3-7.9,6.7c0.3,9,9.2,6.8,9.2,6.6C476.4,294.7,475.1,281.7,475.1,281.7z"
										/>
								</g>
							</g>
						</g>
					</g>
				</g>
			</g>
		</g>
	</g>
</g>
<g>
	<g>
		<g>
			<g>
				<g>
					<path class="st28" d="M520.1,282.6c-1.3,7.5-1.1,11.5-2.3,16.5c-2,7.9-5.9,14-13,18c-7.1,4-16.8,3.9-22.9-1.5
						c-4.3-3.7-7.3-8-7.9-13.6c-0.6-5.6-2.3-16.2-2.3-21.9c-0.1-10.2,0.3-19.4,0.3-19.4l29.2-5.3l16.6,9.9L520.1,282.6z"/>
				</g>
			</g>
		</g>
	</g>
</g>
<g>
	<g>
		<g>
			<g>
				<g>
					<path class="st28" d="M518.7,295.3c0.9-7.7,1.4-16.5,2.6-24.6c0.5-3,1.5-7.4,1.3-10.5c-0.3-3.1-1.1-2.1-2.5-4.9
						c-1.7-3.5-8.2-5.8-12-6.6c-3.8-0.8-4.3-4.1-7.2-1.5c-2.1-3.2-6.3-4.8-10-4c-3.7,0.9-6.8,4.2-7.3,8c-2.1-2-5.5-2.4-8-0.9
						c-2.5,1.5-3.7,4.7-2.9,7.5c-2.1,0.3-4,1.8-4.8,3.8c-0.9,1.9-0.7,4.3,0.5,6.1c1.4,2.1,3.8,3.2,5.3,5.2c1.7,2.3,1.9,5.6,0.4,8.1"
						/>
				</g>
			</g>
		</g>
	</g>
	<g>
		<g>
			<g>
				<g>
					<g>
						<path class="st29" d="M481,293.7c-0.2,0-0.6,3.7,1,7.9c1.6,4.2,4.3,6.7,4.5,6.6c0.2-0.2-2.2-2.8-3.7-6.9
							C481.3,297.3,481.3,293.7,481,293.7z"/>
					</g>
				</g>
			</g>
		</g>
	</g>
	<g>
		<g>
			<g>
				<g>
					<g>
						<path class="st29" d="M477.1,287.2c-0.2-0.1-1.3,3.1-0.6,7.1c0.7,4,2.9,6.6,3,6.4c0.2-0.1-1.6-2.8-2.2-6.6
							C476.6,290.4,477.4,287.3,477.1,287.2z"/>
					</g>
				</g>
			</g>
		</g>
	</g>
</g>
<g>
	<g>
		<g>
			<path class="st28" d="M513.9,256.2c-2.2-3.5-5.3-6.6-9.1-8.2c-3.9-1.5-8.6-1.2-11.7,1.5"/>
		</g>
	</g>
</g>
<g>
	<g>
		<g>
			<g>
				<path class="st29" d="M513.2,276.1c-0.1,0,0-1,0.3-2.6c0.3-1.6,0.7-3.8,0.7-6.2c0-2.4-0.6-4.5-1.3-5.9c-0.7-1.4-1.4-2.1-1.3-2.3
					c0.1-0.1,1,0.5,1.9,1.9c0.9,1.4,1.7,3.7,1.7,6.3c0,2.6-0.5,4.8-1,6.4C513.7,275.2,513.3,276.1,513.2,276.1z"/>
			</g>
		</g>
	</g>
</g>
<g>
	<g>
		<g>
			<g>
				<path class="st29" d="M507.1,279c-0.3-0.1,0.5-1.9,1.2-4.1c0.7-2.2,1.1-4.1,1.4-4.1c0.3,0,0.3,2-0.4,4.4
					C508.5,277.5,507.4,279.2,507.1,279z"/>
			</g>
		</g>
	</g>
</g>
<g>
	<g>
		<g>
			<g>
				<path class="st29" d="M479.1,276.7c-0.1,0.1-1.1-1-2-3.2c-0.9-2.2-1.6-5.5-0.9-9.1c0.7-3.6,2.6-6.4,4.3-8.1
					c1.7-1.7,3-2.3,3.1-2.2c0.1,0.1-1.1,1-2.5,2.7c-1.5,1.7-3.2,4.4-3.8,7.8c-0.7,3.4-0.2,6.5,0.5,8.6
					C478.4,275.4,479.2,276.6,479.1,276.7z"/>
			</g>
		</g>
	</g>
</g>
<g>
	<g>
		<g>
			<g>
				<path class="st29" d="M511,243.4c-0.1,0.1-1.1-0.4-2.9-1.2c-1.7-0.8-4.2-1.8-7-1.7c-2.8,0-5.2,1.3-6.4,2.7
					c-1.2,1.4-1.5,2.6-1.6,2.6c-0.1,0-0.2-1.3,1.1-3c0.6-0.8,1.5-1.7,2.7-2.3c1.2-0.6,2.7-1,4.2-1c3.1,0,5.7,1.2,7.4,2.1
					C510.1,242.5,511.1,243.2,511,243.4z"/>
			</g>
		</g>
	</g>
</g>
<g>
	<g>
		<g>
			<g>
				<path class="st29" d="M471.1,251.7c-0.1,0,0.1-1,1-2.4c0.9-1.3,2.7-2.9,5.1-3.6c2.4-0.7,4.8-0.3,6.3,0.3
					c1.5,0.6,2.2,1.3,2.1,1.4c-0.1,0.1-0.9-0.4-2.4-0.7c-1.4-0.4-3.6-0.6-5.7,0c-2.2,0.6-3.8,2-4.8,3.1
					C471.6,250.9,471.2,251.7,471.1,251.7z"/>
			</g>
		</g>
	</g>
</g>
<g>
	<g>
		<g>
			<g>
				<path class="st29" d="M480.7,284.6c0-0.1,1.4-0.5,3.8-1.6c2.3-1.1,5.6-2.9,8.6-5.9l1.7-1.6l-0.9,2.2c-0.6,1.3-1,2.7-1.3,4.3
					c-0.1,0.7-0.3,1.7,0,1.8c0.2,0.2,1-0.2,1.7-0.6c2.4-1.5,4.4-3.4,6-5.3l1.6-1.9l-0.7,2.3c-0.7,2.3-1.4,4.5-2,6.4l-0.7-0.4
					c4.1-3.9,5.5-7.3,5.7-7.2c0.1,0-0.2,0.9-1,2.3c-0.8,1.4-2.1,3.4-4.2,5.5L498,286l0.4-1.5c0.6-2,1.2-4.1,1.8-6.5l0.8,0.4
					c-1.6,2-3.7,4-6.2,5.6c-0.4,0.2-0.7,0.5-1.2,0.7c-0.4,0.2-1.1,0.4-1.7-0.1c-0.6-0.5-0.6-1.1-0.6-1.5c0-0.5,0.1-0.8,0.2-1.3
					c0.3-1.6,0.8-3.1,1.4-4.5l0.8,0.5c-3.2,3-6.6,4.8-9.1,5.7C482.2,284.5,480.7,284.7,480.7,284.6z"/>
			</g>
		</g>
	</g>
</g>
<g>
	<g>
		<g>
			<path class="st28" d="M497.8,250c-0.6-1.1-1.7-1.8-2.8-2.2c-1.2-0.3-2.4-0.3-3.6-0.1c-2.9,0.5-5.7,2.1-7.6,4.4
				c-0.4,0.5-0.8,1.3-0.4,1.8c0.2,0.3,0.6,0.3,1,0.3c4.4,0.4,8.8,0.2,13.2-0.5"/>
		</g>
	</g>
</g>
<g>
	<path class="st12" d="M561,519.9l0.4,13.4c0,2.1-0.3,12.4-0.5,14.4l-6.1,82.9c-0.6-0.2-4.2,51.1-4.5,69
		c-0.3,17.3-1.7,64.4-1.7,64.4h-40.4l-2.7-77.9l-1.7-84.4l-2.5-59L561,519.9z"/>
	<path class="st24" d="M440,500.2c0,0,0.9,1.3,0.7,19.7c-0.2,14,8.4,100.5,8.4,100.5l34.5-1l6.9-86.6L440,500.2z"/>
	<path class="st12" d="M440,513.4c0.6,1.1,7.7,25,23.5,29.1c15.8,4.1,65,1.4,66.3,0c1.4-1.4,15.8-9.3,22.8-25.9
		c7-16.5-43.2-45.4-43.2-45.4L440,513.4z"/>
	<g>
		<path class="st12" d="M504.5,543.7c0,0.1-1,0.2-2.9,0.4c-1.9,0.2-4.6,0.4-7.9,0.7c-6.7,0.5-16.1,0.6-26.2-1.5
			c-10.2-2.1-18.3-7.9-22.3-13.5c-2-2.7-3.2-5.3-3.8-7.1c-0.3-0.9-0.4-1.6-0.6-2.1c-0.1-0.5-0.2-0.7-0.1-0.7c0.3-0.1,0.9,4.2,5,9.5
			c4,5.3,11.9,10.8,21.9,12.9c10,2.1,19.3,2.1,26,1.8c3.2-0.1,5.9-0.3,7.9-0.3C503.5,543.7,504.5,543.6,504.5,543.7z"/>
	</g>
	<g>
		<path class="st12" d="M545.4,542.1c0,0.1-1.7,0.6-4.4,1.2c-2.8,0.6-6.6,1.2-10.9,1.5c-4.3,0.4-8.2,0.5-11,0.4
			c-2.8-0.1-4.6-0.3-4.6-0.4c0-0.1,1.7-0.2,4.6-0.3c2.8-0.1,6.7-0.3,10.9-0.7c4.3-0.4,8.1-0.9,10.9-1.2
			C543.6,542.2,545.4,541.9,545.4,542.1z"/>
	</g>
	<g>
		<path class="st12" d="M544.2,557.2c0,0.1-2.2-0.1-5.8-0.6c-3.6-0.5-8.5-1.5-13.9-2.8c-5.4-1.3-10.1-2.8-13.6-4
			c-3.4-1.2-5.5-2.1-5.4-2.2c0-0.1,2.2,0.5,5.6,1.5c3.5,1,8.2,2.4,13.6,3.7c5.3,1.3,10.2,2.3,13.7,3
			C542,556.7,544.2,557.1,544.2,557.2z"/>
	</g>
</g>
<g>
	<path class="st3" d="M534.6,266.7c0.2-0.5-5-8.8-5-8.8s11.1-11.8,17.8-11.5l6.4,8.8L534.6,266.7z"/>
	<path class="st30" d="M587.4,303.8c-2.4-7.6-33-51.7-33-51.7c-11.2,0-22.2,13.7-22.2,13.7l21.7,45.7l-22.8,21l25.8,30.4
		c0,0,16.3-20.3,21.1-27.7C588.8,318.8,589.8,311.4,587.4,303.8z"/>
	<path class="st16" d="M439.1,511c0,0,2.6,17,16.8,22c14.2,5,47,0,47,0l3.8-12.4l4.1,14.6l50.8-6.5l-0.7-11.6L507,494.8L439.1,511z"
		/>
	<path class="st30" d="M549.8,454.4c-1.1-6-2.5-9.1-2.7-12.7c-0.8-10.8-0.7-36.8,0-40.1c1-4.4,9.8-38.7,9.8-38.7l-3-26.6l-37.5-6.3
		l-2.6-6c0,0-25-6.5-40.8,2l0,0l-2.7,6.5l-9.8,2.5c-1.5,0.6-9.1,2.7-14.9,4.3c-6.5,1.8-11.9,6.2-14.7,12.3c-0.9,1.9-1.8,4.1-2.6,6.7
		c-2.6,7.7-17.5,50.1-18.1,63c-0.8,15.1,12.6,15.6,20.7,13.7c7.9-1.9,17.1-20.2,17.1-20.2l5.1,35.8c0,0-1.1,7.6-3.6,14.4
		c-5,13.6-12.2,39.9-12.2,39.9c2.8,8.8,13,22.7,18.3,24.6c5.3,1.9,40.9,0.4,40.9,0.4l10.5-27.9l9.7,29.3l50.5-7.9L549.8,454.4z"/>
	<g class="st16">
		<path d="M448,416c-2-15.1-4.8-30.2-6.8-45.3C435.8,385.5,438.8,403.1,448,416z"/>
	</g>
	<g class="st16">
		<path d="M553.4,310.9c3.5-3.4,8.1-5.5,12.9-6.2c2.3-0.3,4.9-0.2,6.6,1.4c0.4,0.3,0.7,0.8,0.7,1.3c-0.1,0.5-0.6,0.9-1.1,1
			c-0.5,0.1-1,0-1.5-0.1c-5.8-1.1-12.1,0.7-17.6,2.8"/>
	</g>
	<g class="st16">
		<path d="M472,332.7c4.8,1.5,9.9,1.2,14.9,0.7c8.8-0.8,17.6-1.9,26.3-3.4c-14-1.9-28.4-1.1-42.1,2.4"/>
	</g>
	<g class="st16">
		<path d="M470.3,474.2c19.9-5.6,38.1-17,51.7-32.5C506.3,451.7,485.8,463.2,470.3,474.2z"/>
	</g>
</g>
<path class="st24" d="M502,544c0,0,33,4,41,1s3,3-1,3s-28,2-31,1s13,5,11,6s-15-5-17-5s-3.4,0.2-3.4,0.2L502,544z"/>
<path class="st31" d="M301.7,955l2.2,7.3l13.9,1.7c0,0,1.9-5.7,3.8-5.5c1.9,0.2,8.4,5,11.2,6.3s36,2.3,36,2.3l0.4-3l-33.8-3
	c0,0-8.4-6.1-12.5-5.6c-4.1,0.5-8.2,1-10.2,0.8C310.6,956.1,301.7,955,301.7,955z"/>
<g>
	<path class="st32" d="M321.1,535.7c0,0,5.8-1.9,8.7-3.4c2.8-1.5,4.2-0.3,4.4,0.8c0.2,1,0.4,3.2-2.6,4.3
		C326.8,538.9,321.1,535.7,321.1,535.7z"/>
	<path class="st3" d="M321.1,535.7c0,0,5.8-1.9,8.7-3.4c2.8-1.5,3.2-0.7,3.3,0.3C333.3,533.6,321.1,535.7,321.1,535.7z"/>
</g>
<path class="st22" d="M327,515c0,0,7,6,7,8s-5,4-6,4s4-3,4-4S327,515,327,515z"/>
<path class="st33" d="M332,547c3.2,0,9.4-1.8,9.4-1.8s-5.1,7.8-12.2,7.8c-7.2,0-13.2-1-16.2-3C313,550,331,547,332,547z"/>
<path class="st11" d="M733,815c0,0-4,8-5,11s6.6-8.1,6.6-8.1L733,815z"/>
</svg>
