<?xml version="1.0" encoding="utf-8"?>
<!-- Generator: Adobe Illustrator 24.2.3, SVG Export Plug-In . SVG Version: 6.00 Build 0)  -->
<svg version="1.1" id="Layer_1" xmlns="http://www.w3.org/2000/svg" xmlns:xlink="http://www.w3.org/1999/xlink" x="0px" y="0px"
	 viewBox="0 0 1000 1000" style="enable-background:new 0 0 1000 1000;" xml:space="preserve">
<style type="text/css">
	.st0{fill:#ECECEC;}
	.st1{fill:#FFFFFF;}
	.st2{fill:#E1E1E1;}
	.st3{fill:#FAFAFA;}
	.st4{fill:#9A9A9A;}
	.st5{opacity:0.5;}
	.st6{fill:#292929;}
	.st7{fill:#525252;}
	.st8{opacity:0.3;}
	.st9{fill:#1A2E35;}
	.st10{fill:#FFC19D;}
	.st11{fill:#8E8E8E;}
	.st12{fill:#FF9C6A;}
	.st13{fill:#3F2B1B;}
	.st14{fill:#1E1B1B;}
	.st15{fill:#A04A10;}
	.st16{fill:#375A64;}
	.st17{fill:#FFBB15;}
	.st18{fill:#00ADAD;}
	.st19{fill:#6D503D;}
	.st20{fill:#FF8900;}
	.st21{opacity:0.7;fill:#FF9C6A;}
	.st22{opacity:0.7;}
	.st23{fill:#C27460;}
	.st24{opacity:0.6;fill:#7C4235;}
	.st25{fill:#7C4235;}
	.st26{fill:#377F7D;}
	.st27{fill:#2F6B68;}
	.st28{opacity:0.6;fill:#2C6663;}
	.st29{fill:#03938F;}
	.st30{fill:#F2AE16;}
	.st31{fill:#EF7700;}
</style>
<circle class="st0" cx="500" cy="554" r="430.5"/>
<g>
	<g>
		<g>
			<path class="st1" d="M235.6,254.2c0,0,17.8,34.4,22.1,32.9c5.6-2,15.6-38.2,15.6-38.2S239,253.9,235.6,254.2z"/>
		</g>
	</g>
	<g>
		<g>
			<path class="st1" d="M277.1,248.2c0,0,20.7,32.8,25,30.9c5.4-2.5,12.2-39.5,12.2-39.5S280.4,247.5,277.1,248.2z"/>
		</g>
	</g>
	<g>
		<g>
			<path class="st1" d="M317.7,238.6c0,0,23.5,30.5,27.6,28.2c5.2-2.9,8.7-40.1,8.7-40.1S320.9,237.7,317.7,238.6z"/>
		</g>
	</g>
	<g>
		<g>
			<path class="st1" d="M355.6,226.2c0,0,25.2,28.9,29,26.4c5-3.2,6.1-41.4,6.1-41.4S358.8,225.1,355.6,226.2z"/>
		</g>
	</g>
	<g>
		<g>
			<path class="st1" d="M392.9,210.4c0,0,28,26.1,31.6,23.2c4.6-3.7,2.1-41,2.1-41S395.9,208.9,392.9,210.4z"/>
		</g>
	</g>
	<g>
		<g>
			<path class="st1" d="M430.1,190.9c0,0,29.9,23.9,33.3,20.8c4.3-4.1-1-41.1-1-41.1S433.1,189.2,430.1,190.9z"/>
		</g>
	</g>
	<g>
		<g>
			<path class="st1" d="M194.3,256.5c0,0,15.1,35.9,19.6,34.8c5.8-1.5,18.6-36.6,18.6-36.6S197.7,256.4,194.3,256.5z"/>
		</g>
	</g>
	<g>
		<g>
			<g>
				<path class="st1" d="M491.4,149c0,0-0.2,0.2-0.7,0.6c-0.5,0.4-1.2,1-2.2,1.8c-1,0.8-2.2,1.7-3.6,2.9c-0.7,0.6-1.5,1.2-2.3,1.8
					c-0.8,0.6-1.7,1.3-2.7,2c-1.9,1.4-4,3-6.3,4.8c-2.3,1.7-4.9,3.5-7.6,5.5c-1.4,1-2.8,2-4.3,3c-1.5,1-3,2.1-4.6,3.1
					c-0.8,0.5-1.6,1.1-2.4,1.6c-0.8,0.5-1.7,1.1-2.5,1.6c-1.7,1.1-3.4,2.2-5.2,3.4c-14.3,9.1-31.9,19-52.1,28.7
					c-10.1,4.7-20.9,9.4-32.3,13.9c-11.4,4.4-23.3,8.5-35.7,12.3c-3.1,0.9-6.2,1.8-9.2,2.7c-3.1,0.8-6.1,1.7-9.2,2.5
					c-0.8,0.2-1.5,0.4-2.3,0.6c-0.8,0.2-1.5,0.4-2.3,0.6c-1.5,0.4-3,0.7-4.5,1.1c-1.5,0.4-3,0.7-4.5,1.1c-1.5,0.3-3,0.7-4.5,1
					c-3,0.6-5.9,1.3-8.9,1.9c-2.9,0.6-5.8,1.1-8.7,1.7c-2.9,0.5-5.7,1-8.6,1.5c-1.4,0.2-2.8,0.5-4.2,0.7c-1.4,0.2-2.8,0.4-4.2,0.6
					c-11.1,1.7-21.7,2.7-31.6,3.5c-9.9,0.7-19.2,1.1-27.7,1.2c-2.1,0-4.2,0-6.2,0.1c-2,0-4-0.1-5.9-0.1c-3.8-0.1-7.4-0.1-10.8-0.3
					c-3.4-0.2-6.5-0.3-9.4-0.5c-2.9-0.2-5.5-0.4-7.9-0.6c-1.2-0.1-2.3-0.2-3.3-0.3c-1-0.1-2-0.2-2.9-0.3c-1.8-0.2-3.3-0.4-4.6-0.5
					c-1.2-0.1-2.2-0.2-2.8-0.3c-0.6-0.1-1-0.1-1-0.1s0.3,0,1,0.1c0.6,0.1,1.6,0.1,2.8,0.3c1.2,0.1,2.8,0.3,4.6,0.4
					c0.9,0.1,1.9,0.2,2.9,0.3c1,0.1,2.2,0.2,3.3,0.2c2.4,0.2,5,0.3,7.9,0.6c2.9,0.2,6,0.3,9.4,0.4c3.4,0.2,7,0.2,10.8,0.3
					c1.9,0,3.9,0.1,5.9,0.1c2,0,4.1,0,6.2-0.1c8.5-0.1,17.7-0.5,27.7-1.2c9.9-0.9,20.5-1.8,31.6-3.5c1.4-0.2,2.8-0.4,4.2-0.6
					c1.4-0.2,2.8-0.5,4.2-0.7c2.8-0.5,5.7-0.9,8.6-1.5c2.9-0.6,5.8-1.1,8.7-1.7c2.9-0.6,5.9-1.3,8.9-1.9c1.5-0.3,3-0.7,4.5-1
					c1.5-0.4,3-0.7,4.5-1.1c1.5-0.4,3-0.7,4.5-1.1c0.8-0.2,1.5-0.4,2.3-0.6c0.8-0.2,1.5-0.4,2.3-0.6c3-0.8,6.1-1.6,9.2-2.5
					c3.1-0.9,6.1-1.8,9.2-2.7c12.4-3.8,24.3-7.9,35.6-12.3c11.3-4.4,22.1-9.1,32.3-13.8c20.2-9.6,37.8-19.5,52.1-28.6
					c1.8-1.1,3.5-2.3,5.2-3.3c0.8-0.5,1.7-1.1,2.5-1.6c0.8-0.5,1.6-1.1,2.4-1.6c1.6-1.1,3.1-2.1,4.6-3.1c1.5-1,2.9-2,4.3-3
					c2.7-2,5.3-3.8,7.6-5.4c2.3-1.7,4.4-3.3,6.3-4.7c0.9-0.7,1.8-1.4,2.7-2c0.8-0.6,1.6-1.3,2.3-1.8c1.4-1.1,2.6-2.1,3.6-2.9
					c1-0.8,1.7-1.4,2.2-1.7C491.1,149.2,491.4,149,491.4,149z"/>
			</g>
		</g>
	</g>
</g>
<g>
	<g>
		<g>
			<path class="st1" d="M571.2,197.8c0,0-3.4,38.3,1,39.3c5.8,1.3,33.4-23.7,33.4-23.7S574.3,199.2,571.2,197.8z"/>
		</g>
	</g>
	<g>
		<g>
			<path class="st1" d="M609.1,214.7c0,0-0.1,38.5,4.5,39.1c5.8,0.8,31.2-26.6,31.2-26.6S612.3,215.9,609.1,214.7z"/>
		</g>
	</g>
	<g>
		<g>
			<path class="st1" d="M647.9,227.9c0,0,3.8,38.5,8.3,38.7c5.9,0.3,28.6-29,28.6-29S656.5,230.8,647.9,227.9z"/>
		</g>
	</g>
	<g>
		<g>
			<path class="st1" d="M686.5,238.2c0,0,5.7,37.6,10.3,37.5c5.9-0.1,26.7-31.1,26.7-31.1S689.8,238.9,686.5,238.2z"/>
		</g>
	</g>
	<g>
		<g>
			<path class="st1" d="M726.2,244.7c0,0,9.5,36.8,14.1,36.3c5.9-0.7,23.3-32.8,23.3-32.8S729.5,245.1,726.2,244.7z"/>
		</g>
	</g>
	<g>
		<g>
			<path class="st1" d="M767,248.4c0,0,12.3,36.3,16.8,35.4c5.8-1.1,21-34.9,21-34.9S770.4,248.5,767,248.4z"/>
		</g>
	</g>
	<g>
		<g>
			<path class="st1" d="M535.4,177.6c0,0-6.5,38.1-2.1,39.5c5.6,1.8,35.1-20.7,35.1-20.7S538.3,179.3,535.4,177.6z"/>
		</g>
	</g>
	<g>
		<g>
			<g>
				<path class="st1" d="M841.2,245.7c0,0-0.3,0-1,0.1c-0.6,0.1-1.6,0.2-2.8,0.3c-1.2,0.1-2.8,0.3-4.5,0.5c-0.9,0.1-1.9,0.2-2.9,0.3
					c-1,0.1-2.1,0.2-3.3,0.3c-2.3,0.2-4.9,0.4-7.8,0.6c-2.9,0.2-6,0.3-9.3,0.5c-1.7,0.1-3.4,0.2-5.2,0.2c-1.8,0.1-3.6,0.1-5.5,0.2
					c-0.9,0-1.9,0.1-2.9,0.1c-1,0-2,0-3,0c-2,0-4,0-6.1,0c-16.8,0-36.8-1-58.8-3.7c-11-1.4-22.5-3.2-34.4-5.6
					c-11.8-2.4-24-5.3-36.4-8.7c-3.1-0.9-6.1-1.8-9.2-2.6c-3-0.9-6-1.9-9-2.8c-0.7-0.2-1.5-0.5-2.2-0.7c-0.7-0.2-1.5-0.5-2.2-0.7
					c-1.5-0.5-2.9-1-4.4-1.5c-1.5-0.5-2.9-1-4.3-1.5c-1.4-0.5-2.9-1-4.3-1.6c-2.8-1.1-5.7-2-8.4-3.1c-2.8-1.1-5.5-2.2-8.2-3.2
					c-2.7-1.1-5.3-2.2-8-3.3c-1.3-0.6-2.6-1.1-3.9-1.7c-1.3-0.6-2.6-1.2-3.8-1.7c-10.2-4.5-19.6-9.3-28.3-13.9
					c-8.7-4.7-16.7-9.3-23.8-13.7c-1.8-1.1-3.5-2.2-5.2-3.2c-1.7-1-3.3-2.2-4.9-3.2c-3.2-2.1-6.1-4-8.9-6c-2.7-1.9-5.3-3.7-7.6-5.4
					c-2.3-1.7-4.4-3.3-6.3-4.7c-0.9-0.7-1.8-1.4-2.7-2c-0.8-0.6-1.6-1.2-2.3-1.8c-1.4-1.1-2.6-2.1-3.6-2.8c-1-0.8-1.7-1.4-2.2-1.8
					c-0.5-0.4-0.7-0.6-0.7-0.6s0.3,0.2,0.8,0.6c0.5,0.4,1.2,1,2.2,1.7c1,0.8,2.2,1.7,3.6,2.8c0.7,0.6,1.5,1.2,2.3,1.8
					c0.8,0.6,1.7,1.3,2.7,2c1.9,1.4,4,2.9,6.3,4.6c2.3,1.7,4.9,3.4,7.6,5.3c2.7,1.9,5.7,3.9,8.9,5.9c1.6,1,3.2,2.1,4.9,3.2
					c1.7,1.1,3.4,2.1,5.2,3.2c7.1,4.4,15.1,9,23.8,13.7c8.7,4.6,18.1,9.4,28.3,13.8c1.3,0.6,2.5,1.1,3.8,1.7
					c1.3,0.5,2.6,1.1,3.9,1.7c2.6,1.1,5.3,2.3,7.9,3.3c2.7,1.1,5.4,2.1,8.2,3.2c2.8,1.1,5.6,2.1,8.4,3.1c1.4,0.5,2.8,1,4.3,1.6
					c1.4,0.5,2.9,1,4.3,1.5c1.5,0.5,2.9,1,4.4,1.5c0.7,0.2,1.5,0.5,2.2,0.7c0.7,0.2,1.5,0.5,2.2,0.7c3,0.9,6,1.9,9,2.8
					c3,0.9,6.1,1.7,9.2,2.6c12.3,3.4,24.5,6.3,36.3,8.7c11.8,2.3,23.4,4.1,34.4,5.6c22,2.7,42,3.8,58.8,3.8c2.1,0,4.1,0,6.1,0
					c1,0,2,0,3,0c1,0,1.9-0.1,2.9-0.1c1.9-0.1,3.7-0.1,5.5-0.2c1.8-0.1,3.5-0.1,5.2-0.2c3.3-0.2,6.4-0.3,9.3-0.5
					c2.8-0.2,5.4-0.4,7.8-0.6c1.2-0.1,2.3-0.2,3.3-0.3c1-0.1,2-0.2,2.9-0.3c1.8-0.2,3.3-0.3,4.5-0.5c1.2-0.1,2.2-0.2,2.8-0.3
					C840.9,245.7,841.2,245.7,841.2,245.7z"/>
			</g>
		</g>
	</g>
</g>
<g>
	<g>
		<g>
			<g>
				<path class="st2" d="M747.2,644.6c-5-3.1-10.7-5.1-16.6-5.7c-2.7-0.3-5.7-0.2-7.9,1.4c-0.5,0.3-0.9,0.9-0.8,1.4
					c0.1,0.4,0.4,0.7,0.8,1C729.5,647.9,739.7,648.5,747.2,644.6"/>
			</g>
		</g>
		<g>
			<g>
				<path class="st2" d="M746.8,644.1c-3.8-2.9-7.5-5.9-10.7-9.4c-3.2-3.6-5.8-7.8-6.7-12.4c-0.3-1.4-0.4-3,0.5-4.2
					C738.4,624.7,745.2,633.4,746.8,644.1"/>
			</g>
		</g>
		<g>
			<g>
				<path class="st2" d="M747.2,644.5c-0.6-4.7-0.9-9.5,0.2-14.1c1.1-4.6,3.6-9,7.5-11.6c1.5,3.5,0.8,7.4-0.2,11
					c-1.6,5.6-4.1,10.9-7.4,15.7"/>
			</g>
		</g>
		<g>
			<g>
				<path class="st2" d="M755.5,659.5c-5.1,0.6-9.5,3.3-13.3,6.7c-3.8,3.4-6.5,8.1-7.6,13.1c5-0.3,9.2-3.8,12.3-7.8
					C750,667.6,752.1,663.3,755.5,659.5"/>
			</g>
		</g>
		<g>
			<g>
				<path class="st2" d="M757.4,661.9c-4.1-10.1-2.6-22.3,3.8-31.1C764.1,641.2,763,652.8,757.4,661.9"/>
			</g>
		</g>
		<g>
			<g>
				<path class="st2" d="M768.4,675.1c-4.6-0.3-9.3,0.8-13.3,3.1c-4,2.3-7.3,5.8-9.4,10c-0.3,0.6-0.5,1.3-0.2,1.8
					c0.3,0.4,1,0.5,1.5,0.4c4.5-0.3,8.4-3,11.7-6.1c3.3-3.1,6.1-6.6,9.7-9.3"/>
			</g>
		</g>
		<g>
			<g>
				<path class="st2" d="M768.1,674.4c-2.4-7.6-2.5-15.9-0.4-23.6c0.8-3,2.2-6.2,5-7.7c0.2-0.1,0.5-0.2,0.8-0.1
					c0.2,0.1,0.4,0.3,0.5,0.6c1,2.1,1.3,4.5,1.2,6.8c-0.1,2.3-0.6,4.6-1.1,6.9c-0.9,4.2-1.4,8.7-3.7,12.3c-0.5,0.9-1,1.8-1.5,2.7
					c-0.4,0.9-0.4,1.2-0.8,2"/>
			</g>
		</g>
		<g>
			<g>
				<path class="st2" d="M797.4,678.8c-2.2-8.3,0.1-18.3,5.3-25.1c0.4-0.5,0.9-1,1.5-1c1,0.1,1.2,1.4,1.2,2.3
					C805.1,663.5,802.2,671.8,797.4,678.8"/>
			</g>
		</g>
		<g>
			<g>
				<path class="st2" d="M800.1,680.6c10,2.6,21.6,0.1,29.9-6.1c-4.9-2.5-10.8-3.2-16.2-2C808.4,673.7,803.4,676.2,800.1,680.6"/>
			</g>
		</g>
		<g>
			<g>
				<path class="st2" d="M802.3,675.1c5.6-9.2,16.4-15.2,27.1-15.7c-1.2,4.4-4.8,7.8-8.9,9.8c-4.1,2.1-8.6,2.9-13,3.8
					C805.8,673.3,803.4,673.7,802.3,675.1"/>
			</g>
		</g>
		<g>
			<g>
				<path class="st2" d="M798,648.4c1.5-5.2,3.1-10.5,3.5-15.9c0.4-5.4-0.4-11.1-3.2-15.7c-5.3,10.2-5.8,22-0.5,32.2"/>
			</g>
		</g>
		<g>
			<g>
				<path class="st2" d="M815.7,639.4c6.1-11.2,18.7-20.1,31.4-21.3C842.1,630.3,828.8,639.7,815.7,639.4"/>
			</g>
		</g>
		<g>
			<g>
				<path class="st2" d="M811.8,641.6c9.2,1.4,17,7.2,25.5,10.8c1.8,0.8,3.8,1.4,5.8,1.1c2-0.3,3.9-1.6,4.3-3.5
					c0.4-1.6-0.4-3.3-1.5-4.5c-1.2-1.2-2.7-1.9-4.2-2.5c-9.3-3.9-19.3-4-29.1-1.6"/>
			</g>
		</g>
		<g>
			<g>
				<path class="st2" d="M806.5,648c2.1,0.6,2.8,1.7,4.4,3.1c5.6,4.7,12.3,8.2,19.4,9.9c0.7,0.2,1.7,0.3,2.1-0.4
					c0.3-0.6-0.1-1.3-0.5-1.8c-3-3.7-7.2-6.3-11.7-7.9c-4.5-1.7-8.3-3.7-13.7-3.2"/>
			</g>
		</g>
		<g>
			<g>
				<path class="st2" d="M800.5,609.2c7.4,7,17.9,10.5,28.1,9.6c0.5,0,1-0.1,1.3-0.5c0.7-0.8-0.1-2-1-2.6
					C820.6,609.3,810.6,606.6,800.5,609.2"/>
			</g>
		</g>
		<g>
			<g>
				<path class="st2" d="M807.6,606.6c9.8-7.4,23.4-9.6,35-5.8c-4.4,4.3-10.5,6.7-16.7,7.3C819.8,608.8,813.6,608.2,807.6,606.6"/>
			</g>
		</g>
		<g>
			<g>
				<path class="st2" d="M804.8,588.8c-0.8-8.2-0.3-14.7-0.9-23c0-0.7-0.2-1.5-0.8-1.7c-0.9-0.3-1.6,0.7-1.9,1.6
					c-2.5,7.6-1.1,16.4,3.5,22.9"/>
			</g>
		</g>
		<g>
			<g>
				<path class="st2" d="M804.2,589.7c5.6-3.5,9.8-8,13.7-13.3c2.7-3.7,5-8.1,4.4-12.6c-3.8-0.1-7.4,2-9.8,4.9
					c-2.5,2.9-3.9,6.5-5,10.1S805.5,586.2,804.2,589.7"/>
			</g>
		</g>
		<g>
			<g>
				<path class="st2" d="M817.6,586c12.3-4.5,23.7-11.3,33.6-19.8c-4-1.6-8.6-0.6-12.6,1c-9.2,3.7-16.7,9.9-21.2,18.8"/>
			</g>
		</g>
		<g>
			<g>
				<path class="st2" d="M808,594.2c6.2,0.7,12.5,1.1,18.7,0.1c6-1,11.8-3.4,17.4-5.8c0.5-0.2,1-0.4,1.2-0.9c0.2-0.5,0-1.1-0.4-1.5
					c-0.4-0.4-1-0.5-1.5-0.7c-6.1-1.7-12.8-0.9-18.8,1.1C818.4,588.6,813.5,591,808,594.2"/>
			</g>
		</g>
		<g>
			<g>
				<path class="st2" d="M772.5,609.5c-4.2-8.5-4-18.5-0.3-27.3c2.6,3.9,2.9,8.9,2.4,13.6c-0.5,4.7-1.9,9.5-2,14.2"/>
			</g>
		</g>
		<g>
			<g>
				<path class="st2" d="M755.6,601c-10.6-0.2-21.1,4.3-28.3,12.1c5.3,0.8,10.7-0.5,15.5-2.9c4.8-2.3,9.1-5.6,13.3-8.9"/>
			</g>
		</g>
		<g>
			<g>
				<path class="st2" d="M744.3,597.2c-5.2-0.4-10.1-1.1-15.1,0.5c-5,1.5-9.5,5-11.5,9.8c4.8,0.5,9.7-0.7,14.2-2.7
					C736.2,602.7,740.3,600,744.3,597.2"/>
			</g>
		</g>
		<g>
			<g>
				<path class="st2" d="M761.1,597.4c-4.6-3-9.4-6.1-14.8-7.4c-5.4-1.3-11.7-0.3-15.5,3.8c4.4,2.6,9.7,2.9,14.8,2.9
					c5.1,0,11.3-0.1,16.1,1.6"/>
			</g>
		</g>
		<g>
			<g>
				<path class="st2" d="M761.1,597.6c-7.9-7.8-11-21.8-7.8-32.5C759.6,574.6,762.4,586.3,761.1,597.6"/>
			</g>
		</g>
		<g>
			<g>
				<path class="st2" d="M783,575.5c1.5-3.5,2.6-7.1,3.9-10.7c1.3-3.5,3-7,5.6-9.9c2.5-2.8,6.1-4.9,9.8-5.1
					c-2.4,10.7-9.5,20.3-19.1,25.7"/>
			</g>
		</g>
		<g>
			<g>
				<path class="st2" d="M779,580.1c-2.5-3.4-5.3-8.1-8.7-10.6c-3.4-2.5-7.7-4.1-11.9-3.1C762.6,573.9,770.5,579.1,779,580.1"/>
			</g>
		</g>
		<g>
			<g>
				<path class="st2" d="M779.8,575.8c-1.6-4.1-3.3-8.3-3.9-12.7c-0.7-4.4-0.3-9.1,2-12.9c4.4,8.2,5.8,17.1,2.2,25.7"/>
			</g>
		</g>
		<g>
			<g>
				<path class="st2" d="M783,550.2c2.5-8.2,10-14.2,18-17c1-0.3,2.1-0.6,3.2-0.5c1.1,0.2,2.1,0.9,2.3,1.9c0.3,1.4-0.9,2.6-1.9,3.6
					C798.3,543.6,790.9,547.7,783,550.2"/>
			</g>
		</g>
		<g>
			<g>
				<path class="st2" d="M783.1,543.5c0.3-5.3,0.6-10.6,2.4-15.6c1.7-5,5-9.7,9.8-11.9c0.8,5.3-1.5,10.6-4.4,15.2
					c-2.8,4.6-6.2,8.9-8,14"/>
			</g>
		</g>
		<g>
			<g>
				<path class="st2" d="M783,547.1c-2-6-2.3-13.5-5.8-18.7c-2.5-3.6-6.5-6.1-8.6-9.9c-1.4,3.6-1,7.7,0.5,11.3
					c1.5,3.6,4,6.6,6.6,9.5C778.3,542,780.5,544.1,783,547.1"/>
			</g>
		</g>
		<g>
			<g>
				<g>
					<path class="st2" d="M783,722.6c-0.2,0-0.3-39.8-0.3-88.8c0-49,0.1-88.8,0.3-88.8c0.2,0,0.3,39.7,0.3,88.8
						C783.3,682.9,783.2,722.6,783,722.6z"/>
				</g>
			</g>
		</g>
		<g>
			<g>
				<g>
					<path class="st2" d="M817.8,603.5c0,0-0.5,0.2-1.5,0.6c-1.1,0.4-2.5,0.8-4.1,1.4c-3.5,1.2-8.2,2.9-13.4,5
						c-5.1,2.2-9.9,4-12.7,6.4c-1.4,1.2-2.2,2.4-2.6,3.4c-0.4,0.9-0.5,1.5-0.5,1.5c0,0,0-0.1,0-0.4c0-0.3,0.1-0.7,0.3-1.2
						c0.3-1,1.1-2.3,2.5-3.6c1.4-1.3,3.3-2.4,5.5-3.4c2.2-1,4.6-2.1,7.2-3.2c5.2-2.1,10-3.8,13.5-4.9c1.8-0.5,3.2-0.9,4.2-1.2
						C817.2,603.6,817.8,603.5,817.8,603.5z"/>
				</g>
			</g>
		</g>
		<g>
			<g>
				<g>
					<path class="st2" d="M829.2,575.6c0,0-0.1,0.2-0.4,0.4c-0.3,0.3-0.8,0.7-1.3,1.2c-1.2,1.1-2.8,2.5-4.8,4.3
						c-4.1,3.7-9.7,8.6-15.9,14.1c-6.2,5.5-11.5,10.8-15.2,14.7c-1.9,2-3.3,3.6-4.3,4.8c-0.5,0.5-0.8,1-1.2,1.3
						c-0.3,0.3-0.4,0.4-0.4,0.4c0,0,0.1-0.2,0.3-0.5c0.2-0.3,0.6-0.8,1.1-1.4c0.9-1.2,2.4-2.9,4.2-4.9c3.6-4,9-9.4,15.2-14.9
						c6.2-5.5,11.9-10.4,16-14c2-1.7,3.7-3.1,4.9-4.2c0.5-0.5,1-0.8,1.3-1.1C829,575.7,829.1,575.5,829.2,575.6z"/>
				</g>
			</g>
		</g>
		<g>
			<g>
				<g>
					<path class="st2" d="M800.2,601.2c-0.2-0.1,1.1-3.1,2.4-6.8c1.3-3.8,1.9-7,2.1-6.9c0.1,0-0.2,3.3-1.5,7.1
						c-0.6,1.9-1.4,3.6-1.9,4.8C800.6,600.6,800.2,601.3,800.2,601.2z"/>
				</g>
			</g>
		</g>
		<g>
			<g>
				<g>
					<path class="st2" d="M783.1,625.3c0,0-0.4-0.4-1-1.1c-0.6-0.8-1.5-1.9-2.4-3.1c-2.1-2.7-4.9-6.3-8.1-10.3
						c-3.2-4-6.1-7.6-8.2-10.2c-1-1.2-1.8-2.3-2.5-3.1c-0.6-0.7-0.9-1.2-0.9-1.2c0,0,0.4,0.3,1,1c0.6,0.7,1.5,1.7,2.6,3
						c2.2,2.5,5.2,6.1,8.4,10.1c3.2,4,6,7.7,7.9,10.4c1,1.4,1.8,2.5,2.3,3.2C782.8,624.8,783.1,625.3,783.1,625.3z"/>
				</g>
			</g>
		</g>
		<g>
			<g>
				<g>
					<path class="st2" d="M775.4,615.5c-0.1,0.1-2.1-2.3-3.2-6c-0.8-2.6-0.8-4.9-0.7-6l0.3,0c-0.1,0.5-0.2,0.7-0.2,0.7
						c0,0,0-0.3,0-0.7l0.3,0c0.1,1.1,0.3,3.4,1,5.9C773.8,612.9,775.6,615.4,775.4,615.5z"/>
				</g>
			</g>
		</g>
		<g>
			<g>
				<g>
					<path class="st2" d="M765.6,603.1c-0.1,0.1-0.7-0.7-2.2-1.3c-1.5-0.6-3.7-0.7-6.2-0.5c-2.5,0.2-4.7,0.6-6.2,1
						c-1.6,0.4-2.5,0.7-2.6,0.6c0-0.1,0.9-0.5,2.5-1c1.6-0.5,3.8-1,6.3-1.2c2.5-0.2,4.8,0,6.4,0.7
						C765.1,602.2,765.7,603.1,765.6,603.1z"/>
				</g>
			</g>
		</g>
		<g>
			<g>
				<g>
					<path class="st2" d="M763.3,600.2c0,0.1-1.3-0.5-3.4-1.2c-2.1-0.7-5.1-1.5-8.5-1.8c-3.4-0.3-6.5,0-8.7,0.4
						c-2.2,0.4-3.5,0.8-3.6,0.7c0,0,0.3-0.2,0.9-0.4c0.6-0.2,1.5-0.5,2.6-0.7c2.2-0.5,5.3-0.9,8.8-0.6c3.5,0.3,6.5,1.1,8.6,1.9
						c1.1,0.4,1.9,0.8,2.4,1.1C763,599.9,763.3,600.1,763.3,600.2z"/>
				</g>
			</g>
		</g>
		<g>
			<g>
				<g>
					<path class="st2" d="M783,587.5c-0.2,0-1.3-3.8-2.5-8.6c-1.2-4.8-2.1-8.8-1.9-8.8c0.2,0,1.3,3.8,2.5,8.6
						C782.3,583.5,783.1,587.4,783,587.5z"/>
				</g>
			</g>
		</g>
		<g>
			<g>
				<g>
					<path class="st2" d="M783.1,587.5c-0.2,0.1-0.9-2.5-2.8-5.2c-1.8-2.7-4.1-4.1-4.1-4.2c0-0.1,0.7,0.2,1.6,0.8
						c0.9,0.6,2,1.7,3,3.1C782.8,584.7,783.3,587.5,783.1,587.5z"/>
				</g>
			</g>
		</g>
		<g>
			<g>
				<g>
					<path class="st2" d="M783,701.4c-0.1,0-0.2-1-0.6-2.6c-0.4-1.7-1.3-4.1-2.7-6.9c-2.7-5.6-7.7-12.7-14.1-19.9
						c-3.1-3.6-6.2-7-8.8-10.2c-2.6-3.2-4.7-6.3-6.3-9.1c-1.6-2.7-2.6-5.1-3.2-6.7c-0.3-0.8-0.5-1.5-0.6-1.9
						c-0.1-0.4-0.2-0.7-0.2-0.7c0.1,0,0.3,0.9,1,2.5c0.7,1.6,1.7,3.9,3.3,6.6c1.6,2.7,3.7,5.7,6.3,8.9c2.6,3.2,5.7,6.6,8.8,10.2
						c6.4,7.1,11.4,14.4,14,20.1c1.3,2.8,2.1,5.3,2.5,7c0.2,0.9,0.3,1.5,0.4,2C783,701.2,783,701.4,783,701.4z"/>
				</g>
			</g>
		</g>
		<g>
			<g>
				<g>
					<path class="st2" d="M814.4,666c0,0-0.6,0.3-1.6,0.9c-1.1,0.6-2.6,1.5-4.3,2.8c-1.7,1.3-3.6,3-5.6,5.1c-2,2.1-4,4.5-6.1,7.1
						c-4.1,5.2-8,9.8-10.3,13.4c-1.2,1.8-2,3.4-2.6,4.4c-0.6,1.1-0.9,1.7-0.9,1.7c0,0,0-0.2,0.2-0.5c0.1-0.3,0.3-0.7,0.6-1.3
						c0.5-1.1,1.3-2.7,2.4-4.5c2.2-3.8,6.1-8.4,10.2-13.6c2.1-2.6,4.1-5,6.1-7.1c2-2.1,4-3.8,5.7-5.1c1.8-1.3,3.3-2.2,4.4-2.7
						c0.5-0.3,1-0.4,1.3-0.6C814.2,666,814.4,665.9,814.4,666z"/>
				</g>
			</g>
		</g>
		<g>
			<g>
				<g>
					<path class="st2" d="M815,677.5c0,0.1-1.3,0.2-3.5,0.5c-2.1,0.3-5.1,0.6-8.2,1.6c-3.1,1-5.7,2.6-7.4,3.9
						c-1.7,1.3-2.5,2.4-2.6,2.3c0,0,0.1-0.3,0.5-0.8c0.4-0.5,1-1.1,1.8-1.9c1.7-1.4,4.3-3.1,7.5-4.1c3.2-1,6.2-1.3,8.4-1.5
						C813.7,677.4,815,677.4,815,677.5z"/>
				</g>
			</g>
		</g>
		<g>
			<g>
				<g>
					<path class="st2" d="M794.4,684.5c-0.2-0.1,1.4-2.5,2.6-5.7c1.1-3.2,1.4-6.1,1.6-6.1c0.1,0,0.1,0.7-0.1,1.9
						c-0.1,1.1-0.4,2.7-1,4.4c-0.6,1.7-1.4,3.1-2,4C794.9,684,794.4,684.6,794.4,684.5z"/>
				</g>
			</g>
		</g>
		<g>
			<g>
				<g>
					<path class="st2" d="M824.6,635.1c0,0-0.2,0.1-0.6,0.3c-0.4,0.2-1,0.4-1.6,0.7c-0.7,0.3-1.6,0.7-2.6,1.2c-1,0.5-2.1,1-3.3,1.7
						c-0.6,0.3-1.2,0.7-1.9,1.1c-0.7,0.4-1.3,0.8-2,1.3c-1.4,0.8-2.8,1.9-4.3,3c-2.9,2.2-6,4.8-9,7.9c-2.9,3.1-5.5,6.2-7.6,9.2
						c-1,1.5-2,3-2.8,4.4c-0.4,0.7-0.8,1.4-1.2,2c-0.4,0.7-0.7,1.3-1,1.9c-0.7,1.2-1.2,2.4-1.6,3.4c-0.5,1-0.8,1.9-1.1,2.6
						c-0.3,0.7-0.5,1.2-0.7,1.7c-0.2,0.4-0.3,0.6-0.3,0.6c0,0,0-0.2,0.2-0.6c0.2-0.4,0.3-1,0.6-1.7c0.3-0.7,0.6-1.6,1-2.7
						c0.4-1,0.9-2.2,1.6-3.4c0.3-0.6,0.6-1.3,1-2c0.3-0.7,0.8-1.4,1.2-2.1c0.8-1.4,1.8-2.9,2.8-4.5c2.1-3,4.6-6.2,7.6-9.3
						c3-3.1,6.1-5.7,9.1-7.9c1.5-1.1,2.9-2.1,4.4-2.9c0.7-0.4,1.4-0.9,2-1.2c0.7-0.4,1.3-0.7,1.9-1.1c1.2-0.7,2.4-1.2,3.4-1.7
						c1-0.5,1.9-0.9,2.6-1.1c0.7-0.3,1.2-0.5,1.7-0.6C824.4,635.1,824.6,635.1,824.6,635.1z"/>
				</g>
			</g>
		</g>
		<g>
			<g>
				<g>
					<path class="st2" d="M799.7,651.7c-0.1,0,0.2-1,1.4-2c1.1-1.1,3.1-2,5.5-2.1c2.4-0.1,4.4,0.6,5.8,1.1c1.4,0.6,2.2,1,2.2,1.1
						c0,0.1-0.9-0.2-2.3-0.7c-1.4-0.4-3.4-1-5.6-0.9c-2.2,0.1-4.1,0.9-5.3,1.8C800.2,650.9,799.8,651.8,799.7,651.7z"/>
				</g>
			</g>
		</g>
		<g>
			<g>
				<g>
					<path class="st2" d="M796,655.6c-0.2-0.1,1.2-2.1,1.6-5.1c0.4-2.9-0.5-5.3-0.4-5.3c0.1,0,0.4,0.5,0.6,1.5
						c0.3,1,0.5,2.4,0.3,3.9c-0.2,1.5-0.7,2.9-1.2,3.7C796.5,655.1,796.1,655.6,796,655.6z"/>
				</g>
			</g>
		</g>
	</g>
	<g>
		<g>
			<path class="st2" d="M755.6,707.1c0.9,15.2,5.4,30.6,12.5,46.3h30.6c6.7-15.5,11-30.9,11.7-46.3H755.6z"/>
		</g>
	</g>
	<g>
		<g>
			<g>
				<path class="st3" d="M805.4,731.7c0,0.2-10.1,0.3-22.5,0.3c-12.4,0-22.5-0.1-22.5-0.3c0-0.2,10.1-0.3,22.5-0.3
					C795.4,731.4,805.4,731.5,805.4,731.7z"/>
			</g>
		</g>
	</g>
	<g>
		<g>
			<g>
				<path class="st3" d="M804.8,737.2c0,0.2-9.5,0.3-21.1,0.3c-11.7,0-21.1-0.1-21.1-0.3c0-0.2,9.4-0.3,21.1-0.3
					C795.3,736.9,804.8,737,804.8,737.2z"/>
			</g>
		</g>
	</g>
	<g>
		<g>
			<g>
				<path class="st3" d="M768.5,717.1c0.2,0,0.3,3.2,0.3,7.1c0,3.9-0.1,7.1-0.3,7.1c-0.2,0-0.3-3.2-0.3-7.1
					C768.2,720.2,768.4,717.1,768.5,717.1z"/>
			</g>
		</g>
	</g>
	<g>
		<g>
			<g>
				<path class="st3" d="M784.9,717.1c0.2,0,0.3,3.3,0.3,7.3c0,4-0.1,7.3-0.3,7.3s-0.3-3.3-0.3-7.3
					C784.7,720.4,784.8,717.1,784.9,717.1z"/>
			</g>
		</g>
	</g>
	<g>
		<g>
			<g>
				<path class="st3" d="M800.3,717c0.2,0,0.3,3.3,0.3,7.4c0,4.1-0.1,7.5-0.3,7.5s-0.3-3.3-0.3-7.5C800.1,720.3,800.2,717,800.3,717
					z"/>
			</g>
		</g>
	</g>
	<g>
		<g>
			<g>
				<path class="st3" d="M809.4,717.1c0,0.2-11.8,0.3-26.4,0.3c-14.6,0-26.4-0.1-26.4-0.3c0-0.2,11.8-0.3,26.4-0.3
					C797.6,716.8,809.4,716.9,809.4,717.1z"/>
			</g>
		</g>
	</g>
</g>
<g>
	<g>
		<g>
			<path class="st1" d="M396.7,437.8c1,3-0.7,6.3-3.7,7.3c-3,1-6.3-0.7-7.3-3.7c-1-3,0.6-6.3,3.7-7.3
				C392.4,433.2,395.7,434.8,396.7,437.8z"/>
		</g>
	</g>
	<g>
		<g>
			<g>
				<path class="st1" d="M395.3,436.3c-0.2,0.3-5.3-3.1-10.6-8.2c-5.3-5.2-9.6-9.3-9.4-9.6c0.2-0.3,4.9,3.5,10.2,8.6
					C390.9,432.2,395.5,436,395.3,436.3z"/>
			</g>
		</g>
	</g>
	<g>
		<g>
			<g>
				<path class="st1" d="M383.5,409.1c0.3,0,0.1,3.2-2.3,6.2c-2.4,3-5.5,3.9-5.6,3.6c-0.2-0.3,2.4-1.7,4.6-4.4
					C382.4,411.8,383.1,409,383.5,409.1z"/>
			</g>
		</g>
	</g>
	<g>
		<g>
			<g>
				<path class="st1" d="M387.5,413.5c0.3,0,0.3,3.2-2.3,5.9c-2.5,2.8-5.8,3.1-5.8,2.7c-0.1-0.4,2.6-1.2,4.8-3.6
					C386.6,416.2,387.2,413.4,387.5,413.5z"/>
			</g>
		</g>
	</g>
</g>
<g>
	<g>
		<g>
			<path class="st0" d="M911,302.6c-0.5,3.1-3.4,5.3-6.6,4.8c-3.1-0.5-5.3-3.4-4.8-6.6c0.5-3.1,3.4-5.3,6.6-4.8
				C909.3,296.5,911.5,299.4,911,302.6z"/>
		</g>
	</g>
	<g>
		<g>
			<g>
				<path class="st0" d="M910.5,300.6c-0.3,0.2-3.3-5.1-5.7-12.2c-2.4-7-4.3-12.7-4-12.8c0.4-0.2,2.8,5.4,5.2,12.4
					C908.4,294.9,910.8,300.4,910.5,300.6z"/>
			</g>
		</g>
	</g>
	<g>
		<g>
			<g>
				<path class="st0" d="M912.3,271c0.3,0.2-1.4,2.9-4.9,4.5c-3.5,1.6-6.7,1-6.6,0.6c0-0.4,2.9-0.4,6.1-1.8
					C910.1,272.9,912,270.7,912.3,271z"/>
			</g>
		</g>
	</g>
	<g>
		<g>
			<g>
				<path class="st0" d="M913.9,276.7c0.3,0.1-1.2,3-4.8,4.2c-3.5,1.3-6.5,0.1-6.4-0.2c0.1-0.4,2.8,0.2,5.9-1
					C911.8,278.7,913.6,276.5,913.9,276.7z"/>
			</g>
		</g>
	</g>
</g>
<g>
	<g>
		<g>
			<path class="st1" d="M857.3,449c-2.5,2-6.1,1.6-8.1-0.8c-2-2.5-1.6-6.1,0.8-8.1c2.5-2,6.1-1.6,8.1,0.8
				C860.1,443.3,859.7,446.9,857.3,449z"/>
		</g>
	</g>
	<g>
		<g>
			<g>
				<path class="st1" d="M858.2,447.1c-0.3-0.1,1-6,3.9-12.8c2.9-6.8,5.3-12.2,5.6-12.2c0.4,0.1-1.5,5.9-4.4,12.6
					C860.4,441.5,858.6,447.2,858.2,447.1z"/>
			</g>
		</g>
	</g>
	<g>
		<g>
			<g>
				<path class="st1" d="M879.4,426.3c0.1,0.3-3,1.3-6.6,0c-3.7-1.2-5.6-3.8-5.3-3.9c0.3-0.3,2.4,1.7,5.7,2.7
					C876.4,426.3,879.3,426,879.4,426.3z"/>
			</g>
		</g>
	</g>
	<g>
		<g>
			<g>
				<path class="st1" d="M876.7,431.7c0.2,0.3-2.9,1.4-6.4-0.1c-3.5-1.4-4.9-4.3-4.6-4.4c0.3-0.2,2,2,5.1,3.2
					C873.9,431.8,876.7,431.3,876.7,431.7z"/>
			</g>
		</g>
	</g>
</g>
<g>
	<g>
		<g>
			<path class="st1" d="M681.2,326.6c-2.5,2-6.1,1.6-8.1-0.8c-2-2.5-1.6-6.1,0.8-8.1c2.5-2,6.1-1.6,8.1,0.8
				C684,320.9,683.7,324.6,681.2,326.6z"/>
		</g>
	</g>
	<g>
		<g>
			<g>
				<path class="st1" d="M682.2,324.7c-0.3-0.1,1-6,3.9-12.8c2.9-6.8,5.3-12.2,5.6-12.2c0.4,0.1-1.5,5.9-4.4,12.6
					C684.4,319.1,682.5,324.8,682.2,324.7z"/>
			</g>
		</g>
	</g>
	<g>
		<g>
			<g>
				<path class="st1" d="M703.3,304c0.1,0.3-3,1.3-6.6,0c-3.7-1.2-5.6-3.8-5.3-3.9c0.3-0.3,2.4,1.7,5.7,2.7
					C700.4,303.9,703.3,303.6,703.3,304z"/>
			</g>
		</g>
	</g>
	<g>
		<g>
			<g>
				<path class="st1" d="M700.7,309.3c0.2,0.3-2.9,1.4-6.4-0.1c-3.5-1.4-4.9-4.3-4.6-4.4c0.3-0.2,2,2,5.1,3.2
					C697.8,309.4,700.6,309,700.7,309.3z"/>
			</g>
		</g>
	</g>
</g>
<g>
	<g>
		<g>
			
				<ellipse transform="matrix(0.9527 -0.304 0.304 0.9527 -60.9391 61.0077)" class="st0" cx="165.5" cy="226.3" rx="6.5" ry="6.5"/>
		</g>
	</g>
	<g>
		<g>
			<g>
				<path class="st0" d="M170.9,228.9c-0.4-0.1,0.7-6.9,3.6-14.8c2.9-7.9,5.2-14.2,5.5-14.1c0.4,0.1-1.3,6.7-4.2,14.6
					C173,222.4,171.3,229,170.9,228.9z"/>
			</g>
		</g>
	</g>
	<g>
		<g>
			<g>
				<path class="st0" d="M193.4,204c0.2,0.3-3.3,1.6-7.5,0.5c-4.2-1.1-6.6-3.9-6.3-4.1c0.3-0.3,2.9,1.8,6.7,2.7
					C190.1,204.1,193.4,203.6,193.4,204z"/>
			</g>
		</g>
	</g>
	<g>
		<g>
			<g>
				<path class="st0" d="M190.8,210.2c0.2,0.3-3.2,1.8-7.2,0.4c-4.1-1.3-5.9-4.5-5.5-4.7c0.3-0.3,2.4,2.1,6,3.3
					C187.6,210.5,190.7,209.8,190.8,210.2z"/>
			</g>
		</g>
	</g>
</g>
<g>
	<g>
		<g>
			<g>
				<g>
					<path class="st1" d="M394.8,324c-3.3,2.3-7.7,1.4-10-1.8c-2.3-3.3-1.4-7.7,1.8-10c3.3-2.3,7.7-1.4,10,1.8
						C398.9,317.3,398.1,321.8,394.8,324z"/>
				</g>
			</g>
			<g>
				<g>
					<g>
						<path class="st1" d="M396.2,321.8c-0.7-0.2,1.4-7.6,5.7-15.8c4.3-8.2,7.9-14.6,8.5-14.4c0.7,0.3-2.1,7.4-6.3,15.5
							C399.8,315.3,396.8,322,396.2,321.8z"/>
					</g>
				</g>
			</g>
			<g>
				<g>
					<g>
						<path class="st1" d="M428.6,306.1c0,0.6-6,0.5-12.1-3.5c-3-2-5.2-4.6-6.1-6.8c-1-2.2-0.8-3.8-0.5-3.8c0.4-0.1,0.8,1.3,2,2.9
							c1.2,1.7,3.3,3.8,6,5.6C423.4,304.1,428.8,305.3,428.6,306.1z"/>
					</g>
				</g>
			</g>
		</g>
		<g>
			<g>
				<path class="st1" d="M413,338.4c-3.3,2.3-7.7,1.4-10-1.8c-2.3-3.3-1.4-7.7,1.8-10c3.3-2.3,7.7-1.4,10,1.8S416.3,336.2,413,338.4
					z"/>
			</g>
		</g>
		<g>
			<g>
				<g>
					<path class="st1" d="M414.4,336.2c-0.7-0.2,1.4-7.6,5.7-15.8c4.3-8.2,7.9-14.6,8.5-14.4c0.7,0.3-2.1,7.4-6.3,15.5
						C418.1,329.7,415.1,336.4,414.4,336.2z"/>
				</g>
			</g>
		</g>
		<g>
			<g>
				<g>
					<path class="st1" d="M426.6,310.5c0.1,0.6-5.7,1-11.5-2.6c-5.9-3.5-8.3-8.7-7.7-8.9c0.6-0.4,3.7,3.7,9,6.8
						C421.6,309,426.6,309.8,426.6,310.5z"/>
				</g>
			</g>
		</g>
	</g>
</g>
<g>
	<g>
		<g>
			<g>
				<g>
					<path class="st0" d="M718.2,135.2c-3.3,2.3-7.7,1.4-10-1.8c-2.3-3.3-1.4-7.7,1.8-10c3.3-2.3,7.7-1.4,10,1.8
						C722.3,128.5,721.5,133,718.2,135.2z"/>
				</g>
			</g>
			<g>
				<g>
					<g>
						<path class="st0" d="M719.6,133c-0.7-0.2,1.4-7.6,5.7-15.8c4.3-8.2,7.9-14.6,8.5-14.4c0.7,0.3-2.1,7.4-6.3,15.5
							C723.3,126.5,720.3,133.2,719.6,133z"/>
					</g>
				</g>
			</g>
			<g>
				<g>
					<g>
						<path class="st0" d="M752.1,117.3c0,0.6-6,0.5-12.1-3.5c-3-2-5.2-4.6-6.1-6.8c-1-2.2-0.8-3.8-0.5-3.8c0.4-0.1,0.8,1.3,2,2.9
							c1.2,1.7,3.3,3.8,6,5.6C746.8,115.4,752.2,116.5,752.1,117.3z"/>
					</g>
				</g>
			</g>
		</g>
		<g>
			<g>
				<path class="st0" d="M736.5,149.7c-3.3,2.3-7.7,1.4-10-1.8c-2.3-3.3-1.4-7.7,1.8-10c3.3-2.3,7.7-1.4,10,1.8
					C740.6,142.9,739.7,147.4,736.5,149.7z"/>
			</g>
		</g>
		<g>
			<g>
				<g>
					<path class="st0" d="M737.8,147.5c-0.7-0.2,1.4-7.6,5.7-15.8c4.3-8.2,7.9-14.6,8.5-14.4c0.7,0.3-2.1,7.4-6.3,15.5
						C741.5,140.9,738.5,147.7,737.8,147.5z"/>
				</g>
			</g>
		</g>
		<g>
			<g>
				<g>
					<path class="st0" d="M750,121.8c0.1,0.6-5.7,1-11.5-2.6c-5.9-3.5-8.3-8.7-7.7-8.9c0.6-0.4,3.7,3.7,9,6.8
						C745,120.2,750.1,121,750,121.8z"/>
				</g>
			</g>
		</g>
	</g>
</g>
<g>
	<g>
		<g>
			<g>
				<g>
					<path class="st1" d="M179.1,365.4c-1.8,3.5-6.2,4.9-9.7,3.1c-3.5-1.8-4.9-6.2-3.1-9.7c1.8-3.5,6.2-4.9,9.7-3.1
						C179.6,357.5,181,361.8,179.1,365.4z"/>
				</g>
			</g>
			<g>
				<g>
					<g>
						<path class="st1" d="M179.3,362.8c-0.7,0.1-2.3-7.3-2.4-16.6c0-9.2,0.2-16.6,0.8-16.7c0.7-0.1,1.6,7.5,1.7,16.7
							C179.5,355.3,180,362.6,179.3,362.8z"/>
					</g>
				</g>
			</g>
			<g>
				<g>
					<g>
						<path class="st1" d="M200.7,333.7c0.3,0.5-5.1,3.3-12.3,2.6c-3.6-0.3-6.7-1.6-8.6-3.1c-1.9-1.5-2.5-3-2.2-3.1
							c0.3-0.2,1.3,0.8,3.1,1.7c1.9,0.9,4.7,1.8,7.9,2.1C195.1,334.4,200.5,332.9,200.7,333.7z"/>
					</g>
				</g>
			</g>
		</g>
		<g>
			<g>
				<path class="st1" d="M202,369.6c-1.8,3.5-6.2,4.9-9.7,3.1c-3.5-1.8-4.9-6.2-3.1-9.7s6.2-4.9,9.7-3.1
					C202.5,361.7,203.8,366.1,202,369.6z"/>
			</g>
		</g>
		<g>
			<g>
				<g>
					<path class="st1" d="M202.2,367c-0.7,0.1-2.3-7.3-2.4-16.6c0-9.2,0.2-16.6,0.8-16.7c0.7-0.1,1.6,7.5,1.7,16.7
						C202.4,359.5,202.9,366.9,202.2,367z"/>
				</g>
			</g>
		</g>
		<g>
			<g>
				<g>
					<path class="st1" d="M200.9,338.6c0.3,0.5-4.6,3.5-11.4,3.1c-6.8-0.3-11.4-3.8-11-4.3c0.4-0.6,5,1.5,11.1,1.8
						C195.8,339.6,200.7,337.9,200.9,338.6z"/>
				</g>
			</g>
		</g>
	</g>
</g>
<g>
	<g>
		<g>
			<g>
				<g>
					<path class="st1" d="M577.5,373c1.2,3.8-0.9,7.8-4.7,9c-3.8,1.2-7.8-0.9-9-4.7c-1.2-3.8,0.9-7.8,4.7-9
						C572.3,367.1,576.3,369.2,577.5,373z"/>
				</g>
			</g>
			<g>
				<g>
					<g>
						<path class="st1" d="M575.8,371c-0.4,0.6-6.8-3.6-13.4-10.1c-6.5-6.5-11.6-11.9-11.2-12.4c0.5-0.6,6.4,4.1,12.9,10.6
							C570.6,365.6,576.2,370.5,575.8,371z"/>
					</g>
				</g>
			</g>
			<g>
				<g>
					<g>
						<path class="st1" d="M570.4,335.4c0.6,0.2-1.3,5.9-6.9,10.5c-2.8,2.3-5.9,3.6-8.3,3.9c-2.4,0.3-3.9-0.4-3.8-0.7
							c0.1-0.4,1.4-0.3,3.4-1c2-0.7,4.6-2,7.1-4.1C566.9,339.8,569.7,335,570.4,335.4z"/>
					</g>
				</g>
			</g>
		</g>
		<g>
			<g>
				<path class="st1" d="M596.7,359.8c1.2,3.8-0.9,7.8-4.7,9c-3.8,1.2-7.8-0.9-9-4.7c-1.2-3.8,0.9-7.8,4.7-9
					C591.5,354,595.5,356.1,596.7,359.8z"/>
			</g>
		</g>
		<g>
			<g>
				<g>
					<path class="st1" d="M595,357.9c-0.4,0.6-6.8-3.6-13.4-10.1c-6.5-6.5-11.6-11.9-11.2-12.4c0.5-0.6,6.4,4.1,12.9,10.6
						C589.8,352.4,595.4,357.3,595,357.9z"/>
				</g>
			</g>
		</g>
		<g>
			<g>
				<g>
					<path class="st1" d="M574,338.6c0.6,0.1-0.8,5.7-5.9,10.2c-5.1,4.6-10.8,5.3-10.8,4.7c-0.2-0.7,4.6-2.4,9.2-6.5
						C571.1,343,573.3,338.4,574,338.6z"/>
				</g>
			</g>
		</g>
	</g>
</g>
<g>
	<g>
		<g>
			<g>
				<g>
					<path class="st1" d="M120.7,615.2c-1.7,0-3-1.3-3-3l0-47.2c0-2.9,1-5.7,2.8-7.9l1.5-1.8c1.7-2,2.6-4.6,2.6-7.3v-17
						c0-0.1-0.1-0.2-0.2-0.2c-0.2,0-0.4-0.2-0.4-0.4v-1.5c0-0.2,0.2-0.3,0.3-0.3c0.1,0,0.2-0.1,0.2-0.2v-0.7c0-0.1-0.1-0.2-0.2-0.2
						c-0.2,0-0.4-0.2-0.4-0.3v-2.4c0-0.3,0.3-0.6,0.6-0.6h8.8c0.3,0,0.6,0.3,0.6,0.6v2.4c0,0.2-0.2,0.3-0.4,0.3
						c-0.1,0-0.2,0.1-0.2,0.2v0.7c0,0.1,0.1,0.2,0.2,0.2c0.2,0,0.3,0.2,0.3,0.3v1.5c0,0.2-0.2,0.4-0.4,0.4c-0.1,0-0.2,0.1-0.2,0.2
						v17c0,2.7,0.9,5.2,2.6,7.3l1.5,1.8c1.8,2.2,2.8,5,2.8,7.9l0,47.2c0,1.7-1.3,3-3,3H120.7z"/>
				</g>
			</g>
			<g>
				<rect x="120" y="571.8" class="st4" width="17.9" height="24.4"/>
			</g>
			<g>
				<path class="st4" d="M124.6,543.5V531c0-0.1-0.1-0.2-0.2-0.2c-0.2,0-0.4-0.2-0.4-0.4v-1.5c0-0.2,0.2-0.3,0.3-0.3
					c0.1,0,0.2-0.1,0.2-0.2v-0.7c0-0.1-0.1-0.2-0.2-0.2c-0.2,0-0.4-0.2-0.4-0.3v-2.4c0-0.3,0.3-0.6,0.6-0.6h8.8
					c0.3,0,0.6,0.3,0.6,0.6v2.4c0,0.2-0.2,0.3-0.4,0.3c-0.1,0-0.2,0.1-0.2,0.2v0.7c0,0.1,0.1,0.2,0.2,0.2c0.2,0,0.3,0.2,0.3,0.3v1.5
					c0,0.2-0.2,0.4-0.4,0.4c-0.1,0-0.2,0.1-0.2,0.2v12.5H124.6z"/>
			</g>
		</g>
		<g>
			<g>
				<path class="st1" d="M117.9,608.9c-0.1,0-0.1-9.5-0.1-21.2c0-11.7,0.1-21.2,0.1-21.2s0.1,9.5,0.1,21.2
					C118,599.4,117.9,608.9,117.9,608.9z"/>
			</g>
		</g>
		<g>
			<g>
				<path class="st2" d="M124.5,531c2.9,0,5.9,0,8.8,0"/>
			</g>
		</g>
	</g>
	<g class="st5">
		<g>
			<g>
				<g>
					<g>
						<path class="st6" d="M107.3,753.5c-0.3,0-0.6,0-1-0.1c-1.4-0.4-2.3-1.6-2.3-3.1v-37.4h0.8v37.4c0,1.3,0.9,2,1.7,2.3
							c0.8,0.2,1.9,0.1,2.7-1l25.4-39l0.7,0.5L110,752C109.4,753,108.4,753.5,107.3,753.5z"/>
					</g>
				</g>
				<g>
					<g>
						<path class="st6" d="M208.3,753.5c-1.1,0-2-0.5-2.6-1.5l-25.4-39l0.7-0.5l25.4,39c0.7,1.1,1.9,1.2,2.7,1
							c0.8-0.2,1.7-1,1.7-2.3v-37.4h0.8v37.4c0,1.5-0.9,2.7-2.3,3.1C208.9,753.4,208.6,753.5,208.3,753.5z"/>
					</g>
				</g>
				<g>
					<g>
						<rect x="90" y="615.3" class="st7" width="130.6" height="101.4"/>
					</g>
				</g>
			</g>
			<g>
				<g>
					<g>
						<path class="st6" d="M213,661.1c0,0,0-0.2,0-0.7c0-0.4,0-1.1,0-1.9c0-1.7,0-4.1,0-7.3c0-6.3,0-15.6-0.1-27.1l0.2,0.1
							c-27.9,0-69.4,0-115.7,0.1h0l0.2-0.2c0,12.8,0,25.3,0,37l-0.2-0.2c33.3,0,62.2,0.1,82.8,0.1c10.3,0,18.5,0,24.2,0.1
							c2.8,0,5,0,6.5,0c0.7,0,1.3,0,1.7,0C212.8,661,213,661.1,213,661.1s-0.2,0-0.6,0c-0.4,0-0.9,0-1.7,0c-1.5,0-3.6,0-6.4,0
							c-5.6,0-13.8,0-24.1,0.1c-20.6,0-49.6,0.1-82.9,0.1l-0.2,0v-0.2c0-11.7,0-24.1,0-37v-0.2h0.2h0c46.3,0,87.8,0.1,115.7,0.1
							l0.2,0l0,0.1c0,11.6-0.1,20.9-0.1,27.2c0,3.2,0,5.6,0,7.3c0,0.8,0,1.4,0,1.9C213,660.8,213,661.1,213,661.1z"/>
					</g>
				</g>
			</g>
			<g>
				<g>
					<g>
						<path class="st6" d="M213,704.9c0,0,0-0.2,0-0.7c0-0.4,0-1.1,0-1.9c0-1.7,0-4.1,0-7.3c0-6.3,0-15.6-0.1-27.1l0.2,0.1
							c-27.9,0-69.4,0-115.7,0.1h0l0.2-0.2c0,12.8,0,25.3,0,37l-0.2-0.2c33.3,0,62.2,0.1,82.8,0.1c10.3,0,18.5,0,24.2,0.1
							c2.8,0,5,0,6.5,0c0.7,0,1.3,0,1.7,0C212.8,704.9,213,704.9,213,704.9s-0.2,0-0.6,0c-0.4,0-0.9,0-1.7,0c-1.5,0-3.6,0-6.4,0
							c-5.6,0-13.8,0-24.1,0.1c-20.6,0-49.6,0.1-82.9,0.1l-0.2,0v-0.2c0-11.7,0-24.1,0-37v-0.2h0.2h0c46.3,0,87.8,0.1,115.7,0.1
							l0.2,0l0,0.1c0,11.6-0.1,20.9-0.1,27.2c0,3.2,0,5.6,0,7.3c0,0.8,0,1.4,0,1.9C213,704.7,213,704.9,213,704.9z"/>
					</g>
				</g>
			</g>
			<g>
				<g>
					<polygon class="st6" points="131.5,623.9 135.2,627.7 178.3,627.7 182.6,623.9 					"/>
				</g>
			</g>
			<g>
				<g>
					<polygon class="st6" points="131.6,667.7 135.4,671.5 178.5,671.5 182.7,667.7 					"/>
				</g>
			</g>
		</g>
	</g>
	<g>
		<path class="st1" d="M147.9,578.8l1.9,33.1c0.1,1.7,1.5,3,3.2,3L164,615c1.7,0,3.1-1.3,3.2-2.9l2.7-33.2L147.9,578.8z"/>
		<path class="st4" d="M163,611.3h-8.7c-1.2,0-2.2-0.9-2.3-2.1l-0.8-14.5h14.8l-0.8,14.5C165.2,610.4,164.2,611.3,163,611.3z"/>
	</g>
</g>
<g class="st5">
	<g>
		<g>
			<g>
				<polygon class="st7" points="721.4,754.7 713.8,711.9 689.3,711.9 705.7,754.7 				"/>
			</g>
		</g>
	</g>
	<g>
		<g>
			<g>
				<polygon class="st7" points="268.7,754.3 282.8,699.2 307.4,699.2 284.3,754.4 				"/>
			</g>
		</g>
	</g>
	<g>
		<g>
			<g>
				<path class="st7" d="M269,579.2c0,0,24.4-11.2,50.3-6.4c4.9,0.9,2,50.7,2,50.7l-18.9,14.6L269,579.2"/>
			</g>
		</g>
	</g>
	<g class="st8">
		<g>
			<g>
				<path d="M269,579.2c0,0,24.4-11.2,50.3-6.4c4.9,0.9,2,50.7,2,50.7l-18.9,14.6L269,579.2"/>
			</g>
		</g>
	</g>
	<g>
		<g>
			<g>
				<path class="st7" d="M295.9,692c0,0,0-40.3,0-41.1l204,0l2.1,41.2L295.9,692z"/>
			</g>
		</g>
	</g>
	<g>
		<g>
			<g>
				<path class="st7" d="M299.9,695.1H278c-11.3,0-20.4-9.1-20.4-20.4v-77.6c0-11.3,9.1-20.4,20.4-20.4h3.9
					c11.3,0,20.4,9.1,20.4,20.4v95.5C302.3,694,301.2,695.1,299.9,695.1z"/>
			</g>
		</g>
	</g>
	<g>
		<g>
			<g>
				<path class="st7" d="M505.3,623.5c0.2-0.9-1.5-5.3-15.7-4.9c-10.9,0.4-163.5-0.7-170.9,6c-18.9,17.1-22.6,11.9-24.6,27.6
					l211.2-1.4L505.3,623.5z"/>
			</g>
		</g>
	</g>
	<g>
		<g>
			<g>
				<path class="st7" d="M732.2,711.9H269.7c-5.1,0-9.3-4.2-9.3-9.3v-1.8c0-5.1,4.2-9.3,9.3-9.3h462.5c5.1,0,9.3,4.2,9.3,9.3v1.8
					C741.5,707.8,737.3,711.9,732.2,711.9z"/>
			</g>
		</g>
	</g>
	<g>
		<g>
			<g>
				<path class="st7" d="M678.8,623.5l2.6-65.1c0.2-5.9-4.5-10.8-10.4-10.8l-170.9,1v75H678.8z"/>
			</g>
		</g>
	</g>
	<g>
		<g>
			<g>
				<path class="st7" d="M704.1,692c0,0,0-40.3,0-41.1l-204,0l0.9,40.7L704.1,692z"/>
			</g>
		</g>
	</g>
	<g>
		<g>
			<g>
				<path class="st7" d="M504.3,623c-0.1-0.9,1.2-4.8,14.7-4.3c10.3,0.4,152.7-1.1,160.4,4.9c7.7,5.9,22.5,11.9,24.8,28.7l-200-1.4
					L504.3,623z"/>
			</g>
		</g>
	</g>
	<g>
		<g>
			<g>
				<path class="st7" d="M733.1,578.3c0,0-23.7-10.3-52.1-5.5c-5.3,0.9-2.2,50.7-2.2,50.7l22.3,17.6L733.1,578.3"/>
			</g>
		</g>
	</g>
	<g class="st8">
		<g>
			<g>
				<path d="M733.1,578.3c0,0-23.7-10.3-52.1-5.5c-5.3,0.9-2.2,50.7-2.2,50.7l22.3,17.6L733.1,578.3"/>
			</g>
		</g>
	</g>
	<g>
		<g>
			<g>
				<path class="st7" d="M697.7,695.1H722c11.3,0,20.4-9.1,20.4-20.4v-77.6c0-11.3-9.1-20.4-20.4-20.4h-3.9
					c-11.3,0-20.4,9.1-20.4,20.4V695.1z"/>
			</g>
		</g>
	</g>
	<g>
		<g>
			<g>
				<g>
					<path class="st9" d="M733.3,691.6c0,0.2-103.8,0.4-231.8,0.6c-128,0.1-231.8,0.1-231.8-0.1c0-0.2,103.8-0.4,231.8-0.6
						C629.5,691.4,733.3,691.4,733.3,691.6z"/>
				</g>
			</g>
		</g>
	</g>
	<g>
		<g>
			<g>
				<g>
					<path class="st9" d="M505.7,548.5c0,0,0,0.1,0,0.4c0,0.3,0,0.6,0,1.1c0,1,0,2.4,0.1,4.2c0,3.7,0.1,8.9,0.1,15.3
						c0,13,0.1,30.8,0.1,50.5c0,19.7-0.1,37.6-0.1,50.5c0,6.4-0.1,11.6-0.1,15.3c0,1.8,0,3.2-0.1,4.2c0,0.4,0,0.8,0,1.1
						c0,0.2,0,0.4,0,0.4c0,0,0-0.1,0-0.4c0-0.3,0-0.6,0-1.1c0-1,0-2.4-0.1-4.2c0-3.7-0.1-8.9-0.1-15.3c0-13-0.1-30.8-0.1-50.5
						c0-19.7,0.1-37.6,0.1-50.5c0-6.4,0.1-11.6,0.1-15.3c0-1.8,0-3.2,0.1-4.2c0-0.4,0-0.8,0-1.1
						C505.6,548.7,505.6,548.5,505.7,548.5z"/>
				</g>
			</g>
		</g>
	</g>
	<g>
		<g>
			<g>
				<path class="st7" d="M321.2,623.5l-2.6-65.1c-0.2-5.9,4.5-10.8,10.4-10.8l170.9,1l0,75H321.2z"/>
			</g>
		</g>
	</g>
	<g>
		<g>
			<g>
				<g>
					<path class="st9" d="M679.8,624.7c0,0,0.7,0.5,2.1,1.5c1.4,1,3.4,2.5,6.1,4.5c2.7,2,6,4.5,9.9,7.4c1.9,1.5,3.9,3.4,5.2,6
						c1.3,2.5,1.9,5.8,0.6,8.9l0,0.1h-0.1c-66-0.2-212.5-0.5-382.5-1c-8.3,0-16.6-0.1-24.8-0.1l-0.3,0l0-0.3
						c-0.4-3.3,0.8-6.5,2.6-9.2c0.9-1.3,2-2.5,3.1-3.6c1.2-1.1,2.4-2,3.6-3c4.8-3.9,9.6-7.7,14.3-11.5l0.1-0.1l0.1,0
						c102-1.3,192-1.3,256.6-0.8c32.3,0.2,58.2,0.5,76,0.7c8.9,0.1,15.8,0.2,20.5,0.3c2.3,0,4.1,0.1,5.3,0.1
						C679.2,624.7,679.8,624.7,679.8,624.7c-1.7,0-39.1-0.3-103.6-0.7c-64.5-0.3-154.6-0.2-256.6,1l0.2-0.1
						c-4.7,3.8-9.5,7.6-14.3,11.5c-1.2,1-2.4,1.9-3.6,3c-1.1,1.1-2.2,2.2-3,3.5c-0.9,1.3-1.6,2.7-2,4.1c-0.4,1.5-0.7,3.1-0.5,4.5
						l-0.3-0.3c8.2,0,16.5,0,24.8,0.1c170,0.6,316.6,1.1,382.5,1.4l-0.1,0.1c1.2-2.9,0.8-6.2-0.5-8.7c-1.3-2.5-3.2-4.4-5.1-5.9
						c-3.9-3-7.2-5.4-9.9-7.5c-2.7-2-4.7-3.5-6-4.6C680.5,625.2,679.8,624.7,679.8,624.7z"/>
				</g>
			</g>
		</g>
	</g>
	<g>
		<g>
			<g>
				<g>
					<path class="st9" d="M296.1,651.2c0.2,0,0.3,9.1,0.3,20.3c0,11.2-0.1,20.3-0.3,20.3c-0.2,0-0.3-9.1-0.3-20.3
						C295.8,660.3,296,651.2,296.1,651.2z"/>
				</g>
			</g>
		</g>
	</g>
	<g>
		<g>
			<g>
				<g>
					<path class="st9" d="M703.6,652.3c0.2,0,0.3,8.8,0.3,19.6c0,10.8-0.1,19.6-0.3,19.6c-0.2,0-0.3-8.8-0.3-19.6
						C703.3,661.1,703.4,652.3,703.6,652.3z"/>
				</g>
			</g>
		</g>
	</g>
</g>
<g>
	<path class="st10" d="M736.7,479.7l34.9-47.8c0,0,2-19.9,2.2-31.1c0.2-10,1.2-33.6,1.4-33.3l18.7-1.1c0,0,6.9,57.4,5,67
		c-1.9,9.5-26.6,48.1-26.6,48.1L736.7,479.7z"/>
	<g>
		<path class="st10" d="M787.3,338.9c-1.3-0.2-1.7,1.4-1.7,1.4s-1.4-1.6-3-1.9c-1.5-0.3-2.3,1-2.3,1l-1.2-1.5c0,0-1.2-0.7-2.9-0.5
			c-1.6,0.2-2.8,0.8-2.8,0.8c-1.3-0.7-3.5-1.4-4.4-0.6c-0.9,0.9-0.3,3.8-0.3,3.8c-1-1.4-2.3-1.1-2.3-1.1c0.3,1.2-0.9,7.6-0.9,7.6
			l4.1,9l5.5,4.4l-0.3,11.2l19.3-0.6c0,0-0.8-18.1-0.7-20.2c0.1-2-3-10.7-3.5-11.6C789.4,339.4,788.7,339.1,787.3,338.9z"/>
		<g>
			<g>
				<g>
					<g>
						<g>
							<g>
								<g>
									<g>
										<g>
											<g>
												<g>
													<g>
														<path class="st11" d="M786.5,361.4c-7-3.2-7.5-5.2-8.3-6.6c-0.9-1.4-1.3-2.3-2.8-3.1c-1.5-0.8-7.9-4.4-9.9-5.5
															c-2.1-1.1-4.8-3.4-6-3.7c-0.1,0-0.2,0-0.2-0.1c-0.1-1,0.1-2.1,0.7-3c0.1-0.2,0.3-0.3,0.4-0.5c0.3-0.3,0.6-0.7,0.8-1.3
															c0.1-0.2,0.1-0.5,0.1-0.7c0.1-0.5,0.2-1,0.4-1.4c0.2-0.3,0.4-0.5,0.6-0.7c0.2,0.1,0.4,0.3,0.6,0.5
															c1,0.8,4.5,1.5,6.6,2.4c2.2,0.9,9,3.6,10.5,4.3c1.5,0.7,2.5,0.4,4.2,0.2c1.6-0.2,3.4-1.1,10.4,2.3
															c6.9,3.4,22.4,11,22.4,11c0.7,0.3,1.5,0.7,2.2,1.1c1.4,0.8,3,1.9,3.6,3.4c0.5,1.1,0.2,2.2-0.3,3.2
															c-0.5,1.1-1.2,2.6-1.9,4.1c-0.7,1.5-1.5,3.1-2,4.1c-0.4,0.9-1.1,1.8-2.1,2.2c-2.5,0.9-5.2-0.6-7.4-1.7
															C809.2,371.9,793.6,364.6,786.5,361.4z"/>
													</g>
												</g>
											</g>
										</g>
									</g>
								</g>
							</g>
						</g>
					</g>
				</g>
				<g>
					<g>
						<g>
							<g>
								<path class="st11" d="M760.5,342.8l3.1-6.4c0.3-0.6,0-1.4-0.6-1.7l0,0c-0.6-0.3-1.4,0-1.7,0.6l-3.1,6.4
									c-0.3,0.6,0,1.4,0.6,1.7l0,0C759.5,343.6,760.2,343.4,760.5,342.8z"/>
							</g>
						</g>
					</g>
				</g>
			</g>
		</g>
		
			<rect x="799.2" y="343.5" transform="matrix(0.4466 -0.8947 0.8947 0.4466 127.4894 914.8572)" class="st1" width="8.3" height="21.7"/>
		<path class="st10" d="M775,338.8c-0.9,2.2-1.3,4.6-1.3,7c0,0.9,0.2,2,1,2.5c0.8,0.5,2,0.1,2.6-0.7c0.2-0.2,0.3-0.4,0.4-0.6
			c-0.1,0.7-0.1,1.4,0,2c0.3,1.4,1.8,2.6,3.2,2.2c1-0.4,1.6-1.5,1.9-2.5c0.3-1.1,0.4-2.2,1.1-3.1c0.2,1-0.2,2-0.5,3
			c-0.3,1-0.4,2.1,0.2,2.9c0.9,1.1,2.8,0.8,3.8-0.3c1-1.1,3.2-7.5,3.4-9L775,338.8z"/>
		<path class="st10" d="M764.8,334.2c-0.4-0.2-1.1-0.2-1.3,0.2c-0.1,0.2-0.1,0.4-0.1,0.7c0.1,3.3,0.2,5,0.3,8.3
			c0.1,2.3,0.6,4.7,1.2,7c0.6,2.3,2.9,5.3,4.8,6.7l7-0.7c-0.3-4.1-2.6-7.9-6-10.1c-0.7-0.5-1.5-0.9-2-1.6c-0.5-0.8-0.5-1.7-0.5-2.6
			c0-1.8-0.3-2.6-0.7-4.3C767.1,336.5,766.4,334.9,764.8,334.2z"/>
		<g>
			<path class="st12" d="M786.1,339.4c0.2,0.1-0.4,1.9-1.1,4.1c-0.7,2.2-1.3,4.1-1.5,4c-0.2,0,0.1-2,0.8-4.2
				C784.9,341.1,785.9,339.3,786.1,339.4z"/>
		</g>
		<g>
			<path class="st12" d="M780.5,338.9c0.2,0.1-0.7,1.9-1.5,4.1c-0.8,2.3-1.3,4.2-1.5,4.1c-0.2,0-0.1-2.1,0.8-4.4
				C779.2,340.5,780.4,338.8,780.5,338.9z"/>
		</g>
	</g>
</g>
<g>
	<path class="st10" d="M695.4,495.9L656,444.3c0,0-2.4-13.2-3.4-24.4c-0.9-10-3.7-33.4-3.9-33.1l-17.4,1.7c0,0-4,56.4-1.4,65.8
		c2.6,9.4,30.1,46,30.1,46L695.4,495.9z"/>
	<g>
		<g>
			<g>
				<g>
					<g>
						<path class="st10" d="M648.4,384.5c0,0,5.7-6.3,6.8-8.5c1.1-2.3,3.4-10,5.7-12.6c0,0-0.8-2.2-3.5-0.8
							c-2.8,1.4-3.6,2.8-4.8,4.5c-1.8,2.5-3.5,1.9-3.9,0.4c-0.3-1.5-0.5-9.5-0.5-9.5s-0.2-11-1.3-12.1c-1.1-1.1-2.8-0.5-3.3,0.4
							c-0.3,0.7-0.4,9.6-0.4,9.6l-0.7,5.3c0,0-1.2-16.7-2.4-17.8c-1.3-1.1-2.3-0.4-2.9,0.4c-0.6,0.8,0,8.4,0,8.4l0.1,9.7l-2.5-15.9
							c0,0-0.5-1.7-1.9-1.5c-0.5,0.1-0.9,0.4-1.2,0.8c-0.5,0.7-0.7,1.6-0.7,2.5l0.8,15.8c0,0-1.3-10.6-2.1-11.1
							c-1.1-0.6-1.9-0.2-2.1,0.7c-0.3,1.8,0.5,11.4,0.5,11.4l2.5,18.2l0.2,8.5l18.1-1.7L648.4,384.5z"/>
					</g>
				</g>
			</g>
		</g>
	</g>
	<g>
		<path class="st12" d="M652.5,367.6c0.1,0-0.3,0.9-1.5,1.8c-0.6,0.4-1.5,0.7-2.4,0.9c-0.9,0.1-1.8,0.4-2.7,0.9
			c-1.8,1-2.7,2.7-3.1,4c-0.3,1.3-0.2,2.2-0.4,2.2c-0.1,0-0.4-0.9-0.2-2.3c0.2-1.4,1.2-3.4,3.2-4.6c1-0.6,2.1-0.8,3-0.9
			c0.9-0.1,1.7-0.3,2.3-0.6C652,368.3,652.4,367.5,652.5,367.6z"/>
	</g>
</g>
<g>
	<g>
		<g>
			<path class="st13" d="M684,458.8c1.5-1.1,3.5-1.2,5.1-2.3c1.5-1,2.4-2.9,2.6-4.7c0.3-1.8,0-3.7-0.3-5.5l13.6,20.5
				c-1.4,2-2.9,4-4.9,5.4c-2,1.4-4.7,1.9-7,0.9c-2.2-1-3.5-4-2.3-6.1c-2.2,1.7-5.8,1.4-7.6-0.7C681.3,464.1,681.7,460.5,684,458.8z"
				/>
		</g>
	</g>
</g>
<g>
	<g>
		<g>
			<path class="st14" d="M733.1,406.8c3.5,3,3.8,5.8,3.8,7.2c0,0.4-0.1,1-0.5,1.1c-0.2,0-0.4,0-0.6-0.1c-4-1.6-8-3.2-12-4.9"/>
		</g>
	</g>
</g>
<g>
	<g>
		<g>
			<g>
				<g>
					<g>
						<g>
							<g>
								<g>
									<g>
										<path class="st14" d="M694.6,452c-2.3-5.2-4.7-10.5-6.1-16.1c-1.4-5.6-1.9-11.5-0.4-17c0.2-0.8,2.2-6.6,3.1-6.6
											c0.6,0-0.4,5.2-0.1,5.7c3.5,4.8,5,10.8,5.1,16.8C696.4,440.8,695.7,446.2,694.6,452"/>
									</g>
								</g>
							</g>
						</g>
					</g>
				</g>
			</g>
		</g>
	</g>
</g>
<g>
	<g>
		<g>
			<g>
				<g>
					<g>
						<g>
							<g>
								<g>
									<g>
										<g>
											<path class="st10" d="M697.7,482.9l-6-52.6c-2-14.3,4.7-27.3,19-28.9l1.3-0.1c13.4-0.7,25.1,9,26.9,22.3
												c1.6,12.4,3.3,26.1,3.6,32.7c0.5,13.8-13.1,16.7-13.1,16.7c0,0,1.3,14,1.7,18l-20.8,0.8l-5,0L697.7,482.9z"/>
										</g>
									</g>
								</g>
							</g>
						</g>
					</g>
				</g>
			</g>
		</g>
	</g>
</g>
<g>
	<g>
		<g>
			<g>
				<g>
					<g>
						<g>
							<g>
								<g>
									<g>
										<g>
											<g>
												<path class="st12" d="M729.3,473.1c0,0-8.7,1-18.2-4.4c0,0,4.9,10.1,18.6,8.2L729.3,473.1z"/>
											</g>
										</g>
									</g>
								</g>
							</g>
						</g>
					</g>
				</g>
			</g>
		</g>
	</g>
</g>
<g>
	<g>
		<g>
			<g>
				<g>
					<g>
						<g>
							<g>
								<g>
									<g>
										<g>
											<g>
												<g>
													<g>
														<g>
															<g>
																<g>
																	<g>
																		<g>
																			<path class="st14" d="M735.5,436.7c-0.2,0.3-1.8-0.8-3.9-0.6c-2.1,0.1-3.6,1.3-3.9,1c-0.1-0.1,0.1-0.6,0.8-1.1
																				c0.6-0.5,1.8-1.1,3.1-1.1c1.3-0.1,2.5,0.4,3.1,0.8C735.3,436.1,735.6,436.6,735.5,436.7z"/>
																		</g>
																	</g>
																</g>
															</g>
														</g>
													</g>
												</g>
											</g>
										</g>
									</g>
								</g>
							</g>
						</g>
					</g>
				</g>
			</g>
		</g>
	</g>
</g>
<g>
	<g>
		<g>
			<g>
				<g>
					<g>
						<g>
							<g>
								<g>
									<g>
										<g>
											<g>
												<g>
													<g>
														<g>
															<g>
																<g>
																	<g>
																		<g>
																			<path class="st14" d="M716.2,437.5c-0.2,0.3-1.8-0.8-3.9-0.6c-2.1,0.1-3.6,1.3-3.9,1c-0.1-0.1,0.1-0.6,0.8-1.1
																				c0.6-0.5,1.8-1.1,3.1-1.1c1.3-0.1,2.5,0.4,3.1,0.8C716.1,436.9,716.3,437.4,716.2,437.5z"/>
																		</g>
																	</g>
																</g>
															</g>
														</g>
													</g>
												</g>
											</g>
										</g>
									</g>
								</g>
							</g>
						</g>
					</g>
				</g>
			</g>
		</g>
	</g>
</g>
<g>
	<g>
		<g>
			<g>
				<g>
					<g>
						<g>
							<g>
								<g>
									<g>
										<g>
											<g>
												<g>
													<g>
														<g>
															<g>
																<g>
																	<g>
																		<path class="st12" d="M724.9,448.4c0-0.1,1.3-0.4,3.4-0.8c0.5-0.1,1-0.2,1.1-0.6c0.1-0.4-0.1-1-0.4-1.6
																			c-0.6-1.3-1.2-2.6-1.8-4c-2.5-5.8-4.4-10.5-4.2-10.6c0.2-0.1,2.5,4.5,5,10.2c0.6,1.4,1.2,2.8,1.7,4.1
																			c0.2,0.6,0.6,1.3,0.4,2.1c-0.1,0.4-0.5,0.7-0.8,0.8c-0.3,0.1-0.6,0.1-0.9,0.2
																			C726.3,448.4,724.9,448.5,724.9,448.4z"/>
																	</g>
																</g>
															</g>
														</g>
													</g>
												</g>
											</g>
										</g>
									</g>
								</g>
							</g>
						</g>
					</g>
				</g>
			</g>
		</g>
	</g>
</g>
<g>
	<g>
		<g>
			<g>
				<g>
					<g>
						<g>
							<g>
								<g>
									<g>
										<path class="st10" d="M693.3,440.5c-0.2-0.1-11.3-2.5-6.3,8.5c3.4,7.5,7.6,5.3,7.6,5C694.6,453.7,693.3,440.5,693.3,440.5
											z"/>
									</g>
								</g>
							</g>
						</g>
					</g>
				</g>
			</g>
		</g>
	</g>
</g>
<g>
	<g>
		<g>
			<g>
				<g>
					<g>
						<g>
							<g>
								<g>
									<g>
										<path class="st13" d="M731.3,408.6c1.4-1-3.6-5.5-7.5-6.8c-5.9-2-14.7-2.8-19.8-0.9c-6.1,2.4-11,6-13.7,12
											c-2.6,6-3.2,12.8-2.4,19.3c0.2,2,0.6,4,1.9,5.6c1.5,2,3.5,2.8,4.3,5.9c0.3,1,0.5,2.1,1.2,2.8c1.9,1.7,3.8-0.2,4.6-2.1
											c1.7-3.9,1.5-8.3,1.3-12.5c-0.2-3-0.3-6.1-1.4-8.9c-0.6-1.5-1.5-2.9-2-4.5c-0.5-1.6-0.6-3.4,0.2-4.8
											c0.1-0.2,0.4-0.5,0.7-0.8c2.4-2.6,6.1-3.6,9.6-2.8c5.5,1.4,14.8,3.3,17,1.3c3.2-2.9,3.8-4.7,3.8-4.7L731.3,408.6z"/>
									</g>
								</g>
							</g>
						</g>
					</g>
				</g>
			</g>
		</g>
	</g>
</g>
<g>
	<g>
		<g>
			<g>
				<g>
					<g>
						<g>
							<g>
								<g>
									<g>
										<g>
											<g>
												<path class="st15" d="M719.4,451.3c0.3-0.1,0.5,2.1,2.5,3.5c2,1.4,4.3,0.9,4.3,1.2c0,0.1-0.5,0.5-1.4,0.6
													c-1,0.1-2.4,0-3.6-0.9c-1.2-0.8-1.8-2-2-2.9C719.1,451.9,719.3,451.3,719.4,451.3z"/>
											</g>
										</g>
									</g>
								</g>
							</g>
						</g>
					</g>
				</g>
			</g>
		</g>
	</g>
</g>
<g>
	<g>
		<g>
			<g>
				<path class="st16" d="M686.8,440.7c-0.2-0.1-0.5-0.2-0.6-0.3c-12.1-9.5-4.2-20.5-4.4-23.7c-0.2-4.4-4.9,1.6-6.1-4
					c-1.6-7.5,6.2-11.5,15.8-15.7c4-1.8,14.2-3.1,23.4-2.1c8.2,0.9,14,6.1,17.5,10.2c0,0,2,0.7,2.5,1.5c1.6,2.5,1.1,3.6,1.1,3.6
					s-18.5-7.5-32.2,5.9c-13.7,13.4-10.1,23.6-14,24.1L686.8,440.7z"/>
			</g>
		</g>
	</g>
	<g>
		<g>
			<g>
				<path class="st14" d="M695.4,403.1c0,0-0.3,0.2-0.7,0.4c-0.2,0.1-0.5,0.3-0.9,0.5c-0.3,0.2-0.7,0.4-1.1,0.7
					c-0.8,0.5-1.8,1.2-2.8,2c-1,0.8-2,1.8-3.1,2.9c-1,1.1-1.8,2.2-2.6,3.3c-0.7,1.1-1.3,2.1-1.7,3c-0.2,0.4-0.4,0.8-0.5,1.2
					c-0.2,0.4-0.3,0.7-0.4,0.9c-0.2,0.5-0.3,0.8-0.3,0.8c0,0,0.1-0.3,0.2-0.8c0.1-0.3,0.2-0.6,0.3-0.9c0.1-0.4,0.3-0.8,0.5-1.2
					c0.4-0.9,1-1.9,1.7-3c0.7-1.1,1.6-2.2,2.6-3.3c1-1.1,2.1-2.1,3.1-2.9c1-0.8,2-1.4,2.9-1.9c0.4-0.3,0.8-0.4,1.2-0.6
					c0.3-0.2,0.7-0.3,0.9-0.4C695.1,403.2,695.4,403.1,695.4,403.1z"/>
			</g>
		</g>
	</g>
	<g>
		<g>
			<g>
				<path class="st14" d="M732.9,405.3c0,0-0.1,0-0.2,0c-0.1,0-0.3-0.1-0.5-0.2c-0.4-0.1-1.1-0.3-1.9-0.6c-0.8-0.2-1.8-0.5-3-0.7
					c-1.2-0.2-2.6-0.4-4.1-0.5c-3.1-0.2-6.7,0-10.6,1.1c-2,0.5-3.9,1.3-5.9,2.2c-2,1-3.9,2.2-5.8,3.6c-1.8,1.4-3.5,3-4.9,4.7
					c-1.4,1.7-2.6,3.5-3.5,5.3c-1.9,3.6-3.1,7.1-3.9,10c-0.8,3-1.2,5.4-1.5,7.1c-0.1,0.8-0.3,1.5-0.3,1.9c0,0.2-0.1,0.4-0.1,0.5
					c0,0.1,0,0.2,0,0.2c0,0,0-0.1,0-0.2c0-0.1,0-0.3,0.1-0.5c0.1-0.4,0.1-1.1,0.3-2c0.3-1.7,0.7-4.2,1.5-7.1c0.8-3,1.9-6.5,3.9-10.1
					c1-1.8,2.1-3.6,3.5-5.3c1.4-1.7,3.1-3.3,4.9-4.8c1.9-1.4,3.8-2.7,5.8-3.6c2-1,4-1.7,6-2.2c3.9-1.1,7.7-1.3,10.7-1.1
					c1.5,0.1,2.9,0.3,4.1,0.6c1.2,0.2,2.2,0.5,3,0.7c0.8,0.3,1.5,0.5,1.9,0.6c0.2,0.1,0.4,0.1,0.5,0.2
					C732.8,405.3,732.9,405.3,732.9,405.3z"/>
			</g>
		</g>
	</g>
	<g>
		<g>
			<g>
				<path class="st14" d="M692.4,435.5c0,0.1-1.2,0.3-2.6-0.1c-1.4-0.4-2.3-1.3-2.2-1.3c0.1-0.1,1,0.7,2.3,1
					C691.2,435.5,692.4,435.4,692.4,435.5z"/>
			</g>
		</g>
	</g>
	<g>
		<g>
			<g>
				<path class="st14" d="M696.6,426.7c0,0-0.4,0-1-0.1c-0.6-0.1-1.4-0.5-2.2-1c-0.8-0.5-1.4-1.1-1.8-1.6c-0.4-0.5-0.5-0.8-0.5-0.9
					c0.1-0.1,0.9,1.3,2.4,2.3C695.1,426.4,696.6,426.6,696.6,426.7z"/>
			</g>
		</g>
	</g>
	<g>
		<g>
			<g>
				<path class="st14" d="M704.1,415.6c-0.1,0-0.7-1.2-2-2.4c-1.2-1.2-2.5-1.9-2.5-1.9c0-0.1,1.4,0.5,2.7,1.7
					C703.6,414.2,704.2,415.6,704.1,415.6z"/>
			</g>
		</g>
	</g>
	<g>
		<g>
			<g>
				<path class="st14" d="M712.3,410.5c-0.1,0-0.3-1.3-1.1-2.7c-0.8-1.4-1.7-2.3-1.6-2.4c0-0.1,1.1,0.8,1.9,2.2
					C712.2,409.2,712.3,410.5,712.3,410.5z"/>
			</g>
		</g>
	</g>
	<g>
		<g>
			<g>
				<path class="st14" d="M725,408.5c-0.1,0,0.2-1.3-0.4-2.8c-0.5-1.5-1.6-2.3-1.6-2.4c0,0,0.3,0.1,0.7,0.5c0.4,0.4,0.8,1,1.1,1.8
					c0.3,0.8,0.4,1.5,0.3,2.1C725.2,408.2,725.1,408.5,725,408.5z"/>
			</g>
		</g>
	</g>
	<g>
		<g>
			<g>
				<path class="st14" d="M733,409.6c-0.1,0,0.2-1,0-2.2c-0.1-1.2-0.6-2.1-0.5-2.2c0.1,0,0.7,0.9,0.8,2.1
					C733.4,408.7,733,409.7,733,409.6z"/>
			</g>
		</g>
	</g>
</g>
<path class="st17" d="M840.9,679.3c-8-7.9-46.2-48.7-46.2-48.7l-29.9-28.7c0,0-24,9.4-30.8,12.8l-54.6,1.5l2.4,32.5
	c0,2.4,12.5,81.1,12.5,81.1l-0.1,4.5c0,0-26.2,62.2-24.6,86.2l29.7,5.7c0,0,21.4-62.3,25.7-75.3c4.4-12.9,5.3-23.1,8.9-38.9
	c2.7-11.8,12.9-43.1,15.5-51c0.3,0.9,0.5,1.4,0.5,1.4l51.7,39.6l2.1,4.1c0,0-10.2,51.4-8.2,60.3c1.5,6.4,2.1,8.9,2.1,8.9l-2,12.9
	l27.8,0.1c0,0,15.2-62.7,18.4-77.5C845.4,696.1,849,687.2,840.9,679.3z"/>
<g>
	<path class="st18" d="M763.6,518.2l0.8-14.3l26.1-37.5l-28.2-23.2c0,0-15.4,23.6-18.3,25.3c-4,2.4-4.2,5-4.2,5l-10,2.8
		c0,0,2.4,10.7-5.7,12.2c-16.3,3.1-27.6-10.9-27.6-10.9s-3.9,1-8.2,2.1c-0.3-0.2-0.5-0.3-0.8-0.5c-3-1.5-20.1-21.5-20.1-21.5
		l-24.7,27.5l29.2,34.1l1.1,5.7c2.5,17.5,10.1,76.4,10.1,76.4l-3.9,15.9c-1.4,0.5-2,1.4-2.1,2.7c-0.2,2.8,1.9,5.2,4.6,5.7
		c9.7,1.8,37.9,6.6,57.9,4.1c24.2-3,31-22.2,31-22.2l-7.4-71.1L763.6,518.2z"/>
</g>
<path class="st19" d="M533.7,428.5c-1.2-8.3-4.5-16.9-11.3-21.7c-6.9-4.9-17.9-4.2-22.3,3l7.1,16.5c-2.5,7.7-5.4,15.3-10.2,21.8
	c-4.8,6.5-11.9,11.6-19.9,12.5c-5.7,0.6-11.3-1-17.1-1.2c-5.7-0.2-12.1,1.4-15,6.3c-2.1,3.6-1.6,8.6,1.2,11.8
	c2.1,2.3,5.3,3.5,8.4,3.3c-4.2,2-6.8,7.4-5.4,12c1.1,3.7,4.3,6.6,7.9,8.2c3.6,1.6,7.6,2,11.5,2.1c18.7,0.2,37.4-8.1,49.8-22.2
	C530.7,466.7,536.5,447,533.7,428.5z"/>
<g>
	<g>
		<path class="st20" d="M510.8,411.4c-1.3-1.4-2.5-2.8-4.2-3.7c-1.6-0.9-3.7-1.4-5.4-0.6c-0.8,0.3-1.6,1-1.7,1.9
			c-0.1,0.9,0.7,1.8,1.6,1.6l0.2,0.1c2.3,1.3,4.6,2.6,6.9,3.8c0.6,0.3,1.2,0.6,1.8,0.7c0.7,0.1,1.4-0.2,1.7-0.7
			C512.3,413.3,511.5,412.2,510.8,411.4z"/>
	</g>
</g>
<g>
	<g>
		<path class="st19" d="M515.7,416.9c-8-6.5-17.5-9.2-27.6-7.3c-5.7,1.1-7.8,2.7-11.7,4.7c-3.9,1.9-7.1,4.9-8.8,8.9
			c-2,4.7-3.5,9.8-3,14.9c0.5,5.3,1.9,10.2,3.8,14.1c2.2,4.8,7.3,11.8,11.2,15.3l8.9-0.7c7.3-1.2,14.7-2.5,21.4-5.6
			c6.7-3.1,12.8-8.3,15.3-15.3C528.6,436.3,523.7,423.4,515.7,416.9z"/>
	</g>
</g>
<g>
	<path class="st10" d="M504,419.2l-18.9-3.3l-4.5,1.5c-10.3,2.2-15,15-13.4,23.3c1.8,9.3,4.4,20.5,7.3,27
		c5.8,13.1,17.7,11.8,17.7,11.8s2.1,12.3,3,16.9l25.5-12.4l-11.2-61C509,420.5,506.6,418.8,504,419.2z"/>
</g>
<g>
	<g>
		<g>
			<g>
				<g>
					<g>
						<g>
							<g>
								<g>
									<g>
										<g>
											<g>
												<g>
													<g>
														<g>
															<g>
																<g>
																	<g>
																		<path class="st14" d="M475.8,449.9c0.2,0.9,1.2,1.5,2.2,1.3c1-0.2,1.6-1.1,1.4-2.1c-0.2-0.9-1.2-1.5-2.2-1.3
																			C476.2,448.1,475.6,449,475.8,449.9z"/>
																	</g>
																</g>
															</g>
														</g>
													</g>
												</g>
											</g>
										</g>
									</g>
								</g>
							</g>
						</g>
					</g>
				</g>
			</g>
		</g>
	</g>
</g>
<g>
	<g>
		<g>
			<g>
				<g>
					<g>
						<g>
							<g>
								<g>
									<g>
										<g>
											<g>
												<g>
													<g>
														<g>
															<g>
																<g>
																	<g>
																		<path class="st21" d="M486.7,457.1c0-0.1-1.2,0-3.2,0.3c-0.5,0.1-1,0.1-1.1-0.2c-0.2-0.3-0.1-0.9-0.1-1.5
																			c0.1-1.3,0.3-2.6,0.5-4c0.6-5.7,0.9-10.4,0.7-10.4c-0.2,0-0.9,4.6-1.5,10.4c-0.1,1.4-0.3,2.8-0.4,4.1
																			c0,0.6-0.2,1.3,0.3,2c0.2,0.3,0.6,0.5,1,0.5c0.3,0,0.6-0.1,0.8-0.1C485.5,457.5,486.7,457.2,486.7,457.1z"/>
																	</g>
																</g>
															</g>
														</g>
													</g>
												</g>
											</g>
										</g>
									</g>
								</g>
							</g>
						</g>
					</g>
				</g>
			</g>
		</g>
	</g>
</g>
<g class="st22">
	<g>
		<g>
			<g>
				<g>
					<g>
						<g>
							<g>
								<g>
									<g>
										<g>
											<g>
												<g>
													<g>
														<g>
															<g>
																<g>
																	<path class="st12" d="M492.3,479.5c0,0,9.4-1.8,17-9.7c0,0-2.4,10.8-16.4,13.1L492.3,479.5z"/>
																</g>
															</g>
														</g>
													</g>
												</g>
											</g>
										</g>
									</g>
								</g>
							</g>
						</g>
					</g>
				</g>
			</g>
		</g>
	</g>
</g>
<g>
	<g>
		<g>
			<g>
				<g>
					<g>
						<g>
							<g>
								<g>
									<g>
										<g>
											<g>
												<g>
													<g>
														<g>
															<g>
																<g>
																	<g>
																		<g>
																			<g>
																				<path class="st19" d="M470.6,441.8c0.4,0.4,1.8-0.3,3.5-0.6c1.7-0.4,3.2-0.2,3.5-0.7c0.1-0.2-0.2-0.6-0.9-1
																					c-0.7-0.3-1.8-0.5-3-0.2c-1.2,0.2-2.1,0.8-2.7,1.3C470.5,441.2,470.4,441.6,470.6,441.8z"/>
																			</g>
																		</g>
																	</g>
																</g>
															</g>
														</g>
													</g>
												</g>
											</g>
										</g>
									</g>
								</g>
							</g>
						</g>
					</g>
				</g>
			</g>
		</g>
	</g>
</g>
<g>
	<g>
		<g>
			<g>
				<g>
					<g>
						<g>
							<g>
								<g>
									<g>
										<g>
											<g>
												<g>
													<g>
														<g>
															<g>
																<g>
																	<g>
																		<path class="st13" d="M496.6,445c0.2,0.9-0.3,1.9-1.3,2.2c-1,0.3-1.9-0.3-2.2-1.2c-0.2-0.9,0.3-1.9,1.3-2.2
																			C495.4,443.5,496.4,444.1,496.6,445z"/>
																	</g>
																</g>
															</g>
														</g>
													</g>
												</g>
											</g>
										</g>
									</g>
								</g>
							</g>
						</g>
					</g>
				</g>
			</g>
		</g>
	</g>
</g>
<g>
	<g>
		<g>
			<g>
				<g>
					<g>
						<g>
							<g>
								<g>
									<g>
										<g>
											<g>
												<g>
													<g>
														<g>
															<g>
																<g>
																	<g>
																		<g>
																			<g>
																				<path class="st19" d="M494.6,436.7c-0.3,0.5-1.8,0.4-3.6,0.8c-1.8,0.3-3.2,1-3.6,0.6c-0.2-0.2-0.1-0.7,0.5-1.2
																					c0.6-0.6,1.6-1.1,2.8-1.4c1.2-0.2,2.4-0.1,3.1,0.2C494.4,436,494.7,436.4,494.6,436.7z"/>
																			</g>
																		</g>
																	</g>
																</g>
															</g>
														</g>
													</g>
												</g>
											</g>
										</g>
									</g>
								</g>
							</g>
						</g>
					</g>
				</g>
			</g>
		</g>
	</g>
</g>
<g>
	<g>
		<g>
			<g>
				<g>
					<g>
						<g>
							<g>
								<g>
									<g>
										<g>
											<g>
												<g>
													<g>
														<g>
															<g>
																<g>
																	<g>
																		<path class="st10" d="M512,446.7c-0.3-1,0.3-3.7,1.2-4.2c2.6-1.1,7.7-2.5,7.7,4.5c0,9.6-5.8,10.1-5.8,9.8
																			C515.1,456.6,512.9,450.2,512,446.7z"/>
																	</g>
																</g>
															</g>
														</g>
													</g>
												</g>
											</g>
										</g>
									</g>
								</g>
							</g>
						</g>
					</g>
				</g>
			</g>
		</g>
	</g>
</g>
<g>
	<path class="st19" d="M513.6,442.5l-1.9,3c-12.4-7.8-37.7-28.4-36.3-27.1c0,0,6.5-4.4,14.4-4.7c8-0.3,23.3,0.6,25,9.7
		C516.6,432.5,513.6,442.5,513.6,442.5z"/>
</g>
<g>
	<path class="st10" d="M441.2,556.7l22.1,5.6c0,0-2.8-18.9-2-38c0.6-16.4,11.4-21.3,11.4-21.3l8.3,77.2l-14.5,7.6L434.9,565
		L441.2,556.7z"/>
	<g>
		<path class="st10" d="M442.5,557.5c0,0-1.6-3.1-4.2-7.9c-2.5-4.8-8.5-9.5-11.9-12c-3.4-2.5-5.7-5-7.2-2.4s1.2,4.9,1.2,4.9
			l-0.5,6.6c0,0-1.1,1.7-1.3,4.3c-0.2,2.5,1.2,4.5,1.2,4.5s-0.7,2.2,0.5,4.2c1.3,2.1,6.3,3,6.3,3l8.3,2.5L442.5,557.5z"/>
		<g>
			<path class="st12" d="M429.5,547c0-0.1,0.2-0.2,0.3-0.4c0.2-0.2,0.1-0.7-0.1-1.3c-0.4-1.1-1.7-2.4-3.1-3.5
				c-0.8-0.6-1.5-1-2.3-1.4c-0.7-0.3-1.4-0.4-2.1-0.4c-1.3-0.2-1.8,0.4-1.9,0.3c0,0,0-0.2,0.4-0.5c0.3-0.2,0.9-0.4,1.5-0.4
				c0.6,0,1.5,0,2.3,0.3c0.8,0.3,1.7,0.8,2.5,1.4c0.8,0.6,1.5,1.3,2,1.9c0.6,0.7,1,1.4,1.2,2c0.1,0.4,0.1,0.6,0.1,0.9
				c0,0.3-0.1,0.6-0.3,0.7C429.7,547,429.5,547,429.5,547z"/>
		</g>
		<g>
			<path class="st12" d="M434.1,553.1c-0.2,0,0.4-1.2-0.5-2.6c-0.5-0.7-1.2-1.3-2.2-1.9c-1-0.7-2-1.4-3-2.2c-1.1-0.8-2.1-1.6-3-2.2
				c-0.9-0.6-1.9-0.9-2.7-1c-0.8-0.1-1.5-0.1-1.9,0.1c-0.4,0.1-0.6,0.3-0.7,0.3c0,0,0.1-0.3,0.5-0.6c0.5-0.3,1.2-0.4,2.1-0.3
				c0.9,0,2,0.3,3,0.9c1,0.6,2,1.4,3.1,2.2c1,0.8,2,1.5,3,2.2c0.9,0.7,1.8,1.4,2.2,2.2c0.5,0.8,0.5,1.6,0.4,2.1
				C434.4,552.8,434.2,553.1,434.1,553.1z"/>
		</g>
		<g>
			<path class="st12" d="M431.9,555.4c0-0.1,0.3,0,0.8-0.1c0.2,0,0.6-0.1,0.9-0.2c0.3-0.1,0.7-0.3,0.7-0.6c0.1-0.3,0-0.8-0.3-1.2
				c-0.3-0.4-0.7-0.7-1.2-0.9c-1.1-0.5-2.3-1.1-3.5-1.7c-2.5-1.2-4.8-2.3-6.5-3.2c-0.8-0.4-1.5-0.7-1.9-0.7c-0.5,0-0.7,0.2-0.7,0.1
				c0,0,0.1-0.4,0.7-0.4c0.6-0.1,1.4,0.2,2.2,0.6c1.7,0.7,4,1.8,6.5,3c1.3,0.6,2.5,1.2,3.6,1.8c0.5,0.3,1.1,0.7,1.4,1.2
				c0.3,0.5,0.5,1.1,0.3,1.7c-0.1,0.3-0.3,0.5-0.5,0.6c-0.2,0.1-0.4,0.2-0.6,0.2c-0.4,0.1-0.7,0.1-1,0.1
				C432.1,555.6,431.9,555.4,431.9,555.4z"/>
		</g>
		<g>
			<path class="st12" d="M424.5,558.2c-0.1,0,0.4-1,0.5-2.7l0-0.4l0.3,0.2c1,0.6,2.5,1.2,4.3,1.2c0.9,0,1.8-0.2,1.9-1
				c0.1-0.8-0.7-1.6-1.5-2.3c-1.4-1.2-3-1.9-4.5-2.3c-0.8-0.2-1.5-0.2-2.1-0.1c-0.6,0.1-1.2,0.5-1.6,0.9c-0.8,0.9-1.1,1.8-1.3,2.4
				c-0.2,0.6-0.4,1-0.4,1c0,0,0-0.4,0.1-1.1c0.2-0.7,0.4-1.7,1.2-2.7c0.4-0.5,1-1,1.8-1.1c0.8-0.2,1.6-0.1,2.4,0
				c1.6,0.3,3.4,1.1,4.9,2.4c0.4,0.4,0.8,0.8,1.2,1.2c0.3,0.5,0.6,1.1,0.5,1.7c0,0.6-0.5,1.3-1.1,1.4c-0.6,0.2-1.1,0.2-1.5,0.2
				c-1.9-0.1-3.5-0.8-4.5-1.5l0.4-0.2c-0.1,0.9-0.3,1.6-0.5,2C424.7,558,424.5,558.2,424.5,558.2z"/>
		</g>
	</g>
	<g>
		<path class="st12" d="M467.8,574.1c-0.2,0-0.5-3.1-2.1-6.5c-1.5-3.4-3.6-5.7-3.4-5.9c0.1-0.1,2.5,2,4.1,5.6
			C468,570.9,468,574.1,467.8,574.1z"/>
	</g>
</g>
<g>
	<path class="st20" d="M474,553c0-0.2-14.7-2.2-14.7-2.2s-0.7-28.9,2.2-37.2c4.2-11.8,9.8-13.5,9.8-13.5l5,10.5L474,553z"/>
	<path class="st20" d="M493.6,486.6c-2.5,1.4-23.4,14.2-23.4,14.2s-3.6,15.4-3.1,30.8c0.5,15.3,7.7,35,7.7,35l-0.9,11.5l30.9,26.5
		l33-16.4c0,0,9.2-18.9,12.8-44c3.5-25.1,1.3-25.6-0.3-35.8c-1.6-10.2-8.1-29.6-10-28.9l-20.4-0.7
		C508.4,490.6,497.5,492.5,493.6,486.6z"/>
	<g>
		<path class="st10" d="M583.7,547.6c0,0-14.8-40.3-21.6-52.2c-6.8-11.9-26.7-14.5-26.7-14.5l0.9,29.4l5.8,15.7l25.1,45.8
			c0,0,9.2,10.8,19.2,4.1c10-6.7,26.3-37,26.3-37l-7.8-11.6L583.7,547.6z"/>
		<g>
			<path class="st10" d="M602.1,531.4c0,0,1.3-4.1,3.2-10.3c2-6.2,8.1-13.2,11.6-16.9c3.5-3.7,5.7-7.2,8-4.4c2.3,2.8-0.3,6-0.3,6
				l2,7.7c0,0,1.7,1.8,2.5,4.8c0.8,3-0.4,5.7-0.4,5.7s1.4,2.4,0.3,5.2c-1.1,2.7-6.9,5-6.9,5l-9.4,4.7L602.1,531.4z"/>
			<g>
				<path class="st12" d="M615.2,516.1c0,0-0.3,0.1-0.7-0.2c-0.2-0.1-0.4-0.4-0.5-0.8c-0.1-0.3-0.1-0.7-0.1-1.1
					c0-0.8,0.4-1.8,0.9-2.7c0.5-0.9,1.2-1.8,2-2.7c0.8-0.9,1.7-1.6,2.6-2.2c0.9-0.6,1.9-0.8,2.7-0.9c0.8-0.1,1.5-0.1,1.9,0.1
					c0.4,0.2,0.6,0.4,0.6,0.4c0,0.1-0.2-0.1-0.6-0.2c-0.4-0.1-1,0-1.7,0.2c-0.7,0.2-1.6,0.4-2.4,1c-0.8,0.5-1.6,1.3-2.4,2.1
					c-1.5,1.7-2.7,3.5-3,4.9c-0.1,0.7-0.1,1.3,0.2,1.6C615,516,615.2,516,615.2,516.1z"/>
			</g>
			<g>
				<path class="st12" d="M611,524.4c0,0-0.3-0.2-0.5-0.8c-0.2-0.6-0.3-1.5,0-2.6c0.3-1.1,1.2-2.1,2.2-3.1c1-1,2-2.2,3.1-3.3
					c1.1-1.2,2.1-2.3,3.2-3.3c1.1-1,2.3-1.5,3.4-1.7c1-0.3,2-0.3,2.6-0.1c0.6,0.2,0.8,0.5,0.8,0.5c0,0.1-0.3-0.2-0.8-0.2
					c-0.5-0.1-1.4,0-2.4,0.3c-1,0.3-2.1,0.8-3.1,1.7c-1,0.9-2,2.1-3.1,3.3c-1.1,1.1-2.1,2.2-3.1,3.3c-1,1-1.8,1.9-2.2,2.8
					c-0.4,0.9-0.4,1.8-0.3,2.3C610.9,524,611.1,524.3,611,524.4z"/>
			</g>
			<g>
				<path class="st12" d="M614.2,526.6c0,0-0.3,0.3-0.9,0.4c-0.3,0.1-0.7,0.1-1.2,0.1c-0.2,0-0.5,0-0.8-0.1
					c-0.3-0.1-0.6-0.4-0.7-0.6c-0.3-0.6-0.3-1.3,0-2c0.3-0.7,0.8-1.2,1.4-1.7c1.2-0.9,2.5-1.9,3.8-2.9c2.8-2,5.3-3.7,7.1-5
					c0.9-0.6,1.8-1.1,2.4-1.2c0.7,0,1,0.3,0.9,0.3c0,0.1-0.3-0.2-0.9,0c-0.6,0.1-1.3,0.6-2.2,1.3c-1.8,1.4-4.2,3.2-7,5.2
					c-1.4,1-2.6,1.9-3.9,2.8c-0.6,0.4-1,0.9-1.3,1.4c-0.2,0.5-0.3,1.1-0.1,1.5c0.2,0.4,0.6,0.5,1,0.6c0.4,0.1,0.8,0,1.1,0
					C613.8,526.7,614.2,526.6,614.2,526.6z"/>
			</g>
			<g>
				<path class="st12" d="M623.6,528.4c0,0-0.3-0.2-0.6-0.7c-0.3-0.5-0.8-1.2-1.1-2.3l0.4,0.1c-1,1.1-2.7,2.2-5,2.7
					c-0.6,0.1-1.2,0.2-1.8,0.1c-0.7-0.1-1.4-0.7-1.5-1.4c-0.2-0.7-0.1-1.5,0.3-2.1c0.3-0.6,0.7-1.2,1.1-1.7c1.5-1.8,3.4-3.1,5.2-3.8
					c0.9-0.4,1.9-0.6,2.8-0.5c0.9,0,1.8,0.5,2.4,0.9c1.2,1,1.7,2.2,2.1,2.9c0.3,0.8,0.5,1.2,0.4,1.2c-0.1,0-0.3-0.4-0.7-1.1
					c-0.4-0.7-1-1.8-2.1-2.6c-0.6-0.4-1.3-0.7-2.1-0.7c-0.8,0-1.7,0.2-2.6,0.6c-1.8,0.7-3.5,2-4.9,3.7c-0.8,1-1.6,2.1-1.3,3.1
					c0.1,0.5,0.5,0.8,1,0.9c0.5,0.1,1,0,1.6-0.1c2.1-0.4,3.8-1.4,4.8-2.4l0.3-0.3l0.1,0.4C622.8,527.4,623.7,528.3,623.6,528.4z"/>
			</g>
		</g>
		<g>
			<path class="st12" d="M579.6,561.6c-0.2,0,0.2-3.2,1.2-7.1c1-3.8,2.3-6.8,2.5-6.7c0.2,0.1-0.8,3.1-1.8,6.9
				C580.5,558.5,579.8,561.6,579.6,561.6z"/>
		</g>
	</g>
	<path class="st20" d="M536.7,516.8c1,1.1,7.9,19,7.9,19l30.5-16.4c0,0-8.8-21.6-16.5-29.7c-7.7-8.1-15.8-10.2-19.4-10.2
		c-0.1,0-0.2,0-0.3,0c-11.7,0.4-18.3,13.6-11.7,23.2L536.7,516.8z"/>
</g>
<g>
	<path class="st7" d="M473.9,578.1c0,0-38.9,27.9-51.1,66.4c-12.2,38.4-35.9,83.6-46.3,116.7l-11.9,42.5l27.5,9
		c0,0,33.2-76.7,45.9-97.1s33.2-61.6,42.9-58.3c9.7,3.3,34.2,98.5,34.2,98.5l10.6,64.8l30.1,2.1c0,0-3.6-60.4-6.7-88
		c-2.6-23.1-5-46.7-6.9-77c-2.2-35.9-2-20.7-1.6-43.3c0.5-21.3-2.5-27.8-2.5-27.8s-31.9,6.8-43.6,1.1
		C483,582,473.9,578.1,473.9,578.1z"/>
	<g>
		<path class="st7" d="M500.6,594.6c0.2,0.1-2.8,8.1-6.6,17.9c-3.8,9.8-7.1,17.7-7.3,17.6c-0.2-0.1,2.8-8.1,6.6-17.9
			C497.2,602.4,500.4,594.6,500.6,594.6z"/>
	</g>
	<g>
		<path class="st7" d="M539.9,616.9c0,0.1-1.4-0.6-3.5-1.9c-2.1-1.3-4.8-3.4-7.4-6.1c-2.6-2.7-4.6-5.5-5.8-7.6
			c-1.3-2.1-1.8-3.5-1.8-3.6c0.1-0.1,0.9,1.3,2.2,3.3c1.4,2,3.4,4.7,5.9,7.4c2.6,2.7,5.2,4.8,7.2,6.2
			C538.6,616,539.9,616.7,539.9,616.9z"/>
	</g>
	<g>
		<path class="st7" d="M481,590.7c0.1,0.1-0.9,1.1-2.9,2.4c-1.9,1.3-4.9,2.7-8.4,3.4c-3.5,0.7-6.8,0.6-9.1,0.2
			c-2.3-0.4-3.6-1-3.6-1.1c0-0.1,1.4,0.3,3.7,0.5c2.3,0.3,5.4,0.3,8.8-0.4c3.4-0.7,6.3-2,8.3-3.2C479.8,591.6,480.9,590.6,481,590.7
			z"/>
	</g>
</g>
<path class="st23" d="M261.2,690.4c0.4,1.1-4.2,55.6-6,69.4c-1.9,13.8-3.7,30.9-3.7,36.5c0,5.6-4.1,62.8-3.4,83.8
	c-5.9,5.9-16,5-19-4c0-12-12.4-54.8-10-87.7c0.7-9.3-4.9-58.8-5-55c0,0-5-38.9-5-42.6s8.2-17.3,8.2-17.3L261.2,690.4z"/>
<path class="st23" d="M318.5,681.3c2.6-0.3,33.1,46.9,38.3,58.1c5.2,11.2,8.7,22.2,7.1,27.9c-1.7,5.8-38.3,105.2-38.9,106.7
	c-1.5,3.8-18-1.6-18-6c0,0,5.9-50.1,8.5-71.3c2.6-21.2,6-35.4,6-35.4s-2.6-7.4-10.4-15.3c-7.8-7.8-20.6-21.5-25.4-26.4
	c-4.8-4.8-17.6-23.7-18.2-24.8S318.5,681.3,318.5,681.3z"/>
<path class="st14" d="M281.9,518.6c2.3-18.1-0.3-40-9.2-64.7c-5.5-15.2-27.1-16.2-27.1-16.2c-27.9,0.1-31.5,19.9-33,37.8
	c-0.7,8.4-10,40.1-10.5,52.7c-0.6,12.6,2.3,13.6-6.3,24.9c-1.8,2.3-5,4.8-2.9,9.6c1.1,2.6,6.1,7.6,9.1,8.2
	c-2.5,3.9-1.3,9.2,2.1,12.5c3.4,3.3,8.5,4.7,13.5,4.6c4.9-0.1,9.8-1.5,14.4-3.2c15.9-5.8,30.4-15.3,40.4-28
	C282.2,544.1,290.6,535.5,281.9,518.6z"/>
<path class="st23" d="M247,446l-2.5-3.7l-17.3,10.5c-2.7,0.6-4.4,3.1-4.1,5.8l8.3,35.7c0.6,4.1,5,32.6,5,32.6l5,5.6
	c7.2,6.9,19.3,4.2,22.6-5.2c0.2-0.7,0.4-1.2,0.4-1.7c0-0.6,0.1-0.9,0.1-1.4c-0.2-5,0.2-5.1,0.2-5.1c-0.5-5.4-1.9-11.7-1.9-11.7
	c0,0,11.2-3.2,11.8-18.3c0.3-7.5-1.6-17.4-3.6-27.2C268.2,448.6,257.9,444.2,247,446z"/>
<path class="st14" d="M250.8,475.5c0.1,1-0.6,2-1.6,2.1c-1,0.2-2-0.5-2.2-1.5c-0.1-1,0.6-2,1.6-2.1
	C249.7,473.8,250.6,474.5,250.8,475.5z"/>
<path class="st14" d="M269.3,472.9c0.1,1-0.6,2-1.6,2.1c-1,0.2-2-0.5-2.2-1.5c-0.1-1,0.6-2,1.6-2.1
	C268.1,471.2,269.1,471.9,269.3,472.9z"/>
<path class="st24" d="M258.7,483.5c0-0.1,1.2-0.5,3.3-1c0.5-0.1,1-0.3,1-0.6c0.1-0.4-0.2-0.9-0.5-1.5c-0.6-1.2-1.3-2.5-2-3.8
	c-2.8-5.4-4.9-9.9-4.6-10c0.2-0.1,2.7,4.2,5.4,9.6c0.7,1.3,1.3,2.6,1.9,3.8c0.3,0.6,0.7,1.2,0.5,2c-0.1,0.4-0.4,0.7-0.8,0.9
	c-0.3,0.1-0.6,0.2-0.9,0.2C260,483.4,258.7,483.6,258.7,483.5z"/>
<path class="st24" d="M262.8,507.5c0,0-9.9,1.8-20.5-3.1c0,0,6.5,9.7,21.2,6.6L262.8,507.5z"/>
<path class="st25" d="M258.7,490.3c0-0.1,0-0.3-0.1-0.4c0,0,0,0,0-0.1L258.7,490.3z"/>
<path class="st14" d="M227.7,484.4c0,0,10.9,1.5,12.6-25.1c0.6-9.1,15.7-15.3,15.7-15.3l-11.6-2.7c0,0-19.6,9.1-19.9,9.4
	c-0.3,0.3-3.4,11.4-3.4,11.4L227.7,484.4z"/>
<path class="st23" d="M232.1,482.7c-0.1-1.1-1.7-3.6-2.8-3.6c-3-0.1-7.9,0.9-5.3,7.9c3,8,8.9,7.2,8.9,6.9
	C232.9,493.6,232.5,486.5,232.1,482.7z"/>
<path class="st14" d="M235.8,506.1c-1.9-3.2-3.9-6.4-4.8-10l-12,36.8c1.3-2.6,4.5-3.8,7.5-4.3c3-0.6,6.2-0.8,8.7-2.4
	c3.4-2.1,4.8-6.1,4.5-9.8C239.5,512.7,237.7,509.3,235.8,506.1z"/>
<g>
	<path class="st25" d="M229.9,439.5c0.2,0.1,0.2,0.8,0.6,1.4c0.4,0.6,1.1,0.9,1.1,1.1c0,0.2-1,0.3-1.7-0.7
		C229.2,440.3,229.7,439.4,229.9,439.5z"/>
</g>
<g>
	<path class="st23" d="M301.8,537.6c0,0,15.9-30.7,17.1-76.6l4.9-63.8l-15.4-0.9c0,0-8.6,46.6-10.2,60.3
		c-1.5,13.8-4.9,29.7-7.6,39.4c-2.5,8.8-13.4,19.9-13.1,20.8C277.6,517.8,301.8,537.6,301.8,537.6z"/>
	<g>
		<path class="st23" d="M308.6,391.8c-0.7-0.7-10.7-13.7-11.1-15.9c-0.4-2.2,2.5-8.5,3-9.9c0.5-1.4,4.7-4.5,6.3-4.5
			c1.6,0,5.8,3.4,5.8,3.4s3.3-0.2,4.4,2.8c1.1,3,0,0.6,0,0.6s3.1-1.4,3.6,3.3c0.4,3.5,0,4.7-0.8,5c-0.3,0.1-0.6,0.1-0.9,0
			c-1.3-0.2-1.2,0-1.2,0l0.2,1.6c0,0,5.5,5.7,5.6,12.4c0.1,6.7,0,8,0,8l-15.5-1.2L308.6,391.8z"/>
		<g>
			<path class="st23" d="M318.5,389.1c0.5-5-1.9-10.1-5.9-13c-1.2-0.9-2.6-1.6-3.7-2.7c-2.3-2.3-2.6-6-1.8-9.2
				c0.2-0.9,0.6-1.7,0.6-2.6c0-0.9-0.4-1.9-1.2-2.3c-0.8-0.4-1.7-0.1-2.4,0.4c-0.7,0.5-1.1,1.3-1.5,2c-1.1,1.8-2.1,3.6-2.4,5.6
				c-0.2,1.2,0,2.5,0.1,3.7c0.3,2.8,0.7,5.6,1,8.4"/>
			<g>
				<path class="st25" d="M301.4,379.4c-0.1,0-0.2-0.8-0.4-2.2c-0.2-1.6-0.5-3.7-0.9-6.2c-0.2-1.3-0.4-2.8-0.1-4.4
					c0.3-1.6,1.1-3.1,2-4.6c0.5-0.7,0.9-1.6,1.6-2.3c0.7-0.7,1.8-1.2,2.9-0.9c1.2,0.4,1.6,1.6,1.6,2.7c0,1.1-0.4,2-0.6,3
					c-0.5,1.9-0.5,3.8,0,5.6c0.5,1.8,1.6,3.2,3,4.1c1.4,1,2.9,1.8,4,3c1.1,1.1,2,2.3,2.6,3.5c1.2,2.4,1.6,4.6,1.7,6
					c0,0.7,0,1.3,0,1.7c0,0.4-0.1,0.6-0.1,0.6c-0.1,0,0-0.8-0.1-2.3c-0.2-1.4-0.6-3.5-1.8-5.8c-0.6-1.1-1.5-2.3-2.5-3.3
					c-1.1-1.1-2.5-1.9-3.9-2.9c-1.5-1-2.8-2.6-3.3-4.5c-0.6-1.9-0.5-4,0-6c0.3-1,0.6-1.9,0.6-2.8c0-0.9-0.4-1.7-1.1-2
					c-0.7-0.2-1.6,0.1-2.1,0.7c-0.6,0.6-1,1.4-1.5,2.1c-0.9,1.5-1.7,2.9-2,4.4c-0.3,1.5-0.1,2.9,0,4.2c0.2,2.5,0.5,4.6,0.6,6.2
					C301.4,378.6,301.4,379.4,301.4,379.4z"/>
			</g>
		</g>
		<g>
			<path class="st25" d="M312.9,371.5c0.1,0-0.1,1,0.6,2.3c0.3,0.6,0.9,1.3,1.7,1.8c0.4,0.2,0.9,0.4,1.3,0.5c0.5,0,1,0,1.3-0.4
				c0.6-0.6,0.1-1.9,0-2.9c-0.1-0.9-0.3-1.8-0.4-2.7c-0.2-1.5-0.3-2.5-0.2-2.5c0.1,0,0.4,0.9,0.7,2.4c0.2,0.9,0.4,1.7,0.6,2.6
				c0.1,0.5,0.2,1,0.3,1.6c0.1,0.6,0.1,1.3-0.4,1.9c-0.5,0.6-1.3,0.7-1.9,0.6c-0.6-0.1-1.2-0.3-1.6-0.6c-0.9-0.6-1.5-1.4-1.8-2.2
				C312.4,372.5,312.9,371.4,312.9,371.5z"/>
		</g>
		<g>
			<path class="st25" d="M307.7,364.8c0.1,0,0.2,1.3,0.3,3.3c0.1,1,0.1,2.2,0.6,3.4c0.4,1.2,1.4,2.4,2.8,2.6c0.3,0.1,0.7,0,0.9-0.1
				c0.2-0.1,0.3-0.3,0.4-0.7c0.1-0.7,0.2-1.4,0.2-2c0.1-1.3,0-2.5-0.1-3.5c-0.2-2-0.6-3.2-0.4-3.2c0.1,0,0.6,1.1,1,3.2
				c0.2,1,0.3,2.2,0.3,3.6c0,0.7-0.1,1.4-0.2,2.1c-0.1,0.4-0.2,0.9-0.7,1.2c-0.5,0.3-0.9,0.3-1.4,0.2c-1.8-0.3-2.9-1.8-3.3-3.1
				c-0.4-1.4-0.4-2.6-0.4-3.6C307.5,366.1,307.6,364.8,307.7,364.8z"/>
		</g>
	</g>
</g>
<g>
	<path class="st23" d="M159.4,498.5c2.5-12.7,37.9-49.8,37.9-49.8l16.4,7.1l-30.5,43.5l38.2,28.8c0,0-0.2-0.1-0.3-0.2
		c0.1,0,0.2,0.1,0.3,0.2l12.2,18.3l-7.8,24.2c0,0-7.4-4-11.4-10.7c-4-6.7-6.6-12.4-16.2-18C187.4,535.5,157.4,508.5,159.4,498.5z"/>
	<path class="st23" d="M197.2,448.7c0,0,5.8-5.3,5.9-5.6c0.1-0.3,2.3-4.1,8-9.4c5.7-5.4,11.2-4.6,11.3-1.8c0,0,3.2-0.9,3.5,2.3
		c0,0,4.4-0.3,4.5,2.8c0,0,2.4-2.1,4.3,0c1.9,2.1,1.2,4.5,1.2,4.5s0.8,6.2-0.3,7c-1.1,0.8-5.4,5.3-8.5,5.4c-3.2,0.1-13,1.5-13,1.5
		l-3.4,4.9L197.2,448.7z"/>
	<g>
		<path class="st25" d="M210.2,448.2c0,0,0.3-0.3,0.9-0.8c0.6-0.5,1.5-1.2,2.8-1.9c1.2-0.7,2.8-1.4,4.7-1.7c1.9-0.2,4.1,0,6,1.2
			c0.7,0.4,1.2,1,1.7,1.5l-0.4-0.1c1.8-0.4,3.5-1.1,4.3-2.3c0.4-0.6,0.5-1.3,0.6-2c0.1-0.7,0.5-1.5,1.1-1.8c0.6-0.4,1.2-0.4,1.7-0.3
			c0.5,0.1,0.9,0.4,1.1,0.7c0.5,0.6,0.4,1,0.4,1c-0.1,0-0.1-0.4-0.6-0.8c-0.4-0.4-1.4-0.8-2.3-0.1c-0.4,0.3-0.7,0.8-0.8,1.5
			c-0.1,0.6-0.1,1.5-0.6,2.3c-0.9,1.5-2.9,2.2-4.7,2.7l-0.2,0.1l-0.2-0.2c-0.4-0.5-0.9-1-1.5-1.4c-1.7-1.1-3.8-1.3-5.5-1.1
			c-1.8,0.2-3.3,0.9-4.5,1.5C211.7,447.3,210.3,448.3,210.2,448.2z"/>
	</g>
	<g>
		<path class="st25" d="M226.9,434.5c0.1,0.1-0.8,1-2.2,2.6c-0.7,0.8-1.5,1.7-2.3,2.8c-0.4,0.5-0.8,1.1-1,1.7
			c-0.2,0.6,0,1.2,0.6,1.6c1.2,0.6,2.8,0.1,3.9-0.5c1.1-0.7,1.9-1.6,2.6-2.4c1.2-1.6,1.8-2.8,2-2.7c0.1,0-0.4,1.2-1.5,3
			c-0.6,0.9-1.4,1.9-2.6,2.7c-0.6,0.4-1.3,0.7-2.1,0.9c-0.8,0.2-1.7,0.2-2.5-0.3c-0.4-0.2-0.8-0.6-0.9-1.1c-0.2-0.5-0.1-0.9,0-1.3
			c0.2-0.8,0.7-1.4,1.1-2c0.9-1.1,1.7-2,2.5-2.7C225.8,435.3,226.8,434.5,226.9,434.5z"/>
	</g>
	<g>
		<path class="st25" d="M222.7,432.2c0.1,0.1-0.4,0.7-1.3,1.7c-0.5,0.6-1,1.1-1.6,1.6c-0.6,0.6-1.3,1.2-1.7,2
			c-0.4,0.8-0.5,1.7-0.1,2.3c0.4,0.6,1.1,0.7,1.7,0.7c1.2-0.2,1.9-0.6,2-0.5c0,0-0.5,0.7-1.9,1c-0.7,0.1-1.7,0.1-2.3-0.8
			c-0.6-0.9-0.5-2.1,0-3c0.5-0.9,1.3-1.6,1.9-2.2c0.6-0.5,1.1-1,1.7-1.5C222,432.6,222.6,432.1,222.7,432.2z"/>
	</g>
	<g>
		<path class="st25" d="M217.6,431.6c0.1,0,0.1,0.7-0.7,1.5c-0.4,0.4-0.9,0.7-1.3,1.1c-0.5,0.4-0.9,0.9-1,1.5
			c-0.1,0.6,0.2,1.2,0.6,1.5c0.4,0.4,0.9,0.4,1.3,0.4c0.9-0.1,1.2-0.7,1.3-0.6c0.1,0-0.1,0.8-1.2,1.1c-0.5,0.2-1.3,0.1-1.9-0.4
			c-0.6-0.5-1-1.3-0.9-2.2c0.2-0.9,0.8-1.5,1.3-1.9c0.5-0.4,1-0.7,1.4-1C217.3,432.1,217.5,431.6,217.6,431.6z"/>
	</g>
</g>
<g>
	<path class="st17" d="M226.5,520.9l13.1-1.1c15.1,4.7,17.9,6.2,25-2c0,0,12.1,0.5,12.7-0.9c0.6-1.4,24.1,19.3,24.4,20.8
		c0.3,1.5,3.7,19.9,2.4,36.4c-1.2,16.5-2.4,41.9-2.4,41.9s-4.9,11-32.1,7.3c-27.2-3.7-39.7-12.8-39.7-12.8s0.3-16.8-0.3-18
		c-0.6-1.2-5.5-20.5-5-19.8l0.7-33L226.5,520.9z"/>
	<polygon class="st17" points="274.8,518.7 288.5,494.6 313.8,513.4 302.4,541.6 	"/>
	<path class="st17" d="M226.5,520.9c0,0-1.3-2.5-2.8-2.2c-1.4,0.3-3.1,2.2-3.1,2.2l-13.3-7c0,0-14.3,29.6-13.9,29.7
		c0.5,0.2,10.2,5.5,17.7,13.3c4.7,5,13.7,15.7,13.6,16.7c-0.1,1.3,9.5-13.4,9.5-13.4L226.5,520.9z"/>
</g>
<path class="st26" d="M230,610c0,0-36,63-38,99s-23,45-28,51s15,24,23,26s40-3,52,3s31,13,47,8s31-21,47-25s37-1,38-8s-67-93-69-148
	c0,0-22,8-38,5S230,610,230,610z"/>
<path class="st23" d="M229,873c0,0-1,11-1,17s0,4,8,9s13,9,17,7s4-8,1-13s-7-2-6-18"/>
<path class="st23" d="M307,868c0,0-4,4-4,7s18,13,20,14s12,2,11,0s-9-15-9-15L307,868z"/>
<path class="st27" d="M228,886c0,0,13,18,25,18c0,0,3,1,2.3-3.7c-1.1-7.2-6.1-13-6.1-13S284,921,283,925s-24,1-44-19
	C224.9,891.9,228,886,228,886z"/>
<path class="st27" d="M307,868c0,0-3,11,16,21c0,0,10,3,11,0l-4.5-7.3c0,0,26.5,21.3,22.5,25.3s-27-8-40-16c-3.1-1.9-10.5-9.8-11-12
	C300,875,307,868,307,868z"/>
<path class="st28" d="M218,787.3c0,0,12-108.3,15-110.3s10.5,113.9,10.5,113.9S228.9,783.6,218,787.3z"/>
<path class="st28" d="M168.4,772.2c0,0,16.6-27.2,18.6-24.2s-9.1,32.4-9.1,32.4L168.4,772.2z"/>
<path class="st28" d="M320.9,775.7c0,0-29.9-85.7-24.9-83.7s44,78,44,78L320.9,775.7z"/>
<path class="st29" d="M687.9,616c0,0,56.3,3.1,58.1,5.3S693,621.3,687.9,616z"/>
<path class="st29" d="M753,474l11,30l2.5-6.6C766.5,497.4,758,475,753,474z"/>
<path class="st30" d="M750,661l-1.1-24.8L802,702C802,702,754,666,750,661z"/>
<path class="st31" d="M470.1,552.2c0,0-5.1-13.2,3.9-30.2s0.8-13.2,0.4-11.1c-0.4,2.1-13.6,28.1-10,40.6L470.1,552.2z"/>
<path class="st31" d="M538.5,513.3l8.3,20.9l4.3,8.3l-2.8,15c0,0-5.3-10.4-6.3-15.4S538.5,513.3,538.5,513.3z"/>
<path class="st1" d="M254,489c0,0,5,3,11-1c0,0,2,7-5,7S254,489,254,489z"/>
<path class="st12" d="M486,463c0,0,9-3,10-4s0.5,6.8-2.3,7.4S489,466,486,463z"/>
<path class="st14" d="M251,465c0,0,1,0,1,1s-7.7,1.1-12.4,4.1C239.6,470.1,243,466,251,465z"/>
<path class="st14" d="M261.5,462.8c0,0-0.8,0.2-0.6,1.1c0.1,1,6.1-0.1,10,2.1C270.9,466.1,267.8,462.6,261.5,462.8z"/>
<path class="st13" d="M717,425c0,0,3,2,2,4s-10-1-14,3s-2-2,0-3S717,425,717,425z"/>
<path class="st13" d="M728.2,423.9c0,0-1.7,2.2-0.7,4c1,1.8,6.6-2.1,10,1.2c3.4,3.3,1-2.1-0.5-2.8
	C735.4,425.6,728.2,423.9,728.2,423.9z"/>
<path class="st20" d="M388,810c0,0-3,9-5,14s-21,8-28,12s-15,2.6-15,2.6s1-12.6,16-21.6s9-13,9-13L388,810z"/>
<path class="st20" d="M532.8,821.3c0,0-6.8,5.7,2.2,18.7s21,22,23,21s5-8,1-18s-7.9-20.9-7.9-20.9L532.8,821.3z"/>
<path class="st7" d="M800.9,788.3c0,0-4.9,21.7-4.9,24.7s47,8,55,7s18-5,18-7s-4-8-10-10s-21,0-25-2s-12.2-6.4-13.6-13.2
	L800.9,788.3z"/>
<path class="st7" d="M674.4,821.3c0,0-2.4,9.7-3.4,11.7s-6,14-4,17s3,7,3,7s51,6,54,6s9-3,9-5s-2-11-12-13s-15,0-19-2s-7-5-7-7
	s2-11,2-11L674.4,821.3z"/>
</svg>
