<?xml version="1.0" encoding="utf-8"?>
<!-- Generator: Adobe Illustrator 24.2.3, SVG Export Plug-In . SVG Version: 6.00 Build 0)  -->
<svg version="1.1" id="Layer_1" xmlns="http://www.w3.org/2000/svg" xmlns:xlink="http://www.w3.org/1999/xlink" x="0px" y="0px"
	 viewBox="0 0 1000 1000" style="enable-background:new 0 0 1000 1000;" xml:space="preserve">
<style type="text/css">
	.st0{fill:#ECECEC;}
	.st1{fill:#E1E1E1;}
	.st2{fill:#1A2E35;}
	.st3{fill:#AAAAAA;}
	.st4{fill:#F5F5F5;}
	.st5{fill:#FFFFFF;}
	.st6{fill:#AFAFAF;}
	.st7{fill:#CCCCCC;}
	.st8{fill:#377F7D;}
	.st9{fill:#1C5956;}
	.st10{fill:#00ADAD;}
	.st11{fill:#FAFAFA;}
	.st12{fill:#FFCBAE;}
	.st13{fill:#EAA58B;}
	.st14{fill:#4F3D29;}
	.st15{fill:#BF6E32;}
	.st16{fill:#375A64;}
	.st17{fill:#048E8A;}
	.st18{fill:#FFBB15;}
	.st19{opacity:0.3;}
	.st20{fill:#FF8900;}
	.st21{opacity:0.3;fill:#1A2E35;}
	.st22{opacity:0.2;}
	.st23{opacity:0.1;}
	.st24{opacity:0.4;}
	.st25{opacity:0.5;}
	.st26{fill:#A3A3A3;}
	.st27{fill:#525252;}
	.st28{fill:#3F3F3F;}
</style>
<circle class="st0" cx="500" cy="554" r="430.5"/>
<g>
	<path class="st0" d="M758.3,376.7c1.3-9.7-12.4-17.7-22.7-18.5c-4.9-0.4-10,0.4-14.7-1.3c-10.1-3.5-14.1-16.5-23.9-20.7
		c-7.4-3.1-15.8-0.3-23,3.2c-7.1,3.6-14.2,8.1-22.1,8.6c-6.9,0.4-14.5-2.1-20.5,1.3c-4.5,2.5-6.9,7.7-11,10.8
		c-4.1,3-9.4,3.6-14.4,3.9c-5.1,0.3-10.3,0.3-14.9,2.4c-4.6,2.1-8.4,7-7.5,11.9L758.3,376.7z"/>
</g>
<g>
	<path class="st1" d="M500,154.4c0.2,0,0.4,158.7,0.4,354.4c0,195.8-0.2,354.5-0.4,354.5c-0.2,0-0.4-158.7-0.4-354.5
		C499.6,313.1,499.8,154.4,500,154.4z"/>
</g>
<g>
	<g>
		<g>
			<path class="st2" d="M162.9,697.4c0,0-0.4-0.2-1.2-0.3c-0.8-0.2-1.9-0.3-3.4-0.1c-2.8,0.2-6.8,1.6-10,4.7
				c-1.6,1.5-2.9,3.2-3.7,4.9c-0.9,1.7-1.2,3.4-1.2,4.9c-0.1,1.4,0.2,2.6,0.4,3.4c0.2,0.8,0.4,1.2,0.4,1.2c0.2,0-0.5-1.7-0.3-4.5
				c0.1-1.4,0.5-3,1.3-4.6c0.8-1.6,2.1-3.2,3.6-4.7c3-3,6.8-4.4,9.5-4.7C161.2,697.1,162.9,697.6,162.9,697.4z"/>
		</g>
	</g>
	<g>
		<g>
			<path class="st3" d="M156.8,728h129.6c8.4,0,15.3-6.8,15.3-15.3l0,0c0-8.4-6.8-15.3-15.3-15.3H156.8c-8.4,0-15.3,6.8-15.3,15.3
				l0,0C141.6,721.1,148.4,728,156.8,728z"/>
		</g>
		<g>
			<path class="st3" d="M162,714.7l-16.6,0c-2.1,0-3.8-1.7-3.8-3.8V528.7c0-2.1,1.7-3.8,3.8-3.8l0,0c11.3,0,20.4,9.2,20.4,20.4
				v165.5C165.8,713,164.1,714.7,162,714.7z"/>
		</g>
		<g>
			<g>
				<path class="st4" d="M267.3,664c-0.3,0-9.5,9.1-11.7,15.2c-2.2,6.1-5,21.1-6.3,26.8c-1.8,7.8-4.7,15.3-15.4,15.8l-40.4,0.2
					c-2.5,0-4.8-1.2-6.2-3.3L152,664H163l30.9,46h35c2.4,0,4.8-1.1,6.3-3c0.5-0.6,0.9-1.3,1.1-2.1c0.8-3.2,3.6-19.5,6.9-26.6
					c3.4-7.1,8.1-14.2,8.1-14.2H267.3z"/>
			</g>
			<g>
				<path class="st3" d="M230.5,715.9c0,1.4,1.1,2.5,2.5,2.5c1.4,0,2.5-1.1,2.5-2.5s-1.1-2.5-2.5-2.5
					C231.6,713.4,230.5,714.5,230.5,715.9z"/>
			</g>
			<g>
				<path class="st3" d="M191.4,715.9c0,1.4,1.1,2.5,2.5,2.5c1.4,0,2.5-1.1,2.5-2.5s-1.1-2.5-2.5-2.5
					C192.5,713.4,191.4,714.5,191.4,715.9z"/>
			</g>
			<g>
				<path class="st4" d="M145,664h131.1c2.1,0,3.8-1.7,3.8-3.8l0,0c0-2.1-1.7-3.8-3.8-3.8H145c-2.1,0-3.8,1.7-3.8,3.8l0,0
					C141.3,662.3,143,664,145,664z"/>
			</g>
			<g>
				<g>
					<path class="st3" d="M222.3,656.5c0,0,0.1,0,0.3,0c0.3,0,0.6,0,1,0c0.9,0,2.3,0,3.9,0.1c3.5,0,8.5,0.1,14.8,0.2
						c6.3,0.1,13.9,0.1,22.5,0.1c2.1,0,4.4,0,6.6-0.1c2.2,0,4.7-0.5,6.6,0.7c0.9,0.6,1.5,1.6,1.2,2.7c-0.2,1.1-1.1,1.9-2.2,2.4
						c-2.2,0.9-4.8,1.1-7.3,1l0,0h0c-8.4,0-17.4,0-26.8,0c-27,0-51.4,0.1-69.1,0.1c-8.8,0-16,0.1-20.9,0.1c-2.4,0-4.4,0.1-5.7,0.1
						c-0.6,0-1.1,0-1.5,0c-0.3,0-0.5,0-0.5,0s0.2,0,0.5,0c0.4,0,0.9,0,1.5,0c1.3,0,3.3,0,5.7,0.1c5,0,12.1,0.1,20.9,0.1
						c17.7,0,42.1,0.1,69.1,0.1c9.3,0,18.4,0,26.8,0l0,0c2.6,0.1,5.2,0,7.6-1c1.2-0.5,2.3-1.5,2.5-2.9c0-0.3,0.1-0.6,0.1-1
						c0-0.3-0.1-0.7-0.3-1c-0.3-0.6-0.8-1.1-1.3-1.4c-1.1-0.7-2.4-0.8-3.5-0.9c-1.2,0-2.3,0.1-3.4,0.1c-2.3,0-4.5,0.1-6.6,0.1
						c-8.6,0-16.1,0-22.5,0.1c-6.3,0-11.3,0-14.8,0c-1.7,0-3,0-3.9,0c-0.4,0-0.8,0-1,0C222.4,656.4,222.3,656.4,222.3,656.5z"/>
				</g>
			</g>
		</g>
		<g>
			<g>
				
					<rect x="215.7" y="728" transform="matrix(-1 -4.488422e-11 4.488422e-11 -1 440.1645 1566.6705)" class="st3" width="8.8" height="110.8"/>
			</g>
			<g>
				<polygon class="st3" points="217.5,821 126.1,838.9 126.1,848.5 217.5,834.7 				"/>
			</g>
			<g>
				<path class="st3" d="M126.1,855.4c0,4.5,3.6,8.1,8.1,8.1c4.5,0,8.1-3.6,8.1-8.1s-3.6-8.1-8.1-8.1
					C129.8,847.3,126.1,850.9,126.1,855.4z"/>
			</g>
			<g>
				<polygon class="st3" points="219.8,821 293.7,839 293.7,848.5 219.8,833.9 				"/>
			</g>
			<g>
				<circle class="st3" cx="285.6" cy="855.4" r="8.1"/>
			</g>
			<g>
				<path class="st3" d="M228.2,855.4c0,4.5-3.6,8.1-8.1,8.1c-4.5,0-8.1-3.6-8.1-8.1s3.6-8.1,8.1-8.1
					C224.5,847.3,228.2,850.9,228.2,855.4z"/>
			</g>
			<g>
				<polygon class="st3" points="210.9,847.3 229.2,847.3 229,778 210.7,778 				"/>
			</g>
			<g>
				<g>
					<path class="st0" d="M211.3,778.1c0,0.2,3.9,0.4,8.7,0.4c4.8,0,8.7-0.2,8.7-0.4c0-0.2-3.9-0.4-8.7-0.4
						C215.2,777.8,211.3,777.9,211.3,778.1z"/>
				</g>
			</g>
			<g>
				<g>
					<path class="st0" d="M211.9,835.5c0,0.2,3.9,0.4,8.7,0.4c4.8,0,8.7-0.2,8.7-0.4c0-0.2-3.9-0.4-8.7-0.4
						C215.8,835.2,211.9,835.3,211.9,835.5z"/>
				</g>
			</g>
		</g>
	</g>
</g>
<g>
	<g>
		<g>
			<g>
				<g>
					<g>
						<rect x="311.3" y="251.1" class="st5" width="139" height="124.4"/>
					</g>
				</g>
			</g>
		</g>
		<g>
			<g>
				<g>
					<g>
						<g>
							<path class="st1" d="M450.4,375.5c0,0,0-0.8,0-2.3c0-1.5,0-3.8,0-6.7c0-5.8,0-14.4-0.1-25.3c0-21.7-0.1-52.8-0.2-90.2
								l0.3,0.3c-40,0-87.8,0-139,0.1h0l0.4-0.4c0,45.3,0,87.8,0,124.4l-0.3-0.3c41.5,0.1,76.2,0.1,100.6,0.2
								c12.2,0,21.8,0.1,28.4,0.1c3.3,0,5.8,0,7.5,0c0.8,0,1.5,0,1.9,0C450.1,375.4,450.4,375.5,450.4,375.5s-0.2,0-0.6,0
								c-0.4,0-1.1,0-1.9,0c-1.7,0-4.2,0-7.4,0c-6.6,0-16.1,0-28.3,0.1c-24.4,0-59.2,0.1-100.8,0.2l-0.3,0v-0.3
								c0-36.6,0-79.1,0-124.4v-0.4h0.4h0c51.2,0,99,0,139,0.1h0.3l0,0.3c-0.1,37.5-0.1,68.6-0.2,90.4c0,10.8-0.1,19.4-0.1,25.2
								c0,2.9,0,5.1,0,6.6C450.4,374.7,450.4,375.5,450.4,375.5z"/>
						</g>
					</g>
				</g>
			</g>
		</g>
	</g>
	<g>
		<g>
			<g>
				<g>
					<g>
						<path class="st1" d="M364.6,273.2c0,0.2-7.3,0.4-16.3,0.4c-9,0-16.3-0.2-16.3-0.4c0-0.2,7.3-0.4,16.3-0.4
							C357.3,272.8,364.6,273,364.6,273.2z"/>
					</g>
				</g>
			</g>
		</g>
	</g>
	<g>
		<g>
			<g>
				<g>
					<g>
						<path class="st1" d="M423.6,282.5c0,0.2-20.1,0.4-44.9,0.4c-24.8,0-44.9-0.2-44.9-0.4c0-0.2,20.1-0.4,44.9-0.4
							C403.5,282.1,423.6,282.3,423.6,282.5z"/>
					</g>
				</g>
			</g>
		</g>
	</g>
	<g>
		<g>
			<g>
				<g>
					<rect x="332.2" y="298.3" class="st1" width="5.9" height="5.9"/>
				</g>
			</g>
		</g>
	</g>
	<g>
		<g>
			<g>
				<g>
					<rect x="346.6" y="298.3" class="st1" width="5.9" height="5.9"/>
				</g>
			</g>
		</g>
	</g>
	<g>
		<g>
			<g>
				<g>
					<rect x="361.3" y="298.1" class="st1" width="5.9" height="5.9"/>
				</g>
			</g>
		</g>
	</g>
	<g>
		<g>
			<g>
				<g>
					<rect x="375.5" y="298.3" class="st1" width="5.9" height="5.9"/>
				</g>
			</g>
		</g>
	</g>
	<g>
		<g>
			<g>
				<g>
					<rect x="389.9" y="298.3" class="st1" width="5.9" height="5.9"/>
				</g>
			</g>
		</g>
	</g>
	<g>
		<g>
			<g>
				<g>
					<rect x="404.3" y="298.3" class="st1" width="5.9" height="5.9"/>
				</g>
			</g>
		</g>
	</g>
	<g>
		<g>
			<g>
				<g>
					<rect x="418.7" y="298.3" class="st0" width="5.9" height="5.9"/>
				</g>
			</g>
		</g>
	</g>
	<g>
		<g>
			<g>
				<g>
					<rect x="332.2" y="310.8" class="st0" width="5.9" height="5.9"/>
				</g>
			</g>
		</g>
	</g>
	<g>
		<g>
			<g>
				<g>
					<rect x="346.6" y="310.8" class="st1" width="5.9" height="5.9"/>
				</g>
			</g>
		</g>
	</g>
	<g>
		<g>
			<g>
				<g>
					<rect x="361" y="310.8" class="st0" width="5.9" height="5.9"/>
				</g>
			</g>
		</g>
	</g>
	<g>
		<g>
			<g>
				<g>
					<rect x="375.5" y="310.8" class="st1" width="5.9" height="5.9"/>
				</g>
			</g>
		</g>
	</g>
	<g>
		<g>
			<g>
				<g>
					<rect x="389.9" y="310.8" class="st1" width="5.9" height="5.9"/>
				</g>
			</g>
		</g>
	</g>
	<g>
		<g>
			<g>
				<g>
					<rect x="404.6" y="310.5" class="st1" width="5.9" height="5.9"/>
				</g>
			</g>
		</g>
	</g>
	<g>
		<g>
			<g>
				<g>
					<rect x="418.7" y="310.8" class="st1" width="5.9" height="5.9"/>
				</g>
			</g>
		</g>
	</g>
	<g>
		<g>
			<g>
				<g>
					<rect x="332.2" y="323.2" class="st1" width="5.9" height="5.9"/>
				</g>
			</g>
		</g>
	</g>
	<g>
		<g>
			<g>
				<g>
					<rect x="346.9" y="323" class="st1" width="5.9" height="5.9"/>
				</g>
			</g>
		</g>
	</g>
	<g>
		<g>
			<g>
				<g>
					<rect x="361" y="323.2" class="st1" width="5.9" height="5.9"/>
				</g>
			</g>
		</g>
	</g>
	<g>
		<g>
			<g>
				<g>
					<rect x="375.5" y="323.2" class="st0" width="5.9" height="5.9"/>
				</g>
			</g>
		</g>
	</g>
	<g>
		<g>
			<g>
				<g>
					<rect x="389.9" y="323.2" class="st1" width="5.9" height="5.9"/>
				</g>
			</g>
		</g>
	</g>
	<g>
		<g>
			<g>
				<g>
					<rect x="404.3" y="323.2" class="st1" width="5.9" height="5.9"/>
				</g>
			</g>
		</g>
	</g>
	<g>
		<g>
			<g>
				<g>
					<rect x="418.7" y="323.2" class="st1" width="5.9" height="5.9"/>
				</g>
			</g>
		</g>
	</g>
	<g>
		<g>
			<g>
				<g>
					<rect x="332.2" y="335.7" class="st1" width="5.9" height="5.9"/>
				</g>
			</g>
		</g>
	</g>
	<g>
		<g>
			<g>
				<g>
					<rect x="346.6" y="335.7" class="st1" width="5.9" height="5.9"/>
				</g>
			</g>
		</g>
	</g>
	<g>
		<g>
			<g>
				<g>
					<rect x="361" y="335.7" class="st1" width="5.9" height="5.9"/>
				</g>
			</g>
		</g>
	</g>
	<g>
		<g>
			<g>
				<g>
					<rect x="375.7" y="335.4" class="st1" width="5.9" height="5.9"/>
				</g>
			</g>
		</g>
	</g>
	<g>
		<g>
			<g>
				<g>
					<rect x="389.9" y="335.7" class="st1" width="5.9" height="5.9"/>
				</g>
			</g>
		</g>
	</g>
	<g>
		<g>
			<g>
				<g>
					<rect x="404.3" y="335.7" class="st0" width="5.9" height="5.9"/>
				</g>
			</g>
		</g>
	</g>
	<g>
		<g>
			<g>
				<g>
					<rect x="418.7" y="335.7" class="st1" width="5.9" height="5.9"/>
				</g>
			</g>
		</g>
	</g>
	<g>
		<g>
			<g>
				<g>
					<rect x="332.2" y="348.1" class="st1" width="5.9" height="5.9"/>
				</g>
			</g>
		</g>
	</g>
	<g>
		<g>
			<g>
				<g>
					<rect x="346.6" y="348.1" class="st0" width="5.9" height="5.9"/>
				</g>
			</g>
		</g>
	</g>
	<g>
		<g>
			<g>
				<g>
					<rect x="361" y="348.1" class="st1" width="5.9" height="5.9"/>
				</g>
			</g>
		</g>
	</g>
	<g>
		<g>
			<g>
				<g>
					<rect x="375.5" y="348.1" class="st1" width="5.9" height="5.9"/>
				</g>
			</g>
		</g>
	</g>
	<g>
		<g>
			<g>
				<g>
					<rect x="389.9" y="348.1" class="st1" width="5.9" height="5.9"/>
				</g>
			</g>
		</g>
	</g>
	<g>
		<g>
			<g>
				<g>
					<rect x="404.6" y="347.9" class="st1" width="5.9" height="5.9"/>
				</g>
			</g>
		</g>
	</g>
	<g>
		<g>
			<g>
				<g>
					<rect x="418.7" y="348.1" class="st1" width="5.9" height="5.9"/>
				</g>
			</g>
		</g>
	</g>
</g>
<g>
	<g>
		<polygon class="st4" points="316.4,431.9 240.8,433.3 240.8,413.4 316.4,411.9 		"/>
	</g>
	<g>
		<g>
			<path class="st1" d="M284.4,452.9c0,0,0-0.1,0-0.4c0-0.3,0-0.6,0-1c0-0.9,0-2.3-0.1-3.9c0-3.5-0.1-8.4-0.1-14.7l0.2,0.2
				c-17.3,0-44.7,0.1-75.5,0.2c0.2-0.2-0.4,0.4,0.4-0.4v0v0v0v0v0.1v0.2v0.3l0,0.6v1.3c0,0.9,0,1.7,0,2.5c0,1.7,0,3.4,0,5
				c0,3.3,0,6.6,0,9.8l-0.4-0.4c21.5,0.1,40.3,0.1,53.8,0.2c6.7,0,12.1,0.1,15.9,0.1c1.8,0,3.3,0,4.3,0c0.5,0,0.8,0,1.1,0
				C284.3,452.9,284.4,452.9,284.4,452.9c0,0-0.1,0-0.3,0c-0.3,0-0.6,0-1.1,0c-1,0-2.4,0-4.2,0c-3.7,0-9.1,0.1-15.8,0.1
				c-13.6,0-32.5,0.1-54.1,0.2l-0.4,0l0-0.4c0-3.2,0-6.5,0-9.8c0-1.7,0-3.3,0-5c0-0.8,0-1.7,0-2.5l0-1.3v-0.6v-0.3v-0.2V433v0v0v0v0
				c0.8-0.8,0.2-0.2,0.4-0.4c30.9,0.1,58.3,0.1,75.5,0.2l0.2,0l0,0.2c-0.1,6.3-0.1,11.3-0.1,14.8c0,1.7,0,3-0.1,3.9c0,0.4,0,0.7,0,1
				C284.4,452.8,284.4,453,284.4,452.9z"/>
		</g>
	</g>
</g>
<g>
	<path class="st6" d="M798.6,865.3c0,0.2-133.7,0.4-298.5,0.4c-164.9,0-298.6-0.2-298.6-0.4c0-0.2,133.7-0.4,298.6-0.4
		C664.9,864.9,798.6,865.1,798.6,865.3z"/>
</g>
<g>
	<g>
		<path class="st7" d="M800.5,315.5c0,0,37.2,208,23.5,517.5c-0.2,5.4-21.5,28-26,31l-15,1c0,0,33.6-397.2,5.1-548.1L800.5,315.5z"
			/>
		<g>
			<path class="st5" d="M802,628.9c-0.1,0.2,4.5,1.4,10.2,1.1c5.7-0.3,10.1-1.9,10-2.1c-0.1-0.3-4.5,0.8-10,1.1
				C806.6,629.3,802.1,628.6,802,628.9z"/>
		</g>
		<g>
			<path class="st5" d="M806.2,589.6c0,0.2,3.8,1,8.5,1c4.8,0,8.6-0.7,8.5-1c0-0.3-3.8,0-8.5,0C810.1,589.6,806.2,589.3,806.2,589.6
				z"/>
		</g>
		<g>
			<path class="st5" d="M803,543.1c-0.1,0.2,3.4,1.3,7.8,1.3c4.4,0.1,7.9-0.8,7.8-1c0-0.3-3.5,0.1-7.8,0
				C806.5,543.4,803.1,542.8,803,543.1z"/>
		</g>
		<g>
			<path class="st5" d="M806.9,500.8c0,0.2,3.3,0.8,7.3,0.5c4.1-0.3,7.2-1.4,7.2-1.6c-0.1-0.3-3.3,0.4-7.2,0.7
				C810.1,500.6,806.9,500.5,806.9,500.8z"/>
		</g>
		<g>
			<path class="st5" d="M804.6,456.2c0,0.3,2.2,0.6,5,0.2c2.7-0.4,4.8-1.4,4.7-1.6c-0.1-0.3-2.2,0.3-4.8,0.7
				C806.8,455.8,804.6,455.9,804.6,456.2z"/>
		</g>
		<g>
			<path class="st5" d="M802.5,406.5c0,0.3,2.1,0.6,4.8,0.4c2.7-0.2,4.8-0.8,4.7-1c0-0.3-2.2-0.1-4.8,0.1
				C804.7,406.2,802.5,406.3,802.5,406.5z"/>
		</g>
		<g>
			<path class="st5" d="M794.4,357c0,0.2,2.1,0.2,4.5-0.3c2.5-0.6,4.3-1.5,4.2-1.7c-0.1-0.3-2.1,0.2-4.4,0.8
				C796.3,356.3,794.4,356.7,794.4,357z"/>
		</g>
		<g>
			<path class="st5" d="M806.6,672.5c0,0.3,3.3,0.5,7.5,0.5c4.1,0,7.5-0.2,7.5-0.5c0-0.3-3.3-0.5-7.5-0.5
				C809.9,672,806.6,672.2,806.6,672.5z"/>
		</g>
		<g>
			<path class="st5" d="M795.8,708.6c0,0.3,3.3,0.5,7.5,0.5c4.1,0,7.5-0.2,7.5-0.5c0-0.3-3.3-0.5-7.5-0.5
				C799.2,708.1,795.8,708.3,795.8,708.6z"/>
		</g>
	</g>
	<path class="st8" d="M682.7,162.8c0.5,0.1,1.1,0.3,1.7,0.6c12.5,4.7,49,27.3,49,27.3l4.6-5.3l1,17.7l19.8,27.2l6.7-20.7
		c2.8,3.8,1.8,34.1,1.8,34.1l6.9,25.6l11.8-27.2c5.9,15.6-5.7,46.7-5.7,46.7l12.2,29.7c8.9-16.1,19.8-68.1-10.6-113.7
		C751.5,159.3,682.7,162.8,682.7,162.8z"/>
	<g>
		<path class="st9" d="M685.4,164.1c0,0,0.2,0,0.6,0.1c0.4,0,1,0.1,1.6,0.1c1.4,0.1,3.6,0.1,6.3,0.5c5.5,0.5,13.4,1.7,22.8,4.5
			c9.4,2.8,20.4,7.3,31.3,14.4c5.4,3.6,10.8,7.8,15.9,12.7c5,5,9.7,10.6,13.9,16.8c8,12.7,12.9,26.4,15.1,39.2
			c1.2,6.4,1.9,12.5,2.2,18.3c0.4,5.8,0.3,11.2,0.2,16.1c-0.4,9.8-1.2,17.8-1.8,23.3c-0.3,2.7-0.6,4.9-0.8,6.3
			c-0.1,0.7-0.1,1.2-0.2,1.6c0,0.4,0,0.6,0,0.6c0,0,0.1-0.2,0.1-0.5c0.1-0.4,0.2-1,0.3-1.6c0.2-1.4,0.6-3.5,0.9-6.3
			c0.8-5.5,1.7-13.4,2.2-23.3c0.2-4.9,0.3-10.4-0.1-16.2c-0.3-5.8-0.9-12-2.1-18.4c-2.2-12.9-7.1-26.7-15.2-39.5
			c-4.2-6.3-9-12-14-17c-5.2-4.9-10.6-9.2-16.1-12.8c-11-7.1-22.1-11.6-31.5-14.3c-9.5-2.7-17.5-3.8-23-4.2
			c-2.8-0.3-4.9-0.2-6.4-0.3c-0.7,0-1.2,0-1.7,0C685.6,164.1,685.4,164.1,685.4,164.1z"/>
	</g>
	<path class="st8" d="M800,318.9l1.3-1.8c0,0-33.9-64.4-96.5-69.6c-62.6-5.2-96.9,27.8-104.7,34.6c-7.7,6.8-28,31.4-28,31.4
		l41.6-10.7c0,0,28-32.2,43.1-34.2c0,0-38.3,36.6-44.2,62c0,0,28.4-11.5,33.9-11.5c0,0,14.4-24,32.4-30.3l-16.2,24.3l37.6-10.3
		l13.3-12.6l2.2,10.2C715.9,300.5,749.6,292.3,800,318.9z"/>
	<path class="st8" d="M800,318.7c-0.4-0.1-1-0.2-1.6-0.2c-11.6-1.3-49.1,2.2-49.1,2.2l-1.5-6.4l-7.8,14.5l-26.2,14.5l2.9-20.3
		c-3.7,2-14.9,28-14.9,28l-15.5,18.7l1.5-28c-10.7,10.6-14,41.8-14,41.8l-21.8,23.2c-0.6-17.4,11.9-69.2,53.7-94.7
		C747.6,286.3,800,318.7,800,318.7z"/>
	<path class="st8" d="M800,318.5c6.1-11.9,30.5-36.6,30.5-36.6l-7-6.1l15.8,0.9l28.6-17.1l-13.1-9.5c4.1-2.4,28.3,3.1,28.3,3.1
		l23.6-6.3l-17.3-9.8c16.1-4.2,37.3,5.8,37.3,5.8l34.1-7.5c-15.1-10.6-68.7-37-117.3-11.6c-48.6,25.3-49.6,94-49.6,94"/>
	<path class="st8" d="M796.8,317.2c0.4-0.2,2.6,1.5,3.2,1.3c11.3-4.1,40.9,1.6,40.9,1.6l0-7l11.2,13.1l29.7,8.9l-7.8-20.3
		c4.2,1.2,21.5,25.5,21.5,25.5l22.1,20.5l-8.2-28.5c5.5,6.8,21.8,35.1,21.8,35.1l27.3,18.9c-3.5-18.1-24.1-79.5-72-96.1
		C838.8,273.5,796.8,317.2,796.8,317.2z"/>
	<g>
		<path class="st9" d="M665.6,263.5c0,0,0.5-0.1,1.5-0.4c1-0.3,2.4-0.7,4.3-1c1.9-0.3,4.2-0.5,7-0.5c2.7-0.1,5.8,0.1,9.3,0.2
			c13.7,0.6,32.7,3.8,52.1,12c9.7,4,18.4,9,26,14.1c0.9,0.6,1.9,1.2,2.8,1.9c0.9,0.6,1.8,1.3,2.6,1.9c1.7,1.3,3.4,2.5,5,3.8
			c3.1,2.6,6.1,4.9,8.5,7.4c1.3,1.2,2.5,2.3,3.6,3.4c1.1,1.1,2.1,2.2,3,3.2c1.9,2,3.5,3.7,4.7,5.2c1.2,1.4,2.2,2.5,2.9,3.4
			c0.7,0.8,1,1.2,1.1,1.1c0,0-0.3-0.4-0.9-1.2c-0.7-0.9-1.6-2-2.8-3.5c-1.2-1.5-2.8-3.3-4.6-5.3c-0.9-1-1.9-2.1-3-3.2
			c-1.1-1.1-2.3-2.2-3.6-3.4c-2.4-2.5-5.4-4.8-8.5-7.5c-1.6-1.3-3.3-2.5-5-3.8c-0.9-0.6-1.7-1.3-2.6-2c-0.9-0.6-1.9-1.2-2.8-1.9
			c-7.6-5.1-16.3-10.1-26.1-14.2c-19.5-8.2-38.6-11.4-52.4-11.8c-3.5,0-6.6-0.2-9.3-0.1c-2.7,0.1-5.1,0.4-7,0.7
			c-1.9,0.3-3.4,0.8-4.3,1.1c-0.5,0.2-0.8,0.3-1.1,0.4C665.7,263.5,665.6,263.5,665.6,263.5z"/>
	</g>
	<g>
		<path class="st9" d="M797.6,305.9c0,0,0.2-0.4,0.5-1.1c0.3-0.8,0.7-1.9,1.2-3.2c0.2-0.7,0.5-1.5,0.8-2.3c0.3-0.8,0.7-1.8,1.1-2.7
			c0.8-2,1.6-4.2,2.8-6.6c0.6-1.2,1.2-2.5,1.8-3.8c0.6-1.3,1.4-2.6,2.1-4c1.4-2.8,3.2-5.6,5.1-8.6c3.8-5.9,8.5-12.1,13.9-18.1
			c5.5-6,11.3-11.1,16.8-15.5c2.8-2.1,5.5-4.2,8.1-5.8c1.3-0.9,2.5-1.7,3.8-2.5c1.2-0.7,2.5-1.4,3.6-2.1c2.3-1.4,4.4-2.4,6.3-3.4
			c0.9-0.5,1.8-1,2.6-1.3c0.8-0.4,1.6-0.7,2.3-1c1.3-0.6,2.3-1.1,3.1-1.4c0.7-0.3,1.1-0.5,1.1-0.6c0,0-0.4,0.1-1.1,0.4
			c-0.8,0.3-1.9,0.8-3.2,1.3c-0.7,0.3-1.5,0.6-2.3,0.9c-0.8,0.4-1.7,0.8-2.7,1.3c-1.9,0.9-4.1,1.9-6.4,3.3c-1.2,0.7-2.4,1.4-3.7,2.1
			c-1.3,0.7-2.5,1.6-3.8,2.4c-2.7,1.6-5.4,3.7-8.2,5.8c-5.6,4.4-11.4,9.6-16.9,15.6c-5.5,6.1-10.1,12.3-14,18.3
			c-1.8,3-3.6,5.9-5,8.7c-0.7,1.4-1.5,2.7-2.1,4c-0.6,1.3-1.2,2.6-1.7,3.8c-1.2,2.4-1.9,4.7-2.7,6.7c-0.4,1-0.7,1.9-1,2.8
			c-0.3,0.9-0.5,1.7-0.7,2.4c-0.4,1.4-0.7,2.4-1,3.3C797.7,305.5,797.6,305.9,797.6,305.9z"/>
	</g>
	<g>
		<path class="st9" d="M831.2,232.8c0,0-0.9,0.7-2.4,2.1c-0.7,0.7-1.6,1.6-2.6,2.6c-1,1.1-2.1,2.2-3.3,3.7c-2.4,2.8-5,6.2-7.7,10.2
			c-2.6,4.1-5.3,8.7-7.6,13.7c-2.3,5.1-4.1,10.1-5.5,14.7c-1.3,4.6-2.3,8.9-2.8,12.5c-0.3,1.8-0.5,3.4-0.7,4.9
			c-0.2,1.4-0.3,2.7-0.3,3.7c-0.1,2-0.1,3.2-0.1,3.2c0.1,0,0.2-1.1,0.5-3.1c0.1-1,0.2-2.2,0.5-3.7c0.2-1.4,0.4-3.1,0.8-4.8
			c0.6-3.6,1.6-7.8,3-12.4c1.4-4.6,3.2-9.5,5.5-14.6c2.3-5,4.9-9.6,7.5-13.6c2.6-4,5.2-7.5,7.5-10.3c1.1-1.4,2.2-2.6,3.2-3.7
			c0.9-1.1,1.8-2,2.5-2.7C830.5,233.7,831.2,232.9,831.2,232.8z"/>
	</g>
	<g>
		<path class="st9" d="M917.6,326.5c0,0-0.2-0.4-0.8-1c-0.6-0.6-1.3-1.6-2.4-2.7c-2.2-2.3-5.5-5.5-10-8.9c-4.5-3.4-10.3-7-17.2-9.9
			c-6.9-3-14.9-5.2-23.6-6.2c-8.6-0.9-17-0.4-24.3,1.1c-7.4,1.4-13.8,3.7-19,6c-5.2,2.4-9.1,4.8-11.7,6.6c-1.3,0.9-2.3,1.7-2.9,2.1
			c-0.7,0.5-1,0.8-1,0.8c0,0,0.4-0.2,1.1-0.7c0.7-0.4,1.7-1.2,3-2c2.6-1.7,6.6-4,11.8-6.3c5.1-2.3,11.5-4.4,18.8-5.8
			c7.3-1.4,15.5-1.9,24.1-1c8.5,1,16.5,3.2,23.3,6.1c6.9,2.9,12.6,6.3,17.2,9.7c4.5,3.3,7.9,6.4,10.2,8.6c1.2,1.1,1.9,2,2.5,2.6
			C917.3,326.2,917.6,326.5,917.6,326.5z"/>
	</g>
</g>
<g>
	<g>
		
			<ellipse transform="matrix(0.7071 -0.7071 0.7071 0.7071 -125.3824 218.8554)" class="st10" cx="201.5" cy="260.8" rx="58.4" ry="58.4"/>
	</g>
	<g>
		<g>
			<g>
				<g>
					<g>
						<g>
							<g>
								<g>
									
										<ellipse transform="matrix(0.2732 -0.962 0.962 0.2732 -104.2872 382.9306)" class="st11" cx="201.3" cy="260.5" rx="55.2" ry="55.2"/>
								</g>
							</g>
						</g>
					</g>
				</g>
			</g>
			<g>
				<g>
					<g>
						<g>
							<g>
								<g>
									<g>
										<g>
											<path class="st2" d="M201.1,214.4c0.2,0,0.4,2.1,0.4,4.6c0,2.6-0.2,4.6-0.4,4.6c-0.2,0-0.4-2.1-0.4-4.6
												C200.8,216.4,200.9,214.4,201.1,214.4z"/>
										</g>
									</g>
								</g>
							</g>
						</g>
					</g>
				</g>
			</g>
			<g>
				<g>
					<g>
						<g>
							<g>
								<g>
									<g>
										<g>
											<path class="st2" d="M226.3,221.8c0.1,0.1-1.2,1.7-3,3.5c-1.8,1.8-3.3,3.1-3.5,3c-0.1-0.1,1.2-1.7,3-3.5
												C224.6,223,226.1,221.7,226.3,221.8z"/>
										</g>
									</g>
								</g>
							</g>
						</g>
					</g>
				</g>
			</g>
			<g>
				<g>
					<g>
						<g>
							<g>
								<g>
									<g>
										<g>
											<path class="st2" d="M241,237.9c0.1,0.2-1.7,1.2-3.8,2.5c-2.1,1.3-3.9,2.4-4,2.2c-0.1-0.2,1.5-1.5,3.6-2.8
												C239,238.5,240.9,237.7,241,237.9z"/>
										</g>
									</g>
								</g>
							</g>
						</g>
					</g>
				</g>
			</g>
			<g>
				<g>
					<g>
						<g>
							<g>
								<g>
									<g>
										<g>
											<path class="st2" d="M249.6,261.7c0,0.2-2.8,0.4-6.3,0.4c-3.5,0-6.3-0.2-6.3-0.4c0-0.2,2.8-0.4,6.3-0.4
												C246.8,261.3,249.6,261.5,249.6,261.7z"/>
										</g>
									</g>
								</g>
							</g>
						</g>
					</g>
				</g>
			</g>
			<g>
				<g>
					<g>
						<g>
							<g>
								<g>
									<g>
										<g>
											<path class="st2" d="M162,260.9c0,0.2-2.7,0.4-6,0.4c-3.3,0-6-0.2-6-0.4c0-0.2,2.7-0.4,6-0.4
												C159.3,260.5,162,260.7,162,260.9z"/>
										</g>
									</g>
								</g>
							</g>
						</g>
					</g>
				</g>
			</g>
			<g>
				<g>
					<g>
						<g>
							<g>
								<g>
									<g>
										<g>
											<path class="st2" d="M168.2,278.6c0.1,0.1-1.9,2-4.5,4.1c-2.6,2.1-4.8,3.7-5,3.5c-0.1-0.2,1.9-2,4.5-4.1
												C165.8,280,168,278.4,168.2,278.6z"/>
										</g>
									</g>
								</g>
							</g>
						</g>
					</g>
				</g>
			</g>
			<g>
				<g>
					<g>
						<g>
							<g>
								<g>
									<g>
										<g>
											<path class="st2" d="M183.4,292.3c0.2,0.1-1.3,2.4-3.1,5.3c-1.7,2.9-3.1,5.3-3.3,5.2c-0.2-0.1,0.9-2.6,2.6-5.6
												C181.5,294.3,183.3,292.2,183.4,292.3z"/>
										</g>
									</g>
								</g>
							</g>
						</g>
					</g>
				</g>
			</g>
			<g>
				<g>
					<g>
						<g>
							<g>
								<g>
									<g>
										<g>
											<path class="st2" d="M201.1,310c-0.2,0-0.4-2.8-0.4-6.3c0-3.5,0.2-6.3,0.4-6.3c0.2,0,0.4,2.8,0.4,6.3
												C201.5,307.2,201.3,310,201.1,310z"/>
										</g>
									</g>
								</g>
							</g>
						</g>
					</g>
				</g>
			</g>
			<g>
				<g>
					<g>
						<g>
							<g>
								<g>
									<g>
										<g>
											<path class="st2" d="M228.4,301.6c-0.1,0.2-2.6-1.3-5.2-3.6c-2.6-2.3-4.4-4.6-4.2-4.7c0.2-0.1,2.1,1.9,4.7,4.1
												C226.2,299.7,228.5,301.4,228.4,301.6z"/>
										</g>
									</g>
								</g>
							</g>
						</g>
					</g>
				</g>
			</g>
			<g>
				<g>
					<g>
						<g>
							<g>
								<g>
									<g>
										<g>
											<path class="st2" d="M241.2,287.8c-0.1,0.1-2-1.5-4.2-3.7c-2.2-2.2-3.8-4-3.7-4.2c0.1-0.1,2,1.5,4.2,3.7
												C239.6,285.8,241.3,287.7,241.2,287.8z"/>
										</g>
									</g>
								</g>
							</g>
						</g>
					</g>
				</g>
			</g>
			<g>
				<g>
					<g>
						<g>
							<g>
								<g>
									<g>
										<g>
											<path class="st2" d="M167.6,243.9c-0.1,0.1-1.8-1.3-3.7-3.2c-1.9-1.9-3.3-3.6-3.2-3.7c0.1-0.1,1.8,1.3,3.7,3.2
												C166.3,242.1,167.7,243.7,167.6,243.9z"/>
										</g>
									</g>
								</g>
							</g>
						</g>
					</g>
				</g>
			</g>
			<g>
				<g>
					<g>
						<g>
							<g>
								<g>
									<g>
										<g>
											<path class="st2" d="M183.3,227.2c-0.1,0.1-1.8-1.3-3.6-3.1c-1.9-1.9-3.3-3.5-3.1-3.6c0.1-0.1,1.8,1.3,3.6,3.1
												C182.1,225.5,183.5,227.1,183.3,227.2z"/>
										</g>
									</g>
								</g>
							</g>
						</g>
					</g>
				</g>
			</g>
		</g>
		<g>
			<g>
				<path class="st2" d="M201.3,231.4c0.1,0,0.1,0.7,0.1,2c0,1.4,0.1,3.2,0.1,5.4c0.1,4.5,0.1,10.8,0.1,17.8c0,1.3,0,2.6,0,3.9
					l0,0.6l-0.5-0.3c-5.4-2.7-10.1-5.1-13.5-6.9c-1.6-0.8-2.9-1.6-3.9-2.1c-0.9-0.5-1.4-0.8-1.4-0.9c0,0,0.6,0.2,1.5,0.6
					c1.1,0.5,2.4,1.1,4,1.9c3.4,1.7,8.2,4,13.6,6.7l-0.5,0.3c0-1.3,0-2.6,0-3.9c0-6.9,0-13.2,0.1-17.8c0-2.2,0.1-4,0.1-5.4
					C201.2,232.1,201.2,231.4,201.3,231.4z"/>
			</g>
		</g>
	</g>
</g>
<g>
	<path class="st12" d="M607.4,382.6l36.4,39.5c0,0-7.7,19.1-14.7,22.2c-7,3.1-31.3-50.5-31.3-50.5L607.4,382.6z"/>
	<g>
		<g>
			<path class="st12" d="M568.5,361.6c0,0,14.4-2.1,15.5-1.3c1.1,0.8,3.3,1.3,3.3,1.3s14.4-0.9,15.8,0.5c1.3,1.5,0.8,1.5,1.1,3.5
				c0.3,2,3.2,17,3.2,17l-9.6,11.2c0,0-12.4-7.1-15.4-11.4c-2.9-4.3-11.8-12.8-11.8-12.8s0-3.7,4-2.3c4,1.5,6.4,3.3,6.4,3.3
				l-0.4-5.9l-10.1-0.4C569.4,364.2,568.5,362.8,568.5,361.6L568.5,361.6z"/>
		</g>
		<path class="st13" d="M599,367c0,0-4,2-6,0v2c0,0,4,4,3,5s-2.3,3.5-3.2,2.2c0,0-0.6,2.8-2.7,1.8s-2.1-1-2.1-1s1,2-1,2
			s-3.4-1.1-5.2-3.6c0,0,6.2,8.6,8.2,6.6s7-3,8-5s0-5-1-6s0-1,1-2S599,367,599,367z"/>
		<path class="st13" d="M588.7,366.1c0,0,0.3,8.9,5.3,10.9C594,377,588,376,588.7,366.1z"/>
		<path class="st13" d="M585,367l3,10C588,377,585,373,585,367z"/>
		<path class="st13" d="M581,365c0,0-1.8-0.4,3-2c3-1,4-1,4-1l-4-2c0,0-1,1-2,2S579,365,581,365z"/>
	</g>
</g>
<g>
	<g>
		<g>
			<g>
				<g>
					<g>
						<g>
							<g>
								<g>
									<g>
										<g>
											<g>
												<g>
													<g>
														<g>
															<g>
																<g>
																	<g>
																		<g>
																			<g>
																				<g>
																					<path class="st12" d="M510.4,351.8l4.3,62.8c0.5,10.7,1.3,26.6,18.3,25l0,0c14.6-2.5,17.7-16.6,17.2-26.6
																						c-0.2-4.8-0.4-8.7-0.4-9.2c0,0,16-2.3,16.4-18.2c0.2-7.7-0.7-23.6-1.7-38c-1-15.5-13.8-27.5-29.3-27.7l-1.5,0
																						C516.9,320.6,509.1,335.2,510.4,351.8z"/>
																				</g>
																			</g>
																		</g>
																	</g>
																</g>
															</g>
														</g>
													</g>
												</g>
											</g>
										</g>
									</g>
								</g>
							</g>
						</g>
					</g>
					<g>
						<g>
							<g>
								<g>
									<g>
										<g>
											<g>
												<g>
													<g>
														<g>
															<g>
																<g>
																	<g>
																		<g>
																			<g>
																				<g>
																					<path class="st13" d="M549.7,403.8c0,0-18.7,2.2-29.7-14.8c0,0,6,26,30,24L549.7,403.8z"/>
																				</g>
																			</g>
																		</g>
																	</g>
																</g>
															</g>
														</g>
													</g>
												</g>
											</g>
										</g>
									</g>
								</g>
							</g>
						</g>
					</g>
				</g>
			</g>
		</g>
		<g>
			<g>
				<g>
					<g>
						<g>
							<g>
								<g>
									<g>
										<g>
											<g>
												<g>
													<g>
														<g>
															<g>
																<g>
																	<g>
																		<g>
																			<g>
																				<path class="st2" d="M535.7,361.3c0,1.1-0.9,2.1-2.1,2.1c-1.2,0-2.2-0.8-2.2-2c0-1.1,0.9-2.1,2.1-2.2
																					C534.6,359.3,535.6,360.2,535.7,361.3z"/>
																			</g>
																		</g>
																	</g>
																</g>
															</g>
														</g>
													</g>
												</g>
											</g>
										</g>
									</g>
								</g>
							</g>
						</g>
					</g>
				</g>
			</g>
			<g>
				<g>
					<g>
						<g>
							<g>
								<g>
									<g>
										<g>
											<g>
												<g>
													<g>
														<g>
															<g>
																<g>
																	<g>
																		<g>
																			<g>
																				<path class="st13" d="M545.8,373.8c0-0.1,1.5-0.4,4-0.7c0.6-0.1,1.2-0.2,1.3-0.6c0.2-0.5-0.1-1.1-0.4-1.9
																					c-0.6-1.5-1.2-3.1-1.8-4.8c-2.5-6.8-4.3-12.4-4-12.5c0.3-0.1,2.5,5.4,5,12.2c0.6,1.7,1.2,3.3,1.7,4.8
																					c0.2,0.7,0.6,1.5,0.3,2.5c-0.2,0.5-0.6,0.8-1,0.9c-0.4,0.1-0.8,0.1-1.1,0.1
																					C547.4,373.9,545.8,373.9,545.8,373.8z"/>
																			</g>
																		</g>
																	</g>
																</g>
															</g>
														</g>
													</g>
												</g>
											</g>
										</g>
									</g>
								</g>
							</g>
						</g>
					</g>
				</g>
			</g>
		</g>
		<g>
			<g>
				<g>
					<g>
						<g>
							<g>
								<g>
									<g>
										<g>
											<g>
												<g>
													<g>
														<g>
															<g>
																<g>
																	<g>
																		<path class="st14" d="M536.3,349.7c-0.2,0.6-2.4,0.3-4.9,0.6c-2.5,0.2-4.6,1-4.9,0.4c-0.1-0.3,0.2-0.8,1.1-1.4
																			c0.8-0.6,2.1-1.1,3.7-1.3c1.5-0.2,2.9,0.1,3.8,0.5C535.9,349,536.4,349.4,536.3,349.7z"/>
																	</g>
																</g>
															</g>
														</g>
													</g>
												</g>
											</g>
										</g>
									</g>
								</g>
							</g>
						</g>
					</g>
				</g>
			</g>
		</g>
		<g>
			<g>
				<g>
					<g>
						<g>
							<g>
								<g>
									<g>
										<g>
											<g>
												<g>
													<g>
														<g>
															<g>
																<g>
																	<g>
																		<path class="st14" d="M561.9,353.1c-0.3,0.5-2.4,0.1-4.9,0.2c-2.5,0-4.6,0.5-4.9,0c-0.1-0.2,0.3-0.7,1.1-1.1
																			c0.8-0.4,2.2-0.8,3.7-0.8c1.5,0,2.9,0.3,3.8,0.7C561.6,352.5,562,352.9,561.9,353.1z"/>
																	</g>
																</g>
															</g>
														</g>
													</g>
												</g>
											</g>
										</g>
									</g>
								</g>
							</g>
						</g>
					</g>
				</g>
			</g>
		</g>
		<g>
			<g>
				<g>
					<g>
						<g>
							<g>
								<g>
									<g>
										<g>
											<g>
												<g>
													<g>
														<g>
															<g>
																<path class="st12" d="M511.5,363.9c-0.3-0.1-11.6-4-8.5,7.1c3,11,9.4,9.7,9.4,9.3
																	C512.4,380,511.5,363.9,511.5,363.9z"/>
															</g>
														</g>
													</g>
												</g>
											</g>
										</g>
									</g>
								</g>
							</g>
						</g>
					</g>
				</g>
			</g>
		</g>
		<g>
			<g>
				<path class="st15" d="M547,383.3c0-0.4-3.6-0.2-6.9-1.9c-1.6-0.9-2.9-2-3.7-2.8c-0.9-0.8-1.5-1.3-1.7-1.2
					c-0.2,0.1,0.2,0.8,0.8,1.8c0.7,1,1.9,2.3,3.7,3.3c1.9,1,3.9,1.3,5.4,1.3C546.1,383.7,547,383.4,547,383.3z"/>
			</g>
		</g>
		<g>
			<g>
				<g>
					<g>
						<g>
							<g>
								<g>
									<g>
										<g>
											<path class="st2" d="M558.9,360.5c0,1.1-0.9,2.1-2.1,2.1c-1.2,0-2.2-0.8-2.2-2c0-1.1,0.9-2.1,2.1-2.2
												C557.9,358.5,558.9,359.3,558.9,360.5z"/>
										</g>
									</g>
								</g>
							</g>
						</g>
					</g>
				</g>
			</g>
		</g>
		<g>
			<path class="st14" d="M585,332c-0.2-0.6-0.7-1.1-1.3-1.4c-1.3-0.7-2.7-0.5-4.1-0.4c-3.4,0.2-6.9-0.5-10.1-1.9
				c1-0.6,2-1.3,2.8-2.2c1.6-1.9,2.5-4.6,1.6-6.9c-0.2-0.4-0.5-0.9-0.9-1c-0.7-0.2-1.3,0.6-1.8,1.1c-1.5,1.9-3,2.8-5.4,2.7
				c-1.5-0.1-3-0.3-4.2-1c0,0-0.1-0.1-0.1-0.1c-0.6-0.5-1.2-1.1-1.8-1.6c0,0,0,0,0,0l0,0c-4.3-3.8-8-6.4-11.7-7.6
				c-5.4-1.8-14.3-2.1-19.8-0.4c-5.4,1.8-10.1,6.6-10.6,12.3c-3.3-2.4-7.9-2.1-11.6-0.4l-0.1,0c-4.1,1.8-6.2,6.3-7.2,10.7
				c-0.1,0.2-0.1,0.5-0.1,0.7c-1.3,2.3-3.1,4.4-5.3,5.9c-0.4,0.3-0.8,0.6-0.9,1c0,0.5,0.4,0.8,0.8,1.1c1.1,0.7,2.3,1.1,3.5,1.2
				c-0.3,1-0.7,2.1-1.2,3c-0.4,0.8-0.9,1.8-0.5,2.6c0.4,0.6,1.2,0.8,1.9,0.7c0.7-0.1,1.3-0.6,1.9-1c-0.4,1.2-0.8,2.3-1.2,3.5
				c1.5,0.2,3.1,0,4.6-0.6c1.1,4,2.5,9,3.6,11.7c1.8-0.1,3.4-0.6,4.5,0.3c1.6,1.2,2.4,3.7,4.7,2.6c1.2-0.6,2.2-3.2,2.5-4.5
				c2.3-8.6,2.6-17.7,1.1-26.4c1.6-2,3.6-3.6,5.9-4.8l-0.2,0.2c4.3-1.8,9.3-3.6,13.6-1.8c3.4,1.4,5.5,4.7,8.1,7.3
				c4.9,4.8,10.7,7.3,17.6,7.1c0.9,4.8,0.8,10.9,1.3,15.3l3.7-7.5l0,0c0.3-0.5,0.5-1.1,0.7-1.6l0.1-0.2l0,0c0.3-0.9,0.7-1.7,1.1-2.6
				c0,0,0,0,0,0c2.6,2,5.9-1.5,3.9-4c-0.4-0.5-0.9-0.9-1.4-1.3c1.2,1,2.9,1.4,4.3,0.8c1.4-0.5,2.5-2.1,2.2-3.6
				c-0.1-1-0.9-1.9-1.9-2.3c2,0,3.9-0.5,5.6-1.6C584.5,334.5,585.5,333.4,585,332z"/>
		</g>
	</g>
	<g>
		<path class="st16" d="M528.5,363.2h17.9c0,0,1.4,6.8-2.2,10.6c-3.6,3.7-10.7,1.5-13-1.6C528.5,368.6,528.5,363.2,528.5,363.2z"/>
		<path class="st16" d="M551.8,363.2h17.9c0,0,1.4,6.8-2.2,10.6c-3.6,3.7-10.7,1.5-13-1.6C551.8,368.6,551.8,363.2,551.8,363.2z"/>
		<path class="st16" d="M546.3,363.2h5.8l0.3,1.7c-2.2-0.9-4.4-0.8-6.5,0.2L546.3,363.2z"/>
		<path class="st2" d="M530.5,364.6h13.9c0,0,1.1,5.3-1.7,8.2c-2.8,2.9-8.3,1.2-10.1-1.3C530.5,368.7,530.5,364.6,530.5,364.6z"/>
		<path class="st2" d="M554.1,364.6H568c0,0,1.1,5.3-1.7,8.2c-2.8,2.9-8.3,1.2-10.1-1.3C554.1,368.7,554.1,364.6,554.1,364.6z"/>
		<path class="st16" d="M528.5,363.2l-17.2,1.4c0.5,1.1,1.3,1.9,2.3,2.2l15.7,0.4L528.5,363.2z"/>
		<g>
			<path class="st5" d="M543.7,366c0.1,0,0.2,0.5,0.2,1.4c0,0.9-0.2,2.2-0.9,3.4c-0.7,1.3-1.7,2.1-2.6,2.4c-0.9,0.4-1.5,0.3-1.5,0.2
				c0-0.1,0.5-0.3,1.2-0.7c0.7-0.4,1.6-1.2,2.2-2.3C543.5,368.2,543.4,365.9,543.7,366z"/>
		</g>
		<g>
			<path class="st5" d="M567.8,364.4c0.1,0,0.3,0.6,0.4,1.6c0,1-0.2,2.5-0.9,3.9c-0.7,1.4-1.7,2.5-2.5,3.1c-0.8,0.6-1.4,0.8-1.5,0.7
				c-0.1-0.2,2-1.5,3.3-4.1C567.9,366.9,567.6,364.4,567.8,364.4z"/>
		</g>
	</g>
</g>
<polygon class="st10" points="542.8,410.6 560.7,414.8 597.8,445.5 604.5,459.7 560.3,458.8 "/>
<polygon class="st17" points="549.9,408.8 555.7,412.8 558.5,419.3 561.5,426.4 562.7,474.9 548.7,412.8 "/>
<path class="st12" d="M514.9,402.2c2,0,35,16.5,35,16.5s11.2,36.8,12,46.3c0.7,9.6-27.3,132.9-27.3,132.9l-65.4-2.5l3.6-107.7
	c0,0,8.9-31.2,11.3-46.2C486.5,426.6,514.9,402.2,514.9,402.2z"/>
<path class="st10" d="M512.2,402.2v-8.3l33.9,18.5l1.3,15.1c0.7,7.8,0,15.7-1.8,23.3l-2,8.3l-24.7,119.1l-67.9,3.2l20.4-94.1
	c0,0,10.9-49,17.7-58.6C496.3,418.3,512.2,402.2,512.2,402.2z"/>
<path class="st18" d="M546.1,412.4c0.7,0,1.7,0.2,2.6,0.4c0.7,0.1,1.6,0.3,2,0.9c0.3,0.5,0.3,1,0.3,1.6c0,1.3-0.1,2.7-0.3,4
	c-0.1,0.5-0.2,1-0.5,1.4c-0.4,0.5-1.1,0.5-1.8,0.5c-0.2,0-0.4,0-0.6-0.1c-0.1-0.1-0.1-0.2-0.2-0.4
	C546.8,418,546.3,415.2,546.1,412.4"/>
<path class="st12" d="M486.3,578.1c0,0-8.6,20.4-4.1,41.7c4.5,21.3,37.8,54.3,37.8,54.3l32,48.5l10,42.4l18.2,79.7
	c9.8,6.7,15.6,6.4,24.8-1.6c0,0-2.7-116-6.3-130.9c-3.6-14.9-41.4-111-41.4-111s4-6.7,3.6-19.1l-42.6-9.8L486.3,578.1z"/>
<path class="st12" d="M484.2,588.4c-12.4,18-13.2,64.8-13.2,64.8l-13,56.6l-23.8,36.5L388,819c1.9,11.7,10.8,12.9,23,14.1
	c0,0,78.6-83.8,86.9-96.7c8.3-12.9,51.8-106.5,51.8-106.5s7.6-1.7,16.3-10.6l-22.3-37.6"/>
<g>
	<path class="st16" d="M558.8,569.3l36.2,114.4l-62.6,20.9L492,626.5c0,0-11.3-8.8-10.9-24.6c0.4-15.9,5.1-32.6,5.1-32.6H558.8z"/>
	<path class="st16" d="M480.8,569.3c0,0.6-6.6,29.6-9.6,42.7c-1,4.1-1.1,13.1,0.2,17.1l1.4,4.4l-15.1,57.8l62.9,16.1L547,605.7
		c-0.9-0.4-40.1-36.5-40.1-36.5H480.8z"/>
	<g class="st19">
		<path d="M577.7,628.8l-2.1-0.7c-33.3,2.8-74.4,8.2-106.3,18.3l-2.6,10.1c7.7,0.9,10.5-0.5,18.1-1.9c4.9-0.9,9.7-2.2,14.6-2.1
			c1.5,0,3,0.3,4.5,0.6l13.5,19.2l-7.6-22.9c0-0.2-0.1-0.4-0.1-0.5c21.7-3.6,43.5-7.4,65.4-8.5c2.4-0.1,6.7,0.9,6.7,0.9L577.7,628.8
			z"/>
	</g>
	<path class="st16" d="M531.5,709.9l-4.3-8.8c-0.7-1.4,0-3.1,0.8-3.4l63.7-23.7c2.1-0.8,3.7,0.1,4.1,1.6l2.8,11.4
		c1.6,2.5-2,5.6-3.3,6l-53.8,21.1C538.1,715.2,532.1,711.1,531.5,709.9z"/>
	<g>
		<path class="st16" d="M453.6,690.5l3.1-9.3c0.5-1.5,2.1-2.2,2.9-1.9l62.1,27.6c2.1,0.9,2.6,2.7,1.8,4l-5.9,10.1
			c-0.6,2.9-5.4,2.6-6.6,2l-53.2-22.6C454.6,698.9,453.1,691.8,453.6,690.5z"/>
	</g>
</g>
<g>
	<g>
		<g>
			<path class="st20" d="M676.1,408.5c21.7-8.5,46.2,4.7,50.6,27.3c0.1,0.3,0.1,0.6,0.2,0.9c5.4,29.3,38.3,166,30.5,179.5
				c-7.8,13.5-47.7,17.5-62.7,13.2c-15-4.3-85.7-4.2-107.9-1.8c-18.2,2-242.6,41.5-323.2,55.7c-15.9,2.8-31.2-7.4-34.4-22.8
				l-24.7-116.7c-3.4-16.3,7.8-32,24.6-34.3c92.2-12.7,360.2-51,389.9-71.5C637.8,424.8,659.6,415,676.1,408.5z"/>
			<g>
				<path class="st21" d="M684.7,415.2c0,0-0.2,0.1-0.6,0.3c-0.4,0.2-1,0.4-1.8,0.8c-1.6,0.7-3.9,1.9-6.6,3.9
					c-2.7,1.9-5.8,4.6-8.8,8.3c-2.9,3.7-5.6,8.5-7.4,14.1c-0.8,2.9-1.6,5.9-1.8,9.1c-0.2,1.6-0.2,3.3-0.2,5c0.1,1.7,0.1,3.4,0.4,5.1
					c0.4,3.5,1.4,7,2.5,10.5c1.2,3.5,2.6,7.1,4.5,10.6c1.9,3.5,4.1,6.9,6.8,10c2.7,3.1,5.7,6.1,8.6,9.3c2.9,3.2,5.8,6.6,8,10.5
					c2.2,3.9,3.6,8.4,4,13c0.8,9.3-1.5,18.2-3.8,26.4c-2.3,8.3-4.7,16.3-4.8,24.2c-0.2,7.9,1.2,15.4,3.9,21.8
					c2.7,6.5,6.6,11.9,11.1,15.8c4.5,3.9,9.3,6.5,13.8,8c4.5,1.6,8.6,2.1,11.9,2.1c3.3,0.1,5.9-0.5,7.6-0.8c0.8-0.2,1.5-0.4,1.9-0.5
					c0.4-0.1,0.7-0.2,0.7-0.1c0,0-0.2,0.1-0.6,0.2c-0.5,0.1-1.1,0.3-1.9,0.6c-1.7,0.4-4.3,0.9-7.7,0.9c-3.4,0-7.5-0.4-12.1-2
					c-4.5-1.5-9.5-4-14-8c-4.6-3.9-8.6-9.4-11.3-16c-2.7-6.5-4.2-14.1-4-22.1c0.1-8,2.5-16.1,4.8-24.4c2.3-8.3,4.6-17,3.8-26.1
					c-0.4-4.5-1.7-8.9-3.9-12.7c-2.2-3.8-5-7.2-7.9-10.4c-2.9-3.2-5.9-6.2-8.6-9.4c-2.7-3.2-5-6.6-6.8-10.1
					c-1.9-3.5-3.3-7.1-4.5-10.7c-1.2-3.6-2.1-7.1-2.5-10.7c-0.3-1.8-0.3-3.5-0.4-5.2c0.1-1.7,0-3.4,0.2-5c0.3-3.3,1-6.4,1.9-9.3
					c1.9-5.7,4.6-10.5,7.6-14.3c3-3.7,6.2-6.4,9-8.3c2.7-2,5.1-3.1,6.7-3.8c0.8-0.3,1.4-0.6,1.9-0.7
					C684.5,415.3,684.7,415.2,684.7,415.2z"/>
			</g>
			<g>
				<path class="st21" d="M246,646.9c0,0,0.4-0.1,1.1-0.3c0.8-0.2,1.9-0.4,3.3-0.7c2.9-0.6,7.2-1.5,12.6-2.7
					c11-2.3,26.9-5.5,46.6-9.4c39.4-7.7,93.9-17.7,154.2-27.8c30.2-5,59-9.6,85.2-13.6c13.1-2,25.6-3.8,37.3-5.5
					c11.7-1.6,22.6-3,32.5-4.2c19.9-2.4,36.1-4,47.2-5c5.6-0.5,9.9-0.8,12.9-1.1c1.5-0.1,2.6-0.2,3.3-0.2c0.8-0.1,1.1-0.1,1.1-0.1
					s-0.4,0.1-1.1,0.1c-0.8,0.1-1.9,0.2-3.3,0.3c-3,0.3-7.3,0.7-12.9,1.2c-11.2,1.1-27.3,2.8-47.2,5.2c-9.9,1.2-20.8,2.7-32.5,4.3
					c-11.7,1.7-24.1,3.6-37.2,5.6c-26.2,4-55,8.6-85.2,13.6c-60.4,10-114.9,20-154.2,27.5c-19.7,3.8-35.6,6.9-46.6,9.1
					c-5.5,1.1-9.7,2-12.7,2.5c-1.4,0.3-2.5,0.5-3.3,0.6C246.4,646.9,246,646.9,246,646.9z"/>
			</g>
			<g>
				<path class="st21" d="M247.8,619.1c0,0,0.4-0.1,1.1-0.3c0.7-0.2,1.8-0.4,3.1-0.7c2.8-0.6,6.9-1.5,12.1-2.7
					c10.5-2.3,25.8-5.6,44.6-9.5c37.7-7.9,89.9-18.3,147.7-28.7c28.9-5.2,56.5-9.9,81.7-13.9c25.1-4,47.8-7.5,66.9-10.3
					c9.5-1.4,18.2-2.6,25.7-3.6c7.6-1.1,14.1-1.9,19.4-2.6c5.3-0.7,9.5-1.2,12.3-1.6c1.4-0.2,2.5-0.3,3.2-0.4
					c0.7-0.1,1.1-0.1,1.1-0.1s-0.4,0.1-1.1,0.2c-0.7,0.1-1.8,0.3-3.2,0.5c-2.8,0.4-7,1-12.3,1.7c-5.3,0.8-11.9,1.7-19.4,2.7
					c-7.6,1.1-16.2,2.4-25.7,3.8c-19.1,2.8-41.7,6.4-66.8,10.4c-25.1,4.1-52.7,8.8-81.7,14c-57.8,10.4-110,20.7-147.8,28.4
					c-18.8,3.9-34.1,7.1-44.7,9.2c-5.3,1.1-9.3,1.9-12.1,2.5c-1.4,0.3-2.4,0.5-3.2,0.6C248.1,619.1,247.8,619.1,247.8,619.1z"/>
			</g>
			<g>
				<path class="st21" d="M241.3,587.9c0,0,0.4-0.1,1.1-0.2c0.8-0.1,1.9-0.3,3.3-0.5c3-0.5,7.3-1.1,12.9-2c2.8-0.4,5.9-0.9,9.3-1.4
					c3.4-0.6,7.1-1.2,11.1-1.8c7.9-1.3,17-2.8,26.9-4.5c5-0.9,10.2-1.8,15.7-2.7c5.4-1,11.1-2,16.9-3.1c11.7-2.1,24.2-4.5,37.4-7
					c26.3-5.1,55.2-10.8,85.4-16.9c60.6-12.3,115.4-23.6,155.1-31.3c9.9-1.9,18.9-3.6,26.8-5.1c7.9-1.5,14.7-2.8,20.3-3.7
					c5.6-1,9.9-1.8,12.8-2.3c1.5-0.2,2.6-0.4,3.3-0.6c0.8-0.1,1.1-0.2,1.1-0.2s-0.4,0.1-1.1,0.2c-0.8,0.2-1.9,0.4-3.3,0.7
					c-3,0.6-7.3,1.4-12.8,2.4c-5.6,1.1-12.4,2.4-20.3,3.9c-7.9,1.5-16.9,3.3-26.8,5.2c-39.7,7.8-94.5,19.2-155.1,31.5
					c-30.3,6.1-59.1,11.8-85.4,16.8c-13.2,2.4-25.7,4.8-37.4,6.9c-5.9,1-11.5,2.1-17,3c-5.4,0.9-10.7,1.8-15.7,2.7
					c-10,1.7-19,3.2-27,4.4c-4,0.6-7.7,1.2-11.1,1.8c-3.4,0.5-6.5,1-9.3,1.4c-5.6,0.8-9.9,1.4-12.9,1.8c-1.5,0.2-2.6,0.4-3.4,0.5
					C241.7,587.8,241.3,587.9,241.3,587.9z"/>
			</g>
			<g class="st19">
				<path class="st2" d="M660,476.3c0,0-0.4,0.1-1.1,0.3c-0.7,0.2-1.8,0.4-3.2,0.7c-2.8,0.6-6.9,1.4-12.2,2.5c-10.7,2.1-26,5.2-45,9
					c-38,7.5-90.6,17.7-148.7,28.2c-29.1,5.2-56.9,9.9-82.2,14.1c-25.3,4.1-48.1,7.6-67.3,10.4c-9.6,1.4-18.3,2.6-25.9,3.6
					c-7.6,1.1-14.2,1.9-19.6,2.6c-5.4,0.7-9.5,1.2-12.4,1.6c-1.4,0.2-2.5,0.3-3.2,0.4c-0.7,0.1-1.1,0.1-1.1,0.1s0.4-0.1,1.1-0.2
					c0.7-0.1,1.8-0.3,3.2-0.5c2.9-0.4,7-1,12.4-1.7c5.4-0.7,11.9-1.6,19.5-2.7c7.6-1.1,16.3-2.3,25.9-3.8
					c19.2-2.8,41.9-6.4,67.2-10.5c25.3-4.2,53-8.9,82.1-14.1c58.2-10.5,110.7-20.6,148.8-27.9c19-3.7,34.4-6.6,45-8.7
					c5.3-1,9.4-1.8,12.3-2.3c1.4-0.3,2.4-0.5,3.2-0.6C659.6,476.4,660,476.3,660,476.3z"/>
			</g>
		</g>
		<g class="st22">
			<path d="M666.2,427.1c-9.6,8.1-15.9,19.8-17.5,32.2c-1.6,12.4,1.6,25.4,8.9,35.6c7,9.9,17.8,17.8,20.5,29.7
				c3.8,16.9-10.9,33.4-8.6,50.5c1.6,11.8,10.9,21.1,20.7,27.9c0,0-11.1-14.3-4.8-40.9s10.2-37.3,1.1-51.6
				c-9.2-14.3-24.1-23.8-27.9-43.4C654.8,447.5,666.2,427.1,666.2,427.1z"/>
		</g>
		<g class="st23">
			<path d="M653.2,509.6c-53.2,11.3-207,45.8-260.2,57.1c-46.7,9.9-93.8,18-141.5,19.7C349.8,571,497.3,541.5,653.2,509.6z"/>
		</g>
		<g class="st23">
			<path d="M666.8,544.8c-137.5,18-281.6,44.6-419,74.4L666.8,544.8z"/>
		</g>
	</g>
	<g class="st19">
		<path d="M519.8,642.2c-2.7-10.7-5.4-21.4-8.1-32.1c1.8,0.8,3.6,1.7,5.6,1.7c2,0,4.1-1.2,4.5-3.1c0.2-1,0-2.1-0.4-3.1
			c-3-8.3-11.8-13.3-15.9-21.2c-2.7-5.2-3.2-11.3-3.6-17.1c-1.1-14.4-2.1-28.8-3.2-43.1c0,0,5.7-7.3,8-10.7
			c2.4-3.3,23.4-52.3,23.4-52.3l-39.3,15.3l-15,53.9l17.6,62.2l17.9,44.4L519.8,642.2z"/>
	</g>
</g>
<path class="st12" d="M506.8,422.4c17.5-8,32.4,5.5,26.7,23.8c-0.1,0.4-3.1,4.1-3.3,4.6c-6.7,18-37.4,70.9-37.4,70.9l6.4,66
	l-21.4,7.7c0,0-21.6-64.6-19.6-77.9c2-13.3,24.1-65,35.4-79.6C497.5,432.9,500.9,425.1,506.8,422.4z"/>
<path class="st12" d="M498.1,587.1c0,0,11.4,5.7,14.2,8.3c2.7,2.6,10.1,12.3,14.8,14.6c0,0-0.1,4.3-4.5,3c-4.4-1.4-10.1-5-12.3-7.3
	c-2.2-2.3-3.7-0.4-3.4,1.9c0.3,2.3,5.1,17.3,5.1,17.3s7.9,16.2,7,18.4c-0.9,2.2-3.7,1.3-4.8,1.1c-1.1-0.2-8.8-14.1-8.8-14.1
	l-2.8-7.5c0,0,7.3,24.1,6.1,26.3c-1.2,2.2-3,1.8-4.3,1c-1.3-0.8-4.4-11.5-4.4-11.5l-5.2-14.1l5.5,27.6c0,0,0.2,2.7-1.9,3.1
	c-2,0.5-4-2.3-4-2.3l-8.2-28c0,0-8,20.1-9.4,20.4c-1.3,0.3-3.3,0.3-3.1-1c0.1-1.3,4.8-24.9,4.8-24.9l-1.5-24.1l-0.4-6.4l20.3-6
	L498.1,587.1z"/>
<path class="st10" d="M462.1,504.3l36.9,13.4c0,0,9.4-6.4,8.8-10.8c-0.4-3.4-27.2-13.2-38.9-17.3c-3-1.1-6.4,0.5-7.5,3.5l-1.8,6.6
	C459.1,501.6,460.2,503.6,462.1,504.3z"/>
<path class="st10" d="M465.9,491.3c0,0,23.8-52.5,28.3-59.2c4.5-6.7,14.7-17.6,28.7-14.8c14.1,2.7,15.8,15.2,15.9,21.3
	c0.4,14.4-36,74.8-36,74.8L465.9,491.3"/>
<path class="st18" d="M546.1,413.1c0.6,2.2-3.1,4.3-5.1,5.5c-2,1.2-4.4,1.4-6.7,1.2c-11-0.8-20-9.4-31-10.3
	c-7.7-0.6-15.8,3-22.4,7.1c-6.5,4-12.2,9.4-18.5,13.8c-15.1,10.4-18.5,8.8-33.6,11.8l-4.8,11.3l12.7,3.2c0,0,30.4-7.9,40-17.8
	c9.8-10,15.3-18.9,22.4-20.6c15.1-3.8,30.5,7.6,39.6,6.3c5.6-0.8,9-5,9-5L546.1,413.1z"/>
<g>
	<g>
		<g>
			<g>
				<g>
					<g>
						<polygon class="st18" points="89.8,586.9 94.8,619.7 123.7,619.7 130.5,587.4 						"/>
					</g>
				</g>
			</g>
		</g>
		<g>
			<g>
				<g>
					<g>
						<g>
							<g>
								<path class="st11" d="M126.4,607.9c0,0.1-7.4,0.2-16.6,0.2c-9.2,0-16.6-0.1-16.6-0.2s7.4-0.2,16.6-0.2
									C119,607.7,126.4,607.8,126.4,607.9z"/>
							</g>
						</g>
					</g>
				</g>
			</g>
			<g>
				<g>
					<g>
						<g>
							<g>
								<path class="st11" d="M126.5,606.3c0,0.1-7.5,0.2-16.7,0.2c-9.2,0-16.7-0.1-16.7-0.2c0-0.1,7.5-0.2,16.7-0.2
									C119.1,606.1,126.5,606.2,126.5,606.3z"/>
							</g>
						</g>
					</g>
				</g>
			</g>
			<g>
				<g>
					<g>
						<g>
							<g>
								<path class="st11" d="M126.5,604.5c0,0.1-7.5,0.2-16.7,0.2c-9.2,0-16.7-0.1-16.7-0.2c0-0.1,7.5-0.2,16.7-0.2
									C119,604.3,126.5,604.4,126.5,604.5z"/>
							</g>
						</g>
					</g>
				</g>
			</g>
			<g>
				<g>
					<g>
						<g>
							<g>
								<path class="st11" d="M98.1,617.8c-0.1,0-0.5-1.8-0.9-4.1c-0.4-2.3-0.6-4.2-0.6-4.2c0.1,0,0.5,1.8,0.9,4.1
									C97.9,615.9,98.2,617.8,98.1,617.8z"/>
							</g>
						</g>
					</g>
				</g>
			</g>
			<g>
				<g>
					<g>
						<g>
							<g>
								<path class="st11" d="M100.1,617.5c-0.1,0-0.2-1.8-0.4-4c-0.1-2.2-0.3-4-0.2-4c0.1,0,0.4,1.8,0.5,4
									C100.2,615.6,100.2,617.5,100.1,617.5z"/>
							</g>
						</g>
					</g>
				</g>
			</g>
			<g>
				<g>
					<g>
						<g>
							<g>
								<path class="st11" d="M103.7,617.5c-0.1,0-0.5-1.8-0.8-4.1c-0.3-2.3-0.3-4.2-0.2-4.2c0.1,0,0.3,1.9,0.6,4.2
									C103.5,615.6,103.8,617.4,103.7,617.5z"/>
							</g>
						</g>
					</g>
				</g>
			</g>
			<g>
				<g>
					<g>
						<g>
							<g>
								<path class="st11" d="M106.2,617.6c-0.1,0-0.3-1.9-0.4-4.2c-0.1-2.3,0-4.2,0.1-4.2c0.1,0,0.1,1.9,0.2,4.2
									C106.2,615.7,106.3,617.6,106.2,617.6z"/>
							</g>
						</g>
					</g>
				</g>
			</g>
			<g>
				<g>
					<g>
						<g>
							<g>
								<path class="st11" d="M110.6,617.5c-0.1,0-0.2-1.8-0.3-4c-0.1-2.2-0.1-4,0-4c0.1,0,0.2,1.8,0.3,4
									C110.8,615.7,110.7,617.5,110.6,617.5z"/>
							</g>
						</g>
					</g>
				</g>
			</g>
			<g>
				<g>
					<g>
						<g>
							<g>
								<path class="st11" d="M113.9,617.6c-0.1,0-0.2-1.8-0.1-4.1c0-2.3,0.1-4.1,0.2-4.1c0.1,0,0.2,1.8,0.1,4.1
									C114.1,615.8,114,617.6,113.9,617.6z"/>
							</g>
						</g>
					</g>
				</g>
			</g>
			<g>
				<g>
					<g>
						<g>
							<g>
								<path class="st11" d="M117,617.2c-0.1,0,0-1.9,0.2-4.3c0.2-2.4,0.5-4.3,0.6-4.3c0.1,0,0,1.9-0.2,4.3
									C117.3,615.3,117.1,617.2,117,617.2z"/>
							</g>
						</g>
					</g>
				</g>
			</g>
			<g>
				<g>
					<g>
						<g>
							<g>
								<path class="st11" d="M120.9,616.8c-0.1,0,0.1-1.7,0.5-3.7c0.4-2,1-3.6,1.1-3.5c0.1,0-0.3,1.6-0.7,3.6
									C121.3,615.2,121,616.8,120.9,616.8z"/>
							</g>
						</g>
					</g>
				</g>
			</g>
		</g>
		<g>
			<g>
				<g>
					<g>
						<path class="st18" d="M86.5,580.4v6.1c0,1.3,1.1,2.4,2.4,2.4h42c1.3,0,2.4-1.1,2.4-2.4v-6.1H86.5z"/>
					</g>
				</g>
			</g>
		</g>
		<g class="st24">
			<g>
				<g>
					<g>
						<polygon class="st25" points="90.1,589 90.4,590.9 129.2,593.7 130.1,589 						"/>
					</g>
				</g>
			</g>
		</g>
	</g>
	<g>
		<g>
			<g>
				<g>
					<g>
						<path class="st8" d="M101.7,580.4c-6.2-3.6-9.5-11.9-9.7-18.7c-0.2-6.8,2.6-13.9,8.2-17.8c5.9-4.1,14.2-4,20.3-0.2
							c6,3.9,9.6,11.2,9.3,18.3c-0.3,7.2-4.2,14-10,18.3"/>
					</g>
				</g>
			</g>
		</g>
		<g>
			<g>
				<g>
					<g>
						<g>
							<path class="st9" d="M111.5,581.1c0,0-0.1-0.6-0.1-1.6c0-1.1-0.1-2.5-0.1-4.2c-0.1-3.6-0.2-8.5-0.5-14
								c-0.2-5.5-0.5-10.4-0.8-14c-0.1-1.7-0.2-3.1-0.3-4.2c-0.1-1-0.1-1.6,0-1.6c0,0,0.1,0.5,0.2,1.5c0.1,1,0.3,2.4,0.4,4.2
								c0.3,3.6,0.7,8.5,0.9,14c0.2,5.5,0.3,10.4,0.3,14c0,1.8,0,3.2-0.1,4.2C111.6,580.5,111.6,581.1,111.5,581.1z"/>
						</g>
					</g>
				</g>
			</g>
		</g>
		<g>
			<g>
				<g>
					<g>
						<g>
							<path class="st9" d="M93.8,560.2c0,0.2-1,0.2-2.2,0.1c-1.2-0.1-2.2-0.3-2.1-0.5c0-0.2,1-0.2,2.2-0.1
								C92.8,559.8,93.8,560,93.8,560.2z"/>
						</g>
					</g>
				</g>
			</g>
		</g>
		<g>
			<g>
				<g>
					<g>
						<g>
							<path class="st9" d="M94.1,554.1c-0.1,0.1-0.9-0.1-1.9-0.5c-1-0.4-1.7-0.9-1.7-1.1c0.1-0.1,0.9,0.1,1.9,0.5
								C93.5,553.4,94.2,553.9,94.1,554.1z"/>
						</g>
					</g>
				</g>
			</g>
		</g>
		<g>
			<g>
				<g>
					<g>
						<g>
							<path class="st9" d="M97.3,549.5c-0.1,0.1-1-0.3-2-1.1c-1-0.8-1.6-1.7-1.5-1.8c0.1-0.1,0.9,0.5,1.9,1.3
								C96.6,548.7,97.4,549.4,97.3,549.5z"/>
						</g>
					</g>
				</g>
			</g>
		</g>
		<g>
			<g>
				<g>
					<g>
						<g>
							<path class="st9" d="M100.4,545.3c-0.1,0.1-0.6-0.6-1-1.6c-0.4-0.9-0.6-1.8-0.5-1.8c0.1-0.1,0.6,0.6,1,1.6
								C100.4,544.4,100.6,545.2,100.4,545.3z"/>
						</g>
					</g>
				</g>
			</g>
		</g>
		<g>
			<g>
				<g>
					<g>
						<g>
							<path class="st9" d="M105.4,542.2c-0.1,0.1-0.6-0.7-1-1.7c-0.3-1.1-0.4-2-0.2-2c0.2,0,0.4,0.8,0.8,1.8
								C105.3,541.3,105.5,542.2,105.4,542.2z"/>
						</g>
					</g>
				</g>
			</g>
		</g>
		<g>
			<g>
				<g>
					<g>
						<g>
							<path class="st9" d="M113.7,538.8c0.2,0.1,0.1,0.7-0.2,1.4c-0.3,0.7-0.6,1.3-0.8,1.3c-0.2-0.1-0.1-0.7,0.2-1.4
								C113.2,539.3,113.5,538.7,113.7,538.8z"/>
						</g>
					</g>
				</g>
			</g>
		</g>
		<g>
			<g>
				<g>
					<g>
						<g>
							<path class="st9" d="M119.8,541.4c0.1,0.1-0.3,0.7-0.9,1.2c-0.6,0.5-1.2,0.9-1.3,0.8c-0.1-0.1,0.3-0.7,0.9-1.2
								C119.1,541.7,119.7,541.3,119.8,541.4z"/>
						</g>
					</g>
				</g>
			</g>
		</g>
		<g>
			<g>
				<g>
					<g>
						<g>
							<path class="st9" d="M125.2,544.9c0.1,0.1-0.4,0.6-1.1,1.1c-0.7,0.5-1.3,0.7-1.4,0.6c-0.1-0.1,0.4-0.6,1.1-1.1
								C124.5,545.1,125.1,544.8,125.2,544.9z"/>
						</g>
					</g>
				</g>
			</g>
		</g>
		<g>
			<g>
				<g>
					<g>
						<g>
							<path class="st9" d="M129,550.1c0.1,0.1-0.7,0.6-1.7,1c-1,0.4-1.9,0.6-1.9,0.5c-0.1-0.1,0.7-0.6,1.7-1
								C128.1,550.2,129,550,129,550.1z"/>
						</g>
					</g>
				</g>
			</g>
		</g>
		<g>
			<g>
				<g>
					<g>
						<g>
							<path class="st9" d="M130.5,555.8c0,0.2-0.7,0.4-1.7,0.5c-1,0.1-1.8,0.1-1.8-0.1c0-0.2,0.7-0.4,1.7-0.5
								C129.7,555.6,130.5,555.6,130.5,555.8z"/>
						</g>
					</g>
				</g>
			</g>
		</g>
		<g>
			<g>
				<g>
					<g>
						<g>
							<path class="st9" d="M131.3,562.8c-0.1,0.1-0.9-0.1-1.8-0.5c-0.9-0.4-1.7-0.9-1.6-1c0.1-0.1,0.9,0.1,1.8,0.5
								C130.7,562.2,131.4,562.6,131.3,562.8z"/>
						</g>
					</g>
				</g>
			</g>
		</g>
		<g>
			<g>
				<g>
					<g>
						<g>
							<path class="st9" d="M130.6,568.8c-0.1,0.1-1.1-0.1-2.2-0.8c-1.1-0.7-1.7-1.6-1.6-1.7c0.1-0.1,0.9,0.5,1.9,1.2
								C129.8,568.1,130.7,568.6,130.6,568.8z"/>
						</g>
					</g>
				</g>
			</g>
		</g>
		<g>
			<g>
				<g>
					<g>
						<g>
							<path class="st9" d="M127.5,574.2c-0.1,0.1-0.9-0.4-1.7-1.2c-0.8-0.9-1.2-1.7-1.1-1.8c0.1-0.1,0.7,0.6,1.5,1.4
								C127,573.4,127.6,574.1,127.5,574.2z"/>
						</g>
					</g>
				</g>
			</g>
		</g>
		<g>
			<g>
				<g>
					<g>
						<g>
							<path class="st9" d="M97.9,574.9c0.1,0.1-0.8,0.7-1.9,1.3c-1.1,0.6-2.1,1-2.2,0.8c-0.1-0.1,0.8-0.7,1.9-1.3
								C96.8,575.1,97.8,574.7,97.9,574.9z"/>
						</g>
					</g>
				</g>
			</g>
		</g>
		<g>
			<g>
				<g>
					<g>
						<g>
							<path class="st9" d="M95.2,569.9c0.1,0.1-0.6,0.6-1.6,1c-0.9,0.4-1.7,0.6-1.8,0.5c-0.1-0.1,0.6-0.6,1.6-1
								C94.3,570,95.1,569.8,95.2,569.9z"/>
						</g>
					</g>
				</g>
			</g>
		</g>
		<g>
			<g>
				<g>
					<g>
						<g>
							<path class="st9" d="M93.2,565.6c0,0.2-0.8,0.4-1.9,0.6c-1.1,0.2-2,0.1-2,0c0-0.2,0.8-0.4,1.9-0.6
								C92.3,565.4,93.2,565.4,93.2,565.6z"/>
						</g>
					</g>
				</g>
			</g>
		</g>
		<g>
			<g>
				<g>
					<g>
						<g>
							<path class="st9" d="M99.7,563.1c0,0.1-0.8,0.5-1.9,0.7c-1.1,0.1-2-0.1-2-0.2c0-0.2,0.9-0.2,1.9-0.4
								C98.8,563.1,99.7,563,99.7,563.1z"/>
						</g>
					</g>
				</g>
			</g>
		</g>
		<g>
			<g>
				<g>
					<g>
						<g>
							<path class="st9" d="M105.1,557.8c0,0.1-0.6,0.5-1.5,0.6c-0.9,0.1-1.6-0.1-1.6-0.3c0-0.2,0.7-0.2,1.5-0.3
								C104.4,557.7,105.1,557.6,105.1,557.8z"/>
						</g>
					</g>
				</g>
			</g>
		</g>
		<g>
			<g>
				<g>
					<g>
						<g>
							<path class="st9" d="M106.2,553.4c-0.1,0.2-0.8,0-1.6-0.2c-0.8-0.3-1.5-0.6-1.4-0.8c0.1-0.2,0.8,0,1.6,0.2
								C105.6,552.9,106.2,553.3,106.2,553.4z"/>
						</g>
					</g>
				</g>
			</g>
		</g>
		<g>
			<g>
				<g>
					<g>
						<g>
							<path class="st9" d="M108.2,549.1c-0.1,0.1-0.6-0.2-1-0.8c-0.4-0.6-0.4-1.2-0.2-1.2c0.2,0,0.4,0.4,0.7,1
								C108,548.5,108.3,549,108.2,549.1z"/>
						</g>
					</g>
				</g>
			</g>
		</g>
		<g>
			<g>
				<g>
					<g>
						<g>
							<path class="st9" d="M105.8,567c0,0.2-0.6,0.4-1.4,0.6c-0.5,0.1-0.9,0.2-1.2,0.2l-0.1-0.3c0.2,0,0.3,0,0.4,0
								c0,0.1-0.1,0.2-0.2,0.3l-0.1-0.3c0.2-0.1,0.7-0.3,1.1-0.4C105,566.8,105.7,566.8,105.8,567z"/>
						</g>
					</g>
				</g>
			</g>
		</g>
		<g>
			<g>
				<g>
					<g>
						<g>
							<path class="st9" d="M106.9,574.6c0.1,0.1-0.7,0.6-1.8,1c-1,0.4-1.9,0.6-2,0.5s0.7-0.6,1.8-1
								C105.9,574.7,106.8,574.5,106.9,574.6z"/>
						</g>
					</g>
				</g>
			</g>
		</g>
		<g>
			<g>
				<g>
					<g>
						<g>
							<path class="st9" d="M100.8,571.2c0.1,0.2-0.5,0.5-1.2,0.7c-0.7,0.2-1.3,0.3-1.4,0.2c-0.1-0.2,0.5-0.5,1.2-0.7
								C100.1,571.1,100.7,571.1,100.8,571.2z"/>
						</g>
					</g>
				</g>
			</g>
		</g>
		<g>
			<g>
				<g>
					<g>
						<g>
							<path class="st9" d="M101.2,555.6c0,0.2-1,0.1-2-0.3c-1.1-0.4-1.8-0.9-1.8-1c0.1-0.1,0.9,0.1,2,0.5
								C100.4,555.1,101.3,555.5,101.2,555.6z"/>
						</g>
					</g>
				</g>
			</g>
		</g>
		<g>
			<g>
				<g>
					<g>
						<g>
							<path class="st9" d="M116,553.9c0.1,0.1-0.4,0.6-1.2,1.1c-0.7,0.5-1.4,0.8-1.5,0.6c-0.1-0.1,0.4-0.6,1.2-1.1
								C115.3,554.1,116,553.8,116,553.9z"/>
						</g>
					</g>
				</g>
			</g>
		</g>
		<g>
			<g>
				<g>
					<g>
						<g>
							<path class="st9" d="M116.9,561.6c0,0.2-0.5,0.4-1.2,0.5c-0.7,0.1-1.3,0.1-1.3,0c0-0.2,0.5-0.4,1.2-0.5
								C116.2,561.5,116.8,561.5,116.9,561.6z"/>
						</g>
					</g>
				</g>
			</g>
		</g>
		<g>
			<g>
				<g>
					<g>
						<g>
							<path class="st9" d="M117.8,570.3c-0.1,0.1-0.9-0.1-1.8-0.5c-0.9-0.4-1.6-0.9-1.5-1c0.1-0.1,0.9,0.1,1.8,0.5
								C117.2,569.7,117.9,570.1,117.8,570.3z"/>
						</g>
					</g>
				</g>
			</g>
		</g>
		<g>
			<g>
				<g>
					<g>
						<g>
							<path class="st9" d="M115.8,578.7c-0.1,0.1-0.6-0.3-1.1-0.9c-0.5-0.6-0.8-1.2-0.7-1.3c0.1-0.1,0.6,0.3,1.1,0.9
								C115.6,578,115.9,578.6,115.8,578.7z"/>
						</g>
					</g>
				</g>
			</g>
		</g>
		<g>
			<g>
				<g>
					<g>
						<g>
							<path class="st9" d="M115.4,548.3c0.1,0.1-0.2,0.5-0.8,0.8c-0.6,0.3-1.1,0.3-1.2,0.2c0-0.2,0.4-0.4,0.9-0.7
								C114.8,548.3,115.3,548.1,115.4,548.3z"/>
						</g>
					</g>
				</g>
			</g>
		</g>
		<g>
			<g>
				<g>
					<g>
						<g>
							<path class="st9" d="M122.7,556c0.1,0.1-0.6,0.5-1.5,0.6c-0.9,0.1-1.7,0-1.7-0.2c0-0.2,0.7-0.3,1.6-0.4
								C121.9,556,122.6,555.9,122.7,556z"/>
						</g>
					</g>
				</g>
			</g>
		</g>
		<g>
			<g>
				<g>
					<g>
						<g>
							<path class="st9" d="M121.2,549.1c0.1,0.1-0.6,0.6-1.5,0.9c-0.9,0.3-1.8,0.3-1.8,0.1c0-0.2,0.7-0.4,1.6-0.7
								C120.4,549.1,121.1,548.9,121.2,549.1z"/>
						</g>
					</g>
				</g>
			</g>
		</g>
		<g>
			<g>
				<g>
					<g>
						<g>
							<path class="st9" d="M124.2,566.8c0,0.2-1.1,0.3-2.5,0c-1.4-0.2-2.4-0.7-2.4-0.9c0.1-0.2,1.1,0.1,2.5,0.3
								C123.2,566.5,124.3,566.6,124.2,566.8z"/>
						</g>
					</g>
				</g>
			</g>
		</g>
		<g>
			<g>
				<g>
					<g>
						<g>
							<path class="st9" d="M121.5,576.9c-0.1,0.1-0.9-0.4-1.8-1.2c-0.8-0.8-1.3-1.7-1.2-1.8c0.1-0.1,0.8,0.6,1.6,1.4
								C121,576.1,121.7,576.8,121.5,576.9z"/>
						</g>
					</g>
				</g>
			</g>
		</g>
		<g>
			<g>
				<g>
					<g>
						<g>
							<path class="st9" d="M109.7,540.8c0.1,0.1-2.3,1.1-5.1,4c-2.8,2.8-5.6,7.9-6.3,13.9c-0.3,3,0,5.9,0.4,8.5
								c0.5,2.6,1,4.9,1.6,6.9c0.6,1.9,1.1,3.5,1.4,4.5c0.3,1.1,0.5,1.7,0.5,1.7c0,0-0.3-0.6-0.7-1.6c-0.4-1.1-1-2.6-1.6-4.5
								c-0.6-1.9-1.2-4.2-1.7-6.9c-0.5-2.6-0.8-5.6-0.4-8.7c0.7-6.2,3.7-11.3,6.6-14.2c1.4-1.4,2.8-2.4,3.8-3
								c0.5-0.3,0.9-0.5,1.2-0.6C109.5,540.9,109.7,540.8,109.7,540.8z"/>
						</g>
					</g>
				</g>
			</g>
		</g>
		<g>
			<g>
				<g>
					<g>
						<g>
							<path class="st9" d="M117.6,580.8c-0.1-0.1,1.3-2.3,2.6-6.2c1.3-3.9,2.4-9.7,1.6-16c-0.4-3.1-1.3-6-2.5-8.5
								c-1.2-2.4-2.7-4.4-4.2-5.8c-1.5-1.4-3.1-2.1-4.1-2.6c-1.1-0.4-1.7-0.5-1.7-0.6c0,0,0.2,0,0.5,0c0.3,0.1,0.8,0.2,1.3,0.4
								c1.1,0.4,2.7,1.1,4.3,2.5c1.6,1.4,3.2,3.4,4.4,5.9c1.2,2.5,2.1,5.5,2.6,8.7c0.9,6.4-0.3,12.3-1.7,16.2
								c-0.3,1-0.7,1.9-1.1,2.6c-0.4,0.7-0.7,1.4-1,1.9C117.9,580.2,117.6,580.8,117.6,580.8z"/>
						</g>
					</g>
				</g>
			</g>
		</g>
	</g>
</g>
<g>
	<g>
		<g>
			<g>
				<g>
					<path class="st7" d="M143.8,560.7l24.9,55.2c1,2.3,4.2,4.1,6.7,4.2l115.1-0.2l0,0c-0.3-2.4-2.3-4.3-4.7-4.3l-43.7-1L219.8,561
						c-0.7-1.7-2.4-2.8-4.2-2.8l-69.7-0.5C144.2,557.6,143.2,559.2,143.8,560.7z"/>
				</g>
			</g>
		</g>
	</g>
	<g>
		<g>
			<g>
				<g>
					<path class="st26" d="M245,620l45.6-0.1l0,0c-0.3-2.4-2.3-4.3-4.7-4.3l-43.7-1C242.1,614.6,244,620,245,620z"/>
				</g>
			</g>
		</g>
	</g>
	<g>
		<g>
			<g>
				<path class="st5" d="M194.8,587.4c0,2-1.6,3.6-3.6,3.6c-2,0-3.6-1.6-3.6-3.6c0-2,1.6-3.6,3.6-3.6
					C193.3,583.9,194.8,585.5,194.8,587.4z"/>
			</g>
		</g>
	</g>
</g>
<path class="st17" d="M512,402l29,17C541,419,522,415,512,402z"/>
<path class="st17" d="M571,438l2.7,13.6L591,448c0,0,0-6-7-6s-11-11-13-13S571,438,571,438z"/>
<path class="st17" d="M467,488c0,0,23.5,9.2,36.7,16.6C503.7,504.6,479,486,467,488z"/>
<path class="st17" d="M496.4,419c0,0,5.6-2.7,15.6-0.9c10,1.8,19,7.8,27,5.8c0,0-19.4,0.7-29.2-0.6c-9.8-1.4-16.9,0.4-16.9,0.4
	L496.4,419z"/>
<path class="st17" d="M532.9,439.7c0,0,3.4,7.4-2.7,21.4l7.5-1.2C537.6,459.9,540.8,444.3,532.9,439.7z"/>
<path class="st22" d="M531.7,704.3c0,0,43.5-16.2,50.6-16.6c7.1-0.4-49.2,18.7-51.2,18.4C529.1,705.7,531.7,704.3,531.7,704.3z"/>
<path class="st22" d="M462.9,681.8L522,707C522,707,472.8,679.7,462.9,681.8z"/>
<path class="st22" d="M528,698c0,0,64.7-19.9,64.3-20.9C592,676,579,678,528,698z"/>
<path class="st22" d="M523,711c0,0-31-14-32-13s30.1,16.4,30.1,16.4L523,711z"/>
<path class="st22" d="M454,691c0,0,36,18,38,18s-38.2-22-38.2-22L454,691z"/>
<path class="st12" d="M580,845c0,0-5,10-1,13s4,6.3,17.5,5.6S599,862,615,856s21,2,26-7s5-14-1-11s-34,0-34,0L580,845z"/>
<path class="st12" d="M389.9,819.3c0,0-7.9,0.7-9.9,4.7s4,10,11,16s4,19,7,22s25.3,5.3,25.2,1.6c-0.2-3.6-5.8-5.3-8.5-8.5
	s-6.5-26.7-6.5-26.7L389.9,819.3z"/>
<g>
	<g>
		<g>
			<g>
				<g>
					<g>
						<g>
							<g>
								<rect x="68" y="619.5" class="st27" width="341.4" height="19"/>
							</g>
						</g>
					</g>
				</g>
			</g>
			<g>
				<g>
					<g>
						<g>
							<g>
								<g>
									<path class="st2" d="M140.3,619.7c0,0,0,0.1-0.1,0.2c-0.1,0.1-0.2,0.3-0.4,0.6c-0.3,0.5-0.9,1.1-1.7,1.7
										c-0.8,0.6-2,1.1-3.3,1.4c-1.3,0.3-2.9,0.3-4.6,0.3c-1.7-0.1-3.6-0.4-5.5-0.8c-2-0.4-4.1-0.9-6.3-1
										c-4.5-0.2-9.3,1.3-14.2,3.5c-4.9,2.2-9.4,4.7-13.8,6.3c-2.2,0.8-4.3,1.3-6.3,1.6c-2,0.3-3.9,0.2-5.6,0
										c-3.4-0.5-6-1.9-7.7-3.1c-1.6-1.3-2.4-2.3-2.4-2.3c0,0,0.1,0,0.2,0.1c0.1,0.1,0.3,0.3,0.5,0.4c0.4,0.4,1,0.9,1.8,1.5
										c1.6,1.2,4.2,2.5,7.6,2.9c1.7,0.2,3.5,0.2,5.5-0.1c2-0.3,4.1-0.8,6.2-1.6c4.3-1.5,8.8-4.1,13.7-6.3
										c4.9-2.2,9.8-3.7,14.3-3.5c2.3,0.1,4.4,0.6,6.3,1c2,0.4,3.8,0.8,5.5,0.9c1.7,0.1,3.2,0.1,4.6-0.2c1.3-0.2,2.4-0.7,3.3-1.3
										C139.7,620.9,140.3,619.7,140.3,619.7z"/>
								</g>
							</g>
						</g>
					</g>
				</g>
			</g>
			<g>
				<g>
					<g>
						<g>
							<g>
								<g>
									<path class="st2" d="M103,620c0,0-0.3,0.4-1,1.1c-0.7,0.7-1.7,1.6-3.1,2.6c-1.4,0.9-3.1,1.9-5.1,2.6
										c-2,0.7-4.3,1.2-6.7,1.3c-4.8,0.2-9.1-1.3-11.9-3.1c-1.4-0.9-2.4-2-2.9-3c-0.3-0.5-0.4-0.9-0.5-1.1
										c-0.1-0.3-0.1-0.4-0.1-0.4c0,0,0.2,0.6,0.7,1.5c0.5,0.9,1.5,1.9,2.9,2.8c2.8,1.7,7,3.1,11.8,2.9c2.4-0.1,4.6-0.6,6.6-1.3
										c2-0.7,3.7-1.6,5.1-2.5c1.4-0.9,2.4-1.8,3.2-2.4C102.6,620.3,103,620,103,620z"/>
								</g>
							</g>
						</g>
					</g>
				</g>
			</g>
			<g>
				<g>
					<g>
						<g>
							<g>
								<g>
									<path class="st2" d="M183.1,632.1c0,0,0.2,0.1,0.5,0.2c0.4,0.2,0.9,0.4,1.6,0.5c1.4,0.3,3.6,0.4,6-1.2l0,0.2
										c-1.8-1.8-4.3-3.3-7.4-3.7c-3-0.4-6.6,0.5-9.6,3.2c-0.4,0.3-0.7,0.7-0.7,1.2c0,0.5,0.2,0.9,0.6,1.2
										c0.4,0.3,0.8,0.5,1.3,0.6c0.5,0.1,1,0.3,1.5,0.4c2,0.6,4,1.1,6.1,1.5c2.1,0.4,4.2,0.7,6.4,0.6c1.1,0,2.2-0.2,3.3-0.4
										c0.6-0.1,1.1-0.3,1.6-0.4c0.6-0.2,1.1-0.4,1.6-0.7c0.8-0.4,1.6-1.1,2.1-1.9c0.5-0.8,0.7-1.9,0.4-2.9
										c-0.3-1-0.9-1.7-1.6-2.3c-0.7-0.6-1.5-1-2.3-1.4c-3.1-1.6-6.4-2.3-9.5-2.5c-6.2-0.5-11.8,1.1-16.2,3.2
										c-4.4,2.1-7.6,4.8-9.7,6.8c-1,1-1.8,1.8-2.4,2.4c-0.3,0.3-0.4,0.5-0.6,0.7c-0.1,0.1-0.2,0.2-0.2,0.2c0,0,0.1-0.1,0.2-0.2
										c0.1-0.2,0.3-0.4,0.6-0.7c0.5-0.6,1.3-1.5,2.3-2.5c2.1-2.1,5.3-4.8,9.7-7c4.4-2.2,10-3.8,16.3-3.3c3.1,0.2,6.4,0.9,9.6,2.5
										c0.8,0.4,1.6,0.8,2.3,1.5c0.7,0.6,1.5,1.4,1.8,2.6c0.3,1.1,0.1,2.5-0.5,3.4c-0.6,0.9-1.4,1.6-2.2,2.1
										c-0.5,0.3-1.1,0.5-1.7,0.7c-0.6,0.2-1.1,0.3-1.7,0.4c-1.1,0.2-2.2,0.4-3.4,0.4c-2.2,0.1-4.4-0.2-6.5-0.6
										c-2.1-0.4-4.1-1-6.1-1.5c-0.5-0.1-1-0.3-1.5-0.4c-0.5-0.1-1-0.3-1.4-0.7c-0.2-0.2-0.4-0.4-0.6-0.7c-0.2-0.3-0.3-0.7-0.2-1
										c0.1-0.8,0.5-1.2,0.9-1.6c3.1-2.8,6.8-3.6,9.9-3.2c3.1,0.4,5.7,2,7.5,3.8l0.1,0.1l-0.2,0.1c-2.4,1.6-4.7,1.4-6.1,1.1
										C183.8,632.6,183.1,632.1,183.1,632.1z"/>
								</g>
							</g>
						</g>
					</g>
				</g>
			</g>
			<g>
				<g>
					<g>
						<g>
							<g>
								<g>
									<path class="st2" d="M227,620.2c0,0,0.2,0.3,0.3,1c0.2,0.6,0.3,1.6,0.2,2.8c-0.1,2.4-1.3,5.7-3.3,8.3
										c-1,1.3-2.1,2.5-3.1,3.4c-1.1,0.9-2.1,1.5-3,1.8c-0.9,0.4-1.7,0.6-2.2,0.7c-0.5,0.1-0.8,0.1-0.8,0.1c0-0.1,1.1-0.3,2.9-1.1
										c0.9-0.4,1.9-1,2.9-1.9c1-0.9,2-2,3-3.3c2-2.6,3.2-5.6,3.3-8C227.5,621.6,226.9,620.3,227,620.2z"/>
								</g>
							</g>
						</g>
					</g>
				</g>
			</g>
			<g>
				<g>
					<g>
						<g>
							<g>
								<g>
									<path class="st2" d="M288.3,637.4c0,0-0.5-0.8-1.6-1.9c-1.1-1.1-2.9-2.6-5.3-3.1c-1.2-0.3-2.6-0.2-4.1,0.1
										c-1.5,0.3-3,0.8-4.8,0.6c-1.8-0.2-3.3-1.6-4.7-3c-1.4-1.4-3-2.8-4.8-3.6c-3.6-1.6-7.4-1.4-10.6-0.2c-3.2,1.2-5.8,3.2-7.8,5
										c-2,1.9-3.5,3.7-4.5,4.9c-0.5,0.6-0.9,1.1-1.2,1.5c-0.3,0.3-0.4,0.5-0.4,0.5c0,0,0.1-0.2,0.4-0.6c0.2-0.4,0.6-0.9,1.1-1.5
										c1-1.3,2.4-3.1,4.5-5.1c2-1.9,4.6-4,7.9-5.2c3.2-1.2,7.1-1.5,10.8,0.2c1.9,0.8,3.5,2.2,4.9,3.7c1.4,1.4,2.9,2.7,4.5,2.9
										c1.6,0.2,3.2-0.2,4.7-0.5c1.5-0.3,2.9-0.4,4.2-0.1c2.5,0.6,4.3,2.1,5.4,3.3C287.9,636.5,288.3,637.4,288.3,637.4z"/>
								</g>
							</g>
						</g>
					</g>
				</g>
			</g>
			<g>
				<g>
					<g>
						<g>
							<g>
								<g>
									<path class="st2" d="M343.1,619.6c0,0-0.1,0.2-0.4,0.6c-0.3,0.4-0.6,1-1.2,1.8c-1,1.5-2.7,3.5-5,5.6
										c-2.3,2.1-5.2,4.3-8.6,6.1c-1.7,0.9-3.6,1.7-5.6,2.3c-2,0.6-4.1,1-6.2,1c-4.3,0-8.4-1.3-11.8-3.1c-3.5-1.8-6.4-4-8.6-6.2
										c-2.3-2.2-3.9-4.2-4.9-5.7c-0.5-0.7-0.9-1.4-1.2-1.8c-0.3-0.4-0.4-0.6-0.4-0.6c0,0,0.2,0.2,0.4,0.6c0.3,0.4,0.7,1,1.2,1.7
										c1.1,1.5,2.7,3.4,5,5.5c2.3,2.1,5.1,4.3,8.6,6.1c3.4,1.8,7.4,3.1,11.7,3.1c2.1,0,4.2-0.4,6.2-1c2-0.6,3.8-1.3,5.5-2.2
										c3.4-1.7,6.3-3.9,8.6-5.9c2.3-2.1,4-4,5-5.5c0.6-0.7,0.9-1.3,1.2-1.7C342.9,619.8,343.1,619.6,343.1,619.6z"/>
								</g>
							</g>
						</g>
					</g>
				</g>
			</g>
			<g>
				<g>
					<g>
						<g>
							<g>
								<g>
									<path class="st2" d="M335.2,619.5c0,0-0.1,0.1-0.3,0.3c-0.2,0.2-0.5,0.5-0.9,0.8c-0.8,0.6-1.9,1.5-3.4,2.5
										c-1.5,0.9-3.3,2-5.4,2.8c-2.1,0.8-4.5,1.5-7,1.5c-5.1,0-9.6-2.2-12.5-4c-1.5-1-2.6-1.9-3.4-2.5c-0.4-0.3-0.7-0.6-0.9-0.8
										c-0.2-0.2-0.3-0.3-0.3-0.3c0,0,0.4,0.3,1.2,0.9c0.8,0.6,1.9,1.5,3.4,2.4c3,1.8,7.4,3.8,12.4,3.8c2.5,0,4.9-0.7,6.9-1.5
										c2.1-0.8,3.9-1.8,5.4-2.7c1.5-0.9,2.7-1.7,3.5-2.3C334.8,619.8,335.2,619.4,335.2,619.5z"/>
								</g>
							</g>
						</g>
					</g>
				</g>
			</g>
			<g>
				<g>
					<g>
						<g>
							<g>
								<g>
									<path class="st2" d="M395,621.4c0,0-0.2,0-0.7,0c-0.5,0-1.2-0.1-1.9-0.1c-0.4,0-0.9,0-1.4-0.1c-0.5,0-1.1,0-1.7,0
										c-1.2,0-2.5,0-4,0c-0.7,0-1.5,0.1-2.3,0.1c-0.8,0.1-1.7,0.1-2.5,0.2c-1.8,0.1-3.6,0.4-5.5,0.7c-3.9,0.6-8,1.5-12.3,2.7
										c-4.2,1.2-8.1,2.7-11.5,4.2c-1.7,0.8-3.3,1.5-4.7,2.3c-0.7,0.4-1.4,0.7-2.1,1.1c-0.6,0.4-1.2,0.7-1.8,1.1
										c-1.2,0.7-2.2,1.4-3,2c-0.4,0.3-0.8,0.6-1.2,0.8c-0.3,0.3-0.7,0.5-1,0.7c-0.5,0.4-1,0.7-1.4,1c-0.3,0.2-0.5,0.3-0.5,0.3
										c0,0,0.1-0.1,0.4-0.4c0.3-0.3,0.8-0.7,1.3-1.1c0.3-0.2,0.6-0.5,0.9-0.8c0.4-0.3,0.8-0.6,1.2-0.9c0.9-0.6,1.8-1.3,3-2
										c0.6-0.4,1.2-0.7,1.8-1.1c0.7-0.4,1.3-0.7,2.1-1.1c1.4-0.8,3-1.5,4.7-2.3c3.4-1.5,7.3-3,11.6-4.3c4.3-1.2,8.5-2.1,12.4-2.7
										c2-0.2,3.8-0.5,5.6-0.6c0.9-0.1,1.7-0.1,2.6-0.2c0.8,0,1.6,0,2.4-0.1c1.5-0.1,2.9,0,4.1,0c0.6,0,1.1,0,1.7,0.1
										c0.5,0,1,0.1,1.4,0.1c0.8,0.1,1.4,0.1,1.9,0.2C394.7,621.3,395,621.4,395,621.4z"/>
								</g>
							</g>
						</g>
					</g>
				</g>
			</g>
			<g>
				<g>
					<g>
						<g>
							<g>
								<g>
									<path class="st2" d="M294.5,637.1c0,0-0.5-1.2-1.9-2.8c-1.3-1.7-3.7-3.6-6.9-4.9c-1.6-0.6-3.4-1.1-5.4-1.5
										c-2-0.4-4.1-0.7-6.3-1.2c-2.2-0.5-4.5-1.3-6.8-2.2c-2.3-0.9-4.7-1.8-7.3-2.2c-5.1-0.8-10,0.5-14.2,2.5
										c-2.1,1-4,2.1-5.8,3.3c-1.8,1.1-3.4,2.3-4.9,3.3c-2.9,2.1-5.3,3.9-6.9,5.2c-0.8,0.6-1.4,1.1-1.9,1.4
										c-0.2,0.1-0.4,0.3-0.5,0.4c-0.1,0.1-0.2,0.1-0.2,0.1c0,0,0-0.1,0.1-0.2c0.1-0.1,0.3-0.2,0.5-0.4c0.4-0.4,1-0.9,1.8-1.5
										c1.6-1.3,3.9-3.2,6.8-5.3c1.5-1.1,3.1-2.2,4.8-3.4c1.8-1.2,3.7-2.4,5.8-3.4c4.2-2,9.2-3.4,14.4-2.6c2.6,0.4,5,1.4,7.3,2.3
										c2.3,0.9,4.6,1.7,6.8,2.2c2.2,0.5,4.3,0.8,6.3,1.2c2,0.4,3.8,0.9,5.4,1.6c3.2,1.3,5.6,3.4,6.9,5.1
										C294,635.8,294.5,637.1,294.5,637.1z"/>
								</g>
							</g>
						</g>
					</g>
				</g>
			</g>
			<g>
				<g>
					<g>
						<g>
							<g>
								<g>
									<path class="st2" d="M217.6,619.7c0,0,0,0.4,0,1.2c-0.1,0.8-0.3,1.9-0.7,3.2c-0.8,2.6-2.4,6.1-5.2,8.5
										c-2.8,2.3-5.7,3.7-7.8,4.6c-1,0.4-1.9,0.8-2.5,0.9c-0.6,0.2-0.9,0.3-0.9,0.2c0,0,0.3-0.2,0.9-0.4c0.7-0.3,1.5-0.7,2.4-1.1
										c2-1,4.9-2.4,7.6-4.6c2.7-2.3,4.4-5.7,5.2-8.2C217.4,621.5,217.5,619.7,217.6,619.7z"/>
								</g>
							</g>
						</g>
					</g>
				</g>
			</g>
			<g>
				<g>
					<g>
						<g>
							<g>
								<g>
									<path class="st2" d="M138.3,638.4c0,0,0.3-0.4,0.8-1c0.5-0.6,1.4-1.5,2.4-2.5c2.1-2.1,5.2-4.7,8.7-7.1
										c3.5-2.5,6.9-4.5,9.3-5.9c1.2-0.7,2.2-1.3,2.9-1.6c0.7-0.4,1.1-0.6,1.1-0.5c0,0-0.3,0.3-1,0.7c-0.7,0.5-1.7,1.1-2.8,1.8
										c-2.4,1.5-5.7,3.5-9.2,6c-3.5,2.5-6.6,5-8.7,7c-1.1,1-1.9,1.8-2.5,2.4C138.7,638.2,138.3,638.5,138.3,638.4z"/>
								</g>
							</g>
						</g>
					</g>
				</g>
			</g>
			<g>
				<g>
					<g>
						<g>
							<g>
								<g>
									<path class="st2" d="M154.4,620.5c0,0.1-0.8-0.1-2.2,0c-1.4,0.1-3.4,0.7-5.7,2.2c-2.3,1.4-4.7,3.8-7.4,6.3
										c-1.4,1.3-2.8,2.6-4.5,3.7c-1.6,1.1-3.4,2-5.3,2.6c-3.8,1.2-7.5,1.5-10.9,1.7c-3.4,0.1-6.4,0-8.9,0.2
										c-2.5,0.1-4.6,0.4-6,0.7c-0.7,0.2-1.2,0.3-1.6,0.4c-0.4,0.1-0.6,0.1-0.6,0.1c0,0,0.2-0.1,0.5-0.2c0.4-0.1,0.9-0.3,1.6-0.5
										c1.4-0.4,3.5-0.8,6-0.9c2.6-0.2,5.6-0.1,8.9-0.3c3.4-0.2,7.1-0.5,10.8-1.7c1.9-0.6,3.6-1.5,5.2-2.6
										c1.6-1.1,3.1-2.4,4.4-3.6c2.7-2.5,5.2-4.9,7.5-6.3c2.3-1.4,4.4-2,5.8-2.1c0.7,0,1.3,0,1.6,0.1
										C154.2,620.5,154.4,620.5,154.4,620.5z"/>
								</g>
							</g>
						</g>
					</g>
				</g>
			</g>
		</g>
		<g>
			<g>
				<g>
					<g>
						<g>
							<g>
								<polygon class="st28" points="99.4,865.9 94.6,865.9 91.8,637 102.2,637 								"/>
							</g>
						</g>
					</g>
				</g>
			</g>
			<g>
				<g>
					<g>
						<g>
							<g>
								<polygon class="st2" points="412.2,865.5 407.3,865.5 409.8,637.6 420.1,637.6 								"/>
							</g>
						</g>
					</g>
				</g>
			</g>
		</g>
		<g>
			<g>
				<g>
					<g>
						<rect x="393.1" y="619.5" class="st2" width="43.3" height="19"/>
					</g>
				</g>
			</g>
		</g>
	</g>
</g>
</svg>
