<?xml version="1.0" encoding="utf-8"?>
<!-- Generator: Adobe Illustrator 24.2.3, SVG Export Plug-In . SVG Version: 6.00 Build 0)  -->
<svg version="1.1" id="Layer_1" xmlns="http://www.w3.org/2000/svg" xmlns:xlink="http://www.w3.org/1999/xlink" x="0px" y="0px"
	 viewBox="0 0 1000 1000" style="enable-background:new 0 0 1000 1000;" xml:space="preserve">
<style type="text/css">
	.st0{fill:#ECECEC;}
	.st1{fill:#E1E1E1;}
	.st2{fill:#FAFAFA;}
	.st3{fill:#F5F5F5;}
	.st4{fill:#525252;}
	.st5{fill:#F9D3B9;}
	.st6{fill:#FCBF90;}
	.st7{fill:#F9AE70;}
	.st8{fill:#FFA14D;}
	.st9{fill:#FC9732;}
	.st10{fill:#FF8900;}
	.st11{fill:#00ADAD;}
	.st12{fill:#FFBB15;}
	.st13{fill:#FFFFFF;}
	.st14{fill:#314C4C;}
	.st15{fill:#3D290F;}
	.st16{fill:#FFBF9D;}
	.st17{opacity:0.8;}
	.st18{fill:#FF9A6C;}
	.st19{fill:#563122;}
	.st20{fill:#DD7F5B;}
	.st21{fill:#84D3D1;}
	.st22{fill:#16C1BC;}
	.st23{fill:#333333;}
	.st24{fill:#37938E;}
	.st25{fill:#4FB7B4;}
	.st26{fill:#BF654E;}
	.st27{fill:#2D2115;}
	.st28{fill:#AE4F32;}
	.st29{fill:#375A64;}
	.st30{opacity:0.1;}
	.st31{fill:none;stroke:#7A9198;stroke-miterlimit:10;}
	.st32{opacity:0.3;}
	.st33{opacity:0.8;fill:#FF9A6C;}
	.st34{opacity:0.5;fill:#FF9A6C;}
</style>
<circle class="st0" cx="500" cy="554" r="430.5"/>
<g>
	<path class="st1" d="M627.8,250.1c0,0,21.8,0.3,12.5,43.4c-9.3,43.1-8.1,51.3-8.1,68.3c0,20,16.1,27.1,16.1,27.1h-29.5L597,288.4
		v-38.3H627.8z"/>
</g>
<g>
	<polygon class="st1" points="634.2,589.6 336,589.6 338.6,297.8 619.6,283.1 	"/>
</g>
<g>
	<polygon class="st0" points="624,582.1 325.7,582.1 328.4,290.3 618,284.6 	"/>
</g>
<g>
	<g>
		<polygon class="st2" points="617.8,573.9 320.2,573.9 320.2,282.1 618,281.4 		"/>
	</g>
</g>
<g>
	<path class="st3" d="M618,280.6c-15.4-17.9,2.5-31.2,8.5-31.4L343.1,249c-14.8,0-26.1,13.3-23.5,27.9c0.4,2.2,1.1,4.4,1.1,4.4"/>
</g>
<g>
	<g>
		<path class="st2" d="M441.9,258.1c0.1,0.1-0.7,1.2-1.6,3.3c-0.4,1-0.8,2.3-1.1,3.8c-0.2,1.5-0.3,3.1-0.2,4.8
			c0.1,1.7,0.5,3.3,1,4.7c0.5,1.4,1,2.6,1.6,3.5c1.1,1.9,2.2,2.9,2.1,3c0,0-0.3-0.2-0.8-0.6c-0.5-0.4-1.1-1.1-1.7-2.1
			c-0.7-0.9-1.3-2.2-1.8-3.6c-0.5-1.4-0.9-3.1-1-4.8c-0.1-1.8,0-3.4,0.3-4.9c0.3-1.5,0.8-2.8,1.3-3.8c0.5-1,1-1.8,1.4-2.3
			C441.7,258.4,441.9,258.1,441.9,258.1z"/>
	</g>
</g>
<g>
	<g>
		<path class="st2" d="M434.9,248c0.1,0.1-1.8,1.5-3.8,4.6c-1.9,3-3.7,8.1-2.7,13.7c1,5.5,4.5,9.6,7.4,11.8c2.9,2.2,5.2,2.8,5.2,2.9
			c0,0-0.6-0.1-1.6-0.4c-1-0.3-2.4-1-3.9-2.1c-3.1-2.1-6.8-6.3-7.9-12.1c-1.1-5.8,0.9-11,3-14.1c1.1-1.6,2.1-2.7,2.9-3.4
			C434.3,248.3,434.8,248,434.9,248z"/>
	</g>
</g>
<g>
	<g>
		<path class="st4" d="M595.1,475.8c0,0-0.3,0-0.9,0c-0.6,0-1.6,0-2.7,0c-2.4,0-6,0-10.5,0.1c-9.2,0-22.4,0.1-38.7,0.1
			c-32.7,0-77.8,0.1-127.6,0.1c-19.3,0-37.9,0-55,0l-0.4,0l0-0.4c0.1-36.5,0.1-67.8,0.1-90.1c0-11.1,0.1-19.9,0.1-26
			c0-3,0-5.3,0.1-6.9c0-0.8,0-1.4,0-1.8c0-0.4,0-0.6,0-0.6s0,0.2,0,0.6c0,0.4,0,1,0,1.8c0,1.6,0,3.9,0.1,6.9c0,6.1,0.1,14.9,0.1,26
			c0,22.3,0.1,53.6,0.1,90.1l-0.4-0.4c17.1,0,35.7,0,55,0c49.8,0,95,0.1,127.6,0.1c16.3,0,29.5,0.1,38.7,0.1c4.5,0,8.1,0.1,10.5,0.1
			c1.2,0,2.1,0,2.7,0C594.7,475.8,595.1,475.8,595.1,475.8z"/>
	</g>
</g>
<g>
	<rect x="378.6" y="444.8" class="st5" width="23.8" height="23.8"/>
</g>
<g>
	<rect x="413.5" y="427.8" class="st6" width="23.8" height="40.8"/>
</g>
<g>
	<rect x="448.5" y="408.5" class="st7" width="23.8" height="60.1"/>
</g>
<g>
	<rect x="482.5" y="387" class="st8" width="23.8" height="81.6"/>
</g>
<g>
	<rect x="517.2" y="359.4" class="st9" width="23.8" height="109.2"/>
</g>
<g>
	<rect x="551.7" y="338.4" class="st10" width="23.8" height="129.1"/>
</g>
<g>
	<g>
		<path class="st4" d="M378.6,420.4c0,0,0.1-0.1,0.3-0.2c0.2-0.2,0.5-0.4,0.9-0.6c0.9-0.6,2.1-1.4,3.6-2.4c3.2-2.1,7.8-5.2,13.6-9
			c11.7-7.7,28.2-18.4,47.2-30.9l0.5-0.4l0,0.7c0,3.4,0,7,0,10.7l-0.6-0.3c6-4,12.2-8.2,18.6-12.5c25.6-17.1,48.8-32.6,65.7-43.9
			c8.4-5.6,15.2-10.1,19.9-13.2c2.3-1.5,4.2-2.7,5.4-3.6c0.6-0.4,1.1-0.7,1.4-0.9c0.3-0.2,0.5-0.3,0.5-0.3c0,0-0.1,0.1-0.5,0.4
			c-0.3,0.2-0.8,0.6-1.4,1c-1.3,0.9-3.1,2.1-5.4,3.7c-4.7,3.2-11.5,7.8-19.8,13.4c-16.8,11.3-40,26.9-65.5,44.1
			c-6.4,4.3-12.6,8.4-18.6,12.5l-0.6,0.4l0-0.7c0-3.7,0-7.3,0-10.7l0.5,0.3c-19.1,12.4-35.6,23-47.4,30.6
			c-5.8,3.7-10.5,6.7-13.7,8.8c-1.6,1-2.8,1.8-3.7,2.3c-0.4,0.2-0.7,0.4-1,0.6C378.7,420.4,378.6,420.4,378.6,420.4z"/>
	</g>
</g>
<g>
	<g>
		<path class="st4" d="M555.9,323.6c-0.1,0-0.2-1.1-0.3-2.9c-0.1-1.8-0.1-4.4-0.1-7.2l0.4,0.4c-0.3,0-0.6,0-0.9,0
			c-3,0-5.8,0-7.8-0.1c-2-0.1-3.2-0.2-3.2-0.3s1.2-0.2,3.2-0.3c2-0.1,4.8-0.1,7.8-0.1c0.3,0,0.6,0,0.9,0l0.4,0l0,0.4
			c0,2.8-0.1,5.4-0.1,7.2C556.1,322.5,556,323.6,555.9,323.6z"/>
	</g>
</g>
<g>
	<g>
		<g>
			<path class="st4" d="M430.2,495c0,0.2-7.4,0.4-16.4,0.4c-9.1,0-16.4-0.2-16.4-0.4c0-0.2,7.4-0.4,16.4-0.4
				C422.8,494.6,430.2,494.8,430.2,495z"/>
		</g>
	</g>
	<g>
		<g>
			<path class="st4" d="M413.3,506.3c-0.2,0-0.4-1.7-0.4-3.8c0-2.1,0.2-3.8,0.4-3.8c0.2,0,0.4,1.7,0.4,3.8
				C413.7,504.5,413.5,506.3,413.3,506.3z"/>
		</g>
	</g>
	<g>
		<g>
			<path class="st4" d="M453.6,510.1c0,0.2-19.7,0.4-44.1,0.4c-24.4,0-44.1-0.2-44.1-0.4c0-0.2,19.7-0.4,44.1-0.4
				C433.8,509.7,453.6,509.9,453.6,510.1z"/>
		</g>
	</g>
	<g>
		<g>
			<path class="st4" d="M365.9,521.1c-0.2,0-0.4-2.4-0.4-5.3c0-2.9,0.2-5.3,0.4-5.3s0.4,2.4,0.4,5.3
				C366.3,518.7,366.2,521.1,365.9,521.1z"/>
		</g>
	</g>
	<g>
		<g>
			<path class="st4" d="M397.3,519.9c-0.2,0-0.4-2.1-0.4-4.6c0-2.5,0.2-4.6,0.4-4.6c0.2,0,0.4,2.1,0.4,4.6
				C397.7,517.8,397.5,519.9,397.3,519.9z"/>
		</g>
	</g>
	<g>
		<g>
			<path class="st4" d="M429.6,520.5c-0.2,0-0.4-2.3-0.4-5c0-2.8,0.2-5,0.4-5c0.2,0,0.4,2.3,0.4,5
				C430,518.2,429.8,520.5,429.6,520.5z"/>
		</g>
	</g>
	<g>
		<g>
			<path class="st4" d="M454.2,520.5c-0.2,0-0.4-2.3-0.4-5.2c0-2.9,0.2-5.2,0.4-5.2c0.2,0,0.4,2.3,0.4,5.2
				C454.5,518.2,454.4,520.5,454.2,520.5z"/>
		</g>
	</g>
	<g>
		<g>
			<path class="st4" d="M376.9,524c0,0.2-4.8,0.4-10.7,0.4c-5.9,0-10.7-0.2-10.7-0.4c0-0.2,4.8-0.4,10.7-0.4
				C372.1,523.7,376.9,523.8,376.9,524z"/>
		</g>
	</g>
	<g>
		<g>
			<path class="st4" d="M404.1,524c0,0.2-3.6,0.4-8.1,0.4c-4.5,0-8.1-0.2-8.1-0.4c0-0.2,3.6-0.4,8.1-0.4
				C400.5,523.7,404.1,523.8,404.1,524z"/>
		</g>
	</g>
	<g>
		<g>
			<path class="st4" d="M438.8,524.9c0,0.2-3.9,0.4-8.7,0.4c-4.8,0-8.7-0.2-8.7-0.4s3.9-0.4,8.7-0.4
				C434.8,524.5,438.8,524.7,438.8,524.9z"/>
		</g>
	</g>
	<g>
		<g>
			<path class="st4" d="M466.9,523.4c0,0.2-4.2,0.4-9.3,0.4c-5.2,0-9.3-0.2-9.3-0.4c0-0.2,4.2-0.4,9.3-0.4
				C462.7,523.1,466.9,523.2,466.9,523.4z"/>
		</g>
	</g>
	<g>
		<g>
			<g>
				<path class="st4" d="M366.2,534.4c-0.2,0-0.4-1.4-0.4-3.1c0-1.7,0.2-3.1,0.4-3.1s0.4,1.4,0.4,3.1
					C366.6,533,366.4,534.4,366.2,534.4z"/>
			</g>
		</g>
		<g>
			<g>
				<path class="st4" d="M386.5,534.4c0,0.2-8.6,0.4-19.2,0.4c-10.6,0-19.2-0.2-19.2-0.4c0-0.2,8.6-0.4,19.2-0.4
					C377.9,534,386.5,534.2,386.5,534.4z"/>
			</g>
		</g>
		<g>
			<g>
				<path class="st4" d="M386.5,543.3c-0.2,0-0.4-2-0.4-4.4c0-2.5,0.2-4.4,0.4-4.4s0.4,2,0.4,4.4
					C386.9,541.3,386.7,543.3,386.5,543.3z"/>
			</g>
		</g>
		<g>
			<g>
				<path class="st4" d="M348,543.9c-0.2,0-0.4-2.1-0.4-4.7c0-2.6,0.2-4.7,0.4-4.7s0.4,2.1,0.4,4.7
					C348.4,541.7,348.2,543.9,348,543.9z"/>
			</g>
		</g>
	</g>
	<g>
		<g>
			<g>
				<path class="st4" d="M430.4,534.4c-0.2,0-0.4-1.4-0.4-3.1c0-1.7,0.2-3.1,0.4-3.1c0.2,0,0.4,1.4,0.4,3.1
					C430.7,533,430.6,534.4,430.4,534.4z"/>
			</g>
		</g>
		<g>
			<g>
				<path class="st4" d="M477.1,534.4c0,0.2-14.6,0.4-32.5,0.4c-18,0-32.5-0.2-32.5-0.4c0-0.2,14.5-0.4,32.5-0.4
					C462.6,534,477.1,534.2,477.1,534.4z"/>
			</g>
		</g>
		<g>
			<g>
				<path class="st4" d="M450.6,543.3c-0.2,0-0.4-2-0.4-4.4c0-2.5,0.2-4.4,0.4-4.4c0.2,0,0.4,2,0.4,4.4
					C451,541.3,450.8,543.3,450.6,543.3z"/>
			</g>
		</g>
		<g>
			<g>
				<path class="st4" d="M478.5,543.3c-0.2,0-0.4-2-0.4-4.4c0-2.5,0.2-4.4,0.4-4.4s0.4,2,0.4,4.4
					C478.8,541.3,478.7,543.3,478.5,543.3z"/>
			</g>
		</g>
		<g>
			<g>
				<path class="st4" d="M412.2,543.9c-0.2,0-0.4-2.1-0.4-4.7c0-2.6,0.2-4.7,0.4-4.7s0.4,2.1,0.4,4.7
					C412.5,541.7,412.4,543.9,412.2,543.9z"/>
			</g>
		</g>
	</g>
	<g>
		<g>
			<path class="st4" d="M355.6,549.3c0,0.2-3.4,0.4-7.6,0.4c-4.2,0-7.6-0.2-7.6-0.4c0-0.2,3.4-0.4,7.6-0.4
				C352.2,548.9,355.6,549.1,355.6,549.3z"/>
		</g>
	</g>
	<g>
		<g>
			<path class="st4" d="M393.3,548.2c0,0.2-3.7,0.4-8.2,0.4c-4.5,0-8.2-0.2-8.2-0.4s3.7-0.4,8.2-0.4
				C389.6,547.9,393.3,548,393.3,548.2z"/>
		</g>
	</g>
	<g>
		<g>
			<path class="st4" d="M420.5,548.2c0,0.2-3.2,0.4-7.2,0.4c-4,0-7.2-0.2-7.2-0.4s3.2-0.4,7.2-0.4
				C417.3,547.9,420.5,548,420.5,548.2z"/>
		</g>
	</g>
	<g>
		<g>
			<path class="st4" d="M457.2,548.2c0,0.2-3.5,0.4-7.8,0.4c-4.3,0-7.8-0.2-7.8-0.4s3.5-0.4,7.8-0.4
				C453.7,547.9,457.2,548,457.2,548.2z"/>
		</g>
	</g>
	<g>
		<g>
			<path class="st4" d="M486.6,547.2c0,0.2-3.6,0.4-8,0.4c-4.4,0-8-0.2-8-0.4c0-0.2,3.6-0.4,8-0.4C483,546.9,486.6,547,486.6,547.2z
				"/>
		</g>
	</g>
</g>
<g>
	<g>
		<path class="st4" d="M594.8,553H494.4v-62.2h100.5V553z M494.4,553h100.3v-62.1H494.4V553z"/>
	</g>
	<g>
		<g>
			<path class="st11" d="M570.6,535.8c-7-2.6-15,4.7-21.8,1.7c-4-1.7-5.8-6.2-7.7-10.1c-1.9-3.9-5.3-8-9.6-7.5
				c-4.3,0.5-7.9,5.5-12.1,4.3c-2.6-0.8-4-3.7-4.6-6.4c-0.7-2.7-1.1-5.6-3.1-7.5c-2-1.9-6.2-1.4-6.5,1.4v32.9h78.5
				C583.6,544.6,573,536.7,570.6,535.8z"/>
		</g>
	</g>
	<g>
		<g>
			<g>
				<path class="st1" d="M585.7,544.6c0,0.1-19,0.1-42.5,0.1c-23.5,0-42.5-0.1-42.5-0.1c0-0.1,19-0.1,42.5-0.1
					C566.7,544.4,585.7,544.5,585.7,544.6z"/>
			</g>
		</g>
	</g>
	<g>
		<g>
			<g>
				<path class="st4" d="M585.7,530.2c0,0.1-19,0.1-42.5,0.1c-23.5,0-42.5-0.1-42.5-0.1c0-0.1,19-0.1,42.5-0.1
					C566.7,530,585.7,530.1,585.7,530.2z"/>
			</g>
		</g>
	</g>
	<g>
		<g>
			<g>
				<path class="st4" d="M585.7,515.8c0,0.1-19,0.1-42.5,0.1c-23.5,0-42.5-0.1-42.5-0.1c0-0.1,19-0.1,42.5-0.1
					C566.7,515.6,585.7,515.7,585.7,515.8z"/>
			</g>
		</g>
	</g>
	<g>
		<g>
			<g>
				<path class="st4" d="M585.7,502.1c0,0.1-19,0.1-42.5,0.1c-23.5,0-42.5-0.1-42.5-0.1c0-0.1,19-0.1,42.5-0.1
					C566.7,502,585.7,502,585.7,502.1z"/>
			</g>
		</g>
	</g>
</g>
<g>
	<g>
		<g>
			<g>
				<g>
					<path class="st12" d="M359.5,302.6c0,0,0,0,0.1,0c0.1,0,0.2,0,0.4,0c0.4,0,0.9,0,1.6,0.1c0.7,0.1,1.5,0.4,2.4,0.8
						c0.9,0.5,1.8,1.2,2.5,2.2c0.7,1,1.4,2.2,1.7,3.7c0.3,1.5,0,3.1-0.6,4.6c-0.3,0.8-0.7,1.5-1.2,2.3c-0.5,0.7-0.9,1.5-1.3,2.3
						c-0.8,1.6-1.4,3.4-1.7,5.3l0,0.1l-0.1,0c-1.2,0-2.4-0.1-3.7-0.1c-1.3,0-2.7-0.1-3.9-0.1l-0.1,0l0-0.1c0-1.9-0.8-3.7-1.6-5.2
						c-0.4-0.8-0.9-1.5-1.3-2.3c-0.4-0.7-0.9-1.4-1.2-2.2c-0.7-1.5-0.7-3.2-0.4-4.6c0.3-1.4,0.9-2.7,1.6-3.7c0.7-1,1.7-1.7,2.5-2.1
						c0.9-0.4,1.7-0.7,2.3-0.8c0.7-0.1,1.2-0.2,1.5-0.2c0.2,0,0.3,0,0.4,0C359.4,302.6,359.5,302.6,359.5,302.6c0,0,0,0-0.1,0
						c-0.1,0-0.2,0-0.4,0c-0.4,0-0.9,0.1-1.5,0.2c-0.7,0.1-1.5,0.4-2.3,0.8c-0.8,0.4-1.7,1.1-2.5,2.1c-0.7,1-1.2,2.2-1.5,3.6
						c-0.3,1.4-0.2,3,0.4,4.5c0.3,0.7,0.8,1.4,1.2,2.2c0.4,0.7,0.9,1.5,1.3,2.3c0.8,1.6,1.7,3.4,1.6,5.4l-0.1-0.1
						c1.2,0,2.6,0.1,3.9,0.1c1.3,0,2.5,0.1,3.7,0.1l-0.1,0.1c0.3-1.9,1-3.7,1.8-5.4c0.4-0.8,0.9-1.6,1.3-2.3
						c0.5-0.7,0.8-1.5,1.1-2.2c0.6-1.5,0.8-3.1,0.6-4.5c-0.2-1.4-0.9-2.6-1.6-3.6c-0.7-1-1.6-1.7-2.4-2.1c-0.8-0.5-1.7-0.7-2.3-0.8
						c-0.7-0.1-1.2-0.2-1.5-0.2c-0.2,0-0.3,0-0.4,0C359.5,302.6,359.5,302.6,359.5,302.6z"/>
				</g>
			</g>
		</g>
		<g>
			<g>
				<g>
					<path class="st12" d="M360.6,323.6c0,0,0,0,0-0.1c0-0.1,0-0.2,0-0.4c0-0.3-0.1-0.8-0.2-1.4c-0.1-1.2-0.3-2.9-0.4-5
						c0-0.5,0-1.1,0-1.7c0-0.6,0-1.2,0.1-1.8c0.1-0.6,0.2-1.3,0.5-1.9c0.3-0.6,0.8-1.1,1.5-1.4c0.7-0.3,1.5-0.1,2,0.5
						c0.3,0.3,0.4,0.7,0.4,1c0,0.4-0.2,0.8-0.4,1.1c-0.2,0.3-0.6,0.5-0.9,0.7c-0.4,0.2-0.7,0.3-1.1,0.3c-0.8,0.1-1.6,0.2-2.4,0.2
						c-0.8,0-1.6-0.1-2.4-0.2c-0.4-0.1-0.8-0.2-1.1-0.4c-0.4-0.2-0.7-0.4-0.9-0.7c-0.3-0.3-0.4-0.6-0.5-1c-0.1-0.4,0-0.8,0.2-1.1
						c0.2-0.3,0.5-0.6,0.8-0.7c0.4-0.1,0.8-0.1,1.1,0.1c0.3,0.2,0.6,0.4,0.8,0.7c0.2,0.3,0.3,0.6,0.4,1c0.1,0.7,0.1,1.3,0.1,1.9
						c0,1.2,0,2.4,0,3.5c0,2.1,0,3.8,0.1,5c0,0.6,0,1,0,1.4c0,0.2,0,0.3,0,0.4c0,0.1,0,0.1,0,0.1s0,0,0-0.1c0-0.1,0-0.2,0-0.4
						c0-0.3,0-0.8,0-1.4c0-1.2-0.1-2.9-0.1-5c0-1.1,0-2.2-0.1-3.5c0-0.6,0-1.3-0.1-1.9c-0.1-0.3-0.2-0.6-0.3-0.9
						c-0.2-0.3-0.4-0.5-0.7-0.7c-0.3-0.2-0.7-0.2-1-0.1c-0.3,0.1-0.6,0.4-0.8,0.7c-0.2,0.3-0.2,0.7-0.2,1c0.1,0.4,0.2,0.7,0.5,1
						c0.5,0.6,1.2,0.9,2,1c0.8,0.1,1.6,0.2,2.4,0.2c0.8,0,1.6,0,2.4-0.2c0.4-0.1,0.8-0.2,1.1-0.3c0.3-0.2,0.7-0.4,0.9-0.7
						c0.2-0.3,0.4-0.6,0.4-1c0-0.4-0.1-0.7-0.4-1c-0.5-0.5-1.3-0.7-1.9-0.4c-0.6,0.2-1.1,0.8-1.4,1.3c-0.3,0.6-0.4,1.2-0.5,1.8
						c-0.1,0.6-0.1,1.2-0.1,1.8c0,0.6,0,1.1,0,1.7c0.1,2.1,0.2,3.8,0.4,5c0.1,0.6,0.1,1,0.1,1.4c0,0.2,0,0.3,0,0.4
						C360.6,323.5,360.6,323.6,360.6,323.6z"/>
				</g>
			</g>
		</g>
		<g>
			<g>
				<g>
					<path class="st12" d="M355.6,323.6c0,0,0,0.5,0,1.3c0,0.9,0,2,0,3.3l0-0.1c0.7,0.9,1.5,1.9,2.4,3L358,331c0.9,0,1.9,0,2.9,0
						l-0.1,0.1c0.5-0.6,1-1.1,1.5-1.7c0.3-0.3,0.5-0.6,0.8-0.9l0,0.1c0-1.7,0.1-3.3,0.1-4.8l0.2,0.2c-2.1-0.1-4-0.1-5.5-0.2
						c-0.6,0-1.1,0-1.6-0.1C355.8,323.6,355.6,323.6,355.6,323.6c0,0,0.2,0,0.5,0c0.5,0,1,0,1.5,0c1.5,0,3.4,0,5.6,0l0.2,0l0,0.2
						c0,1.5,0,3.1,0,4.8l0,0.1l0,0c-0.3,0.3-0.5,0.6-0.8,0.9c-0.5,0.6-1,1.2-1.5,1.7l-0.1,0.1l-0.1,0c-1,0-2,0-2.9,0l-0.1,0l0-0.1
						c-0.9-1.1-1.7-2.1-2.4-3.1l0,0l0,0c0-1.3,0.1-2.4,0.1-3.3C355.6,324,355.6,323.5,355.6,323.6z"/>
				</g>
			</g>
		</g>
		<g>
			<g>
				<g>
					<path class="st12" d="M363,328.1c0,0-0.1,0-0.3-0.1c-0.2-0.1-0.4-0.2-0.7-0.3c-0.6-0.3-1.6-0.5-2.6-0.5c-1.1,0-2,0.2-2.6,0.5
						c-0.3,0.1-0.6,0.2-0.8,0.3c-0.2,0.1-0.3,0.1-0.3,0.1c0,0,0.1-0.1,0.3-0.2c0.2-0.1,0.4-0.2,0.7-0.4c0.6-0.3,1.6-0.5,2.7-0.5
						c1.1,0,2,0.3,2.7,0.6c0.3,0.1,0.6,0.3,0.7,0.4C362.9,328,363,328.1,363,328.1z"/>
				</g>
			</g>
		</g>
		<g>
			<g>
				<g>
					<path class="st12" d="M363.1,326.9c0,0-0.1,0-0.3-0.1c-0.2-0.1-0.4-0.2-0.7-0.3c-0.6-0.3-1.6-0.5-2.6-0.5c-1.1,0-2,0.2-2.6,0.5
						c-0.3,0.1-0.6,0.2-0.8,0.3c-0.2,0.1-0.3,0.1-0.3,0.1c0,0,0.1-0.1,0.3-0.2c0.2-0.1,0.4-0.2,0.7-0.4c0.6-0.3,1.6-0.5,2.7-0.5
						c1.1,0,2,0.3,2.7,0.6c0.3,0.1,0.6,0.3,0.7,0.4C363,326.9,363.1,326.9,363.1,326.9z"/>
				</g>
			</g>
		</g>
		<g>
			<g>
				<g>
					<path class="st12" d="M363,325.8c0,0-0.1,0-0.3-0.1c-0.2-0.1-0.4-0.2-0.7-0.3c-0.6-0.3-1.6-0.5-2.6-0.5c-1.1,0-2,0.2-2.6,0.5
						c-0.3,0.1-0.6,0.2-0.8,0.3c-0.2,0.1-0.3,0.1-0.3,0.1c0,0,0.1-0.1,0.3-0.2c0.2-0.1,0.4-0.2,0.7-0.4c0.6-0.3,1.6-0.5,2.7-0.5
						c1.1,0,2,0.3,2.7,0.6c0.3,0.1,0.6,0.3,0.7,0.4C362.9,325.7,363,325.8,363,325.8z"/>
				</g>
			</g>
		</g>
	</g>
</g>
<g>
	<g>
		<g>
			<path class="st0" d="M380.2,346.8c0,0-2.9,26.3,0.8,40.7l35.1-1.5c0,0-7.5-25.9-2.9-37.4L380.2,346.8z"/>
		</g>
	</g>
	<g>
		<g>
			<g>
				<path class="st12" d="M380.4,346c0,0,0.2,28.4,1.7,37l35.6-1.7c0,0-3.1-27.9-1.9-35.3H380.4z"/>
			</g>
		</g>
		<g>
			<g>
				<g>
					<path class="st13" d="M410.3,357.9c0,0.1-5.3,0.6-11.9,1c-6.6,0.4-11.9,0.6-12,0.5c0-0.1,5.3-0.6,11.9-1
						C405,358,410.3,357.8,410.3,357.9z"/>
				</g>
			</g>
		</g>
		<g>
			<g>
				<g>
					<path class="st13" d="M410.4,363.9c0,0.1-5.3,0.6-11.9,1c-6.6,0.4-11.9,0.6-12,0.5c0-0.1,5.3-0.6,11.9-1
						C405,364,410.3,363.8,410.4,363.9z"/>
				</g>
			</g>
		</g>
		<g>
			<g>
				<g>
					<path class="st13" d="M404.3,369.8c0,0.1-0.8,0.2-2,0.3c-1.2,0.1-2.9,0.2-4.8,0.4c-1.9,0.1-3.6,0.2-4.8,0.2c-1.2,0-2,0-2,0
						c0-0.1,0.8-0.2,2-0.3c1.2-0.1,2.9-0.2,4.8-0.4c1.9-0.1,3.6-0.2,4.8-0.2C403.5,369.7,404.3,369.8,404.3,369.8z"/>
				</g>
			</g>
		</g>
	</g>
</g>
<g>
	<g>
		<path class="st4" d="M471.5,309.6c0,0.2-20.8,0.4-46.5,0.4c-25.7,0-46.5-0.2-46.5-0.4c0-0.2,20.8-0.4,46.5-0.4
			C450.7,309.2,471.5,309.4,471.5,309.6z"/>
	</g>
</g>
<g>
	<g>
		<path class="st4" d="M412.7,318.1c0,0.2-7.8,0.4-17.4,0.4c-9.6,0-17.4-0.2-17.4-0.4c0-0.2,7.8-0.4,17.4-0.4
			C404.9,317.7,412.7,317.9,412.7,318.1z"/>
	</g>
</g>
<g>
	<g>
		<path class="st4" d="M431.2,318.1c0,0.2-3,0.4-6.7,0.4c-3.7,0-6.7-0.2-6.7-0.4c0-0.2,3-0.4,6.7-0.4
			C428.2,317.7,431.2,317.9,431.2,318.1z"/>
	</g>
</g>
<g>
	<g>
		<path class="st1" d="M842.8,660.9c18.8-19.3,48.4-27.4,74.4-20.4c-22.6,15.2-48,23.3-75.3,23.5"/>
	</g>
	<g>
		<path class="st1" d="M868,571.5c-3.1-21.9,5.4-46.6,21.8-62.5C890.4,530.7,881.2,555.2,868,571.5"/>
	</g>
	<g>
		<path class="st1" d="M854.9,613c11.7-22.4,30.9-40.7,53.8-51.4c-6.9,25.2-28.4,45.9-54,51.6"/>
	</g>
	<g>
		<path class="st1" d="M852.2,620.9c13.2,0.4,26.6-0.1,39.4-3.5c12.8-3.4,25.1-9.9,33.6-20c-25.8,0-51.5,7.9-72.8,22.2"/>
	</g>
	<g>
		<path class="st1" d="M858.9,594.6c-6.7-25.2-17.8-42.6-37.6-56.7c-1.5,12.3,1.5,25,8.3,35.3C836.4,583.5,847,591.2,858.9,594.6"/>
	</g>
	<g>
		<path class="st1" d="M808.9,638.1c-0.3-14.6,9.1-29,22.7-34.5C830.5,616.5,820.2,631.6,808.9,638.1"/>
	</g>
	<g>
		<path class="st1" d="M802.6,616.8c-1.5-21-16.5-40.5-36.4-47.4C770.8,590.5,782.9,608,802.6,616.8"/>
	</g>
	<g>
		<path class="st1" d="M812.1,654.5c-4.7-6.7-12.3-10.8-20.2-12.9c-7.9-2.1-16.1-2.2-24.3-2.4c11,12.1,27.5,19,43.8,18.3"/>
	</g>
	<g>
		<path class="st1" d="M821.6,708.2c-14.7-4.5-31.1-3.4-45,3.2c-13.9,6.6-25.2,18.5-31,32.7C773.2,738.9,800.4,726.7,821.6,708.2"/>
	</g>
	<g>
		<path class="st1" d="M851.8,689.6c-4.6,13.5-3.7,29.9,6.5,41.6C862.5,717.2,860,701.5,851.8,689.6"/>
	</g>
	<g>
		<path class="st1" d="M869.7,682c1.3,17.4,12.4,33.8,28.1,41.3c0.8,0.4,1.7,0.7,2.5,0.4c1.2-0.5,1.4-2.2,1.2-3.5
			C899.6,702.9,886.7,686.1,869.7,682"/>
	</g>
	<g>
		<path class="st1" d="M881.4,680.3c7.7,8.4,19,13.3,30.4,13.4c11.4,0.1,22.8-4.8,30.6-13.1C923.1,678.5,900.7,677,881.4,680.3"/>
	</g>
	<g>
		<g>
			<g>
				<path class="st13" d="M884.3,525.2c0,0,0,0.2-0.2,0.6c-0.1,0.4-0.3,0.9-0.6,1.6c-0.5,1.5-1.3,3.6-2.3,6.3c-1,2.7-2.2,6.1-3.6,10
					c-0.7,1.9-1.5,4-2.2,6.2c-0.8,2.2-1.6,4.6-2.4,7c-3.4,9.8-7.3,21.6-11.4,34.7c-4,13.2-8.3,27.7-12.5,43
					c-4.1,15.3-7.8,30-10.9,43.4c-3,13.4-5.6,25.5-7.5,35.8c-0.5,2.6-0.9,5-1.4,7.3c-0.4,2.3-0.8,4.5-1.1,6.5
					c-0.7,4.1-1.3,7.6-1.7,10.5c-0.4,2.8-0.8,5.1-1,6.6c-0.1,0.7-0.2,1.3-0.3,1.7c-0.1,0.4-0.1,0.6-0.1,0.6c0,0,0-0.2,0-0.6
					c0.1-0.4,0.1-1,0.2-1.7c0.2-1.6,0.5-3.8,0.9-6.6c0.4-2.9,0.9-6.4,1.6-10.5c0.3-2,0.7-4.2,1.1-6.5c0.4-2.3,0.9-4.7,1.3-7.3
					c1.8-10.3,4.4-22.4,7.4-35.8c3.1-13.4,6.7-28.1,10.8-43.5c4.2-15.3,8.5-29.9,12.5-43c4.2-13.1,8-24.9,11.5-34.7
					c0.9-2.5,1.7-4.8,2.5-7c0.8-2.2,1.6-4.3,2.3-6.2c1.4-3.9,2.7-7.2,3.8-9.9c1.1-2.7,1.9-4.8,2.5-6.2c0.3-0.7,0.5-1.2,0.7-1.6
					C884.2,525.4,884.3,525.2,884.3,525.2z"/>
			</g>
		</g>
		<g>
			<g>
				<path class="st13" d="M777.8,580.7c0,0,0.1,0.1,0.3,0.3c0.2,0.2,0.5,0.6,0.9,1c0.8,0.9,2,2.2,3.4,3.9c2.9,3.4,7.1,8.5,11.4,15.2
					c4.4,6.8,8.8,15.4,11.9,25.6c3.2,10.2,5.2,21.7,7.2,33.8c3.9,24.2,8.8,45.9,12.3,61.5c1.8,7.8,3.2,14.1,4.2,18.6
					c0.5,2.2,0.9,3.8,1.1,5.1c0.1,0.5,0.2,1,0.3,1.3c0.1,0.3,0.1,0.5,0.1,0.5c0,0-0.1-0.1-0.1-0.4c-0.1-0.3-0.2-0.8-0.3-1.3
					c-0.3-1.2-0.7-2.9-1.3-5c-1.1-4.4-2.6-10.7-4.4-18.5c-3.6-15.6-8.6-37.3-12.5-61.5c-2-12.1-3.9-23.6-7.1-33.7
					c-3.1-10.2-7.4-18.7-11.7-25.5c-4.3-6.8-8.3-11.9-11.2-15.3c-1.4-1.7-2.6-3.1-3.3-3.9c-0.4-0.4-0.6-0.8-0.9-1
					C777.8,580.8,777.7,580.7,777.8,580.7z"/>
			</g>
		</g>
		<g>
			<g>
				<path class="st13" d="M887.2,679.4c0,0-0.2,0.1-0.7,0.1c-0.5,0.1-1.2,0.1-2,0.2c-0.4,0-0.9,0.1-1.5,0.1
					c-0.5,0.1-1.1,0.2-1.7,0.3c-1.2,0.2-2.6,0.4-4.2,0.7c-0.8,0.2-1.6,0.3-2.4,0.5c-0.8,0.2-1.7,0.4-2.6,0.7
					c-1.8,0.4-3.7,1.1-5.6,1.7c-3.9,1.4-8.1,3.1-12.3,5.4c-4.2,2.3-7.9,5-11,7.7c-1.5,1.4-3,2.7-4.2,4.1c-1.3,1.3-2.4,2.6-3.3,3.9
					c-1,1.2-1.7,2.4-2.5,3.4c-0.7,1-1.3,1.9-1.7,2.7c-0.4,0.7-0.7,1.3-1,1.7c-0.2,0.4-0.4,0.6-0.4,0.6c0,0,0.1-0.2,0.3-0.7
					c0.2-0.5,0.5-1.1,0.9-1.8c0.4-0.8,0.9-1.7,1.6-2.8c0.7-1,1.4-2.3,2.4-3.5c1-1.3,2-2.6,3.3-4c1.2-1.4,2.7-2.7,4.2-4.2
					c3.2-2.7,6.9-5.4,11.1-7.8c4.2-2.3,8.5-4.1,12.4-5.4c2-0.6,3.9-1.2,5.7-1.6c0.9-0.2,1.8-0.4,2.6-0.6c0.8-0.2,1.7-0.3,2.4-0.4
					c1.5-0.3,3-0.5,4.2-0.6c0.6-0.1,1.2-0.1,1.7-0.2c0.5,0,1-0.1,1.5-0.1c0.8,0,1.5-0.1,2-0.1C887,679.4,887.2,679.4,887.2,679.4z"
					/>
			</g>
		</g>
	</g>
	<g>
		<g>
			<path class="st13" d="M892.7,581.1c0,0-0.5,0.5-1.4,1.3c-1.1,0.9-2.4,2.1-4,3.5c-3.4,2.9-8.1,6.9-13.4,11.2
				c-5.2,4.3-10,8.3-13.5,11c-1.7,1.3-3.1,2.4-4.1,3.3c-1,0.8-1.5,1.2-1.6,1.1c0,0,0.5-0.5,1.4-1.3c1.1-0.9,2.4-2.1,4-3.5
				c3.4-2.9,8.1-6.9,13.4-11.2c5.2-4.3,10-8.2,13.5-11c1.7-1.3,3.1-2.4,4.1-3.3C892.1,581.5,892.7,581.1,892.7,581.1z"/>
		</g>
	</g>
	<g>
		<g>
			<path class="st13" d="M897.5,606.8c0.1,0.2-10.1,3.4-22.7,7.1c-12.6,3.7-22.9,6.6-23,6.4c-0.1-0.2,10.1-3.4,22.8-7.1
				C887.2,609.5,897.5,606.6,897.5,606.8z"/>
		</g>
	</g>
	<g>
		<g>
			<path class="st13" d="M859.9,596.6c0,0-0.4-0.5-1.1-1.5c-0.7-1.1-1.6-2.5-2.7-4.1c-2.3-3.4-5.5-8.1-9.3-13.2
				c-3.8-5-7.5-9.4-10.2-12.5c-1.3-1.5-2.4-2.7-3.2-3.7c-0.8-0.9-1.2-1.4-1.1-1.4c0,0,0.5,0.4,1.3,1.2c0.8,0.8,2,2,3.4,3.5
				c2.8,3,6.6,7.4,10.4,12.4c3.8,5,7,9.8,9.2,13.3c1.1,1.8,1.9,3.2,2.5,4.2C859.6,596,859.9,596.6,859.9,596.6z"/>
		</g>
	</g>
	<g>
		<g>
			<path class="st13" d="M824.5,610.8c0.1,0.1-0.9,1.5-2.4,3.9c-1.5,2.4-3.6,5.7-5.7,9.5c-2.1,3.8-3.9,7.2-5.2,9.8
				c-1.3,2.5-2.1,4.1-2.2,4.1c-0.1,0,0.5-1.7,1.7-4.3c1.2-2.6,2.9-6.1,5-9.9c2.1-3.8,4.3-7.1,5.9-9.4
				C823.3,612.1,824.4,610.8,824.5,610.8z"/>
		</g>
	</g>
	<g>
		<g>
			<path class="st13" d="M812.4,655.2c-0.1,0.1-2-0.8-5.2-2.3c-3.2-1.4-7.6-3.3-12.6-5.1c-5-1.8-9.7-3.1-13-3.9
				c-3.4-0.9-5.5-1.3-5.5-1.4c0-0.1,0.5,0,1.5,0.2c1,0.1,2.4,0.4,4.1,0.8c3.4,0.7,8.1,2,13.2,3.7c5,1.8,9.5,3.7,12.6,5.3
				c1.6,0.8,2.8,1.4,3.7,1.9C812,654.9,812.4,655.2,812.4,655.2z"/>
		</g>
	</g>
	<g>
		<g>
			<path class="st13" d="M821.9,708.3c0,0-0.2,0.1-0.6,0.2c-0.5,0.1-1.1,0.3-1.8,0.5c-1.7,0.4-4,0.9-6.8,1.6
				c-5.7,1.3-13.7,3-22.1,5.8c-8.5,2.9-15.7,6.5-20.6,9.7c-2.5,1.6-4.4,3-5.7,4c-1.3,1-2,1.6-2.1,1.5c0,0,0.1-0.2,0.5-0.5
				c0.3-0.3,0.8-0.7,1.4-1.3c1.2-1.1,3.1-2.5,5.6-4.2c4.9-3.3,12.2-7.1,20.7-10c8.5-2.9,16.5-4.5,22.3-5.7c2.8-0.5,5.1-1,6.8-1.3
				C821,708.4,821.9,708.2,821.9,708.3z"/>
		</g>
	</g>
	<g>
		<g>
			<path class="st13" d="M856.4,721.4c-0.2,0-1.4-7.1-2.7-16c-1.3-8.8-2.2-16-2-16.1c0.2,0,1.4,7.1,2.7,16
				C855.7,714.2,856.6,721.3,856.4,721.4z"/>
		</g>
	</g>
	<g>
		<g>
			<path class="st13" d="M892.3,708.4c-0.1,0.1-1.3-1.4-3.2-3.8c-1.9-2.4-4.6-5.7-7.7-9.4c-3-3.6-5.9-6.8-7.9-9.2
				c-2-2.3-3.3-3.8-3.2-3.8c0,0,0.4,0.3,1,0.9c0.6,0.6,1.5,1.5,2.6,2.6c2.1,2.2,5,5.4,8.1,9c3,3.6,5.7,7,7.5,9.5
				c0.9,1.2,1.6,2.3,2.1,3C892.1,707.9,892.3,708.3,892.3,708.4z"/>
		</g>
	</g>
	<g>
		<polygon class="st13" points="797.3,735.6 797.3,753.3 801.8,753.3 817.5,803.1 852.5,803.1 867.7,753.8 873.6,753.3 873.6,735.6 
					"/>
	</g>
	<g>
		<g>
			<path class="st13" d="M895.8,645.8c0,0.1-0.8,0.3-2.2,0.6c-1.6,0.4-3.6,0.9-6.1,1.5c-5.2,1.3-12.3,3.2-20,5.8
				c-7.7,2.6-14.5,5.3-19.4,7.4c-2.3,1-4.3,1.9-5.8,2.5c-1.4,0.6-2.1,0.9-2.1,0.9c0,0,0.7-0.4,2-1.1c1.3-0.7,3.3-1.6,5.7-2.7
				c4.8-2.2,11.7-5.1,19.4-7.7c7.7-2.6,14.9-4.5,20.1-5.6c2.6-0.6,4.7-1,6.2-1.3C895,645.9,895.8,645.8,895.8,645.8z"/>
		</g>
	</g>
	<g>
		<g>
			<path class="st0" d="M859.1,781.5c0,0.2-10.8,0.4-24.2,0.4c-13.4,0-24.2-0.2-24.2-0.4s10.8-0.4,24.2-0.4
				C848.3,781.1,859.1,781.3,859.1,781.5z"/>
		</g>
	</g>
	<g>
		<g>
			<path class="st0" d="M860.4,777.3c0,0.2-11.5,0.4-25.6,0.4c-14.2,0-25.6-0.2-25.6-0.4s11.5-0.4,25.6-0.4
				C849,777,860.4,777.1,860.4,777.3z"/>
		</g>
	</g>
</g>
<g>
	<path class="st14" d="M650.4,530.1c-0.4,0-4.7,286.5-4.7,286.5l34.6-1.2L694,688l3-91l25,94l26.1,125.9l34.6-8.7l-44-280l-41.4-8
		L650.4,530.1z"/>
</g>
<g>
	<g>
		<path class="st15" d="M725.7,353.1c4.1-8.2,5.5-22.9,0.7-31c-4.8-8.1-14.4-14-23.4-16.7c-1.5-0.4-3.1-0.8-4.6-0.3
			c-1.5,0.5-2.7,2.1-2.2,3.6c-1.8-1.3-3.6-2.6-5.6-3.3c-2.1-0.6-4.5-0.5-6.2,0.9c-1.7,1.4-2.1,4.2-0.6,5.8c-2.5-1.1-5.6-0.6-7.7,1.2
			c-2,1.8-2.8,4.9-1.9,7.5c0.8,2.5,2.8,5.3,4.6,7.2c1.8,1.9,2,3.8,1.5,6.3"/>
	</g>
</g>
<g>
	<g>
		<g>
			<g>
				<g>
					<g>
						<g>
							<g>
								<g>
									<g>
										<path class="st16" d="M691.5,420.5c0.3-3.9,0.9-39.5,0.9-39.6c0,0-13.2-1.6-13.8-14.7c-0.3-6.3,0.2-19.4,0.8-31.3
											c0.6-12.7,10.9-22.8,23.7-23.2l1.3,0c13.7,0.4,21,12.2,20.3,25.9l-1.9,76"/>
									</g>
								</g>
							</g>
						</g>
					</g>
				</g>
			</g>
		</g>
	</g>
</g>
<g class="st17">
	<g>
		<g>
			<g>
				<g>
					<g>
						<g>
							<g>
								<g>
									<g>
										<path class="st18" d="M692.4,380.9c0,0,8.3,0.2,16.9-5.6c0,0-3.9,8.2-17.1,7.4L692.4,380.9z"/>
									</g>
								</g>
							</g>
						</g>
					</g>
				</g>
			</g>
		</g>
	</g>
</g>
<g>
	<g>
		<g>
			<g>
				<g>
					<g>
						<g>
							<g>
								<g>
									<g>
										<g>
											<path class="st19" d="M681.7,343.7c0,1,0.8,1.8,1.9,1.8c1,0,1.9-0.8,1.9-1.7c0-1-0.8-1.8-1.9-1.8
												C682.5,341.9,681.7,342.7,681.7,343.7z"/>
										</g>
									</g>
								</g>
							</g>
						</g>
					</g>
				</g>
			</g>
		</g>
	</g>
</g>
<g>
	<g>
		<g>
			<g>
				<g>
					<g>
						<g>
							<g>
								<g>
									<g>
										<g>
											<path class="st19" d="M701.9,344c0,1,0.8,1.8,1.9,1.8c1,0,1.9-0.8,1.9-1.7c0-1-0.8-1.8-1.9-1.8
												C702.7,342.2,701.9,343,701.9,344z"/>
										</g>
									</g>
								</g>
							</g>
						</g>
					</g>
				</g>
			</g>
		</g>
	</g>
</g>
<g>
	<g>
		<g>
			<g>
				<g>
					<g>
						<g>
							<g>
								<g>
									<g>
										<g>
											<path class="st20" d="M704.2,358.7c-0.4-0.2-1.7,2.8-5.1,3.9c-3.4,1.1-6.2-0.5-6.4-0.1c-0.1,0.2,0.4,0.9,1.7,1.5
												c1.2,0.6,3.3,0.9,5.3,0.3c2-0.7,3.4-2.2,4.1-3.3C704.4,359.7,704.4,358.8,704.2,358.7z"/>
										</g>
									</g>
								</g>
							</g>
						</g>
					</g>
				</g>
			</g>
		</g>
	</g>
</g>
<g>
	<g>
		<g>
			<g>
				<g>
					<g>
						<g>
							<g>
								<g>
									<g>
										<path class="st15" d="M698.6,338.2c0.3,0.5,2.5,0.1,5.2,0.2c2.7,0.1,4.9,0.6,5.3,0.1c0.1-0.2-0.3-0.7-1.2-1.2
											c-0.9-0.5-2.3-0.9-3.9-0.9c-1.6-0.1-3.1,0.3-4,0.7C698.9,337.5,698.4,337.9,698.6,338.2z"/>
									</g>
								</g>
							</g>
						</g>
					</g>
				</g>
			</g>
		</g>
	</g>
</g>
<g>
	<g>
		<g>
			<g>
				<g>
					<g>
						<g>
							<g>
								<g>
									<g>
										<path class="st15" d="M680,337.8c0.4,0.5,2.3,0.2,4.4,0.3c2.2,0.1,4,0.6,4.4,0.2c0.2-0.2,0-0.7-0.8-1.2
											c-0.8-0.5-2.1-1-3.6-1c-1.5-0.1-2.8,0.2-3.6,0.6C680.1,337.1,679.8,337.6,680,337.8z"/>
									</g>
								</g>
							</g>
						</g>
					</g>
				</g>
			</g>
		</g>
	</g>
</g>
<g>
	<g>
		<g>
			<path class="st15" d="M673.7,317.9c-1,11.6,13.3,16.5,19.6,10c2.9-3,5.4-6.8,9.4-8.1c2.7-0.9,5.7-0.4,8.2,0.9c0,0,0.1,0,0.1,0
				c3.7,1.9,5.9,6.2,6.5,10.3c0.8,5.8-0.1,10.8,1.4,16.1c0.2,0.8,0.5,1.6,1.1,2c1.1,0.8,2.7,0.1,3.6-0.9c1.4-1.6,1.9-3.8,2.3-5.9
				c0.7-4.8,0.7-9.8-0.5-14.5c-1.2-4.7-3.7-9.2-7.3-12.5c-4.5-4.1-10.8-6.1-16.9-5.8c-6.1,0.3-12,2.8-16.8,6.6
				c-2.2,1.8-4.2,3.9-5.3,6.5"/>
		</g>
	</g>
</g>
<g>
	<g>
		<g>
			<g>
				<g>
					<g>
						<g>
							<path class="st16" d="M611,423.7l-61-4.7l-10.5-3.6c0,0-22.3-4-24.4-4.7c-2.4-0.8-3.4,0.2-3.6,1.1c-0.3,1.4,1.1,2.9,3.1,3.7
								c0.7,0.2,12.1,3.7,12.1,3.7s-1.1,0.2-3.8,1.2c-2.6,1-5.1,4.6-6.2,8.7c-1.1,4.1-1.1,5.3,0.5,5.8c0.6,0.2,1.2,0,1.8-0.3
								c0.9-0.5,1.5-1.4,1.8-2.4c1.9-6.5,5.9-7.2,5.9-7.2l1.3,0.3c0,0-4,3.1-3.8,6.6c0,0.6,0.2,1.1,0.4,1.5
								c-0.5,1.7-0.1,3.7,1.1,5.1c1.2,1.4,3.3,2.1,5.1,1.7c0.9-0.2,1.8-0.7,1.9-1.6c0-0.5-0.2-0.9-0.3-1.4c-0.1-0.2-0.2-0.5-0.2-0.7
								l3.7,0.4c0,0,10.7-2.5,14.3-1.9l55.9,17.9c8.1,2.1,16.3-2.8,18.2-11v0C626.3,433.2,620.1,424.5,611,423.7z"/>
						</g>
					</g>
				</g>
			</g>
		</g>
	</g>
</g>
<g>
	<g>
		<path class="st21" d="M612.2,453.8l40.3-9.3c0,0-2.1,73.8-2.1,74.5s-3.3,1.9-3,7.2l2.9,6.4l88.3,1.2l2.4-71.7l8.1-55.6l-18.5-11.5
			l-6.5-8.8l-25.5,26.9l-6.3-22.9l0.2-6.8l-6.3,6.8l-34,9.8l-44.9,20.9l-30.3-2.3l-7.9,26.5L612.2,453.8z"/>
	</g>
</g>
<g>
	<path class="st11" d="M640,815c0,0,0-5,3-5c2,0,5.5,2.3,8.1,5c1.2,1.3,2.3,2.7,2.9,4c2,4-8,9-8,6S640,815,640,815z"/>
	<path class="st11" d="M660,814.4c-1.8,0.3-3.6,0.2-5.4-0.5c-2.2-0.8-4.9-1.5-3.6,1c2,4,3,5,3.1,7.8c0.2,3.4-10.1,8.2-15.1,9.2
		s-18-1-22,2s-6,8-5,8s12,5,25,5s29-3,32-2s13,0,14-2s0-15,0-17s-3-4-3-6s3-8,3-9C683,810.2,666.8,813.2,660,814.4z"/>
	<path class="st11" d="M629,832c0,0,15.7-3.1,16.3-9.5c0.4-4.4,4.3-3.5,6.7-2.5c2,0.8,3.4,3.4,2,5c-0.9,1.1-3.3,2.5-6,4
		C639,834,629,832,629,832z"/>
</g>
<g>
	<path class="st21" d="M747.3,405.5c0,0,11.1,9.5,11.9,15c0.6,4.2,11.5,43.4,16.4,61c1.5,5.5,1.2,11.3-0.9,16.6l-14.2,35.2l-23-13.6
		l11.5-33l-9.5-28L747.3,405.5z"/>
</g>
<g>
	<g>
		<path class="st22" d="M701.2,410.7c1.6,0,3.1,1,3.4,2.5c0.3,1.5,0.1,3.1,0.5,4.7c0.4,1.5,1.8,3,3.3,2.7c0.9-0.2,1.6-1,2.2-1.7
			c3-3.9,5.4-8.7,7.2-13.2c0,0.1-7.9,9.1-7.9,9.1c-0.2-2.2-1-4.5-1.8-6.6c-0.3-0.7-0.6-1.8-1.2-2.1c-1.1-0.5-2.5,1.1-3.2,2
			c-0.7,0.9-2.3,2.6-2.5,2.7"/>
	</g>
</g>
<g>
	<g>
		<path class="st22" d="M688.3,402.6c0.3,4.9,1,10.1,2.9,14.6c0.2,0.5,0.4,0.9,0.8,1.3c0.4,0.3,1,0.5,1.4,0.2c0.3-0.2,1.3-2.7,1.4-3
			c0.7-2,3.7-2.2,3.7-2.2s-1.2-5.2-1.9-6.8c-0.3-0.7-1.1-1.3-1.8-1.2c-0.9,0.2-1.9,1.4-2,2.3c-0.4,3.7-0.4,5.3-0.9,6.6
			c-1.4-3.9-2.5-8.6-3.4-12"/>
	</g>
</g>
<g>
	<g>
		<path class="st22" d="M710.2,510.5c1.5-0.8,1.6-3,0.7-4.4c-1-1.4-2.8-1.9-4.4-1.7c-1.7,0.2-3.2,1.1-4.5,2c-1.3,1-2.6,2.1-4,3
			c-3.5,2.1-7.7,2.6-11.8,2.7c-4.1,0.1-8.2-0.2-12.3,0.5c-4,0.8-8,2.9-10,6.5C663.8,519.1,698.8,516.5,710.2,510.5z"/>
	</g>
</g>
<g>
	<g>
		<path class="st16" d="M733.1,561.9c-5-3.3-7.1-6.4-9.2-9.5c0-0.1,0.1-0.2,0-0.3c-0.1-0.1-0.2-0.2-0.3-0.2c-1.1-1.8-2-3.3-2.7-4.7
			c2.9-1.9,6.6-4.7,2.5-5.2c-5-0.7-8.6-3.1-9.1-4.5c-0.5-1.3,1.2-2.5,2.5-1.7c1.1,0.7,3.2,1.3,4.8,1.7c1.3,0.3,2.7,0.4,4.1,0.3
			c0.8-0.1,3.8-2.1,7-3.6c0.5-0.2,1-0.3,1.5-0.2l1.2-0.1c1.3-0.1,2.5-0.9,3.1-2l4.6-8.9l14,8.3l-11,15.3
			C746,546.5,738.4,556.6,733.1,561.9z"/>
	</g>
</g>
<g>
	<g>
		<path class="st23" d="M735.9,563.5c0,0.1-1.3-0.4-3.2-1.5c-1.9-1.1-4.4-3-6.6-5.5c-2.2-2.5-3.8-5.2-4.7-7.2
			c-0.9-2-1.2-3.3-1.2-3.4c0.2-0.1,2,5.1,6.4,10.1C731.1,561,736.1,563.3,735.9,563.5z"/>
	</g>
</g>
<path class="st24" d="M612,842c0,0-1,3-1,4s18,6,30,4s27-4,27-3v2c0,0,13,0,15-2c0,0,1-2,0-4c0,0-9,1-14,1s-32,2-34,2
	S618,844,612,842z"/>
<g>
	<g>
		<path class="st25" d="M650.3,826.9c-0.2,0,0.1,0,0.1,0C650.4,827,650.3,826.9,650.3,826.9c-0.1,0-0.3-0.1-0.4-0.1
			c-0.2-0.1-0.5-0.2-0.7-0.2c-0.2-0.1,0.3,0.1,0.1,0c-0.1,0-0.1,0-0.2-0.1c-0.1-0.1-0.2-0.1-0.3-0.2c-0.2-0.1-0.5-0.2-0.7-0.4
			c-1-0.5-2-1.1-3-1.4c-0.7-0.2-1.7,0.3-1.8,1c-0.2,0.8,0.2,1.6,1,1.8c0.1,0,0.2,0.1,0.3,0.1c0,0,0.3,0.1,0.1,0c-0.2-0.1,0,0,0,0
			c0.2,0.1,0.5,0.2,0.7,0.3c0.5,0.2,0.9,0.5,1.4,0.8c1.1,0.6,2.2,1,3.5,1.2c0.4,0,0.8-0.2,1.1-0.4c0.3-0.3,0.5-0.7,0.4-1.1
			C651.8,827.6,651.2,827,650.3,826.9L650.3,826.9z"/>
	</g>
</g>
<g>
	<g>
		<path class="st25" d="M642.4,830.8c-1.2-0.6-2.3-1.4-3.5-2.2c-0.3-0.2-0.8-0.2-1.2-0.2c-0.3,0.1-0.7,0.4-0.9,0.7
			c-0.4,0.7-0.2,1.6,0.5,2.1c1.1,0.7,2.2,1.6,3.5,2.2c0.4,0.2,0.7,0.3,1.2,0.2c0.3-0.1,0.7-0.4,0.9-0.7c0.2-0.3,0.3-0.8,0.2-1.2
			C643,831.4,642.8,831,642.4,830.8L642.4,830.8z"/>
	</g>
</g>
<g>
	<g>
		<path class="st25" d="M654.7,819.6c-1.5,0.6-2.9,0.6-4.6,0.4c-1.4-0.2-3.2-0.5-4.8-0.5c-0.8,0-1.5,0.7-1.5,1.5
			c0,0.8,0.7,1.5,1.5,1.5c1.8,0,3.2,0.3,5,0.5c1.7,0.2,3.5,0.1,5.2-0.6c0.8-0.3,1.3-1,1-1.8C656.4,819.9,655.5,819.3,654.7,819.6
			L654.7,819.6z"/>
	</g>
</g>
<g>
	<g>
		<g>
			<g>
				<polygon class="st26" points="178.3,747.6 179,824 199,830 207.3,756.1 				"/>
			</g>
		</g>
	</g>
	<path class="st10" d="M175,827c0,6,0,12,3,14s22,1,24-1s10-8,9-11s-9.2-2.9-9.2-2.9S182,825,179,824S175,827,175,827z"/>
	<path class="st13" d="M178,841v3c0,0,20,2,24-1s5.6-6.6,7-8c2-2,2-6,2-6s-5,9.8-13.5,11.4C189,842,178,841,178,841z"/>
</g>
<g>
	<g>
		<g>
			<g>
				<g>
					<polygon class="st26" points="282.2,780.7 294,832 311,830 308.2,783.2 					"/>
				</g>
			</g>
		</g>
	</g>
	<path class="st13" d="M290,841c0,0-3,1,1,4s7.9,3,14,3c4,0,13-1,21-3s13.1-3.2,14-5c1-2-1-5-1-5s-1,4.9-11,6.5s-18,3.5-26,2.5
		S290,841,290,841z"/>
	<path class="st10" d="M292,831c-1,4-4,9-2,10s8,6,18,4s23-4,26-5s5-3,5-5s-16-4-19-4s-9-1-9-1L292,831z"/>
</g>
<g>
	<g>
		<g>
			<path class="st4" d="M198.8,529c0,0-19.4,32.4-19.4,51.7l-4.8,235.9L203,819l24-218c0,0,58.2,223.6,60,223.6c1.8,0,26-3.6,26-3.6
				l-38.6-290.9L198.8,529z"/>
		</g>
	</g>
</g>
<g>
	<g>
		<g>
			<path class="st27" d="M212.2,343.7c1.1,3.1-2.6,5.6-5.7,6.4c-3.1,0.7-7,1.2-8.4,4.1c-1.2,2.5,0,5.7-1.1,8.2
				c-2.2,4.9-10.9,3.8-12.6,8.9c-1.2,3.5,2.1,7,1.7,10.7c-0.4,3.1-3.2,5.3-5.7,7.2c-2.5,1.9-5.2,4.5-4.8,7.6
				c0.5,3.6,4.9,6.1,4.5,9.7c-0.4,3.6-5.2,5.2-5.9,8.7c-0.8,4.2,4.4,6.8,6.1,10.7c1.3,3,0.5,6.8,2.7,9.2c2.2,2.5,6.2,2,9.4,1.3
				c10.8-2.3,21.6-4.6,32.4-6.9c-2.2-5.1-0.1-11.1,3-15.7s7.3-8.5,10-13.4c2.7-4.9,3.6-11.4,0.1-15.7"/>
		</g>
	</g>
	<g>
		<g>
			<g>
				<path class="st27" d="M269.3,369.7c-0.2,0,0-2.1-1.1-5.1c-0.3-0.7-0.7-1.6-1.3-2.1c-0.6-0.6-1.5-0.2-2,0.7
					c-1.1,1.7-1.4,4.2-1.4,6.6c0,2.4,0.4,4.8,1.4,6.6c0.5,0.9,1.4,1.3,2,0.7c0.6-0.5,1-1.4,1.3-2.1
					C269.2,371.7,269.1,369.6,269.3,369.7c0,0,0.1,0.5,0.1,1.4c0,0.9-0.1,2.3-0.6,3.9c-0.3,0.8-0.6,1.7-1.4,2.4
					c-0.4,0.4-1.1,0.6-1.7,0.4c-0.6-0.2-1-0.7-1.4-1.2c-1.2-2-1.6-4.5-1.6-7c0-2.5,0.4-5,1.6-7c0.3-0.5,0.7-0.9,1.4-1.2
					c0.6-0.2,1.3,0,1.7,0.4c0.8,0.8,1.1,1.7,1.4,2.4c0.5,1.6,0.6,3,0.6,3.9C269.4,369.2,269.3,369.7,269.3,369.7z"/>
			</g>
		</g>
	</g>
	<g>
		<g>
			<g>
				<path class="st27" d="M216.4,399.5c-5.9-9.9-7.5-23.1-9-34.5c-0.7-5.4-1.9-13,1.9-16.4c4-3.6,4.4-9.2,9.1-11.9
					c4.7-2.8,11-3,15.4,0.2"/>
			</g>
		</g>
		<g>
			<g>
				<g>
					<g>
						<g>
							<g>
								<g>
									<g>
										<g>
											<path class="st26" d="M232.6,434.6L232.6,434.6c9,0.7,16.8-6.2,17.2-15.2c0.4-8.7,0.7-17.4,0.7-17.4s13.1-1.2,14.1-14.2
												c1-13,0.6-43,0.6-43l0,0c-14.6-7.4-32.1-6.4-45.7,2.8l0.7,45.7l-0.1,24.6C220.1,426.2,224.4,434,232.6,434.6z"/>
										</g>
									</g>
								</g>
							</g>
						</g>
					</g>
				</g>
				<g>
					<g>
						<path class="st27" d="M251.7,372c-2.2-2.8-5.9-3.9-8.9-2c-3,1.9-4.2,6.2-2.5,9.4c1.1,2.2,3.8,4.3,6.4,4.8
							c2.5,0.5,4.2,2.9,3.9,5.4c-0.4,3.3-5.8,4.5-8.3,7.2c-3.8,4.2-12.2,5.9-17.8,6.6c-5.5,0.6-4.9,0.7-8.1-3.9
							c-2.3-3.3-3.1-6.5-3.1-10.6c-0.2-9.6-0.3-19.1-0.5-28.7c-0.1-3.5-0.1-6.9,0.7-10.3c0.8-3.4,2.6-6.6,5.5-8.5
							c3.2-2.1,7.2-2.2,10.8-3.4c4.5-1.4,8.3-4.4,12.5-6.6c4.2-2.1,9.4-3.4,13.6-1.3c3,1.5,5.1,4.6,8,6.2c4.2,2.4,9.9,1.9,11.9,8.1
							c0.7,2.1,0.6,4.5-0.1,6.6c-2.9,8.4-13.3,11.7-20.8,8.1c-0.2,1.4,1.2,4.6-0.3,9.1C254.1,369.7,253.9,371.9,251.7,372"/>
					</g>
				</g>
			</g>
			<g>
				<g>
					<g>
						<path class="st28" d="M249.3,380.1c0.1,0,0.1,0.2-0.2,0.6c-0.2,0.3-0.7,0.7-1.4,0.7c-1.5,0.1-3.3-1.4-3.4-3.6
							c-0.1-1,0.3-2.1,1-2.7c0.6-0.7,1.4-1,2-1.2c1.3-0.3,2.1,0.2,2.1,0.3c0,0.1-0.8-0.1-1.9,0.3c-1.1,0.3-2.4,1.5-2.2,3.2
							c0,1.7,1.4,2.9,2.4,3C248.8,380.8,249.2,380,249.3,380.1z"/>
					</g>
				</g>
			</g>
		</g>
	</g>
	<g>
		<g>
			<g>
				<path class="st27" d="M269.3,369c0,0.2-3.9,1.1-8.7,1.9c-4.9,0.8-8.8,1.3-8.9,1c0-0.2,3.9-1.1,8.7-1.9
					C265.3,369.3,269.3,368.8,269.3,369z"/>
			</g>
		</g>
	</g>
	<g>
		<g>
			<path class="st27" d="M217.4,412.2c0.6,1.7,2.8,2.3,4.5,1.8c1.7-0.5,3.1-1.7,4.4-3c1.3-1.2,2.6-2.5,4.3-3
				c3.5-1.1,7.7,1.3,10.6-0.9c2.7-2,2.3-6.4,4.9-8.4c1.4-1.1,3.3-1.2,4.7-2.2c2.6-1.9,2.2-6.3,0-8.7c-2.2-2.4-5.5-3.4-8.7-4.3
				l-27.9,11.9L217.4,412.2z"/>
		</g>
	</g>
</g>
<g>
	<polyline class="st12" points="253.6,414.2 250.3,407.2 220.9,406.1 216.3,415.1 253.2,415.1 	"/>
</g>
<g>
	<g>
		<g>
			<g>
				<path class="st29" d="M354.4,476.9c-0.2-1.1,7.8-42.5,10-53.8c0.3-1.5-0.9-2.9-2.4-2.9h-58.7c-1.1,0-2.1,0.8-2.3,1.9l-12,50.7
					l-29.6,2.2l1,1.9H354.4z"/>
			</g>
			<g>
				<polygon class="st0" points="351.9,473.2 361.4,423 303.6,423.4 291,473.3 				"/>
			</g>
		</g>
		<g>
			<g>
				<g>
					<g>
						<g>
							<path class="st29" d="M347.8,460.9c0,0-0.3,0.1-0.8,0.1c-0.6,0-1.3,0-2.2,0.1c-2,0-4.7,0.1-8,0.1c-6.7,0.1-16,0.1-26.3,0.1
								c-2.9,0-5.7,0-8.4,0l-0.5,0l0.1-0.4c2-7.9,3.8-14.8,5.1-19.9c0.6-2.4,1.2-4.3,1.6-5.8c0.4-1.4,0.6-2.1,0.7-2.1
								c0,0-0.1,0.8-0.4,2.1c-0.3,1.5-0.8,3.4-1.4,5.9c-1.2,5.1-2.9,12-4.9,19.9l-0.4-0.4c2.7,0,5.5,0,8.4,0c10.3,0,19.5,0,26.3,0.1
								c3.3,0,6,0.1,8,0.1c0.9,0,1.6,0.1,2.2,0.1C347.6,460.8,347.8,460.9,347.8,460.9z"/>
						</g>
					</g>
					<g>
						<polygon class="st25" points="306,459 307.1,454.1 314.5,454.1 313.6,459 						"/>
					</g>
					<g>
						<polygon class="st25" points="316.1,459 318.4,449.4 325.8,449.4 323.7,459 						"/>
					</g>
					<g>
						<polygon class="st25" points="326.2,459 327.3,454.1 334.7,454.1 333.8,459 						"/>
					</g>
					<g>
						<polygon class="st25" points="336.3,459 340.6,440.5 348,440.5 343.9,459 						"/>
					</g>
				</g>
				<g>
					<g>
						<path class="st29" d="M311.8,464.4c0,0.2-1.4,0.4-3,0.3c-1.6,0-3-0.2-3-0.4c0-0.2,1.3-0.4,3-0.3
							C310.5,464,311.9,464.2,311.8,464.4z"/>
					</g>
				</g>
				<g>
					<g>
						<path class="st29" d="M321.6,464.4c0,0.2-1.4,0.4-3,0.3c-1.6,0-3-0.2-3-0.4c0-0.2,1.3-0.4,3-0.3
							C320.3,464,321.6,464.2,321.6,464.4z"/>
					</g>
				</g>
				<g>
					<g>
						<path class="st29" d="M331.4,464.4c0,0.2-1.4,0.4-3,0.3c-1.6,0-3-0.2-3-0.4c0-0.2,1.3-0.4,3-0.3
							C330.1,464,331.4,464.2,331.4,464.4z"/>
					</g>
				</g>
				<g>
					<g>
						<path class="st29" d="M341.2,464.3c0,0.2-1.4,0.4-3,0.3c-1.6,0-3-0.2-3-0.4c0-0.2,1.3-0.4,3-0.3
							C339.9,464,341.2,464.1,341.2,464.3z"/>
					</g>
				</g>
			</g>
			<g>
				<g>
					<path class="st29" d="M326.8,430.9c0,0.2-3.7,0.4-8.3,0.4c-4.6,0-8.3-0.2-8.3-0.4s3.7-0.4,8.3-0.4
						C323.1,430.5,326.8,430.7,326.8,430.9z"/>
				</g>
			</g>
			<g>
				<g>
					<path class="st29" d="M318.1,428.8c0,0.2-1.7,0.4-3.7,0.4c-2,0-3.7-0.2-3.7-0.4c0-0.2,1.6-0.4,3.7-0.4
						C316.4,428.4,318.1,428.6,318.1,428.8z"/>
				</g>
			</g>
		</g>
	</g>
	<g>
		<path class="st12" d="M302.2,507.4l34-24.6l-1.3-2.1c-1.9-3-4.6-5.4-7.9-6.7l-5.3,1l-31.5,4.8L302.2,507.4z"/>
	</g>
	<g>
		<polygon class="st12" points="181.3,501.8 209.6,490.5 203.3,467.2 180.2,475 		"/>
	</g>
	<g>
		<g>
			<g>
				<path class="st12" d="M301,508.1c7-3.5,8.8-11.9,5.4-19l-29.3-62.5c-0.7-1.5-1.7-2.9-2.9-4c-11.5-10-24.2-8.3-24.2-8.3
					l-30.5-0.8c0,0-24,0-33,18.9c-0.7,1.4-14.6,29-23.8,47.2c-4.2,8.4-0.2,18.6,8.6,21.9v0c7.8,2.9,16.4-0.8,19.8-8.3l10-22.2
					l6.3,31.9l-9,26.3l75.7,1l-5.8-35.1l-1.8-25.1l15.3,31.6C285.2,508.7,293.8,511.6,301,508.1L301,508.1z"/>
			</g>
			<g class="st30">
				<g>
					<g>
						<path d="M210,502.1c5.7,4.3,14.2,2.9,21.2,1.7c7.1-1.2,13.9-4.5,18.5-10c2.1-2.5,3.7-5.5,3.4-8.7c-0.3-3.2-3.1-6.3-6.3-5.9
							c-3.7,0.4-5.4,4.5-7.2,7.8c-5.6,10.2-18.1,16.1-29.5,13.9C210.1,500.8,209,501.4,210,502.1z"/>
					</g>
				</g>
			</g>
			<g class="st30">
				<g>
					<g>
						<path d="M256.7,452.9c1.8,14.4,1,13.3,4,27.5c1.5,7,3.3,14.3,8.1,19.5l-2.4-30L256.7,452.9z"/>
					</g>
				</g>
			</g>
		</g>
		<g>
			<g>
				<g>
					<path class="st31" d="M185.7,374.8"/>
				</g>
			</g>
		</g>
	</g>
	<g>
		<polygon class="st12" points="198.4,529 196.2,522.7 201.9,518.9 271.3,513.2 276.1,522.4 274,530.1 		"/>
	</g>
	<g>
		<g>
			<path class="st27" d="M212.7,409.9c-2.9,1.1-5.2,3.6-6.1,6.6c-0.9,3-0.4,6.3,1.3,8.9c0.6,0.9,1.4,1.8,1.3,2.9
				c-0.1,2.6-4.3,2.6-5.6,4.8c-0.9,1.5-0.1,3.4,1.1,4.6c1.2,1.2,2.9,1.9,4.3,2.9c1.4,1,2.7,2.5,2.6,4.2c1.4,0,2.3-1.8,2.1-3.2
				c-0.2-1.4-1.1-2.6-1.8-3.9c-0.6-1.3-1-2.9-0.2-4.1c0.9-1.3,2.9-1.4,4.4-2c3-1.2,4.6-5,3.3-7.9c-0.9-2.1-3.1-4.2-2-6.2
				c0.6-1.1,1.9-1.6,3.1-2.2c2.3-1.3,3.9-3.7,4.1-6.3c0.2-2.6-1-5.3-3-6.9"/>
		</g>
	</g>
	<g>
		<polyline class="st26" points="336.1,482.8 349.9,476.9 331.6,476.9 335.6,482.1 		"/>
	</g>
</g>
<g class="st32">
	<g>
		<path d="M253.7,414.7c0,0.2-6.8,0-15.1-0.5c-8.3-0.5-15.1-1-15.1-1.2c0-0.2,6.8,0,15.1,0.5C247,413.9,253.7,414.4,253.7,414.7z"/>
	</g>
</g>
<path class="st11" d="M741,851c11,1,26-4,30-7s13-18,16-22c2.5-3.4,0-11-3-14c-3.7-3.7,0.7-16.9-7.1-6.7c-3.6,4.7-11.3,9.6-17,11.4
	c-4.9,1.5,4.2,8.2,3.1,10.3c-1,2-2,11-6,11s-9,3-10,0c-1.2-3.5-2-1.7-5.8,1.3c-2.2,1.7-5.4,5-7.2,6.7C728.4,847.2,741,851,741,851z"
	/>
<path class="st11" d="M748.3,813.9C751,812,764,810,763,812s3,5,2,10s-2,12-8,14s-11,1-11-2s4-8,6-11s-1-5-4-6
	S748.3,813.9,748.3,813.9z"/>
<g>
	<g>
		<path class="st25" d="M754.1,821c0.3-0.3,0.6-0.6,0.9-0.8c0.2-0.1,0.4-0.2,0.6-0.4c0.1,0,0.2-0.1,0.3-0.1c0.4-0.2-0.1,0,0.1,0
			c0.4-0.1,0.8-0.3,1.2-0.3c0.2,0,0.4-0.1,0.6-0.1c0.1,0,0.2,0,0.3,0c0.3,0-0.4,0,0.1,0c1.8-0.2,3.6-0.2,5.3-0.8
			c0.8-0.3,1.3-1,1-1.8c-0.2-0.8-1.1-1.3-1.8-1c-0.4,0.1-0.9,0.3-1.3,0.3c-0.2,0-0.5,0.1-0.7,0.1c0.2,0,0.1,0,0,0
			c-0.1,0-0.2,0-0.4,0c-1,0.1-1.9,0.2-2.9,0.3c-2,0.3-3.9,1.1-5.3,2.6c-0.6,0.6-0.6,1.5,0,2.1C752.6,821.6,753.6,821.6,754.1,821
			L754.1,821z"/>
	</g>
</g>
<g>
	<g>
		<path class="st25" d="M751.7,827.1c0.4-0.2,0.9-0.3,1.3-0.3c0.1,0,0.2,0,0.1,0c0.1,0,0.2,0,0.3,0c0.3,0,0.5,0,0.8,0
			c1,0,2.1,0.1,3,0.2c2,0.3,4,0.8,5.9,1.5c0.8,0.3,1.6-0.3,1.8-1c0.2-0.8-0.3-1.6-1-1.8c-2-0.7-4.1-1.2-6.2-1.6
			c-2.2-0.3-4.6-0.5-6.7,0.3c-0.8,0.3-1.3,1-1,1.8C750.1,826.7,751,827.3,751.7,827.1L751.7,827.1z"/>
	</g>
</g>
<g>
	<g>
		<path class="st25" d="M748.4,831.7c1.4,0.9,2.9,1.6,4.4,2.3c0.7,0.4,1.4,0.7,2.1,1.1c0.4,0.2,0.7,0.5,1,0.7c0,0,0.2,0.1,0.1,0
			c0.1,0.1,0.2,0.2,0.3,0.2c0.2,0.2,0.4,0.3,0.5,0.5c0.6,0.5,1.6,0.6,2.1,0c0.5-0.6,0.6-1.6,0-2.1c-1.3-1.2-2.9-2.2-4.5-3
			c-1.5-0.8-3.1-1.5-4.5-2.4c-0.7-0.4-1.7-0.2-2.1,0.5C747.5,830.4,747.7,831.2,748.4,831.7L748.4,831.7z"/>
	</g>
</g>
<path class="st24" d="M733,845c-0.8-0.3-1,1.3-1.1,2.1c-0.3,1.4-0.5,3.2,0.1,3.9c1,1,7.9,6,13,6c4,0,20-1,25-8
	c20.3-28.5,15.3-23.3,18-27c0.3-0.4-0.1-2-0.1-2c-0.4-0.9-1.7,2.9-2.3,3.7c-4.5,5.3-18.2,22-21.6,23.3c-4.5,1.8-13.6,3.5-17,4
	c-0.6,0.1-2.5,0.2-3.1,0.1c-0.4-0.1-4.5-0.9-4.9-1.1L733,845z"/>
<path class="st23" d="M227,601l-24,218c0,0,12-197,8-206s-21-13-21-13S220,606,227,601z"/>
<path class="st33" d="M692.5,344.8c0,1.5-1.5,9.1-2.3,10.6c-0.8,1.5,3.8,0,5.3,0s3-1.5,2.3-1.5c-0.8,0-5.3,1.5-6,0.8
	c-0.8-0.8,1.5-8.3,1.5-9.1S692.5,344.8,692.5,344.8z"/>
<path class="st16" d="M722.1,349.4c0,0,3.9-5.4,4.9-3.4s1,6,1,8s-3,9-4,9S722.1,349.4,722.1,349.4z"/>
<path class="st33" d="M545,424c0,0-3.8-0.1-6,0s-4,2-6,2s-5-1-5-1s7,6,10,5C541.4,428.9,545,424,545,424z"/>
<path class="st33" d="M524,434c0,0,6,4,8,3C532,437,528,440,524,434z"/>
<path class="st33" d="M529,430c0,0-1,0,0,1s4,3,4,4s-1,2-1,2s2,0,2-1S529,430,529,430z"/>
<path class="st33" d="M540,418c0,0-7,2-8,2S538,418,540,418z"/>
<path class="st33" d="M519,417c0,0,9,3,10,3s3,0,3,0L519,417z"/>
<polygon class="st34" points="743,523 757,531 755.7,533.1 742,524.8 "/>
<path class="st30" d="M192,443l12.2,47.3c0,0-7.2-5.3-14.2-7.3s-1.2-3.9-0.1-12.9C191,461,192,443,192,443z"/>
</svg>
