<?xml version="1.0" encoding="utf-8"?>
<!-- Generator: Adobe Illustrator 24.2.3, SVG Export Plug-In . SVG Version: 6.00 Build 0)  -->
<svg version="1.1" id="Layer_1" xmlns="http://www.w3.org/2000/svg" xmlns:xlink="http://www.w3.org/1999/xlink" x="0px" y="0px"
	 viewBox="0 0 1000 1000" style="enable-background:new 0 0 1000 1000;" xml:space="preserve">
<style type="text/css">
	.st0{fill:#ECECEC;}
	.st1{fill:#141311;}
	.st2{fill:#33302C;}
	.st3{fill:#CCCCCC;}
	.st4{fill:#E1E1E1;}
	.st5{fill:#1A2E35;}
	.st6{fill:#525252;}
	.st7{fill:#FF8900;}
	.st8{fill:#377F7D;}
	.st9{opacity:0.6;}
	.st10{fill:#FFFFFF;}
	.st11{opacity:0.3;}
	.st12{fill:#2C6D6A;}
	.st13{fill:#F9D0B9;}
	.st14{fill:#444444;}
	.st15{fill:#FFBB15;}
	.st16{opacity:0.6;fill:#FFB494;}
	.st17{fill:#35260C;}
	.st18{opacity:0.2;}
	.st19{fill:#333333;}
	.st20{fill:#DB8A76;}
	.st21{fill:#191817;}
	.st22{fill:#9A5D53;}
	.st23{fill:#FFBF9D;}
	.st24{fill:#00A0A3;}
	.st25{fill:#262625;}
	.st26{fill:#FF9A6C;}
	.st27{fill:#00ADAD;}
	.st28{opacity:0.1;}
</style>
<circle class="st0" cx="500" cy="558.3" r="435"/>
<path class="st1" d="M584.4,881.5l0.6,4.5c0,0,16,1,20,1s38-1,39-1s19-1,19-1s2-3,0-3S584.4,881.5,584.4,881.5z"/>
<path class="st1" d="M807.6,897.7c0,0-0.6,3.3,0.4,4.3s32,2,40-2s8-10,9-13s7.4-20.8,7-23c-1-5-7-7-7-7l-23,29L807.6,897.7z"/>
<polygon class="st2" points="822,867 814,857 835,844 843,851 "/>
<polygon class="st2" points="653,855 662,865 629.1,866.2 627,857 "/>
<path class="st2" d="M624,867c0,0-25,7-30,9s-13,3-8,7s74-1,77-1s1-15-1-17s-27.2,1.6-32.6-0.7L624,867z"/>
<g>
	<path class="st3" d="M140.8,681.7c0,0-11.3,4.6,1.7,28.5c13,23.9,21.9,35.7,21.9,35.7s2.3,5.6-2.4,6.6c-4.7,1-15.2-0.4-17.2,5.5
		c-2,6.1,2.5,11.6,11.5,16.4c9,4.7,28.3,15.9,30,16.9c1.7,1,3.5,3.6,0.4,4.8c-3.1,1.2-26.5,4.3-24.4,15.3
		c2.1,11,29.3,20.1,32.3,21.2c3,1.1,3.7,2.3,3.5,3.9c-0.2,1.6-8.2,1.9-14.8,3c-6.6,1.1-14.1,3.6-12.3,9.9
		c1.8,6.3,18.1,19.1,56.9,21.9l18.1,0.1l9.4-15.5c18.2-34.5,15.9-55.1,11.5-59.9c-4.4-4.8-10.4,0.2-14.9,5.3
		c-4.5,5-8.9,11.6-10.4,10.9c-1.5-0.7-2.1-2-1.5-5c0.7-3.1,7.3-31-0.9-38.6c-8.2-7.6-23.2,10.6-25.9,12.6c-2.7,2-3.9-0.8-3.9-2.8
		c0.1-2,0.8-24.3,1.6-34.4c0.7-10.1-1.6-16.9-7.8-18.4c-6-1.4-10.4,8.2-13.7,11.7c-3.3,3.5-6.8-1.5-6.8-1.5s-5.3-13.8-18.7-37.5
		c-13.4-23.7-23.5-16.3-23.5-16.3"/>
</g>
<g>
	<g>
		<path class="st4" d="M247,891.5c-9.8-17.4-26.7-48.7-41.3-75.5c-14.6-26.8-27.9-51-37.6-68.5c-4.9-8.7-8.8-15.8-11.5-20.7
			c-1.3-2.4-2.4-4.3-3.1-5.6c-0.3-0.6-0.6-1.1-0.8-1.5c-0.2-0.3-0.3-0.5-0.3-0.5s0.1,0.2,0.3,0.5c0.2,0.3,0.5,0.8,0.8,1.4
			c0.7,1.3,1.8,3.2,3.2,5.6c2.8,4.8,6.8,11.9,11.7,20.6c9.8,17.4,23.1,41.6,37.8,68.4c14.6,26.8,31.5,58.1,41.2,75.6"/>
	</g>
</g>
<g>
	<g>
		<path class="st4" d="M159.4,776.5c0,0,0.5,0.1,1.3,0.3c0.8,0.2,2,0.6,3.4,1.1c2.8,1,6.7,2.4,11,4c4.2,1.6,8,3.1,10.9,4.3
			c1.3,0.5,2.4,0.9,3.3,1.3c0.8,0.3,1.2,0.5,1.2,0.5s-0.5-0.1-1.3-0.3c-0.8-0.2-2-0.6-3.4-1.1c-2.8-1-6.7-2.5-11-4.1
			c-4.2-1.6-8-3.1-11-4.2c-1.3-0.5-2.4-0.9-3.3-1.3C159.8,776.7,159.4,776.6,159.4,776.5z"/>
	</g>
</g>
<g>
	<g>
		<path class="st4" d="M191.8,786.8c-0.1,0,2.4-8.2,5.8-18.2c3.3-10,6.2-18.1,6.3-18.1c0.1,0-2.4,8.2-5.8,18.2
			C194.7,778.8,191.9,786.9,191.8,786.8z"/>
	</g>
</g>
<g>
	<g>
		<path class="st4" d="M212.4,829c0,0,0.2-0.4,0.7-1.1c0.6-0.8,1.2-1.8,2.1-3c1.7-2.5,4.1-6,6.6-10c2.5-3.9,4.6-7.6,6.2-10.3
			c0.7-1.2,1.3-2.3,1.8-3.1c0.4-0.7,0.7-1.1,0.7-1.1c0,0-0.2,0.5-0.5,1.2c-0.4,0.8-0.9,1.9-1.7,3.2c-1.4,2.7-3.5,6.4-6,10.4
			c-2.5,4-4.9,7.4-6.8,9.9c-0.9,1.2-1.7,2.2-2.2,2.9C212.7,828.6,212.4,829,212.4,829z"/>
	</g>
</g>
<g>
	<g>
		<path class="st4" d="M181.1,826.1c0,0,0.4,0,1.2,0c0.9,0,2,0.1,3.4,0.2c2.8,0.2,6.7,0.5,11,0.8c4.3,0.3,8.2,0.7,11,1
			c1.3,0.1,2.4,0.3,3.3,0.4c0.8,0.1,1.2,0.2,1.2,0.2c0,0-0.4,0-1.2,0c-0.9,0-2-0.1-3.4-0.2c-2.8-0.2-6.7-0.5-11-0.8
			c-4.3-0.3-8.2-0.7-11-1c-1.3-0.1-2.4-0.3-3.3-0.4C181.5,826.2,181.1,826.1,181.1,826.1z"/>
	</g>
</g>
<g>
	<g>
		<path class="st4" d="M194.6,865.6c0,0,0.6,0,1.6,0c1.1,0.1,2.6,0.1,4.3,0.2c3.6,0.2,8.6,0.5,14.2,0.9c5.5,0.4,10.5,0.8,14.2,1.1
			c1.7,0.2,3.2,0.3,4.3,0.4c1,0.1,1.6,0.2,1.6,0.2c0,0-0.6,0-1.6,0c-1.1-0.1-2.6-0.1-4.3-0.2c-3.6-0.2-8.6-0.5-14.2-0.9
			c-5.5-0.4-10.5-0.8-14.2-1.1c-1.7-0.2-3.2-0.3-4.3-0.4C195.1,865.7,194.6,865.6,194.6,865.6z"/>
	</g>
</g>
<g>
	<g>
		<path class="st4" d="M233.7,868.1c0,0,0.3-0.5,0.9-1.5c0.6-1,1.5-2.3,2.5-3.9c2.1-3.3,5-7.8,8-12.9c3-5.1,5.7-9.8,7.5-13.2
			c0.9-1.6,1.7-3,2.2-4c0.5-1,0.8-1.5,0.9-1.4c0,0-0.2,0.6-0.7,1.6c-0.5,1-1.2,2.4-2.1,4.1c-1.8,3.5-4.4,8.2-7.4,13.3
			c-3,5.1-6,9.6-8.1,12.8c-1.1,1.6-2,2.9-2.6,3.8C234.1,867.6,233.7,868.1,233.7,868.1z"/>
	</g>
</g>
<g>
	<g>
		<path class="st3" d="M707.7,809.9c3.8,1.3,6.7,4.4,8.4,8s2.1,7.7,2,11.7c-0.2,7.7-3.9,15.8-8.1,22.2c-6.9-5.1-9.2-14.7-10.1-19.7
			C698.6,824.3,700.9,809.3,707.7,809.9"/>
	</g>
</g>
<g>
	<g>
		<path class="st3" d="M718.6,863.8c-1.4-4.2,0-9.1,3.1-12.3c3.1-3.2,7.6-4.9,12-4.9c2.1,0,4.3,0.4,5.6,2c1.2,1.5,1.3,3.7,0.5,5.5
			c-0.7,1.8-2.2,3.2-3.7,4.3C730.8,862.3,725,865.1,718.6,863.8"/>
	</g>
</g>
<g>
	<g>
		<g>
			<path class="st5" d="M712.3,887.8c0,0,0-0.6,0.1-1.6c0.1-1.1,0.2-2.6,0.4-4.3c0.4-3.6,0.9-8.7,3.2-13.9c2.3-5.1,5.8-9.1,8.8-11.1
				c1.5-1.1,2.9-1.7,3.8-2.1c0.5-0.2,0.9-0.3,1.1-0.4c0.3-0.1,0.4-0.1,0.4-0.1c0.1,0.1-2.2,0.7-5.1,2.9c-2.9,2.1-6.3,6-8.6,11
				c-2.3,5-2.8,10.1-3.3,13.7c-0.2,1.8-0.4,3.3-0.6,4.3C712.5,887.3,712.3,887.9,712.3,887.8z"/>
		</g>
	</g>
</g>
<g>
	<g>
		<g>
			<path class="st6" d="M706.9,821.5c0,0,0.1,0.2,0.1,0.7c0.1,0.5,0.2,1.2,0.3,2c0.2,1.7,0.5,4.2,0.9,7.2c0.7,6.1,1.6,14.5,2.3,23.9
				c0.7,9.3,1.2,17.8,1.5,23.9c0.1,3.1,0.2,5.5,0.3,7.3c0,0.8,0,1.5,0,2c0,0.5,0,0.7,0,0.7c0,0,0-0.2-0.1-0.7c0-0.5-0.1-1.2-0.1-2
				c-0.1-1.8-0.3-4.2-0.4-7.2c-0.4-6.1-0.9-14.6-1.7-23.9c-0.7-9.3-1.6-17.8-2.2-23.9c-0.3-3-0.5-5.5-0.7-7.2
				c-0.1-0.8-0.1-1.5-0.2-2C706.9,821.7,706.9,821.5,706.9,821.5z"/>
		</g>
	</g>
</g>
<g>
	<g>
		<path class="st3" d="M707.9,869.4c-2.2-9.1-9.2-16.9-17.9-20.2c-2.2-0.8-5.1-1.3-6.7,0.5c-1.6,1.7-1,4.6,0.1,6.7
			c4.4,8.9,14.6,14.6,24.5,13.7"/>
	</g>
</g>
<g>
	<g>
		<g>
			<path class="st5" d="M691.6,856.3c0,0,0.5,0.1,1.4,0.5c0.5,0.2,1,0.4,1.6,0.7c0.6,0.3,1.3,0.6,2.1,1.1c0.7,0.4,1.6,0.9,2.4,1.5
				c0.9,0.6,1.7,1.2,2.6,2c1.7,1.5,3.5,3.3,5,5.4c1.5,2.1,2.7,4.4,3.6,6.5c0.4,1.1,0.8,2.1,1,3.1c0.3,1,0.5,1.9,0.6,2.7
				c0.2,0.8,0.2,1.6,0.3,2.3c0.1,0.7,0.1,1.3,0.1,1.7c0,1,0,1.5,0,1.5c-0.1,0-0.1-2.1-0.7-5.5c-0.2-0.8-0.4-1.7-0.7-2.7
				c-0.3-1-0.6-2-1.1-3c-0.9-2.1-2-4.3-3.5-6.4c-1.5-2.1-3.2-3.9-4.9-5.4c-0.9-0.7-1.7-1.4-2.5-2c-0.8-0.6-1.6-1.1-2.3-1.5
				C693.5,857.1,691.5,856.4,691.6,856.3z"/>
		</g>
	</g>
</g>
<g>
	<g>
		<path class="st7" d="M311.9,412.1l-27.1,9.9l-14.3,30.1c-0.7,6.2-16.3,69-16.3,69l-15.6,55.9c29.9,13.7,69.6,33.2,109.4,31.6
			l5.1-47.9l27.3-104.2l-20.8-41.3l-7.1-1L311.9,412.1z"/>
	</g>
</g>
<g>
	<g>
		<g>
			<g>
				<g>
					<path class="st8" d="M189.7,817.6L166.4,848c0,0,26.6,32,19.3,40l-60.6-43.1l34.4-48.9L189.7,817.6z"/>
				</g>
			</g>
		</g>
	</g>
	<g class="st9">
		<g>
			<g>
				<g>
					<g>
						<path class="st10" d="M149.5,832.1c-1.4-0.5-3.2,0.2-3.7,1.6c-0.6,1.4,0.2,3.2,1.6,3.7c1.4,0.5,3.5-0.3,3.9-1.7
							c0.4-1.4-0.6-3.5-2.1-3.7"/>
					</g>
				</g>
			</g>
		</g>
	</g>
	<g class="st9">
		<g>
			<g>
				<g>
					<path class="st10" d="M125.1,844.9l3.7-4.8L187,884c0,0,0.4,2.3-1.3,4L125.1,844.9z"/>
				</g>
			</g>
		</g>
	</g>
	<g>
		<g>
			<g>
				<g>
					<g>
						<path class="st5" d="M167.6,848.4c-0.2,0.3-1.8-0.6-3.9-0.7c-2.1-0.1-3.8,0.6-4,0.3c-0.2-0.3,1.5-1.7,4.1-1.6
							C166.3,846.6,167.9,848.2,167.6,848.4z"/>
					</g>
				</g>
			</g>
		</g>
	</g>
	<g>
		<g>
			<g>
				<g>
					<g>
						<path class="st5" d="M172.1,855.6c-0.1,0.3-1.8-0.1-3.7,0.5c-1.9,0.5-3.1,1.7-3.4,1.4c-0.3-0.2,0.7-2,3.1-2.7
							C170.5,854.2,172.3,855.3,172.1,855.6z"/>
					</g>
				</g>
			</g>
		</g>
	</g>
	<g>
		<g>
			<g>
				<g>
					<g>
						<path class="st5" d="M170.3,865.8c-0.3-0.1,0.3-1.9,2.2-3c1.9-1.1,3.8-0.7,3.7-0.4c0,0.4-1.5,0.6-3.1,1.5
							C171.6,864.8,170.6,866,170.3,865.8z"/>
					</g>
				</g>
			</g>
		</g>
	</g>
	<g>
		<g>
			<g>
				<g>
					<g>
						<path class="st5" d="M172.1,840.9c-0.3,0.2-1.4-1.2-3.1-2.3c-1.7-1.1-3.4-1.5-3.4-1.8c0-0.3,2-0.5,4.1,0.8
							C171.7,838.9,172.5,840.8,172.1,840.9z"/>
					</g>
				</g>
			</g>
		</g>
	</g>
	<g class="st11">
		<g>
			<g>
				<g>
					<polygon points="179.1,832.3 175,837.8 145.4,816.3 148.9,811.3 					"/>
				</g>
			</g>
		</g>
	</g>
	<g>
		<g>
			<g>
				<g>
					<g>
						<path class="st5" d="M176.7,834.7c-0.1,0.1-1.4-0.5-3-2.2c-0.8-0.8-1.7-1.9-2.5-3.2c-0.4-0.7-0.8-1.4-1.1-2.2
							c-0.2-0.4-0.4-0.8-0.4-1.4c-0.1-0.5,0.3-1.5,1-1.7c0.6-0.2,1.3-0.1,1.8,0.2c0.5,0.3,0.8,0.7,1,1c0.6,0.6,1,1.3,1.4,2
							c0.8,1.4,1.3,2.7,1.5,3.8c0.5,2.3,0.2,3.8,0,3.7c-0.2,0-0.2-1.4-0.9-3.5c-0.3-1-0.9-2.2-1.6-3.5c-0.4-0.6-0.8-1.2-1.4-1.8
							c-0.5-0.6-1.1-1-1.4-0.8c-0.1,0.1-0.2,0.1-0.2,0.4c0,0.3,0.2,0.6,0.3,1c0.3,0.7,0.6,1.4,1,2.1c0.7,1.3,1.4,2.4,2.1,3.2
							C175.8,833.6,176.9,834.5,176.7,834.7z"/>
					</g>
				</g>
			</g>
		</g>
	</g>
	<g>
		<g>
			<g>
				<g>
					<g>
						<path class="st5" d="M176.1,834.8c-0.1,0,0-1.5,1.3-3.5c0.6-1,1.5-2.1,2.8-3c0.6-0.5,1.3-0.9,2.1-1.3c0.8-0.3,1.8-0.8,3-0.2
							c0.6,0.4,0.8,1.2,0.7,1.7c-0.1,0.6-0.3,0.9-0.5,1.3c-0.4,0.8-0.9,1.5-1.5,2c-1.1,1.2-2.4,1.9-3.5,2.2
							c-2.3,0.7-3.8,0.2-3.7,0.1c0-0.2,1.4-0.1,3.4-0.9c1-0.4,2.1-1.1,3-2.2c0.5-0.5,0.9-1.1,1.2-1.8c0.4-0.7,0.5-1.4,0.2-1.5
							c-0.3-0.2-1.2-0.1-1.8,0.2c-0.7,0.3-1.3,0.7-1.9,1.1c-1.2,0.8-2.1,1.8-2.7,2.6C176.7,833.6,176.2,834.9,176.1,834.8z"/>
					</g>
				</g>
			</g>
		</g>
	</g>
</g>
<g>
	<g>
		<g>
			<g>
				<g>
					<path class="st12" d="M348.3,834.1l-13,32.6c0,0,37.7,11.3,37.6,20.3l-67.8,0.5c-2,0-3.5-1.8-3.1-3.8l10.4-49.4L348.3,834.1z"
						/>
				</g>
			</g>
		</g>
	</g>
	<g class="st9">
		<g>
			<g>
				<g>
					<g>
						<path class="st10" d="M313.2,863.8c-1.4,0.4-2.3,2-2,3.4c0.3,1.4,1.9,2.4,3.3,2c1.4-0.4,2.6-2.2,2.1-3.6
							c-0.5-1.4-2.4-2.4-3.7-1.7"/>
					</g>
				</g>
			</g>
		</g>
	</g>
	<g class="st9">
		<g>
			<g>
				<g>
					<path class="st10" d="M302.1,883.9l0.4-2.1L371,883c0,0,2.3,1.7,2,4l-67.9,0.5C303.2,887.5,301.7,885.8,302.1,883.9z"/>
				</g>
			</g>
		</g>
	</g>
	<g>
		<g>
			<g>
				<g>
					<g>
						<path class="st5" d="M336.5,866.3c0,0.4-1.8,0.5-3.5,1.7c-1.7,1.1-2.6,2.6-2.9,2.5c-0.3-0.1,0.2-2.2,2.3-3.5
							C334.4,865.6,336.6,866,336.5,866.3z"/>
					</g>
				</g>
			</g>
		</g>
	</g>
	<g>
		<g>
			<g>
				<g>
					<g>
						<path class="st5" d="M344,869.4c0.1,0.3-1.4,0.9-2.6,2.4c-1.2,1.5-1.5,3.1-1.9,3c-0.3,0.1-0.6-2,0.9-3.8
							C342,869.2,344,869,344,869.4z"/>
					</g>
				</g>
			</g>
		</g>
	</g>
	<g>
		<g>
			<g>
				<g>
					<g>
						<path class="st5" d="M348.4,878.3c-0.3,0.1-0.8-1.7,0.1-3.6c0.9-1.9,2.5-2.7,2.7-2.4c0.2,0.3-0.9,1.3-1.6,2.9
							C348.8,876.8,348.7,878.3,348.4,878.3z"/>
					</g>
				</g>
			</g>
		</g>
	</g>
	<g>
		<g>
			<g>
				<g>
					<g>
						<path class="st5" d="M339.3,859.7c-0.1,0.3-1.8-0.1-3.7,0c-2,0.1-3.5,0.8-3.7,0.5c-0.2-0.3,1.3-1.6,3.6-1.7
							C337.8,858.3,339.4,859.4,339.3,859.7z"/>
					</g>
				</g>
			</g>
		</g>
	</g>
</g>
<g>
	<g>
		<g>
			<g>
				<g>
					<path class="st5" d="M339.7,857.9c0,0.1-1.3,0.3-3.3,0c-1-0.2-2.2-0.5-3.4-1c-0.6-0.3-1.3-0.6-1.9-1c-0.3-0.2-0.7-0.4-1-0.8
						c-0.4-0.3-0.6-1.2-0.2-1.7c0.3-0.5,0.9-0.7,1.4-0.7c0.5,0,0.9,0.1,1.2,0.2c0.7,0.2,1.4,0.4,2,0.7c1.3,0.6,2.3,1.3,3,2
						c1.5,1.4,2,2.6,1.9,2.6c-0.1,0.1-0.9-0.9-2.4-2c-0.8-0.6-1.8-1.2-2.9-1.6c-0.6-0.2-1.2-0.4-1.9-0.6c-0.7-0.2-1.3-0.2-1.5,0.1
						c-0.1,0.1-0.1,0.2,0.1,0.4c0.2,0.2,0.4,0.4,0.7,0.6c0.6,0.4,1.2,0.7,1.7,1c1.1,0.6,2.2,0.9,3.2,1.2
						C338.5,857.6,339.7,857.7,339.7,857.9z"/>
				</g>
			</g>
		</g>
	</g>
</g>
<g>
	<g>
		<g>
			<g>
				<g>
					<path class="st5" d="M339.6,857.9c-0.1,0-0.8-1.1-0.9-3.1c-0.1-1,0-2.3,0.4-3.6c0.2-0.7,0.5-1.3,0.8-2c0.4-0.6,0.8-1.5,2.1-1.7
						c0.6,0,1.2,0.5,1.4,0.9c0.2,0.4,0.3,0.8,0.3,1.2c0.1,0.8,0.1,1.5,0,2.2c-0.2,1.4-0.8,2.5-1.4,3.4c-1.3,1.7-2.6,2.1-2.6,2
						c-0.1-0.2,1-0.8,2-2.4c0.5-0.8,0.9-1.9,1-3.1c0.1-0.6,0-1.2-0.1-1.9c-0.1-0.7-0.4-1.2-0.6-1.2c-0.3,0-0.9,0.5-1.1,1.1
						c-0.3,0.6-0.6,1.2-0.8,1.8c-0.4,1.2-0.6,2.3-0.6,3.3C339.4,856.6,339.8,857.8,339.6,857.9z"/>
				</g>
			</g>
		</g>
	</g>
</g>
<path class="st13" d="M423.5,304.5l-10,68.1l-45.9,44l17,29.3l52.1-48.7c3.9-3,6.7-7.2,7.8-12.1l0-70.4l-0.3-22.9L423.5,304.5z"/>
<path class="st14" d="M333.3,585.1c2,1.3,54.7,111.3,54,119.4c-0.7,8-40.4,154.9-40.4,154.9l-40.5-7.5l25.1-143.2L284,641.8
	l15.5-60.8L333.3,585.1z"/>
<path class="st6" d="M239.8,571.7c-1.3,2.7-26,130.7-26,130.7l-68.9,112.1l35.8,26.1l85.1-110.9l46.6-141L239.8,571.7z"/>
<g>
	<g>
		<polygon class="st15" points="388.5,392.4 362.4,414.1 357.5,414.8 377.2,458.3 413.5,429 		"/>
	</g>
	<g>
		<path class="st15" d="M311.9,412.1l-27.1,9.9l-14.3,30.1c-0.7,6.2-16.3,69-16.3,69l-15.6,55.9c29.9,13.7,69.6,33.2,109.4,31.6
			l5.1-47.9l27.5-105.1l-21.1-40.4l-7.1-1L311.9,412.1z"/>
	</g>
</g>
<g>
	<g>
		<g>
			<g>
				<g>
					<g>
						<g>
							<g>
								<path class="st13" d="M351.7,420.3c0.7-5,1.2-9.2,1.3-9.7c0,0,17.2,0.6,20.6-16c1.7-8,3.7-24.9,5.4-40.1
									c1.8-16.4-9.3-31.4-25.4-34.5l-1.6-0.3c-17.5-2.3-29.3,11.2-31.2,28.8l-8.4,64.2c0,0,16.2,14.5,25.7,19.2
									C350.3,437.9,351.7,420.3,351.7,420.3z"/>
							</g>
						</g>
					</g>
				</g>
			</g>
		</g>
	</g>
	<g>
		<g>
			<g>
				<g>
					<g>
						<g>
							<g>
								<path class="st16" d="M353.1,410.3c0,0-10.7-1.2-20.5-10.4c0,0,2.8,13,19.7,14.7L353.1,410.3z"/>
							</g>
						</g>
					</g>
				</g>
			</g>
		</g>
	</g>
	<g>
		<g>
			<g>
				<g>
					<g>
						<g>
							<g>
								<g>
									<g>
										<g>
											<path class="st5" d="M347.7,364.5c-0.2,1.3-1.5,2.2-2.8,2c-1.4-0.2-2.3-1.4-2.1-2.7c0.2-1.3,1.5-2.2,2.8-2
												C347,362,347.9,363.2,347.7,364.5z"/>
										</g>
									</g>
								</g>
							</g>
						</g>
					</g>
				</g>
			</g>
		</g>
	</g>
	<g>
		<g>
			<g>
				<g>
					<g>
						<g>
							<g>
								<g>
									<g>
										<g>
											<path class="st5" d="M372.8,369c-0.2,1.2-1.4,2.1-2.7,1.9c-1.3-0.2-2.2-1.3-2-2.5c0.2-1.2,1.4-2.1,2.7-1.9
												C372.2,366.6,373,367.8,372.8,369z"/>
										</g>
									</g>
								</g>
							</g>
						</g>
					</g>
				</g>
			</g>
		</g>
	</g>
	<g>
		<g>
			<g>
				<g>
					<g>
						<g>
							<g>
								<g>
									<g>
										<g>
											<path class="st16" d="M354.2,378.4c0-0.1,1.7-0.1,4.3,0.1c0.7,0.1,1.3,0,1.5-0.4c0.2-0.4,0.1-1.2-0.1-2
												c-0.3-1.7-0.6-3.5-1-5.4c-1.3-7.6-2.1-13.8-1.8-13.9c0.3-0.1,1.6,6.1,2.9,13.7c0.3,1.9,0.6,3.7,0.9,5.4
												c0.1,0.8,0.4,1.7-0.2,2.6c-0.3,0.5-0.8,0.7-1.3,0.7c-0.4,0-0.8,0-1.1-0.1C355.8,378.8,354.2,378.5,354.2,378.4z"/>
										</g>
									</g>
								</g>
							</g>
						</g>
					</g>
				</g>
			</g>
		</g>
	</g>
	<g>
		<g>
			<g>
				<g>
					<g>
						<g>
							<path class="st17" d="M353.6,355.2c-0.5,0.5-4.5-0.6-9.4-1.2c-4.9-0.7-8.9-0.8-9.4-1.4c-0.2-0.3,0.5-0.7,2.2-0.9
								c1.7-0.2,4.2-0.2,7.1,0.2c2.9,0.4,5.5,1.1,7.2,1.8C353,354.4,353.8,355,353.6,355.2z"/>
						</g>
					</g>
				</g>
			</g>
		</g>
	</g>
	<g>
		<g>
			<g>
				<g>
					<g>
						<g>
							<path class="st17" d="M376.8,358.6c-0.4,0.4-3.3-0.6-6.7-1.2c-3.5-0.7-6.4-0.8-6.7-1.4c-0.1-0.3,0.4-0.6,1.7-0.7
								c1.2-0.2,3.1-0.1,5.2,0.3c2.1,0.4,3.9,1.1,5.1,1.7C376.5,357.9,377,358.4,376.8,358.6z"/>
						</g>
					</g>
				</g>
			</g>
		</g>
	</g>
	<g>
		<g>
			<path class="st13" d="M319.8,361.1c-0.3-0.2-10.8-8.1-10.8,4.9c0,11.6,8.2,11.9,8.2,11.6C317.3,377.2,319.8,361.1,319.8,361.1z"
				/>
		</g>
	</g>
	<g>
		<path class="st17" d="M403.1,342c-0.1-0.7-0.5-1.3-1.1-1.7c-1.2-0.9-2.8-1-4.2-1.2c-4.5-0.6-8.7-2.5-12.2-5.3
			c-1.5-2.7-3.2-5.4-5-7.8c-4.5-5.9-8.2-9.9-12.4-12.2c-5.3-2.9-14.6-4.9-20.6-4.1c-6,0.8-11.8,5-13.4,10.9
			c-2.9-3.2-7.9-3.7-12.1-2.6l-0.1-0.1c-4.6,1.1-7.7,5.5-9.6,9.8c-1.8,4.4-3,9.2-5.9,12.9c-0.6,0.8-1.3,1.7-1,2.7
			c0.3,0.7,1.1,1.1,1.9,1.1c0.8,0,1.5-0.4,2.2-0.7c-0.6,1.1-1.3,2.3-1.9,3.4c1.6,0.5,3.3,0.5,4.9,0.3c0.4,4.4,1,9.3,1.7,12.3
			c1.9,0.2,3.5,0.5,4.6,1.7c1.4,1.6,1.8,4.3,4.5,3.6c1.4-0.4,2.9-3,3.5-4.3c4-8.6,6.1-18,6.1-27.4c2.1-1.7,4.5-3.1,7.1-3.9l-0.2,0.2
			c4.9-1.1,10.4-2,14.6,0.7c3.3,2.1,4.9,5.9,7.1,9.1c4.3,6,10.5,9.7,17.8,10.9c-0.3,4.8-1.5,11.4-1.8,16.2l4.9-7.1l0,0
			c0.4-0.5,0.7-1,1.1-1.6l0.1-0.2l0,0c0.5-0.9,1-1.7,1.6-2.5c0,0,0,0,0,0c2.3,2.6,6.5-0.4,4.8-3.4c-0.3-0.6-0.8-1.1-1.3-1.6
			c1,1.2,2.7,2,4.3,1.7c1.6-0.3,3-1.7,3-3.3c0-1.1-0.6-2.2-1.6-2.7c2.1,0.4,4.2,0.2,6.1-0.6C402,344.5,403.3,343.6,403.1,342z"/>
	</g>
	<path class="st10" d="M346,383c0,0,6,8,11,8c0,0-7,4-9,2S343,386,346,383z"/>
</g>
<path class="st18" d="M277.6,467c0,0,22.7,32.8,39,32.6l5.7,0l2.7-4.9c0,0,36.1,7.3,44.2,4.4l-44.7-16.6l-8.6,5L277.6,467z"/>
<path class="st13" d="M305.5,482c0,0,81.4,23.7,90.9,21.5c9.6-2.2,69-49.8,69-49.8l-13.4-16.1l-61.4,33.9L317,448.1L305.5,482z"/>
<path class="st15" d="M285.1,421.9c0,0-13.6,3-15.6,25.3c-2.4,26.7,50.3,47.5,50.3,47.5l26-43.5L285.1,421.9z"/>
<path class="st19" d="M658.4,595c-1.8,0.9-68.8,94.5-88,120.3c-3.5,4.7-5.2,10.8-3.7,16.5c8.6,33.3,43.6,135.5,43.6,135.5l47-9.8
	l-29.5-122.2l72.9-78.2l-8.2-62.2L658.4,595z"/>
<g>
	<g>
		<g>
			<path class="st20" d="M464.5,376.8c0.3,0.2,3,1.5,5.6,2.8c3,1.5,5.5,3.8,7.1,6.7c1.9,3.3,4.3,7.4,4.5,7.5
				c0.4,0.3,9.7,7.5,9.7,7.5l-13.2,18.1l-3.6-2.9c0,0-13.1-0.7-18.1-3.1c-4.9-2.4-9.5-6.3-9-8c0.6-1.7,0.8-2.3,0.8-2.3
				s-2.1-3.1-1.3-5.9c0,0-3-3.5-2.5-5.9c0.9-4,4.6-4.5,4.6-4.5s-1.5-4,0-6.2c1.5-2.2,4.4-2.8,4.4-2.8l12.3,5.3L464.5,376.8z"/>
		</g>
	</g>
</g>
<path class="st14" d="M752.9,592.8c1,2.8,13,147.3,13,147.3l80.6,106.8l-34.2,23.9l-91.1-93.5c-4.4-4.4-7.4-10-8.7-16.1l-33.7-160.1
	L752.9,592.8z"/>
<g>
	<g>
		<polygon class="st7" points="562.3,441.4 633.3,442.9 638.1,443.7 618.5,487.2 546,476.8 474.9,424.1 493.9,397.5 		"/>
	</g>
	<g>
		<path class="st7" d="M675.7,439.6l27.2,7.1c6.9,2.1,12.5,7.3,15,14.1l7.7,27.7l16,61.6l15.6,55.9c-27.8,12.7-49.9,30.1-84.9,31.2
			c-4.9,0.2-9.8-0.7-14.2-2.7l-22.9-9.7l7.4-35.1l-27.3-104.2l20.8-41.3l7.1-1L675.7,439.6z"/>
	</g>
</g>
<g>
	<g>
		<g>
			<g>
				<g>
					<path class="st21" d="M573.8,405.7c-0.2-1.1,0-2.2,0.6-3.1c1.3-2.2,3.7-3.2,6-4.2c0.3-3.3,0.1-6.6-0.7-9.8
						c-1.1,0.5-2.3,0.5-3.5,0.3c-0.2,0-0.4,0.1-0.6,0c-2.6-0.2-4.1-3.4-3.5-5.9c0.6-2.5,2.6-4.5,4.6-6.2c-1.6,0.7-2.6,2.4-4,3.5
						c-1.4,1.1-3.9,1.4-4.7-0.2c-0.3-0.5-0.3-1-0.3-1.6c-0.1-1.1-0.1-2.2-0.2-3.3c-0.1-0.9-0.1-1.9,0.5-2.6c0.4-0.5,1-0.7,1.5-1.1
						c1.7-1.2,1.8-3.9,3.4-5.1c1.2-0.9,2.9-0.8,4.4-1c1.5-0.2,3.2-1.2,3.2-2.7c-2.2-0.4-4.5-0.8-6.3-2.2c-1.8-1.4-2.8-4-1.8-5.9
						c0.8-1.5,2.7-2.2,4.3-2.8c1.9-0.6,4.3-1.1,5.5,0.5c2.2-1.7,5.9-1,7.3,1.5c1.5-0.8,3-1.5,4.5-2.3c-1.9-0.9-4.1-1-5.8-2.2
						c-1.7-1.1-2.6-4-0.9-5.1c0.6-0.4,1.5-0.5,2-1c0.4-0.4,0.6-0.9,1.1-1.2c0.4-0.2,0.8-0.1,1.2,0c4.1,0.9,8.3,1.8,12.4,2.7
						c-1.7-1.7-3.4-3.5-5.1-5.2c-1.6-1.6-3.2-4-2-5.9c1.2-1.8,4.3-1.1,5.4,0.8c1.6-1.2,4.3-0.4,5.1,1.5c1.1-1,2.9-1.2,4.2-0.4
						c1.3,0.8,2,2.5,1.6,3.9c1.7-0.6,3.5-0.8,5.3-0.4c-0.9-2.1,1.8-4.7,3.8-3.7c-0.3-1-0.7-2.1-0.4-3.1c0.3-1,1.5-1.8,2.5-1.3
						c-0.8-1.2-0.7-3,0.2-4.1c0.9-1.2,2.6-1.7,4-1.2c0.3-0.9,0.6-1.7,0.9-2.6c1.7-0.7,3.8-0.7,5.1,0.6c1.3,1.3,1,3.9-0.8,4.4
						c1.2-0.5,1.6,1.5,1.3,2.7c-0.4,1.7-0.9,3.4-1.3,5.1c0.8-1.6,2.7-2.6,4.4-2.2c0.6-1.6,2.7-2.3,4.1-1.6c0.2-2,3.5-2.7,4.4-0.9
						c0-0.9,1-1.3,1.9-1.6c1.2-0.3,2.6-0.6,3.7-0.1c1.2,0.5,1.8,2.2,0.9,3.1c0.8-1,2.5-0.3,3,0.8c0.5,1.1,0,2.5-0.5,3.6
						c-0.6,1.1-1.3,2.2-1.4,3.4c0.6-1.1,1.9-1.6,3.1-2c2.1-0.7,4.3-1.5,6.5-1.1c0-0.9,1.2-1.4,2.1-1.6c2.9-0.5,6-0.1,8.7,1.1
						c1.3,0.6,2.6,1.7,2.4,3c-0.1,0.6-0.5,1.2-0.9,1.7c-1.6,2.1-3.2,4.3-4.9,6.4c3.9-0.3,7.8,0.7,11.1,2.8c1.6,0.2,3.2-0.3,4.7,0.2
						c1.5,0.5,2.4,2.9,0.9,3.5c1.2,0.4,2.1,1.6,2,2.8c0,0.5-0.3,1-0.6,1.5c-0.1,0.4-0.2,0.7-0.4,1.1c-0.4,0.6-0.8,1.1-1.4,1.6
						c-0.3,1.1-1.2,2.1-2.3,2.4c1.6,0.6,3.1,1.3,4.4,2.4c1.7,1.4,2.8,3.7,2.2,5.9c0,0.1-0.1,0.2-0.1,0.3c0.1,0.8-0.1,1.6-0.5,2.2
						c0.4,0.4,0.7,0.9,0.8,1.5c2.4,0,4.8,1.4,5.9,3.5c1.1,2.1,1,4.9-0.3,6.9c-1.1,1.6-3.9,2.5-4.7,0.7c-0.1,1.7-1.2,3.3-2.6,4.1
						c2.2,1.8,2.2,5.6,0,7.4c3.5,1.1,4.4,6.5,1.6,8.8c1.4,1.6,1.2,4.4-0.5,5.8c-1.6,1.4-4.4,1.2-5.8-0.5c-0.2,1.7-0.4,3.4-1.5,4.7
						c-1.1,1.3-3.3,1.8-4.4,0.5c0.2,3.4-3.5,6.4-6.8,5.5c0.7,1.7-0.1,3.9-1.8,4.7c-1.6,0.8-3.9,0.1-4.8-1.5
						c-2.9,1.1-5.9,2.2-8.8,3.3c-2,0.7-3.9,1.5-6,1.8c-2.6,0.5-5.4,0.3-7.9-0.5c-0.8-0.3-1.7-0.6-2.5-0.5c-1,0.1-1.7,0.8-2.5,1.5
						c-4.1,3.2-9.9,4-14.7,2c-0.8-0.3-1.5-0.7-2.3-0.7c-0.9-0.1-1.8,0.3-2.7,0.6c-2.2,0.8-4.4,1.3-6.7,1.5c-2,0.2-4.2,0.1-5.6-1.2
						c-1.5-1.3-1.5-4.3,0.4-4.9c-0.3-1.2-1.1-2.5-2.3-3c-1.2-0.5-2.8-0.1-3.3,1.1c-0.5,1.2,0.6,2.8,1.9,2.5c-1.5,2.1-5.3,1.4-6.3-1
						c-1-2.4,0.6-5.3,3.1-6.3c-1.1-1.5-1.9-3.4-2.2-5.3c-0.6,2-3.1,3.3-5.1,2.7c-0.4,1.9-1.4,3.8-3.2,4.8c-1.7,1-4.2,0.8-5.4-0.7
						c-1.2-1.5-0.6-4.3,1.3-4.8c-2.1-1.6-1.4-5.5,1.1-6.2c-1.3-2.2-0.8-5.3,1.1-7c-1.1,1.4-3.6,1.4-4.6,0c-0.4,2.2-3.3,2.8-5.5,2.5
						C576,408.6,574.2,408,573.8,405.7z"/>
				</g>
			</g>
		</g>
	</g>
</g>
<g>
	<path class="st20" d="M676.3,441.5l-21.5-62.1c-5.1-16.9-19.2-28-36-22.4l-1.5,0.6c-15.3,6.1-23.3,22.9-18.5,38.6
		c4.5,14.6,9.7,30.7,12.8,38.3c6.5,15.7,23.2,11.8,23.2,11.8c0,0,1.3,3.7,3,8.4l0,0c0,0,2.7,15.7,15,12
		C665.2,462.9,676.3,441.5,676.3,441.5z"/>
</g>
<g class="st9">
	<g>
		<g>
			<g>
				<path class="st22" d="M634.8,446.3c0,0,10.2-3.4,18.1-14.2c0,0,1.4,18.1-14.8,22.9L634.8,446.3z"/>
			</g>
		</g>
	</g>
</g>
<g>
	<g>
		<g>
			<g>
				<g>
					<g>
						<g>
							<g>
								<g>
									<g>
										<path class="st5" d="M607.5,407.1c0.4,1.2,1.8,1.8,3.1,1.4c1.3-0.4,1.9-1.7,1.5-3c-0.4-1.2-1.8-1.8-3.1-1.4
											C607.8,404.6,607.1,405.9,607.5,407.1z"/>
									</g>
								</g>
							</g>
						</g>
					</g>
				</g>
			</g>
		</g>
	</g>
</g>
<g>
	<g>
		<g>
			<g>
				<g>
					<g>
						<g>
							<g>
								<g>
									<g>
										<path class="st5" d="M630.1,399.9c0.4,1.2,1.8,1.8,3.1,1.4c1.3-0.4,1.9-1.7,1.5-2.9c-0.4-1.2-1.8-1.8-3.1-1.4
											C630.3,397.3,629.6,398.7,630.1,399.9z"/>
									</g>
								</g>
							</g>
						</g>
					</g>
				</g>
			</g>
		</g>
	</g>
</g>
<g class="st9">
	<g>
		<g>
			<g>
				<g>
					<g>
						<g>
							<g>
								<g>
									<g>
										<path class="st22" d="M627.6,415c0-0.1-1.6,0.2-4.2,0.9c-0.6,0.2-1.3,0.3-1.5-0.1c-0.3-0.4-0.3-1.2-0.3-2
											c0-1.7,0-3.5-0.1-5.4c-0.1-7.7-0.5-13.9-0.8-13.9c-0.3,0-0.5,6.3-0.3,14c0,1.9,0.1,3.7,0.1,5.4c0,0.8,0,1.8,0.6,2.6
											c0.4,0.4,0.9,0.5,1.4,0.5c0.4,0,0.8-0.2,1.1-0.3C626.1,415.7,627.6,415.1,627.6,415z"/>
									</g>
								</g>
							</g>
						</g>
					</g>
				</g>
			</g>
		</g>
	</g>
</g>
<g>
	<g>
		<g>
			<g>
				<g>
					<g>
						<path class="st5" d="M625,389c0.5,0.6,2.8-0.7,5.8-1.5c3-0.8,5.6-0.9,5.7-1.7c0.1-0.3-0.6-0.8-1.8-1.1
							c-1.2-0.3-2.9-0.3-4.7,0.2c-1.8,0.5-3.2,1.4-4.1,2.2C625.1,388,624.8,388.7,625,389z"/>
					</g>
				</g>
			</g>
		</g>
	</g>
</g>
<g>
	<g>
		<g>
			<g>
				<g>
					<g>
						<path class="st5" d="M602.5,396.9c0.6,0.4,2.1-0.8,4.1-1.6c2-0.9,3.9-1,4-1.7c0.1-0.3-0.4-0.8-1.4-1c-0.9-0.2-2.3-0.2-3.7,0.3
							c-1.4,0.6-2.4,1.5-2.9,2.3C602.2,396,602.2,396.7,602.5,396.9z"/>
					</g>
				</g>
			</g>
		</g>
	</g>
</g>
<path class="st22" d="M629,423c0,0,6-6,9-4s3,9-2,9S629,423,629,423z"/>
<g>
	<path class="st21" d="M589.6,384.6c-0.2-0.8-0.5-1.7-0.6-2.5c-0.1-1.4,0.4-2.6,1-3.8c1.9-4.1,3.9-8.4,7.3-10.9
		c2.1-1.5,4.6-2.2,6.7-3.7c1.3-0.9,2.4-2.1,3.6-3.2c5-4.4,11.2-6.6,17.5-7.9c3.5-0.7,7.2-1.2,10.8-0.6c4,0.6,7.9,2.5,11.7,4.5
		c5.6,3.1,11.1,6.7,15.6,11.8c3.4,3.9,6.3,8.8,7,14.1c0.7,5.3-1,11-5,13.3c-0.7-0.5-1.5-1-2.2-1.4l-3.5-2.1c0.8,1,0.4,1.1-0.3,2
		c-0.8,0.9-2.3,1-3.2,0c-0.5,1.3-2.6,0.7-2.7-0.7c-0.8,0.8-2.5-0.1-2.5-1.4c-1,0.8-2.2-0.9-3.2-1.9c-0.5-0.6-1.1-1-1.7-1.5
		c-1.8-1.6-3.2-3.8-3.8-6.2c-2-1.2-3.1-3.7-4.1-6c-0.6-1.4-1.2-2.9-1.9-4.3c-0.4-0.3-0.8-0.5-1.1-0.8c0.4,1.1-0.1,2.2-0.9,2.8
		c-0.8,0.6-1.8,0.7-2.7,0.8c-0.9,0.1-1.9,0.2-2.8,0.3c-0.5,0.3-1,0.7-1.5,1c0.9,1.2,0.9,3,0.8,4.5c-0.1,1.1-0.2,2.2-0.8,2.9
		c-0.7,0.7-2.1,0.2-2.2-0.8c-0.4,0.8-1.5,0.9-2.3,0.3c-0.7-0.6-1.2-1.6-1.4-2.6c-0.6-2.4-0.5-4.9,0.2-7.1c-1.1,1.9-2.2,3.8-3.4,5.7
		c-0.2,0.4-0.5,0.9-0.9,1c0.4,0.7-0.2,1.6-0.9,1.7c-0.7,0.1-1.4-0.3-2.1-0.7c-1.5-0.9-3.3-2.5-2.7-4.2c-0.6,0.1-1.1-0.8-0.9-1.3
		c-1.4,1.9-2.7,3.7-4.1,5.6c0.4-0.5,1.3,0.2,1.3,0.9c0.1,0.7-0.3,1.3-0.6,1.9c0.7,0.6,1.2,1.4,1.3,2.3c0.7-1.1,2.6,0,2.7,1.5
		c0.1,1.5-1,2.6-2.1,3c-1,0.4-2.3,0.2-2.8-0.8c-1.1,0.6-2.7-0.7-2.6-2.1c-0.7,0.8-1.9-0.5-2.2-1.6c-0.7-2-1-4.1-0.9-6.1
		c-0.1,0.2-0.2,0.3-0.4,0.2c-0.1,0-0.1-0.1-0.2-0.2c-0.3,2.5-0.5,5.1-0.8,7.6c-0.2,2.1-0.4,4.4,0.1,6.5c0.2,0.9,0.5,2.1-0.2,2.4
		c-0.2,0.1-0.4,0.1-0.6,0c-2.4-0.4-4.6-2.1-6.4-4.1c-0.6-0.7-1.1-1.5-1.5-2.3C589.8,388.6,590.1,386.5,589.6,384.6z"/>
</g>
<g>
	<g>
		<g>
			<path class="st20" d="M658.1,391.6c0.2-0.2,9-6,10.9,5.4c2,12-5.2,10.6-5.4,10.3C663.5,407,658.1,391.6,658.1,391.6z"/>
		</g>
	</g>
</g>
<path class="st18" d="M634.5,558.2c0,0,21.7,2.6,36.2-7c14.5-9.6,32.6-46.7,32.6-46.7s-36.3,41.9-70.5,47.3L634.5,558.2z"/>
<path class="st7" d="M675.6,468.9C663.3,485,640,515.4,640,515.4L553.9,528l4.5,28.5l85.6-4.9c12.6-1.1,24.3-7,32.7-16.5
	c10.5-11.7,24.7-27.9,33.6-39.2c8-10.2,5.6-25-5.3-32.1l0,0C695.4,457.7,682.6,459.9,675.6,468.9z"/>
<g class="st18">
	<path d="M666.5,589.5c8.5-0.9,17.1-1.1,25-4.3c7.9-3.2,15.2-8.8,18.6-16.7C696.2,576.8,681.6,583.8,666.5,589.5z"/>
</g>
<g>
	<g>
		<g>
			<path class="st23" d="M516.5,565.2c-0.2,0.2-1.8,1.7-3.2,3.2c-1.7,1.7-3,3.8-3.6,6c-0.7,2.5-1.2,4.5-1.3,4.7l-3.5,11.2l13,9.5
				l2.1-9.4c0,0,5.4-2.1,8.3-4.9c2.9-2.8,4.2-4,4.9-6.4c0.5-1.5-0.4-2.7-0.4-2.7s-0.2-5.1-2-5.3c0,0,1-2.7,0.4-4.1
				c-1.2-2.6-4.8-2.4-4.8-2.4s1.2-1.1-0.1-2c-1.4-0.9-2.4,0.4-2.4,0.4l-7.3,6.5L516.5,565.2z"/>
		</g>
	</g>
</g>
<path class="st10" d="M412.3,597.8c-5.3,8.4-3.7,19.4,3.8,26c17.2,15,63.6,41,70.6,39.9c10.1-1.7,36.4-60.4,36.4-60.4l-19.6-16.2
	l-24.5,39.8c0,0-20.2-19.1-36.1-31.6C433.2,587.6,418.8,587.4,412.3,597.8L412.3,597.8z"/>
<g>
	<g>
		<g>
			<path class="st13" d="M419.2,276c0,0.2-0.3,0.8-0.8,1.7c-2.2,3.7-2.1,8.4,0.3,12l4.1,6.3l0.5,9.7l21,5l-1-17.1
				c0,0,3.5-7.2,3.5-12.1c0-4.9-1.3-10-2.9-10.3c-1.6-0.2-2.1-0.3-2.1-0.3s-1.6-2.8-4.2-3.3c0,0-1.3-6.3-3.4-6.8
				c-2.2-0.5-4.1,1.7-4.1,1.7s-2.7-5.1-5-4.8c-4.7,0.7-4.7,5.4-4.7,5.4l-1.4,13.3L419.2,276z"/>
		</g>
	</g>
</g>
<g>
	<path class="st6" d="M370.1,77c-0.9-2.8-3.9-4.4-6.7-3.5c-2.8,0.9-4.4,3.9-3.5,6.7l253.4,807.2l11.1,0.5L370.1,77z"/>
	<path class="st24" d="M376.7,87.7c0,0-67.3,45.9-119.4,50.1c-52.1,4.1-111,8.1-142,42.9c0,0,114.5,18,120.9,33.2
		c0,0-68.4,54.3-78.8,85.5c0,0,49.2-17.4,59.4-21.7c33.7-14.3,99.3-7.9,124.3-16.9c27.7-10,53.9-38.1,76.6-42.4L376.7,87.7z"/>
	<g class="st18">
		<path d="M370.6,122.9c0.8,16.5,1.5,33.2,5.2,49.3c3.7,16.1,10.5,31.9,22,43.9C387.4,185.4,378.3,154.2,370.6,122.9"/>
	</g>
</g>
<g>
	<g>
		<g>
			<path class="st20" d="M509.1,519.8c0.5,0,8.6,0,13.4,0c2.3,0,4.5,0.8,6.2,2.4c3.8,3.4,10.2,9.2,10.2,9.2l14.9-1.7l4.1,24.7
				l-20.7-0.8c0,0-8.9,2.6-14.4,2.5c-5.5-0.1-11.3-1.7-11.5-3.5c-0.2-1.8-0.3-2.4-0.3-2.4s-3.2-1.9-3.6-4.8c0,0-7.1-1.6-7.6-4.1
				c-0.6-2.5,2-4.6,2-4.6s-5.7-3.2-5.3-5.7c0.4-2.6,2.9-4,2.9-4l11.2-1.5L509.1,519.8z"/>
		</g>
	</g>
</g>
<g>
	<g>
		<path class="st25" d="M476,509.9c4.9,6.6,6.2,15.6,3.5,23.4c-1.3,3.8-3.6,7.8-1.9,11.4c1.7,3.6,6.5,4.8,8.1,8.4
			c1.8,4.3-1.9,8.9-2.1,13.5c-0.2,4.4,3.3,8.5,7.6,9.1c-6,2.7-12.7,3.6-19.2,2.8c-1-2.5-2.1-5-3.1-7.5c1.2,2.7-0.2,6-2.5,7.7
			c-2.4,1.7-5.4,2.2-8.3,2.3c-14,0.6-28-5.8-36.8-16.7"/>
	</g>
</g>
<g>
	<g>
		<path class="st25" d="M394.8,524.2c1.8-2.7,4.1-5,5.6-7.8c3.2-6.1,2-14.3,6.7-19.3c3.4-3.6,8.7-4.3,13.6-4.5
			c4.9-0.2,10.1,0,14.3-2.4c3.1-1.8,5.4-4.7,8.6-6.5c4.5-2.5,10-2.3,15-1.3c5.1,1.1,10.3,3,14.2,6.4c3.9,3.5,6.6,8.7,6,13.9
			c-0.3,2.5-1.3,5-1.1,7.6c0.1,2.8,1.6,5.4,2.2,8.1c1.3,5.8-2,12.3-7.5,14.7l-47,35.5c-8.1,0.8-24.8-7.4-29-14.3
			C392.3,547.5,390.4,530.9,394.8,524.2z"/>
	</g>
</g>
<g>
	<g>
		<g>
			<g>
				<g>
					<path class="st23" d="M473.1,527.3c1.3-10.6-3.2-24.7-13.8-25.6l-34.1,2c-3.2-0.3-6.1,2-6.7,5.2L407,588c-0.1,0-0.2,0-0.2,0
						c0,0,3.1,23.6,25.9,20.9c4.5-0.5,6,1.4,7.8-3.2l0,0c0.1-0.6,0,0,0.1-0.6c1.4-5.8,4-18,4-18l0,0c1.3-6.3,1.8-8.9,1.8-8.9
						c0,0,13.8,0.3,19.9-16.6C469.3,553.3,471.6,539,473.1,527.3z"/>
				</g>
			</g>
		</g>
	</g>
</g>
<g>
	<g>
		<g>
			<g>
				<g>
					<g>
						<g>
							<g>
								<g>
									<g>
										<g>
											<g>
												<g>
													<path class="st5" d="M469.4,537.6c-0.3,0.3-2-1.5-4.7-1.8c-2.6-0.4-4.8,1-5,0.6c-0.1-0.2,0.3-0.8,1.2-1.4
														c0.9-0.6,2.4-1.1,4.1-0.9c1.6,0.2,3,1.1,3.7,1.9C469.4,536.7,469.6,537.4,469.4,537.6z"/>
												</g>
											</g>
										</g>
									</g>
								</g>
							</g>
						</g>
					</g>
				</g>
			</g>
		</g>
	</g>
</g>
<g>
	<g>
		<g>
			<g>
				<g>
					<g>
						<g>
							<g>
								<g>
									<g>
										<g>
											<g>
												<g>
													<g>
														<path class="st5" d="M445,533.9c-0.4,0.3-2-1.7-4.8-2.3c-2.8-0.7-5.1,0.4-5.4,0c-0.1-0.2,0.4-0.8,1.4-1.3
															c1-0.5,2.7-0.8,4.4-0.4c1.7,0.4,3,1.4,3.7,2.3C445,533,445.2,533.7,445,533.9z"/>
													</g>
												</g>
											</g>
										</g>
									</g>
								</g>
							</g>
						</g>
					</g>
				</g>
			</g>
		</g>
	</g>
</g>
<g>
	<g>
		<g>
			<g>
				<g>
					<g>
						<g>
							<g>
								<g>
									<g>
										<g>
											<g>
												<g>
													<g>
														<path class="st5" d="M450.2,549.5c0-0.1,1.6-0.1,4,0c0.6,0.1,1.2,0,1.4-0.4c0.2-0.4,0.1-1.1-0.1-1.9
															c-0.3-1.6-0.6-3.3-0.9-5c-1.3-7.1-2-13-1.7-13c0.3,0,1.5,5.7,2.8,12.8c0.3,1.8,0.6,3.4,0.8,5c0.1,0.7,0.3,1.6-0.1,2.5
															c-0.3,0.4-0.8,0.7-1.2,0.7c-0.4,0-0.8,0-1.1-0.1C451.7,550,450.1,549.7,450.2,549.5z"/>
													</g>
												</g>
											</g>
										</g>
									</g>
								</g>
							</g>
						</g>
					</g>
				</g>
			</g>
		</g>
	</g>
</g>
<g class="st9">
	<g>
		<g>
			<g>
				<g>
					<g>
						<g>
							<g>
								<g>
									<g>
										<g>
											<g>
												<g>
													<path class="st26" d="M446.4,578.3c0,0-11.9-1.5-22.2-10.7c0,0,2,19.7,19.8,21.4L446.4,578.3z"/>
												</g>
											</g>
										</g>
									</g>
								</g>
							</g>
						</g>
					</g>
				</g>
			</g>
		</g>
	</g>
</g>
<g>
	<g>
		<g>
			<g>
				<g>
					<g>
						<g>
							<g>
								<g>
									<g>
										<g>
											<g>
												<g>
													<path class="st5" d="M447,522.8c-0.4,0.6-2.7-0.2-5.6-0.4c-2.9-0.3-5.3,0.1-5.6-0.5c-0.1-0.3,0.4-0.9,1.4-1.3
														c1-0.5,2.6-0.8,4.3-0.6c1.7,0.1,3.2,0.7,4.2,1.3C446.7,521.9,447.1,522.5,447,522.8z"/>
												</g>
											</g>
										</g>
									</g>
								</g>
							</g>
						</g>
					</g>
				</g>
			</g>
		</g>
	</g>
</g>
<g>
	<g>
		<g>
			<g>
				<g>
					<g>
						<g>
							<g>
								<g>
									<g>
										<g>
											<g>
												<g>
													<path class="st25" d="M469,526.9c-0.6,0.5-2.4-0.5-4.6-0.9c-2.3-0.5-4.3-0.4-4.6-1.1c-0.1-0.3,0.3-0.8,1.2-1.2
														c0.9-0.4,2.4-0.5,4-0.2c1.6,0.3,2.8,1.1,3.5,1.8C469.1,526.1,469.3,526.7,469,526.9z"/>
												</g>
											</g>
										</g>
									</g>
								</g>
							</g>
						</g>
					</g>
				</g>
			</g>
		</g>
	</g>
</g>
<path class="st7" d="M440,554c0,0,1,2,5,2s6,0,7,2s3,2,1,4s-7,0-8-1S440,554,440,554z"/>
<g>
	<g>
		<g>
			<g>
				<g>
					<g>
						<g>
							<path class="st25" d="M417.6,504.3c2.2-2,5.4-2.5,8.4-2.8c12.9-1.3,25.9-1.1,38.7,0.6c0.9,3-1.5,6-4.3,7.2
								c-2.8,1.2-6,1.1-9.1,1.4c-3.1,0.3-6.4,1.1-8.2,3.5c-2,2.6-1.9,6.3-3.8,9c-3.2,4.6-10.8,4.3-14,9c-2.4,3.5-1.3,8.2-1.8,12.5
								c-0.6,4.8-3.7,9.2-7.9,11.5c-3.4,1.8-7.4,2.2-11.1,1.3c3.1-14.9,6.3-29.8,9.4-44.7C414.4,509.7,415.2,506.4,417.6,504.3z"/>
						</g>
					</g>
				</g>
			</g>
		</g>
	</g>
</g>
<g>
	<g>
		<g>
			<path class="st25" d="M377.9,533.3c2.9-1.4,6.3-2.5,8-5.2c2.5-4,0.4-10,3.7-13.3c3-3,9-1.2,11.9-4.4c2.3-2.5,1.2-5.5,2.5-7.8
				c1.2-2.4,5.4-3.6,7.9-2.6l12.2,34.5c-0.8,10.3-0.3,16-4,21.1c-2,2.8-4.3,5.5-5.7,8.6c-1.3,3.2-1.5,7.1,0.7,9.8
				c-12.2-2.3-21.8-11.6-30.5-20.5c-3.1-3.1-6.2-6.3-9.2-9.4c-1-1-2-2-2.3-3.3C372.2,537.7,375.1,534.8,377.9,533.3z"/>
		</g>
	</g>
</g>
<g>
	<g>
		<g>
			<g>
				<path class="st3" d="M385.1,550.5c0,0,0.4,0.3,1.2,0.6c0.8,0.3,2.1,0.7,3.8,0.7c1.7,0,3.8-0.2,6-1.4c2.1-1.1,4.2-3.2,5.3-6.1
					c0.6-1.4,0.9-3,0.9-4.7c0-1.7-0.5-3.4-1-5.1c-0.5-1.7-1.1-3.4-1-5.2c0-1.8,0.5-3.8,2-4.9c1.5-1.2,3.6-1,5.7-1.2
					c1-0.1,2.2-0.4,3.1-1.2c0.9-0.8,1.4-1.8,1.7-2.9c0.6-2.2,0.2-4.5,0.3-6.6c0.1-1.1,0.3-2.2,0.8-3.1c0.5-0.9,1.4-1.6,2.4-2
					c2.1-0.8,4.3-0.4,6.5,0c2.2,0.4,4.5,0.6,6.7-0.1c2.1-0.6,4-1.9,5.5-3.4c1.4-1.6,2.3-3.5,3.1-5.3c0.8-1.8,1.6-3.6,2.6-5.1
					c1.1-1.5,2.5-2.6,4-3.5c3-1.6,6.4-2,9.3-1.5c2.9,0.5,5.3,2,7,3.6c1.7,1.6,2.9,3.3,3.7,4.8c1.5,3,1.6,4.9,1.7,4.9
					c0,0,0-0.1,0-0.3c0-0.2-0.1-0.6-0.2-1c-0.2-0.9-0.6-2.1-1.3-3.7c-0.7-1.5-1.9-3.3-3.6-4.9c-1.7-1.6-4.2-3.2-7.2-3.8
					c-3-0.6-6.5-0.2-9.7,1.5c-1.6,0.9-3.1,2.1-4.2,3.6c-1.1,1.6-1.9,3.4-2.7,5.2c-0.8,1.8-1.7,3.6-3,5.1c-1.4,1.5-3.2,2.6-5.2,3.2
					c-2,0.6-4.2,0.5-6.3,0.1c-2.2-0.4-4.6-0.8-6.9,0c-1.1,0.4-2.2,1.2-2.8,2.3c-0.6,1.1-0.8,2.2-0.9,3.4c-0.1,2.3,0.2,4.5-0.3,6.5
					c-0.2,1-0.7,1.9-1.4,2.6c-0.7,0.6-1.7,0.9-2.7,1c-1,0.1-2,0.1-3.1,0.3c-1,0.1-2.1,0.4-2.9,1.1c-1.7,1.4-2.2,3.5-2.3,5.4
					c0,2,0.6,3.7,1.1,5.4c0.5,1.7,1,3.3,1,4.9c0,1.6-0.3,3.1-0.8,4.5c-1.1,2.7-3,4.8-5,5.9c-2.1,1.1-4.1,1.5-5.8,1.5
					C386.8,551.5,385.2,550.4,385.1,550.5z"/>
			</g>
		</g>
	</g>
</g>
<g>
	<g>
		<g>
			<g>
				<path class="st25" d="M374.8,525.5c0,0-0.3,0.2-0.7,0.9c-0.3,0.6-0.6,1.7-0.3,3.1c0.2,0.7,0.5,1.4,1.1,2
					c0.6,0.6,1.4,1.1,2.4,1.4c1.9,0.5,4.5,0,6.2-1.9c0.8-0.9,1.5-2.1,1.8-3.4c0.4-1.3,0.4-2.8,0.2-4.2c-0.2-2.9-1.3-5.8-0.5-8.9
					c0.4-1.5,1.1-3,2.5-3.7c1.4-0.8,3.1-0.6,4.7-0.2c1.7,0.4,3.4,1.1,5.3,0.9c1-0.1,1.9-0.5,2.6-1.2c0.7-0.7,1.2-1.5,1.6-2.4
					c0.7-1.8,0.8-3.7,1-5.4c0.2-1.8,0.8-3.4,1.6-4.9c1.7-2.9,4.6-5,7.6-5.8c3-0.9,6.1-0.2,8.8,0.4c2.8,0.6,5.4,1.1,7.9,0.9
					c2.5-0.2,4.6-1,6.3-1.9c1.7-0.9,3-2,4-3c1.9-2,2.5-3.4,2.5-3.4c-0.1-0.1-0.7,1.3-2.7,3.2c-1,0.9-2.3,2-4,2.8
					c-1.7,0.9-3.8,1.6-6.1,1.8c-2.4,0.2-5-0.3-7.7-0.9c-2.7-0.6-5.9-1.3-9.1-0.4c-3.2,0.8-6.2,3-8,6.1c-0.9,1.5-1.5,3.3-1.7,5.1
					c-0.2,1.8-0.3,3.6-1,5.3c-0.6,1.6-1.9,3-3.6,3.2c-1.7,0.2-3.4-0.4-5.1-0.8c-1.7-0.4-3.6-0.7-5.2,0.3c-1.6,0.9-2.4,2.6-2.8,4.2
					c-0.4,1.6-0.3,3.3-0.1,4.8c0.2,1.5,0.5,3,0.7,4.3c0.2,1.4,0.1,2.7-0.2,4c-0.3,1.2-0.9,2.3-1.7,3.2c-1.5,1.8-3.9,2.3-5.7,1.9
					c-0.9-0.2-1.7-0.7-2.2-1.2c-0.6-0.6-0.9-1.2-1.1-1.9c-0.4-1.3-0.1-2.3,0.2-3C374.5,525.8,374.8,525.5,374.8,525.5z"/>
			</g>
		</g>
	</g>
</g>
<g>
	<g>
		<g>
			<g>
				<path class="st25" d="M499.2,566.9c-0.1,0,0.3,1.3-0.9,3.1c-0.6,0.8-1.7,1.8-3.2,1.9c-1.5,0.1-3.2-0.8-4.1-2.4
					c-0.4-0.8-0.6-1.8-0.3-2.8c0.2-1,0.7-2,1.3-2.9c1.2-1.9,3.1-3.7,3.6-6.4c0.6-2.6,0-5.6-1.8-7.9c-0.9-1.2-1.9-2.2-3.2-3
					c-1.3-0.8-2.7-1.3-4.1-1.8c-1.4-0.5-2.8-0.9-4-1.6c-1.2-0.7-2.2-1.6-2.7-2.9c-0.5-1.2-0.5-2.6-0.2-3.9c0.3-1.3,0.7-2.5,1.3-3.6
					c1.1-2.3,2.5-4.4,3-6.7c0.5-2.3,0.2-4.6-0.6-6.4c-0.7-1.9-2-3.2-3-4.4c-1.1-1.1-1.9-2.1-2.5-3c-1.2-1.8-1.2-3.1-1.3-3.1
					c0,0,0,0.1,0,0.2c0,0.1,0,0.4,0.1,0.7c0.1,0.6,0.4,1.4,1,2.3c0.6,0.9,1.5,2,2.5,3.1c1,1.2,2.2,2.5,2.8,4.3
					c0.7,1.8,0.9,3.9,0.5,6.1c-0.5,2.2-1.8,4.3-3,6.6c-0.6,1.2-1.1,2.4-1.4,3.8c-0.3,1.4-0.3,2.8,0.2,4.3c0.5,1.4,1.7,2.5,3,3.3
					c1.3,0.7,2.7,1.2,4.2,1.6c1.4,0.5,2.8,0.9,3.9,1.7c1.2,0.7,2.2,1.7,3,2.8c1.6,2.2,2.2,4.9,1.7,7.4c-0.4,2.5-2.2,4.3-3.5,6.2
					c-0.6,1-1.1,2-1.3,3.1c-0.2,1.1-0.1,2.2,0.4,3.1c1,1.8,2.9,2.7,4.6,2.6c1.7-0.1,2.8-1.2,3.4-2.1c0.6-0.9,0.8-1.8,0.8-2.4
					C499.3,567.2,499.2,566.9,499.2,566.9z"/>
			</g>
		</g>
	</g>
</g>
<g>
	<g>
		<path class="st7" d="M266.7,833.2l32.5-6.9l5.9,28.9l-23.8,0.5c-1.2,0-2.1,1-2,2.2l0.6,17.6c0,0.9,0.6,1.7,1.5,1.9
			c6.5,2.1,12.5,5.7,16.3,8.4c1.3,0.9,0.6,3-1,3l-26.4-1c-1.2,0-2.3-0.7-3-1.7l-23.7-35.6c-0.9-1.4-0.5-3.2,0.9-4.1l17.3-11.1
			C263.3,834.3,264.9,833.6,266.7,833.2z"/>
	</g>
	<g class="st9">
		<g>
			<g>
				<g>
					<path class="st10" d="M243.6,850.4l23.7,35.6c0.7,1.1,1.9,1.7,3.2,1.8L297,889l1-1l-25.5-4.6c-1.4-0.2-2.5-1.1-3.1-2.4
						l-18.5-38.6l-6.5,4.1C243.1,847.3,242.7,849.1,243.6,850.4z"/>
				</g>
			</g>
		</g>
	</g>
</g>
<g>
	<g>
		<g>
			<g>
				<g>
					<path class="st27" d="M284.3,852.5c-0.1,0-0.4-1.2-0.6-3.3c-0.1-1.2-0.2-2.3-0.3-3.6c0-0.7-0.2-1.3,0-2.3
						c0.1-0.5,0.4-0.9,0.9-1.2c0.5-0.3,1.2-0.3,1.7,0.1c0.8,0.7,1.1,1.4,1.4,2.1c0.3,0.7,0.4,1.5,0.4,2.2c0.1,1.4-0.2,2.7-0.6,3.7
						c-0.9,2-2.1,2.7-2.1,2.6c-0.1-0.1,0.8-1,1.4-2.9c0.3-0.9,0.5-2.1,0.4-3.3c-0.1-0.6-0.2-1.3-0.4-1.9c-0.2-0.6-0.6-1.3-1-1.6
						c-0.2-0.1-0.3-0.1-0.5,0c-0.2,0.1-0.3,0.3-0.4,0.6c-0.1,0.5,0,1.3,0,1.9c0,1.2,0.1,2.4,0.1,3.6
						C284.5,851.2,284.4,852.4,284.3,852.5z"/>
				</g>
			</g>
		</g>
	</g>
</g>
<g>
	<g>
		<g>
			<g>
				<g>
					<path class="st27" d="M284.7,853.5c-0.1-0.1,0.6-1.1,2.5-1.7c1.8-0.6,5-0.4,6.9,2.5c0.1,0.3,0.1,0.7-0.1,0.9
						c-0.2,0.3-0.4,0.4-0.6,0.5c-0.4,0.2-0.8,0.2-1.1,0.2c-0.7,0.1-1.4,0.1-2,0c-1.3-0.1-2.4-0.4-3.2-0.8c-1.7-0.8-2.5-1.6-2.5-1.7
						c0.1-0.1,1,0.5,2.7,1c0.8,0.3,1.9,0.5,3,0.5c0.6,0,1.2,0,1.8-0.1c0.3,0,0.6-0.1,0.8-0.2c0.2-0.1,0.2-0.1,0.1-0.2
						c0-0.1-0.3-0.4-0.5-0.6c-0.2-0.2-0.5-0.4-0.7-0.6c-0.5-0.3-1-0.6-1.6-0.8c-1.1-0.3-2.1-0.3-2.9-0.2
						C285.7,852.9,284.8,853.7,284.7,853.5z"/>
				</g>
			</g>
		</g>
	</g>
</g>
<g>
	<g>
		<g>
			<g>
				<g>
					<g>
						<path class="st7" d="M529,839l0.9,22.6c0.1,2.1,1.4,3.9,3.3,4.6c7.8,3.1,28.2,11.3,38.1,16.2c2.3,1.1,1.5,4.5-1,4.5l-64.9,0.2
							c-1.9,0-3.5-1.6-3.4-3.5l2-45.7L529,839z"/>
					</g>
				</g>
			</g>
		</g>
		<g class="st9">
			<g>
				<g>
					<g>
						<path class="st10" d="M501.9,883.8l0.1-5.8l70,6c0,0,1,1,0,3l-66.8,0.2C503.3,887.2,501.8,885.7,501.9,883.8z"/>
					</g>
				</g>
			</g>
		</g>
	</g>
	<g class="st11">
		<g>
			<g>
				<g>
					<polygon points="531,843.3 530.9,848.9 500.6,849.4 500.5,844.3 					"/>
				</g>
			</g>
		</g>
	</g>
</g>
<path class="st27" d="M363.2,769.7c2.2,0,12.5,42.3,12.5,42.3l-96,14.3l6.1,38.3c0,0,113.3-7.6,121.1-9.3
	c13.8-3.2,24.3-16.5,23.8-34c-0.5-20.2-12.3-67.8-12.3-67.8L363.2,769.7z"/>
<path class="st18" d="M423.5,776.7l-55.7,4c0,0,4.6,9.6,20.3,10.7c15.7,1.1,38.5,0,38.5,0L423.5,776.7z"/>
<g>
	<path class="st27" d="M542.3,737.4c-1.3-17.3-16.2-30.6-33.5-30.6l-17.1,0l-92.2,4.8l-50.1-15.2c0,0-17.4,31.1-7.4,57.1
		c6.3,16.3,20.2,27.3,36.8,30.1c20.8,3.5,116.3-16.5,116.3-16.5v85l43.3-1.1l4-112C542.4,738.5,542.4,738,542.3,737.4z"/>
</g>
<path class="st10" d="M408.8,575.9l-0.9,1.1c-12.7,2.4-23.1,12.5-26.6,25c-3.5,12.4-4.6,35.3-11.8,66.4c0,0-17.6,16-20.9,28
	l50.9,15.4l27.8-1.6l10.7-33.3c10.4,0,14.8-5.2,18.6-13.7c5-11.4-11.4-63.4-11.4-63.4l1.2,8.9L408.8,575.9z"/>
<path class="st28" d="M452.5,619.8l12.4,25.2l-7.6,1.2C457.3,646.1,452.5,621.7,452.5,619.8z"/>
<path class="st28" d="M383.9,624c0,0,17.2,59.3,28.4,68.4c11.4,9.1,20.9-0.2,20.9-0.2l2.1-10.2L383.9,624z"/>
<path class="st23" d="M546.4,619.2c-2-1.8-3.1-1.1-3.1-1.1s1-4.8-1.5-6.5c-0.8-0.5-1.2-0.8-1.4-0.9c-0.3-0.6-1.8-4.1-4.4-4.7
	c0,0-0.4-4.5-2.3-4.9c-3.6-0.8-5.1,3.1-5.1,3.1l-6.5,12.4l-3.1,12.6L466,653.9l5.7,24.4l59.6-30.8l10.6-10.2
	C542,637.3,548.4,621,546.4,619.2z"/>
<path class="st10" d="M387.9,606.1c-0.1,1.9,30,80.2,44.2,85.7c5.4,2.1,87.2-28.6,87.2-28.6l-10-30.2c0,0-57.3,19.2-59.2,19.2
	c-1.9-0.1-19.8-49.6-19.8-49.6s-11.2-23.5-28.1-16.2C391.5,591,387.9,606.1,387.9,606.1z"/>
<path class="st20" d="M466.8,378.6l-14.2-5.8c0,0-2.4,3.5,1.5,7c3.9,3.5,8.5,5.5,8.5,5.5s1.6,7.2,5.3,10.9
	c3.7,3.7,11.9-2.1,11.9-2.1S479.7,383.4,466.8,378.6z"/>
<g>
	<path class="st13" d="M488.2,424.9c-1.7-2.4-3.4-1-3.4-1s2-5.1-0.4-7.4c-0.7-0.7-1.2-1.1-1.4-1.3c-0.2-0.7-1.2-4.8-4-5.9
		c0,0,0-4.8-2-5.5c-3.2-1.2-6.8,2.4-6.8,2.4l-8.2,12.1l-12.3,20.3l6.8,21.7l19.4-12.1l3.9-3.8C479.9,444.6,490.2,427.7,488.2,424.9z
		"/>
</g>
<path class="st20" d="M447.5,397.5c2.3,2.8,5.3,5,8.6,6.4c1.4,0.6,2.8,1,4.3,0.7c1.4-0.3,2.7-1.6,2.6-3.1c-0.1-1.1-0.9-1.9-1.7-2.7
	c-2.1-2.1-4.3-4.1-6.4-6.2c0.8,1.1,1.5,2.3,2.6,3.1c1,0.9,2.4,1.4,3.8,1.1c1.3-0.3,2.5-1.5,2.3-2.9c-0.1-0.8-0.6-1.5-1.2-2.2
	c-2.8-3.6-5.6-7.1-8.4-10.7"/>
<g>
	<path class="st23" d="M515.6,565.6l11.1-8.6c0,0,3,2.5,0.5,6.5c-2.5,4-6.1,7-6.1,7s0.4,6.8-1.9,10.9c-2.3,4.1-11,1.1-11,1.1
		S505.5,573,515.6,565.6z"/>
	<path class="st23" d="M532.6,576.8c-1.5,2.1-3.1,4.4-5.5,5.6c-0.9,0.5-2.4,0.4-3.4,0.3c-1.1-0.1-2.1-1-2-2.1c0-0.8,0.6-1.4,1.1-2
		c1.4-1.6,2.9-3.2,4.3-4.8c-0.5,0.9-1,1.7-1.7,2.4c-0.7,0.7-1.7,1.1-2.6,1c-1-0.1-1.9-1-1.8-1.9c0-0.6,0.4-1.1,0.7-1.6
		c1.8-2.7,3.6-5.4,5.4-8.1"/>
	<g>
		<path class="st23" d="M532.6,580.6c-1.1,2.3-3,4.2-5.3,5.4c-0.9,0.5-1.9,0.8-2.9,0.5c-0.9-0.3-1.5-1-1.7-1.9
			c-0.2-0.9,0.2-1.8,0.9-2.4"/>
	</g>
</g>
<g>
	<path class="st13" d="M423.6,302.9c5.7-3.6,0.9-23.2-2.6-27.8c3.9-4,5.7-8.4,2.9-13.3c-3.6,3.6-9.8,8.1-10.9,18.1l1.1,7.6
		L423.6,302.9z"/>
</g>
<ellipse transform="matrix(0.7071 -0.7071 0.7071 0.7071 -41.6975 282.9886)" class="st7" cx="320.7" cy="191.8" rx="41.9" ry="41.9"/>
<ellipse transform="matrix(0.7071 -0.7071 0.7071 0.7071 -41.6975 282.9886)" class="st11" cx="320.7" cy="191.8" rx="41.9" ry="41.9"/>
<ellipse transform="matrix(0.7071 -0.7071 0.7071 0.7071 -38.8235 280.9241)" class="st7" cx="319.7" cy="187.3" rx="41.9" ry="41.9"/>
<circle class="st10" cx="319.7" cy="187.3" r="28"/>
<ellipse transform="matrix(0.5271 -0.8498 0.8498 0.5271 -8.0061 360.2654)" class="st7" cx="319.7" cy="187.3" rx="13.7" ry="13.7"/>
<polygon class="st3" points="344.4,145.1 341.2,136.7 347.9,125.2 350.7,134.4 "/>
<polygon class="st3" points="361.7,133.8 352.6,135.1 345.6,145.9 354.9,144.8 "/>
<path class="st11" d="M321.4,186.7l25.6-31.1c-1.4-1.3-3.1-2.6-5-3.8l-21.1,32.8L321.4,186.7z"/>
<g>
	<path class="st6" d="M351,131.9c-3.6,5.9-7.3,11.9-10.9,17.8c-5.8,9.4-11.5,18.9-17.3,28.3c-1.3,2.2-2.7,4.3-4,6.5
		c-1.3,2.1,1.9,4,3.2,2c3.6-5.9,7.3-11.9,10.9-17.8c5.8-9.4,11.5-18.9,17.3-28.3c1.3-2.2,2.7-4.3,4-6.5
		C355.4,131.8,352.2,129.8,351,131.9L351,131.9z"/>
</g>
<circle class="st5" cx="441" cy="534" r="2"/>
<circle class="st5" cx="466" cy="538" r="2"/>
<path class="st2" d="M843,849c0,0,10,4,13,7s6,10,4,14s-7,19-9,22s-7,6-15,7s-24,0-26,0s-5-4,0-7s21-5,22-6c1-1,3.1-10.9,1-13
	c-1-1-8.7-4.9-11-6C818,865,843,849,843,849z"/>
</svg>
