<?xml version="1.0" encoding="utf-8"?>
<!-- Generator: Adobe Illustrator 19.2.0, SVG Export Plug-In . SVG Version: 6.00 Build 0)  -->
<svg version="1.1" id="Layer_1" xmlns="http://www.w3.org/2000/svg" xmlns:xlink="http://www.w3.org/1999/xlink" x="0px" y="0px"
	 viewBox="0 0 451.9 180" style="enable-background:new 0 0 451.9 180;" xml:space="preserve">
<style type="text/css">
	.st0{fill:#666666;}
	.st1{fill:#FFCB38;}
</style>
<g>
	<path class="st0" d="M225.1,84.9H221c-0.7,0-1.3-0.7-1.3-1.5V30.8c0-0.7,0.5-1.4,1.3-1.4h4.1c0.7,0,1.3,0.6,1.3,1.4v52.7
		C226.5,84.2,225.9,84.9,225.1,84.9z"/>
	<path class="st0" d="M267.1,84.9h-3.6c-0.8,0-1.5-0.7-1.5-1.5V58.8c0-7.6-2.5-9.9-8.2-9.9c-3.1,0-6.7,1.2-10.1,2.9v31.6
		c0,0.7-0.7,1.5-1.5,1.5h-3.7c-0.7,0-1.4-0.7-1.4-1.5V45.3c0-0.8,0.6-1.5,1.4-1.5h3.7c0.8,0,1.4,0.7,1.4,1.5v1.4
		c4.1-2.3,7.5-3.4,11.9-3.4c9,0,13,5.6,13,15.6v24.6C268.6,84.3,267.9,84.9,267.1,84.9z"/>
	<path class="st0" d="M290.8,85.5c-2.8,0-8.2-0.2-11.8-1.1c-1-0.2-1.6-0.7-1.6-1.5v-2.6c0-0.7,0.6-1.1,1.3-1.1c0.1,0,0.2,0,0.3,0
		c3.6,0.4,9.1,0.8,11.7,0.8c4.9,0,7.4-1.3,7.4-5.3c0-2.2-1.3-3.7-5.6-6.2l-7.6-4.5c-4.6-2.8-7.6-6-7.6-10.7c0-7.8,5.8-10,13.5-10
		c4.2,0,8.2,0.4,11.7,1c1,0.1,1.4,0.7,1.4,1.5v2.5c0,0.9-0.5,1.3-1.3,1.3c-0.1,0-0.1,0-0.2,0c-2.6-0.2-7.4-0.6-11.6-0.6
		s-7,0.5-7,4.3c0,2.2,1.7,3.7,5.2,5.7l7.4,4.4c6.2,3.7,8.2,6.9,8.2,11.3C304.8,82.2,299.2,85.5,290.8,85.5z"/>
	<path class="st0" d="M343.7,84.9H340c-0.8,0-1.4-0.7-1.4-1.5V82c-4.1,2.3-7.5,3.4-11.9,3.4c-9,0-13-5.6-13-15.6V45.3
		c0-0.8,0.7-1.5,1.5-1.5h3.6c0.8,0,1.5,0.7,1.5,1.5v24.6c0,7.6,2.5,9.9,8.2,9.9c3.1,0,6.7-1.2,10.1-2.9V45.3c0-0.7,0.7-1.5,1.5-1.5
		h3.7c0.7,0,1.4,0.7,1.4,1.5v38.2C345.1,84.3,344.5,84.9,343.7,84.9z"/>
	<path class="st0" d="M372.2,48.9c-3.4,0-6.6,0.9-10.3,3.1v31.4c0,0.7-0.7,1.5-1.5,1.5h-3.7c-0.7,0-1.4-0.7-1.4-1.5V45.3
		c0-0.8,0.6-1.5,1.4-1.5h3.5c0.8,0,1.4,0.7,1.4,1.5v1.6c3.7-2.6,7.2-3.6,10.5-3.6c1,0,1.6,0.4,1.6,1.3v3.1
		C373.8,48.5,373.3,48.9,372.2,48.9z"/>
	<path class="st0" d="M411.2,66.5h-25.1v1c0,8.9,3.5,12.2,10.4,12.2c4.3,0,9.9-0.3,13.3-0.8c0.1,0,0.2,0,0.4,0c0.6,0,1.2,0.3,1.2,1
		v2.5c0,1-0.3,1.5-1.5,1.7c-4.3,0.8-8.4,1.3-13.4,1.3c-8.6,0-17-4-17-18v-6.7c0-10.7,5.9-17.5,16.6-17.5c10.9,0,16.5,6.9,16.5,17.5
		v4C412.6,65.8,412.1,66.5,411.2,66.5z M406,60.8c0-8.5-3.2-11.7-9.8-11.7c-6.4,0-10,3.7-10,11.7v0.7H406V60.8z"/>
	<path class="st0" d="M450.3,84.2c-4.6,0.9-9.2,1.3-13.8,1.3c-11.1,0-16.3-7.3-16.3-18.5v-5.4c0-11.7,5.4-18.3,16.3-18.3
		c2.3,0,5.8,0.2,8.8,0.7V30.1c0-0.7,0.6-1.4,1.4-1.4h3.8c0.7,0,1.3,0.6,1.3,1.4v52.4C451.9,83.4,451.7,84,450.3,84.2z M445.3,49.5
		c-2.5-0.4-6.4-0.5-8.8-0.5c-7.3,0-9.7,4.6-9.7,12.6V67c0,8.2,2.3,12.7,9.7,12.7c2.5,0,6.2-0.2,8.8-0.4V49.5z"/>
	<path class="st0" d="M235,152.3c-4.5,0-9.1-0.4-13.8-1.3c-1.3-0.2-1.6-0.7-1.6-1.7V96.9c0-0.7,0.5-1.4,1.3-1.4h3.8
		c0.7,0,1.4,0.6,1.4,1.4v13.9c2.8-0.5,6.4-0.7,8.8-0.7c10.8,0,16.3,6.6,16.3,18.3v5.4C251.3,145,246.2,152.3,235,152.3z
		 M244.7,128.4c0-8-2.4-12.6-9.7-12.6c-2.3,0-6.3,0.1-8.8,0.5V146c2.5,0.2,6.2,0.4,8.8,0.4c7.4,0,9.7-4.6,9.7-12.7V128.4z"/>
	<path class="st0" d="M291,112.4l-12.3,43.1c-2.3,8.1-5.1,11.1-13.7,11.1c-2.1,0-4.7-0.3-6.3-0.7c-0.9-0.2-1.6-0.4-1.6-1.2v-2.8
		c0-0.8,0.6-1.2,1.4-1.2c0.1,0,0.1,0,0.2,0c1.6,0.1,5,0.4,6.7,0.4c4.3,0,6.1-1.1,7.4-6.4l0.7-3.1h-1c-2.2,0-4.2-0.5-5.5-5.2
		l-10-34.2c-0.1-0.1-0.1-0.4-0.1-0.5c0-0.7,0.4-1.3,1.3-1.3h4.1c0.6,0,1.1,0.6,1.3,1.2l8.8,32.5c0.4,1.5,0.9,1.6,1.4,1.6h1.2
		l9.1-34.2c0.1-0.6,0.7-1.1,1.4-1.1h4.2c0.7,0,1.2,0.5,1.2,1.3C291.1,112,291.1,112.2,291,112.4z"/>
	<path class="st0" d="M332.8,152.3c-12.1,0-19.2-6.4-19.2-20.7v-34c0-0.7,0.6-1.4,1.4-1.4h4c0.7,0,1.4,0.6,1.4,1.4v34
		c0,9.7,3,14.9,12.3,14.9s12.3-5.2,12.3-14.9v-34c0-0.7,0.6-1.4,1.4-1.4h4c0.7,0,1.4,0.6,1.4,1.4v34
		C351.9,145.8,344.9,152.3,332.8,152.3z"/>
	<path class="st0" d="M373.7,152.3c-2.8,0-8.2-0.2-11.8-1.1c-1-0.2-1.6-0.7-1.6-1.5V147c0-0.7,0.6-1.1,1.3-1.1c0.1,0,0.2,0,0.3,0
		c3.6,0.4,9.1,0.8,11.7,0.8c4.9,0,7.4-1.3,7.4-5.3c0-2.2-1.3-3.7-5.6-6.2l-7.6-4.5c-4.6-2.8-7.6-6-7.6-10.7c0-7.8,5.8-10,13.5-10
		c4.2,0,8.2,0.4,11.7,1c1,0.1,1.4,0.7,1.4,1.5v2.5c0,0.9-0.5,1.3-1.3,1.3c-0.1,0-0.1,0-0.2,0c-2.6-0.2-7.4-0.6-11.6-0.6
		s-7,0.5-7,4.3c0,2.2,1.7,3.7,5.2,5.7l7.4,4.4c6.2,3.7,8.2,6.9,8.2,11.3C387.7,149,382,152.3,373.7,152.3z"/>
</g>
<path class="st1" d="M154.7,50.2c-2.3-3.6-6.6-5.3-10.8-4.4L99.6,62.1c-0.5,0.2-11.4,4.5-11.4,16.6c0,14.8,0.8,42.5,0.8,63.6
	c0,12.2,0.1,21.9,0.1,24.7c0,4.8,1.8,8.6,5,10.9c1.9,1.3,4.2,2,6.6,2c1.5,0,3.1-0.3,4.6-0.8c4.8-1.8,67-25.1,67.7-25.4
	c7.8-2.8,13-10.3,13-18.5v-88c0-8.5-5.4-16-13.4-18.7L99.3,1c-4.1-1.4-8.5-1.4-12.6,0L13.4,28.5C5.4,31.2,0,38.7,0,47.2v88.1
	c0,8.3,5.2,15.7,13.1,18.6l59.5,21.7c0.6-4.5-1.7-8.8-5.8-10.9l-51-18.7c-4.5-1.6-7.6-6-7.6-10.8v-88c0-4.9,3.1-9.3,7.8-10.8
	L89.3,8.9c2.4-0.8,5-0.8,7.3,0l73.3,27.5c4.7,1.6,7.8,5.9,7.8,10.8v88.1c0,4.8-3,9.1-7.6,10.8c-0.6,0.2-62.9,23.6-67.7,25.4
	c-1.3,0.5-2.7,0.4-3.6-0.2c-1.2-0.9-1.5-2.7-1.5-4.1c0-2.9,0-12.5-0.1-24.8c0-21.1-0.8-48.8-0.8-63.6c0-6.3,5.9-8.8,6.1-8.9
	L154.7,50.2z"/>
</svg>
