<svg version="1.1" id="kc-logo" class="icon logo" xmlns="http://www.w3.org/2000/svg" xmlns:xlink="http://www.w3.org/1999/xlink" x="0px" y="0px" viewBox="0 0 169 20" style="enable-background:new 0 0 169 20;" xml:space="preserve">
    <desc>Konecranes</desc>
    <path id="Fill-1" d="M166.5,2.1c0.3,0,0.5,0,0.5-0.4c0-0.3-0.3-0.3-0.5-0.3h-0.4v0.7H166.5z M166.1,3.4h-0.3V1h0.8
    	c0.5,0,0.8,0.2,0.8,0.7c0,0.4-0.2,0.6-0.6,0.7l0.6,1.1H167l-0.5-1h-0.3V3.4z M166.5,0.4c-0.8,0-1.5,0.7-1.5,1.8c0,1,0.6,1.8,1.5,1.8
    	c0.8,0,1.5-0.7,1.5-1.8C168,1.1,167.3,0.4,166.5,0.4z M166.5,4.4c-1.1,0-1.9-0.9-1.9-2.2c0-1.3,0.9-2.2,1.9-2.2c1,0,1.9,0.9,1.9,2.2
    	C168.4,3.5,167.5,4.4,166.5,4.4z"></path>
    <polygon id="Fill-3" points="47.3,1.2 47.3,15 37.4,1.2 33.8,1.2 33.8,20 37.2,20 37.2,6.1 47.3,20 50.7,20 50.7,1.2
    	"></polygon>
    <polygon id="Fill-5" points="52.6,1.2 52.6,20 65.1,20 65.1,16.9 56,16.9 56,12.1 64.8,12.1 64.8,9 56,9 56,4.3
    	65.1,4.3 65.1,1.2 "></polygon>
    <path id="Fill-7" d="M109.2,5.3l2.5,6.4h-4.9L109.2,5.3z M110.7,1.2h-3L99.5,20h3.7l2.3-5.4h7.4l2.3,5.4h3.7L110.7,1.2z
    	"></path>
    <polygon id="Fill-9" points="131.8,1.2 131.8,14.9 121.9,1.2 118.3,1.2 118.3,20 121.7,20 121.7,6.1 131.8,20 135.2,20
    	135.2,1.2 "></polygon>
    <polygon id="Fill-11" points="137.1,1.2 137.1,20 149.6,20 149.6,16.9 140.5,16.9 140.5,12.1 149.3,12.1 149.3,9
    	140.5,9 140.5,4.3 149.6,4.3 149.6,1.2 "></polygon>
    <path id="Fill-13" d="M158.3,8.3l-0.8-0.2L157.3,8c-1-0.3-2.7-0.8-2.7-2.3c0-1,1-2.3,2.9-2.3c1.4,0,3,0.6,3,2.5v0.2h3.7
    	V5.9c0-3.1-2.8-5.3-6.7-5.3c-4.5,0-6.6,3-6.6,5.2c0,1.5,0.6,2.8,1.6,3.6c1.1,0.9,1.9,1.2,4.9,2.1c0,0,0.4,0.1,0.4,0.1
    	c1.5,0.4,3.1,1,3.1,2.7c0,1.7-1.4,2.9-3.5,2.9c-3.5,0-3.5-3-3.5-3.1v-0.2h-3.7v0.2c0,4.1,3.7,5.9,7.2,5.9c4.2,0,7.2-2.4,7.2-5.7
    	C164.6,10.1,161.1,9.1,158.3,8.3"></path>
    <path id="Fill-15" d="M22.5,16.7c-3.3,0-6.1-2.9-6.1-6.4c0-3.6,2.7-6.4,6.1-6.4c3.3,0,6.1,2.9,6.1,6.4
    	C28.6,13.9,25.9,16.7,22.5,16.7 M22.5,0.6c-5.2,0-9.4,4.3-9.4,9.7c0,5.4,4.2,9.7,9.4,9.7c5.2,0,9.4-4.3,9.4-9.7
    	C31.9,5,27.7,0.6,22.5,0.6"></path>
    <path id="Fill-17" d="M81.8,10.4c0,3.5-2.7,6.3-6.1,6.3c-3.3,0-6.1-2.9-6.1-6.4c0-3.5,2.7-6.4,6.1-6.4V0.6
    	c-5.2,0-9.4,4.3-9.4,9.7c0,5.3,4.2,9.7,9.4,9.7c5.2,0,9.3-4.3,9.4-9.6H81.8z"></path>
    <path id="Fill-19" d="M89.8,4.1h3c3.3,0,4.5,1.7,4.5,3.2c0,2.2-1.8,3.4-4.4,3.4h-3.1V4.1z M100.4,19.5h0.4l-0.3-0.3
    	l-5.2-6.1c1.7-0.2,5.4-1.3,5.4-5.8c0-1.8-0.7-3.4-2-4.5c-1.3-1.1-3-1.6-5.7-1.6h-6.5h-0.2v0.2v18.4V20h0.2h3.1h0.2v-0.2v-8.6
    	l7.1,8.8h3.8L100.4,19.5L100.4,19.5z"></path>
    <polygon id="Fill-21" points="0,20 3.1,20 3.1,1.2 0,1.2 "></polygon>
    <polygon id="Fill-23" points="11.8,1.2 3.1,10.5 11.7,20 16.3,20 7.7,10.5 16.3,1.2 "></polygon>
</svg>