<svg id="Layer_1" data-name="Layer 1" xmlns="http://www.w3.org/2000/svg" width="400" height="100" viewBox="0 0 1043.01 164.69"><defs><style>
                                                                                                                .cls-1 {
                                                                                                                    fill: #333639;
                                                                                                                }
</style></defs>
<title>RU-new-logo-infinity_reversed</title>
<path class="cls-1" d="M470.68,199.45q7.55-9.73,7.55-25.21v-.36q0-18.2-10.92-29.12-12.93-12.92-37.13-12.92H371.94v127.4h28V218.47h22l27.3,40.77h32.76l-31.12-45.5A43.76,43.76,0,0,0,470.68,199.45Zm-20.84-23.66q0,8.15-5.55,13t-15.92,4.89H400v-36.4h27.85q10.37,0,16.2,4.53t5.82,13.58Z" transform="translate(-107.52 -123.67)" />
<path class="cls-1" d="M576.06,176a43,43,0,0,0-14.83-11.74q-8.92-4.37-21.11-4.37a46.26,46.26,0,0,0-34.76,14.92,50,50,0,0,0-9.92,16.2,54.56,54.56,0,0,0-3.55,19.66V211a52.83,52.83,0,0,0,3.82,20.48,48,48,0,0,0,10.65,15.92,46.93,46.93,0,0,0,16.2,10.37,55.59,55.59,0,0,0,20.29,3.64q13.28,0,23.11-4.82a49.09,49.09,0,0,0,16.74-13.38l-15.83-14a42.08,42.08,0,0,1-11.28,7.64,30.82,30.82,0,0,1-12.38,2.37q-9.28,0-15.56-4.82t-8.28-14.29h67.89q.18-2,.27-3.82t.09-3.46a70,70,0,0,0-2.82-19.93A48.87,48.87,0,0,0,576.06,176ZM519,202.82q1.64-9.46,7-15.11t14.11-5.64q8.74,0,14,5.73t6.55,15Z" transform="translate(-107.52 -123.67)" />
<path class="cls-1" d="M638.21,136.75H610.54v24.93H598.9v23.66h11.65v46.23a40.43,40.43,0,0,0,2.09,14.1,23.13,23.13,0,0,0,5.82,9,20.59,20.59,0,0,0,8.92,4.82,45.44,45.44,0,0,0,11.56,1.36,43.55,43.55,0,0,0,12.19-1.55,43,43,0,0,0,9.65-4.09V233a28.18,28.18,0,0,1-13.65,3.46q-8.92,0-8.92-9.46V185.35h22.93V161.69H638.21Z" transform="translate(-107.52 -123.67)" />
<rect class="cls-1" x="572.36" y="2.71" width="29.12" height="24.57" />
<rect class="cls-1" x="573.09" y="38.02" width="27.66" height="97.55" />
<path class="cls-1" d="M771.25,165.33a40.58,40.58,0,0,0-11.47,16V161.69H732.12v97.55h27.66v-36q0-17.65,7.92-26t21.75-8.37h1.46V159.87Q778.52,159.32,771.25,165.33Z" transform="translate(-107.52 -123.67)" />
<path class="cls-1" d="M882.72,176a43,43,0,0,0-14.83-11.74q-8.92-4.37-21.11-4.37A46.26,46.26,0,0,0,812,174.79,50,50,0,0,0,802.1,191a54.56,54.56,0,0,0-3.55,19.66V211a52.83,52.83,0,0,0,3.82,20.48A48,48,0,0,0,813,247.41a46.93,46.93,0,0,0,16.2,10.37,55.59,55.59,0,0,0,20.29,3.64q13.28,0,23.11-4.82a49.09,49.09,0,0,0,16.74-13.38l-15.83-14a42.08,42.08,0,0,1-11.28,7.64,30.82,30.82,0,0,1-12.38,2.37q-9.28,0-15.56-4.82T826,220.11h67.89q.18-2,.27-3.82t.09-3.46a70,70,0,0,0-2.82-19.93A48.87,48.87,0,0,0,882.72,176Zm-57.06,26.85q1.64-9.46,7-15.11t14.11-5.64q8.74,0,14,5.73t6.55,15Z" transform="translate(-107.52 -123.67)" />
<path class="cls-1" d="M996.56,204.82q0,15.29-7.28,22.93t-20.2,7.64q-12.92,0-20.2-7.92t-7.28-23.57V131.84h-28v72.8q0,28.21,14.74,42.41t40.4,14.2a71.09,71.09,0,0,0,23.11-3.55A45.81,45.81,0,0,0,1009.48,247,47.73,47.73,0,0,0,1020.68,229q3.91-10.74,3.91-25.3V131.84h-28Z" transform="translate(-107.52 -123.67)" />
<path class="cls-1" d="M1146.8,188.71a48.59,48.59,0,0,0-9.92-15.83,41,41,0,0,0-14.2-9.74,43.37,43.37,0,0,0-16.56-3.28q-10.92,0-18.11,4.46a43.85,43.85,0,0,0-12.29,11.38v-14h-27.66V288.36h27.66V246.5a48.77,48.77,0,0,0,12.1,10.19q7.19,4.37,18.29,4.37a43.82,43.82,0,0,0,16.74-3.28A40.09,40.09,0,0,0,1137,248a49.36,49.36,0,0,0,9.83-15.83,58,58,0,0,0,3.73-21.57v-.36A58.05,58.05,0,0,0,1146.8,188.71Zm-23.93,21.93a30.42,30.42,0,0,1-1.91,11.1,26.46,26.46,0,0,1-5.19,8.46,23,23,0,0,1-7.55,5.46,23.06,23.06,0,0,1-18.38,0,22,22,0,0,1-7.46-5.46,27.13,27.13,0,0,1-5.1-8.55,30.64,30.64,0,0,1-1.91-11v-.36a30.66,30.66,0,0,1,1.91-11,27.15,27.15,0,0,1,5.1-8.55,22,22,0,0,1,7.46-5.46,23.06,23.06,0,0,1,18.38,0,23,23,0,0,1,7.55,5.46,26.26,26.26,0,0,1,5.19,8.55,30.63,30.63,0,0,1,1.91,11Z" transform="translate(-107.52 -123.67)" />
<path class="cls-1" d="M244.69,188.56c-1.47-2.21-4.42-2.95-6.64-2.95-5.16,0-9.59,4.42-9.59,10.32a53.11,53.11,0,0,1-14.75,36.87c-9.59,9.59-21.39,14.75-34.66,14.75h-.74a49.66,49.66,0,0,1-35.4-14.75c-9.59-9.59-14.75-22.86-14.75-36.87a53.11,53.11,0,0,1,14.75-36.87c9.59-9.59,21.39-14.75,34.66-14.75,5.16,0,9.59-4.42,9.59-10.32a9.47,9.47,0,0,0-2.95-7.37c-1.47-2.21-4.42-2.95-6.64-2.95h-.74c-18.44,0-35.4,7.37-48.67,20.65a73,73,0,0,0,0,101.77c14,14,31,21.39,49.41,21.39h1.47c18.44,0,35.4-7.37,48.67-20.65a72,72,0,0,0,20.65-50.88A23.07,23.07,0,0,0,244.69,188.56Z" transform="translate(-107.52 -123.67)" />
<path class="cls-1" d="M249.11,124.4c-18.44,0-35.4,7.37-48.67,20.65a72,72,0,0,0-20.65,50.88c0,5.9,4.42,10.32,9.59,10.32s9.59-4.42,9.59-10.32a53.11,53.11,0,0,1,14.75-36.87,48.43,48.43,0,0,1,35.4-14.75h.74a46.79,46.79,0,0,1,34.66,14.75c9.59,9.59,14.75,22.86,14.75,36.87a53.11,53.11,0,0,1-14.75,36.87c-9.59,9.59-21.39,14.75-34.66,14.75h-.74c-2.21,0-5.16.74-6.64,2.95a10.69,10.69,0,0,0,0,14.75c1.47,2.21,4.42,2.95,6.64,2.95h.74c18.44,0,35.4-7.37,48.67-20.65a72,72,0,0,0,20.65-50.88c-.74-19.91-8.11-38.35-21.39-51.62S267.55,124.4,249.11,124.4Z" transform="translate(-107.52 -123.67)" /></svg>