<?xml version="1.0" encoding="UTF-8" standalone="no"?>
<!-- Created with Inkscape (http://www.inkscape.org/) -->

<svg
   xmlns:dc="http://purl.org/dc/elements/1.1/"
   xmlns:cc="http://creativecommons.org/ns#"
   xmlns:rdf="http://www.w3.org/1999/02/22-rdf-syntax-ns#"
   xmlns:svg="http://www.w3.org/2000/svg"
   xmlns="http://www.w3.org/2000/svg"
   xmlns:sodipodi="http://sodipodi.sourceforge.net/DTD/sodipodi-0.dtd"
   xmlns:inkscape="http://www.inkscape.org/namespaces/inkscape"
   version="1.1"
   id="svg3680"
   xml:space="preserve"
   width="647.71466"
   height="122.92453"
   viewBox="0 0 647.71466 122.92453"
   sodipodi:docname="sa_logo_inkscape_test1.svg"
   inkscape:version="0.92.1 r15371"><metadata
     id="metadata3686"><rdf:RDF><cc:Work
         rdf:about=""><dc:format>image/svg+xml</dc:format><dc:type
           rdf:resource="http://purl.org/dc/dcmitype/StillImage" /><dc:title></dc:title></cc:Work></rdf:RDF></metadata><defs
     id="defs3684"><linearGradient
       x1="0"
       y1="0"
       x2="1"
       y2="0"
       gradientUnits="userSpaceOnUse"
       gradientTransform="matrix(-17.80101,77.24794,-77.247925,-17.80101,60.388184,5.2285156)"
       spreadMethod="pad"
       id="linearGradient3712"><stop
         style="stop-opacity:1;stop-color:#3db1a7"
         offset="0"
         id="stop3706" /><stop
         style="stop-opacity:1;stop-color:#3db1a7"
         offset="0.00207568"
         id="stop3708" /><stop
         style="stop-opacity:1;stop-color:#ffffff"
         offset="1"
         id="stop3710" /></linearGradient><linearGradient
       x1="0"
       y1="0"
       x2="1"
       y2="0"
       gradientUnits="userSpaceOnUse"
       gradientTransform="matrix(-17.80101,77.24794,-77.247925,-17.80101,60.388184,5.2285156)"
       spreadMethod="pad"
       id="linearGradient3734"><stop
         style="stop-opacity:1;stop-color:#009c80"
         offset="0"
         id="stop3728" /><stop
         style="stop-opacity:1;stop-color:#009c80"
         offset="0.00967547"
         id="stop3730" /><stop
         style="stop-opacity:1;stop-color:#3db1a7"
         offset="1"
         id="stop3732" /></linearGradient><linearGradient
       x1="0"
       y1="0"
       x2="1"
       y2="0"
       gradientUnits="userSpaceOnUse"
       gradientTransform="matrix(-45.403992,-68.774368,68.774383,-45.403992,84.118652,80.171387)"
       spreadMethod="pad"
       id="linearGradient3760"><stop
         style="stop-opacity:1;stop-color:#ea8623"
         offset="0"
         id="stop3754" /><stop
         style="stop-opacity:1;stop-color:#ea8623"
         offset="0.00155757"
         id="stop3756" /><stop
         style="stop-opacity:1;stop-color:#ffffff"
         offset="1"
         id="stop3758" /></linearGradient><linearGradient
       x1="0"
       y1="0"
       x2="1"
       y2="0"
       gradientUnits="userSpaceOnUse"
       gradientTransform="matrix(-45.403992,-68.774368,68.774383,-45.403992,84.118652,80.171387)"
       spreadMethod="pad"
       id="linearGradient3782"><stop
         style="stop-opacity:1;stop-color:#dd5627"
         offset="0"
         id="stop3776" /><stop
         style="stop-opacity:1;stop-color:#dd5627"
         offset="0.01259923"
         id="stop3778" /><stop
         style="stop-opacity:1;stop-color:#ea8623"
         offset="1"
         id="stop3780" /></linearGradient><linearGradient
       x1="0"
       y1="0"
       x2="1"
       y2="0"
       gradientUnits="userSpaceOnUse"
       gradientTransform="matrix(5.2982178,-98.889587,98.889603,5.2982178,43.469238,135.67627)"
       spreadMethod="pad"
       id="linearGradient3808"><stop
         style="stop-opacity:1;stop-color:#f5ab1b"
         offset="0"
         id="stop3802" /><stop
         style="stop-opacity:1;stop-color:#ffffff"
         offset="0.99601594"
         id="stop3804" /><stop
         style="stop-opacity:1;stop-color:#ffffff"
         offset="1"
         id="stop3806" /></linearGradient><linearGradient
       x1="0"
       y1="0"
       x2="1"
       y2="0"
       gradientUnits="userSpaceOnUse"
       gradientTransform="matrix(5.2982178,-98.889587,98.889603,5.2982178,49.263184,135.98682)"
       spreadMethod="pad"
       id="linearGradient3830"><stop
         style="stop-opacity:1;stop-color:#e46926"
         offset="0"
         id="stop3824" /><stop
         style="stop-opacity:1;stop-color:#e46926"
         offset="0.01686084"
         id="stop3826" /><stop
         style="stop-opacity:1;stop-color:#ea8623"
         offset="1"
         id="stop3828" /></linearGradient><linearGradient
       x1="0"
       y1="0"
       x2="1"
       y2="0"
       gradientUnits="userSpaceOnUse"
       gradientTransform="matrix(5.2982178,-98.889587,98.889603,5.2982178,35.356934,135.2417)"
       spreadMethod="pad"
       id="linearGradient3852"><stop
         style="stop-opacity:1;stop-color:#ec8123"
         offset="0"
         id="stop3846" /><stop
         style="stop-opacity:1;stop-color:#f5ab1b"
         offset="0.99869171"
         id="stop3848" /><stop
         style="stop-opacity:1;stop-color:#f5ab1b"
         offset="1"
         id="stop3850" /></linearGradient><linearGradient
       x1="0"
       y1="0"
       x2="1"
       y2="0"
       gradientUnits="userSpaceOnUse"
       gradientTransform="matrix(74.427338,-74.092956,74.092956,74.427338,-49.498047,85.604492)"
       spreadMethod="pad"
       id="linearGradient3878"><stop
         style="stop-opacity:1;stop-color:#e25d25"
         offset="0"
         id="stop3872" /><stop
         style="stop-opacity:1;stop-color:#ffffff"
         offset="0.99982003"
         id="stop3874" /><stop
         style="stop-opacity:1;stop-color:#ffffff"
         offset="1"
         id="stop3876" /></linearGradient><linearGradient
       x1="0"
       y1="0"
       x2="1"
       y2="0"
       gradientUnits="userSpaceOnUse"
       gradientTransform="matrix(74.427338,-74.092956,74.092956,74.427338,-54.273926,80.807617)"
       spreadMethod="pad"
       id="linearGradient3900"><stop
         style="stop-opacity:1;stop-color:#e25d25"
         offset="0"
         id="stop3894" /><stop
         style="stop-opacity:1;stop-color:#ffffff"
         offset="0.99982003"
         id="stop3896" /><stop
         style="stop-opacity:1;stop-color:#ffffff"
         offset="1"
         id="stop3898" /></linearGradient><linearGradient
       x1="0"
       y1="0"
       x2="1"
       y2="0"
       gradientUnits="userSpaceOnUse"
       gradientTransform="matrix(74.427338,-74.092956,74.092956,74.427338,-49.498047,85.604492)"
       spreadMethod="pad"
       id="linearGradient3922"><stop
         style="stop-opacity:1;stop-color:#d93226"
         offset="0"
         id="stop3916" /><stop
         style="stop-opacity:1;stop-color:#d93226"
         offset="0.02772916"
         id="stop3918" /><stop
         style="stop-opacity:1;stop-color:#e85f24"
         offset="1"
         id="stop3920" /></linearGradient><linearGradient
       x1="0"
       y1="0"
       x2="1"
       y2="0"
       gradientUnits="userSpaceOnUse"
       gradientTransform="matrix(35.784943,-33.76886,33.76886,35.784943,-12.781738,73.745606)"
       spreadMethod="pad"
       id="linearGradient3948"><stop
         style="stop-opacity:1;stop-color:#0556a2"
         offset="0"
         id="stop3942" /><stop
         style="stop-opacity:1;stop-color:#0556a2"
         offset="0.00083929"
         id="stop3944" /><stop
         style="stop-opacity:1;stop-color:#ffffff"
         offset="1"
         id="stop3946" /></linearGradient><linearGradient
       x1="0"
       y1="0"
       x2="1"
       y2="0"
       gradientUnits="userSpaceOnUse"
       gradientTransform="matrix(35.784943,-33.76886,33.76886,35.784943,-13.111328,73.396484)"
       spreadMethod="pad"
       id="linearGradient3970"><stop
         style="stop-opacity:1;stop-color:#1e4597"
         offset="0"
         id="stop3964" /><stop
         style="stop-opacity:1;stop-color:#1e4597"
         offset="0.00914559"
         id="stop3966" /><stop
         style="stop-opacity:1;stop-color:#1878bc"
         offset="1"
         id="stop3968" /></linearGradient><linearGradient
       x1="0"
       y1="0"
       x2="1"
       y2="0"
       gradientUnits="userSpaceOnUse"
       gradientTransform="matrix(-82.326096,-77.957611,77.957626,-82.326096,92.791992,142.69385)"
       spreadMethod="pad"
       id="linearGradient3996"><stop
         style="stop-opacity:1;stop-color:#1288be"
         offset="0"
         id="stop3990" /><stop
         style="stop-opacity:1;stop-color:#ffffff"
         offset="0.99846237"
         id="stop3992" /><stop
         style="stop-opacity:1;stop-color:#ffffff"
         offset="1"
         id="stop3994" /></linearGradient><linearGradient
       x1="0"
       y1="0"
       x2="1"
       y2="0"
       gradientUnits="userSpaceOnUse"
       gradientTransform="matrix(-82.326096,-77.957611,77.957626,-82.326096,90.888672,144.70361)"
       spreadMethod="pad"
       id="linearGradient4018"><stop
         style="stop-opacity:1;stop-color:#1288be"
         offset="0"
         id="stop4012" /><stop
         style="stop-opacity:1;stop-color:#ffffff"
         offset="0.99846237"
         id="stop4014" /><stop
         style="stop-opacity:1;stop-color:#ffffff"
         offset="1"
         id="stop4016" /></linearGradient><linearGradient
       x1="0"
       y1="0"
       x2="1"
       y2="0"
       gradientUnits="userSpaceOnUse"
       gradientTransform="matrix(-82.32608,-77.957611,77.957611,-82.32608,95.761231,139.55811)"
       spreadMethod="pad"
       id="linearGradient4040"><stop
         style="stop-opacity:1;stop-color:#1288be"
         offset="0"
         id="stop4034" /><stop
         style="stop-opacity:1;stop-color:#ffffff"
         offset="0.99846237"
         id="stop4036" /><stop
         style="stop-opacity:1;stop-color:#ffffff"
         offset="1"
         id="stop4038" /></linearGradient><linearGradient
       x1="0"
       y1="0"
       x2="1"
       y2="0"
       gradientUnits="userSpaceOnUse"
       gradientTransform="matrix(-82.326096,-77.957611,77.957626,-82.326096,95.685059,139.63867)"
       spreadMethod="pad"
       id="linearGradient4062"><stop
         style="stop-opacity:1;stop-color:#005fa2"
         offset="0"
         id="stop4056" /><stop
         style="stop-opacity:1;stop-color:#005fa2"
         offset="0.00245396"
         id="stop4058" /><stop
         style="stop-opacity:1;stop-color:#1878bc"
         offset="1"
         id="stop4060" /></linearGradient><linearGradient
       x1="0"
       y1="0"
       x2="1"
       y2="0"
       gradientUnits="userSpaceOnUse"
       gradientTransform="matrix(-82.326096,-77.957611,77.957626,-82.326096,91.878418,143.65869)"
       spreadMethod="pad"
       id="linearGradient4084"><stop
         style="stop-opacity:1;stop-color:#006ea4"
         offset="0"
         id="stop4078" /><stop
         style="stop-opacity:1;stop-color:#006ea4"
         offset="0.00698092"
         id="stop4080" /><stop
         style="stop-opacity:1;stop-color:#0f94c4"
         offset="1"
         id="stop4082" /></linearGradient><clipPath
       clipPathUnits="userSpaceOnUse"
       id="clipPath4094"><path
         d="M 0,92.193 H 485.786 V 0 H 0 Z"
         id="path4092"
         inkscape:connector-curvature="0" /></clipPath></defs><sodipodi:namedview
     pagecolor="#ffffff"
     bordercolor="#666666"
     borderopacity="1"
     objecttolerance="10"
     gridtolerance="10"
     guidetolerance="10"
     inkscape:pageopacity="0"
     inkscape:pageshadow="2"
     inkscape:window-width="3360"
     inkscape:window-height="1780"
     id="namedview3682"
     showgrid="false"
     inkscape:zoom="4.9172887"
     inkscape:cx="323.85733"
     inkscape:cy="61.462265"
     inkscape:window-x="-12"
     inkscape:window-y="370"
     inkscape:window-maximized="1"
     inkscape:current-layer="g3688" /><g
     id="g3688"
     inkscape:groupmode="layer"
     inkscape:label="sa_logo_final_v2_alignment_curves_rich_black_svg_test"
     transform="matrix(1.3333333,0,0,-1.3333333,0,122.92453)"><g
       id="g3690"
       transform="translate(55.9829,70.9121)"><path
         d="m 0,0 -10.778,8.872 -4.294,3.538 -10.767,8.871 V 3.548 3.537 L -21.543,0 l 10.765,-8.871 4.305,-3.539 10.767,8.871 z"
         style="fill:#3db1a7;fill-opacity:1;fill-rule:nonzero;stroke:none"
         id="path3692"
         inkscape:connector-curvature="0" /></g><g
       id="g3694"><g
         id="g3696"><g
           id="g3702"><g
             id="g3704"><path
               d="m 30.144,92.193 10.767,-8.871 4.294,-3.538 4.403,-3.624 -4.402,3.624 -4.294,3.538 -10.767,8.871 z m 4.296,-21.281 -4.296,3.537 z m 15.07,-12.41 10.767,8.87 -10e-4,0.001 z"
               style="fill:url(#linearGradient3712);stroke:none"
               id="path3714"
               inkscape:connector-curvature="0" /></g></g></g></g><g
       id="g3716"><g
         id="g3718"><g
           id="g3724"><g
             id="g3726"><path
               d="M 30.144,92.193 V 92.192 74.449 l 4.296,-3.537 10.766,-8.87 4.304,-3.54 10.766,8.871 -4.293,3.539 -6.375,5.248 -4.403,3.624 -4.294,3.538 z"
               style="fill:url(#linearGradient3734);stroke:none"
               id="path3736"
               inkscape:connector-curvature="0" /></g></g></g></g><g
       id="g3738"
       transform="translate(49.5005,33.6914)"><path
         d="m 0,0 -4.295,-3.539 -10.777,-8.869 -4.284,-3.542 v -0.009 -17.723 l 10.767,8.862 4.294,3.539 10.768,8.873 4.294,3.537 z"
         style="fill:#ea8623;fill-opacity:1;fill-rule:nonzero;stroke:none"
         id="path3740"
         inkscape:connector-curvature="0" /></g><g
       id="g3742"><g
         id="g3744"><g
           id="g3750"><g
             id="g3752"><path
               d="m 47.353,31.922 2.147,1.769 v 0 z M 34.428,21.284 30.144,17.743 V 0.01 l 0.001,10e-4 v 17.722 0.008 l 4.284,3.542 7.425,6.111 z m 25.84,3.536 -1.398,-1.151 1.399,1.151 z M 45.205,12.411 40.911,8.871 37.562,6.115 l 3.35,2.756 4.294,3.539 4.658,3.84 z"
               style="fill:url(#linearGradient3760);stroke:none"
               id="path3762"
               inkscape:connector-curvature="0" /></g></g></g></g><g
       id="g3764"><g
         id="g3766"><g
           id="g3772"><g
             id="g3774"><path
               d="m 49.5,33.691 v 0 z M 47.353,31.922 45.206,30.153 41.854,27.394 34.429,21.283 30.145,17.741 V 17.733 0.011 l 3.683,3.031 3.734,3.073 3.349,2.756 4.294,3.54 4.659,3.839 6.108,5.034 2.898,2.385 1.398,1.151 -10.768,8.871 z"
               style="fill:url(#linearGradient3782);stroke:none"
               id="path3784"
               inkscape:connector-curvature="0" /></g></g></g></g><g
       id="g3786"
       transform="translate(55.9829,46.0918)"><path
         d="M 0,0 -10.778,8.871 -15.072,12.41 -25.839,21.281 -36.617,12.41 -25.839,3.539 -21.543,0 -10.778,-8.871 -6.482,-12.4 4.285,-21.271 h 0.009 v 17.733 0.011 z"
         style="fill:#f5ab1b;fill-opacity:1;fill-rule:nonzero;stroke:none"
         id="path3788"
         inkscape:connector-curvature="0" /></g><g
       id="g3790"><g
         id="g3792"><g
           id="g3798"><g
             id="g3800"><path
               d="m 40.911,58.502 4.294,-3.539 10.778,-8.871 -10.777,8.871 -4.294,3.539 -4.404,3.627 z M 49.5,33.691 h 10e-4 l 10.766,-8.87 h 10e-4 l -10.767,8.87 -2.702,2.221 z"
               style="fill:url(#linearGradient3808);stroke:none"
               id="path3810"
               inkscape:connector-curvature="0" /></g></g></g></g><g
       id="g3812"><g
         id="g3814"><g
           id="g3820"><g
             id="g3822"><path
               d="m 60.267,24.821 -10.766,8.87 z"
               style="fill:url(#linearGradient3830);stroke:none"
               id="path3832"
               inkscape:connector-curvature="0" /></g></g></g></g><g
       id="g3834"><g
         id="g3836"><g
           id="g3842"><g
             id="g3844"><path
               d="m 19.367,58.502 10.777,-8.871 4.296,-3.539 10.766,-8.872 1.593,-1.308 2.702,-2.221 10.767,-8.87 0.009,10e-4 v 17.743 l -4.294,3.527 -10.778,8.871 -4.294,3.539 -4.403,3.627 -6.364,5.243 z"
               style="fill:url(#linearGradient3852);stroke:none"
               id="path3854"
               inkscape:connector-curvature="0" /></g></g></g></g><g
       id="g3856"
       transform="translate(0.0108,24.8202)"><path
         d="m 0,0 4.295,-3.537 10.766,-8.873 4.295,-3.539 10.777,-8.871 v 0.01 17.723 0.009 l -4.295,3.541 -10.777,8.869 -4.293,3.539 z"
         style="fill:#e85f24;fill-opacity:1;fill-rule:nonzero;stroke:none"
         id="path3858"
         inkscape:connector-curvature="0" /></g><g
       id="g3860"><g
         id="g3862"><g
           id="g3868"><g
             id="g3870"><path
               d="m 0.01,24.82 1.444,-1.188 -1.443,1.188 10.767,8.871 z m 30.134,-7.077 -4.075,3.358 z M 30.143,0 h 10e-4 l -1.531,1.259 z"
               style="fill:url(#linearGradient3878);stroke:none"
               id="path3880"
               inkscape:connector-curvature="0" /></g></g></g></g><g
       id="g3882"><g
         id="g3884"><g
           id="g3890"><g
             id="g3892"><path
               d=""
               style="fill:url(#linearGradient3900);stroke:none"
               id="path3902"
               inkscape:connector-curvature="0" /></g></g></g></g><g
       id="g3904"><g
         id="g3906"><g
           id="g3912"><g
             id="g3914"><path
               d="M 10.778,33.691 0.011,24.82 1.454,23.632 4.306,21.284 15.071,12.41 19.367,8.871 28.613,1.259 30.144,0 v 17.743 l -4.075,3.358 -0.221,0.183 -10.777,8.869 z"
               style="fill:url(#linearGradient3922);stroke:none"
               id="path3924"
               inkscape:connector-curvature="0" /></g></g></g></g><g
       id="g3926"
       transform="translate(0,49.6305)"><path
         d="m 0,0 4.294,-3.539 10.778,-8.871 4.294,-3.539 10.778,-8.871 v 0.011 l 10.767,8.86 -10.767,8.872 -4.306,3.538 -10.766,8.871 -4.305,3.539 z"
         style="fill:#1878bc;fill-opacity:1;fill-rule:nonzero;stroke:none"
         id="path3928"
         inkscape:connector-curvature="0" /></g><g
       id="g3930"><g
         id="g3932"><g
           id="g3938"><g
             id="g3940"><path
               d="M 40.911,33.682 30.144,24.821 V 24.82 l 10.768,8.862 -10.768,8.872 z m -25.84,3.538 1.289,-1.061 -1.288,1.061 -3.233,2.662 z"
               style="fill:url(#linearGradient3948);stroke:none"
               id="path3950"
               inkscape:connector-curvature="0" /></g></g></g></g><g
       id="g3952"><g
         id="g3954"><g
           id="g3960"><g
             id="g3962"><path
               d="m 0,49.631 4.295,-3.539 7.544,-6.21 3.233,-2.662 1.288,-1.061 3.007,-2.477 10.777,-8.872 v 0.01 0.001 l 10.767,8.861 -10.767,8.872 -4.306,3.538 -10.767,8.871 -4.304,3.539 z"
               style="fill:url(#linearGradient3970);stroke:none"
               id="path3972"
               inkscape:connector-curvature="0" /></g></g></g></g><g
       id="g3974"
       transform="translate(19.3667,83.3223)"><path
         d="m 0,0 -4.294,-3.538 -10.778,-8.872 -4.294,-3.539 v -17.742 l 10.767,8.871 4.305,3.539 10.766,8.871 4.305,3.537 v 0.011 17.733 z"
         style="fill:#0f94c4;fill-opacity:1;fill-rule:nonzero;stroke:none"
         id="path3976"
         inkscape:connector-curvature="0" /></g><g
       id="g3978"><g
         id="g3980"><g
           id="g3986"><g
             id="g3988"><path
               d="m 30.143,92.193 -0.931,-0.766 0.932,0.766 z"
               style="fill:url(#linearGradient3996);stroke:none"
               id="path3998"
               inkscape:connector-curvature="0" /></g></g></g></g><g
       id="g4000"><g
         id="g4002"><g
           id="g4008"><g
             id="g4010"><path
               d="m 15.071,79.784 -3.223,-2.655 3.225,2.655 1.442,1.188 z M 0,67.372 V 49.631 h 0.001 v 17.742 z"
               style="fill:url(#linearGradient4018);stroke:none"
               id="path4020"
               inkscape:connector-curvature="0" /></g></g></g></g><g
       id="g4022"><g
         id="g4024"><g
           id="g4030"><g
             id="g4032"><path
               d="m 10.768,58.503 -2.432,-2.004 2.431,2.003 0.593,0.487 z"
               style="fill:url(#linearGradient4040);stroke:none"
               id="path4042"
               inkscape:connector-curvature="0" /></g></g></g></g><g
       id="g4044"><g
         id="g4046"><g
           id="g4052"><g
             id="g4054"><path
               d="M 10.767,58.502 0.661,50.175 0.998,50.453 Z"
               style="fill:url(#linearGradient4062);stroke:none"
               id="path4064"
               inkscape:connector-curvature="0" /></g></g></g></g><g
       id="g4066"><g
         id="g4068"><g
           id="g4074"><g
             id="g4076"><path
               d="M 30.144,92.193 29.212,91.427 19.367,83.322 16.515,80.972 15.073,79.784 11.848,77.129 4.295,70.912 10e-4,67.373 V 49.631 l 0.66,0.544 0.337,0.278 7.338,6.046 2.432,2.004 0.592,0.486 3.711,3.053 10.767,8.87 4.306,3.537 v 17.743 z"
               style="fill:url(#linearGradient4084);stroke:none"
               id="path4086"
               inkscape:connector-curvature="0" /></g></g></g></g><g
       id="g4088"><g
         id="g4090"
         clip-path="url(#clipPath4094)"><g
           id="g4096"
           transform="translate(101.2329,61.7803)"><path
             d="m 0,0 c -0.18,-0.34 -0.44,-0.51 -0.78,-0.51 -0.261,0 -0.597,0.185 -1.009,0.555 -0.411,0.37 -0.968,0.78 -1.67,1.23 -0.702,0.45 -1.58,0.865 -2.633,1.245 -1.054,0.379 -2.353,0.57 -3.898,0.57 -1.545,0 -2.904,-0.22 -4.078,-0.66 -1.174,-0.44 -2.157,-1.04 -2.95,-1.8 -0.792,-0.76 -1.394,-1.64 -1.805,-2.64 -0.412,-1 -0.617,-2.051 -0.617,-3.15 0,-1.44 0.305,-2.63 0.916,-3.57 0.61,-0.94 1.417,-1.74 2.419,-2.4 1.001,-0.66 2.138,-1.215 3.409,-1.665 1.272,-0.45 2.579,-0.895 3.921,-1.335 1.341,-0.44 2.649,-0.925 3.92,-1.455 1.272,-0.53 2.409,-1.195 3.41,-1.995 1.001,-0.8 1.807,-1.785 2.419,-2.955 0.61,-1.17 0.916,-2.625 0.916,-4.365 0,-1.78 -0.305,-3.455 -0.915,-5.025 -0.61,-1.57 -1.496,-2.935 -2.655,-4.095 -1.16,-1.16 -2.58,-2.075 -4.26,-2.745 -1.68,-0.67 -3.6,-1.005 -5.76,-1.005 -2.8,0 -5.21,0.495 -7.23,1.485 -2.02,0.99 -3.79,2.345 -5.31,4.065 l 0.84,1.32 c 0.24,0.3 0.52,0.45 0.84,0.45 0.18,0 0.411,-0.12 0.691,-0.36 0.28,-0.24 0.62,-0.535 1.021,-0.885 0.401,-0.35 0.882,-0.73 1.442,-1.14 0.561,-0.41 1.212,-0.79 1.953,-1.14 0.741,-0.35 1.592,-0.645 2.553,-0.885 0.962,-0.24 2.053,-0.36 3.275,-0.36 1.682,0 3.185,0.255 4.506,0.765 1.322,0.51 2.439,1.205 3.35,2.085 0.912,0.88 1.607,1.925 2.088,3.135 0.48,1.21 0.721,2.505 0.721,3.885 0,1.5 -0.306,2.735 -0.916,3.705 -0.612,0.97 -1.418,1.78 -2.419,2.43 -1.001,0.65 -2.138,1.195 -3.41,1.635 -1.272,0.44 -2.579,0.87 -3.92,1.29 -1.342,0.42 -2.649,0.89 -3.921,1.41 -1.271,0.52 -2.408,1.185 -3.41,1.995 -1.001,0.81 -1.807,1.82 -2.418,3.03 -0.611,1.21 -0.916,2.725 -0.916,4.545 0,1.42 0.27,2.79 0.811,4.11 0.541,1.32 1.332,2.485 2.373,3.495 1.042,1.01 2.328,1.82 3.861,2.43 1.532,0.61 3.279,0.915 5.242,0.915 2.203,0 4.181,-0.35 5.933,-1.05 1.753,-0.7 3.349,-1.77 4.79,-3.21 z"
             style="fill:#000000;fill-opacity:1;fill-rule:nonzero;stroke:none"
             id="path4098"
             inkscape:connector-curvature="0" /></g><path
           d="m 114.282,24.491 h -2.85 v 29.85 h 2.85 z m 1.261,40.14 c 0,-0.361 -0.076,-0.696 -0.226,-1.006 -0.149,-0.311 -0.344,-0.585 -0.585,-0.824 -0.24,-0.241 -0.52,-0.431 -0.839,-0.571 -0.321,-0.14 -0.661,-0.21 -1.02,-0.21 -0.361,0 -0.701,0.07 -1.02,0.21 -0.321,0.14 -0.601,0.33 -0.841,0.571 -0.239,0.239 -0.43,0.513 -0.57,0.824 -0.14,0.31 -0.21,0.645 -0.21,1.006 0,0.36 0.07,0.704 0.21,1.034 0.14,0.33 0.331,0.616 0.57,0.855 0.24,0.241 0.52,0.431 0.841,0.571 0.319,0.138 0.659,0.21 1.02,0.21 0.359,0 0.699,-0.072 1.02,-0.21 0.319,-0.14 0.599,-0.33 0.839,-0.571 0.241,-0.239 0.436,-0.525 0.585,-0.855 0.15,-0.33 0.226,-0.674 0.226,-1.034"
           style="fill:#000000;fill-opacity:1;fill-rule:nonzero;stroke:none"
           id="path4100"
           inkscape:connector-curvature="0" /><g
           id="g4102"
           transform="translate(124.8413,24.4902)"><path
             d="m 0,0 v 29.85 h 1.56 c 0.52,0 0.82,-0.25 0.9,-0.75 l 0.27,-4.32 c 0.58,0.82 1.2,1.57 1.86,2.25 0.66,0.679 1.365,1.265 2.115,1.755 0.75,0.49 1.55,0.87 2.4,1.14 0.85,0.27 1.745,0.405 2.685,0.405 2.18,0 3.92,-0.635 5.22,-1.905 1.3,-1.27 2.18,-3.035 2.64,-5.295 0.359,1.24 0.864,2.31 1.513,3.21 0.649,0.9 1.393,1.645 2.231,2.235 0.838,0.59 1.752,1.03 2.741,1.32 0.988,0.29 2.001,0.435 3.04,0.435 1.478,0 2.805,-0.245 3.984,-0.735 1.178,-0.491 2.181,-1.215 3.01,-2.175 0.829,-0.96 1.462,-2.14 1.902,-3.54 0.439,-1.4 0.659,-3 0.659,-4.8 V 0 h -2.85 v 19.08 c 0,2.92 -0.63,5.145 -1.89,6.675 -1.26,1.53 -3.06,2.295 -5.4,2.295 -1.04,0 -2.035,-0.19 -2.985,-0.57 -0.95,-0.38 -1.79,-0.945 -2.52,-1.695 -0.73,-0.75 -1.31,-1.685 -1.74,-2.805 C 20.915,21.86 20.7,20.56 20.7,19.08 V 0 h -2.85 v 19.08 c 0,2.899 -0.58,5.12 -1.74,6.66 -1.16,1.54 -2.85,2.31 -5.07,2.31 -1.62,0 -3.12,-0.485 -4.5,-1.455 C 5.16,25.625 3.93,24.28 2.85,22.56 V 0 Z"
             style="fill:#000000;fill-opacity:1;fill-rule:nonzero;stroke:none"
             id="path4104"
             inkscape:connector-curvature="0" /></g><g
           id="g4106"
           transform="translate(185.0806,52.54)"><path
             d="M 0,0 C -1.98,0 -3.775,-0.515 -5.385,-1.545 -6.995,-2.575 -8.42,-4.01 -9.66,-5.85 v -15.66 c 1.14,-1.72 2.405,-2.93 3.795,-3.63 1.39,-0.7 2.974,-1.05 4.755,-1.05 1.759,0 3.3,0.32 4.62,0.96 1.32,0.64 2.425,1.545 3.315,2.715 0.889,1.17 1.56,2.57 2.01,4.2 0.45,1.63 0.675,3.425 0.675,5.385 0,4.44 -0.815,7.705 -2.445,9.795 C 5.435,-1.045 3.08,0 0,0 M -12.51,-38.61 V 1.8 h 1.56 c 0.26,0 0.47,-0.055 0.63,-0.165 0.16,-0.11 0.25,-0.305 0.27,-0.585 l 0.27,-4.62 c 1.32,1.8 2.865,3.23 4.635,4.29 1.77,1.06 3.754,1.59 5.955,1.59 3.68,0 6.54,-1.27 8.58,-3.81 2.04,-2.54 3.06,-6.35 3.06,-11.43 0,-2.18 -0.285,-4.215 -0.855,-6.105 -0.57,-1.89 -1.406,-3.53 -2.505,-4.92 -1.1,-1.39 -2.455,-2.485 -4.065,-3.285 -1.61,-0.8 -3.465,-1.2 -5.565,-1.2 -2.04,0 -3.8,0.371 -5.28,1.11 -1.48,0.74 -2.76,1.84 -3.84,3.3 v -14.58 z"
             style="fill:#000000;fill-opacity:1;fill-rule:nonzero;stroke:none"
             id="path4108"
             inkscape:connector-curvature="0" /></g><path
           d="m 208.359,24.491 h -2.85 v 43.65 h 2.85 z"
           style="fill:#000000;fill-opacity:1;fill-rule:nonzero;stroke:none"
           id="path4110"
           inkscape:connector-curvature="0" /><g
           id="g4112"
           transform="translate(225.4287,14.8901)"><path
             d="M 0,0 C -0.12,-0.28 -0.275,-0.51 -0.465,-0.69 -0.655,-0.87 -0.93,-0.96 -1.29,-0.96 h -2.04 l 5.25,11.67 -12.63,28.74 h 2.37 c 0.3,0 0.535,-0.075 0.705,-0.225 0.17,-0.15 0.295,-0.315 0.375,-0.495 L 2.79,15.51 c 0.12,-0.3 0.225,-0.605 0.315,-0.915 0.09,-0.31 0.175,-0.625 0.255,-0.945 0.1,0.32 0.205,0.635 0.315,0.945 0.11,0.31 0.225,0.615 0.345,0.915 l 9.93,23.22 c 0.1,0.22 0.24,0.395 0.42,0.525 0.18,0.13 0.38,0.195 0.6,0.195 h 2.19 z"
             style="fill:#000000;fill-opacity:1;fill-rule:nonzero;stroke:none"
             id="path4114"
             inkscape:connector-curvature="0" /></g><g
           id="g4116"
           transform="translate(251.019,39.9102)"><path
             d="m 0,0 h 19.021 l -8.67,21.45 C 10.21,21.79 10.069,22.175 9.931,22.605 9.79,23.035 9.649,23.49 9.511,23.97 9.37,23.49 9.229,23.035 9.091,22.605 8.95,22.175 8.81,21.78 8.67,21.42 Z m 28.41,-15.42 h -2.37 c -0.28,0 -0.51,0.075 -0.689,0.225 -0.181,0.15 -0.321,0.345 -0.42,0.585 L 19.92,-2.28 H -0.93 l -4.979,-12.33 c -0.081,-0.22 -0.221,-0.41 -0.421,-0.57 -0.2,-0.16 -0.441,-0.24 -0.72,-0.24 H -9.39 L 7.979,27.03 h 3.061 z"
             style="fill:#000000;fill-opacity:1;fill-rule:nonzero;stroke:none"
             id="path4118"
             inkscape:connector-curvature="0" /></g><g
           id="g4120"
           transform="translate(284.7075,24.4902)"><path
             d="m 0,0 v 29.85 h 1.561 c 0.519,0 0.82,-0.25 0.9,-0.75 L 2.73,24.6 c 1.36,1.72 2.946,3.105 4.756,4.155 1.809,1.05 3.825,1.575 6.045,1.575 1.639,0 3.084,-0.26 4.334,-0.78 1.25,-0.52 2.285,-1.27 3.106,-2.25 0.82,-0.98 1.439,-2.16 1.859,-3.54 0.42,-1.38 0.631,-2.94 0.631,-4.68 V 0 h -2.85 v 19.08 c 0,2.8 -0.64,4.995 -1.921,6.585 -1.28,1.59 -3.239,2.385 -5.879,2.385 -1.961,0 -3.78,-0.505 -5.46,-1.515 C 5.67,25.525 4.17,24.14 2.851,22.38 V 0 Z"
             style="fill:#000000;fill-opacity:1;fill-rule:nonzero;stroke:none"
             id="path4122"
             inkscape:connector-curvature="0" /></g><g
           id="g4124"
           transform="translate(324.2173,26.0801)"><path
             d="m 0,0 c 1.16,0 2.225,0.125 3.195,0.375 0.969,0.25 1.869,0.6 2.7,1.05 0.83,0.45 1.605,0.985 2.325,1.605 0.719,0.62 1.429,1.29 2.13,2.01 v 7.77 C 7.51,12.73 5.064,12.515 3.015,12.165 c -2.05,-0.35 -3.74,-0.825 -5.07,-1.425 -1.33,-0.6 -2.31,-1.315 -2.94,-2.145 -0.63,-0.83 -0.944,-1.775 -0.944,-2.835 0,-1 0.164,-1.865 0.494,-2.595 0.33,-0.73 0.765,-1.33 1.304,-1.8 C -3.6,0.895 -2.971,0.55 -2.25,0.33 -1.53,0.11 -0.78,0 0,0 m 12,-1.59 c -0.6,0 -0.971,0.28 -1.11,0.84 L 10.47,3.06 C 9.649,2.26 8.835,1.54 8.025,0.9 7.215,0.26 6.369,-0.28 5.49,-0.72 4.609,-1.16 3.66,-1.495 2.64,-1.725 1.619,-1.955 0.5,-2.07 -0.721,-2.07 c -1.019,0 -2.009,0.15 -2.968,0.45 -0.961,0.3 -1.811,0.76 -2.551,1.38 -0.74,0.62 -1.335,1.415 -1.785,2.385 -0.45,0.97 -0.675,2.135 -0.675,3.495 0,1.26 0.36,2.43 1.08,3.51 0.72,1.08 1.845,2.02 3.375,2.82 1.53,0.8 3.499,1.44 5.91,1.92 2.409,0.48 5.305,0.76 8.685,0.84 v 3.12 c 0,2.76 -0.596,4.885 -1.786,6.375 -1.189,1.49 -2.955,2.235 -5.294,2.235 -1.44,0 -2.666,-0.2 -3.675,-0.6 -1.011,-0.4 -1.866,-0.84 -2.566,-1.32 -0.699,-0.48 -1.269,-0.92 -1.709,-1.32 -0.44,-0.4 -0.81,-0.6 -1.11,-0.6 -0.4,0 -0.7,0.18 -0.899,0.54 L -7.2,24.03 c 1.559,1.56 3.2,2.74 4.92,3.54 1.719,0.8 3.67,1.2 5.85,1.2 1.6,0 3,-0.255 4.2,-0.765 1.2,-0.51 2.195,-1.24 2.985,-2.19 0.79,-0.95 1.385,-2.1 1.785,-3.45 0.399,-1.35 0.6,-2.855 0.6,-4.515 V -1.59 Z"
             style="fill:#000000;fill-opacity:1;fill-rule:nonzero;stroke:none"
             id="path4126"
             inkscape:connector-curvature="0" /></g><path
           d="m 350.047,24.491 h -2.851 v 43.65 h 2.851 z"
           style="fill:#000000;fill-opacity:1;fill-rule:nonzero;stroke:none"
           id="path4128"
           inkscape:connector-curvature="0" /><g
           id="g4130"
           transform="translate(367.1167,14.8901)"><path
             d="M 0,0 C -0.12,-0.28 -0.275,-0.51 -0.466,-0.69 -0.655,-0.87 -0.931,-0.96 -1.29,-0.96 h -2.04 l 5.25,11.67 -12.63,28.74 h 2.369 c 0.301,0 0.535,-0.075 0.705,-0.225 0.17,-0.15 0.295,-0.315 0.375,-0.495 L 2.79,15.51 c 0.119,-0.3 0.225,-0.605 0.314,-0.915 0.09,-0.31 0.176,-0.625 0.256,-0.945 0.1,0.32 0.205,0.635 0.315,0.945 0.109,0.31 0.224,0.615 0.346,0.915 l 9.929,23.22 c 0.1,0.22 0.24,0.395 0.42,0.525 0.18,0.13 0.379,0.195 0.6,0.195 h 2.189 z"
             style="fill:#000000;fill-opacity:1;fill-rule:nonzero;stroke:none"
             id="path4132"
             inkscape:connector-curvature="0" /></g><g
           id="g4134"
           transform="translate(397.9565,24.0103)"><path
             d="M 0,0 C -2.021,0 -3.591,0.56 -4.71,1.68 -5.831,2.8 -6.39,4.53 -6.39,6.87 v 20.4 h -4.291 c -0.219,0 -0.4,0.06 -0.539,0.18 -0.14,0.12 -0.211,0.29 -0.211,0.51 v 1.11 l 5.101,0.36 0.712,10.68 c 0.019,0.18 0.094,0.34 0.222,0.48 0.129,0.139 0.302,0.21 0.52,0.21 H -3.54 V 29.4 H 5.85 V 27.27 H -3.54 V 7.02 c 0,-0.82 0.105,-1.525 0.314,-2.115 0.211,-0.59 0.5,-1.075 0.871,-1.455 0.37,-0.38 0.805,-0.66 1.305,-0.84 0.499,-0.18 1.039,-0.27 1.619,-0.27 0.721,0 1.34,0.105 1.861,0.315 0.52,0.21 0.969,0.44 1.35,0.69 0.379,0.25 0.69,0.48 0.93,0.69 0.24,0.21 0.43,0.315 0.57,0.315 0.159,0 0.32,-0.1 0.48,-0.3 L 6.54,2.79 C 5.779,1.95 4.815,1.275 3.645,0.765 2.475,0.255 1.26,0 0,0"
             style="fill:#000000;fill-opacity:1;fill-rule:nonzero;stroke:none"
             id="path4136"
             inkscape:connector-curvature="0" /></g><path
           d="m 414.906,24.491 h -2.85 v 29.85 h 2.85 z m 1.261,40.14 c 0,-0.361 -0.077,-0.696 -0.226,-1.006 -0.149,-0.311 -0.345,-0.585 -0.585,-0.824 -0.24,-0.241 -0.522,-0.431 -0.84,-0.571 -0.32,-0.14 -0.66,-0.21 -1.019,-0.21 -0.362,0 -0.702,0.07 -1.021,0.21 -0.32,0.14 -0.601,0.33 -0.841,0.571 -0.239,0.239 -0.429,0.513 -0.569,0.824 -0.14,0.31 -0.21,0.645 -0.21,1.006 0,0.36 0.07,0.704 0.21,1.034 0.14,0.33 0.33,0.616 0.569,0.855 0.24,0.241 0.521,0.431 0.841,0.571 0.319,0.138 0.659,0.21 1.021,0.21 0.359,0 0.699,-0.072 1.019,-0.21 0.318,-0.14 0.6,-0.33 0.84,-0.571 0.24,-0.239 0.436,-0.525 0.585,-0.855 0.149,-0.33 0.226,-0.674 0.226,-1.034"
           style="fill:#000000;fill-opacity:1;fill-rule:nonzero;stroke:none"
           id="path4138"
           inkscape:connector-curvature="0" /><g
           id="g4140"
           transform="translate(445.1147,50.3501)"><path
             d="M 0,0 C -0.101,-0.1 -0.194,-0.185 -0.284,-0.255 -0.375,-0.325 -0.5,-0.36 -0.659,-0.36 c -0.201,0 -0.477,0.135 -0.826,0.405 -0.35,0.27 -0.815,0.565 -1.395,0.885 -0.58,0.32 -1.305,0.615 -2.175,0.885 -0.87,0.27 -1.924,0.405 -3.165,0.405 -1.72,0 -3.245,-0.305 -4.575,-0.915 -1.33,-0.61 -2.45,-1.485 -3.36,-2.625 -0.91,-1.14 -1.605,-2.52 -2.084,-4.14 -0.481,-1.62 -0.721,-3.44 -0.721,-5.46 0,-2.1 0.245,-3.96 0.735,-5.58 0.49,-1.62 1.185,-2.985 2.085,-4.095 0.901,-1.11 1.991,-1.955 3.27,-2.535 1.28,-0.58 2.7,-0.87 4.26,-0.87 1.44,0 2.645,0.17 3.615,0.51 0.971,0.34 1.77,0.71 2.4,1.11 0.63,0.4 1.13,0.77 1.5,1.11 0.369,0.34 0.664,0.51 0.885,0.51 0.26,0 0.46,-0.1 0.6,-0.3 l 0.781,-0.96 c -0.461,-0.6 -1.041,-1.16 -1.74,-1.68 -0.702,-0.52 -1.491,-0.97 -2.371,-1.35 -0.88,-0.38 -1.834,-0.675 -2.865,-0.885 -1.03,-0.21 -2.105,-0.315 -3.225,-0.315 -1.901,0 -3.635,0.345 -5.205,1.035 -1.571,0.69 -2.92,1.69 -4.049,3 -1.131,1.31 -2.011,2.915 -2.641,4.815 -0.63,1.9 -0.945,4.06 -0.945,6.48 0,2.28 0.301,4.36 0.9,6.24 0.6,1.88 1.475,3.5 2.625,4.86 1.151,1.36 2.56,2.415 4.231,3.165 1.669,0.75 3.584,1.125 5.744,1.125 1.939,0 3.665,-0.31 5.176,-0.93 C -1.685,2.92 -0.37,2.08 0.75,1.02 Z"
             style="fill:#000000;fill-opacity:1;fill-rule:nonzero;stroke:none"
             id="path4142"
             inkscape:connector-curvature="0" /></g><g
           id="g4144"
           transform="translate(469.2036,50.6201)"><path
             d="m 0,0 c -0.14,-0.28 -0.359,-0.42 -0.659,-0.42 -0.22,0 -0.505,0.125 -0.855,0.375 -0.35,0.25 -0.81,0.53 -1.381,0.84 -0.57,0.31 -1.269,0.59 -2.099,0.84 -0.83,0.25 -1.846,0.375 -3.045,0.375 -1.08,0 -2.065,-0.155 -2.955,-0.464 -0.891,-0.309 -1.651,-0.723 -2.28,-1.242 -0.63,-0.518 -1.121,-1.121 -1.47,-1.809 -0.35,-0.689 -0.526,-1.412 -0.526,-2.17 0,-0.937 0.241,-1.716 0.721,-2.334 0.48,-0.618 1.11,-1.146 1.89,-1.585 0.78,-0.439 1.665,-0.818 2.655,-1.137 0.99,-0.319 2.004,-0.639 3.045,-0.959 1.039,-0.32 2.055,-0.675 3.045,-1.065 0.99,-0.39 1.875,-0.875 2.654,-1.455 0.781,-0.58 1.41,-1.29 1.891,-2.13 0.48,-0.84 0.72,-1.86 0.72,-3.06 0,-1.3 -0.236,-2.51 -0.705,-3.63 -0.47,-1.12 -1.15,-2.09 -2.041,-2.91 -0.89,-0.82 -1.984,-1.47 -3.285,-1.95 -1.299,-0.48 -2.779,-0.72 -4.439,-0.72 -2.1,0 -3.91,0.335 -5.43,1.005 -1.52,0.67 -2.881,1.545 -4.08,2.625 l 0.69,1.02 c 0.099,0.16 0.21,0.28 0.33,0.36 0.12,0.08 0.289,0.12 0.509,0.12 0.26,0 0.58,-0.16 0.961,-0.48 0.379,-0.32 0.874,-0.665 1.485,-1.035 0.609,-0.37 1.369,-0.715 2.279,-1.035 0.91,-0.32 2.035,-0.48 3.375,-0.48 1.261,0 2.371,0.175 3.33,0.525 0.961,0.35 1.76,0.825 2.4,1.425 0.641,0.6 1.125,1.305 1.456,2.115 0.33,0.81 0.495,1.665 0.495,2.565 0,1 -0.24,1.83 -0.72,2.49 -0.481,0.66 -1.11,1.22 -1.891,1.68 -0.779,0.46 -1.664,0.85 -2.654,1.17 -0.99,0.32 -2.01,0.64 -3.061,0.96 -1.049,0.32 -2.07,0.67 -3.059,1.05 -0.99,0.38 -1.875,0.86 -2.655,1.44 -0.78,0.58 -1.411,1.285 -1.891,2.115 -0.479,0.83 -0.719,1.865 -0.719,3.105 0,1.06 0.229,2.08 0.69,3.06 0.46,0.98 1.115,1.84 1.965,2.58 0.849,0.74 1.884,1.33 3.105,1.77 1.219,0.44 2.59,0.66 4.109,0.66 1.821,0 3.436,-0.264 4.846,-0.791 1.41,-0.527 2.704,-1.333 3.885,-2.419 z"
             style="fill:#000000;fill-opacity:1;fill-rule:nonzero;stroke:none"
             id="path4146"
             inkscape:connector-curvature="0" /></g><g
           id="g4148"
           transform="translate(478.7856,66.2681)"><path
             d="M 0,0 H 0.929 C 1.222,0 1.471,0.028 1.677,0.084 1.882,0.14 2.047,0.221 2.172,0.328 2.298,0.435 2.389,0.565 2.444,0.72 2.5,0.875 2.528,1.053 2.528,1.256 2.528,1.453 2.503,1.626 2.452,1.776 2.401,1.925 2.319,2.048 2.204,2.144 2.09,2.24 1.938,2.312 1.752,2.36 1.564,2.408 1.334,2.432 1.057,2.432 H 0 Z m 0,-0.912 v -2.832 h -1.248 v 7.136 h 2.305 c 0.917,0 1.596,-0.167 2.04,-0.5 C 3.539,2.559 3.761,2.067 3.761,1.416 3.761,0.915 3.617,0.488 3.332,0.136 3.047,-0.216 2.621,-0.458 2.057,-0.592 l 0.235,-0.2 c 0.067,-0.08 0.13,-0.173 0.188,-0.28 L 4.305,-3.744 H 3.12 c -0.176,0 -0.307,0.067 -0.391,0.2 l -1.609,2.416 -0.172,0.16 c -0.066,0.037 -0.169,0.056 -0.307,0.056 z m -3.888,0.72 c 0,-0.475 0.059,-0.931 0.176,-1.368 0.117,-0.437 0.285,-0.847 0.504,-1.228 0.219,-0.381 0.479,-0.727 0.784,-1.036 0.304,-0.309 0.643,-0.574 1.017,-0.796 0.373,-0.221 0.775,-0.392 1.208,-0.512 0.431,-0.12 0.882,-0.18 1.351,-0.18 0.703,0 1.365,0.133 1.98,0.4 0.616,0.266 1.152,0.631 1.608,1.092 0.456,0.461 0.817,1.003 1.08,1.624 0.264,0.621 0.397,1.289 0.397,2.004 0,0.475 -0.061,0.933 -0.181,1.376 C 5.916,1.626 5.747,2.039 5.528,2.42 5.31,2.801 5.047,3.149 4.74,3.464 4.434,3.779 4.094,4.047 3.721,4.268 3.347,4.489 2.943,4.661 2.509,4.784 2.073,4.907 1.621,4.968 1.152,4.968 0.448,4.968 -0.21,4.833 -0.823,4.564 -1.438,4.295 -1.971,3.927 -2.424,3.46 -2.877,2.993 -3.234,2.447 -3.496,1.82 -3.757,1.193 -3.888,0.522 -3.888,-0.192 m -0.8,0 c 0,0.539 0.07,1.057 0.209,1.556 0.138,0.499 0.333,0.965 0.587,1.4 0.253,0.435 0.559,0.829 0.916,1.184 0.358,0.355 0.752,0.66 1.184,0.916 0.433,0.256 0.896,0.453 1.393,0.592 0.496,0.139 1.012,0.208 1.551,0.208 0.539,0 1.058,-0.069 1.556,-0.208 C 3.207,5.317 3.672,5.12 4.104,4.864 4.536,4.608 4.931,4.303 5.288,3.948 5.646,3.593 5.951,3.199 6.204,2.764 6.458,2.329 6.653,1.863 6.792,1.364 6.931,0.865 7,0.347 7,-0.192 7,-0.725 6.931,-1.241 6.792,-1.74 6.653,-2.239 6.458,-2.704 6.204,-3.136 5.951,-3.568 5.646,-3.961 5.288,-4.316 4.931,-4.671 4.536,-4.976 4.104,-5.232 3.672,-5.488 3.207,-5.685 2.708,-5.824 2.21,-5.962 1.691,-6.032 1.152,-6.032 c -0.539,0 -1.055,0.07 -1.551,0.208 -0.497,0.139 -0.96,0.336 -1.393,0.592 -0.432,0.256 -0.826,0.561 -1.184,0.916 -0.357,0.355 -0.663,0.748 -0.916,1.18 -0.254,0.432 -0.449,0.896 -0.587,1.392 -0.139,0.496 -0.209,1.014 -0.209,1.552"
             style="fill:#231f20;fill-opacity:1;fill-rule:nonzero;stroke:none"
             id="path4150"
             inkscape:connector-curvature="0" /></g></g></g></g></svg>