<svg xmlns="http://www.w3.org/2000/svg" viewBox="0 0 641.82 121.25"><title>simplesite_logo_lightdark</title><g id="Layer_2" data-name="Layer 2"><g id="wix"><path id="simplesite_logo_lightdark" d="M1.38,89.23Q.86,79.27,0,73q12.86,5.85,23.36,5.84a23.57,23.57,0,0,0,7.84-1.28,11,11,0,0,0,5.38-3.61,8.49,8.49,0,0,0,1.74-5.21,9.28,9.28,0,0,0-.84-4,18.69,18.69,0,0,0-4.18-5Q29.55,56,19.92,47.77q-4.59-4-6.34-5.71a47.53,47.53,0,0,1-6-6.73,21.2,21.2,0,0,1-3-5.93,20.87,20.87,0,0,1-.92-6.3A21.28,21.28,0,0,1,7.05,11.51a22.77,22.77,0,0,1,10.3-8.46q6.86-3,17.29-3A111.3,111.3,0,0,1,55.77,2.3q.33,6.83,1.31,15.61A52.84,52.84,0,0,0,38.22,14,17.65,17.65,0,0,0,27.71,16.9c-2.73,1.94-4.09,4.21-4.09,6.79a8.57,8.57,0,0,0,.29,2.19,10,10,0,0,0,.85,2.24,17.77,17.77,0,0,0,2,2.82A35,35,0,0,0,31.08,35c1.87,1.55,3.48,2.81,4.81,3.77L44,46.13c2,1.7,3.88,3.37,5.5,5a52.14,52.14,0,0,1,4.16,4.66A24.18,24.18,0,0,1,56.36,60a19.5,19.5,0,0,1,1.48,4.16,19.83,19.83,0,0,1,.49,4.5,22.08,22.08,0,0,1-2.56,10.4,21.34,21.34,0,0,1-7.35,8,30.43,30.43,0,0,1-10.5,4.37,57.85,57.85,0,0,1-12.07,1.21A77.35,77.35,0,0,1,16.08,92Q10.5,91.27,1.38,89.23Zm70,1.91q1-9.84,1.4-16.47.66-10.5,1.16-24.21t.7-26q6.39.14,9.59.13,2.94,0,9.52-.13-.89,11.42-1.43,21.78t-.79,23.75q-.26,13.4-.25,21.2c-4-.09-7.18-.13-9.59-.13S76,91.05,71.39,91.14ZM75,13c.18-4.5.26-8,.26-10.37V.53c4,.08,7.22.13,9.71.13,3.42,0,6.59-.05,9.52-.13-.13,1.09-.22,2.34-.26,3.74L93.88,13c-3.33-.08-6.39-.13-9.19-.13S78.66,12.91,75,13Zm32.36,78.15q.91-11.16,1.94-33.33t1-33.4q5.57.14,9,.13,4,0,8.66-.13L127.51,35a47.46,47.46,0,0,1,3.83-5,19.18,19.18,0,0,1,4.49-3.57,24.57,24.57,0,0,1,6.47-2.6,30.75,30.75,0,0,1,7.64-1,28.7,28.7,0,0,1,5.7.56,23.44,23.44,0,0,1,5,1.58,17.1,17.1,0,0,1,3.87,2.32,14.37,14.37,0,0,1,2.72,2.92A26.26,26.26,0,0,1,169.68,35a44.81,44.81,0,0,1,2.66-3.84A21,21,0,0,1,175.59,28a20.36,20.36,0,0,1,4.52-2.75,25.65,25.65,0,0,1,5.61-1.74,32.54,32.54,0,0,1,6.46-.63,30.89,30.89,0,0,1,10.76,1.87,16.53,16.53,0,0,1,7.94,5.91,16.79,16.79,0,0,1,2.89,10c0,2.1-.16,5.19-.46,9.26s-.67,10.7-1.1,19.91-.67,16.33-.71,21.36Q206.7,91,203,91c-2.89,0-6.29,0-10.18.13q.58-8.48,1.12-17.72l.79-15c.22-3.81.33-7,.33-9.65,0-3.12-.5-5.49-1.48-7.09a8.46,8.46,0,0,0-3.74-3.43,12.28,12.28,0,0,0-5.09-1,12.59,12.59,0,0,0-5.35,1.12A13.06,13.06,0,0,0,175,42a18.17,18.17,0,0,0-3.19,5.83,42.66,42.66,0,0,0-1.63,9.34c-.34,4-.63,9.26-.84,15.78l-.45,18.24q-5.46-.14-9.07-.13t-9.66.13q.47-5.06,1.31-20.67t.85-21.06a21.94,21.94,0,0,0-.46-4.89A9.75,9.75,0,0,0,150,40.71a8.71,8.71,0,0,0-3.31-2.65,10.61,10.61,0,0,0-4.39-.86,12,12,0,0,0-8.07,3,17.32,17.32,0,0,0-5.08,8.07q-1.6,5.06-2.32,19.65t-.72,23.2c-4-.09-7-.13-9.1-.13Q113.5,91,107.34,91.14Zm118.3,30.11q1.65-18.3,3-47.43t1.32-47.31q12.47-2.24,19.29-3a126.5,126.5,0,0,1,13.58-.73A59.17,59.17,0,0,1,279,24.93a24.45,24.45,0,0,1,11.81,7,31.6,31.6,0,0,1,6.56,11.42A43.31,43.31,0,0,1,299.52,57a46.57,46.57,0,0,1-2,13.78,35.88,35.88,0,0,1-6.23,11.91,25.2,25.2,0,0,1-9.74,7.68,30.23,30.23,0,0,1-12.09,2.39,32.26,32.26,0,0,1-7.64-.92,28.18,28.18,0,0,1-6.62-2.43,25.92,25.92,0,0,1-4.69-3,51.51,51.51,0,0,1-4.66-4.62l-1,28.54-.06,4.46q-.07.86-.07,6.56-6-.06-9.33-.06ZM248,38.58c-.31,2.36-.54,4.4-.67,6.1L247,52q-.25,4.71-.26,6.93a34.72,34.72,0,0,0,.82,7.66,16.67,16.67,0,0,0,16.15,13,15.59,15.59,0,0,0,9.1-2.85,18.09,18.09,0,0,0,6.35-8.35,30.89,30.89,0,0,0,2.24-11.73A24.94,24.94,0,0,0,278.88,45a15.59,15.59,0,0,0-6.6-6.91A20.08,20.08,0,0,0,262.87,36,48,48,0,0,0,248,38.58Zm62.85,52.56q1-11.1,2.39-39.86T315,1.57q6.83.13,9.72.14,3.87,0,9.46-.14l-1.57,24-2.29,53.41-.26,12.21q-5.39-.14-9.13-.13Q319.67,91,310.87,91.14ZM406,76.24q-.86,3.87-2.43,13.91a120.79,120.79,0,0,1-11.94,2,90.67,90.67,0,0,1-9.77.52A63.75,63.75,0,0,1,366.48,91a27.91,27.91,0,0,1-11.91-6.26A27.26,27.26,0,0,1,347,73.57a40,40,0,0,1-2.43-13.9A44.45,44.45,0,0,1,347.42,44a32.21,32.21,0,0,1,7.91-12.39,29.22,29.22,0,0,1,11.58-6.82,46,46,0,0,1,13.58-2,47.72,47.72,0,0,1,12.73,1.67A24.16,24.16,0,0,1,403.35,30a25.38,25.38,0,0,1,6.3,9.14A30.85,30.85,0,0,1,411.85,51a32.93,32.93,0,0,1-.65,6.36l-48.1.06C363,59,363,60.32,363,61.28a21,21,0,0,0,1.51,8.07,16.6,16.6,0,0,0,4.4,6.24,18.26,18.26,0,0,0,6.88,3.77,27.06,27.06,0,0,0,7.88,1.21,53.39,53.39,0,0,0,9.81-1A102.44,102.44,0,0,0,406,76.24ZM363.63,49.73l30.7.07a40,40,0,0,0-.19-4.64,16.92,16.92,0,0,0-.89-3.43,11.65,11.65,0,0,0-1.87-3.4,11.1,11.1,0,0,0-2.76-2.45,12.75,12.75,0,0,0-3.64-1.5,17.88,17.88,0,0,0-4.43-.52,16.91,16.91,0,0,0-5.34.85,16,16,0,0,0-4.76,2.48,15.14,15.14,0,0,0-3.51,3.66,17.36,17.36,0,0,0-2,3.89A38.83,38.83,0,0,0,363.63,49.73Zm57,39.5q-.52-10-1.37-16.27,12.86,5.85,23.35,5.84a23.53,23.53,0,0,0,7.84-1.28,10.92,10.92,0,0,0,5.38-3.61,8.49,8.49,0,0,0,1.74-5.21,9.43,9.43,0,0,0-.83-4,18.69,18.69,0,0,0-4.18-5q-3.75-3.6-13.39-11.87-4.59-4-6.33-5.71a47.06,47.06,0,0,1-6-6.73,21.75,21.75,0,0,1-3-5.93,21.47,21.47,0,0,1,2.53-17.89,22.77,22.77,0,0,1,10.3-8.46q6.86-3,17.29-3A111.38,111.38,0,0,1,475,2.3q.31,6.83,1.31,15.61A52.88,52.88,0,0,0,457.49,14,17.65,17.65,0,0,0,447,16.9c-2.73,1.94-4.09,4.21-4.09,6.79a9,9,0,0,0,.28,2.19,10,10,0,0,0,.86,2.24,17.77,17.77,0,0,0,2,2.82A34.78,34.78,0,0,0,450.34,35q2.82,2.33,4.82,3.77l8.09,7.35c2.05,1.7,3.89,3.37,5.5,5a49.19,49.19,0,0,1,4.16,4.66A23.7,23.7,0,0,1,475.63,60a18.93,18.93,0,0,1,1.47,4.16,19.83,19.83,0,0,1,.5,4.5A22.19,22.19,0,0,1,475,79.1a21.34,21.34,0,0,1-7.35,8,30.52,30.52,0,0,1-10.5,4.37,57.92,57.92,0,0,1-12.07,1.21,77.63,77.63,0,0,1-9.78-.72Q429.76,91.27,420.64,89.23Zm70,1.91q1-9.84,1.4-16.47.68-10.5,1.17-24.21t.7-26q6.39.14,9.59.13c1.95,0,5.13,0,9.52-.13q-.88,11.42-1.43,21.78t-.79,23.75q-.26,13.4-.25,21.2-6-.14-9.59-.13Q497.55,91,490.65,91.14ZM494.25,13q.25-6.75.26-10.37V.53c4,.08,7.22.13,9.71.13,3.41,0,6.58-.05,9.51-.13-.13,1.09-.21,2.34-.26,3.74L513.14,13c-3.32-.08-6.38-.13-9.18-.13S497.92,12.91,494.25,13Zm73.17,64.43q-.79,3.61-2.49,13.39a79.53,79.53,0,0,1-8.66,1.57,56.9,56.9,0,0,1-5.91.33,37.56,37.56,0,0,1-8.69-.92,13.73,13.73,0,0,1-6.33-3.24A11.72,11.72,0,0,1,532,83.1a23.54,23.54,0,0,1-.89-6.46c0-.57,0-1.34.07-2.3s.21-4.07.52-9.32l1.5-27.29h-9.44q.33-3.94.59-12.66h9.88q.39-3.81.79-12.93l7.75-1.51c1.62-.31,4.76-1,9.4-2.17q-.46,8.86-.54,16.61h16.68q-.45,8.85-.46,12.66H551.08q-1.38,26.7-1.38,30.9a17.71,17.71,0,0,0,.89,6.3,5.86,5.86,0,0,0,2.85,3.22,9.33,9.33,0,0,0,4.2,1,24.76,24.76,0,0,0,3.45-.26Q562.89,78.6,567.42,77.42ZM636,76.24q-.86,3.87-2.43,13.91-7.09,1.51-11.94,2a91,91,0,0,1-9.78.52A63.75,63.75,0,0,1,596.45,91a27.94,27.94,0,0,1-11.9-6.26A27.28,27.28,0,0,1,577,73.57a40,40,0,0,1-2.43-13.9A44.45,44.45,0,0,1,577.39,44a32.21,32.21,0,0,1,7.91-12.39,29.22,29.22,0,0,1,11.58-6.82,46,46,0,0,1,13.58-2,47.66,47.66,0,0,1,12.73,1.67A24.2,24.2,0,0,1,633.33,30a25.63,25.63,0,0,1,6.3,9.14A31,31,0,0,1,641.82,51a32.16,32.16,0,0,1-.65,6.36l-48.1.06c-.08,1.62-.13,2.91-.13,3.87a21.16,21.16,0,0,0,1.51,8.07,16.71,16.71,0,0,0,4.4,6.24,18.23,18.23,0,0,0,6.89,3.77,27,27,0,0,0,7.87,1.21,53.39,53.39,0,0,0,9.81-1A103,103,0,0,0,636,76.24ZM593.6,49.73l30.71.07a39.45,39.45,0,0,0-.2-4.64,16.92,16.92,0,0,0-.89-3.43,11.65,11.65,0,0,0-1.87-3.4,10.88,10.88,0,0,0-2.75-2.45,13,13,0,0,0-3.64-1.5,18,18,0,0,0-4.43-.52,17,17,0,0,0-5.35.85,16.13,16.13,0,0,0-4.76,2.48,15.14,15.14,0,0,0-3.51,3.66,18.24,18.24,0,0,0-2,3.89A40.56,40.56,0,0,0,593.6,49.73Z" style="fill:#b61f2e"/></g></g></svg>