<svg xmlns="http://www.w3.org/2000/svg" xmlns:xlink="http://www.w3.org/1999/xlink" width="235.806" height="51.943" viewBox="0 0 235.806 51.943">
  <defs>
    <clipPath id="clip-path">
      <rect id="Rectangle_533" data-name="Rectangle 533" width="235.806" height="51.943" fill="none"/>
    </clipPath>
  </defs>
  <g id="color_logo" data-name="color logo" transform="translate(0 0)">
    <g id="Group_536" data-name="Group 536" transform="translate(0 0)" clip-path="url(#clip-path)">
      <path id="Path_857" data-name="Path 857" d="M25.973,0A25.969,25.969,0,0,0,0,25.973c0,.1.007.193.007.292.066.222.126.455.183.687,1.411,6.233,7.993,11.29,16,12.3a22.37,22.37,0,0,0,8.371-.5A12.847,12.847,0,1,1,37.29,32.083c-2.842,5.874-10.373,9.483-18.21,9.483a24.725,24.725,0,0,1-3.155-.2,22.647,22.647,0,0,1-14.81-7.853A25.973,25.973,0,1,0,25.973,0" transform="translate(0 -0.001)" fill="#ffb259"/>
      <path id="Path_858" data-name="Path 858" d="M24.226.752A23.485,23.485,0,0,0,1.882,31.431a20.928,20.928,0,0,0,12.562,6.077,22.439,22.439,0,0,0,8.371-.5,12.851,12.851,0,1,1,12.728-6.671c-2.842,5.874-10.373,9.484-18.21,9.484a24.717,24.717,0,0,1-3.155-.2A24.091,24.091,0,0,1,3.811,35.807,23.472,23.472,0,1,0,24.226.752" transform="translate(1.747 1.744)" fill="#ee3d24"/>
      <path id="Path_859" data-name="Path 859" d="M18.281,3.989V5.842h7.325V28.7h2.255V5.842h7.325V3.989Z" transform="translate(42.422 9.256)" fill="#ee3d24"/>
      <path id="Path_860" data-name="Path 860" d="M24.374,24.108V6.313h2.052V9.7h.07a5.772,5.772,0,0,1,5.134-3.732h.923V7.954h-.923c-2.258,0-5.2,2.67-5.2,6.093V24.108Z" transform="translate(56.561 13.848)" fill="#ee3d24"/>
      <path id="Path_861" data-name="Path 861" d="M42.085,6.072V23.867H40.033V21.058c-1.919,1.986-3.49,3.151-6.093,3.151-3.7,0-5.27-2.122-5.27-5.99V6.072h2.055V18.016c0,2.939.89,4.546,3.626,4.546,2.192,0,3.423-1.332,5.681-3.384V6.072Z" transform="translate(66.53 14.089)" fill="#ee3d24"/>
      <path id="Path_862" data-name="Path 862" d="M47.139,13.633c-.412-3.663-2.019-5.987-5.134-6.023-3.626-.03-5.167,3.663-5.2,6.023ZM36.805,15.277c0,4.034,1.674,7.524,5.711,7.524,2.294,0,3.423-.784,5.2-3.59l1.677.89c-1.916,3.148-3.659,4.347-7.05,4.347-4.652,0-7.6-2.979-7.6-9.241,0-5.509,2.806-9.238,7.325-9.238,4.825,0,7.116,3.8,7.116,9.308Z" transform="translate(80.639 13.85)" fill="#ee3d24"/>
      <path id="Path_863" data-name="Path 863" d="M43.643,26.848h4.792c5.479,0,8.421-3.829,8.421-10.5S53.913,5.839,48.434,5.839H43.643ZM41.388,3.989h6.98c7.664,0,10.742,5.751,10.742,12.356S56.032,28.7,48.368,28.7h-6.98Z" transform="translate(96.043 9.256)" fill="#54565a"/>
      <path id="Path_864" data-name="Path 864" d="M50.735,28.7H48.683V10.906h2.052ZM48.683,3.989h2.052V7H48.683Z" transform="translate(112.971 9.256)" fill="#54565a"/>
      <path id="Path_865" data-name="Path 865" d="M62.518,14.047c-8.142,1.776-9.238,3.457-9.238,5.715A2.909,2.909,0,0,0,56.465,22.8a9.182,9.182,0,0,0,6.053-2.942Zm.345,10.061-.276-2.158a9.3,9.3,0,0,1-6.465,2.5c-2.773,0-4.895-1.707-4.895-4.652,0-4.858,3.968-5.748,11.4-7.392V11.171c0-2.361-1.026-3.56-4.071-3.56a6.074,6.074,0,0,0-5.17,3.218l-1.368-.82a6.929,6.929,0,0,1,6.6-4.041c4.038,0,5.954,1.644,5.954,5.582v9.308a19.38,19.38,0,0,0,.276,3.251Z" transform="translate(118.877 13.848)" fill="#54565a"/>
      <rect id="Rectangle_532" data-name="Rectangle 532" width="2.052" height="24.708" transform="translate(191.835 13.246)" fill="#54565a"/>
      <path id="Path_866" data-name="Path 866" d="M62.473,15.209c0,4.825,1.61,7.594,5.27,7.594s5.27-2.769,5.27-7.594-1.607-7.6-5.27-7.6-5.27,2.773-5.27,7.6m12.592,0c0,4.825-1.78,9.238-7.322,9.238s-7.322-4.413-7.322-9.238S62.2,5.968,67.743,5.968s7.322,4.416,7.322,9.241" transform="translate(140.21 13.848)" fill="#54565a"/>
      <path id="Path_867" data-name="Path 867" d="M74.164,29a12.54,12.54,0,0,1-2.085-.159,6.375,6.375,0,0,1-1.3,1.468,6.366,6.366,0,0,1-1.667.737,12.659,12.659,0,0,0,.93-2.882,2.37,2.37,0,0,1-1.288-2.105c0-1.541,1.235-3.012,5.27-3.012,5.336,0,6.5,1.438,6.5,2.909C80.527,27.8,78.614,29,74.164,29M69.612,12.4a4.261,4.261,0,0,1,4.619-4.552c2.876,0,4.622,1.441,4.622,4.552,0,3.078-1.747,4.453-4.622,4.453-2.5,0-4.619-1.375-4.619-4.453m5.406,8.8c-4.825,0-5.509-.511-5.509-1.541,0-.651.515-1.3,1.64-1.71a8.254,8.254,0,0,0,2.876.548c3.766,0,6.877-1.85,6.877-6.229a5.4,5.4,0,0,0-1.265-3.732,4.063,4.063,0,0,1,2.842-.817V5.865a5.2,5.2,0,0,0-3.732,1.574,7.14,7.14,0,0,0-4.141-1.232c-4.31,0-7.046,2.5-7.046,6.4a5.646,5.646,0,0,0,2.563,4.655,3.347,3.347,0,0,0-2.666,3.008c0,1.508,1.059,2.055,2.361,2.324v.073c-2.5.926-3.115,2.221-3.115,3.762a3.284,3.284,0,0,0,1.219,2.623,3.2,3.2,0,0,1-.183.787,4.021,4.021,0,0,1-.252.508c-.13.222-.266.442-.412.671l-1.046,1.7,1.674.159c.08.01.133.013.186.017h.083c1.78,0,3.951-1.335,5.08-2.3.445.03.913.053,1.421.053,6.123,0,8.109-2.228,8.109-4.828,0-2.909-2.225-4.619-7.564-4.619" transform="translate(153.224 13.609)" fill="#54565a"/>
    </g>
  </g>
</svg>
