<?xml version="1.0" encoding="UTF-8"?>
<svg xmlns="http://www.w3.org/2000/svg" viewBox="0 0 487.98 453.44">
  <defs>
    <style>
      .cls-1 {
        fill: #b25826;
      }

      .cls-2 {
        fill: #d39163;
      }

      .cls-3 {
        fill: #8a9191;
      }

      .cls-4 {
        fill: #ffb81f;
      }

      .cls-5 {
        fill: #e8efef;
      }

      .cls-6 {
        fill: #f9891a;
      }

      .cls-7, .cls-8 {
        fill: #1c5454;
      }

      .cls-7, .cls-9 {
        fill-rule: evenodd;
      }

      .cls-10, .cls-11 {
        fill: #fff;
      }

      .cls-10, .cls-12 {
        opacity: .44;
      }

      .cls-13 {
        fill: #b8cacc;
      }

      .cls-14, .cls-9 {
        fill: #008083;
      }

      .cls-15 {
        fill: #302a21;
      }

      .cls-16 {
        fill: #bcbcbc;
      }

      .cls-17 {
        fill: #c6d5d7;
      }

      .cls-18 {
        fill: #e3f1f2;
      }

      .cls-19 {
        fill: #e9feff;
      }

      .cls-20 {
        fill: #9e7457;
      }

      .cls-21 {
        fill: #eaeded;
      }

      .cls-22 {
        fill: #206063;
      }

      .cls-23 {
        fill: #ddf0f2;
      }

      .cls-24 {
        fill: #e2730e;
      }

      .cls-25 {
        fill: #bc8057;
      }
    </style>
  </defs>
  <g id="Floor">
    <path class="cls-21" d="M487.98,389.55H0s6.16,35.33,41.93,47c17.53,5.72,27.36,13.82,57.25,16.44,26.45,2.31,101.8-4.84,112.22-9.9,16.43-7.97,12.87-25.37,12.34-35.19-.85-15.57,23-11.07,28.86.55.04.08.08.17.12.25,4.12,8.43,8.5,17.37,16.72,17.6,19.76.54,30.06,3.07,33.81-5.77,12.43-29.32,83.14-11.52,96.23-10.66s69.59,1.59,73.79-2.6,14.71-17.71,14.71-17.71Z"/>
  </g>
  <g id="Device_1" data-name="Device 1">
    <path class="cls-22" d="M63.07,0h313.93c5.77,0,10.46,4.69,10.46,10.46v206.89H52.61V10.46c0-5.77,4.69-10.46,10.46-10.46Z"/>
    <rect class="cls-18" x="66.3" y="14.77" width="307.39" height="181.81"/>
    <polygon class="cls-11" points="66.3 123.74 175.28 14.77 142.75 14.77 66.3 91.22 66.3 123.74"/>
    <polygon class="cls-11" points="207.88 196.58 373.69 30.77 373.69 14.77 357.16 14.77 175.35 196.58 207.88 196.58"/>
    <path class="cls-8" d="M25.54,224.94s3.78,4.62,15.12,8.4h360.3s8.4-2.1,12.18-7.98l-387.59-.42Z"/>
    <rect class="cls-14" x="24.77" y="216.66" width="389.18" height="8.83" rx="1.89" ry="1.89"/>
    <path class="cls-16" d="M222.9,6.57c0-1.62-1.32-2.94-2.94-2.94s-2.94,1.32-2.94,2.94,1.32,2.94,2.94,2.94,2.94-1.32,2.94-2.94Z"/>
    <path class="cls-22" d="M55.77,61.16h0c-.46,0-.84-.38-.84-.84v-24.36c0-.46.38-.84.84-.84h0c.46,0,.84.38.84.84v24.36c0,.46-.38.84-.84.84Z"/>
  </g>
  <g id="Icon_1" data-name="Icon 1">
    <g id="wNEA6r">
      <g>
        <path class="cls-14" d="M235.52,120.9c-7.72,0-15.44,0-23.17,0-4.17,0-6.87-2.57-7.24-6.71-.78-8.66-1.63-17.32-2.43-25.98-.57-6.21-1.11-12.43-1.67-18.65-.38-4.18-.74-8.36-1.19-12.53-.06-.53-.44-1.12-.85-1.49-5.78-5.3-7.11-13.12-3.35-19.94,5.11-9.28,18.66-10.71,25.56-2.7,7.59,8.81,4.25,21.63-6.7,25.68-.61.22-.84.5-.78,1.14.53,5.53,1.05,11.06,1.53,16.6.09.99.72.88,1.36.88,7.27,0,14.54,0,21.8,0,4.66,0,9.31-.02,13.97.01,2.95.02,5.62,2.03,6.43,4.73.87,2.91-.2,5.99-2.68,7.7-1.26.87-2.68,1.15-4.2,1.14-11.05-.01-22.11,0-33.16,0-2.39,0-2.2-.14-1.98,2.12.43,4.4.86,8.81,1.18,13.22.11,1.46,1.04,1.22,1.9,1.22,12.07,0,24.15,0,36.22,0,2.84,0,5.68,0,8.52,0,3.25.02,5.44,1.48,6.65,4.52,4.99,12.58,9.98,25.16,14.93,37.76.35.89.76,1.11,1.68.89,3.2-.76,6.41-1.47,9.62-2.15,5.4-1.16,9.76,3.45,8.16,8.67-.75,2.43-2.49,3.96-4.95,4.53-5.67,1.31-11.35,2.58-17.05,3.77-3.09.65-6.24-1.12-7.43-4.1-3.94-9.86-7.84-19.74-11.75-29.62-1.27-3.2-2.55-6.39-3.77-9.61-.32-.83-.75-1.13-1.66-1.13-7.84.04-15.67.02-23.51.02h0Z"/>
        <path class="cls-14" d="M258.4,140.02c1.42,3.84,2.79,7.56,4.17,11.28.55,1.49,1.11,2.98,1.7,4.45.28.7.2,1.25-.27,1.86-8.59,11.06-19.71,18.03-33.56,20.23-14,2.22-26.98-.77-38.51-9.05-12.08-8.67-19.3-20.48-21.46-35.22-1.47-10-.05-19.66,4.17-28.89,4.15-9.08,10.39-16.33,18.65-21.9.15-.1.32-.19.63-.38.14,1.25.29,2.39.39,3.53.33,3.65.61,7.31.97,10.96.1,1.06-.16,1.82-.92,2.61-6.94,7.26-10.82,15.95-10.78,25.97.05,16.2,7.35,28.45,21.98,35.53,13.85,6.71,27.36,5.09,39.85-3.88,5.68-4.08,9.76-9.55,12.48-16,.1-.24.2-.49.31-.73.03-.07.08-.13.22-.36Z"/>
      </g>
    </g>
  </g>
  <g id="Device_2" data-name="Device 2">
    <g>
      <path class="cls-22" d="M262,189.64h176.51c5.77,0,10.46,4.69,10.46,10.46v118.06c0,5.7-4.63,10.33-10.33,10.33h-176.76c-5.7,0-10.33-4.63-10.33-10.33v-118.06c0-5.77,4.69-10.46,10.46-10.46Z" transform="translate(91.2 609.32) rotate(-90)"/>
      <rect class="cls-18" x="260.16" y="198.05" width="179.88" height="122.08" transform="translate(91.02 609.19) rotate(-90)"/>
      <g>
        <polygon class="cls-10" points="346.11 349.03 411.15 283.99 411.15 263 325.11 349.03 346.11 349.03"/>
        <polygon class="cls-10" points="289.07 236.49 289.07 257.49 377.41 169.14 356.42 169.14 289.07 236.49"/>
      </g>
      <path class="cls-16" d="M350.93,164.13c-1.04,0-1.88.84-1.88,1.88s.84,1.88,1.88,1.88,1.88-.84,1.88-1.88-.84-1.88-1.88-1.88Z"/>
    </g>
  </g>
  <g id="Device_3" data-name="Device 3">
    <g>
      <rect class="cls-22" x="400.75" y="269.43" width="71.75" height="134.42" rx="7.69" ry="7.69"/>
      <rect class="cls-18" x="404.79" y="276.99" width="63.68" height="119.3"/>
      <g class="cls-12">
        <polygon class="cls-11" points="468.47 389.38 468.47 368.38 440.56 396.29 461.56 396.29 468.47 389.38"/>
        <polygon class="cls-11" points="404.79 300.7 404.79 321.69 449.49 276.99 428.5 276.99 404.79 300.7"/>
      </g>
      <rect class="cls-14" x="471.64" y="311.14" width="1.64" height="8.9"/>
      <rect class="cls-14" x="399.49" y="301.06" width="1.64" height="8.9"/>
      <rect class="cls-14" x="399.49" y="311.37" width="1.64" height="8.9"/>
    </g>
    <g>
      <path class="cls-14" d="M461.58,331.45c-.3-.31-5.13-5.22-12.31-8.52l-1.98,2.02c5.43,2.33,9.63,5.78,11.44,7.41-2.35,2.12-8.75,7.32-16.67,9.14,3.11-1.85,5.2-5.25,5.2-9.14,0-2.09-.61-4.05-1.65-5.69l-14.49,14.77s.06.04.1.05c-.04,0-.08-.02-.12-.03l-2.13,2.17c2.41.69,4.99,1.12,7.67,1.12,13.66,0,24.5-11.02,24.95-11.48.49-.51.49-1.32,0-1.83Z"/>
      <path class="cls-14" d="M453.29,313.65c-.52-.51-1.35-.5-1.86.02l-7.24,7.38c-2.38-.67-4.92-1.09-7.56-1.09-13.66,0-24.5,11.02-24.95,11.48-.49.51-.49,1.32,0,1.83.3.31,5.09,5.17,12.21,8.47l-6.17,6.29c-.51.52-.5,1.35.02,1.86.26.25.59.38.92.38s.68-.13.94-.39l33.72-34.37c.51-.52.5-1.35-.02-1.86ZM414.53,332.37c2.35-2.12,8.75-7.32,16.67-9.14-3.11,1.85-5.2,5.25-5.2,9.14,0,2.06.59,3.97,1.6,5.6l-1.73,1.77c-5.39-2.33-9.54-5.75-11.34-7.37Z"/>
    </g>
  </g>
  <g id="Character">
    <g>
      <path class="cls-3" d="M179.28,340.15c-1.66,0-3.04-1.3-3.12-2.97-.09-1.73,1.24-3.19,2.97-3.28l16.8-.84,8.9-90.86h-9.46c-1.73,0-3.13-1.4-3.13-3.13s1.4-3.13,3.13-3.13h12.91c.88,0,1.72.37,2.32,1.03.59.65.88,1.53.8,2.41l-9.5,96.98c-.15,1.54-1.41,2.74-2.96,2.82l-19.49.98c-.05,0-.11,0-.16,0Z"/>
      <path class="cls-22" d="M59.28,239.4l2.48,50.79,74.73,4.95-4.95-66.06-85.68,1.96c-2.18.06-3.92,1.84-3.92,4.02s1.74,3.97,3.93,4.02l13.42.32Z"/>
      <path class="cls-3" d="M186.28,350.74c0-17.57-3.7-33.03-9.31-42.02-4.77-12.86-11.81-21.01-19.67-21.01-14.37,0-26.03,27.22-26.03,60.81s11.65,60.81,26.03,60.81c5.51,0,10.61-4.01,14.82-10.82,8.23-6.63,14.16-25.5,14.16-47.75ZM167.66,305.96c4.78,9.59,7.89,25.07,7.89,42.55,0,21.21-4.58,39.49-11.17,47.84-8.98-.23-16.23-20.56-16.23-45.61s7.33-45.62,16.38-45.62c1.07,0,2.12.3,3.13.84ZM156.31,401.21c-10.63,0-19.24-23.6-19.24-52.7s8.61-52.7,19.24-52.7c2.85,0,5.55,1.71,7.98,4.75-10.79,1.67-19.32,23.49-19.32,50.18,0,23.81,6.8,43.75,15.92,48.96-1.47.98-3,1.51-4.58,1.51Z"/>
      <path class="cls-16" d="M187.84,380.83c-1.13,0-2.07-.9-2.11-2.04-.01-.37-1.26-37.12-1.8-44.28-.36-4.87-2.68-5-2.92-4.98l-39.43,1.08c-1.16.04-2.15-.86-2.2-2.03-.05-1.17.86-2.15,2.03-2.2l39.41-1.08c.15-.02,2.28-.13,4.24,1.56,1.8,1.54,2.83,4.01,3.08,7.33.54,7.25,1.75,42.94,1.8,44.45.04,1.17-.87,2.14-2.04,2.18-.02,0-.05,0-.07,0Z"/>
      <path class="cls-25" d="M49.37,230.78s-10.31,24.69-11.25,27.81c-.94,3.12,5,2.66,8.12,2.97,3.12.31,7.03-3.75,7.03-3.75l9.84-18.28-13.75-8.75Z"/>
      <rect class="cls-16" x="37.81" y="351.9" width="121.68" height="2.1"/>
      <g>
        <path class="cls-17" d="M67.24,373.43c-.72,0-1.42-.37-1.82-1.03-.6-1-.27-2.3.73-2.9l89.56-53.35c1-.6,2.3-.27,2.9.73.6,1,.27,2.3-.73,2.9l-89.56,53.35c-.34.2-.71.3-1.08.3Z"/>
        <path class="cls-17" d="M174.58,377.99c-.32,0-.65-.07-.96-.23l-96.94-49.66c-1.04-.53-1.45-1.81-.92-2.85.53-1.04,1.81-1.45,2.84-.92l96.94,49.66c1.04.53,1.45,1.81.92,2.85-.37.73-1.11,1.15-1.88,1.15Z"/>
      </g>
      <rect class="cls-22" x="55.79" y="316.23" width="32.27" height="15.52"/>
      <polygon class="cls-22" points="140.32 329.68 75.48 329.68 75.48 314.07 164.82 314.07 140.32 329.68"/>
      <path class="cls-24" d="M133.73,278.59s2.55,5.33,3.06,7.88.51,3.57.51,3.57l.17,22.95s-61.89,1.19-64.44.85c-2.55-.34-5.95-5.1-4.25-16.32,1.7-11.22,4.8-15.34,4.8-15.34,0,0,27-11.64,60.15-3.59Z"/>
      <path class="cls-17" d="M170.73,279.49s1.73,8.32,4.97,11.45c3.24,3.13,4.75,3.67,4.75,3.67l-.32,4.86s-7.35-3.02-10.59-10.48c-2-4.61-3.13-9.18-3.13-9.18l4.32-.32Z"/>
      <path class="cls-3" d="M180.01,298.17s-5.78-4.18-7.98-8.24c-2.34-4.31-5.26-11.44-5.63-13.8-.39-2.53-21.45-1.11-21.34.73s.47,39.79.47,39.79l34.37-.98.11-17.5Z"/>
      <path class="cls-17" d="M156.71,270.18s-13.86,1.25-14.13,2.24c-.27.99-.36,3.87.18,3.87s6.3.18,6.66,0c.36-.18,11.61-1.16,11.61-1.16,0,0,1.71,5.04,2.34,5.4s7.47.27,8.64-.45,1.53-2.52,1.53-2.52l-3.15-7.74-8.55.09-5.13.27Z"/>
      <path class="cls-16" d="M180.11,319.28c-.87,0-1.57-.7-1.58-1.56,0-.27-.36-27.36-.45-29.38-.05-1.12-.35-1.61-.55-1.76-.72.02-2.91.5-4.66.97-.84.23-1.71-.27-1.94-1.12-.23-.85.27-1.72,1.12-1.94,5.14-1.38,6.06-1.08,6.4-.96.79.26,2.64,1.25,2.79,4.68.09,2.07.44,28.36.45,29.48.01.88-.69,1.59-1.56,1.61h-.02Z"/>
      <g>
        <path class="cls-15" d="M111.28,149.13s7.48,2.2,10.11,8.35c3.46,8.08-5.13,8.49-5.65,11.73-.51,3.24,3.41,12.45,3.58,17.05.17,4.6-2.16,5.62-.79,7.49,1.36,1.88,3.35,3.08,3.35,3.08,0,0-2.8,5.68-5.99,6.82-3.19,1.13-12.42-.34-18.39-.51-5.97-.17-5.96-1.28-8.01-1.19-4.09.17-4.91,1.56-9.65,3.02-7.5,2.31-11.9-6.7-11.9-6.7,0,0,7.51-6.73,6.4-15.28-1.45-11.21,0-19.35,3.96-25.72,3.42-5.51,12.55-8,19.89-9.02,7.33-1.02,13.09.88,13.09.88Z"/>
        <path class="cls-2" d="M165.89,207.22l-6.15,6.5-2.23,14.24-6.13,12.4-1.1-1.49-13.7,9.87s8.79,18.11,10.65,19.18c1.86,1.07,4.53,1.86,7.19,1.07s6.13-6.66,7.72-15.72c1.17-6.65,3.85-18.76,5.19-24.74l.66-2.15s.15-1.39,1.93-2.28,2.81-6.15,3.16-7.56c.35-1.41,1.58-7.03,1.58-7.03l-8.79-2.28Z"/>
        <path class="cls-4" d="M133.73,278.59s-12.66-2.81-24.06-1.87c-11.41.94-35,5.16-36.09,5.47s-.16,1.56.62-8.12c.78-9.69-3.44-20.78-4.84-25.15-1.41-4.37-3.49-7-3.49-7l-6.42,9.64-19.27-7.85s16.69-30.88,18.88-34.47c2.19-3.59,7.5-4.84,11.09-5.47,3.59-.62,7.81-1.56,7.81-1.56,0,0,6.3-5.4,8.44-6.17,4.03-1.47,19.06,1.8,19.06,1.8,0,0,.78-.94,2.03.47,1.25,1.41,2.97,4.06,2.97,4.06,0,0,7.19.65,10.53.65,1.31,0,6.44.68,8.94,3.65,2.5,2.97,22.32,31.51,22.32,31.51l-14.46,15.88-6.08-12.17s-3.27,9.03-3.96,24.02"/>
      </g>
      <g>
        <path class="cls-25" d="M86.95,183.48s.33,11.68-.45,14.58c0,0,1.56,3.56,3.56,5.23s9.27,16.8,10.39,15.91c1.11-.89,5.08-16.58,5.3-18.14.22-1.56.33-6.9.45-7.23.11-.33-6.45.67-10.9-2.34-4.45-3-8.34-8.01-8.34-8.01Z"/>
        <path class="cls-2" d="M115.06,160.93s1.41,6.06.52,11c-.73,4.09-1.34,4.7-1.39,6.21-.11,3.02,1.83,6.46-1.77,11.28-3.54,4.73-5.67,8.17-7.66,8.66-1.99.49-2.39.2-5.08-.65-2.69-.85-9.83-5.75-11.5-9.6-1.67-3.85-1.52-5.63-1.52-5.63,0,0-2.2-.33-3.17-1.37-.97-1.05-.51-5.59-.51-5.59l-.07-7.77s5.54-4.68,12.56-5.77c7.03-1.09,18.77-2.03,19.6-.78Z"/>
        <path class="cls-20" d="M109.25,171.56s-2.54,1.77-2.41,3.93l.13,2.16"/>
        <path class="cls-15" d="M111.04,174.9c-.13.88-.68,1.53-1.23,1.45-.55-.08-.88-.86-.75-1.74s.68-1.53,1.23-1.45c.55.08.88.86.75,1.74Z"/>
        <path class="cls-15" d="M100.14,174.06c-.13.88-.68,1.53-1.23,1.45-.55-.08-.88-.86-.75-1.74.13-.88.68-1.53,1.23-1.45.55.08.88.86.75,1.74Z"/>
        <path class="cls-15" d="M110.05,170.17s2.85-1.62,4.77,1.51"/>
        <path class="cls-15" d="M101.91,169.08s-3.46-1.4-6.1.45"/>
        <path class="cls-20" d="M107.52,181.86s-.56,1.49-2.94,1.59"/>
        <path class="cls-1" d="M98.13,186.09s1.55,2.24,4.78,1.31c2.36-.68,3.74.19,3.92.93s.39,2.21-2.24,2.24c-4.42.05-6.46-4.48-6.46-4.48Z"/>
      </g>
      <path class="cls-2" d="M43.43,254.56c-3.07.63-5.36,3.17-5.73,6.28-.45,3.75,0,7.49,1.36,9.16,2.03,2.5,4.74,2.2,9.68,1.49,7.58-1.08,39.69-.24,39.69-.24,0,0,2.79,1.86,2.81,1.87,3.49,2.33,7.56,3.69,11.09,5.94,1.72,1.09,2.03.94,3.59.47,1.56-.47,7.81-4.69,7.81-4.69,0,0,3.44.16,4.37-.94.94-1.09-.31-2.66-.31-2.66,0,0-8.91-7.19-10.78-7.5s-18.28-2.03-18.28-2.03c0,0-2.03-.62-9.53-1.09-5.4-.34-18.74-3.92-25.79-5.89-3.01-.85-6.18-.95-9.24-.32l-.74.15Z"/>
      <path class="cls-16" d="M202.96,414.31c-1.04,0-1.94-.77-2.09-1.82l-5.13-37.17c-1.17-8.2-4.44-30.22-5.5-33.47-.29-.89-.68-1.07-.81-1.13-.65-.3-1.65-.03-1.95.09-1.08.43-2.31-.08-2.75-1.15-.44-1.07.05-2.3,1.12-2.75.29-.12,2.87-1.16,5.32-.05,1.01.46,2.37,1.47,3.09,3.68,1.37,4.19,5.23,31.14,5.66,34.2l5.13,37.18c.16,1.16-.65,2.22-1.81,2.38-.1.01-.2.02-.29.02Z"/>
      <path class="cls-17" d="M69.14,279.49s1.73,8.32,4.97,11.45c3.24,3.13,4.75,3.67,4.75,3.67l-.32,4.86s-7.35-3.02-10.59-10.48c-2-4.61-3.13-9.18-3.13-9.18l4.32-.32Z"/>
      <path class="cls-22" d="M78.43,298.17s-5.78-4.18-7.98-8.24c-2.34-4.31-5.26-11.44-5.63-13.8-.39-2.53-9.76-.47-9.65,1.37s.47,39.79.47,39.79l22.68-.62.11-18.5Z"/>
      <path class="cls-17" d="M55.13,270.18s-8.46,1.89-8.73,2.88c-.27.99-.36,3.87.18,3.87s6.3.18,6.66,0c.36-.18,6.21-1.8,6.21-1.8,0,0,1.71,5.04,2.34,5.4.63.36,7.47.27,8.64-.45,1.17-.72,1.53-2.52,1.53-2.52l-3.42-8.78-8.37.21-5.04,1.18Z"/>
      <rect class="cls-16" x="87.72" y="369.27" width="2.71" height="7.08"/>
      <path class="cls-16" d="M92.21,380.83c-1.13,0-2.07-.9-2.11-2.04-.01-.37-1.26-37.12-1.8-44.28-.36-4.87-2.68-5-2.92-4.98l-27.29,1.08c-1.16.04-2.15-.86-2.2-2.03-.05-1.17.86-2.15,2.03-2.2l27.27-1.08c.15-.02,2.28-.13,4.24,1.56,1.8,1.54,2.83,4.01,3.08,7.33.54,7.25,1.75,42.94,1.8,44.45.04,1.17-.87,2.14-2.04,2.18-.02,0-.05,0-.07,0Z"/>
      <path class="cls-16" d="M107.32,414.31c-1.04,0-1.94-.77-2.09-1.82l-5.13-37.17c-1.17-8.2-4.44-30.22-5.5-33.47-.29-.89-.68-1.07-.81-1.13-.65-.3-1.65-.03-1.95.09-1.08.43-2.31-.08-2.75-1.15-.44-1.07.05-2.3,1.12-2.75.29-.12,2.87-1.16,5.32-.05,1.01.46,2.37,1.47,3.09,3.68,1.37,4.19,5.23,31.14,5.66,34.2l5.13,37.18c.16,1.16-.65,2.22-1.8,2.38-.1.01-.2.02-.29.02Z"/>
      <path class="cls-22" d="M99.17,370.11s31.23,3.96,53.92.42c22.69-3.54,44.96-6.24,44.96-6.24l3.33,22.27s-33.93,7.08-64.53,7.29c-30.6.21-34.35,0-34.35,0l-3.33-23.73Z"/>
      <path class="cls-16" d="M78.53,319.28c-.87,0-1.57-.7-1.58-1.56,0-.27-.36-27.36-.45-29.38-.05-1.12-.35-1.61-.55-1.76-.72.02-2.91.5-4.66.97-.84.23-1.71-.27-1.94-1.12-.23-.85.27-1.72,1.12-1.94,5.14-1.38,6.06-1.08,6.4-.96.79.26,2.64,1.25,2.79,4.68.09,2.07.44,28.36.45,29.48.01.88-.69,1.59-1.56,1.61h-.02Z"/>
      <rect class="cls-16" x="81.68" y="366.15" width="6.04" height="13.74"/>
      <g>
        <g>
          <path class="cls-3" d="M87.72,415.81c0,9.53-2.95,17.26-6.58,17.26s-6.58-7.73-6.58-17.26,2.95-17.26,6.58-17.26,6.58,7.73,6.58,17.26Z"/>
          <path class="cls-16" d="M82.65,415.81c0,5.79-1.62,10.48-3.62,10.48s-3.62-4.69-3.62-10.48,1.62-10.48,3.62-10.48,3.62,4.69,3.62,10.48Z"/>
        </g>
        <g>
          <path class="cls-16" d="M81.68,379.89s-3.4-.34-3.27.78c.12,1.12-4.1,38.5-4.1,38.5l1.86-.12,5.96-35.14,5.22.12-1.22,20.26.96,3.1s3.98-25.22,3.24-26.34c-.75-1.12-2.61-1.15-2.61-1.15h-6.04Z"/>
          <polyline class="cls-16" points="87.35 384.02 88.84 384.15 87.15 406.43"/>
        </g>
      </g>
      <g>
        <g>
          <path class="cls-3" d="M196.28,408.39c.49,8.09-2.61,14.87-6.94,15.13-4.33.26-8.23-6.08-8.73-14.17-.49-8.09,2.61-14.87,6.94-15.13,4.33-.26,8.23,6.08,8.73,14.17Z"/>
          <path class="cls-16" d="M190.25,408.75c.3,4.91-1.38,9.02-3.76,9.16-2.38.15-4.55-3.72-4.85-8.63-.3-4.91,1.38-9.02,3.76-9.16,2.38-.15,4.55,3.72,4.85,8.63Z"/>
        </g>
        <g>
          <path class="cls-16" d="M185.87,378.41s-3.41-.08-3.23.86c.18.94-2.1,32.93-2.1,32.93l1.85-.22,4.13-30.19,5.21-.21-.17,17.27,1.12,2.58s2.67-21.65,1.87-22.56c-.8-.9-2.67-.82-2.67-.82l-6.03.37Z"/>
          <polyline class="cls-16" points="191.74 381.58 193.23 381.59 192.7 400.6"/>
        </g>
      </g>
      <g>
        <path class="cls-3" d="M49.77,287.32c-11.65,0-21.09,28.93-21.09,64.62s9.44,64.62,21.09,64.62,21.09-28.93,21.09-64.62-9.44-64.62-21.09-64.62ZM47.08,407.95c-8.61,0-15.59-25.08-15.59-56.01s6.98-56.01,15.59-56.01,15.59,25.08,15.59,56.01-6.98,56.01-15.59,56.01Z"/>
        <path class="cls-3" d="M40.97,300.86c-9.24,0-16.74,23.93-16.74,53.46s7.49,53.46,16.74,53.46,16.74-23.93,16.74-53.46-7.49-53.46-16.74-53.46ZM40.21,402.8c-7.33,0-13.27-21.71-13.27-48.49s5.94-48.48,13.27-48.48,13.27,21.71,13.27,48.48-5.94,48.49-13.27,48.49Z"/>
      </g>
      <path class="cls-6" d="M127.61,294.8s19.55-11.56,27.21-12.58c7.65-1.02,13.77,1.87,15.3,7.48,1.53,5.61,8.67,16.49,10.03,32.99,1.36,16.49,2.72,46.93,2.72,46.93l-11.56,10.03s-7.14-24.99-10.88-32.48c-3.74-7.48-6.46-15.81-6.63-21.42-.17-5.61-1.19-9.35-1.19-9.35h-26.7l1.7-21.59Z"/>
      <path class="cls-24" d="M181.93,350.61c-.5-9.31-1.14-20.16-1.78-27.92-1.36-16.49-8.5-27.38-10.03-32.99-1.53-5.61-7.65-7.5-15.3-6.48-7.65,1.02-27.21,11.58-27.21,11.58l-1.7,21.59h26.7s1.02,3.74,1.19,9.35c.17,5.61,2.89,13.94,6.63,21.42.96,1.93,2.15,5.01,3.38,8.54,2.67-2.88,8.31-6.88,18.12-5.1Z"/>
      <g>
        <path class="cls-5" d="M186.27,370.97s-1.87-3.23-5.44-2.72-9.69,8.5-9.52,11.39c.17,2.89.85,3.74.17,5.27s1.02,6.29,1.87,11.05c.85,4.76,1.02,8.33,2.55,9.52,1.53,1.19,6.29,2.38,11.73.34,5.44-2.04,5.61-7.48,8.33-10.2,2.72-2.72,7.82-5.78,10.88-12.92,3.06-7.14-1.02-12.75-5.78-13.43-4.76-.68-11.22,2.38-11.22,2.38l-3.57-.68Z"/>
        <path class="cls-13" d="M207.83,376.65c-.61-1.49-2.81-5.03-9.48-3.12-8.33,2.38-13.6,11.9-13.26,14.79.34,2.89,1.53,5.27-1.53,8.5-2.63,2.77-6.37,7.3-5.66,9.6,2.26.68,5.82.88,9.74-.59,5.44-2.04,5.61-7.48,8.33-10.2,2.72-2.72,7.82-5.78,10.88-12.92.94-2.2,1.2-4.25.98-6.06Z"/>
      </g>
      <path class="cls-6" d="M81.7,314.01s-3.74-7.31-1.19-13.6c3.2-7.89,9.18-8.16,16.49-11.05,7.31-2.89,14.11-7.31,20.4-7.31s13.43,3.74,13.26,11.22c-.17,7.48-.17,27.21-.34,39.45-.17,12.24-1.7,28.57-1.7,32.65s.51,5.95.51,5.95l-12.75,10.2s-2.38-10.54-4.25-19.89c-1.87-9.35-7.99-21.08-7.99-27.72s.51-18.02.51-18.02l-20.74-.51-2.21-1.36Z"/>
      <path class="cls-6" d="M81.7,314.01s-3.74-7.31-1.19-13.6c3.2-7.89,9.18-8.16,16.49-11.05,7.31-2.89,14.11-7.31,20.4-7.31s13.43,3.74,13.26,11.22c-.17,7.48-.17,27.21-.34,39.45-.17,12.24-1.7,28.57-1.7,32.65s.51,5.95.51,5.95l-12.75,10.2s-2.38-10.54-4.25-19.89c-1.87-9.35-7.99-21.08-7.99-27.72s.51-18.02.51-18.02l-20.74-.51-2.21-1.36Z"/>
      <path class="cls-24" d="M117.41,284.04c-6.29,0-13.09,3.42-20.4,6.31-7.31,2.89-13.48,2.08-16.49,10.05-1.48,3.91-.4,15.45-.4,15.45l3.8-.49,20.74.51s-.51,11.39-.51,18.02,5.74,17.64,7.8,26.84c3.02-2.56,9-6.28,17.23-5.05.46-6.77,1.05-15.61,1.16-22.98.17-12.24,2.3-31.63,1.25-39.04-.91-6.35-7.88-9.63-14.17-9.63Z"/>
      <g>
        <path class="cls-5" d="M131.35,372.33s-1.19-3.23-3.91-2.72c-2.72.51-11.73,8.67-12.24,11.39s1.87,6.97,1.87,6.97c0,0,0,11.05.17,14.11.17,3.06-.85,7.48,3.91,9.35,4.76,1.87,11.05-.34,13.94-4.08,2.89-3.74,1.02-9.35,2.21-10.88,1.19-1.53,9.35-6.97,12.07-11.73,2.72-4.76-.51-14.11-3.23-15.47-2.72-1.36-6.8-1.19-9.86.51-3.06,1.7-4.93,2.55-4.93,2.55Z"/>
        <path class="cls-13" d="M140.19,373.52c-3.91,2.38-16.49,14.11-16.66,17.68-.17,3.57-1.7,4.93-3.57,9.86-1.56,4.12-2.16,8,1.16,10.36.01,0,.02,0,.03.01,4.76,1.87,11.05-.34,13.94-4.08,2.89-3.74,1.02-9.35,2.21-10.88s9.35-6.97,12.07-11.73c1.52-2.67,1.18-6.77.1-10.11l-.95-.77s-4.42-2.72-8.33-.34Z"/>
      </g>
      <polygon class="cls-3" points="105.39 405.91 116.45 401.15 119.96 401.07 120.5 406.82 148.83 406.82 148.83 409.84 131.63 413.46 107.32 413.46 105.39 405.91"/>
      <polygon class="cls-16" points="117.03 401.04 118.35 410.02 147.75 410.02 148.83 409.84 148.83 406.82 120.5 406.82 119.96 401.07 117.03 401.04"/>
      <polygon class="cls-3" points="199.21 401.22 207.24 397.39 210.06 397.39 210.06 408.2 198.31 412.1 168.75 412.48 168.72 409.98 171.93 406.92 199.47 406.13 199.21 401.22"/>
      <polygon class="cls-16" points="171.93 406.92 171.93 408.99 210.06 408.2 209.89 397.6 206.77 397.67 206.89 406.13 171.93 406.92"/>
      <path class="cls-15" d="M107.85,160.72s-9.75,8.71-16.64,10.96c0,0-2.09,2.45-3.08,2.13s-1.96-3.05-2.63-3.15-2.18,1.91-2.18,1.91l-1.11,3.97s-7.96-8.86-6.11-13.99c4.72-13.09,13.33-16.05,25.5-15.61,12.17.44,16.4,9.27,14.29,11.88-2.11,2.61-5.33,4.55-5.33,4.55,0,0-.83-2.54-2.71-2.65Z"/>
      <g>
        <path class="cls-19" d="M177.09,228.21h-42.74c-1.47,0-2.58-1.34-2.29-2.79l6.12-31.19c.22-1.1,1.18-1.89,2.29-1.89h42.74c1.47,0,2.58,1.34,2.29,2.79l-6.12,31.19c-.22,1.1-1.18,1.89-2.29,1.89Z"/>
        <path class="cls-13" d="M177.49,228.21h-40.71c-1.4,0-2.46-1.27-2.19-2.63l5.83-29.48c.2-1.04,1.12-1.78,2.19-1.78h40.71c1.4,0,2.46,1.27,2.19,2.63l-5.83,29.48c-.2,1.04-1.12,1.78-2.19,1.78Z"/>
        <path class="cls-3" d="M196.66,219.17c-1.13-.17-2.2.3-2.87,1.13l-24.65-5.79c.64-2.16.18-4.25-1.07-5.09l2.34-9.8-1.46.03,1.84-8.82c.18-.9-.5-1.74-1.42-1.74h-6.54c-2.45,0-3.18,2.94-3.18,2.94h4.41l-1.6,7.78-2.32.06-6.37,28.4-4.95.13s.72,1.74,2.17,2.31c1.45.58,10.99.29,10.99.29,0,0,1.13-.26,1.58-2.74l2.37-9.91c.48-.15.96-.44,1.4-.83l25.02,9.53-2.06,14.16c-.64.6-1.11,1.4-1.24,2.34l-.81,5.59c-.32,2.2,1.2,4.24,3.4,4.56.2.03.39.04.58.04,1.96,0,3.68-1.44,3.98-3.44l.81-5.59c.14-.94-.08-1.84-.52-2.6l2.82-19.41c.25-1.71-.94-3.3-2.65-3.55Z"/>
      </g>
    </g>
    <rect class="cls-23" x="252.92" y="330.39" width="54.17" height="57.71" rx="7.55" ry="7.55"/>
    <g id="gXjFlV.tif">
      <g>
        <path class="cls-14" d="M300.03,378.08c.58-.62.57-1.59-.03-2.2-9.39-9.4-21.02-20.91-30.41-30.3-1.83-1.83-3.66-3.67-5.5-5.49-.88-.87-1.96-.83-2.57.05-.49.71-.39,1.45.34,2.19,1.78,1.8,3.56,3.59,5.37,5.36.36.35.35.62.22,1.08-.43,1.59-.83,3.19-1.11,4.81-.21,1.21.42,2.04,1.4,2.14.99.1,1.61-.59,1.75-1.84.12-1.06.32-2.12.53-3.46,1,1.03,1.81,1.83,2.57,2.67.15.17.17.49.17.75.01,1.57.02,3.13,0,4.7-.03,2.18.78,3.99,2.41,5.42.61.54.94,1.15.63,1.95-.25.63-.9,1-1.58,1.02-2.89.1-5.02,2.4-4.94,5.28.06,2.08.86,3.85,2.26,5.36,1.34,1.44,3.08,2.2,4.87,2.38,3.67.35,7.57-1.76,8.71-5.6.62-2.09,1.53-4.02,3.07-5.87.51.58.96,1.14,1.47,1.65,1.95,1.96,6.14,6.03,8.1,7.98.63.63,1.66.61,2.26-.04h0ZM281.94,373.89c-.66,2.02-2.99,3.31-5.03,3.04-2.35-.31-4.18-2.07-4.46-4.3-.19-1.54.49-2.41,2.05-2.54,2.13-.19,3.64-1.24,4.32-3.27.68-2.04.07-3.77-1.53-5.18-.96-.84-1.42-1.91-1.41-3.19,0-.6,0-1.2,0-1.85,3.3,3.31,6.55,6.56,9.85,9.87-1.76,2.1-2.9,4.68-3.79,7.42Z"/>
        <path class="cls-14" d="M296.26,354.07c-.05,3.38-.89,6.16-2.59,8.67-.65.96-1.49,1.2-2.3.69-.83-.52-.97-1.46-.31-2.44,4.86-7.31.49-16.69-7.75-18.18-3-.54-5.78.12-8.39,1.69-.46.27-1.19.42-1.66.25-.43-.15-.92-.81-.94-1.26-.02-.49.35-1.18.77-1.48,1.81-1.29,3.86-2.1,6.07-2.36,8.35-.98,15.22,4.04,16.85,12.27.16.82.19,1.67.24,2.15Z"/>
        <path class="cls-14" d="M289.71,354.8c-.04.84-.2,1.69-.5,2.58-.34,1.03-1.16,1.43-2.03,1.12-.93-.33-1.26-1.14-.91-2.21.8-2.42.19-4.69-1.7-6.16-1.57-1.22-3.31-1.45-5.19-.82-.39.13-.82.29-1.21.25-.78-.06-1.26-.58-1.36-1.34-.11-.82.32-1.39,1.06-1.7,2.34-.98,4.7-1,6.99.1,1.85.89,3.29,2.38,4.09,4.27.57,1.35.82,2.61.76,3.9Z"/>
      </g>
    </g>
    <path class="cls-9" d="M305.26,377.21c0,4.95-4.02,8.97-8.97,8.97h-32.51c-4.95,0-8.97-4.02-8.97-8.97v-37.2c0-4.95,4.02-8.97,8.97-8.97h32.51c4.95,0,8.97,4.02,8.97,8.97v37.2ZM309.37,344.4h-1.41v-4.39c0-5.18-3.43-9.75-8.4-11.2l-3.16-24.32c-.27-2.06-2.03-3.61-4.11-3.61h-24.5c-2.08,0-3.84,1.55-4.11,3.61l-3.17,24.32c-4.97,1.46-8.39,6.02-8.4,11.2v37.2c0,5.19,3.44,9.76,8.43,11.21l3.14,24.12c.27,2.06,2.03,3.61,4.11,3.61h24.5c2.08,0,3.84-1.55,4.11-3.61l3.14-24.12c4.99-1.45,8.42-6.02,8.43-11.21v-4.39h1.41c1.21,0,2.19-.98,2.19-2.19v-9.09c0-1.21-.98-2.19-2.19-2.19h-1.41v-1.49h1.41c1.21,0,2.19-.98,2.19-2.19v-9.09c0-1.21-.98-2.19-2.19-2.19h0Z"/>
    <g>
      <path class="cls-7" d="M260.43,388.51l3.14,24.12c.27,2.06,2.03,3.61,4.11,3.61h24.5c2.08,0,3.84-1.55,4.11-3.61l3.14-24.12c.21-.06-39.3-.09-39,0Z"/>
      <path class="cls-7" d="M299.45,328.89l-3.16-24.32c-.27-2.06-2.03-3.61-4.11-3.61h-24.5c-2.08,0-3.84,1.55-4.11,3.61l-3.17,24.32c-.27.08,39.43.11,39.05,0Z"/>
    </g>
    <g id="Layer_1">
      <path class="cls-9" d="M340.04,297.92c-.78-.59-1.18-1.52-1.23-2.79,0-2.01-.49-3.43-1.47-4.31-1.42-1.32-4.02-1.81-8.38-1.57-2.65.15-4.81-.59-6.33-2.11-2.79-2.79-2.65-7.16-2.65-7.31v-11.33c-.15-.1-.29-.15-.49-.25-.83-.39-2.11-1.03-3.87-2.01-1.42-.74-2.26-1.77-2.5-2.99-.49-2.79,2.06-5.74,4.56-8.63,1.47-1.67,3.09-3.58,3.09-4.51v-1.96c0-18.39,14.96-33.34,33.34-33.34,18.39,0,33.34,14.96,33.34,33.34,0,5.39-1.23,10.49-3.68,15.25,0,.05-.05.1-.1.15-10.44,13.97-6.18,26.28-6.18,26.43.15.29.1.64-.1.88-.2.29-.49.39-.83.39-9.95-.2-18.93,2.79-25.5,5-3.82,1.27-6.77,2.26-8.83,2.26-.88,0-1.62-.2-2.21-.59ZM352.4,265.02v-2.65c-.88-.29-1.72-.64-2.5-1.03l-1.91,1.86c-1.37,1.37-3.58,1.37-5,0l-2.5-2.5c-1.37-1.37-1.37-3.63,0-5l1.86-1.91c-.39-.78-.74-1.62-1.03-2.45h-2.65c-1.96,0-3.53-1.57-3.53-3.53v-3.58c0-1.96,1.57-3.53,3.53-3.53h2.65c.29-.88.64-1.72,1.03-2.5l-1.86-1.86c-.69-.69-1.03-1.57-1.03-2.5s.34-1.86,1.03-2.5l2.5-2.55c.69-.64,1.57-1.03,2.5-1.03.98,0,1.86.39,2.5,1.03l1.91,1.91c.78-.44,1.62-.78,2.45-1.03v-2.7c0-1.96,1.62-3.53,3.58-3.53h3.53c1.96,0,3.58,1.57,3.58,3.53v2.7c.83.25,1.67.59,2.45,1.03l1.91-1.91c1.37-1.37,3.58-1.37,4.95,0l2.55,2.55c.69.64,1.03,1.52,1.03,2.5s-.34,1.81-1.03,2.5l-1.86,1.86c.39.78.74,1.62,1.03,2.5h2.65c1.96,0,3.53,1.57,3.53,3.53v3.58c0,1.96-1.57,3.53-3.53,3.53h-2.7c-.25.83-.59,1.67-1.03,2.5l1.91,1.86c1.37,1.37,1.37,3.63,0,5l-2.55,2.5c-.64.69-1.52,1.08-2.5,1.08s-1.81-.39-2.5-1.08l-1.86-1.86c-.78.39-1.62.74-2.5,1.03v2.65c0,1.96-1.57,3.58-3.53,3.58h-3.58c-1.91,0-3.53-1.62-3.48-3.58ZM346.03,245.99c0-6.42,5.25-11.62,11.67-11.62s11.62,5.2,11.62,11.62c0,6.42-5.2,11.67-11.62,11.67-6.42,0-11.67-5.25-11.67-11.67ZM347.99,245.99c0,5.34,4.36,9.71,9.71,9.71s9.66-4.36,9.66-9.71-4.31-9.66-9.66-9.66-9.71,4.31-9.71,9.66Z"/>
    </g>
    <path class="cls-24" d="M129.18,355.69s-10.21-1.73-17.23,5.05l3.99,18.74s4.34-5.92,10.18-9.33c0,0,1.2-.88,2.75-.47l.31-14Z"/>
    <path class="cls-24" d="M163.81,355.7s6.11-8.63,18.12-5.1l.94,17.76s-2.26-.61-3.95.68-6.5,4.93-7.61,10.6l-7.5-23.94Z"/>
  </g>
</svg>