<?xml version="1.0" encoding="UTF-8"?>
<svg id="Capa_1" data-name="Capa 1" xmlns="http://www.w3.org/2000/svg" viewBox="0 0 472.13 512">
  <defs>
    <style>
      .cls-1 {fill: #ffb81f;}
      .cls-2 {fill: #ff8604;}
      .cls-3 {fill: #fff;}
      .cls-4 {fill: #484848;}
      .cls-5 {fill: #00a1a3;}
    </style>
  </defs>
  <path class="cls-5" d="M464.62,143.16C432.55,63.52,354.55,7.34,263.45,7.51l.41,216.39,200.76-80.74Z"/>
  <path class="cls-4" d="M263.86,231.42c-1.48,0-2.94-.43-4.2-1.28-2.07-1.4-3.31-3.72-3.31-6.22l-.41-216.39c0-1.99.78-3.9,2.19-5.32,1.41-1.41,3.32-2.21,5.31-2.21h.43c45.46,0,89.22,13.56,126.56,39.22,36.57,25.13,64.64,60.1,81.16,101.14.74,1.85.72,3.92-.06,5.75-.78,1.83-2.26,3.28-4.11,4.02l-200.76,80.74c-.91.36-1.86.54-2.8.54ZM270.98,15.14l.37,197.65,183.37-73.75c-32.61-73.46-103.45-121.23-183.74-123.9Z"/>
  <path class="cls-3" d="M223.5,71.7c-49.13.09-94.39,16.56-130.66,44.21l131.06,169.41-.4-213.62Z"/>
  <path class="cls-1" d="M424.66,207.35l-199.13,80.09,7.81,10.1-7.81-10.1-1.63.65v-2.77s-.41-213.62-.41-213.62C53.06,79.36,7.38,218.12,7.51,288.5c.22,119.51,97.29,216.21,216.8,215.98,119.51-.22,216.21-97.29,215.98-216.8-.05-28.41-5.64-55.5-15.63-80.33Z"/>
  <path class="cls-2" d="M43.72,252.29c-.1-50.64,17.22-97.25,46.3-134.17C39.67,157.84,7.38,219.4,7.51,288.5c.22,119.51,97.29,216.21,216.8,215.98,68.82-.13,130.08-32.38,169.62-82.53-36.72,28.93-83.04,46.23-133.41,46.33-119.51.23-216.58-96.47-216.8-215.98Z"/>
  <path class="cls-4" d="M431.63,204.55c-1.55-3.85-5.93-5.71-9.77-4.16l-190.46,76.6-.39-205.29c0-4.15-3.37-7.5-7.51-7.5h-.01c-59.81.11-115.99,23.51-158.2,65.88C23.07,172.44-.11,228.71,0,288.51c.11,59.73,23.46,115.86,65.74,158.06,42.27,42.19,98.44,65.43,158.15,65.43h.43c59.81-.11,115.99-23.51,158.2-65.88,42.21-42.37,65.39-98.64,65.28-158.45-.05-28.63-5.5-56.6-16.18-83.13ZM371.88,435.52c-39.38,39.53-91.79,61.35-147.58,61.46h-.4c-114.95,0-208.65-93.52-208.87-208.48-.1-55.79,21.52-108.29,60.9-147.81,4.87-4.88,9.93-9.49,15.18-13.83l11.92-9.15c32.96-23.49,71.92-36.81,112.97-38.33l.35,186.49-.29,20.4c-.03,2.28.62,4.51,1.87,6.41h0c.06.08.13.15.2.23.09.11.18.22.28.33.12.12.24.24.36.36.09.08.18.17.28.25.15.13.3.24.46.35.06.05.12.1.18.14.02.02.05.03.07.04.18.11.36.22.54.32.08.04.16.09.24.13.2.1.4.18.6.26.07.03.15.07.22.09.24.09.49.16.74.22.04,0,.07.02.11.03.29.07.57.11.87.14.09.01.18,0,.27.02.18.01.37.03.55.03.02,0,.03,0,.05,0,.35,0,.71-.03,1.06-.08.1-.02.21-.04.32-.06.25-.05.5-.11.74-.18.13-.04.25-.08.38-.13.08-.03.17-.05.25-.08l193.67-77.89c8.19,22.64,12.36,46.33,12.41,70.53.11,55.79-21.52,108.28-60.9,147.81Z"/>
  <circle class="cls-2" cx="228.06" cy="371" r="22"/>
  <circle class="cls-2" cx="146.06" cy="349" r="12.3"/>
  <circle class="cls-2" cx="301.54" cy="426.63" r="12.3"/>
  <circle class="cls-2" cx="164.45" cy="178.52" r="12.3"/>
  <circle class="cls-2" cx="114.1" cy="231.42" r="8.7"/>
  <circle class="cls-2" cx="168.05" cy="410.14" r="8.7"/>
  <circle class="cls-2" cx="372.73" cy="294.02" r="8.7"/>
</svg>