<?xml version="1.0" encoding="utf-8"?>
<!-- Generator: Adobe Illustrator 24.2.3, SVG Export Plug-In . SVG Version: 6.00 Build 0)  -->
<svg version="1.1" id="Layer_1" xmlns="http://www.w3.org/2000/svg" xmlns:xlink="http://www.w3.org/1999/xlink" x="0px" y="0px"
	 viewBox="0 0 512 512" style="enable-background:new 0 0 512 512;" xml:space="preserve">
<g>
	<path d="M318.5,101.8V84.4c0-0.6-0.5-1.1-1.1-1.1h-1.8v19.6h1.8C318,102.9,318.5,102.4,318.5,101.8z"/>
	<path d="M194.5,102.9h1.9V83.3h-1.9c-0.6,0-1.1,0.5-1.1,1.1v17.3C193.4,102.4,193.9,102.9,194.5,102.9z"/>
	<path d="M408.8,169.9c23.7,0,43-19.6,43-43.6c0-24.1-19.3-43.6-43-43.6c-23.7,0-43.1,19.6-43.1,43.6
		C365.8,150.4,385.1,169.9,408.8,169.9z"/>
	<path d="M235,42.1c1-1.8,2.7-3,4.7-3.6s4.1-0.2,5.8,0.9c19.6,11.9,37.7,19.8,62.2,19.9v-7.7c0-21.1-17.2-38.2-38.3-38.2h-26.8
		c-14,0-17.4,5.7-19.1,11.8c-0.5,1.7-1.5,3.2-2.9,4.2c-9.8,7-15.8,18.1-16.2,29.9C219.1,59.2,228,54.2,235,42.1z"/>
	<path d="M300.3,107.3V74.2c-18.9-1.1-36.1-6.7-56.4-18.1c-8,10.6-18.5,16.4-32.3,18v33.3c0,24.4,19.9,44.3,44.4,44.3
		C280.4,151.6,300.3,131.7,300.3,107.3L300.3,107.3z"/>
	<path d="M440.2,320.8c-0.5-2.4-1.5-4.7-3-6.8l-0.7-0.8c0,0-0.1-0.1-0.1-0.1c-2.8-3.7-6.9-6.2-11.6-6.8c-4.7-0.7-9.3,0.5-13,3.3
		l-41.6,31.2c6.6,6,10.7,14.6,10.7,24.2v0.3L440.2,320.8z"/>
	<path d="M13.1,336.5L15,498.7h88.5l-1.9-162.2H13.1z M58.3,486.6c-10.8,0-19.5-8.8-19.5-19.6c0-10.8,8.8-19.5,19.5-19.5
		c10.8,0,19.6,8.8,19.6,19.5C77.9,477.8,69.1,486.6,58.3,486.6z"/>
	<path d="M486.8,326.9c-2.8-3.8-6.9-6.2-11.6-6.9c-4.7-0.7-9.3,0.5-13.1,3.3l-92.2,69c-5.8,5.2-13.4,8.3-21.8,8.3H232.5
		c-4.2,0-7.6-3.4-7.6-7.6c0-4.2,3.4-7.6,7.6-7.6h115.7c9.7,0,17.6-7.9,17.6-17.6v-3.1c0-9.7-7.9-17.6-17.6-17.6H214.1
		c-11,0-20.3,1.2-31.1,4.1L119.7,368c-0.9,0.2-1.7,0.3-2.5,0.2l1.3,111.7h168c28.7,0,52.4-3.9,74.7-22.9l122.4-104.4
		c7.8-6.7,9.5-17.4,3.9-24.9L486.8,326.9z"/>
	<path d="M58.3,462.7c-2.4,0-4.3,1.9-4.3,4.3c0,2.4,2,4.4,4.3,4.4c2.4,0,4.4-2,4.4-4.4C62.7,464.6,60.7,462.7,58.3,462.7z"/>
	<path d="M256,166.8c-4.5,0-8.8-0.5-13-1.4l13,10.7l13-10.7C264.8,166.3,260.5,166.8,256,166.8z"/>
	<path d="M264.9,270.7l-9-44.5l-9,44.5H264.9z"/>
	<path d="M289.5,175.1c-1.5-1.2-2.9-2.4-4.1-3.7l-17.1,14.2l11.8,8.9L289.5,175.1z"/>
	<path d="M261.4,199.6l-5.4-4.1l-5.4,4.1c1.3,1.6,3.3,2.6,5.4,2.6C258.2,202.2,260.1,201.1,261.4,199.6L261.4,199.6z"/>
	<path d="M289.6,209.5c-1,2-2.9,3.5-5.1,4c-0.6,0.1-1.2,0.2-1.8,0.2c-1.6,0-3.3-0.5-4.6-1.5l-4.6-3.5c-1.3,1.7-2.9,3.2-4.7,4.5
		l11.6,57.5h50.7v-15.5c0-4.2,3.4-7.6,7.6-7.6s7.6,3.4,7.6,7.6v15.5H379v-35.4c0-27.1-22.1-49.2-49.2-49.2c-11,0-19.8-1.5-26.8-3.9
		L289.6,209.5z"/>
	<path d="M442.8,180.7h-11.8c-6.9,2.9-14.4,4.5-22.2,4.5c-7.9,0-15.4-1.6-22.2-4.5h-11.8c-3.2,0-6.4,0.4-9.5,0.9
		c17.4,11.5,28.9,31.3,28.9,53.7v35.4h66.3v-15.5c0-4.2,3.4-7.6,7.6-7.6s7.6,3.4,7.6,7.6v15.5H499v-32.7
		C499,206.6,473.8,180.9,442.8,180.7L442.8,180.7z"/>
	<path d="M243.8,185.7l-17.1-14.2c-1.2,1.3-2.6,2.5-4.1,3.7l9.5,19.4L243.8,185.7z"/>
	<path d="M103.2,169.9c23.7,0,43.1-19.6,43.1-43.6c0-24.1-19.3-43.6-43.1-43.6s-43.1,19.6-43.1,43.6
		C60.1,150.4,79.4,169.9,103.2,169.9z"/>
	<path d="M36.3,255.2c0-4.2,3.4-7.6,7.6-7.6s7.6,3.4,7.6,7.6v15.5h66.3v-35.4c0-22.4,11.5-42.2,29-53.7c-3.2-0.6-6.4-0.9-9.6-0.9
		h-11.8c-6.9,2.9-14.4,4.5-22.2,4.5s-15.4-1.6-22.2-4.5H69.1C38.2,180.9,13,206.6,13,237.9v32.7h23.3L36.3,255.2z"/>
	<path d="M133,270.7h32.7v-15.5c0-4.2,3.4-7.6,7.6-7.6c4.2,0,7.6,3.4,7.6,7.6v15.5h50.7l11.6-57.5c-1.8-1.3-3.3-2.8-4.7-4.5
		l-4.6,3.5c-1.3,1-2.9,1.5-4.6,1.5c-0.6,0-1.2-0.1-1.8-0.2c-2.2-0.5-4.1-2-5.1-4L209,182.2c-7,2.4-15.7,3.9-26.7,3.9
		c-27.2,0-49.3,22.1-49.3,49.2L133,270.7L133,270.7z"/>
</g>
</svg>
