<?xml version="1.0" encoding="utf-8"?>
<!-- Generator: Adobe Illustrator 24.2.3, SVG Export Plug-In . SVG Version: 6.00 Build 0)  -->
<svg version="1.1" xmlns="http://www.w3.org/2000/svg" xmlns:xlink="http://www.w3.org/1999/xlink" x="0px" y="0px"
	 viewBox="0 0 1678.6 1450.2" style="enable-background:new 0 0 1678.6 1450.2;" xml:space="preserve">
<style type="text/css">
	.st0{fill:#F98919;}
	.st1{fill:#F9EEDC;}
	.st2{fill:#008083;}
	.st3{fill:#FFFFFF;}
	.st4{fill:#FFB81F;}
	.st5{opacity:0.2;}
	.st6{fill:#617070;}
	.st7{fill:#A7D3D2;}
	.st8{fill:#C4C5C6;}
	.st9{fill:#00A0A3;}
	.st10{fill:#DDF1F2;}
	.st11{fill:#E0E0E0;}
	.st12{fill:#FFC89F;}
	.st13{fill:#30201C;}
	.st14{fill:#DD654E;}
	.st15{fill:#3A2722;}
	.st16{opacity:0.4;}
	.st17{fill:#A65B3C;}
	.st18{fill:#0F8282;}
	.st19{fill:#EAAA7F;}
	.st20{opacity:0.4;fill:#A65B3C;}
	.st21{fill:#08C4C4;}
	.st22{fill:#1E1513;}
</style>
<g id="BACK">
</g>
<g id="CODING">
</g>
<g id="CHARACTER">
	<g>
		<path class="st0" d="M770.4,861c0,0-19.4,7.7-30,32.1c0,0-162.9,1.5-182,34.3c0,0-42.5,11.5-94.4,137.4l-105.9,148.1
			c-46.6,20.2-158,121.2-42.7,185.8c0,0,128.3,65.5,183.2-111.1l86.7-68.3l28.2,189.1h494.1l32.2-187.1l105.7,79
			c0,0,138.2,190.6,226.3,34.8c0,0,11.9-97.6-91-125.3l-84.9-101.7c0,0-90.4-164.4-139.6-170.9c0,0-11.7-25.1-157.6-44.7
			c0,0-5.7-19.1-31.4-31.5H770.4z"/>
	</g>
	<g>
		<g>
			<g>
				<polygon class="st1" points="54.4,327.2 54.4,710.1 516.3,710.1 563.9,772.6 563.9,710.1 652.3,710.1 652.3,327.2 				"/>
			</g>
			<g>
				<rect x="54.4" y="327.2" class="st2" width="597.9" height="46.8"/>
			</g>
			<g>
				<circle class="st3" cx="75.4" cy="350.6" r="7.5"/>
			</g>
			<g>
				<circle class="st3" cx="104.2" cy="350.6" r="7.5"/>
			</g>
			<g>
				<circle class="st3" cx="133.1" cy="350.6" r="7.5"/>
			</g>
		</g>
		<g>
			<rect x="445.6" y="410.4" class="st2" width="189.1" height="31.3"/>
		</g>
		<g>
			<rect x="533.3" y="452.7" class="st4" width="101.5" height="31.3"/>
		</g>
		<g class="st5">
			<rect x="10" y="658.9" class="st6" width="239.7" height="122.2"/>
		</g>
		<g>
			<rect y="648.9" class="st4" width="239.7" height="122.2"/>
		</g>
		<g>
			<g>
				<path class="st3" d="M41,693.9c2.7-4.7,6.4-8.4,11.1-11.1c4.7-2.6,9.9-4,15.8-4c6.8,0,12.8,1.7,17.9,5.2
					c5.1,3.5,8.7,8.3,10.7,14.5H82.4c-1.4-2.9-3.4-5.1-5.9-6.5c-2.5-1.5-5.5-2.2-8.8-2.2c-3.6,0-6.7,0.8-9.5,2.5
					c-2.8,1.7-4.9,4-6.5,7c-1.5,3-2.3,6.6-2.3,10.6c0,4,0.8,7.6,2.3,10.6c1.5,3.1,3.7,5.4,6.5,7.1c2.8,1.7,5.9,2.5,9.5,2.5
					c3.3,0,6.2-0.7,8.8-2.2c2.5-1.5,4.5-3.7,5.9-6.6h14.1c-2,6.2-5.6,11.1-10.7,14.5c-5.1,3.5-11.1,5.2-17.9,5.2
					c-5.8,0-11.1-1.3-15.8-4c-4.7-2.6-8.4-6.3-11.1-11C38.3,721.4,37,716,37,710C37,704.1,38.3,698.7,41,693.9z"/>
			</g>
			<g>
				<path class="st3" d="M116.5,739c-3.4-1.5-6.1-3.5-8.1-6.3c-2-2.7-3-6-3.1-9.7h13.1c0.2,2.5,1.1,4.5,2.7,5.9
					c1.6,1.5,3.8,2.2,6.6,2.2c2.9,0,5.1-0.7,6.7-2.1c1.6-1.4,2.4-3.2,2.4-5.4c0-1.8-0.6-3.3-1.7-4.5c-1.1-1.2-2.5-2.1-4.1-2.7
					c-1.7-0.7-3.9-1.4-6.9-2.2c-4-1.2-7.2-2.3-9.6-3.4c-2.5-1.1-4.6-2.9-6.4-5.1c-1.8-2.3-2.7-5.4-2.7-9.2c0-3.6,0.9-6.7,2.7-9.4
					c1.8-2.7,4.3-4.7,7.6-6.2c3.3-1.4,7-2.1,11.2-2.1c6.3,0,11.4,1.5,15.3,4.6c3.9,3.1,6.1,7.3,6.5,12.8h-13.4
					c-0.1-2.1-1-3.8-2.7-5.2c-1.7-1.4-3.9-2.1-6.6-2.1c-2.4,0-4.3,0.6-5.7,1.8c-1.4,1.2-2.1,3-2.1,5.3c0,1.6,0.5,3,1.6,4.1
					c1.1,1.1,2.4,1.9,4,2.6c1.6,0.7,3.9,1.4,6.8,2.3c4,1.2,7.2,2.3,9.7,3.5c2.5,1.2,4.7,2.9,6.5,5.2c1.8,2.3,2.7,5.4,2.7,9.2
					c0,3.3-0.8,6.3-2.5,9.1c-1.7,2.8-4.2,5-7.4,6.7c-3.3,1.7-7.1,2.5-11.6,2.5C123.8,741.2,119.9,740.5,116.5,739z"/>
			</g>
			<g>
				<path class="st3" d="M169.7,739c-3.4-1.5-6.1-3.5-8.1-6.3c-2-2.7-3-6-3.1-9.7h13.1c0.2,2.5,1.1,4.5,2.7,5.9
					c1.6,1.5,3.8,2.2,6.6,2.2c2.9,0,5.1-0.7,6.7-2.1c1.6-1.4,2.4-3.2,2.4-5.4c0-1.8-0.6-3.3-1.7-4.5c-1.1-1.2-2.5-2.1-4.1-2.7
					c-1.7-0.7-3.9-1.4-6.9-2.2c-4-1.2-7.2-2.3-9.6-3.4c-2.5-1.1-4.6-2.9-6.4-5.1c-1.8-2.3-2.7-5.4-2.7-9.2c0-3.6,0.9-6.7,2.7-9.4
					c1.8-2.7,4.3-4.7,7.6-6.2c3.3-1.4,7-2.1,11.2-2.1c6.3,0,11.4,1.5,15.3,4.6c3.9,3.1,6.1,7.3,6.5,12.8h-13.4
					c-0.1-2.1-1-3.8-2.7-5.2c-1.7-1.4-3.9-2.1-6.6-2.1c-2.4,0-4.3,0.6-5.7,1.8c-1.4,1.2-2.1,3-2.1,5.3c0,1.6,0.5,3,1.6,4.1
					c1.1,1.1,2.4,1.9,4,2.6c1.6,0.7,3.9,1.4,6.8,2.3c4,1.2,7.2,2.3,9.7,3.5c2.5,1.2,4.7,2.9,6.5,5.2c1.8,2.3,2.7,5.4,2.7,9.2
					c0,3.3-0.8,6.3-2.5,9.1c-1.7,2.8-4.2,5-7.4,6.7c-3.3,1.7-7.1,2.5-11.6,2.5C176.9,741.2,173.1,740.5,169.7,739z"/>
			</g>
		</g>
		<g>
			<rect x="113.7" y="411.3" class="st2" width="43.2" height="10.4"/>
		</g>
		<g>
			<rect x="165.8" y="411.3" class="st4" width="17.9" height="10.4"/>
		</g>
		<g>
			<rect x="192.7" y="411.3" class="st2" width="17.9" height="10.4"/>
		</g>
		<g>
			<rect x="137.6" y="427.6" class="st4" width="23.9" height="10.4"/>
		</g>
		<g>
			<rect x="170.4" y="427.6" class="st2" width="68.1" height="10.4"/>
		</g>
		<g>
			<rect x="247.4" y="427.6" class="st4" width="46.3" height="10.4"/>
		</g>
		<g>
			<rect x="302.6" y="427.6" class="st2" width="19" height="10.4"/>
		</g>
		<g>
			<rect x="113.7" y="443.9" class="st2" width="75.5" height="10.4"/>
		</g>
		<g>
			<rect x="198.1" y="443.9" class="st4" width="52.3" height="10.4"/>
		</g>
		<g>
			<rect x="259.3" y="443.9" class="st2" width="36.8" height="10.4"/>
		</g>
		<g>
			<rect x="305" y="443.9" class="st2" width="16.4" height="10.4"/>
		</g>
		<g>
			<rect x="113.7" y="460.3" class="st2" width="56.7" height="10.4"/>
		</g>
		<g>
			<rect x="179.3" y="460.3" class="st4" width="45" height="10.4"/>
		</g>
		<g>
			
				<rect x="297.7" y="476.6" transform="matrix(-1 -1.224647e-16 1.224647e-16 -1 619.2614 963.6735)" class="st4" width="23.9" height="10.4"/>
		</g>
		<g>
			<rect x="220.7" y="476.6" class="st2" width="68.1" height="10.4"/>
		</g>
		<g>
			
				<rect x="165.5" y="476.6" transform="matrix(-1 -1.224647e-16 1.224647e-16 -1 377.284 963.6735)" class="st4" width="46.3" height="10.4"/>
		</g>
		<g>
			<rect x="137.6" y="476.6" class="st2" width="19" height="10.4"/>
		</g>
		<g>
			<rect x="246.1" y="493" class="st2" width="75.5" height="10.4"/>
		</g>
		<g>
			
				<rect x="184.9" y="493" transform="matrix(-1 -1.224647e-16 1.224647e-16 -1 422.0544 996.3547)" class="st4" width="52.3" height="10.4"/>
		</g>
		<g>
			<rect x="139.2" y="493" class="st2" width="36.8" height="10.4"/>
		</g>
		<g>
			<rect x="113.9" y="493" class="st2" width="16.4" height="10.4"/>
		</g>
		<g>
			<rect x="113.7" y="509.3" class="st2" width="43.2" height="10.4"/>
		</g>
		<g>
			<rect x="165.8" y="509.3" class="st4" width="17.9" height="10.4"/>
		</g>
		<g>
			<rect x="192.7" y="509.3" class="st2" width="17.9" height="10.4"/>
		</g>
		<g>
			<rect x="137.6" y="525.6" class="st4" width="23.9" height="10.4"/>
		</g>
		<g>
			<rect x="170.4" y="525.6" class="st2" width="68.1" height="10.4"/>
		</g>
		<g>
			<rect x="247.4" y="525.6" class="st4" width="46.3" height="10.4"/>
		</g>
		<g>
			<rect x="302.6" y="525.6" class="st2" width="19" height="10.4"/>
		</g>
		<g>
			<rect x="113.7" y="542" class="st2" width="75.5" height="10.4"/>
		</g>
		<g>
			<rect x="198.1" y="542" class="st4" width="52.3" height="10.4"/>
		</g>
		<g>
			<rect x="259.3" y="542" class="st2" width="36.8" height="10.4"/>
		</g>
		<g>
			<rect x="305" y="542" class="st2" width="16.4" height="10.4"/>
		</g>
		<g>
			<rect x="113.7" y="558.3" class="st2" width="56.7" height="10.4"/>
		</g>
		<g>
			<rect x="179.3" y="558.3" class="st4" width="45" height="10.4"/>
		</g>
		<g>
			
				<rect x="297.7" y="574.7" transform="matrix(-1 -1.224647e-16 1.224647e-16 -1 619.2614 1159.7612)" class="st4" width="23.9" height="10.4"/>
		</g>
		<g>
			<rect x="220.7" y="574.7" class="st2" width="68.1" height="10.4"/>
		</g>
		<g>
			
				<rect x="165.5" y="574.7" transform="matrix(-1 -1.224647e-16 1.224647e-16 -1 377.284 1159.7612)" class="st4" width="46.3" height="10.4"/>
		</g>
		<g>
			<rect x="137.6" y="574.7" class="st2" width="19" height="10.4"/>
		</g>
		<g>
			<rect x="246.1" y="591" class="st2" width="75.5" height="10.4"/>
		</g>
		<g>
			
				<rect x="184.9" y="591" transform="matrix(-1 -1.224647e-16 1.224647e-16 -1 422.0544 1192.4425)" class="st4" width="52.3" height="10.4"/>
		</g>
		<g>
			<rect x="139.2" y="591" class="st2" width="36.8" height="10.4"/>
		</g>
		<g>
			<rect x="113.9" y="591" class="st2" width="16.4" height="10.4"/>
		</g>
		<g>
			<rect x="344.1" y="411.3" class="st7" width="15.8" height="10.4"/>
		</g>
		<g>
			<rect x="363.2" y="411.3" class="st8" width="6.6" height="10.4"/>
		</g>
		<g>
			<rect x="373" y="411.3" class="st7" width="21.1" height="10.4"/>
		</g>
		<g>
			<rect x="344.1" y="427.6" class="st8" width="17.5" height="10.4"/>
		</g>
		<g>
			<rect x="364.8" y="427.6" class="st7" width="29.3" height="10.4"/>
		</g>
		<g>
			<rect x="344.1" y="443.9" class="st7" width="27.6" height="10.4"/>
		</g>
		<g>
			<rect x="375" y="443.9" class="st8" width="19.1" height="10.4"/>
		</g>
		<g>
			<rect x="344.1" y="460.3" class="st7" width="20.7" height="10.4"/>
		</g>
		<g>
			<rect x="368.1" y="460.3" class="st8" width="26" height="10.4"/>
		</g>
		<g>
			
				<rect x="363.1" y="476.6" transform="matrix(-1 -1.224647e-16 1.224647e-16 -1 757.1671 963.6735)" class="st8" width="31.1" height="10.4"/>
		</g>
		<g>
			
				<rect x="344.2" y="476.6" transform="matrix(-1 -1.224647e-16 1.224647e-16 -1 703.9956 963.6735)" class="st7" width="15.6" height="10.4"/>
		</g>
		<g>
			
				<rect x="370.1" y="493" transform="matrix(-1 -1.224647e-16 1.224647e-16 -1 764.2523 996.3547)" class="st8" width="24" height="10.4"/>
		</g>
		<g>
			
				<rect x="353.4" y="493" transform="matrix(-1 -1.224647e-16 1.224647e-16 -1 720.325 996.3547)" class="st7" width="13.4" height="10.4"/>
		</g>
		<g>
			
				<rect x="344.2" y="493" transform="matrix(-1 -1.224647e-16 1.224647e-16 -1 694.3807 996.3547)" class="st7" width="6" height="10.4"/>
		</g>
		<g>
			<rect x="344.1" y="509.3" class="st7" width="15.8" height="10.4"/>
		</g>
		<g>
			<rect x="363.2" y="509.3" class="st8" width="6.6" height="10.4"/>
		</g>
		<g>
			<rect x="373" y="509.3" class="st7" width="21.1" height="10.4"/>
		</g>
		<g>
			<rect x="344.2" y="525.6" class="st8" width="17.4" height="10.4"/>
		</g>
		<g>
			<rect x="364.8" y="525.6" class="st7" width="29.3" height="10.4"/>
		</g>
		<g>
			<rect x="344.1" y="542" class="st7" width="27.6" height="10.4"/>
		</g>
		<g>
			<rect x="375" y="542" class="st8" width="19.1" height="10.4"/>
		</g>
		<g>
			<rect x="344.1" y="558.3" class="st7" width="20.7" height="10.4"/>
		</g>
		<g>
			<rect x="368.1" y="558.3" class="st8" width="26" height="10.4"/>
		</g>
		<g>
			
				<rect x="363.1" y="574.7" transform="matrix(-1 -1.224647e-16 1.224647e-16 -1 757.1671 1159.7612)" class="st8" width="31.1" height="10.4"/>
		</g>
		<g>
			
				<rect x="344.2" y="574.7" transform="matrix(-1 -1.224647e-16 1.224647e-16 -1 703.9956 1159.7612)" class="st7" width="15.6" height="10.4"/>
		</g>
		<g>
			
				<rect x="370.1" y="591" transform="matrix(-1 -1.224647e-16 1.224647e-16 -1 764.2523 1192.4425)" class="st8" width="24" height="10.4"/>
		</g>
		<g>
			
				<rect x="353.4" y="591" transform="matrix(-1 -1.224647e-16 1.224647e-16 -1 720.325 1192.4425)" class="st7" width="13.4" height="10.4"/>
		</g>
		<g>
			
				<rect x="344.2" y="591" transform="matrix(-1 -1.224647e-16 1.224647e-16 -1 694.3807 1192.4425)" class="st7" width="6" height="10.4"/>
		</g>
		<g>
			<g>
				<rect x="93.4" y="411.3" class="st2" width="4.6" height="10.4"/>
			</g>
			<g>
				<rect x="93.4" y="427.6" class="st2" width="4.6" height="10.4"/>
			</g>
			<g>
				<rect x="93.4" y="443.9" class="st2" width="4.6" height="10.4"/>
			</g>
			<g>
				<rect x="93.4" y="460.3" class="st2" width="4.6" height="10.4"/>
			</g>
			<g>
				<rect x="93.4" y="476.6" class="st2" width="4.6" height="10.4"/>
			</g>
			<g>
				<rect x="93.4" y="493" class="st2" width="4.6" height="10.4"/>
			</g>
			<g>
				<rect x="93.4" y="509.3" class="st2" width="4.6" height="10.4"/>
			</g>
			<g>
				<rect x="93.4" y="525.6" class="st2" width="4.6" height="10.4"/>
			</g>
			<g>
				<rect x="93.4" y="542" class="st2" width="4.6" height="10.4"/>
			</g>
			<g>
				<rect x="93.4" y="558.3" class="st2" width="4.6" height="10.4"/>
			</g>
			<g>
				<rect x="93.4" y="574.7" class="st2" width="4.6" height="10.4"/>
			</g>
			<g>
				<rect x="93.4" y="591" class="st2" width="4.6" height="10.4"/>
			</g>
		</g>
		<g>
			<g>
				<g>
					<path class="st8" d="M509,651.5c-33.5,0-60.8-27.3-60.8-60.8c0-33.5,27.3-60.8,60.8-60.8c33.5,0,60.8,27.3,60.8,60.8
						C569.9,624.2,542.6,651.5,509,651.5z M509,556.8c-18.7,0-33.9,15.2-33.9,33.9c0,18.7,15.2,33.9,33.9,33.9
						c18.7,0,33.9-15.2,33.9-33.9C543,572,527.7,556.8,509,556.8z"/>
				</g>
			</g>
		</g>
		<g>
			<g>
				<g>
					<path class="st9" d="M576.6,590.7h-40.4c0-15-12.2-27.2-27.2-27.2v-40.4C546.3,523.1,576.6,553.4,576.6,590.7z"/>
				</g>
			</g>
		</g>
		<g>
			<g>
				<g>
					<path class="st0" d="M478.5,590.7l-33.7,0c0-35.4,28.8-64.2,64.2-64.2v33.7C492.2,560.1,478.5,573.8,478.5,590.7z"/>
				</g>
			</g>
		</g>
		<g>
			<g>
				<rect x="579.9" y="498.9" class="st4" width="11.1" height="10.4"/>
			</g>
			<g>
				<rect x="595.1" y="498.9" class="st2" width="31.6" height="10.4"/>
			</g>
			<g>
				<rect x="579.9" y="515.2" class="st2" width="22.2" height="10.4"/>
			</g>
			<g>
				<rect x="606.2" y="515.2" class="st4" width="20.5" height="10.4"/>
			</g>
		</g>
		<g>
			<rect x="1036.3" y="203.6" class="st9" width="348.9" height="167.4"/>
		</g>
		<g>
			<g>
				<path class="st4" d="M1122.2,320.7c-18.4,0-33.4-15-33.4-33.4c0-18.4,15-33.4,33.4-33.4s33.4,15,33.4,33.4
					C1155.5,305.7,1140.6,320.7,1122.2,320.7z M1122.2,254.9c-17.9,0-32.4,14.5-32.4,32.4c0,17.9,14.5,32.4,32.4,32.4
					c17.9,0,32.4-14.5,32.4-32.4C1154.5,269.5,1140,254.9,1122.2,254.9z"/>
			</g>
			<g>
				<path class="st4" d="M1168.3,287.3h-4c0-23.2-18.9-42.1-42.1-42.1v-4C1147.6,241.2,1168.3,261.9,1168.3,287.3z"/>
			</g>
			<g>
				<path class="st4" d="M1086.9,268.2l-7-3.8c8.4-15.6,24.7-25.2,42.3-25.2v8C1107.4,247.2,1093.9,255.2,1086.9,268.2z"/>
			</g>
			<g>
				<path class="st4" d="M1122.2,333.4c-25.4,0-46.1-20.7-46.1-46.1c0-7.7,1.9-15.3,5.5-21.9l3.5,1.9c-3.3,6.1-5.1,13-5.1,20
					c0,23.2,18.9,42.1,42.1,42.1V333.4z"/>
			</g>
			<g>
				<circle class="st4" cx="1122.2" cy="287.3" r="13"/>
			</g>
			<g>
				<path class="st4" d="M1122.2,320.7c-18.4,0-33.4-15-33.4-33.4c0-18.4,15-33.4,33.4-33.4s33.4,15,33.4,33.4
					C1155.5,305.7,1140.6,320.7,1122.2,320.7z M1122.2,254.9c-17.9,0-32.4,14.5-32.4,32.4c0,17.9,14.5,32.4,32.4,32.4
					c17.9,0,32.4-14.5,32.4-32.4C1154.5,269.5,1140,254.9,1122.2,254.9z"/>
			</g>
		</g>
		<g>
			<g>
				
					<rect x="1364.6" y="225.2" transform="matrix(-1 -1.224647e-16 1.224647e-16 -1 2734.9609 455.9687)" class="st3" width="5.7" height="5.7"/>
			</g>
			<g>
				
					<rect x="1355.4" y="225.2" transform="matrix(-1 -1.224647e-16 1.224647e-16 -1 2716.5437 455.9687)" class="st3" width="5.7" height="5.7"/>
			</g>
			<g>
				
					<rect x="1320.5" y="225.2" transform="matrix(-1 -1.224647e-16 1.224647e-16 -1 2672.4226 455.9687)" class="st3" width="31.4" height="5.7"/>
			</g>
		</g>
		<g>
			<g>
				
					<rect x="1364.6" y="243.8" transform="matrix(-1 -1.224647e-16 1.224647e-16 -1 2734.9609 493.2331)" class="st3" width="5.7" height="5.7"/>
			</g>
			<g>
				
					<rect x="1355.4" y="243.8" transform="matrix(-1 -1.224647e-16 1.224647e-16 -1 2716.5437 493.2331)" class="st3" width="5.7" height="5.7"/>
			</g>
			<g>
				
					<rect x="1320.5" y="243.8" transform="matrix(-1 -1.224647e-16 1.224647e-16 -1 2672.4226 493.2331)" class="st3" width="31.4" height="5.7"/>
			</g>
		</g>
		<g>
			<g>
				
					<rect x="1364.6" y="262.4" transform="matrix(-1 -1.224647e-16 1.224647e-16 -1 2734.9609 530.4973)" class="st3" width="5.7" height="5.7"/>
			</g>
			<g>
				
					<rect x="1355.4" y="262.4" transform="matrix(-1 -1.224647e-16 1.224647e-16 -1 2716.5437 530.4973)" class="st3" width="5.7" height="5.7"/>
			</g>
			<g>
				
					<rect x="1320.5" y="262.4" transform="matrix(-1 -1.224647e-16 1.224647e-16 -1 2672.4226 530.4973)" class="st3" width="31.4" height="5.7"/>
			</g>
		</g>
		<g>
			<g>
				
					<rect x="1364.6" y="281" transform="matrix(-1 -1.224647e-16 1.224647e-16 -1 2734.9609 567.7617)" class="st3" width="5.7" height="5.7"/>
			</g>
			<g>
				
					<rect x="1355.4" y="281" transform="matrix(-1 -1.224647e-16 1.224647e-16 -1 2716.5437 567.7617)" class="st3" width="5.7" height="5.7"/>
			</g>
			<g>
				
					<rect x="1320.5" y="281" transform="matrix(-1 -1.224647e-16 1.224647e-16 -1 2672.4226 567.7617)" class="st3" width="31.4" height="5.7"/>
			</g>
		</g>
		<g>
			<g>
				<g>
					<path class="st3" d="M1203.5,286.6h-7.2v-7.2c0-0.3,0.2-0.6,0.6-0.6s0.6,0.2,0.6,0.6v6.1h6.1c0.3,0,0.6,0.2,0.6,0.6
						C1204,286.3,1203.8,286.6,1203.5,286.6z"/>
				</g>
			</g>
			<g>
				<g>
					<path class="st3" d="M1282.9,286.6h-13.2c-0.3,0-0.6-0.2-0.6-0.6c0-0.3,0.2-0.6,0.6-0.6h13.2c0.3,0,0.6,0.2,0.6,0.6
						C1283.5,286.3,1283.2,286.6,1282.9,286.6z M1256.4,286.6h-13.2c-0.3,0-0.6-0.2-0.6-0.6c0-0.3,0.2-0.6,0.6-0.6h13.2
						c0.3,0,0.6,0.2,0.6,0.6C1257,286.3,1256.7,286.6,1256.4,286.6z M1229.9,286.6h-13.2c-0.3,0-0.6-0.2-0.6-0.6
						c0-0.3,0.2-0.6,0.6-0.6h13.2c0.3,0,0.6,0.2,0.6,0.6C1230.5,286.3,1230.3,286.6,1229.9,286.6z"/>
				</g>
			</g>
			<g>
				<g>
					<path class="st3" d="M1303.4,286.6h-7.2c-0.3,0-0.6-0.2-0.6-0.6c0-0.3,0.2-0.6,0.6-0.6h6.1v-6.1c0-0.3,0.2-0.6,0.6-0.6
						s0.6,0.2,0.6,0.6V286.6z"/>
				</g>
			</g>
			<g>
				<g>
					<path class="st3" d="M1302.8,264.2c-0.3,0-0.6-0.2-0.6-0.6V248c0-0.3,0.2-0.6,0.6-0.6s0.6,0.2,0.6,0.6v15.7
						C1303.4,264,1303.1,264.2,1302.8,264.2z"/>
				</g>
			</g>
			<g>
				<g>
					<path class="st3" d="M1302.8,232.9c-0.3,0-0.6-0.2-0.6-0.6v-6.1h-6.1c-0.3,0-0.6-0.2-0.6-0.6c0-0.3,0.2-0.6,0.6-0.6h7.2v7.2
						C1303.4,232.7,1303.1,232.9,1302.8,232.9z"/>
				</g>
			</g>
			<g>
				<g>
					<path class="st3" d="M1282.9,226.3h-13.2c-0.3,0-0.6-0.2-0.6-0.6c0-0.3,0.2-0.6,0.6-0.6h13.2c0.3,0,0.6,0.2,0.6,0.6
						C1283.5,226,1283.2,226.3,1282.9,226.3z M1256.4,226.3h-13.2c-0.3,0-0.6-0.2-0.6-0.6c0-0.3,0.2-0.6,0.6-0.6h13.2
						c0.3,0,0.6,0.2,0.6,0.6C1257,226,1256.7,226.3,1256.4,226.3z M1229.9,226.3h-13.2c-0.3,0-0.6-0.2-0.6-0.6
						c0-0.3,0.2-0.6,0.6-0.6h13.2c0.3,0,0.6,0.2,0.6,0.6C1230.5,226,1230.3,226.3,1229.9,226.3z"/>
				</g>
			</g>
			<g>
				<g>
					<path class="st3" d="M1196.8,232.9c-0.3,0-0.6-0.2-0.6-0.6v-7.2h7.2c0.3,0,0.6,0.2,0.6,0.6c0,0.3-0.2,0.6-0.6,0.6h-6.1v6.1
						C1197.4,232.7,1197.1,232.9,1196.8,232.9z"/>
				</g>
			</g>
			<g>
				<g>
					<path class="st3" d="M1196.8,264.2c-0.3,0-0.6-0.2-0.6-0.6V248c0-0.3,0.2-0.6,0.6-0.6s0.6,0.2,0.6,0.6v15.7
						C1197.4,264,1197.1,264.2,1196.8,264.2z"/>
				</g>
			</g>
		</g>
		<g>
			<rect x="1195.9" y="296.6" class="st3" width="41.4" height="12.7"/>
		</g>
		<g>
			<rect x="1195.9" y="322.3" class="st3" width="20.7" height="3.3"/>
		</g>
		<g>
			<rect x="1195.9" y="331.9" class="st3" width="20.7" height="3.3"/>
		</g>
		<g>
			<rect x="1195.9" y="341.6" class="st3" width="20.7" height="3.3"/>
		</g>
		<g>
			<polygon class="st10" points="395.4,1044.9 216.4,1044.9 216.4,830.1 354.4,830.1 395.4,871.2 			"/>
		</g>
		<g>
			<polygon class="st2" points="354.4,871.2 395.4,871.2 354.4,830.1 			"/>
		</g>
		<g class="st5">
			<rect x="142.1" y="958.9" class="st6" width="148.7" height="78"/>
		</g>
		<g>
			<rect x="132.1" y="948.9" class="st9" width="148.7" height="78"/>
		</g>
		<g>
			<g>
				<rect x="304.1" y="900.6" class="st2" width="19.5" height="12.8"/>
			</g>
			<g>
				<rect x="327.5" y="900.6" class="st8" width="8.1" height="12.8"/>
			</g>
			<g>
				<rect x="339.6" y="900.6" class="st2" width="26" height="12.8"/>
			</g>
			<g>
				<rect x="304.1" y="920.8" class="st8" width="21.5" height="12.8"/>
			</g>
			<g>
				<rect x="329.6" y="920.8" class="st2" width="36" height="12.8"/>
			</g>
			<g>
				<rect x="304.1" y="940.9" class="st2" width="34" height="12.8"/>
			</g>
			<g>
				<rect x="342.1" y="940.9" class="st8" width="23.6" height="12.8"/>
			</g>
			<g>
				<rect x="304.1" y="961" class="st2" width="25.5" height="12.8"/>
			</g>
			<g>
				<rect x="333.6" y="961" class="st8" width="32" height="12.8"/>
			</g>
			<g>
				
					<rect x="327.4" y="981.1" transform="matrix(-1 -1.224647e-16 1.224647e-16 -1 692.9912 1975.1202)" class="st8" width="38.2" height="12.8"/>
			</g>
			<g>
				
					<rect x="304.1" y="981.1" transform="matrix(-1 -1.224647e-16 1.224647e-16 -1 627.5101 1975.1202)" class="st2" width="19.2" height="12.8"/>
			</g>
			<g>
				
					<rect x="336.1" y="1001.3" transform="matrix(-1 -1.224647e-16 1.224647e-16 -1 701.7167 2015.3674)" class="st8" width="29.5" height="12.8"/>
			</g>
			<g>
				
					<rect x="315.5" y="1001.3" transform="matrix(-1 -1.224647e-16 1.224647e-16 -1 647.6198 2015.3674)" class="st2" width="16.6" height="12.8"/>
			</g>
			<g>
				
					<rect x="304.1" y="1001.3" transform="matrix(-1 -1.224647e-16 1.224647e-16 -1 615.6693 2015.3674)" class="st2" width="7.4" height="12.8"/>
			</g>
		</g>
		<g>
			<polygon class="st10" points="1572.5,494.5 1572.5,792 1213.5,792 1176.5,840.6 1176.5,792 1107.8,792 1107.8,494.5 			"/>
		</g>
		<g>
			
				<rect x="1107.8" y="494.5" transform="matrix(-1 -1.224647e-16 1.224647e-16 -1 2680.2456 1025.3536)" class="st2" width="464.7" height="36.4"/>
		</g>
		<g>
			<path class="st3" d="M1550.4,512.7c0,3.2,2.6,5.8,5.8,5.8s5.8-2.6,5.8-5.8c0-3.2-2.6-5.8-5.8-5.8S1550.4,509.5,1550.4,512.7z"/>
		</g>
		<g>
			<path class="st3" d="M1527.9,512.7c0,3.2,2.6,5.8,5.8,5.8c3.2,0,5.8-2.6,5.8-5.8c0-3.2-2.6-5.8-5.8-5.8
				C1530.5,506.9,1527.9,509.5,1527.9,512.7z"/>
		</g>
		<g>
			<path class="st3" d="M1505.5,512.7c0,3.2,2.6,5.8,5.8,5.8s5.8-2.6,5.8-5.8c0-3.2-2.6-5.8-5.8-5.8S1505.5,509.5,1505.5,512.7z"/>
		</g>
		<g>
			<g>
				<rect x="1379.2" y="566.8" class="st2" width="33.3" height="26.7"/>
			</g>
			<g>
				<rect x="1419.4" y="566.8" class="st4" width="13.8" height="26.7"/>
			</g>
			<g>
				<rect x="1440.1" y="566.8" class="st2" width="13.8" height="26.7"/>
			</g>
			<g>
				<rect x="1524.9" y="566.8" class="st8" width="13.8" height="26.7"/>
			</g>
			<g>
				<rect x="1460.9" y="566.8" class="st8" width="57.1" height="26.7"/>
			</g>
			<g>
				<rect x="1526.8" y="692.4" class="st8" width="11.9" height="26.7"/>
			</g>
			<g>
				<rect x="1471.6" y="692.4" class="st8" width="49.3" height="26.7"/>
			</g>
			<g>
				<rect x="1397.6" y="608.7" class="st4" width="18.4" height="26.7"/>
			</g>
			<g>
				<rect x="1379.2" y="608.7" class="st8" width="11.4" height="26.7"/>
			</g>
			<g>
				<rect x="1422.9" y="608.7" class="st2" width="52.5" height="26.7"/>
			</g>
			<g>
				<rect x="1482.3" y="608.7" class="st4" width="35.7" height="26.7"/>
			</g>
			<g>
				<rect x="1524.9" y="608.7" class="st2" width="14.6" height="26.7"/>
			</g>
			<g>
				<rect x="1379.2" y="650.6" class="st2" width="58.2" height="26.7"/>
			</g>
			<g>
				<rect x="1444.3" y="650.6" class="st4" width="40.4" height="26.7"/>
			</g>
			<g>
				<rect x="1491.5" y="650.6" class="st2" width="28.4" height="26.7"/>
			</g>
			<g>
				<rect x="1526.8" y="650.6" class="st2" width="12.6" height="26.7"/>
			</g>
			<g>
				<rect x="1379.2" y="692.4" class="st2" width="43.7" height="26.7"/>
			</g>
			<g>
				<rect x="1429.8" y="692.4" class="st4" width="34.7" height="26.7"/>
			</g>
		</g>
		<g>
			<g>
				<path class="st3" d="M1265.6,647l-6,27.8h23v22.6h-27.8l-6.5,30.7h-24l6.5-30.7h-32.9l-6.5,30.7h-23.9l6.5-30.7h-27.3v-22.6
					h32.2l6-27.8h-27.1v-22.6h32l6.3-30h23.9l-6.3,30h32.9l6.3-30h24l-6.3,30h23.1V647H1265.6z M1241.5,647h-32.9l-6,27.8h32.9
					L1241.5,647z"/>
			</g>
		</g>
		<g>
			<g>
				<g>
					<polygon class="st11" points="729.8,303.6 729.8,461.6 901.5,461.6 923.1,490 923.1,461.6 963.3,461.6 963.3,303.6 					"/>
				</g>
			</g>
			<g>
				<g>
					<g>
						<path class="st2" d="M784.1,412.7l-29.2-30.1l29.2-30.1h23.6l-29.2,30.1l29.2,30.1H784.1z"/>
					</g>
					<g>
						<path class="st2" d="M885.3,352.5H909l29.2,30.1L909,412.7h-23.7l29.4-30.1L885.3,352.5z"/>
					</g>
				</g>
				<g>
					<polygon class="st2" points="822.7,412.7 841.6,412.7 870.4,352.5 851.5,352.5 					"/>
				</g>
			</g>
		</g>
		<g class="st5">
			<rect x="1241.4" y="342.1" class="st6" width="186.3" height="83.9"/>
		</g>
		<g>
			<rect x="1231.4" y="332.1" class="st4" width="186.3" height="83.9"/>
		</g>
		<g>
			<g>
				<path class="st3" d="M1279,356v25.2c0,3.5-1,6.2-3,8.1c-2,1.9-4.7,2.9-8.1,2.9c-3.4,0-6.2-1-8.3-3c-2.1-2-3.2-4.8-3.2-8.3h7.2
					c0,1.5,0.4,2.7,1.1,3.6c0.7,0.9,1.7,1.3,3.1,1.3c1.3,0,2.3-0.4,3-1.2c0.7-0.8,1-2,1-3.4V356H1279z"/>
			</g>
			<g>
				<path class="st3" d="M1309.4,385h-14.3l-2.4,6.8h-7.5l12.9-35.9h8.4l12.9,35.9h-7.6L1309.4,385z M1307.4,379.2l-5.2-15l-5.2,15
					H1307.4z"/>
			</g>
			<g>
				<path class="st3" d="M1356.4,356l-13.1,35.8h-8.7l-13.1-35.8h7.7l9.9,28.5l9.8-28.5H1356.4z"/>
			</g>
			<g>
				<path class="st3" d="M1382.6,385h-14.3l-2.4,6.8h-7.5l12.9-35.9h8.4l12.9,35.9h-7.6L1382.6,385z M1380.7,379.2l-5.2-15l-5.2,15
					H1380.7z"/>
			</g>
		</g>
		<g>
			<g>
				<path class="st3" d="M201.6,969.5v25.6c0,3.6-1,6.3-3.1,8.3c-2.1,2-4.8,3-8.3,3c-3.5,0-6.3-1-8.4-3c-2.1-2-3.2-4.8-3.2-8.5h7.3
					c0,1.6,0.4,2.8,1.1,3.7c0.7,0.9,1.8,1.3,3.1,1.3c1.3,0,2.3-0.4,3-1.3c0.7-0.8,1-2,1-3.4v-25.6H201.6z"/>
			</g>
		</g>
		<g>
			<g>
				<rect x="590.4" class="st10" width="346.3" height="124.3"/>
			</g>
		</g>
		<g class="st5">
			<g>
				<rect x="767.3" y="102.7" class="st6" width="153.6" height="135"/>
			</g>
		</g>
		<g>
			<g>
				<rect x="757.3" y="92.7" class="st3" width="153.6" height="135"/>
			</g>
		</g>
		<g>
			<path class="st9" d="M862.7,133.1H858c-1.3-12.1-11.5-21.6-24-21.6c-12.5,0-22.7,9.5-24,21.6h-4.7c-11.9,0-21.5,9.6-21.5,21.5v0
				c0,11.9,9.6,21.5,21.5,21.5h57.3c11.9,0,21.5-9.6,21.5-21.5v0C884.2,142.7,874.6,133.1,862.7,133.1z"/>
		</g>
		<g>
			<polygon class="st3" points="842.2,186.1 842.2,162.1 825.9,162.1 825.9,186.1 811.2,186.1 834,208.9 856.8,186.1 			"/>
		</g>
		<g>
			<path class="st4" d="M834,209.6l-24-24h15.3v-24h17.3v24h15.3L834,209.6z"/>
		</g>
		<g>
			<g>
				<g>
					<polygon class="st2" points="682.2,59.2 682.2,21.1 662.3,21.1 662.3,59.2 644.5,59.2 672.3,87 700.1,59.2 					"/>
				</g>
			</g>
			<g>
				<g>
					<polygon class="st2" points="716.6,103.1 627.9,103.1 627.9,83.3 635.2,83.3 635.2,95.9 709.4,95.9 709.4,83.3 716.6,83.3 
											"/>
				</g>
			</g>
		</g>
		<g>
			<rect x="757.3" y="59.5" class="st0" width="153.6" height="12.3"/>
		</g>
		<g>
			<rect x="757.3" y="32" class="st4" width="95.4" height="12.3"/>
		</g>
		<g>
			<g>
				<rect x="246.6" y="122.8" class="st4" width="298.5" height="156"/>
			</g>
			<g>
				<g class="st5">
					<rect x="406.4" y="101.1" class="st6" width="124.8" height="124.8"/>
				</g>
				<g>
					<rect x="396.3" y="91.1" class="st9" width="124.8" height="124.8"/>
				</g>
				<g>
					<g>
						<path class="st3" d="M486,134l-2.5-3.5l-7,5.1l2.5,3.5c7.1,9.9,6,23.4-2.6,32c-4.1,4.1-9.5,6.6-15.2,7.2l1.8-5.6l-21.1,4.6
							l14.6,16l2-6.2c0.2,0,0.3,0,0.5,0c8.9,0,17.4-3.5,23.7-9.8c5.7-5.7,9.1-13.1,9.7-21.1C492.7,148.2,490.5,140.3,486,134z"/>
					</g>
					<g>
						<path class="st4" d="M456.4,128.8l-1.8,5.6l21.1-4.6l-14.6-16l-2,6.2c-9-0.1-17.7,3.4-24.1,9.8c-5.7,5.7-9.1,13.2-9.7,21.1
							c-0.6,7.9,1.6,15.7,6.2,22.1l7-5.1c-7.1-9.9-6-23.4,2.6-32C445.3,131.8,450.7,129.3,456.4,128.8z"/>
					</g>
				</g>
			</g>
			<g>
				<rect x="274.6" y="235.8" class="st3" width="246.6" height="19.6"/>
			</g>
			<g>
				<g>
					<rect x="274.6" y="138.1" class="st3" width="27.7" height="10.4"/>
				</g>
				<g>
					<rect x="308" y="138.1" class="st3" width="11.5" height="10.4"/>
				</g>
				<g>
					<rect x="325.2" y="138.1" class="st3" width="37.1" height="10.4"/>
				</g>
				<g>
					<rect x="274.6" y="154.4" class="st3" width="30.6" height="10.4"/>
				</g>
				<g>
					<rect x="310.9" y="154.4" class="st3" width="51.4" height="10.4"/>
				</g>
				<g>
					<rect x="274.6" y="170.8" class="st3" width="48.4" height="10.4"/>
				</g>
				<g>
					<rect x="328.7" y="170.8" class="st3" width="33.6" height="10.4"/>
				</g>
				<g>
					<rect x="274.6" y="187.1" class="st3" width="36.4" height="10.4"/>
				</g>
				<g>
					<rect x="316.7" y="187.1" class="st3" width="45.6" height="10.4"/>
				</g>
				<g>
					
						<rect x="307.8" y="203.5" transform="matrix(-1 -1.224647e-16 1.224647e-16 -1 670.0563 417.3375)" class="st3" width="54.5" height="10.4"/>
				</g>
				<g>
					
						<rect x="274.7" y="203.5" transform="matrix(-1 -1.224647e-16 1.224647e-16 -1 576.7348 417.3375)" class="st3" width="27.4" height="10.4"/>
				</g>
			</g>
		</g>
		<g class="st5">
			<rect x="1389.2" y="758.2" class="st6" width="218.7" height="97.7"/>
		</g>
		<g>
			<rect x="1379.2" y="748.2" class="st9" width="218.7" height="97.7"/>
		</g>
		<g>
			<g>
				<path class="st3" d="M1443.4,774.6v44.9h-9v-19.1h-19.2v19.1h-9v-44.9h9V793h19.2v-18.5H1443.4z"/>
			</g>
			<g>
				<path class="st3" d="M1482.8,774.6v7.3h-12v37.6h-9v-37.6h-12v-7.3H1482.8z"/>
			</g>
			<g>
				<path class="st3" d="M1538.3,774.6v44.9h-9v-29.2l-12,29.2h-6.8l-12.1-29.2v29.2h-9v-44.9h10.2l14.3,33.4l14.3-33.4H1538.3z"/>
			</g>
			<g>
				<path class="st3" d="M1556.2,812.3h14.8v7.1h-23.8v-44.9h9V812.3z"/>
			</g>
		</g>
		<g>
			<g>
				<rect x="1274.6" y="898.8" class="st1" width="371.3" height="117.8"/>
			</g>
			<g>
				<g>
					<rect x="1333.9" y="912.7" class="st2" width="26.2" height="10.2"/>
				</g>
				<g>
					<rect x="1296" y="912.7" class="st2" width="10.2" height="10.2"/>
				</g>
				<g>
					<rect x="1296" y="928.7" class="st2" width="10.2" height="10.2"/>
				</g>
				<g>
					<rect x="1296" y="944.8" class="st2" width="10.2" height="10.2"/>
				</g>
				<g>
					<rect x="1296" y="960.8" class="st2" width="10.2" height="10.2"/>
				</g>
				<g>
					<rect x="1333.9" y="928.7" class="st10" width="26.2" height="10.2"/>
				</g>
				<g>
					<rect x="1333.9" y="944.8" class="st2" width="26.2" height="10.2"/>
				</g>
				<g>
					<rect x="1333.9" y="960.8" class="st10" width="26.2" height="10.2"/>
				</g>
				<g>
					<g>
						<rect x="1296" y="996.2" class="st4" width="4.5" height="6.6"/>
					</g>
					<g>
						<rect x="1305.5" y="996.2" class="st4" width="4.5" height="6.6"/>
					</g>
					<g>
						<rect x="1315" y="996.2" class="st4" width="4.5" height="6.6"/>
					</g>
					<g>
						<rect x="1324.5" y="996.2" class="st4" width="4.5" height="6.6"/>
					</g>
					<g>
						<rect x="1334" y="996.2" class="st4" width="4.5" height="6.6"/>
					</g>
					<g>
						<rect x="1343.6" y="996.2" class="st10" width="4.5" height="6.6"/>
					</g>
					<g>
						<rect x="1353.1" y="996.2" class="st10" width="4.5" height="6.6"/>
					</g>
					<g>
						<rect x="1362.6" y="996.2" class="st10" width="4.5" height="6.6"/>
					</g>
				</g>
				<g>
					<rect x="1376.5" y="912.7" class="st2" width="51.6" height="10.2"/>
				</g>
				<g>
					<rect x="1438.7" y="912.7" class="st10" width="21.4" height="10.2"/>
				</g>
				<g>
					<rect x="1470.7" y="912.7" class="st2" width="21.4" height="10.2"/>
				</g>
				<g>
					<rect x="1376.5" y="928.7" class="st4" width="28.5" height="10.2"/>
				</g>
				<g>
					<rect x="1415.6" y="928.7" class="st2" width="81.3" height="10.2"/>
				</g>
				<g>
					<rect x="1507.6" y="928.7" class="st10" width="55.3" height="10.2"/>
				</g>
				<g>
					<rect x="1573.5" y="928.7" class="st2" width="22.6" height="10.2"/>
				</g>
				<g>
					<rect x="1376.5" y="944.8" class="st2" width="90.1" height="10.2"/>
				</g>
				<g>
					<rect x="1477.2" y="944.8" class="st4" width="62.5" height="10.2"/>
				</g>
				<g>
					<rect x="1550.3" y="944.8" class="st2" width="43.9" height="10.2"/>
				</g>
				<g>
					<rect x="1604.9" y="944.8" class="st2" width="19.6" height="10.2"/>
				</g>
				<g>
					<rect x="1376.5" y="960.8" class="st2" width="67.7" height="10.2"/>
				</g>
				<g>
					<rect x="1454.8" y="960.8" class="st10" width="53.7" height="10.2"/>
				</g>
			</g>
		</g>
		<g class="st5">
			<rect x="1536.5" y="989.2" class="st6" width="142.1" height="98.1"/>
		</g>
		<g>
			<rect x="1526.5" y="979.2" class="st0" width="142.1" height="98.1"/>
		</g>
		<g>
			<path class="st3" d="M1609.2,1015.2v-9.7c0-6.2-5.2-11.3-11.6-11.3c-6.4,0-11.6,5.1-11.6,11.3v9.7h-12.6v47h48.4v-47H1609.2z
				 M1587.6,1005.5c0-5.3,4.5-9.7,9.9-9.7c5.5,0,9.9,4.3,9.9,9.7v9.7h-19.9V1005.5z M1601.6,1038.2c-1.3,0.9-2.1,2.4-2.1,3.9v0.3
				c0,1.1,0.4,2.1,1.1,3c0.5,0.6,0.8,1.4,0.8,2.3c0,2.3-2.2,4.2-4.7,3.6c-1.3-0.3-2.5-1.3-2.8-2.6c-0.3-1.2,0-2.4,0.7-3.3
				c0.7-0.8,0.9-1.9,0.9-2.9v-0.5c0-1.5-0.8-2.9-2.1-3.9c-1.9-1.4-2.9-3.8-2.4-6.4c0.5-2.4,2.5-4.5,5-5c4.4-1,8.3,2.2,8.3,6.3
				C1604.3,1035.1,1603.2,1037,1601.6,1038.2z"/>
		</g>
		<g>
			<g>
				<path class="st3" d="M217.8,1005.6c-2.1-0.9-3.7-2.2-4.9-3.8c-1.2-1.7-1.8-3.6-1.9-5.9h8c0.1,1.5,0.6,2.7,1.6,3.6
					c1,0.9,2.3,1.3,4,1.3c1.7,0,3.1-0.4,4.1-1.3c1-0.8,1.5-1.9,1.5-3.3c0-1.1-0.3-2-1-2.7c-0.7-0.7-1.5-1.3-2.5-1.7
					c-1-0.4-2.4-0.9-4.2-1.4c-2.4-0.7-4.4-1.4-5.9-2.1c-1.5-0.7-2.8-1.7-3.9-3.1c-1.1-1.4-1.6-3.3-1.6-5.6c0-2.2,0.6-4.1,1.7-5.8
					c1.1-1.6,2.6-2.9,4.6-3.8c2-0.9,4.3-1.3,6.8-1.3c3.8,0,7,0.9,9.4,2.8c2.4,1.9,3.7,4.5,4,7.8h-8.2c-0.1-1.3-0.6-2.3-1.6-3.2
					c-1-0.8-2.4-1.3-4-1.3c-1.5,0-2.6,0.4-3.5,1.1c-0.9,0.7-1.3,1.8-1.3,3.3c0,1,0.3,1.8,1,2.5c0.7,0.7,1.5,1.2,2.5,1.6
					c1,0.4,2.4,0.9,4.1,1.4c2.4,0.7,4.4,1.4,5.9,2.1c1.5,0.7,2.8,1.8,3.9,3.2c1.1,1.4,1.7,3.3,1.7,5.6c0,2-0.5,3.8-1.5,5.5
					c-1,1.7-2.5,3.1-4.5,4.1c-2,1-4.4,1.5-7.1,1.5C222.3,1007,219.9,1006.5,217.8,1005.6z"/>
			</g>
		</g>
		<g>
			<path class="st12" d="M774.8,861l1.6,64.7c0,0,32,55.4,83.4,108.8c0,0,64.7-34.4,109.3-132.3l-1.8-41.2H774.8z"/>
		</g>
		<g>
			<path class="st12" d="M876,930.2L876,930.2c-66.9,0-118.2-54.3-118.2-121.2l-3-148.1c0-66.9,54.3-121.2,121.2-121.2h0
				c66.9,0,121.2,54.3,121.2,121.2l-2,148.1C995.2,875.9,943,930.2,876,930.2z"/>
		</g>
		<g>
			<circle class="st13" cx="941" cy="744.9" r="10.9"/>
		</g>
		<g>
			<circle class="st13" cx="826.5" cy="744.9" r="10.9"/>
		</g>
		<g>
			<path class="st14" d="M904,842.3c-2.9,6.3-7.9,11.1-14.2,14.3c-1.6,0.9-3.3,1.4-5,2c-1.8,0.4-3.6,0.9-5.5,1.1
				c-3.7,0.4-7.6,0.2-11.3-0.8c-7.5-2-13.7-6.7-17.8-12.3c-2-2.8-3.7-5.9-4.7-9.1c-1-3.2-1.7-6.6-1.5-10.1c3.4,2.3,6.5,4.4,9.4,6.3
				c1.9,1.3,3.8,2.5,5.7,3.6c4.6,2.7,8.9,4.6,13.1,5.7c2.1,0.6,4.3,0.9,6.6,1.1c1.1,0.1,2.3,0.1,3.5,0.2c1.2-0.1,2.5,0,3.8-0.1
				c2.6-0.1,5.4-0.4,8.4-0.8C897.4,843.1,900.5,842.7,904,842.3z"/>
		</g>
		<g>
			<path class="st3" d="M898.7,844.3c-1.5,1.2-3.2,2.2-5,3.1c-1.6,0.9-3.5,1.5-5.3,2.2c-1.9,0.5-3.8,1-5.8,1.2
				c-4,0.5-8.2,0.2-12.1-0.9c-8-2.1-14.7-7.2-18.9-13.2c-1-1.3-1.8-2.7-2.5-4.1c2.3,1.6,4.6,3,6.8,4.3c5.6,3.3,10.8,5.6,15.9,6.9
				c2.6,0.7,5.2,1.1,8,1.3c1.4,0.2,2.8,0.1,4.3,0.2c1.5-0.1,3,0,4.6-0.1C891.8,845.1,895.1,844.7,898.7,844.3z"/>
		</g>
		<g>
			<path class="st13" d="M972.6,711.2c-6.9-0.4-12.2-0.9-17.3-1.1c-5-0.2-9.5-0.4-14.1-0.2c-0.6,0-1.1,0-1.7,0l-1.7,0.1
				c-0.6,0-1.1,0-1.7,0c-0.6,0-1.2,0.1-1.7,0.1c-1.2,0.1-2.4,0.1-3.6,0.1c-1.2,0.1-2.5,0.2-3.7,0.2c-0.6,0-1.3,0-2,0.1
				c-0.6,0.1-1.3,0.1-2,0.2c-1.3,0.1-2.8,0.2-4.2,0.2c-2.9,0.2-5.9,0.4-9.5,0.3c0.6-1.1,1.3-2.2,2.2-3.3c0.9-1,1.7-2.1,2.8-2.9
				c1.1-0.9,2.2-1.7,3.5-2.5c0.6-0.4,1.2-0.8,1.9-1.2c0.7-0.3,1.4-0.7,2.1-1c1.4-0.6,2.9-1.2,4.3-1.8c1.5-0.5,3.1-0.9,4.8-1.2
				c0.8-0.2,1.6-0.4,2.5-0.5l2.5-0.3c1.7-0.1,3.4-0.4,5.1-0.3c6.9-0.1,13.8,1.3,19.5,3.8c0.7,0.3,1.4,0.7,2.1,1
				c0.7,0.4,1.3,0.7,2,1.1c1.2,0.8,2.4,1.7,3.5,2.6C970,706.7,971.8,708.8,972.6,711.2z"/>
		</g>
		<g>
			<path class="st13" d="M858.9,711.2c-7.1-0.4-12.5-0.9-17.8-1.1c-5.2-0.2-9.8-0.4-14.4-0.2c-0.6,0-1.2,0-1.7,0l-1.7,0.1
				c-0.6,0-1.2,0-1.8,0c-0.6,0-1.2,0.1-1.8,0.1c-1.2,0.1-2.4,0.1-3.7,0.1c-1.2,0.1-2.5,0.2-3.8,0.2c-0.6,0-1.3,0-2,0.1
				c-0.7,0.1-1.3,0.1-2,0.2c-1.4,0.1-2.8,0.2-4.3,0.2c-3,0.2-6,0.4-9.8,0.3c0.6-1.1,1.4-2.2,2.2-3.3c0.9-1,1.8-2.1,2.9-2.9
				c1.1-0.9,2.3-1.7,3.6-2.5c0.6-0.4,1.3-0.8,1.9-1.2c0.7-0.3,1.4-0.7,2.1-1c1.4-0.6,2.9-1.2,4.5-1.8c1.6-0.5,3.2-0.9,4.9-1.2
				c0.8-0.2,1.7-0.4,2.5-0.5l2.6-0.3c1.7-0.1,3.5-0.4,5.3-0.3c7.1-0.1,14.2,1.3,20,3.8c0.8,0.3,1.4,0.7,2.1,1c0.7,0.4,1.4,0.7,2,1.1
				c1.3,0.8,2.5,1.7,3.6,2.6C856.3,706.7,858.1,708.8,858.9,711.2z"/>
		</g>
		<g>
			<g>
				<path class="st12" d="M1001.5,804.5h-6.3c-12.5,0-22.5-10.1-22.5-22.5v-40.3c0-12.5,10.1-22.5,22.5-22.5h6.3
					c12.5,0,22.5,10.1,22.5,22.5v40.3C1024,794.4,1013.9,804.5,1001.5,804.5z"/>
			</g>
		</g>
		<g>
			<g>
				<path class="st12" d="M750.4,804.5h6.3c12.5,0,22.5-10.1,22.5-22.5v-40.3c0-12.5-10.1-22.5-22.5-22.5h-6.3
					c-12.5,0-22.5,10.1-22.5,22.5v40.3C727.9,794.4,737.9,804.5,750.4,804.5z"/>
			</g>
		</g>
		<g>
			<g>
				<path class="st13" d="M1001.1,630.3c0,0,10.4,36.6-4,88.8l-8.4,43.8c0,0,5.6-54.3-14.2-103.1
					C974.5,659.9,988.2,649.5,1001.1,630.3z"/>
			</g>
		</g>
		<g>
			<g>
				<path class="st13" d="M752,630.4c0,0-10.4,36.6,4,88.8l8.4,43.8c0,0-5.6-54.3,14.2-103.1C778.7,659.9,765,649.5,752,630.4z"/>
			</g>
		</g>
		<path class="st15" d="M804,626c0,0-15.2,47.3-32.8,46.8l7.6-12.9c0,0-36.4-33.3-42.6-36.8l15.9-12.8c0,0-24.4-24.4-26.5-31
			c-2.1-6.6,20,12.2,26.6,9.3l-6.7-21.8c0,0,15.2,10.2,18.1,9.4c2.9-0.9,26.4-37.3,70.8-49l-10.5,12.6c0,0,79.4-26,100.2-24.8
			l-15.7,11.6c0,0,61.7,24.1,85.5,6.5c0,0-22,21.9-31.6,21.9c0,0,48.1,39.2,61.6,28.2c0,0-12.5,17.6-34.4,17.5c0,0,21.6,30,31,33.9
			l-26.6,14.3l-19.4,11c0,0-63.7-30.5-66.8-33.8c0,0,16.5,21.7,22.3,22.9c0,0-100.9-29.8-103.6-33.2"/>
		<g class="st16">
			<path class="st17" d="M752.9,1002.9l18.2-21c0,0,21.3-0.4,38.9,12.8l25.2,20.2C835.2,1014.8,798.6,988.7,752.9,1002.9z"/>
		</g>
		<g class="st16">
			<path class="st17" d="M907.7,1008.2l17.8-22.8c0,0,19.3,2.2,39.1,13.7C964.6,999.2,939.8,990.3,907.7,1008.2z"/>
		</g>
		<g class="st16">
			<path class="st17" d="M1262.5,1293.8c0,0,20.5-53.1,56.8-71.6C1319.3,1222.1,1245.8,1249,1262.5,1293.8z"/>
		</g>
		<g class="st16">
			<path class="st17" d="M494.8,1285.9c0,0-22.6-52.3-66.1-69.7C428.7,1216.2,496.5,1236.1,494.8,1285.9z"/>
		</g>
		<g class="st16">
			<path class="st17" d="M395.5,1268.6c0,0-128.7,0-97,105.6C298.5,1374.2,292.5,1292.3,395.5,1268.6z"/>
		</g>
		<g class="st16">
			<path class="st17" d="M1468.4,1326.3c0,0-44.1-115.6-162.2-49.9C1306.2,1276.4,1417.2,1257.7,1468.4,1326.3z"/>
		</g>
		<g>
			<path class="st17" d="M859.8,1034.6l1.6,186.9l0.4,46.7l0.6,46.7c0.2,15.6,0.4,31.1,0.7,46.7l0.4,23.4l0.5,23.4l-0.9-23.3
				l-0.7-23.4c-0.4-15.6-0.8-31.1-1.1-46.7c-0.6-31.1-1-62.3-1.3-93.4c-0.2-31.1-0.4-62.3-0.5-93.4l0-46.7L859.8,1034.6z"/>
		</g>
		<g>
			<path class="st17" d="M585.3,1219.2c-0.8-4.1-1.4-8.3-2.1-12.4l-1.9-12.5c-1.3-8.3-2.4-16.6-3.6-25c-1.1-8.3-2.1-16.7-3.1-25
				l-1.4-12.5c-0.4-4.2-0.8-8.4-1.1-12.6c0.7,4.2,1.2,8.3,1.9,12.5l1.8,12.5l3.4,25l3.2,25l1.5,12.5
				C584.4,1210.9,584.9,1215,585.3,1219.2z"/>
		</g>
		<g>
			<path class="st17" d="M1139.8,1221.3l1.9-14.4l2-14.4l4.1-28.7l8.6-57.4c-0.4,4.8-0.9,9.6-1.4,14.5l-1.7,14.4
				c-1.2,9.6-2.6,19.2-3.9,28.8c-1.5,9.6-2.9,19.1-4.5,28.7l-2.4,14.3C1141.6,1211.8,1140.8,1216.5,1139.8,1221.3z"/>
		</g>
		<g>
			<g>
				<path class="st12" d="M1131.5,1303.9c0,0,82.8,2.9,131-10.1c0,0,141.1-76.6,204.7,29.9c0,0,39.5,76.1-39,82.8
					c0,0-182.2,19.5-313.3-9.6L1131.5,1303.9z"/>
			</g>
			<g>
				<path class="st12" d="M641.1,1297.1c0,0-82.6,6.3-131.3-4.7c0,0-144.1-70.6-203.2,38.3c0,0-36.3,77.7,42.4,81.1
					c0,0,182.9,11.9,312.6-22.5L641.1,1297.1z"/>
			</g>
		</g>
		<g>
			<g>
				<path class="st9" d="M1198.8,1049.5H575.4c-6.9,0-12.4,5.9-11.9,12.7l23.1,335c0.4,6.3,5.6,11.1,11.9,11.1h577.2
					c6.3,0,11.5-4.9,11.9-11.1l23.1-335C1211.2,1055.3,1205.7,1049.5,1198.8,1049.5z"/>
			</g>
		</g>
		<g>
			<g>
				<g>
					<path class="st18" d="M627.9,1384.7h-28.7c-3.8,0-6.8,3.2-6.5,7l0.7,10.5c0.2,3.4,3.1,6.1,6.5,6.1h27.2c3.4,0,6.3-2.7,6.5-6.1
						l0.7-10.5C634.7,1387.9,631.7,1384.7,627.9,1384.7z"/>
				</g>
			</g>
			<g>
				<g>
					<path class="st18" d="M1175,1384.7h-28.7c-3.8,0-6.8,3.2-6.5,7l0.7,10.5c0.2,3.4,3.1,6.1,6.5,6.1h27.2c3.4,0,6.3-2.7,6.5-6.1
						l0.7-10.5C1181.8,1387.9,1178.8,1384.7,1175,1384.7z"/>
				</g>
			</g>
		</g>
		<g>
			<g>
				<path class="st18" d="M1105.5,1393.6H668.8c-1.3,0-2.3,1.1-2.2,2.3l0.4,5.9c0.1,1.1,1,2,2.2,2h435.9c1.1,0,2.1-0.9,2.2-2
					l0.4-5.9C1107.7,1394.6,1106.7,1393.6,1105.5,1393.6z"/>
			</g>
		</g>
		<g>
			<polygon class="st3" points="887.1,1189.4 887.1,1272.3 918.5,1227.8 			"/>
			<polygon class="st3" points="887,1272.3 887,1189.4 855.7,1227.8 			"/>
		</g>
		<path class="st19" d="M895.5,753c0,0,3.9,37.8,7.2,44c3.3,6.2-23.2,20.5-40.9,7.5c0,0,16.4,22.8,47.6,2
			C909.3,806.5,913.7,801.1,895.5,753z"/>
		<path class="st19" d="M782.2,887.6c0,0,85.9,95.1,186.1-1.5l0.7,16.2c0,0-49.6,71-97.1,68.7C824.5,968.7,783,918.5,782.2,887.6z"
			/>
		<g>
			<path class="st19" d="M751.8,740c0,0,2.4-4.9-3.4-6c-5.7-1.2-11.9,0.5-11.9,7.4c0,6.8-1.6,38.3,0,42.8c0,0,4.1-17,3.8-28.3
				s-1.2-14.5,3.7-14.5C748.9,741.3,751.8,740,751.8,740z"/>
			<path class="st19" d="M758.4,769.8c0,0-4.8-3.9-6-1.3c-1.2,2.6-1.4,10.1,0,14c0,0-4.4-1.2-4.4-5.8c0-4.6-1.3-13.1,3.2-13.7
				C755.8,762.3,758.4,769.8,758.4,769.8z"/>
		</g>
		<g>
			<path class="st19" d="M1001.5,740c0,0-2.4-4.9,3.4-6c5.7-1.2,11.9,0.5,11.9,7.4c0,6.8,1.6,38.3,0,42.8c0,0-4.1-17-3.8-28.3
				s1.2-14.5-3.7-14.5C1004.5,741.3,1001.5,740,1001.5,740z"/>
			<path class="st19" d="M994.9,769.8c0,0,4.8-3.9,6-1.3c1.2,2.6,1.4,10.1,0,14c0,0,4.4-1.2,4.4-5.8c0-4.6,1.3-13.1-3.2-13.7
				C997.5,762.3,994.9,769.8,994.9,769.8z"/>
		</g>
		<path class="st20" d="M559.3,937.5c0,0-3.3,86.7,4.2,106.9L559.3,937.5z"/>
		<path class="st20" d="M736.1,904.9c0,0-25.8,81.6,0,117.4C736.1,1022.2,700.6,998,736.1,904.9z"/>
		<path class="st20" d="M998.7,892.5c0,0,16.2,91.6-1.5,115.2C997.2,1007.7,1028.4,970.7,998.7,892.5z"/>
		<path class="st20" d="M1156.4,947.3c0,0,5.5,75,0,97.1C1156.4,1044.4,1170.5,987.2,1156.4,947.3z"/>
		<path class="st20" d="M358.1,1212.9c0,0,22.3-4.4,37.8-2.5c0,0-22.9-6.8-32.6-4.8L358.1,1212.9z"/>
		<path class="st20" d="M1380.9,1209.8c0,0-19.9-4.5-40.7,3.9c0,0,21.7-10.5,34.2-11.7L1380.9,1209.8z"/>
		<path class="st21" d="M1210.7,1062.2c0,0,0.5-6.8-11.2-6.8s-619.9-3-625.1,0c-5.2,3-11,6.8-11,6.8s-0.2-10.9,11.9-12.7h616
			c0,0,8.7-1.9,15,2.7C1212.6,1056.7,1210.7,1062.2,1210.7,1062.2z"/>
		<path class="st22" d="M806.8,734c0,0,24.7,16.5,37.7,0H806.8z"/>
		<path class="st22" d="M921.6,734c0,0,24.7,16.5,37.7,0H921.6z"/>
		<rect x="234.1" y="1408.3" class="st11" width="1306" height="41.9"/>
	</g>
</g>
<g id="FRONT">
</g>
</svg>
