<?xml version="1.0" encoding="utf-8"?>
<!-- Generator: Adobe Illustrator 24.2.3, SVG Export Plug-In . SVG Version: 6.00 Build 0)  -->
<svg version="1.1" id="Layer_1" xmlns="http://www.w3.org/2000/svg" xmlns:xlink="http://www.w3.org/1999/xlink" x="0px" y="0px"
	 viewBox="0 0 512 512" style="enable-background:new 0 0 512 512;" xml:space="preserve">
<style type="text/css">
	.st0{fill-rule:evenodd;clip-rule:evenodd;}
</style>
<g>
	<g>
		<g id="Layer_5">
			<path d="M305.5,291.8v-45.2l-20-20c-19.9,16.7-45.1,25.9-71.1,25.8h-7.5v39.5c0,27.2,22.1,49.3,49.4,49.3
				C283.4,341.1,305.5,319,305.5,291.8L305.5,291.8z"/>
			<path d="M236.4,358v12.8c0,10.9,8.8,19.7,19.7,19.7c10.9,0,19.7-8.8,19.7-19.7v-12.8C263,361.8,249.3,361.8,236.4,358L236.4,358z
				"/>
			<path d="M294.1,381.1c-5.6,20.9-27.1,33.4-48,27.8c-13.6-3.6-24.2-14.2-27.8-27.8c-40.1,4.3-70.5,38.1-70.6,78.5V499h217v-39.5
				C364.6,419.2,334.2,385.4,294.1,381.1z"/>
			<path d="M344.9,252.4c0-49-39.8-88.8-88.8-88.8s-88.8,39.8-88.8,88.8v56.8c0.1,26-13.3,83.7-13.3,83.7
				c16.3-17.8,38.6-29,62.6-31.5v-13c-18.5-12.9-29.6-34-29.6-56.6v-49.3c0-5.4,4.4-9.9,9.9-9.9h17.3c24.2,0.1,47.4-9.5,64.5-26.7
				c3.9-3.9,10.1-3.9,13.9,0l29.6,29.6c1.9,1.8,2.9,4.4,2.9,7v49.3c0,22.6-11.1,43.7-29.6,56.6v13c24,2.4,46.3,13.6,62.6,31.5
				c0,0-13.4-57.7-13.3-83.7V252.4z"/>
		</g>
		<path class="st0" d="M258.9,14.9l14.2,37.5c0.4,1.1,1.4,1.9,2.6,1.9l40.1,2c1.3,0.1,2.3,0.9,2.7,2c0.4,1.2,0,2.4-1,3.2l-31.3,25.1
			c-0.9,0.8-1.3,1.9-1,3.1l10.5,38.7c0.3,1.2-0.1,2.4-1.1,3.2s-2.3,0.8-3.4,0.1l-33.6-22c-1-0.7-2.2-0.7-3.2,0l-33.6,22
			c-1.1,0.7-2.4,0.7-3.4-0.1c-1-0.7-1.4-2-1.1-3.2L227,89.8c0.3-1.2-0.1-2.3-1-3.1l-31.3-25.1c-1-0.8-1.4-2-1-3.2
			c0.4-1.2,1.4-2,2.7-2l40.1-2c1.2-0.1,2.2-0.8,2.6-1.9l14.2-37.5c0.4-1.2,1.5-1.9,2.8-1.9C257.4,13,258.4,13.7,258.9,14.9
			L258.9,14.9z"/>
		<path class="st0" d="M129.2,63.5L141.6,96c0.4,1,1.2,1.6,2.3,1.7l34.8,1.7c1.1,0.1,2,0.7,2.3,1.8c0.3,1,0,2.1-0.8,2.8L153,125.8
			c-0.8,0.7-1.1,1.7-0.9,2.7l9.1,33.6c0.3,1.1-0.1,2.1-1,2.8s-2,0.7-2.9,0.1l-29.1-19.1c-0.9-0.6-1.9-0.6-2.8,0l-29.1,19.1
			c-0.9,0.6-2,0.6-2.9-0.1c-0.9-0.6-1.3-1.7-1-2.8l9.1-33.6c0.3-1-0.1-2-0.9-2.7L73.5,104c-0.9-0.7-1.2-1.8-0.8-2.8
			c0.3-1,1.2-1.7,2.3-1.8l34.8-1.7c1-0.1,1.9-0.7,2.3-1.7l12.4-32.5c0.4-1,1.3-1.7,2.4-1.7C127.9,61.8,128.8,62.5,129.2,63.5
			L129.2,63.5z"/>
		<path class="st0" d="M387.6,63.5L399.9,96c0.4,1,1.2,1.6,2.3,1.7l34.8,1.7c1.1,0.1,2,0.7,2.3,1.8c0.3,1,0,2.1-0.8,2.8l-27.1,21.8
			c-0.8,0.7-1.1,1.7-0.9,2.7l9.1,33.6c0.3,1.1-0.1,2.1-1,2.8c-0.9,0.6-2,0.7-2.9,0.1l-29.1-19.1c-0.9-0.6-1.9-0.6-2.8,0l-29.1,19.1
			c-0.9,0.6-2,0.6-2.9-0.1c-0.9-0.6-1.3-1.7-1-2.8l9.1-33.6c0.3-1-0.1-2-0.9-2.7L331.9,104c-0.9-0.7-1.2-1.8-0.8-2.8
			c0.3-1,1.2-1.7,2.3-1.8l34.8-1.7c1-0.1,1.9-0.7,2.3-1.7l12.4-32.5c0.4-1,1.3-1.7,2.4-1.7C386.3,61.8,387.2,62.5,387.6,63.5
			L387.6,63.5z"/>
	</g>
	<path d="M374.8,425.1c0,0,7.8,3.2,7.8,73.9h46.3C428.9,499,411.3,429.6,374.8,425.1z"/>
	<path d="M137.7,425.1c0,0-7.8,3.2-7.8,73.9H83.6C83.6,499,101.2,429.6,137.7,425.1z"/>
</g>
</svg>
