<?xml version="1.0" encoding="utf-8"?>
<!-- Generator: Adobe Illustrator 24.2.3, SVG Export Plug-In . SVG Version: 6.00 Build 0)  -->
<svg version="1.1" id="Layer_1" xmlns="http://www.w3.org/2000/svg" xmlns:xlink="http://www.w3.org/1999/xlink" x="0px" y="0px"
	 viewBox="0 0 1000 1000" style="enable-background:new 0 0 1000 1000;" xml:space="preserve">
<style type="text/css">
	.st0{fill:#E7F2F1;}
	.st1{fill:#F2E9DA;}
	.st2{fill:#FFB81F;}
	.st3{fill:#FFFFFF;}
	.st4{fill:#88BCBC;}
	.st5{fill:#FF8602;}
	.st6{fill:#3B9393;}
	.st7{fill:url(#SVGID_1_);}
	.st8{fill:#F4A70F;}
	.st9{fill:#79AFAE;}
	.st10{fill:#67A8A6;}
	.st11{fill:#F9A07D;}
	.st12{fill:#ED6A11;}
	.st13{fill:#ED957A;}
	.st14{fill:#3A3A3A;}
	.st15{fill:#F26403;}
	.st16{fill:#484848;}
	.st17{fill:#DB7C65;}
	.st18{fill:#52C8CE;}
	.st19{fill:#2B7F7D;}
	.st20{opacity:0.7;fill:#ED6A11;}
	.st21{opacity:0.6;fill:#ED6A11;}
	.st22{fill:#CC621B;}
	.st23{opacity:0.2;fill:#7F6949;}
	.st24{fill:#7F6949;}
	.st25{fill:#F27A03;}
</style>
<path class="st0" d="M909.2,764.7c0,0,115.1-152.5,67-331.8c-43.1-160.9-238.2-265-341.8-185.3c-50.1,38.5-90.6-116.4-257.1-173.1
	c-123.1-41.9-305,52.1-258.8,340.2c35.1,219-139.2,109.8-101.1,351.8L909.2,764.7z"/>
<g>
	<path class="st1" d="M159.2,766.2c15.3-2.9,33.6-5.3,49.4-3.8c15.8,1.5,32.3,8.1,40.7,20c33.4-192.6,75.3-387.2,108.7-579.8
		c0,0-55.5,22.8-95-18.7C230.5,378.4,194.1,572.1,159.2,766.2z"/>
	<path class="st2" d="M157.6,770.7c1.9-1.7,2.7-4.8,3.3-7.6c18.1-84.8,101.5-525.7,109.8-568.6c3.5-18.2-7.5-17.9-9.1-10.8
		c-4.1,18.1-5.7,25.2-9,42.3c-34.2,175.9-68.4,351.8-102.6,527.7c-0.9,4.4-1.7,9.1-0.5,13C150.5,770.7,154.6,773.3,157.6,770.7z"/>
	<path class="st2" d="M253.6,789c1.9-1.7,2.7-4.8,3.3-7.6c18.1-84.8,101.5-525.7,109.8-568.6c3.5-18.2-9.8-17.7-10.9-10.5
		c-3.4,22.3-75.6,393.9-109.8,569.8c-0.9,4.4-1.7,9.1-0.5,13C246.5,789.1,250.6,791.7,253.6,789z"/>
	<path class="st3" d="M287.3,235.9c-7.5,36.6-14.5,73.3-21.4,110c-6.9,36.6-13.7,73.3-20.7,109.9c-3.9,20.4-7.9,40.8-12.1,61.2
		c-0.2,1,1.4,1.3,1.6,0.3c7.5-36.6,14.5-73.3,21.4-110c6.9-36.6,13.7-73.3,20.7-109.9c3.9-20.4,7.9-40.8,12.1-61.2
		C289.1,235.1,287.6,234.8,287.3,235.9L287.3,235.9z"/>
	<path class="st3" d="M322.9,243.7c-4,21.8-8,43.6-12.1,65.5c-4,21.7-8,43.4-12,65.1c-2.3,12.2-4.5,24.5-6.8,36.7
		c-0.2,1,1.4,1.3,1.6,0.3c4-21.8,8-43.6,12.1-65.5c4-21.7,8-43.4,12-65.1c2.3-12.2,4.5-24.5,6.8-36.7
		C324.7,242.9,323.1,242.6,322.9,243.7L322.9,243.7z"/>
	<path class="st3" d="M238.3,645.3c-1.8,9.3-3.6,18.6-5.4,27.9c-1.8,9.3-3.6,18.6-5.4,27.9c-1,5.2-2,10.5-3,15.7
		c-0.2,1,1.4,1.3,1.6,0.3c1.8-9.3,3.6-18.6,5.4-27.9c1.8-9.3,3.6-18.6,5.4-27.9c1-5.2,2-10.5,3-15.7
		C240.1,644.6,238.5,644.3,238.3,645.3L238.3,645.3z"/>
	<path class="st3" d="M202.8,660.4c-1.9,10.8-3.8,21.6-5.7,32.4c-1.9,10.8-3.8,21.6-5.7,32.4c-1.1,6.1-2.1,12.1-3.2,18.2
		c-0.2,1,1.4,1.3,1.6,0.3c1.9-10.8,3.8-21.6,5.7-32.4c1.9-10.8,3.8-21.6,5.7-32.4c1.1-6.1,2.1-12.1,3.2-18.2
		C204.6,659.7,203,659.4,202.8,660.4L202.8,660.4z"/>
</g>
<g>
	<path class="st1" d="M26.1,763.5c12.6-1.8,25.5-3.5,38.2-1.4c12.7,2.1,25.4,8.9,31.1,19.9c44.8-169.3,98.6-336,143.5-505.3
		c0,0-37.7,9.8-68.9-20.3C125.6,427.5,72.2,593,26.1,763.5z"/>
	<path class="st3" d="M110.2,624.3c-4.1,16.7-8.4,33.3-12.9,49.9c-4.5,16.5-9.2,32.9-14.1,49.3c-2.8,9.2-5.6,18.5-8.5,27.7
		c-0.3,0.8,1.3,1.2,1.5,0.4c5.2-16.4,10.1-32.9,14.9-49.4c4.7-16.4,9.2-32.9,13.5-49.5c2.4-9.3,4.8-18.7,7.1-28.1
		C112,623.9,110.4,623.5,110.2,624.3L110.2,624.3z"/>
	<path class="st3" d="M185.1,288.1c-12.2,40-24.1,80-35.7,120.2c-11.6,39.9-22.8,80-33.8,120.1c-6.2,22.6-12.3,45.3-18.3,67.9
		c-0.2,0.8,1.3,1.2,1.5,0.4c10.7-40.4,21.7-80.7,33-120.9c11.2-40,22.8-80,34.6-119.8c6.7-22.5,13.4-45,20.2-67.4
		C186.9,287.7,185.4,287.3,185.1,288.1L185.1,288.1z"/>
</g>
<g>
	<path class="st4" d="M161.2,750.6c-15.3-0.2-31,0.4-46.1-5.1c26.7,24.8,57.1,47.9,92,62.2s104.3,16,134.1,3.5
		C300.5,770,218.8,751.5,161.2,750.6z"/>
	<path class="st3" d="M129.7,753.8c13.6,3.2,26.6,8.4,39.4,14.2c12.8,5.8,25.3,12.1,38.3,17.6c12.9,5.5,26.2,10,40.1,12.2
		c7.9,1.2,15.9,1.9,23.8,2.6c8.1,0.8,16.3,1.5,24.4,2.3c16.2,1.5,32.4,3,48.5,4.5c2,0.2,4,0.4,6,0.6c0.9,0.1,1-1.4,0.1-1.5
		c-16.1-1.5-32.2-3-48.3-4.5c-8.1-0.8-16.1-1.5-24.2-2.3c-8-0.7-16-1.4-23.9-2.4c-14.3-1.7-28-5.7-41.4-11.1
		c-13-5.2-25.6-11.5-38.3-17.4c-12.6-5.8-25.5-11.3-38.9-15c-1.7-0.5-3.3-0.9-5-1.3C129.3,752.2,128.8,753.6,129.7,753.8
		L129.7,753.8z"/>
</g>
<path class="st5" d="M28.2,767.6c2-1.3,2.9-4,3.7-6.5c22.8-73.6,130.6-457.3,141.3-494.6c4.5-15.8-6.4-16.7-8.5-10.5
	c-5.1,15.7-7.1,21.8-11.4,36.7c-44,153-87.9,306-131.9,459c-1.1,3.8-2.2,7.9-1.3,11.6C21.3,767,25.1,769.7,28.2,767.6z"/>
<path class="st5" d="M98.9,787.3c2-1.3,2.9-4,3.7-6.5c22.8-73.6,130.6-457.3,141.3-494.6c4.5-15.8-8.7-16.8-10.2-10.5
	c-4.6,19.5-97.5,342.7-141.4,495.7c-1.1,3.8-2.2,7.9-1.3,11.6C91.9,786.7,95.8,789.4,98.9,787.3z"/>
<path class="st6" d="M874.6,404.8c-5.5,16.8-10.8,33.6-16,50.5c-5.2,16.8-10.2,33.6-15,50.5c-2.7,9.5-5.4,19-8.1,28.6
	c-0.3,1.2-2.2,0.7-1.9-0.5c4.7-17,9.6-34,14.6-51c5-16.8,10.1-33.6,15.4-50.4c3-9.4,6-18.9,9.1-28.3
	C873.1,403.1,875,403.6,874.6,404.8L874.6,404.8z"/>
<path class="st6" d="M870.4,403.8c-6.2,16.5-12.3,33-18.2,49.6c-5.9,16.6-11.7,33.3-17.4,50c-3.2,9.4-6.3,18.7-9.3,28.1
	c-0.4,1.2-2.3,0.7-1.9-0.5c5.5-16.8,11.1-33.5,16.9-50.1c5.8-16.7,11.7-33.3,17.7-49.8c3.4-9.3,6.8-18.5,10.3-27.8
	C869,402.1,870.8,402.6,870.4,403.8L870.4,403.8z"/>
<path class="st6" d="M872.5,404.5c-8-12.9-16.4-25.6-25.1-38.1c-8.7-12.5-17.7-24.8-27-36.8c-5.2-6.7-10.5-13.4-15.9-20
	c-0.8-1,0.6-2.3,1.4-1.3c9.7,11.8,19.1,23.9,28.2,36.2c9,12.2,17.7,24.7,26.1,37.3c4.8,7.2,9.4,14.4,14,21.8
	C874.8,404.6,873.1,405.6,872.5,404.5L872.5,404.5z"/>
<path class="st6" d="M868.6,405.7c-8-12.9-16.4-25.6-25.1-38.1c-8.7-12.5-17.7-24.8-27-36.8c-5.2-6.7-10.5-13.4-15.9-20
	c-0.8-1,0.6-2.3,1.4-1.3c9.7,11.8,19.1,23.9,28.2,36.2c9,12.2,17.7,24.7,26.1,37.3c4.8,7.2,9.4,14.4,14,21.8
	C870.9,405.8,869.2,406.8,868.6,405.7L868.6,405.7z"/>
<path class="st6" d="M799.2,307.2c-5.4-1.5-10.8-2.8-16.3-4c-1.2-0.3-0.7-2.1,0.5-1.9c5.5,1.2,10.9,2.5,16.3,4
	C800.9,305.7,800.4,307.6,799.2,307.2L799.2,307.2z"/>
<path class="st6" d="M798.9,311.8c-5.9-1.4-11.8-3-17.5-4.8c-1.2-0.4-0.7-2.2,0.5-1.9c5.8,1.8,11.6,3.4,17.5,4.8
	C800.6,310.3,800.1,312.1,798.9,311.8L798.9,311.8z"/>
<ellipse transform="matrix(0.8889 -0.4582 0.4582 0.8889 -89.0443 444.4484)" class="st6" cx="871.6" cy="405.8" rx="7.4" ry="7.4"/>
<circle class="st6" cx="801.3" cy="309" r="5.3"/>
<ellipse transform="matrix(0.9354 -0.3535 0.3535 0.9354 -57.0409 295.1943)" class="st6" cx="779.5" cy="303.7" rx="5.3" ry="5.3"/>
<path class="st5" d="M714.7,306c1.3-1.6,10-12,11.3-12c1.8,0,7.1,1.6,8.6,2.7c5.2-7,19.9-25.9,24.5-26.6
	c8.1-1.3,24.5,10.5,25.6,21.9c0.4,4.6-15.1,22.3-20.9,28.7c1.3,1.3,3.9,6,4.3,7.8c0.3,1.3-8.2,11.9-9.5,13.5
	c-0.2,0.3-0.5,0.8-0.8,0.8c-14.8-3-39.8-24.5-43.5-35.8C714,306.6,714.4,306.3,714.7,306z"/>
<path class="st3" d="M727.7,316.8c0.1-0.5,0.2-1.1,0.3-1.6l15.9,12.7c-1.1,0.5-2.2,0.8-3.4,1c-2.7,0.3-5.6-0.4-7.9-1.9
	c-0.8-0.6-1.6-1.2-2.2-2c-0.5-0.6-1.1-1.2-1.5-1.9C727.7,321.3,727.3,319,727.7,316.8z"/>
<path class="st5" d="M783.9,534.2c0.7-1.6,2.3-2.7,4-3.2c1.7-0.5,3.5-0.5,5.3-0.5c19.5,0,64.8,0,68-0.1c2.6,0,5.4,0,7.4,1.6
	c2.6,2,2.7,6.5,0.3,8.7c-2,1.9-5.1,2.1-7.8,2.1c-23.3-0.3-67.9-0.3-73.7-0.3C784.4,542.4,782.7,536.9,783.9,534.2z"/>
<linearGradient id="SVGID_1_" gradientUnits="userSpaceOnUse" x1="650.0585" y1="447.8901" x2="766.366" y2="327.0216">
	<stop  offset="0" style="stop-color:#FFFFFF;stop-opacity:0"/>
	<stop  offset="1" style="stop-color:#FFFFFF;stop-opacity:0.7"/>
</linearGradient>
<path class="st7" d="M758,343l-16,194L581,335l133-28c0,0,15.8,8.7,22.9,14.8S758,343,758,343z"/>
<g>
	<path class="st2" d="M666.4,520.7c0.1,2.7,0.5,5.5,1.7,8c0.5,0.9,1.1,1.9,2.1,2.4c1.2,0.6,2.5,0.7,3.8,0.8c2.7,0.2,5.4,0,8.1,0.1
		c0,1.4-0.1,2.8,0.2,4.2c0.4,1.6,1.3,3.1,2.7,4.1c1.6,1.2,3.4,1.3,5.4,1.3c2.5,0.1,5,0.1,7.5,0.1c4.4,0,8.8,0,13.1,0
		c1.9,0,4,0.2,5.8-0.4c1.5-0.5,2.7-1.4,3.6-2.7c1.5-2.2,1.3-5.1,1.4-7.7c0.1-2.8,0.2-5.5,0.2-8.3c0.2-8.2,0.2-16.4,0.2-24.5
		c0-0.5-0.5-1.1-1-1c-3.1,0.5-27.5,0.5-37.4-0.3c-0.6-0.1-1.2,0.3-1.2,0.9c0,2-0.1,4.1-0.1,6.1c-2.2,0-4.3,0-6.5,0.1
		c-1.2,0.1-2.5,0.2-3.7,0.4c-0.7,0.1-1.5,0.3-2,0.7c-0.1,0-0.1,0.1-0.2,0.2c-1.7,1.8-2.4,4.5-2.9,6.8
		C666.6,514.9,666.3,517.8,666.4,520.7z M672.9,509.6c0.9-0.5,1.9-0.5,2.9-0.5c1.3,0.1,5.8,0.1,6.3,0.3c0.4,0.2,0.7,0.5,0.7,0.9
		c0.1,4.2,0.1,11.4-0.1,15.6c0,0.5-0.4,1-1,1c-2,0.1-2.9,0.2-4.9,0.1c-1.6-0.1-3.3-0.5-4.5-1.7C670.4,523.3,672,510.1,672.9,509.6z"
		/>
	<path class="st3" d="M713.3,464.6c-1.9,2.9-3.8,6.2-3.1,9.6c0.4,1.8,1.5,3.4,2.3,5.1c2.5,5.5,1.2,12.4-3,16.6l-0.6-0.3
		c0.3-4-0.2-8-1.5-11.8c-0.7-2.2-1.7-4.4-2-6.8C704.7,471.7,708.2,466.2,713.3,464.6z"/>
	<path class="st3" d="M693,464.2c1.2-3.1,3.1-5.9,3.9-9.2c1.3-5.3-0.5-10.8-2.4-16c3.8,6.1,7.8,12.8,6.9,20c-0.5,4.3-2.7,8.2-3,12.5
		c-0.6,8.3,6,16.4,3.8,24.5l-0.7,0c0-4.1-3.5-7.2-5.9-10.5C691.3,479.5,690.3,471.2,693,464.2z"/>
	<path class="st3" d="M683.2,476.5c0.4-2,0.9-4.1,1.7-6c-0.3,4.6,0.8,9.4,3.2,13.3c1.1,1.8,2.3,3.4,3.3,5.2c0.9,1.8,1.5,3.9,1,5.9
		l-0.4,0.8c-2.1-2.1-4.3-4.2-6-6.7c-1.7-2.5-3-5.3-3.2-8.3C682.8,479.3,682.9,477.9,683.2,476.5z"/>
	<path class="st8" d="M666.4,520.7c0.1,2.7,0.5,5.5,1.7,8c0.5,0.9,1.1,1.9,2.1,2.4c1.2,0.6,2.5,0.7,3.8,0.8c2.7,0.2,5.4,0,8.1,0.1
		c0,1.4-0.1,2.8,0.2,4.2c0.4,1.6,1.3,3.1,2.7,4.1c1.6,1.2,3.4,1.3,5.4,1.3c2.5,0.1,5,0.1,7.5,0.1c4.4,0,8.8,0,13.1,0
		c1.9,0,4,0.2,5.8-0.4c1.5-0.5,2.7-1.4,3.6-2.7c1.5-2.2-26.7-40.9-36.6-41.8c-0.6-0.1-1.2,0.3-1.2,0.9c0,2-0.1,4.1-0.1,6.1
		c-2.2,0-4.3,0-6.5,0.1c-1.2,0.1-2.5,0.2-3.7,0.4c-0.7,0.1-1.5,0.3-2,0.7c-0.1,0-0.1,0.1-0.2,0.2c-1.7,1.8-2.4,4.5-2.9,6.8
		C666.6,514.9,666.3,517.8,666.4,520.7z M672.9,509.6c0.9-0.5,1.9-0.5,2.9-0.5c1.3,0.1,5.8,0.1,6.3,0.3c0.4,0.2,0.7,0.5,0.7,0.9
		c0.1,4.2,0.1,11.4-0.1,15.6c0,0.5-0.4,1-1,1c-2,0.1-2.9,0.2-4.9,0.1c-1.6-0.1-3.3-0.5-4.5-1.7C670.4,523.3,672,510.1,672.9,509.6z"
		/>
</g>
<g>
	<path class="st6" d="M365.7,808.1C365.7,808.1,365.7,808.1,365.7,808.1c0,0,0-0.1,0-0.1c0-0.1-0.1-0.2-0.1-0.3
		c-8-11.8-18.4-23.1-30.3-33.3c-12.2-10.5-26-20-41.2-27.6c-8.1-4.1-16.6-7.6-25.4-10.2c-7.6-2.3-15.4-4.1-22.8-7.1
		c-6.3-2.6-11.9-6.1-16.8-10.2c-9.4-7.8-16.3-17-24.5-25.4c-16.2-16.8-39.2-29.7-63.8-36.2c-13.8-3.6-27.8-5.2-41-4.3
		c-0.9,0.1-1,0.9-0.2,1.3c18.3,12.1,33.9,26.7,45.1,42.6c5.8,8.2,10.2,16.7,15.8,25c5.1,7.7,20,29.1,27.8,35.7
		c14.9,12.6,26,22.3,45,29.8c19.6,7.7,102.6,15,124.3,19.5c2.4,0.5,4.8,1,7.2,1.5c0,0,0,0,0,0c0,0,0,0,0,0c0,0,0,0,0.1,0
		c0,0,0.1,0,0.1,0C365.4,808.8,365.7,808.5,365.7,808.1z"/>
	<path class="st3" d="M111.6,659c18.4,0.5,35.7,10.9,48.7,23.2c7.1,6.7,13.4,14.3,19.8,21.7c6.1,7.1,12.4,13.9,19.4,20.1
		c13.9,12.1,29.7,21.8,46.1,30.1c17.1,8.7,34.8,15.8,52.7,22.6c18.2,7,36.7,13.9,53.6,23.8c2,1.2,4,2.4,6,3.7
		c0.8,0.5,1.6-0.7,0.8-1.2c-16.4-10.5-34.6-17.9-52.7-24.9c-18.1-7-36.2-13.8-53.6-22.3c-16.8-8.2-33.2-17.6-47.8-29.5
		c-7.3-6-13.9-12.6-20.2-19.7c-6.4-7.3-12.6-14.9-19.4-21.9c-12.6-12.8-28.6-23.8-46.6-26.6c-2.2-0.3-4.4-0.5-6.7-0.6
		C110.8,657.5,110.7,659,111.6,659L111.6,659z"/>
</g>
<g>
	<path class="st4" d="M344.1,753.1c-10.7-11.6-28.3-19.3-37.3-31.7c-11.5-16-6.1-36.2-15.8-52.8c-8.1-13.9-25.5-23.3-36.9-35.8
		c-13-14.2-17.7-31.7-22-48.6c-10.8,21.7-21.7,45.6-11.2,67.3c3.2,6.6,8.3,12.6,11.1,19.3c4.9,11.6,2.8,24.1,3.7,36.2
		c2.6,34.6,32.2,67.3,74.3,81.9c12,4.2,26,7.7,32.1,16.5l0.6,0.8C357.9,791.1,358.5,768.7,344.1,753.1z"/>
	<path class="st6" d="M229.9,596.4c-0.9,7.7-0.2,15.5,1.6,23c0.9,3.7,2.1,7.2,3.6,10.7c1.6,3.6,3.6,7,5.8,10.2
		c4.6,7.1,9.7,13.8,13.9,21.1c3.7,6.5,6.4,13.4,8.5,20.6c4.2,13.9,6.7,28.4,12.8,41.7c3.1,6.9,7.3,13.1,12.6,18.5
		c5.4,5.5,11.3,10.6,17.2,15.5c11.8,9.7,24.1,18.6,35.6,28.6c1.7,1.5,3.4,3,5.1,4.5c0.9,0.8,2.3-0.5,1.4-1.4
		c-11.6-10.5-24.1-19.8-36.3-29.6c-5.7-4.6-11.3-9.3-16.7-14.3c-3.1-2.9-6.2-5.9-8.9-9.2c-2.3-2.8-4.2-5.8-5.9-8.9
		c-6.9-12.7-9.6-27.1-13.5-40.9c-1.9-7-4.1-13.9-7.2-20.4c-3.5-7.4-8.3-14.2-12.9-20.9c-4.5-6.5-8.8-13.1-11.4-20.6
		c-2.5-7.3-3.8-15-3.6-22.8c0-1.9,0.2-3.7,0.4-5.5C231.9,595.2,230,595.2,229.9,596.4L229.9,596.4z"/>
</g>
<path class="st1" d="M974,813.4c-6.3-11.7-12.7-23.6-14.5-36.4c-1.7-12.8,2-26.8,13.2-35.3c-216.1,2.8-432.1-3.6-648.2-0.8
	c0,0,24.3,33.6-1.1,71.8C541.5,808.9,756,815.3,974,813.4z"/>
<path class="st9" d="M922.7,625.1c0.1-4.7,0.7-9.5,2.7-13.8c2.3-4.9,6.3-8.9,8.1-14c1.5-4.2,1.5-8.7,2.3-13c1.8-9,7.9-17,16-21.3
	c3.1-1.6,6.4-2.7,9.5-4.2c7.3-3.7,13.1-10.2,15.9-17.9c5.4,17.5,2.9,37.3-6.6,53c-2.5,4.2-5.5,8.1-7.4,12.5
	c-6.5,15.8,2.6,34.8-3.7,50.8c-3.3,8.4-16.1,15.3-25.5,17.4c-1,0.2-2-0.4-2.2-1.3C927.9,659.3,922.2,641.8,922.7,625.1z"/>
<path class="st6" d="M974.2,551.1c-1.1,4.1-2.6,8.2-4.3,12.1c-1.7,3.9-3.7,7.7-6.2,11.2c-4.9,6.8-11.2,12.4-15.9,19.3
	c-4.6,6.8-6.5,14.8-7.8,22.8c-0.6,4.1-1.1,8.2-1.5,12.3c-0.5,4.5-1,9-1.4,13.5c-0.8,9.2-1.6,18.4-4.2,27.4c-0.3,1.2-0.7,2.3-1.1,3.5
	c-0.3,1,1.2,1.4,1.5,0.4c2.9-8.9,4.1-18.1,5-27.4c0.8-8.8,1.7-17.5,2.8-26.2c1.1-8,2.5-16.3,6.7-23.3c4.2-7.2,10.6-12.8,15.7-19.4
	c5.3-6.8,8.8-14.7,11.3-22.9c0.3-1,0.6-1.9,0.8-2.9C976,550.5,974.5,550.1,974.2,551.1L974.2,551.1z"/>
<path class="st10" d="M931.7,649.5c-1.5-7.3-5.5-13.8-8.2-20.7c-2.8-7-3.9-14.6-6.1-21.8c-1.1-3.5-2.5-6.8-4.4-10
	c-1.8-2.9-3.9-5.7-6.2-8.2c-4.7-5.2-10.1-9.6-15.6-13.9c-0.6-0.5-1.4,0-1.3,0.8c0.2,1.1,0.3,2.1,0.4,3.2c0.4,4.4,0.1,8.8-0.4,13.2
	c-0.6,4.4-1.2,8.8-1.4,13.3c-0.1,2.2-0.2,4.5-0.2,6.7c0,2.2,0,4.3,0.2,6.5c0.2,2.1,0.6,4.1,1.4,6c0.7,1.8,1.6,3.5,2.5,5.2
	c1.8,3.3,3.9,6.5,5.2,10c1.3,3.3,2.2,6.8,3.2,10.2c1,3.4,2.1,6.7,3.9,9.8c1.8,3.3,4.4,6,7.5,8.1c2.8,1.9,5.8,3.2,9.1,4.2
	c3.1,1,6.2,1.7,9.3,2.3c0,0,0,0,0,0c0.1,0,0.1,0,0.2,0c0,0,0,0,0.1,0c0,0,0,0,0,0c0,0,0.1,0,0.1,0c0,0,0,0,0,0c0,0,0,0,0,0
	c0,0,0,0,0.1,0c0.2-0.1,0.4-0.4,0.4-0.4c0,0,0,0,0-0.1c0-0.1,0-0.1,0.1-0.2c0.1-1,0.2-2,0.3-3C932.6,663.6,933.2,656.5,931.7,649.5z
	"/>
<path class="st3" d="M893.7,581.4c3.1,5.2,4.2,11.1,4.9,17c0.7,6.1,1.1,12.3,2.4,18.3c1.4,6.3,3.5,12.5,6.4,18.4
	c3,6.1,6.6,11.9,10,17.7c4,6.8,8,13.6,12,20.4c0.5,0.8,1.8,0.1,1.3-0.7c-3.6-6.1-7.2-12.1-10.7-18.2c-3.5-5.9-7.1-11.7-10.3-17.8
	c-3-5.8-5.3-12-6.9-18.3c-1.5-6.1-1.9-12.2-2.6-18.4c-0.7-6.6-1.9-13.3-5.3-19.1C894.5,579.9,893.2,580.6,893.7,581.4L893.7,581.4z"
	/>
<path class="st1" d="M874.7,613.9c-5.5-11.7-11-23.6-12.5-36.4c-1.5-12.8,1.8-26.8,11.4-35.3c-186.6,2.8-373.8,2.9-560.4,5.7
	c0,0,20.4,41.3,0,73.8C501.5,617.8,686.5,615.8,874.7,613.9z"/>
<path class="st6" d="M878.5,615.6c-1.9-1.6-5-1.7-7.7-1.8c-82.1-1.7-506.7,0.1-548,0c-17.5,0-15.3,10.8-8.4,11
	c17.6,0.6,24.4,0.8,41,0.8c169.6,0.2,339.1,0.4,508.7,0.6c4.2,0,8.7-0.1,12.2-1.9C879.8,622.5,881.5,618.1,878.5,615.6z"/>
<path class="st6" d="M878.5,540.1c-1.9-1.6-5-1.7-7.7-1.8c-82.1-1.7-506.7,0.1-548,0c-17.5,0-14.7,13-7.8,12.7
	c21.3-0.9,379.5-0.4,549.1-0.2c4.2,0,8.7-0.1,12.2-1.9C879.8,547,881.5,542.5,878.5,540.1z"/>
<path class="st3" d="M584.8,565.1c32.3-0.5,64.6-0.9,96.9-1.1c32.1-0.3,64.3-0.4,96.4-0.4c18.1,0,36.3,0,54.4,0.1c1,0,1-1.6,0-1.6
	c-32.3-0.1-64.6-0.1-96.9,0.1c-32.1,0.1-64.3,0.4-96.4,0.8c-18.1,0.2-36.3,0.4-54.4,0.7C583.8,563.5,583.8,565.1,584.8,565.1
	L584.8,565.1z"/>
<path class="st3" d="M333.7,594.1c9.4-0.1,18.9-0.2,28.3-0.3c8.7,0,17.4,0,26.1,0c8.4,0,16.8,0,25.2,0c8.7,0,17.3,0,26-0.1
	c9.4-0.1,18.8-0.2,28.2-0.4c1.2,0,2.5,0,3.7-0.1c1,0,1-1.6,0-1.6c-9.5,0.2-19,0.3-28.5,0.4c-8.7,0.1-17.5,0.1-26.2,0.1
	c-8.4,0-16.8,0-25.2,0c-8.6,0-17.3,0-25.9,0c-9.3,0-18.7,0.1-28,0.2c-1.2,0-2.4,0-3.6,0.1C332.7,592.5,332.7,594.1,333.7,594.1
	L333.7,594.1z"/>
<path class="st3" d="M684,590.4c14-0.3,28-0.5,42-0.6c14-0.1,28-0.2,42-0.2c7.8,0,15.7,0,23.5,0.1c1,0,1-1.6,0-1.6
	c-14-0.1-28-0.1-42,0c-14,0.1-28,0.2-42,0.4c-7.8,0.1-15.7,0.3-23.5,0.4C682.9,588.8,682.9,590.4,684,590.4L684,590.4z"/>
<path class="st1" d="M850.3,723.8c-5.4-14.4-10.9-32-12.3-47.8c-1.5-15.8,1.7-33.2,11.3-43.7c-184.6,3.5-372.6-0.9-557.2,2.7
	c0,0,31.1,50.2-0.4,96.9C477.9,727,664.1,726.2,850.3,723.8z"/>
<path class="st2" d="M854.7,725.1c-1.9-1.6-5-1.7-7.7-1.8c-81.9-1.8-505.8-0.5-547-0.6c-17.5,0-15.3,10.8-8.4,11
	c17.6,0.6,24.4,0.8,40.9,0.9c169.3,0.4,338.6,0.8,507.9,1.2c4.2,0,8.7,0,12.2-1.9C856.1,732,857.7,727.5,854.7,725.1z"/>
<path class="st2" d="M854.7,627.3c-1.9-1.6-5-1.7-7.7-1.8c-81.9-1.8-505.8-0.5-547-0.6c-17.5,0-14.7,13-7.8,12.7
	c21.3-0.9,378.9,0,548.1,0.4c4.2,0,8.7,0,12.2-1.9C856,634.2,857.7,629.8,854.7,627.3z"/>
<path class="st3" d="M331.1,662.5c35.3,0.5,70.6,0.4,105.8,0.3c35.2-0.2,70.5-0.4,105.7-0.4c19.6,0,39.3,0.1,58.9,0.4
	c1,0,1-1.6,0-1.6c-35.3-0.5-70.6-0.4-105.8-0.3c-35.2,0.2-70.5,0.4-105.7,0.4c-19.6,0-39.3-0.1-58.9-0.4
	C330.1,660.9,330.1,662.5,331.1,662.5L331.1,662.5z"/>
<path class="st3" d="M332,696.7c21-0.2,41.9-0.3,62.9-0.5c20.9-0.2,41.7-0.3,62.6-0.5c11.8-0.1,23.5-0.2,35.3-0.3c1,0,1-1.6,0-1.6
	c-21,0.2-41.9,0.3-62.9,0.5c-20.9,0.2-41.7,0.3-62.6,0.5c-11.8,0.1-23.5,0.2-35.3,0.3C331,695.1,331,696.7,332,696.7L332,696.7z"/>
<path class="st3" d="M724.1,669.4c9,0,17.9,0,26.9,0s17.9,0,26.9,0c5,0,10.1,0,15.1,0c1,0,1-1.6,0-1.6c-9,0-17.9,0-26.9,0
	c-9,0-17.9,0-26.9,0c-5,0-10.1,0-15.1,0C723.1,667.8,723.1,669.4,724.1,669.4L724.1,669.4z"/>
<path class="st3" d="M640.8,701.5c10.3-0.2,20.7-0.3,31-0.5c10.3-0.2,20.7-0.3,31-0.5c5.8-0.1,11.6-0.2,17.4-0.3c1,0,1-1.6,0-1.6
	c-10.3,0.2-20.7,0.3-31,0.5c-10.3,0.2-20.7,0.3-31,0.5c-5.8,0.1-11.6,0.2-17.4,0.3C639.9,699.9,639.9,701.5,640.8,701.5L640.8,701.5
	z"/>
<path class="st5" d="M978.1,810.2c-2.3-1.6-5.7-1.7-8.9-1.8c-95.1-1.9-587-1.5-634.9-1.6c-20.3-0.1-17.7,10.7-9.7,11
	c20.4,0.7,28.3,0.9,47.5,0.9c196.5,0.7,392.9,1.5,589.4,2.2c4.9,0,10.1,0,14.1-1.9C979.7,817.1,981.6,812.7,978.1,810.2z"/>
<path class="st5" d="M977.8,736.9c-2.3-1.6-5.7-1.7-8.9-1.8c-95.1-1.9-587-1.5-634.9-1.6c-20.3-0.1-17,13-9,12.7
	c24.7-0.8,439.7,0.7,636.1,1.4c4.9,0,10.1,0,14.1-1.9C979.4,743.8,981.3,739.3,977.8,736.9z"/>
<path class="st3" d="M780.4,770.2c21.2-0.6,42.4-1,63.6-1.1c21.1-0.2,42.2-0.1,63.3,0.2c11.9,0.2,23.8,0.4,35.7,0.7c1,0,1-1.6,0-1.6
	c-21.2-0.5-42.4-0.8-63.6-0.9c-21.1-0.1-42.2,0.1-63.3,0.4c-11.9,0.2-23.8,0.5-35.7,0.8C779.4,768.7,779.4,770.3,780.4,770.2
	L780.4,770.2z"/>
<path class="st3" d="M355.9,789.5c51.6,0.9,103.1,1.4,154.7,1.7c51.3,0.3,102.6,0.2,153.9-0.1c28.9-0.2,57.9-0.4,86.8-0.8
	c1,0,1-1.6,0-1.6c-51.6,0.6-103.1,1-154.7,1.1c-51.3,0.1-102.6-0.2-153.9-0.7c-28.9-0.3-57.9-0.7-86.8-1.2
	C354.9,787.9,354.9,789.5,355.9,789.5L355.9,789.5z"/>
<path class="st6" d="M933.4,736.1c-3.3,0-6.5-0.1-9.8-0.4c-2.4-0.2-4.8-0.4-7.1-0.7c-0.2,0-0.4-0.1-0.7-0.1c-1.9-0.2-4-0.5-5.7-1.8
	c-1.6-1.3-4.2-9.3-4.8-11.4l-0.1-0.3c-2.5-9.1-4.7-18.4-6.5-27.7c-0.9-4.7-1.7-9.4-2.5-14c-0.2-1.4-0.6-4.1,1.7-5.7
	c1.3-0.9,3-1,4.6-1.1c3.8-0.1,7.7-0.1,11.5-0.1l0.9,0c5.3,0,11,0.1,17.8,0.2c6.5,0.1,12.3,0.2,17.8,0.3c2.4,0.1,4.8,0.1,7.2,0.2
	c1,0,1.9,0.1,2.9,0.1c0.2,0,0.4,0,0.6,0c1,0,2.1,0,3,0.6c0.1,0.1,0.3,0.2,0.4,0.3l0,0c0.9,1,0.9,2.2,0.8,3.1
	c-0.1,0.8-0.2,1.6-0.4,2.4L965,681c-1.5,9.4-3.3,18.9-5.3,28.2c-1,4.7-2,9.4-3.1,14c-0.1,0.5-0.2,1-0.3,1.5c-0.8,3.5-1.6,7.5-5,9.4
	c-1.9,1.1-4.2,1.3-5.9,1.4c-2.4,0.2-4.8,0.4-7.1,0.4C936.5,736.1,935,736.1,933.4,736.1z"/>
<g>
	<g>
		<path class="st11" d="M541.4,634.5c-1-5.5,28.5,6.4,29.2,8.1c2.9,8.2,4.3,17.7,6.9,25.9c2.6,8.1,9.5,15,14.6,21.8
			c1.4,1.8-5.1,13.8-9.5,13.1c-8.2-1.2-23.4-14-23.7-15.5c-0.2-0.9-0.1-1.8,0-2.7c0.2-5.9-2.4-11.1-4.4-16.5
			C552.6,663.8,542.6,641.1,541.4,634.5z"/>
		<path class="st12" d="M565.7,714.7c-3.7-2.3-7.6-3-10.6-6.5c-0.9-1-1.7-2.2-2.2-3.4c-1.5-3.5-0.6-7.6,0.8-11.1
			c1.7-4,4.4-7.4,4.7-11.9c1.5,1.3,2.9,2.7,4.3,4.1c0.7,0.6,1.3,1.3,2.1,1.8c1.7,1,3.7,1.2,5.6,1.3c-0.3-1.8-0.5-3.5-0.8-5.3
			c-0.1-0.4-0.1-0.8,0-1.1c0.2-0.5,0.8-0.8,1.4-1c4.6-1.7,9.2-3.4,13.9-5c0.8-0.3,1.7-0.6,2.4-0.2c0.7,0.4,1,1.3,1.1,2.1
			c1.9,7.9,5.2,15.6,9.7,22.4c4.7,7.2,10.9,13.7,16.3,20.4c1.7,2,3.4,4.3,3.5,6.9c0.4,6.5-4.8,10-10.2,11.8c-1.7,0.5-3.4,1-5.1,1.1
			c-1.6,0-3.2-0.3-4.7-0.7c-2.1-0.5-4.1-1.2-6-2.1c-7.2-3.4-12.1-10-17.4-15.7C571.9,719.8,569,716.7,565.7,714.7
			C565.7,714.7,565.7,714.7,565.7,714.7z"/>
		<path class="st3" d="M554.3,692.8c1.7,5.2,4.9,9.8,9.2,13.3c2.3,1.9,4.8,3.4,7.2,5.1c2.2,1.6,4.2,3.3,6.1,5.2
			c3.7,3.6,7,7.6,10.9,11c1.9,1.7,4,3.2,6.2,4.4c2.3,1.3,4.9,2.3,7.6,2c1.5-0.2,2.8-0.8,3.9-1.8c1.1-1,1.9-2.1,3.4-2.4
			c1.4-0.3,2.9,0,4.2,0.1c1.5,0.2,2.9,0.2,4.3-0.3c1.1-0.4,0.6-2.1-0.5-1.7c-2.4,0.8-4.9-0.2-7.4,0c-1.2,0.1-2.4,0.5-3.4,1.2
			c-1,0.7-1.7,1.8-2.8,2.4c-2.2,1.4-5.2,0.6-7.4-0.4c-2.2-1.1-4.2-2.4-6.1-4c-3.8-3.2-7.1-6.9-10.5-10.5c-1.8-1.8-3.6-3.5-5.5-5.1
			c-2.3-1.8-4.7-3.3-7-5c-5-3.6-8.9-8.2-10.8-14.1C555.6,691.2,553.9,691.7,554.3,692.8L554.3,692.8z"/>
		<path class="st1" d="M578.3,698.2c4.1-2.8,8.6-5,13.3-6.6c1.1-0.4,0.6-2.1-0.5-1.7c-4.8,1.6-9.4,3.9-13.7,6.8
			C576.5,697.3,577.4,698.9,578.3,698.2L578.3,698.2z"/>
		<path class="st1" d="M584.6,707.1c3.4-3.1,7.4-5.3,11.8-6.6c1.1-0.3,0.6-2-0.5-1.7c-4.7,1.4-9,3.8-12.6,7.1
			C582.5,706.6,583.8,707.8,584.6,707.1L584.6,707.1z"/>
		<path class="st1" d="M591.5,713.8c3-2.6,6.2-5.3,10.3-5.9c0.5-0.1,0.7-0.7,0.6-1.1c-0.1-0.5-0.6-0.7-1.1-0.6
			c-4.3,0.6-7.9,3.5-11,6.3C589.4,713.3,590.6,714.5,591.5,713.8L591.5,713.8z"/>
	</g>
	<g>
		<path class="st12" d="M502.1,547.6c-3.5-4.2-9.3-6.9-14.7-5.7c0,0-8.7,2.9-13.2,4.2c-4.5,1.3-10.4,3.6-14.6,5.8s-7.3,6.9-8.7,11.4
			c-0.7,2.1-0.6,19.5,10.6,23.2c3.3,1.1,7-0.3,10.1-1.8c6.1-2.8,11.5-6.8,17.9-9.1c1.7-0.6,3.4-1.1,5.1-1.6c2.7-0.8,5.5-1.6,8.2-2.4
			C503.5,571.5,506.1,552.4,502.1,547.6z"/>
		<path class="st1" d="M475.4,558.8c2.4,2.4,4.5,5,6,8.1c1.3,2.6,2,5.4,2.7,8.2c0.3,1.1,2,0.6,1.7-0.5c-0.7-3-1.5-5.9-2.9-8.6
			c-1.6-3.2-3.9-5.9-6.3-8.4C475.8,556.8,474.6,558,475.4,558.8L475.4,558.8z"/>
		<path class="st1" d="M486.1,553.9c2.4,2.2,3.9,5.4,5.2,8.4c1.2,2.9,2.3,6.1,2.5,9.2c0.1,1.1,1.8,1.1,1.8,0
			c-0.3-3.4-1.4-6.7-2.7-9.9c-1.3-3.2-2.9-6.6-5.5-9C486.5,551.9,485.3,553.2,486.1,553.9L486.1,553.9z"/>
		<path class="st1" d="M468.7,584.5c-1.2-0.3-2.3-1-2.9-2.1c-0.8-1.3-0.7-2.7-0.7-4.2c0-1.5-0.1-2.9-0.8-4.2
			c-0.6-1.1-1.4-1.9-2.3-2.7c-0.9-0.8-2-1.5-2.7-2.5c-0.8-1.1-1.2-2.5-1.3-3.8c-0.2-2.7,0.9-5.3,2.4-7.5c2-2.7,5.1-4.3,8-5.8
			c2.6-1.3,5.4-2.4,8.2-3.4c5.4-1.9,10.9-3.6,16.3-5.3c1.1-0.3,0.6-2-0.5-1.7c-5.2,1.6-10.4,3.2-15.6,5c-3.1,1.1-6.1,2.2-9,3.7
			c-3.1,1.6-6.4,3.2-8.5,6.1c-1.7,2.2-3,4.8-3.1,7.6c-0.1,3,0.8,5.6,3.1,7.6c1.1,0.9,2.3,1.7,3.1,2.9c1.1,1.4,1,3.1,1,4.8
			c0,1.7,0.2,3.3,1.3,4.7c0.9,1.2,2.2,2.1,3.7,2.5C469.3,586.5,469.8,584.8,468.7,584.5L468.7,584.5z"/>
	</g>
	<path class="st13" d="M421.4,323.6c-1.9,8-0.7,8.3,1.7,9.7c1.6,0.9,7.3,0.7,7.3,0.7c0.8,0.2,1,2.4,1.1,3.2
		c0.5,4.4-1.9,13.8-4.9,29.5c-17.2-6-52.8-17.3-56.3-21.7c-1.1-1.4-3.5-4.3-1.9-5.1c1.7-0.8,14.2-6.2,15.2-7.6
		c4.7-6.4,7-19.5,11.7-36C398.9,283.4,423.4,315.1,421.4,323.6z"/>
	<path class="st14" d="M433.4,319.7c-2.9-15.4-4.1-31.1-3.7-46.8c0.1-4.1,0.3-8.4,1.8-12.3c1.4-3.9,4.2-7.5,8.1-8.9
		c6-2.2,12.9,1.4,16.4,6.7c3.5,5.4,3.9,12,4.5,18.4c1.6,18.6-5,29.8,8.6,37.9c-2.4,2-8.3,7-11.4,7.1c-1.2-2-2.4-3.9-3.6-5.9
		c0.4,1.4-0.3,7-0.3,7s-19.9,4.3-28,1.2L433.4,319.7z"/>
	<path class="st13" d="M446.1,251.6c7.9,4.4,15.2,35.5,4.4,52.3c-10.8,16.9-19,21-28.5,20.3c-18.5-1.3-28.6-21.7-33.4-35.8
		C383.8,274.2,407.6,230.1,446.1,251.6z"/>
	<path class="st14" d="M435.2,278.4c-0.2,3.4-14.6,0.6-15-1.5C419.8,274.9,435.4,275.1,435.2,278.4z"/>
	<path class="st14" d="M446.7,280c-1.8,1.9,8.6,6.2,9.3,4.1C456.9,281.3,448.4,278.3,446.7,280z"/>
	<path class="st14" d="M431.1,287.3c0.4,1.3-0.8,3.8-3.2,3.6s-3.6-2.9-2.1-4.6C429.9,286.9,431.1,287.3,431.1,287.3z"/>
	<path class="st14" d="M452,291.3c0,0-0.3,3.1-3.4,2.8c-1.7-0.2-3.2-1.2-1.7-4.1C449.8,290.6,452,291.3,452,291.3z"/>
	<path class="st15" d="M442.3,307.1c0,0-12.7,1.6-20-5.9c0.5,7.4,0.4,14.4,8.1,13.8S442.3,307.1,442.3,307.1z"/>
	<path class="st16" d="M356.3,276.5c12.5-41,41.7-65.9,79.4-39.7c15.6,2.2,28.9,15.6,26.6,42.2c-3.7-2.4-12.8-3.4-12.8-3.4
		l-1.9-11.5l-4.6,8.4c0,0-7.1-1.8-15.2-0.1c0.2-3.1-0.6-9.3-0.6-9.3s-2.3,5.8-4,8.3c-3.8,0.3-9.4-0.6-9.4-0.6l-0.6-8.3
		c0,0-3.7,7.5-7.5,13.8c-2,3.3-4.8,4.8-8,1.3c-3.3,6.2-5.3,12.7-3.5,19.2c0.8,4.8,2.9,13.8,12.6,20.7c-5.9,6.3-18,5.9-24.3,5.8
		c-1.8-6.8-1.4-5.8-3.5-9.6c-0.9,2.4-1.8,4.8-2.7,7.1c-10.5-3-18.3-4-18.3-4s3.8-7.8,4.2-17.8c-2.5,2.6-6,8.9-9.9,11
		c-7.7-2.3-9.3-10.2-12.8-16.8C346.1,290.1,354.2,283.5,356.3,276.5z"/>
	<path class="st3" d="M441.2,308c0,0-8.9,2-17.5-4.4C426.5,310.4,437.3,313,441.2,308z"/>
	<path class="st17" d="M440.9,291c0.1,1.6,0.4,3.2,0.8,4.8c0.3,1.2,0.6,2.3,0.7,3.5c0.1,0.9,0,1.8-0.7,2.4c-0.8,0.6-1.9,0.7-2.9,0.7
		c-1,0-2.4-0.2-3-1.1c-0.5-0.6,0.3-1.4,0.8-0.8c0.5,0.6,1.4,0.7,2.1,0.8c0.8,0,1.7,0,2.4-0.5c0.5-0.3,0.3-1.2,0.2-1.8
		c-0.2-1.1-0.5-2.2-0.7-3.2c-0.4-1.6-0.6-3.2-0.7-4.9C439.7,290.3,440.8,290.3,440.9,291L440.9,291z"/>
	<path class="st13" d="M397.8,298.4c0,0-8.9-1.8-9.5-13.3c-0.6-11.5,7.2-10.7,10.1-6.9C401.3,282.2,397.8,298.4,397.8,298.4z"/>
	<path class="st3" d="M397.1,300.8c-0.5-1.5-1-2.9-1.5-4.4c-0.3-1-0.6-2-0.7-3c0-0.1,0-0.3,0-0.4c0.1-0.3,0.4-0.3,0.6-0.5
		c0.2-0.2,0.2-0.5,0.2-0.8c0-1.9-0.4-3.7-1.2-5.5l-0.1,0c-0.9-0.4-2.2,0.2-2.7,1.1c-0.5,0.9-0.5,1.9-0.4,2.9
		c0.3,3.9,1.6,7.7,3.2,11.2c0.1,0.1,0.1,0.3,0.2,0.4c0,0,0,0.1,0.1,0.1c0.1,0.1,0.2,0,0.3,0c0.6-0.2,1.1-0.5,1.7-0.7
		c0.1,0,0.2-0.1,0.2-0.2C397.1,301,397.1,300.9,397.1,300.8z"/>
	<path class="st17" d="M393.8,280c0.2,0,0.4,0.1,0.6,0.1c0.1,0,0.2,0.1,0.3,0.1c0.1,0,0.1,0,0.2,0.1c0.1,0,0,0,0,0c0,0,0.1,0,0.1,0
		c0.1,0.1,0.2,0.1,0.3,0.2c0.1,0,0.1,0.1,0.2,0.1c0,0,0.2,0.1,0.1,0c0.1,0.1,0.2,0.2,0.3,0.2c0.1,0.1,0.2,0.2,0.2,0.3
		c0.3,0.5,0.4,1,0.5,1.5c0,0.1,0.1,0.3,0.1,0.4c0-0.1,0,0.1,0,0.2c0,0.3,0,0.5,0,0.8c0,0.2,0-0.2,0,0.1c0,0,0,0.1,0,0.1
		c0,0.1-0.1,0.2-0.1,0.3c0,0.1,0,0.1-0.1,0.2c0.1-0.1,0,0,0,0c-0.1,0.1-0.1,0.2-0.2,0.4c0,0-0.1,0.2,0,0.1c0,0-0.1,0.1-0.1,0.1
		c-0.1,0.1-0.2,0.2-0.3,0.3c-0.2,0.2-0.4,0.3-0.7,0.5c-0.3,0.2-0.6,0.3-0.8,0.5c-0.2,0.2-0.4,0.6-0.5,0.9c-0.1,0.6,0,1.2,0.3,1.7
		c0.3,0.4,0.6,0.8,0.8,1.3c0.2,0.5,0.3,1.1,0.2,1.6c-0.1,0.4,0.2,0.9,0.6,1c0.4,0.1,0.9-0.1,1-0.6c0.4-1.3-0.1-2.7-0.8-3.8
		c-0.1-0.2-0.2-0.3-0.3-0.5c0,0-0.1-0.2-0.1-0.1c0,0,0-0.1,0-0.2c0-0.1,0-0.1,0,0c0-0.1,0-0.1,0-0.2c0-0.1,0-0.1,0-0.2
		c0,0.1,0.1-0.1,0,0c0.1-0.1,0,0,0,0c0.3-0.1,0.6-0.3,0.9-0.5c1-0.7,1.7-1.8,1.8-3.1c0.1-0.6,0-1.2-0.1-1.7
		c-0.1-0.7-0.3-1.3-0.7-1.9c-0.7-1.1-1.9-1.7-3.1-1.9c-0.4-0.1-0.9,0.1-1,0.6C393.1,279.4,393.3,279.9,393.8,280L393.8,280z"/>
	<path class="st14" d="M445.3,290.8c2.8-0.3,5.6,0.4,8.1,1.8c0.4,0.2,0.9,0.1,1.1-0.3c0.2-0.4,0.1-0.9-0.3-1.1
		c-2.7-1.4-5.8-2.4-8.9-2c-0.4,0.1-0.8,0.3-0.8,0.8C444.5,290.4,444.8,290.8,445.3,290.8L445.3,290.8z"/>
	<path class="st14" d="M433.2,287.1c-4.2-2.1-8.9-2.8-13.5-2c-0.4,0.1-0.7,0.6-0.6,1c0.1,0.5,0.6,0.6,1,0.6c4.1-0.7,8.5,0,12.3,1.9
		c0.4,0.2,0.9,0.1,1.1-0.3C433.7,287.9,433.6,287.3,433.2,287.1L433.2,287.1z"/>
	<path class="st5" d="M517.6,475.7c0,0-112.6,57.9-141.7,56.5C388.4,497.1,479.7,443.3,517.6,475.7z"/>
	<path class="st6" d="M494.4,459.5l21.2,12.3c27.1-0.2,74.2-13.8,120.3-4.5c5.8,1.2,11.7,2.9,15.9,7c5.9,5.9,6,19.5,6,27.8
		c0.1,15.9-26.6,31.3-37.9,35c-22.3,7.3-58,8.4-80.2,15.7c-30.9-38.4-54.1-63.8-95.1-91.1C460.9,453,477.6,451.5,494.4,459.5z"/>
	<path class="st6" d="M441.8,457.6c4.4-0.2,9,0,13.1,1.6c2.5,1,4.5,9.4,7,10.5c27.2,11.8,41.9,10.3,61.9,22.7
		c5.9,3.6,7.6,6.3,11.2,10.2c5.1,5.5,11.7,22.8,14.6,29.7c15,35.6,20.1,76,28.3,113.7c1.3,6.1-33.7,10.6-35.9,7.2
		c-16.2-24.9-32.5-51.8-41.9-83.2c-3.5-11.6-8.8-24.7-15.4-24.6c-21.1,0.3-68.3-6.4-91-6.4c-16.3,0-10.4-51.9-10.4-51.9
		C397.4,469.6,419.3,458.5,441.8,457.6z"/>
	<g>
		<path class="st5" d="M330.6,486.2c0,0,40.5-8.2,49.3-48.2C348.7,418.2,325.2,471.7,330.6,486.2z"/>
		<path class="st5" d="M336.9,356.3c3.5-7.4,33.5-19.7,37.9-20.7c6.3,8.1,26.9,17.8,43.6,15.5c10.8-1.5,14-7.6,9.5-18
			c3.1-0.8,17.9,2.2,20,3c12.8,4.3,17.3,6.6,28,20.4c10.5,13.6,12.2,33.1,26.8,60.4c3.1,5.9,10.3,19.8-8.1,24.8
			c2.9,9.3,18.2,14.8,23,23.3c-11-3.3-20.3,3.5-27.1,4.6c-13.5,2.3-18.1,4.1-38.7,7.7c-20.9,3.7-39,10.8-50.4,29.5
			c-5.3,8.6-16.5,20.6-25.3,25.2c-13.3-20.4-1.7-38.6-10.1-57.1c-4-8.7-4.9-20.8-8.6-29.7c-3.8-9-6.4-18.5-9-28
			C344.1,401.1,329.9,371.2,336.9,356.3z"/>
		<path class="st11" d="M347.9,356c5.1,5.5,22.1,26.4,22.2,26.5c0.3,0.7-3.2,54.5,2.1,74.9c0.8,2.9-26.1,29.6-26.1,29.6
			c-5.5-9.2-7.7-17.9-9.5-28.5C330.7,424.1,332.8,387.5,347.9,356z"/>
		<path class="st5" d="M472.4,371.6c2.5,14.5,8.6,28,13.1,41.9c1.3,4,2.4,7.9,3.3,12c0.2,1.1,1.9,0.6,1.7-0.5
			c-3.1-14.4-9.4-27.8-13.5-41.9c-1.2-4-2.2-8-2.9-12.1C473.9,370,472.2,370.5,472.4,371.6L472.4,371.6z"/>
		<path class="st5" d="M324.8,395.3c1.1-15.6,3.8-28.3,13-40.1l5.6-3.2c12.4-1.3,24.3,13.4,31.6,23.4c3.3,4.5,6.1,9.5,6.9,15
			c0.8,5.3-3.7,53.5-3.5,58.5c-19.7,3-36.4,5.7-47.8,36.7C318.1,461.4,323.7,410.9,324.8,395.3z"/>
		<path class="st5" d="M374.1,399.9c0.1,13.4,0.6,26.7,1.2,40.1c0.2,3.8,0.4,7.5,0.6,11.3c0.1,1.1,1.8,1.1,1.8,0
			c-0.8-13.3-1.4-26.7-1.7-40.1c-0.1-3.8-0.1-7.6-0.2-11.3C375.8,398.8,374.1,398.8,374.1,399.9L374.1,399.9z"/>
	</g>
	<polygon class="st3" points="436.8,478.9 491.1,467.3 534,479.4 480.8,489.3 	"/>
	<path class="st18" d="M482.4,490.4l-45.8-8.8c-0.5-0.1-0.8-0.6-0.7-1.1l0.2-1c0.1-0.5,0.6-0.8,1.1-0.7l45.8,8.8
		c0.5,0.1,0.8,0.6,0.7,1.1l-0.2,1C483.4,490.2,482.9,490.5,482.4,490.4z"/>
	<path class="st3" d="M605.9,469.2L482,490.7c-0.2,0-0.4-0.1-0.5-0.3l-0.3-2c0-0.2,0.1-0.4,0.3-0.5l123.9-21.5
		c0.2,0,0.4,0.1,0.5,0.3l0.3,2C606.3,469,606.1,469.2,605.9,469.2z"/>
	<path class="st11" d="M363.7,456.7c20.3-6,48.4-6.6,62.1-8.8c5.7-0.9,11.1-2.6,16.7-4.2c6-1.8,12-3.5,18.2-4.5
		c4.7-0.7,11-1.1,14.4,0.2c5.1,1.9,10,5.7,12.3,8.4c1.9,2.7,6.5,7.7,4.6,9.6c-3,3.1-8.4-7.8-16.2-10.3c4.2,4.4,15.2,17.1,11.6,21.1
		c-3.7,2.3-5-1.1-7.1-3.7c1.3,2.2,1.7,3,0.9,5.6c-3.2,3.1-6.2-1.6-8-3.9c-4.5-6.4-7-9.7-7-9.6c1.2,3.5,6.4,11.7,4.3,13.5
		c-2.7,2.2-5.2-1.2-6.7-3.6c-1.1-1.7-2.9-5.5-4.1-7.4c-0.1,0.1-3,3-12.6,3c-1.6,0-2.8-0.6-4.5-0.2c-1.6,0.4-2.8,1.6-4.2,2.4
		c-3.7,2-7.3,4.1-10.9,6.3c-6.1,3.7-21.5,9.4-28.3,11.6c-24.4,7.9-52.5,7-53.9,4.4C340.9,477.9,353.2,459.8,363.7,456.7z"/>
	<path class="st18" d="M604.4,466.6l-121.2,21c-1,0.2-2-0.7-2.1-1.8l8.6-84.4c0-0.9,0.6-1.7,1.4-1.9l121.2-21c1-0.2,2,0.7,2.1,1.8
		l-8.6,84.4C605.8,465.7,605.2,466.5,604.4,466.6z"/>
	<path class="st3" d="M566.2,433.5c-0.5-3.4-5.3-5.3-11-4.4c-5.4,0.9-9.6,4.6-9,8.1c0.5,3.4,5.3,5.3,11,4.4
		C562.7,440.8,566.8,437.1,566.2,433.5z M562.9,437.9c-1.5,1.3-3.6,2.3-5.9,2.6c-4.8,0.8-8.9-0.8-9.3-3.5c-0.2-1.3,0.5-2.8,1.9-4.1
		c1.5-1.3,3.6-2.3,5.9-2.6c4.8-0.8,8.9,0.8,9.3,3.5C565,435.1,564.3,436.6,562.9,437.9z"/>
	<path class="st17" d="M406.7,317.8c0,0-2.7,2.2-4.7,3.2s14.1,11.2,18.5,10.1c0,0-0.5-3.1,0.5-7.1C421,324,414.4,322.5,406.7,317.8z
		"/>
	<g>
		<path class="st19" d="M626,477c-0.5,0-2.2,0.3-4.7,0.8C624.6,477.3,626.5,477,626,477z"/>
		<path class="st19" d="M581,483c-8.5,0.7-27.4,0.5-38.8,1.4c-1.7-0.1-6.4-0.7-7.2-2.8l-17.6,3.1c0,0,20.5,18.3,22.5,22.5
			c1.1,3.5,1.9,6.1,1.9,6.1S575,498,588,490c9.9-6.1,25.5-10.4,33.3-12.2C611.8,479.3,590.6,482.3,581,483z"/>
	</g>
</g>
<path class="st20" d="M338.4,469.6c0,0-7.4,12.4-7.4,16.4c0,0,11.3-3.1,12.2-4L338.4,469.6z"/>
<path class="st20" d="M371.5,454.6l-0.9-4.8c0,0,5.4-0.9,5.4,1.1S371.5,454.6,371.5,454.6z"/>
<path class="st21" d="M356,373c-4-4-6-10-3-8s8,16,10,15s4-9,6-7s-3,10-2,16s13.2,61,13.6,63.5L371,455c0,0,5-1,5-4s-13-61-14-63
	S356,373,356,373z"/>
<path class="st21" d="M369.2,488c0,0,27.8,2,69.8-24c0,0,21.8-1.1,16.9,11l-18.9,4c0,0-2,0-1,2c0,0-17,4.9-27.5,15.9
	c-10.4,11-5.4,15.5-24.4,29.9c-0.2,0.1-0.3,0.3-0.5,0.4l1.6,3.7l-9.2,1c0,0-6.2-11.1-6.6-21S369.5,489,369.2,488z"/>
<path class="st21" d="M454,353c0-1.4,0-2.3,0.1-2.6c0.4-1.6,1.9,3.9,5.9,8.6c5,6,18,37,18,43s-2.5,25.9,6.7,44l-3.9-3.6
	c0,0-7.8-18.4-6.8-28.4s4-16-13-49L454,353z"/>
<path class="st22" d="M383.7,526.8l1.6,4.6c0,0-7.4,1.7-9.4,0.7C376,532,382.5,528.5,383.7,526.8z"/>
<path class="st23" d="M467.5,548.1c0,0-4.5,7.9,4.5,6.9s19.8,17,19.9,19.5l8.8-2.3c0,0-4.9-18.4-9.8-22.8c-4.9-4.4-0.1-4.1-14.5-4.2
	L467.5,548.1z"/>
<path class="st24" d="M581,571"/>
<path class="st19" d="M384,527c0,0,10.9-9.7,19.9-23.9C413,489,432,482,436,481l46,9c0,0,34,16,33,29s-14,56,2,75
	s40.5,58.3,40.5,58.3s-10.2,1.6-13.4,1.6c-3.2,0-4.6-5.5-4.6-5.5s-23.8-34.7-38-72.8c0,0-3.8-13.2-7.5-20.7
	c-3.7-7.4-3.3-7.5-9.5-9.5c-6.2-2-48.2-5-52.2-6s-38.8-0.4-41.9-1.2C387.5,537.5,384,527,384,527z"/>
<path class="st25" d="M735,297c0,0,18,8,29,24C764,321,759,298,735,297z"/>
<path class="st17" d="M371,455c0,0-21.5,5.6-30.3,20.3L338,470c0,0,11.1-13.8,17.1-15.9C361,452,371,450,371,450V455z"/>
<path class="st17" d="M548.7,654.5c0,0,16.5-0.8,23.9-4.1l1.5,5.2c0,0-9.7,4.9-23.9,3.7L548.7,654.5z"/>
</svg>
