<?xml version="1.0" encoding="UTF-8"?>
<svg id="Layer_1" data-name="Layer 1" xmlns="http://www.w3.org/2000/svg" viewBox="0 0 619.05 159.6">
  <defs>
    <style>
      .cls-1 { fill: #ffb81f; }
      .cls-2 { fill: #ff8602; }
      .cls-3 { fill: #00a0a3; }
      .cls-4 { fill: #484848; }
      </style>
  </defs>
  <g>
    <path class="cls-4" d="M236.74,33.04c-6.96,0-11.6,2.29-13.92,6.88l-38.8,87.25h21.62l29.91-70.79c.25-.59.49-.88.74-.88s.49.29.74.88l29.91,70.79h21.62l-38.5-86.71c-2.52-4.95-6.96-7.42-13.33-7.42Z"/>
    <path class="cls-4" d="M383,126.5h-47.38c-7.16,0-12.92-1.71-17.29-5.13-4.37-3.42-6.55-8.41-6.55-14.98V33.04h20.06v73.35c0,2.79,2.22,4.18,6.66,4.18h44.5v15.92Z"/>
    <path class="cls-4" d="M465.53,33.04c-6.96,0-11.6,2.29-13.92,6.88l-38.8,87.25h21.62l29.91-70.79c.25-.59.49-.88.74-.88s.49.29.74.88l29.91,70.79h21.62l-38.5-86.71c-2.52-4.95-6.96-7.42-13.33-7.42Z"/>
    <path class="cls-4" d="M576.11,127.1c-12.09,0-24.41-1.08-36.94-3.24v-15.79c13.87,2.11,26.21,3.17,37.02,3.17,15.2,0,22.8-3.8,22.8-11.4,0-2.3-1.68-4.32-5.03-6.07-3.36-1.75-10.48-4.02-21.36-6.78-10.88-2.77-19.32-6.24-25.32-10.43-6-4.18-8.99-10.03-8.99-17.55,0-7.92,3.54-14.33,10.62-19.23,7.08-4.9,17.36-7.35,30.84-7.35,9.62,0,20.73,1.08,33.32,3.24v15.72c-13.87-2.07-25-3.11-33.39-3.11s-13.55.97-16.66,2.9c-3.11,1.93-4.66,4.52-4.66,7.76,0,2.39,1.58,4.55,4.74,6.48,3.16,1.94,10.28,4.3,21.36,7.09,11.08,2.79,19.62,6.16,25.62,10.12,6,3.96,8.99,9.7,8.99,17.21,0,7.92-3.66,14.44-10.99,19.57-7.33,5.13-17.98,7.69-31.95,7.69Z"/>
  </g>
  <g>
    <path class="cls-3" d="M9.75,102.2c-5.24,4.03-6.21,11.54-2.18,16.78,2.36,3.06,5.9,4.66,9.49,4.66,2.55,0,5.12-.81,7.29-2.49,20.4-15.71,35.99-34.47,46.67-56.06-5.28-11.14-9.32-22.94-12.11-35.39-7.81,29.27-24.01,53.12-49.16,72.49Z"/>
    <circle class="cls-3" cx="16.3" cy="45.52" r="16.3"/>
    <circle class="cls-1" cx="132.94" cy="45.52" r="16.3"/>
    <circle class="cls-2" cx="74.62" cy="143.3" r="16.3"/>
    <path class="cls-1" d="M86.48,10.34c-.9-6.55-6.94-11.12-13.48-10.22-6.55.9-11.12,6.94-10.22,13.48,3.48,25.31,11.97,48.09,25.32,68.17,12.29,1.05,24.59,3.54,36.8,7.44-21.49-21.64-34.11-47.6-38.41-78.87Z"/>
    <path class="cls-2" d="M136.77,100.62c-23.76-9.83-47.71-13.99-71.63-12.49-7.02,10.14-15.27,19.55-24.69,28.17,29.12-7.86,57.81-5.72,87.17,6.43,6.11,2.53,13.11-.37,15.63-6.48,2.53-6.11-.37-13.11-6.48-15.63Z"/>
  </g>
</svg>