<?xml version="1.0" encoding="utf-8"?>
<!-- Generator: Adobe Illustrator 24.2.3, SVG Export Plug-In . SVG Version: 6.00 Build 0)  -->
<svg version="1.1" id="Layer_1" xmlns="http://www.w3.org/2000/svg" xmlns:xlink="http://www.w3.org/1999/xlink" x="0px" y="0px"
	 viewBox="0 0 828.7 221" style="enable-background:new 0 0 828.7 221;" xml:space="preserve">
<style type="text/css">
	.st0{fill:#00A0A3;}
	.st1{fill:#FFB81F;}
	.st2{fill:#FF8602;}
	.st3{fill:#484848;}
</style>
<g>
	<path class="st0" d="M13.5,141.5c-7.2,5.6-8.6,16-3,23.2c3.3,4.2,8.2,6.5,13.1,6.5c3.5,0,7.1-1.1,10.1-3.4
		C62,146,83.6,120,98.3,90.1c-7.3-15.4-12.9-31.8-16.8-49C70.8,81.7,48.3,114.7,13.5,141.5z"/>
	<circle class="st0" cx="22.6" cy="63" r="22.6"/>
	<circle class="st1" cx="184.1" cy="63" r="22.6"/>
	<circle class="st2" cx="103.3" cy="198.4" r="22.6"/>
	<path class="st1" d="M119.7,14.3c-1.2-9.1-9.6-15.4-18.7-14.2C92,1.4,85.7,9.8,86.9,18.8c4.8,35,16.6,66.6,35.1,94.4
		c17,1.5,34,4.9,50.9,10.3C143.2,93.6,125.7,57.6,119.7,14.3z"/>
	<path class="st2" d="M189.4,139.3c-32.9-13.6-66.1-19.4-99.2-17.3c-9.7,14-21.1,27.1-34.2,39c40.3-10.9,80-7.9,120.7,8.9
		c8.5,3.5,18.1-0.5,21.6-9C201.8,152.5,197.8,142.8,189.4,139.3z"/>
</g>
<g>
	<g>
		<path class="st0" d="M308.9,195.5H305v-16.2c0-2.5-0.5-4.2-1.5-5c-1-0.8-2.5-1.2-4.3-1.2c-1.8,0-3.2,0.5-4.2,1.3
			c-1,0.9-1.5,2.5-1.5,4.8v16.2h-3.9v-16.2c0-2.3-0.5-3.9-1.5-4.8c-1-0.9-2.4-1.3-4.3-1.3c-1.8,0-3.2,0.4-4.2,1.2
			c-1,0.8-1.5,2.4-1.5,5v16.2h-3.9v-16.4c0-3.7,0.9-6.1,2.6-7.3c1.7-1.2,4-1.8,6.7-1.8c3.7,0,6.4,1.1,8.1,3.4
			c1.7-2.3,4.5-3.4,8.1-3.4c2.7,0,5,0.6,6.7,1.8c1.7,1.2,2.6,3.7,2.6,7.3V195.5z"/>
		<path class="st0" d="M329.2,195.7c-3.6,0-6.4-1.1-8.6-3.3c-2.2-2.2-3.3-5.4-3.3-9.8c0-4.3,1.1-7.5,3.3-9.6c2.2-2.1,5-3.1,8.6-3.1
			c3.6,0,6.5,1,8.6,3.1s3.2,5.3,3.2,9.6c0,4.3-1.1,7.6-3.3,9.8C335.6,194.6,332.8,195.7,329.2,195.7z M329.2,192.6
			c5.3,0,7.9-3.3,7.9-9.9c0-3.1-0.6-5.4-1.9-7.1c-1.2-1.6-3.3-2.5-6.1-2.5c-2.9,0-4.9,0.8-6.2,2.5c-1.2,1.6-1.9,4-1.9,7.1
			C321.2,189.3,323.9,192.6,329.2,192.6z"/>
		<path class="st0" d="M353.2,195.5h-3.9v-20.6c0-3.1,2-4.6,6-4.6c2.4,0,4.8,0.2,7.3,0.5v2.7h-6.5c-2,0-3,1-3,3V195.5z"/>
		<path class="st0" d="M382.1,195.7c-4.1,0-7.3-1.1-9.7-3.3c-2.3-2.2-3.5-5.4-3.5-9.7c0-4.3,1.1-7.5,3.4-9.6
			c2.3-2.1,5.1-3.1,8.7-3.1c3.5,0,6.3,1.1,8.5,3.3c2.2,2.2,3.3,5.3,3.3,9.5v1c0,0.5-0.2,0.7-0.6,0.7h-19.2c0,2.3,0.7,4.2,2.2,5.8
			c1.5,1.6,4.1,2.4,7.7,2.4c2.3,0,4.9-0.2,7.8-0.5v2.8C387.1,195.4,384.2,195.7,382.1,195.7z M388.8,181.5c-0.3-2.7-1-4.8-2.2-6.2
			c-1.2-1.5-3.1-2.2-5.8-2.2c-2.7,0-4.7,0.8-6,2.3s-2,3.6-2,6.1H388.8z"/>
		<path class="st0" d="M419.6,206.6h-3.9v-23.9c0-4.3,1.1-7.5,3.3-9.6c2.2-2.1,5-3.1,8.6-3.1c3.6,0,6.4,1,8.6,3.1s3.3,5.3,3.3,9.6
			c0,4.4-1,7.6-3,9.8c-2,2.2-4.7,3.2-8.1,3.2c-4,0-6.9-1-8.8-2.9V206.6z M427.5,192.6c5.3,0,8-3.3,8-9.9c0-3.1-0.6-5.4-1.9-7.1
			c-1.3-1.6-3.3-2.5-6.1-2.5c-2.8,0-4.8,0.8-6.1,2.5c-1.3,1.6-1.9,4-1.9,7.1c0,3.7,0.6,6.2,1.9,7.7
			C422.7,191.9,424.8,192.6,427.5,192.6z"/>
		<path class="st0" d="M460.2,195.7c-4.1,0-7.3-1.1-9.7-3.3c-2.3-2.2-3.5-5.4-3.5-9.7c0-4.3,1.1-7.5,3.4-9.6
			c2.3-2.1,5.1-3.1,8.7-3.1c3.5,0,6.3,1.1,8.5,3.3c2.2,2.2,3.3,5.3,3.3,9.5v1c0,0.5-0.2,0.7-0.6,0.7H451c0,2.3,0.7,4.2,2.2,5.8
			c1.5,1.6,4.1,2.4,7.7,2.4c2.3,0,4.9-0.2,7.8-0.5v2.8C465.2,195.4,462.3,195.7,460.2,195.7z M466.9,181.5c-0.3-2.7-1-4.8-2.2-6.2
			c-1.2-1.5-3.1-2.2-5.8-2.2c-2.7,0-4.7,0.8-6,2.3s-2,3.6-2,6.1H466.9z"/>
		<path class="st0" d="M482.7,195.5h-3.9v-20.6c0-3.1,2-4.6,6-4.6c2.4,0,4.8,0.2,7.3,0.5v2.7h-6.5c-2,0-3,1-3,3V195.5z"/>
		<path class="st0" d="M508.3,195.8c-2.8,0-5.9-0.3-9.4-1v-2.7c4,0.4,7.1,0.5,9.4,0.5c2.2,0,3.8-0.3,4.9-0.9c1-0.6,1.6-1.6,1.6-3
			c0-1.2-0.6-2.1-1.9-2.7c-1.3-0.6-3.2-1.2-5.7-1.6c-2.5-0.5-4.6-1.3-6.2-2.4c-1.6-1.1-2.5-2.8-2.5-5.1c0-2.4,0.8-4.2,2.4-5.3
			c1.6-1.1,4.3-1.7,7.9-1.7c2.8,0,5.7,0.3,8.9,1v2.7c-3.6-0.3-6.6-0.5-8.8-0.5c-2.2,0-3.8,0.3-4.9,0.9c-1,0.6-1.6,1.6-1.6,2.9
			c0,1.2,0.6,2.1,1.9,2.7c1.3,0.6,3.2,1.2,5.7,1.6c2.5,0.5,4.6,1.3,6.2,2.4c1.7,1.1,2.5,2.8,2.5,5.1c0,2.4-0.8,4.2-2.5,5.3
			C514.5,195.2,511.9,195.8,508.3,195.8z"/>
		<path class="st0" d="M537.8,195.7c-3.6,0-6.4-1.1-8.6-3.3c-2.2-2.2-3.3-5.4-3.3-9.8c0-4.3,1.1-7.5,3.3-9.6c2.2-2.1,5-3.1,8.6-3.1
			c3.6,0,6.5,1,8.6,3.1c2.2,2.1,3.2,5.3,3.2,9.6c0,4.3-1.1,7.6-3.3,9.8C544.2,194.6,541.4,195.7,537.8,195.7z M537.8,192.6
			c5.3,0,7.9-3.3,7.9-9.9c0-3.1-0.6-5.4-1.9-7.1c-1.2-1.6-3.3-2.5-6.1-2.5c-2.9,0-4.9,0.8-6.2,2.5c-1.2,1.6-1.9,4-1.9,7.1
			C529.8,189.3,532.5,192.6,537.8,192.6z"/>
		<path class="st0" d="M580.1,195.5h-3.9v-15.4c0-2.3-0.5-4-1.5-5.2s-2.9-1.8-5.7-1.8c-2.8,0-4.8,0.6-5.8,1.8
			c-1,1.2-1.5,2.9-1.5,5.2v15.4h-3.9v-15.6c0-3.7,1-6.2,2.9-7.7c1.9-1.5,4.7-2.2,8.3-2.2c3.6,0,6.3,0.7,8.2,2.2
			c1.9,1.5,2.8,4,2.8,7.7V195.5z"/>
		<path class="st0" d="M597.7,195.8c-3.1,0-5.5-0.7-7.2-2c-1.7-1.3-2.6-3.1-2.6-5.3c0-5.2,3.7-7.8,11.2-7.9h6.7v-1.8
			c0-1.6-0.6-3-1.8-4.1c-1.2-1.1-3.1-1.6-5.7-1.6c-2.2,0-4.8,0.1-7.8,0.3v-2.7c2.4-0.5,5-0.7,7.8-0.7c3.9,0,6.8,0.8,8.6,2.3
			c1.8,1.6,2.7,3.8,2.7,6.8v16.4h-3.9v-2.6C603.8,194.8,601.1,195.8,597.7,195.8z M597.4,192.6c2.6,0,4.6-0.5,6.1-1.5
			c1.5-1,2.2-2.3,2.2-4.1v-3.9h-5.9c-5.4,0-8.1,1.6-8.1,4.8c0,1.3,0.5,2.4,1.5,3.3C594.3,192.2,595.7,192.6,597.4,192.6z"/>
		<path class="st0" d="M623.8,195.7c-3.5,0-5.2-1.6-5.2-4.9v-32.4h3.9v30.8c0,2.2,1,3.2,3,3.2h1.3v2.8
			C625.9,195.6,624.9,195.7,623.8,195.7z"/>
		<path class="st0" d="M634.6,202.4h-2.2c1.1-2.3,1.7-4,1.7-5.2c0-0.8-0.2-1.5-0.6-2.1c-0.4-0.6-0.6-1.2-0.6-1.9
			c0-0.9,0.2-1.6,0.6-2.1c0.4-0.4,1.1-0.7,2.1-0.7c1,0,1.7,0.2,2,0.7c0.4,0.4,0.6,1.1,0.6,2.1C638.2,195.5,637,198.6,634.6,202.4z"
			/>
		<path class="st0" d="M670.3,195.8c-3.1,0-5.5-0.7-7.2-2c-1.7-1.3-2.6-3.1-2.6-5.3c0-5.2,3.7-7.8,11.2-7.9h6.7v-1.8
			c0-1.6-0.6-3-1.8-4.1c-1.2-1.1-3.1-1.6-5.7-1.6c-2.2,0-4.8,0.1-7.8,0.3v-2.7c2.4-0.5,5-0.7,7.8-0.7c3.9,0,6.8,0.8,8.6,2.3
			c1.8,1.6,2.7,3.8,2.7,6.8v16.4h-3.9v-2.6C676.3,194.8,673.6,195.8,670.3,195.8z M670,192.6c2.6,0,4.6-0.5,6.1-1.5
			c1.5-1,2.2-2.3,2.2-4.1v-3.9h-5.9c-5.4,0-8.1,1.6-8.1,4.8c0,1.3,0.5,2.4,1.5,3.3C666.9,192.2,668.2,192.6,670,192.6z"/>
		<path class="st0" d="M696.3,195.7c-3.5,0-5.2-1.6-5.2-4.9v-32.4h3.9v30.8c0,2.2,1,3.2,3,3.2h1.3v2.8
			C698.5,195.6,697.5,195.7,696.3,195.7z"/>
		<path class="st0" d="M731.2,195.5c-1.4,0-2.3-0.8-2.7-2.3l-4.7-14.7c-0.2-0.5-0.3-0.8-0.5-0.8s-0.3,0.3-0.5,0.8l-4.7,14.4
			c-0.5,1.7-1.5,2.5-2.9,2.5c-1.4,0-2.3-0.8-2.7-2.3l-7.7-22.9h4.2l5.7,19.9c0.2,0.6,0.4,0.9,0.6,0.9c0.2,0,0.4-0.3,0.6-0.9
			l5.5-18.4c0.3-1,0.8-1.5,1.7-1.5h0.5c0.8,0,1.3,0.5,1.6,1.5l5.6,18.4c0.2,0.6,0.4,0.9,0.6,0.9s0.4-0.3,0.6-0.9l5.6-19.9h4.2
			l-7.5,22.7C733.6,194.6,732.6,195.5,731.2,195.5z"/>
		<path class="st0" d="M757.1,195.8c-3.1,0-5.5-0.7-7.2-2c-1.7-1.3-2.6-3.1-2.6-5.3c0-5.2,3.7-7.8,11.2-7.9h6.7v-1.8
			c0-1.6-0.6-3-1.8-4.1c-1.2-1.1-3.1-1.6-5.7-1.6c-2.2,0-4.8,0.1-7.8,0.3v-2.7c2.4-0.5,5-0.7,7.8-0.7c3.9,0,6.8,0.8,8.6,2.3
			c1.8,1.6,2.7,3.8,2.7,6.8v16.4h-3.9v-2.6C763.1,194.8,760.4,195.8,757.1,195.8z M756.8,192.6c2.6,0,4.6-0.5,6.1-1.5
			c1.5-1,2.2-2.3,2.2-4.1v-3.9h-5.9c-5.4,0-8.1,1.6-8.1,4.8c0,1.3,0.5,2.4,1.5,3.3C753.7,192.2,755.1,192.6,756.8,192.6z"/>
		<path class="st0" d="M788.2,206.9c-2.2,0-4.6-0.2-7-0.5v-2.7h7c5.5,0,8.2-2.4,8.2-7.3v-3.2c-1.7,1.6-4.4,2.4-8.3,2.4
			c-3.2,0-5.7-0.7-7.5-2.2c-1.7-1.5-2.6-4-2.6-7.7v-15.6h3.9v15.4c0,2.2,0.5,4,1.5,5.2c1,1.2,2.9,1.8,5.8,1.8c2.8,0,4.7-0.6,5.7-1.8
			c1-1.2,1.5-2.9,1.5-5.2v-15.4h3.9v25.9C800.2,203.4,796.2,206.9,788.2,206.9z"/>
		<path class="st0" d="M818.3,195.8c-2.8,0-5.9-0.3-9.4-1v-2.7c4,0.4,7.1,0.5,9.4,0.5c2.2,0,3.8-0.3,4.9-0.9c1-0.6,1.6-1.6,1.6-3
			c0-1.2-0.6-2.1-1.9-2.7c-1.3-0.6-3.2-1.2-5.7-1.6c-2.5-0.5-4.6-1.3-6.2-2.4c-1.6-1.1-2.5-2.8-2.5-5.1c0-2.4,0.8-4.2,2.4-5.3
			c1.6-1.1,4.3-1.7,7.9-1.7c2.8,0,5.7,0.3,8.9,1v2.7c-3.6-0.3-6.6-0.5-8.8-0.5c-2.2,0-3.8,0.3-4.9,0.9c-1,0.6-1.6,1.6-1.6,2.9
			c0,1.2,0.6,2.1,1.9,2.7c1.3,0.6,3.2,1.2,5.7,1.6c2.5,0.5,4.6,1.3,6.2,2.4c1.7,1.1,2.5,2.8,2.5,5.1c0,2.4-0.8,4.2-2.5,5.3
			C824.6,195.2,821.9,195.8,818.3,195.8z"/>
	</g>
	<g>
		<path class="st3" d="M341.3,14.8c-8.9,0-14.8,2.9-17.7,8.8l-49.5,111.2h27.6l38.1-90.2c0.3-0.7,0.6-1.1,0.9-1.1
			c0.3,0,0.6,0.4,0.9,1.1l38.1,90.2h27.6L358.3,24.3C355,18,349.4,14.8,341.3,14.8z"/>
		<path class="st3" d="M527.7,134h-60.4c-9.1,0-16.5-2.2-22-6.5c-5.6-4.4-8.4-10.7-8.4-19.1V14.8h25.6v93.5c0,3.6,2.8,5.3,8.5,5.3
			h56.7V134z"/>
		<path class="st3" d="M632.9,14.8c-8.9,0-14.8,2.9-17.7,8.8l-49.5,111.2h27.6l38.1-90.2c0.3-0.7,0.6-1.1,0.9-1.1
			c0.3,0,0.6,0.4,0.9,1.1l38.1,90.2H699L649.9,24.3C646.7,18,641.1,14.8,632.9,14.8z"/>
		<path class="st3" d="M773.9,134.7c-15.4,0-31.1-1.4-47.1-4.1v-20.1c17.7,2.7,33.4,4,47.2,4c19.4,0,29.1-4.8,29.1-14.5
			c0-2.9-2.1-5.5-6.4-7.7c-4.3-2.2-13.4-5.1-27.2-8.6c-13.9-3.5-24.6-8-32.3-13.3c-7.6-5.3-11.5-12.8-11.5-22.4
			c0-10.1,4.5-18.3,13.5-24.5c9-6.2,22.1-9.4,39.3-9.4c12.3,0,26.4,1.4,42.5,4.1v20c-17.7-2.6-31.9-4-42.6-4
			c-10.2,0-17.3,1.2-21.2,3.7c-4,2.5-5.9,5.8-5.9,9.9c0,3,2,5.8,6,8.3c4,2.5,13.1,5.5,27.2,9c14.1,3.6,25,7.9,32.7,12.9
			c7.6,5,11.5,12.4,11.5,21.9c0,10.1-4.7,18.4-14,24.9C805.3,131.5,791.7,134.7,773.9,134.7z"/>
	</g>
</g>
</svg>
