<?xml version="1.0" encoding="UTF-8"?>
<svg id="Layer_1" xmlns="http://www.w3.org/2000/svg" version="1.1" viewBox="0 0 619 159.6">
   <defs>
    <style>
      .st0 { fill: #ffb81f; }
      .st1 { fill: #ff8602; }
      .st2 { fill: #00a0a3; }
      .st3 { fill: #eeeeed; }
    </style>
  </defs>
  <g>
    <path class="st3" d="M236.7,33c-7,0-11.6,2.3-13.9,6.9l-38.8,87.2h21.6l29.9-70.8c.2-.6.5-.9.7-.9s.5.3.7.9l29.9,70.8h21.6l-38.5-86.7c-2.5-5-7-7.4-13.3-7.4h0Z"/>
    <path class="st3" d="M383,126.5h-47.4c-7.2,0-12.9-1.7-17.3-5.1s-6.5-8.4-6.5-15V33h20.1v73.3c0,2.8,2.2,4.2,6.7,4.2h44.5v15.9h0Z"/>
    <path class="st3" d="M465.5,33c-7,0-11.6,2.3-13.9,6.9l-38.8,87.2h21.6l29.9-70.8c.2-.6.5-.9.7-.9s.5.3.7.9l29.9,70.8h21.6l-38.5-86.7c-2.5-5-7-7.4-13.3-7.4h0Z"/>
    <path class="st3" d="M576.1,127.1c-12.1,0-24.4-1.1-36.9-3.2v-15.8c13.9,2.1,26.2,3.2,37,3.2s22.8-3.8,22.8-11.4-1.7-4.3-5-6.1c-3.4-1.8-10.5-4-21.4-6.8-10.9-2.8-19.3-6.2-25.3-10.4-6-4.2-9-10-9-17.5s3.5-14.3,10.6-19.2,17.4-7.3,30.8-7.3,20.7,1.1,33.3,3.2v15.7c-13.9-2.1-25-3.1-33.4-3.1s-13.5,1-16.7,2.9-4.7,4.5-4.7,7.8,1.6,4.5,4.7,6.5c3.2,1.9,10.3,4.3,21.4,7.1,11.1,2.8,19.6,6.2,25.6,10.1s9,9.7,9,17.2-3.7,14.4-11,19.6-18,7.7-32,7.7h0Z"/>
  </g>
  <g>
    <path class="st2" d="M9.8,102.2c-5.2,4-6.2,11.5-2.2,16.8,2.4,3.1,5.9,4.7,9.5,4.7s5.1-.8,7.3-2.5c20.4-15.7,36-34.5,46.7-56.1-5.3-11.1-9.3-22.9-12.1-35.4-7.8,29.3-24,53.1-49.2,72.5h0Z"/>
    <circle class="st2" cx="16.3" cy="45.5" r="16.3"/>
    <circle class="st0" cx="132.9" cy="45.5" r="16.3"/>
    <circle class="st1" cx="74.6" cy="143.3" r="16.3"/>
    <path class="st0" d="M86.5,10.3c-.9-6.6-6.9-11.1-13.5-10.2-6.6.9-11.1,6.9-10.2,13.5,3.5,25.3,12,48.1,25.3,68.2,12.3,1.1,24.6,3.5,36.8,7.4-21.5-21.6-34.1-47.6-38.4-78.9h0Z"/>
    <path class="st1" d="M136.8,100.6c-23.8-9.8-47.7-14-71.6-12.5-7,10.1-15.3,19.6-24.7,28.2,29.1-7.9,57.8-5.7,87.2,6.4,6.1,2.5,13.1-.4,15.6-6.5,2.5-6.1-.4-13.1-6.5-15.6Z"/>
  </g>
</svg>