<?xml version="1.0" encoding="utf-8"?>
<!-- Generator: Adobe Illustrator 24.2.3, SVG Export Plug-In . SVG Version: 6.00 Build 0)  -->
<svg version="1.1" id="Layer_1" xmlns="http://www.w3.org/2000/svg" xmlns:xlink="http://www.w3.org/1999/xlink" x="0px" y="0px"
	 viewBox="0 0 1000 1000" style="enable-background:new 0 0 1000 1000;" xml:space="preserve">
<style type="text/css">
	.st0{fill:#E7F2F1;}
	.st1{fill:#484848;}
	.st2{fill:#FFFFFF;}
	.st3{fill:#FF8602;}
	.st4{fill:#CEE1DF;}
	.st5{fill:#D56061;}
	.st6{fill:#3C251D;}
	.st7{fill:#ED730F;}
	.st8{fill:#F4BC8E;}
	.st9{fill:#FFAC5E;}
	.st10{fill:#BE7234;}
	.st11{fill:#E48A3F;}
	.st12{opacity:0.33;fill:#B36B30;}
	.st13{fill:#FFBB67;}
	.st14{fill:#FFB060;}
	.st15{fill:#FFD49F;}
	.st16{fill:#FF9D4C;}
	.st17{display:none;}
	.st18{display:inline;}
	.st19{fill:#E8A080;}
	.st20{fill:#F2F2F2;}
	.st21{fill:#187070;}
	.st22{fill:#00A0A3;}
	.st23{fill:#257272;}
	.st24{fill:#FFB81F;}
</style>
<path class="st0" d="M975,358.7C974,165.5,816.8,10.9,623.6,13c-76.9,0.8-142.2,50.3-199.1,94.3c-3.4,2.6-7,4.7-11,6.2
	c-22.3,8.3-27.1-11.8-42.4-24.3C347,70,305.6,63.3,268.5,63C147.3,62.2,48,160.8,48,282c0,35.2,8.3,68.5,23.1,98
	c4.9,9.8,6.1,21,3.1,31.6C63.3,450,33,511.1,33,553c0,244.4,222.6,422,467,422s442.5-198.1,442.5-442.5c0-4.7-0.1-9.3-0.2-13.9
	c-0.2-6.4,1-12.7,3.6-18.6C964.8,456.8,975.3,409,975,358.7z"/>
<g>
	<g>
		<g>
			<g>
				<path class="st1" d="M695.9,243.1H304.1c-4.6,0-8.3,3.7-8.3,8.3v539.9c0,4.6,3.7,8.3,8.3,8.3h391.9c4.6,0,8.3-3.7,8.3-8.3V251.4
					C704.2,246.8,700.5,243.1,695.9,243.1z"/>
			</g>
		</g>
		<g>
			<g>
				<rect x="307.7" y="256.2" class="st2" width="384.6" height="527.5"/>
			</g>
		</g>
		<g>
			<g>
				<g>
					<path class="st3" d="M607.5,230.4h-215c-0.3,0-0.6,0.3-0.6,0.6v26.7h216.1v-26.7C608.1,230.6,607.8,230.4,607.5,230.4z"/>
				</g>
			</g>
			<g>
				<g>
					<path class="st3" d="M500,248.2c-18.5,0-33.5-15-33.5-33.5c0-18.5,15-33.5,33.5-33.5c18.5,0,33.5,15,33.5,33.5
						C533.5,233.2,518.5,248.2,500,248.2z M500,201.7c-7.2,0-13,5.9-13,13c0,7.2,5.9,13,13,13c7.2,0,13-5.9,13-13
						C513,207.6,507.2,201.7,500,201.7z"/>
				</g>
			</g>
		</g>
		<g>
			<g>
				<g>
					<rect x="307.3" y="255.2" class="st2" width="385" height="528.1"/>
				</g>
			</g>
			<g>
				<g>
					<path class="st4" d="M523.6,372.8H356.1c-0.2,0-0.4-0.3-0.4-0.8v-2.7c0-0.4,0.2-0.8,0.4-0.8h167.4c0.2,0,0.4,0.3,0.4,0.8v2.7
						C524,372.5,523.8,372.8,523.6,372.8z"/>
				</g>
			</g>
			<g>
				<g>
					<path class="st4" d="M645.5,434H356.4c-0.4,0-0.8-0.3-0.8-0.8v-2.7c0-0.4,0.3-0.8,0.8-0.8h289.1c0.4,0,0.8,0.3,0.8,0.8v2.7
						C646.3,433.6,646,434,645.5,434z"/>
				</g>
			</g>
			<g>
				<g>
					<path class="st4" d="M645.5,446.2H356.4c-0.4,0-0.8-0.3-0.8-0.8v-2.7c0-0.4,0.3-0.8,0.8-0.8h289.1c0.4,0,0.8,0.3,0.8,0.8v2.7
						C646.3,445.9,646,446.2,645.5,446.2z"/>
				</g>
			</g>
			<g>
				<g>
					<path class="st4" d="M507.5,419.6H358.2c-1.4,0-2.5-0.9-2.5-2.1l0,0c0-1.2,1.1-2.1,2.5-2.1h149.3c1.4,0,2.5,0.9,2.5,2.1l0,0
						C510,418.7,508.9,419.6,507.5,419.6z"/>
				</g>
			</g>
			<g>
				<g>
					<path class="st4" d="M524.2,405.6H358.4c-1.5,0-2.8-0.9-2.8-2.1l0,0c0-1.2,1.2-2.1,2.8-2.1h165.8c1.5,0,2.8,0.9,2.8,2.1l0,0
						C527,404.7,525.8,405.6,524.2,405.6z"/>
				</g>
			</g>
			<g>
				<g>
					<path class="st4" d="M484.3,464.3H357.8c-1.2,0-2.1-0.9-2.1-2.1l0,0c0-1.2,0.9-2.1,2.1-2.1h126.5c1.2,0,2.1,0.9,2.1,2.1l0,0
						C486.4,463.3,485.5,464.3,484.3,464.3z"/>
				</g>
			</g>
			<g>
				<g>
					<path class="st4" d="M523.1,483.3H396.6c-1.2,0-2.1-0.9-2.1-2.1l0,0c0-1.2,0.9-2.1,2.1-2.1h126.5c1.2,0,2.1,0.9,2.1,2.1l0,0
						C525.2,482.3,524.2,483.3,523.1,483.3z"/>
				</g>
			</g>
			<g>
				<g>
					<path class="st4" d="M576.7,495.9H396.6c-1.2,0-2.1-0.9-2.1-2.1l0,0c0-1.2,0.9-2.1,2.1-2.1h180.1c1.2,0,2.1,0.9,2.1,2.1l0,0
						C578.8,495,577.8,495.9,576.7,495.9z"/>
				</g>
			</g>
			<g>
				<g>
					<path class="st4" d="M576.7,528.2H396.6c-1.2,0-2.1-0.9-2.1-2.1l0,0c0-1.2,0.9-2.1,2.1-2.1h180.1c1.2,0,2.1,0.9,2.1,2.1l0,0
						C578.8,527.2,577.8,528.2,576.7,528.2z"/>
				</g>
			</g>
			<g>
				<g>
					<path class="st4" d="M643.2,539.9H396.6c-1.2,0-2.1-0.9-2.1-2.1l0,0c0-1.2,0.9-2.1,2.1-2.1h246.6c1.2,0,2.1,0.9,2.1,2.1l0,0
						C645.3,539,644.3,539.9,643.2,539.9z"/>
				</g>
			</g>
			<g>
				<g>
					<path class="st4" d="M648.6,483.3H539.1c-0.4,0-0.8-0.3-0.8-0.8v-2.7c0-0.4,0.3-0.8,0.8-0.8h109.5c0.4,0,0.8,0.3,0.8,0.8v2.7
						C649.4,482.9,649,483.3,648.6,483.3z"/>
				</g>
			</g>
			<g>
				<g>
					<path class="st4" d="M523.6,318.8H356.1c-0.2,0-0.4-0.3-0.4-0.8v-2.7c0-0.4,0.2-0.8,0.4-0.8h167.4c0.2,0,0.4,0.3,0.4,0.8v2.7
						C524,318.5,523.8,318.8,523.6,318.8z"/>
				</g>
			</g>
			<g>
				<g>
					<path class="st4" d="M515.6,347H356.1c-0.2,0-0.4-0.3-0.4-0.8v-2.7c0-0.4,0.2-0.8,0.4-0.8h159.5c0.2,0,0.4,0.3,0.4,0.8v2.7
						C516,346.7,515.8,347,515.6,347z"/>
				</g>
			</g>
			<g>
				<g>
					<path class="st4" d="M511.6,359.3H356.1c-0.2,0-0.4-0.3-0.4-0.8v-2.7c0-0.4,0.2-0.8,0.4-0.8h155.5c0.2,0,0.4,0.3,0.4,0.8v2.7
						C512,358.9,511.8,359.3,511.6,359.3z"/>
				</g>
			</g>
			<g>
				<g>
					<path class="st4" d="M484.3,332.7H357.8c-1.2,0-2.1-0.9-2.1-2.1l0,0c0-1.2,0.9-2.1,2.1-2.1h126.5c1.2,0,2.1,0.9,2.1,2.1l0,0
						C486.4,331.7,485.5,332.7,484.3,332.7z"/>
				</g>
			</g>
			<g>
				<g>
					<g>
						<g>
							<path class="st4" d="M382.7,502.6H357c-0.8,0-1.5-0.7-1.5-1.5v-25.7c0-0.8,0.7-1.5,1.5-1.5h25.7c0.8,0,1.5,0.7,1.5,1.5v25.7
								C384.2,501.9,383.5,502.6,382.7,502.6z M358.5,499.5h22.6v-22.6h-22.6V499.5z"/>
						</g>
					</g>
				</g>
				<g>
					<g>
						<path class="st5" d="M368.4,498.5c-0.1,0-0.1,0-0.2,0c-0.9-0.1-1.6-0.5-2.1-1.3l-7.3-12.5c-0.7-1.2-0.3-2.8,0.9-3.5
							c1.2-0.7,2.8-0.3,3.5,0.9l5.4,9.3l16.2-20.3c0.9-1.1,2.5-1.3,3.6-0.4c1.1,0.9,1.3,2.5,0.4,3.6l-18.6,23.3
							C369.9,498.1,369.2,498.5,368.4,498.5z"/>
					</g>
				</g>
			</g>
			<g>
				<g>
					<g>
						<g>
							<path class="st4" d="M382.7,543.2H357c-0.8,0-1.5-0.7-1.5-1.5v-25.7c0-0.8,0.7-1.5,1.5-1.5h25.7c0.8,0,1.5,0.7,1.5,1.5v25.7
								C384.2,542.5,383.5,543.2,382.7,543.2z M358.5,540.1h22.6v-22.6h-22.6V540.1z"/>
						</g>
					</g>
				</g>
				<g>
					<g>
						<path class="st5" d="M368.4,539c-0.1,0-0.1,0-0.2,0c-0.9-0.1-1.6-0.5-2.1-1.3l-7.3-12.5c-0.7-1.2-0.3-2.8,0.9-3.5
							c1.2-0.7,2.8-0.3,3.5,0.9l5.4,9.3l16.2-20.3c0.9-1.1,2.5-1.3,3.6-0.4c1.1,0.9,1.3,2.5,0.4,3.6l-18.6,23.3
							C369.9,538.7,369.2,539,368.4,539z"/>
					</g>
				</g>
			</g>
			<g>
				<g>
					<g>
						<g>
							<path class="st4" d="M382.7,587.2H357c-0.8,0-1.5-0.7-1.5-1.5v-25.7c0-0.8,0.7-1.5,1.5-1.5h25.7c0.8,0,1.5,0.7,1.5,1.5v25.7
								C384.2,586.5,383.5,587.2,382.7,587.2z M358.5,584.1h22.6v-22.6h-22.6V584.1z"/>
						</g>
					</g>
				</g>
				<g>
					<g>
						<path class="st5" d="M368.4,583.1c-0.1,0-0.1,0-0.2,0c-0.9-0.1-1.6-0.5-2.1-1.3l-7.3-12.5c-0.7-1.2-0.3-2.8,0.9-3.5
							c1.2-0.7,2.8-0.3,3.5,0.9l5.4,9.3l16.2-20.3c0.9-1.1,2.5-1.3,3.6-0.4c1.1,0.9,1.3,2.5,0.4,3.6l-18.6,23.3
							C369.9,582.7,369.2,583.1,368.4,583.1z"/>
					</g>
				</g>
			</g>
			<g>
				<g>
					<g>
						<g>
							<path class="st4" d="M382.7,633.3H357c-0.8,0-1.5-0.7-1.5-1.5v-25.7c0-0.8,0.7-1.5,1.5-1.5h25.7c0.8,0,1.5,0.7,1.5,1.5v25.7
								C384.2,632.7,383.5,633.3,382.7,633.3z M358.5,630.3h22.6v-22.6h-22.6V630.3z"/>
						</g>
					</g>
				</g>
				<g>
					<g>
						<path class="st5" d="M368.4,629.2c-0.1,0-0.1,0-0.2,0c-0.9-0.1-1.6-0.5-2.1-1.3l-7.3-12.5c-0.7-1.2-0.3-2.8,0.9-3.5
							c1.2-0.7,2.8-0.3,3.5,0.9l5.4,9.3l16.2-20.3c0.9-1.1,2.5-1.3,3.6-0.4c1.1,0.9,1.3,2.5,0.4,3.6l-18.6,23.3
							C369.9,628.9,369.2,629.2,368.4,629.2z"/>
					</g>
				</g>
			</g>
			<g>
				<g>
					<path class="st4" d="M523.1,573.8H396.6c-1.2,0-2.1-0.9-2.1-2.1l0,0c0-1.2,0.9-2.1,2.1-2.1h126.5c1.2,0,2.1,0.9,2.1,2.1l0,0
						C525.2,572.9,524.2,573.8,523.1,573.8z"/>
				</g>
			</g>
			<g>
				<g>
					<path class="st4" d="M576.7,586.5H396.6c-1.2,0-2.1-0.9-2.1-2.1l0,0c0-1.2,0.9-2.1,2.1-2.1h180.1c1.2,0,2.1,0.9,2.1,2.1l0,0
						C578.8,585.6,577.8,586.5,576.7,586.5z"/>
				</g>
			</g>
			<g>
				<g>
					<path class="st4" d="M648.6,573.8H539.1c-0.4,0-0.8-0.3-0.8-0.8v-2.7c0-0.4,0.3-0.8,0.8-0.8h109.5c0.4,0,0.8,0.3,0.8,0.8v2.7
						C649.4,573.5,649,573.8,648.6,573.8z"/>
				</g>
			</g>
			<g>
				<g>
					<path class="st4" d="M576.7,619.2H396.6c-1.2,0-2.1-0.9-2.1-2.1l0,0c0-1.2,0.9-2.1,2.1-2.1h180.1c1.2,0,2.1,0.9,2.1,2.1l0,0
						C578.8,618.2,577.8,619.2,576.7,619.2z"/>
				</g>
			</g>
			<g>
				<g>
					<path class="st4" d="M643.2,631H396.6c-1.2,0-2.1-0.9-2.1-2.1l0,0c0-1.2,0.9-2.1,2.1-2.1h246.6c1.2,0,2.1,0.9,2.1,2.1l0,0
						C645.3,630,644.3,631,643.2,631z"/>
				</g>
			</g>
			<g>
				<g>
					<g>
						<path class="st4" d="M496.7,676.3l-1.9,0.5c-9.6-21-33.2-32.8-56.3-26.9s-38.1,27.6-36.4,50.6l-2.4,0.6l4.8,18.8l2.8-0.7
							c10.1,19.7,33,30.6,55.3,24.9c22.4-5.7,37.1-26.3,36.5-48.5l2.3-0.6L496.7,676.3z M440.8,658.5c18.4-4.7,37.1,4.3,45.3,20.5
							l-2.3,0.6c-7.9-15-25.3-23.2-42.4-18.8c-17.1,4.4-28.4,20-28.1,36.9l-2.3,0.6C410.3,680.1,422.4,663.2,440.8,658.5z
							 M420.1,696c0.5-13.2,9.5-25.1,23-28.5c13.4-3.4,27.1,2.6,33.9,14L420.1,696z M481,700.4c-1.4,12.3-10.1,23-22.8,26.3
							c-12.7,3.2-25.5-2-32.6-12.1L481,700.4z M460.5,735.6c-17.6,4.5-35.5-3.6-44.3-18.6l2.4-0.6c8.3,13.8,25,21.1,41.3,16.9
							c16.4-4.2,27.4-18.6,28.1-34.7l2.4-0.6C489.9,715.3,478.1,731,460.5,735.6z"/>
					</g>
				</g>
			</g>
			<g>
				<g>
					<g>
						<path class="st6" d="M382.8,742.5c-0.6,0-1.1-0.2-1.6-0.6c-0.8-0.7-1.1-1.7-1.2-2.2c-2.4-9.3-0.7-19.5,4.7-27.5
							c0.8-1.2,1.9-2.6,3.5-3.2c1.2-0.5,2.5-0.5,3.7-0.1c0.3-1.6,0.7-3.2,1-4.8c1.4-7.1,2.6-14.6,0.9-21.5L376,719.8
							c-0.3,0.5-0.9,0.8-1.5,0.5c-0.5-0.3-0.8-0.9-0.5-1.5l19-39.6c0.2-0.4,0.6-0.6,1-0.6c0.4,0,0.8,0.3,1,0.7
							c3,8.1,1.6,16.9,0,25.3c-0.4,1.8-0.7,3.6-1.1,5.4c0.7,0.5,1.3,1.1,1.8,1.8c1,1.4,1.5,3,1.8,4.6l4.1-6c0.6-0.8,2.3-3.3,4.7-2.8
							c1.1,0.2,2,1,2.6,2.2c4-1.1,8.5,0.1,11.5,3c0.7-1.9,1.8-3.9,3.4-4.8c1-0.6,2.2-0.7,3.4-0.4c1.6,0.5,2.5,1.9,3.3,3.1
							c0.5,0.7,0.9,1.4,1.4,1.8c2.2,1.9,5.8,0.9,10.8-3.2c6.2-5,13.1-8.8,20.6-11.5c3.3-1.2,5.8-0.9,7.1,0.9
							c0.4,0.5,0.2,1.2-0.2,1.5c-0.5,0.4-1.2,0.2-1.5-0.2c-0.9-1.3-3.5-0.6-4.6-0.2c-7.2,2.6-13.9,6.4-19.9,11.2
							c-2.2,1.8-9,7.2-13.7,3.1c-0.7-0.7-1.3-1.5-1.8-2.3c-0.7-1-1.3-1.9-2.2-2.2c-0.6-0.2-1.1-0.1-1.6,0.2
							c-1.5,0.9-2.5,3.4-2.9,5.4c-0.1,0.4-0.4,0.8-0.9,0.9c-0.4,0.1-0.9-0.1-1.1-0.5c-2.2-3.3-6.7-4.9-10.5-3.8
							c0.6,5.2-2.3,10.6-7,12.9c-0.3,0.1-0.6,0.1-0.9,0c-0.3-0.1-0.5-0.4-0.6-0.7c-1.5-5.1,1.2-11.1,5.9-13.6
							c-0.2-0.5-0.5-0.8-0.9-0.9c-0.7-0.1-1.5,0.5-2.5,1.9l-5.6,8.2c-0.3,0.4-0.7,0.6-1.1,0.5c-0.4-0.1-0.8-0.5-0.8-0.9
							c-0.3-2.1-0.7-4.5-2-6.3c-0.1-0.2-0.3-0.4-0.5-0.6c-1.9,8.7-4,17.4-6.5,25.9c-0.5,1.6-1.7,3.6-3.3,4.1
							C383.3,742.5,383.1,742.5,382.8,742.5z M390.1,710.8c-0.4,0-0.7,0.1-1.1,0.2c-1,0.4-1.8,1.4-2.5,2.4c-5,7.4-6.7,17-4.4,25.7
							c0.1,0.4,0.3,0.9,0.5,1.1c0.2,0.1,0.2,0.1,0.4,0.1c0.7-0.2,1.5-1.4,1.9-2.6c2.5-8.8,4.7-17.7,6.6-26.6
							C391,710.9,390.5,710.8,390.1,710.8z M407.3,712.7c-3.1,1.9-5,5.7-4.6,9.3C405.6,720,407.5,716.3,407.3,712.7z"/>
					</g>
				</g>
			</g>
			<g>
				<g>
					<path class="st4" d="M629.8,675.7h-86.7c-1.5,0-2.7-1.2-2.7-2.7l0,0c0-1.5,1.2-2.7,2.7-2.7h86.7c1.5,0,2.7,1.2,2.7,2.7l0,0
						C632.5,674.5,631.3,675.7,629.8,675.7z"/>
				</g>
			</g>
			<g>
				<g>
					<path class="st4" d="M629.8,693.1h-86.7c-1.5,0-2.7-1.2-2.7-2.7l0,0c0-1.5,1.2-2.7,2.7-2.7h86.7c1.5,0,2.7,1.2,2.7,2.7l0,0
						C632.5,691.8,631.3,693.1,629.8,693.1z"/>
				</g>
			</g>
			<g>
				<g>
					<g>
						<path class="st4" d="M322.5,270.4v500.4H675V270.4H322.5z M637.4,766.2H360.1c-5.1-26.6-25.8-31.9-33-32.9V307.7
							c7.1-1,27.8-6.3,33-32.8h277.4c5.1,26.4,25.7,31.7,32.9,32.7v425.5C663.1,734.3,642.5,739.7,637.4,766.2z"/>
					</g>
				</g>
			</g>
			<g>
				<g>
					<g>
						<polygon class="st7" points="610.8,346 583.5,337.7 561.7,409.7 579.2,400.4 589,418 						"/>
					</g>
				</g>
				<g>
					<g>
						<polygon class="st3" points="622.8,339.8 594.8,345.1 608.6,419 619.8,402.6 636.6,413.8 						"/>
					</g>
				</g>
				<g>
					<g>
						
							<ellipse transform="matrix(0.7071 -0.7071 0.7071 0.7071 -51.5716 520.269)" class="st3" cx="602.2" cy="322.4" rx="38.5" ry="38.5"/>
					</g>
				</g>
				<g>
					<g>
						<path class="st7" d="M633.4,299.6c-3.1-4.3-7.1-7.9-11.7-10.6l-13.1,14l-1.6-18.9c-2.6-0.3-5.2-0.4-7.9-0.2
							c-2.7,0.2-5.3,0.7-7.8,1.5l1.5,18.1l-14.6-11.2c-4.1,3.3-7.6,7.5-10,12.2l15.1,11.6l-19.2,1.6c-0.3,2.6-0.4,5.2-0.2,7.9
							c0.2,2.7,0.7,5.3,1.5,7.8l16.1-1.3l-11.1,11.9c3,4.4,6.8,8.2,11.3,11l14.2-15.2l1.7,20.9c2.6,0.3,5.2,0.4,7.9,0.2
							c2.7-0.2,5.3-0.7,7.8-1.5l-1.8-21.7l17,13c3.9-3.6,7-8,9.1-12.9l-12.3-9.4l15.2-1.3c0.3-2.6,0.4-5.2,0.2-7.9
							c-0.2-2.7-0.7-5.3-1.5-7.8l-18.3,1.5L633.4,299.6z"/>
					</g>
				</g>
				<g>
					<g>
						
							<ellipse transform="matrix(0.9756 -0.2194 0.2194 0.9756 -56.0578 139.9834)" class="st2" cx="602.2" cy="322.4" rx="26.4" ry="26.4"/>
					</g>
				</g>
				<circle class="st8" cx="602.1" cy="322.5" r="27"/>
			</g>
		</g>
	</g>
	<g>
		<path class="st9" d="M359.8,779.2l0.5-23.7c-7-7.3-6.2-19.5,1.8-27.3l14.1-13.9c9.6-9.2,24-9.6,32.3-0.9l0,0
			c8.3,8.6,7.2,23.1-2.4,32.2l-11.1,15.7C390.2,770.5,381.8,785.5,359.8,779.2z"/>
		<path class="st9" d="M465.8,811.6l-19.5-7.4c-4.8-3.7-5.8-10.5-2.3-15.5l16.9-23.2c6.9-9,19.8-10.8,28.9-3.9l0,0
			c9,6.9,10.8,19.8,3.9,28.9L479.4,808C476.1,812,470.6,813.5,465.8,811.6z"/>
		<path class="st9" d="M410.3,800.1l-2.1-17.6c-7-7.3-6.2-19.5,1.8-27.3l14.1-13.9c9.6-9.2,24-9.6,32.3-0.9l0,0
			c8.3,8.6,7.2,23.1-2.4,32.2l-10.8,19.1C435.1,799.7,424,807.5,410.3,800.1z"/>
		<path class="st9" d="M314.4,743.9l-0.3-16.4c-7-7.3-6.2-19.5,1.8-27.3l14.1-13.9c9.6-9.2,24-9.6,32.3-0.9l0,0
			c8.3,8.6,7.2,23.1-2.4,32.2l-12.6,13.6C343.8,740.1,321.5,751.4,314.4,743.9z"/>
		<path class="st10" d="M532.8,459.6c0,0-224.4,195.9-229.7,220.1c0,0,8.4,5.1,16.8,17.8c9.8,14.7,22.9,21.5,30.2,18.7
			c10.6-4.1,10.7-11.7,10.7-11.7l144.7,74.1c0,0,55.7-10,178.6-109.5l34.1-37.6L532.8,459.6z"/>
		<path class="st11" d="M356.4,455.1l97.7-25.1c0,0,33.8-18.9,62.9,7.1c0,0-37.8,66.6,20.3,86.1c0,0,54.8,34,82.1,65.2
			c13.7,15.7,43.9,43.2,57.9,58.4c3.8,4.1,11.7,10.4,15.5,16.3c5.2,8.1,14.8,25.6-5.9,38.8c0,0-14.3,13-37.3-5.5
			c-21.4-17.2-55.1-53.1-77.6-71.6c-0.8-0.7-3.6-3.3-5.3-1.3c-0.5,0.6-0.4,2.4,2.6,5.5c10.2,10.6,53.8,53.5,53.8,53.5
			s16.6,15,20.2,21.9c3.1,6.1,7.4,19.2-5.2,31.3c0,0-18.1,18.5-42.6-1.1l-67.8-62.2c0,0-4.6-4.7-6.3-2.9c-1.2,1.2,0.3,3.8,3.3,6.4
			c0,0,68.6,63.2,70.2,70.1c4.6,19.7-11.9,42.3-40.6,26.8l-71.6-52.3c0,0-2-1.6-3.5,0.4c-0.8,1.1,0.1,2.5,1.8,3.6
			c0,0,67.2,46.9,71.2,51.2c5.3,5.5-11.8,26.4-40.2,13.6c-40.5-18.2-122.7-52.3-161.9-73.2c-13.8-7.4-41.7-25.9-52.3-34.3
			c0,0-46.7-55.8-109.5-64.9l67.1-165.2C255.5,451.8,325.4,467.8,356.4,455.1z"/>
		<path class="st12" d="M352.6,457c-42.5,10.1-90.7-5.3-90.7-5.3l-68.2,169.4c62.8,9.2,105.4,60.6,105.4,60.6
			c10.6,8.4,38.5,26.9,52.3,34.3c3.9,2.1,8.2,4.3,12.8,6.6C341.1,699.1,277.5,597.5,352.6,457z"/>
		<path class="st10" d="M388,575.4c0,0,34.7,35.4,86.1-50.4c0,0,20.3,10.1,55.7-4.9l8.2-9.8c0,0-67.9-1.3-67.8,0
			C470.3,511.7,388,575.4,388,575.4z"/>
		<path class="st13" d="M562.5,436.5c0,0-37.4-17.2-71,9l-53.8,24.3c0,0-22.2,4.4-32.4,32L376.7,546c0,0-20.3,27.2,24.3,31.9
			c5.2,0.5,10.4-0.4,15.1-2.7c11.4-5.6,33.6-19.7,54.9-51.9l0.6-6.3c0,0,2.5,8.2,20.5,7.3c0,0,19-4,45.3-9.2c0,0,3.5,5.5,26,21.9
			c0,0,55.3,38.5,67,56.7l64.1,63c0,0,11.6-3,44.4-42.2l76-27.4l-51.2-160.9c0,0-105.5,17.1-134.6,16.3L562.5,436.5z"/>
		<path class="st14" d="M589.9,439.9c151.8,40.3,148.4,155.3,147.9,178.9c1.2-1.4,2.4-2.8,3.7-4.4l70.3-26.3l-59.7-162
			c0,0-91.3,17.1-120.3,16.3l-45.1-4.1C587.8,438.9,588.7,439.6,589.9,439.9z"/>
		<path class="st15" d="M390.9,524c0,0,9.1-5.1,19.2,2.1c5.1,3.7,6.9,10.5,4.3,16.2c-3.6,8-9.4,19.4-14.5,22.6
			c-6.2,3.8-25.3,3.3-27.8-6.8C372.1,558,371,547.8,390.9,524z"/>
		<path class="st16" d="M584,551.9c0,0,37.9,21.4,82.3-5.8c0,0-32.4,33.8-68.2,16.7L584,551.9z"/>
		<path class="st10" d="M328.2,708.2c9.1,4.9,18,10.1,27.1,15l1.8-2.8c7.8-12.5,3.9-29-8.7-36.8v0c-12.5-7.8-29-3.9-36.8,8.7
			l-2.7,4.3C314.7,701.3,321.6,704.6,328.2,708.2z"/>
		<path class="st10" d="M395.1,721.3c15.3,8.3,10.4,13.9,3.4,31.1l18.4-24.3c7.8-12.5,3.9-29-8.7-36.8v0c-12.5-7.8-29-3.9-36.8,8.7
			L357,724.2C357.4,724.4,394.7,721.1,395.1,721.3z"/>
		<path class="st10" d="M421.1,758.9c10.6,5.8,21,11.8,31.6,17.8l9.8-16.9c7.8-12.5,3.9-29-8.7-36.8v0c-12.5-7.8-29-3.9-36.8,8.7
			l-11.1,19C411,753.4,416.1,756.1,421.1,758.9z"/>
		<path class="st10" d="M481.8,792.3c2,1,8.4-3.9,12.4-7.2c3.3-2.8,5.8-6.6,6.4-10.9c0.9-6.8-2.4-13.1-9.4-17.5
			c-9.7-6-22.4-3-28.4,6.7l-8.4,14.1C463.4,782.6,472.5,787.6,481.8,792.3z"/>
		<g>
			<path class="st13" d="M305.7,742.3L305.7,742.3c-12.7-7.8-16.5-24.6-8.4-37.2l6.3-9.8c7.8-12.5,24.2-16.4,36.8-8.7l0,0
				c12.5,7.8,16.4,24.2,8.7,36.8l-6.8,10.6C334.3,746.2,318.1,749.9,305.7,742.3z"/>
			<path class="st13" d="M351,776.4l-1.2-0.7c-12.1-7.5-15.9-23.2-8.7-35.4l22.2-37.3c7.8-12.5,24.2-16.4,36.8-8.7l0,0
				c12.5,7.8,16.4,24.2,8.7,36.8L387,767.6C379.6,780.1,363.4,784,351,776.4z"/>
			<path class="st13" d="M406.8,799l-7.4-4.5c-10.3-6.4-13.7-19.8-7.6-30.3l17.2-29.6c7.8-12.5,24.2-16.4,36.8-8.7l0,0
				c12.5,7.8,16.4,24.2,8.7,36.8l-16.6,28.5C431.5,802.1,417.5,805.6,406.8,799z"/>
			<path class="st13" d="M453.2,816.2l-6.4-4c-7.8-4.8-10.3-15-5.6-22.9l13.6-22.9c6-9.7,18.7-12.7,28.4-6.7l0,0
				c9.7,6,12.7,18.7,6.7,28.4l-13.3,22.4C471.7,818.5,461.2,821.1,453.2,816.2z"/>
			<g>
				<path class="st15" d="M317.2,696.7l-2.8,4.2c-2,3.3-2.6,7.1-1.8,10.9c0.9,3.7,3.2,6.9,6.5,8.9c2.3,1.4,4.9,2.1,7.5,2.1
					c5,0,9.6-2.6,12.4-7l2.4-3.6c0.5-0.8,0.9-1.7,3-5.1l-23.6-14.8C318.3,695.4,317.7,696,317.2,696.7z"/>
			</g>
			<g>
				<path class="st15" d="M373.8,707c-2.2,3.4-2.9,7.5-2,11.5c0.9,4,3.3,7.4,6.7,9.6c2.4,1.5,5.2,2.3,8,2.4
					c5.3,0.1,10.2-2.6,13.1-7.1l6.9-10.3l-25.7-16.5L373.8,707z"/>
			</g>
			<g>
				<path class="st15" d="M418.4,741c-2.1,3.5-2.6,7.6-1.6,11.6c1,3.9,3.5,7.3,7.1,9.3c2.5,1.4,5.2,2.2,8.1,2.1
					c5.3-0.1,10.1-3,12.8-7.5l5-9.1l-26.3-15.6L418.4,741z"/>
			</g>
			<g>
				<path class="st15" d="M461.3,774.3c-2.9,4.9-1.3,11.3,3.6,14.3c1.7,1,3.6,1.5,5.5,1.5c3.6-0.1,6.9-2,8.7-5l5.1-9.2L466.4,765
					L461.3,774.3z"/>
			</g>
		</g>
		<g>
			<g class="st17">
				<g class="st18">
					<path class="st19" d="M762.9,414.8c0,0-69.1,31.9-76.5,32c-7.4,0.2-24.1-15.2-53.4-18.5c-29.2-3.3-64.5-12.8-80.5-17.5
						c-16-4.6-75.7-6.4-100.7-11.8c-25-5.4-21.9,16.2-64.2,42.1c0,0-50.7,17.8-77.3,22.1l-107.5-37l-66.5,174.7
						c0,0,99,41.2,106.7,46.8c7.7,5.6,57.9,42.6,60.2,44.5c0,0-8.6,33.3,10.2,39.8c18.7,6.5,30.1-6.9,30.1-6.9s-0.5,29.9,20.5,33.3
						c21,3.4,29.7-2.4,29.7-2.4s4.9,24.2,24.2,24.6s24.6-4.9,24.6-4.9s16.2,21.5,36.1,19.5c19.8-2,27.9-15.3,27.9-15.3
						s28,18,43.6,12.3c15.6-5.6,28.5-17.3,27.9-29.2c0,0,12.8,13.4,30.9,7.5s30.4-20.4,26.3-34.3c0,0,20.6,4.2,31.7-6.7
						c11.2-10.9,19.7-24.6,20-32.7c0,0,13.3,2.8,26.1-3.1c12.8-5.9,24.8-21.3,23.3-32.9c-1.5-11.6-4.6-13.9-4.6-13.9
						s39.7-33.1,43.6-41l81.6-14.4L762.9,414.8z"/>
				</g>
			</g>
			<g>
				<g>
					<polygon class="st20" points="873.7,590.5 817.2,613.3 717.7,427.7 818.1,379 					"/>
				</g>
			</g>
			<g>
				<g>
					<path class="st21" d="M852.4,614l-105-207.1c0,0,70.7-36.5,103.6-54.9c32.9-18.3,61,8.8,57.3,58c-3.7,49.2-31.4,96.5-7.9,115.1
						s58.4,16,53.1,37.5C948.1,584.1,852.4,614,852.4,614z"/>
				</g>
			</g>
			<g>
				<g>
					<path class="st21" d="M986.2,503.3c3.8-8,5.5-17.2,1.5-23.9c-5.9-9.9-21.9-5.7-31.2-8.9c-11.9-4.1-21-20.3-35-11.8
						c-5,3-8.3,8.2-10.2,13.6c-2.1,6-3.7,13.7-3.2,20.2c1,12.8,10.1,24.3,21.7,29.7c15,7,33.5,6.2,46.3-5
						C979.6,514.2,983.5,509.1,986.2,503.3z"/>
				</g>
			</g>
			<g>
				<g>
					<path class="st21" d="M927.7,442.1c2.9,3.1,7.4,4.8,11.5,3.8c9.8-2.3,14-17.1,4.9-22.6c-6.1-3.7-16.5-5.2-19.7,2.9
						C922.5,431.4,924.1,438.1,927.7,442.1z"/>
				</g>
			</g>
			<g>
				<g>
					<path class="st22" d="M270.7,442.1c0,0,19,99-82.2,197.2L21.7,586.8c0,0-22.5-11.4-5-38.6s81.9-7.4,79.4-47.1
						c-2.5-39.7,27.6-89.4,60.5-104.1L270.7,442.1z"/>
				</g>
			</g>
			<g>
				<g>
					<g>
						<path class="st22" d="M26.1,516.6c5,3,11.2,3.2,17.1,3.1c3.7-0.1,7.5-0.4,11.2-0.7c-6.9-3.4-13.7-6.8-20.1-10.4
							c-2.9-1.6-6.3-3.1-9.9-4.8c-2.1-0.9-4.2-1.9-6.3-2.9c0,0.6-0.2,1.2-0.2,1.9C18.1,508.4,21.3,513.7,26.1,516.6z"/>
					</g>
				</g>
				<g>
					<g>
						<path class="st22" d="M24.8,488.4c-2.8,2-4.8,5-6,8.3c2.4,1.2,4.8,2.3,7.1,3.3c3.7,1.7,7.2,3.2,10.2,4.9
							c8.2,4.5,16.9,8.9,25.8,13.1c0.5-0.1,0.9-0.1,1.4-0.2c9-1.3,18.8-3.9,24-11.4c2.1-3.1,3.2-6.6,3.7-10.4
							c-10-3.4-19.9-7.2-29.6-11.3C49.3,486.6,34.9,481.1,24.8,488.4z"/>
					</g>
				</g>
				<g>
					<g>
						<path class="st22" d="M91.2,491.8c0-2.9-0.1-5.7-0.5-8.5c-0.3-2.4-0.8-5-2.6-6.7c-2.6-2.5-6.9-2.1-10.1-0.4
							c-3.2,1.7-5.8,4.4-8.9,6.2c-0.5,0.3-1,0.4-1.5,0.6C75.4,486.1,83.3,489.1,91.2,491.8z"/>
					</g>
				</g>
			</g>
			<g>
				<g>
					<g>
						<path class="st2" d="M230.5,578.5c-6.3-2.8-13.1-4.8-19.6-6.7l-2.9-0.8c-43.8-13-80.3-24.7-115.8-39.4
							c-4.6-1.9-9.2-3.9-13.7-5.9c-1.9,0.7-4,1.3-6.1,1.9c6,2.7,12,5.3,18.2,7.9c35.7,14.8,72.3,26.5,116.2,39.5l2.9,0.8
							c6.4,1.9,13,3.8,19.1,6.5c1,0.5,2.4,1.2,3.8,2.1c0.3,0.2,0.6,0.3,0.8,0.5c0.8-1.2,1.5-2.4,2.2-3.6c-0.3-0.2-0.6-0.4-0.9-0.5
							C233.1,579.8,231.7,579,230.5,578.5z"/>
					</g>
				</g>
				<g>
					<g>
						<path class="st2" d="M137.1,410c-1.1,1-2.2,2-3.3,3c8.4,4.2,16.9,8.1,25.2,11.8c36.5,16.2,74.2,32.8,112.8,45.9
							c0.1-1.5,0.1-3,0.2-4.4c-38-12.9-75.2-29.4-111.3-45.3C152.9,417.5,144.9,413.9,137.1,410z"/>
					</g>
				</g>
				<g>
					<g>
						<path class="st2" d="M192.1,597.4L47.7,563.4c-11.1-2.6-22.9-5.4-34.1-9.6c-0.6,1.3-1.2,2.6-1.7,3.9
							c11.5,4.3,23.6,7.2,34.9,9.8l144.4,33.9c8.4,2,17,4.1,25.1,7.3c0.9-1.1,1.8-2.3,2.7-3.4C210.3,601.7,201.1,599.5,192.1,597.4z
							"/>
					</g>
				</g>
				<g>
					<g>
						<path class="st2" d="M236.1,528.9c-12.1-2.9-24.3-5.6-36.5-8.4c-34.5-7.8-69.6-15.8-103.6-27.1c-0.1,1.5,0,3,0,4.4
							c33.7,11.2,68.5,19.1,102.6,26.8c12.2,2.7,24.4,5.5,36.5,8.4c7.3,1.7,14.8,3.5,22.3,4.8c0.5-1.3,1-2.7,1.5-4
							C251.2,532.5,243.6,530.7,236.1,528.9z"/>
					</g>
				</g>
				<g>
					<g>
						<path class="st2" d="M113.2,439.3c-0.7,1.2-1.4,2.5-2.1,3.7c31.6,13.5,64.7,23.6,96.9,33.4c20.1,6.1,40.8,12.4,60.9,19.4
							c0.2-1.4,0.5-2.8,0.7-4.2c-20-7-40.5-13.2-60.4-19.2C177.3,462.7,144.5,452.7,113.2,439.3z"/>
					</g>
				</g>
			</g>
			<g>
				<g>
					
						<ellipse transform="matrix(0.5084 -0.8611 0.8611 0.5084 -435.7669 435.0244)" class="st23" cx="163.1" cy="599.2" rx="13.4" ry="13.4"/>
				</g>
			</g>
			<g>
				<g>
					<path class="st24" d="M862.8,591.1c-1.6,0-3.1-1-3.8-2.6c-0.9-2.1,0.1-4.6,2.3-5.5l34.7-14.5c2.1-0.9,4.6,0.1,5.5,2.3
						c0.9,2.1-0.1,4.6-2.3,5.5l-34.7,14.5C864,591.1,863.4,591.2,862.8,591.1z"/>
				</g>
			</g>
		</g>
	</g>
</g>
</svg>
