<?xml version="1.0" encoding="utf-8"?>
<!-- Generator: Adobe Illustrator 24.2.3, SVG Export Plug-In . SVG Version: 6.00 Build 0)  -->
<svg version="1.1" xmlns="http://www.w3.org/2000/svg" xmlns:xlink="http://www.w3.org/1999/xlink" x="0px" y="0px"
	 viewBox="0 0 2098.9 2212.2" style="enable-background:new 0 0 2098.9 2212.2;" xml:space="preserve">
<style type="text/css">
	.st0{opacity:0.3;fill:#BDC6C5;}
	.st1{fill:#77C3C6;}
	.st2{fill:#2A8487;}
	.st3{fill:#C6E6E7;}
	.st4{fill:#5CC3C6;}
	.st5{opacity:0.5;fill:#FFFFFF;}
	.st6{opacity:0.1;}
	.st7{fill:#18898D;}
	.st8{fill:#FEB447;}
	.st9{fill:#FFFFFF;}
	.st10{fill:#4AC0C4;}
	.st11{fill:#FD8C10;}
	.st12{fill:#10ACB3;}
	.st13{opacity:0.3;fill:#4AC0C4;}
	.st14{opacity:0.3;fill:#00959B;}
	.st15{opacity:0.4;fill:#FD8C10;}
	.st16{fill:#FEC22E;}
	.st17{fill:#7CCACC;}
	.st18{fill:#0BAAAF;}
	.st19{fill:#FEAD00;}
	.st20{fill:#4EB7BA;}
	.st21{fill:#FE9A07;}
	.st22{fill:#F98919;}
	.st23{fill:#FFB81F;}
	.st24{display:none;}
	.st25{display:inline;fill:#FFFFFF;}
	.st26{fill:#00959B;}
	.st27{fill:#037070;}
	.st28{fill:#E27310;}
	.st29{fill:#DEA676;}
	.st30{fill:#E8B588;}
	.st31{fill:#3A321F;}
	.st32{fill:#008188;}
	.st33{fill:#00B2B8;}
	.st34{fill:#CE844D;}
	.st35{fill:#302A21;}
	.st36{fill:#916F05;}
	.st37{opacity:0.3;}
	.st38{fill:#0E4B6F;}
	.st39{opacity:0.3;fill:#0E4B6F;}
	.st40{fill:#6ED5D8;}
	.st41{fill:#AFC4D7;}
	.st42{fill:#ABEBED;}
	.st43{fill:#EEA674;}
	.st44{opacity:0.3;fill:#A88414;}
	.st45{fill:#008C91;}
	.st46{fill:#00284B;}
	.st47{opacity:0.3;fill:#FFB81F;}
	.st48{opacity:0.5;fill:#AFC4D7;}
	.st49{fill:#DB8758;}
</style>
<g id="Layer_25">
	<path class="st0" d="M2098.9,1926.1c0-64.2-199.7-118.4-473.9-136.1c-38.5-2.5-78.2-8.1-115.9-16.6
		c-112.2-25.2-281.6-41.2-471.2-41.2c-337.9,0-611.7,50.9-611.7,113.7c0,25.2-19.6,45.9-44.7,47.5C161.8,1906.9,0,1952.9,0,2007.5
		c0,65.2,230.1,118,513.9,118c42.5,0,83.8-1.2,123.3-3.4c37.8-2.1,74.9,5.6,108.8,22.5c79.3,39.6,267.7,67.5,487.4,67.5
		c291.3,0,527.5-49,527.5-109.4c0-30.1,22-55.5,51.8-59.9C1985.7,2017.2,2098.9,1974.5,2098.9,1926.1z"/>
</g>
<g id="Layer_24">
	<polygon class="st1" points="689,1403.4 1438.3,1403.4 1373.3,192 624,192 	"/>
</g>
<g id="Layer_23">
	<polygon class="st2" points="1392.4,1777.2 1458.4,1777.2 1438.3,1403.4 1372.3,1403.4 	"/>
</g>
<g id="Layer_22">
	<polygon class="st2" points="709.1,1777.2 775,1777.2 755,1403.4 689,1403.4 	"/>
</g>
<g id="Layer_21">
	<polygon class="st3" points="1343.5,1444.9 594.2,1444.9 624,192 1373.3,192 	"/>
</g>
<g id="Layer_20">
	<polygon class="st4" points="650.9,1831.5 585,1831.5 594.2,1444.9 660.1,1444.9 	"/>
</g>
<g id="Layer_19">
	<polygon class="st4" points="1334.3,1831.5 1268.3,1831.5 1277.5,1444.9 1343.5,1444.9 	"/>
</g>
<g id="Layer_18">
	<g>
		<polygon class="st5" points="1304.8,579.3 670.3,579.3 677.7,267.2 1312.2,267.2 		"/>
		<g class="st6">
			<polygon class="st7" points="1278.8,557.8 697.3,557.8 697.4,554.5 1278.9,554.5 			"/>
			<polygon class="st7" points="1279.6,525.3 698.1,525.3 698.2,522 1279.7,522 			"/>
			<polygon class="st7" points="1280.4,492.9 698.9,492.9 699,489.5 1280.4,489.5 			"/>
			<polygon class="st7" points="1281.1,460.4 699.7,460.4 699.7,457.1 1281.2,457.1 			"/>
			<polygon class="st7" points="1281.9,427.9 700.4,427.9 700.5,424.6 1282,424.6 			"/>
			<polygon class="st7" points="1282.7,395.4 701.2,395.4 701.3,392.1 1282.8,392.1 			"/>
			<polygon class="st7" points="1283.5,362.9 702,362.9 702.1,359.6 1283.5,359.6 			"/>
			<polygon class="st7" points="1284.2,330.4 702.7,330.4 702.8,327.1 1284.3,327.1 			"/>
		</g>
		<g>
			<path class="st8" d="M896.9,527.4c-1.8,0-3.6-0.1-5.6-0.4c-13.2-1.8-22.3-12.5-32.9-24.8c-14.4-16.8-30.6-35.7-62.5-40.2
				c-53.4-7.4-94.4,43.6-94.8,44.1c-1.1,1.5-3.2,1.7-4.7,0.6c-1.4-1.1-1.7-3.2-0.5-4.6c1.8-2.2,43.8-54.6,101-46.6
				c34.3,4.8,52.1,25.6,66.5,42.3c9.7,11.3,18.1,21.1,28.9,22.6c24.2,3.3,35.7-20.7,47.9-46.2c12.1-25.2,24.6-51.3,50.9-51.3
				c48.6,0,59.2-8.4,70.4-17.3c6.4-5.1,13.1-10.4,26.4-14c26.2-7.2,37.9,2.5,50.3,12.7c11.1,9.1,22.6,18.6,46.7,18.6
				c59.8,0,96.4-126.2,96.8-127.5c0.5-1.8,2.3-2.8,4.1-2.4c1.8,0.5,2.8,2.3,2.3,4c-1.5,5.4-38.3,132.4-103.3,132.4
				c-26.5,0-39.4-10.7-50.9-20.1c-12-9.9-21.6-17.7-44.4-11.5c-12,3.3-17.8,7.9-24,12.8c-11.6,9.2-23.6,18.8-74.6,18.8
				c-22,0-33,23-44.7,47.4C934.4,501.8,922.1,527.4,896.9,527.4z"/>
			<g>
				<path class="st9" d="M1113.1,393.7c-0.1,5.9-5.1,10.7-11,10.7s-10.6-4.8-10.5-10.7c0.1-5.9,5.1-10.7,11-10.7
					C1108.5,383,1113.2,387.8,1113.1,393.7z"/>
				<path class="st8" d="M1102,407.7c-7.7,0-13.9-6.3-13.7-14c0.2-7.7,6.6-14,14.4-14c7.7,0,13.9,6.3,13.7,14
					C1116.2,401.5,1109.7,407.7,1102,407.7z M1102.6,383c-5.9,0-10.8,4.8-11,10.7c-0.1,5.9,4.6,10.7,10.5,10.7s10.8-4.8,11-10.7
					C1113.2,387.8,1108.5,383,1102.6,383z"/>
			</g>
		</g>
		<path class="st8" d="M1141.3,309.4h-73.8c-10.6,0-19.5,8.7-19.7,19.2c-0.3,10.6,8.2,19.2,18.8,19.2h23.5l12.9,23.3l14-23.3h23.5
			c10.6,0,19.5-8.7,19.7-19.2C1160.3,318.1,1151.8,309.4,1141.3,309.4z"/>
		<path class="st10" d="M836.2,343.6h-73.8c-10.6,0-19.5,8.7-19.7,19.2v0c-0.3,10.6,8.2,19.2,18.8,19.2h23.5l12.9,23.3l14-23.3h23.5
			c10.6,0,19.5-8.7,19.7-19.2v0C855.2,352.2,846.7,343.6,836.2,343.6z"/>
		<path class="st10" d="M697.3,559.5c-0.3,0-0.6,0-0.9-0.1c-1.7-0.5-2.7-2.4-2.1-4.1c1.8-5.7,45.5-140.5,103.6-132.3
			c34.3,4.8,52.1,25.4,66.5,42c9.7,11.2,18.1,21,28.9,22.4c24.1,3.3,36.5,13.3,47.5,22.1c13.1,10.5,22.5,18,47.3,11
			c33.5-9.5,48.7-35.4,62.2-58.3c10.4-17.8,20.3-34.5,37.1-39.2c26.2-7.2,37.9,2.8,50.3,13.3c11.1,9.4,22.6,19.1,46.7,19.1
			c60,0,95.7-94.3,96.1-95.2c0.6-1.7,2.5-2.6,4.3-2c1.7,0.6,2.6,2.5,1.9,4.2c-1.5,4.1-37.7,99.7-102.4,99.7
			c-26.6,0-39.5-11-50.9-20.6c-12-10.2-21.5-18.2-44.3-12c-14.2,3.9-22.9,18.8-33,36c-13.4,22.8-30.1,51.2-66.2,61.4
			c-28.1,8-39.7-1.4-53.2-12.2c-10.3-8.3-22-17.6-44.3-20.7c-13.2-1.8-22.3-12.4-32.9-24.6c-14.4-16.6-30.6-35.4-62.5-39.8
			c-52.5-7.2-95.8,126.3-96.2,127.6C700.1,558.6,698.7,559.5,697.3,559.5z"/>
		<g>
			<path class="st9" d="M809.7,426.2c-0.2,6.8-5.8,12.4-12.7,12.4c-6.8,0-12.2-5.5-12.1-12.4s5.8-12.4,12.7-12.4
				C804.4,413.9,809.8,419.4,809.7,426.2z"/>
			<path class="st10" d="M797,440.2c-7.7,0-13.9-6.3-13.7-14c0.2-7.7,6.6-14,14.4-14c7.7,0,13.9,6.3,13.7,14
				C811.1,433.9,804.7,440.2,797,440.2z M797.5,415.5c-5.9,0-10.8,4.8-11,10.7c-0.1,5.9,4.6,10.7,10.5,10.7s10.8-4.8,11-10.7
				C808.1,420.3,803.4,415.5,797.5,415.5z"/>
		</g>
		<g>
			<path class="st9" d="M776.8,362.3c0.9,0.5,1.6,1.2,2,2.1c0.5,0.9,0.7,1.8,0.7,2.8c0,1.9-0.7,3.4-2,4.5c-1.3,1-3.1,1.6-5.3,1.6
				c-2.2,0-4-0.5-5.2-1.5c-1.3-1-1.9-2.4-1.8-4.1l0-0.3h3.4l0,0.2c0,0.8,0.3,1.5,0.9,2s1.5,0.7,2.7,0.7c1.2,0,2.1-0.3,2.7-0.8
				c0.7-0.5,1-1.3,1-2.2c0-0.9-0.3-1.6-1-2.2c-0.7-0.5-1.6-0.8-2.6-0.8c-0.8,0-1.7,0.2-2.5,0.5l-1.2-1.6l5.5-5.1h-7.7l0.1-3.1h12.8
				l0,1.5l-5.6,5.2h0.1C774.8,361.5,775.9,361.8,776.8,362.3z"/>
			<path class="st9" d="M781.9,372.2c-0.4-0.4-0.6-0.9-0.6-1.5c0-0.6,0.2-1.1,0.7-1.5c0.4-0.4,1-0.6,1.6-0.6c0.6,0,1.1,0.2,1.5,0.6
				c0.4,0.4,0.6,0.9,0.6,1.5c0,0.6-0.2,1.1-0.7,1.5c-0.4,0.4-0.9,0.6-1.5,0.6C782.9,372.8,782.3,372.6,781.9,372.2z"/>
			<path class="st9" d="M787.4,372.9l0-0.8c0.2-1.4,0.7-2.7,1.7-3.9c1-1.2,2.4-2.4,4.4-3.6l0.6-0.4c1.2-0.8,2.2-1.4,2.8-2
				c0.6-0.6,1-1.3,1-2.1c0-0.8-0.2-1.3-0.8-1.7c-0.5-0.4-1.3-0.6-2.1-0.6c-1.1,0-1.9,0.3-2.7,0.9c-0.7,0.6-1.1,1.5-1.1,2.5l0,0.3
				h-3.4l0-0.6c0-1.3,0.4-2.4,1-3.3c0.6-1,1.5-1.7,2.6-2.2c1.1-0.5,2.3-0.8,3.8-0.8c1.9,0,3.5,0.5,4.7,1.4c1.2,0.9,1.8,2.3,1.7,4
				c0,1.5-0.6,2.8-1.6,3.9c-1,1.1-2.6,2.2-4.7,3.2c-1,0.5-1.8,1-2.4,1.4c-0.6,0.4-1.1,0.9-1.4,1.4h10l-0.1,3.1H787.4z"/>
			<path class="st9" d="M814.8,361.6c1,0.5,1.8,1.2,2.4,2.1c0.6,0.9,0.8,2,0.8,3.3c0,2-0.7,3.5-2,4.6c-1.3,1.1-3.1,1.6-5.3,1.6
				c-1.5,0-2.8-0.2-3.9-0.7c-1.1-0.5-1.9-1.1-2.5-2c-0.6-0.9-0.9-1.9-0.8-3l0-0.3h3.4l0,0.1c0,0.8,0.3,1.5,1,1.9
				c0.7,0.5,1.6,0.7,2.8,0.7c1.2,0,2.1-0.3,2.7-0.8s1-1.3,1-2.3c0-1.1-0.3-1.9-1-2.4c-0.7-0.5-1.6-0.8-2.8-0.8c-0.7,0-1.3,0.1-2,0.3
				c-0.6,0.2-1.1,0.4-1.4,0.8l-3.1,0l0.8-10H817l-0.1,3.1H808l-0.3,3.6c0.5-0.2,1-0.4,1.7-0.5c0.6-0.1,1.3-0.2,1.9-0.2
				C812.6,360.9,813.8,361.1,814.8,361.6z"/>
			<path class="st9" d="M819.3,372.9l0-0.8c0.2-1.4,0.7-2.7,1.7-3.9c1-1.2,2.4-2.4,4.4-3.6l0.6-0.4c1.2-0.8,2.2-1.4,2.8-2
				c0.6-0.6,1-1.3,1-2.1c0-0.8-0.2-1.3-0.8-1.7c-0.5-0.4-1.3-0.6-2.1-0.6c-1.1,0-1.9,0.3-2.7,0.9c-0.7,0.6-1.1,1.5-1.1,2.5l0,0.3
				h-3.4l0-0.6c0-1.3,0.4-2.4,1-3.3c0.6-1,1.5-1.7,2.6-2.2c1.1-0.5,2.3-0.8,3.8-0.8c1.9,0,3.5,0.5,4.7,1.4c1.2,0.9,1.8,2.3,1.7,4
				c0,1.5-0.6,2.8-1.6,3.9c-1,1.1-2.6,2.2-4.7,3.2c-1,0.5-1.8,1-2.4,1.4c-0.6,0.4-1.1,0.9-1.4,1.4h10l-0.1,3.1H819.3z"/>
		</g>
		<g>
			<path class="st9" d="M1086.5,335.7l-0.1,3.3h-3.6l0.1-3.3h-9.8l0-1.6l11.5-13.3h2.2l-0.3,11.8h2.9l-0.1,3.1H1086.5z
				 M1077.9,332.8h5.2l0.1-6.3L1077.9,332.8z"/>
			<path class="st9" d="M1091.4,338.3c-0.4-0.4-0.6-0.9-0.6-1.5c0-0.6,0.2-1.1,0.7-1.5c0.4-0.4,1-0.6,1.6-0.6c0.6,0,1.1,0.2,1.5,0.6
				c0.4,0.4,0.6,0.9,0.6,1.5c0,0.6-0.2,1.1-0.7,1.5c-0.4,0.4-0.9,0.6-1.5,0.6C1092.3,339,1091.8,338.8,1091.4,338.3z"/>
			<path class="st9" d="M1101.6,339h-4l8.3-15h-8.7l0.1-3.1h13.4l0,1.7L1101.6,339z"/>
			<path class="st9" d="M1111.2,339l0-0.8c0.2-1.4,0.7-2.7,1.7-3.9c1-1.2,2.4-2.4,4.4-3.6l0.6-0.4c1.2-0.8,2.2-1.4,2.8-2
				c0.6-0.6,1-1.3,1-2.1c0-0.8-0.2-1.3-0.8-1.7c-0.5-0.4-1.3-0.6-2.1-0.6c-1.1,0-1.9,0.3-2.7,0.9c-0.7,0.6-1.1,1.5-1.1,2.5l0,0.3
				h-3.4l0-0.6c0-1.3,0.4-2.4,1-3.3c0.6-1,1.5-1.7,2.6-2.2c1.1-0.5,2.3-0.8,3.8-0.8c1.9,0,3.5,0.5,4.7,1.4c1.2,0.9,1.8,2.3,1.7,4
				c0,1.5-0.6,2.8-1.6,3.9c-1,1.1-2.6,2.2-4.7,3.2c-1,0.5-1.8,1-2.4,1.4c-0.6,0.4-1.1,0.9-1.4,1.4h10l-0.1,3.1H1111.2z"/>
			<path class="st9" d="M1126.8,322.3l6.1-1.5h1.7l-0.4,18.2h-3.6l0.3-14.6l-3.4,0.7L1126.8,322.3z"/>
		</g>
	</g>
</g>
<g id="Layer_17">
	<g>
		<polygon class="st5" points="1290.9,1142.7 656.4,1142.7 650.7,1381.2 1285.3,1381.2 		"/>
		<g>
			<g>
				<path class="st11" d="M952.4,1275.5l-0.1,5.9h-6.4l0.1-5.9h-17.4l0.1-2.9l20.4-23.6h3.9l-0.5,21h5.1l-0.1,5.4H952.4z
					 M937.1,1270.3h9.3l0.3-11.2L937.1,1270.3z"/>
				<path class="st11" d="M980.1,1261.4c1.8,0.9,3.2,2.2,4.2,3.8c1,1.7,1.5,3.6,1.4,5.9c-0.1,3.6-1.3,6.3-3.6,8.2
					c-2.3,1.9-5.5,2.8-9.5,2.8c-2.6,0-4.9-0.4-6.9-1.2c-2-0.8-3.4-2-4.5-3.5c-1-1.5-1.5-3.3-1.5-5.3l0-0.5h6l0,0.2
					c0,1.4,0.6,2.6,1.8,3.5c1.2,0.9,2.9,1.3,4.9,1.3c2.1,0,3.7-0.5,4.9-1.5c1.2-1,1.8-2.3,1.8-4.1c0-1.9-0.5-3.3-1.7-4.3
					c-1.2-1-2.9-1.5-5-1.5c-1.2,0-2.4,0.2-3.5,0.5c-1.1,0.3-1.9,0.8-2.5,1.4l-5.4,0l1.4-17.8h21.5l-0.1,5.6H968l-0.6,6.4
					c0.8-0.4,1.8-0.6,2.9-0.8c1.1-0.2,2.3-0.3,3.4-0.3C976.2,1260.1,978.2,1260.5,980.1,1261.4z"/>
				<path class="st11" d="M989.5,1269.8c-1.1-1.2-1.6-2.9-1.6-5c0.1-2.1,0.7-3.8,1.8-5c1.2-1.2,2.7-1.8,4.7-1.8c2,0,3.5,0.6,4.6,1.8
					c1.1,1.2,1.6,2.9,1.6,5c0,2.1-0.7,3.8-1.8,5c-1.2,1.2-2.7,1.8-4.7,1.8C992.2,1271.6,990.6,1271,989.5,1269.8z M996.7,1268
					c0.6-0.8,1-1.9,1-3.2c0-1.4-0.3-2.5-0.8-3.2s-1.4-1.2-2.5-1.2c-1.1,0-1.9,0.4-2.5,1.2s-1,1.8-1,3.2s0.2,2.5,0.8,3.2
					c0.6,0.8,1.4,1.2,2.5,1.2S996.1,1268.8,996.7,1268z M995.7,1281.4h-3.1l16.6-23.3h3.1L995.7,1281.4z M1005.9,1279.8
					c-1.1-1.2-1.6-2.9-1.6-5c0.1-2.1,0.7-3.8,1.8-5c1.2-1.2,2.7-1.8,4.7-1.8s3.5,0.6,4.6,1.8c1.1,1.2,1.6,2.9,1.6,5
					c0,2.1-0.7,3.8-1.8,5c-1.2,1.2-2.7,1.8-4.7,1.8C1008.6,1281.7,1007,1281.1,1005.9,1279.8z M1013.1,1278.1c0.6-0.8,1-1.9,1-3.2
					c0-1.4-0.3-2.5-0.8-3.2c-0.6-0.8-1.4-1.2-2.5-1.2c-1.1,0-1.9,0.4-2.5,1.2s-1,1.8-1,3.2c0,1.4,0.2,2.5,0.8,3.2
					c0.6,0.8,1.4,1.2,2.5,1.2S1012.5,1278.8,1013.1,1278.1z"/>
			</g>
			<g>
				<path class="st10" d="M726.3,1278.9l0-1.5c0.3-2.6,1.3-4.9,3-7c1.7-2.1,4.4-4.2,7.9-6.5l1.1-0.7c2.2-1.3,3.9-2.6,5-3.6
					c1.2-1.1,1.7-2.3,1.8-3.7c0-1.3-0.4-2.4-1.4-3.1c-1-0.7-2.2-1.1-3.8-1.1c-1.9,0-3.5,0.6-4.7,1.7c-1.3,1.1-1.9,2.6-2,4.4l0,0.5
					h-6l0-1.1c0.1-2.3,0.6-4.2,1.8-5.9c1.1-1.7,2.7-3,4.6-4c1.9-0.9,4.2-1.4,6.7-1.4c3.5,0,6.2,0.8,8.4,2.5c2.1,1.7,3.2,4.1,3.1,7.1
					c-0.1,2.7-1,4.9-2.9,6.9c-1.9,1.9-4.7,3.9-8.4,5.8c-1.8,0.9-3.2,1.8-4.3,2.6c-1.1,0.8-1.9,1.6-2.5,2.4h17.8l-0.1,5.6H726.3z"/>
				<path class="st10" d="M775,1258.9c1.8,0.9,3.2,2.2,4.2,3.8c1,1.7,1.5,3.6,1.4,5.9c-0.1,3.6-1.3,6.3-3.6,8.2
					c-2.3,1.9-5.5,2.8-9.5,2.8c-2.6,0-4.9-0.4-6.9-1.2c-2-0.8-3.4-2-4.5-3.5c-1-1.5-1.5-3.3-1.5-5.3l0-0.5h6l0,0.2
					c0,1.4,0.6,2.6,1.8,3.5c1.2,0.9,2.9,1.3,4.9,1.3c2.1,0,3.7-0.5,4.9-1.5c1.2-1,1.8-2.3,1.8-4.1c0-1.9-0.5-3.3-1.7-4.3
					c-1.2-1-2.9-1.5-5-1.5c-1.2,0-2.4,0.2-3.5,0.5c-1.1,0.3-1.9,0.8-2.5,1.4l-5.4,0l1.4-17.8H779l-0.1,5.6H763l-0.6,6.4
					c0.8-0.4,1.8-0.6,2.9-0.8c1.1-0.2,2.3-0.3,3.4-0.3C771.1,1257.6,773.2,1258,775,1258.9z"/>
				<path class="st10" d="M784.4,1267.3c-1.1-1.2-1.6-2.9-1.6-5c0.1-2.1,0.7-3.8,1.8-5c1.2-1.2,2.7-1.8,4.7-1.8s3.5,0.6,4.6,1.8
					c1.1,1.2,1.6,2.9,1.6,5c0,2.1-0.7,3.8-1.8,5c-1.2,1.2-2.7,1.8-4.7,1.8C787.1,1269.2,785.6,1268.5,784.4,1267.3z M791.6,1265.5
					c0.6-0.8,1-1.9,1-3.2c0-1.4-0.3-2.5-0.8-3.2c-0.6-0.8-1.4-1.2-2.5-1.2c-1.1,0-1.9,0.4-2.5,1.2c-0.6,0.8-1,1.8-1,3.2
					c0,1.4,0.2,2.5,0.8,3.2c0.6,0.8,1.4,1.2,2.5,1.2C790.1,1266.7,791,1266.3,791.6,1265.5z M790.7,1278.9h-3.1l16.6-23.3h3.1
					L790.7,1278.9z M800.8,1277.3c-1.1-1.2-1.6-2.9-1.6-5c0.1-2.1,0.7-3.8,1.8-5c1.2-1.2,2.7-1.8,4.7-1.8s3.5,0.6,4.6,1.8
					c1.1,1.2,1.6,2.9,1.6,5c0,2.1-0.7,3.8-1.8,5c-1.2,1.2-2.7,1.8-4.7,1.8C803.5,1279.2,802,1278.6,800.8,1277.3z M808,1275.6
					c0.6-0.8,1-1.9,1-3.2c0-1.4-0.3-2.5-0.8-3.2c-0.6-0.8-1.4-1.2-2.5-1.2c-1.1,0-1.9,0.4-2.5,1.2c-0.6,0.8-1,1.8-1,3.2
					c0,1.4,0.2,2.5,0.8,3.2c0.6,0.8,1.4,1.2,2.5,1.2C806.5,1276.7,807.4,1276.4,808,1275.6z"/>
			</g>
			<g>
				<path class="st12" d="M1144.2,1280.4h-7.1l14.7-26.7h-15.5l0.1-5.6h23.9l-0.1,3L1144.2,1280.4z"/>
				<path class="st12" d="M1182.8,1260.4c1.8,0.9,3.2,2.2,4.2,3.8c1,1.7,1.5,3.6,1.4,5.9c-0.1,3.6-1.3,6.3-3.6,8.2
					c-2.3,1.9-5.5,2.8-9.5,2.8c-2.6,0-4.9-0.4-6.9-1.2c-2-0.8-3.4-2-4.5-3.5c-1-1.5-1.5-3.3-1.5-5.3l0-0.5h6l0,0.2
					c0,1.4,0.6,2.6,1.8,3.5c1.2,0.9,2.9,1.3,4.9,1.3c2.1,0,3.7-0.5,4.9-1.5c1.2-1,1.8-2.3,1.8-4.1c0-1.9-0.5-3.3-1.7-4.3
					c-1.2-1-2.9-1.5-5-1.5c-1.2,0-2.4,0.2-3.5,0.5c-1.1,0.3-1.9,0.8-2.5,1.4l-5.4,0l1.4-17.8h21.5l-0.1,5.6h-15.9l-0.6,6.4
					c0.8-0.4,1.8-0.6,2.9-0.8c1.1-0.2,2.3-0.3,3.4-0.3C1178.9,1259.1,1181,1259.5,1182.8,1260.4z"/>
				<path class="st12" d="M1192.2,1268.8c-1.1-1.2-1.6-2.9-1.6-5c0.1-2.1,0.7-3.8,1.8-5c1.2-1.2,2.7-1.8,4.7-1.8
					c2,0,3.5,0.6,4.6,1.8c1.1,1.2,1.6,2.9,1.6,5c0,2.1-0.7,3.8-1.8,5c-1.2,1.2-2.7,1.8-4.7,1.8
					C1194.9,1270.6,1193.4,1270,1192.2,1268.8z M1199.4,1267c0.6-0.8,1-1.9,1-3.2c0-1.4-0.3-2.5-0.8-3.2c-0.6-0.8-1.4-1.2-2.5-1.2
					c-1.1,0-1.9,0.4-2.5,1.2c-0.6,0.8-1,1.8-1,3.2s0.2,2.5,0.8,3.2c0.6,0.8,1.4,1.2,2.5,1.2S1198.8,1267.8,1199.4,1267z
					 M1198.4,1280.4h-3.1l16.6-23.3h3.1L1198.4,1280.4z M1208.6,1278.8c-1.1-1.2-1.6-2.9-1.6-5c0.1-2.1,0.7-3.8,1.8-5
					c1.2-1.2,2.7-1.8,4.7-1.8s3.5,0.6,4.6,1.8c1.1,1.2,1.6,2.9,1.6,5c0,2.1-0.7,3.8-1.8,5c-1.2,1.2-2.7,1.8-4.7,1.8
					C1211.3,1280.7,1209.8,1280.1,1208.6,1278.8z M1215.8,1277.1c0.6-0.8,1-1.9,1-3.2c0-1.4-0.3-2.5-0.8-3.2
					c-0.6-0.8-1.4-1.2-2.5-1.2c-1.1,0-1.9,0.4-2.5,1.2c-0.6,0.8-1,1.8-1,3.2c0,1.4,0.2,2.5,0.8,3.2c0.6,0.8,1.4,1.2,2.5,1.2
					C1214.3,1278.2,1215.2,1277.8,1215.8,1277.1z"/>
			</g>
			<path class="st13" d="M765.3,1344.1c-44.7,0-80.1-36.3-79.1-80.9c1.1-44.6,38.3-80.9,82.9-80.9s80.1,36.3,79.1,80.9
				C847.2,1307.8,810,1344.1,765.3,1344.1z M768.8,1197.7c-36.1,0-66.2,29.4-67.1,65.4c-0.9,36.1,27.8,65.4,64,65.4
				c36.1,0,66.2-29.4,67.1-65.4C833.6,1227.1,804.9,1197.7,768.8,1197.7z"/>
			<path class="st10" d="M840.3,1270.9c-4.3,0-7.7-3.5-7.6-7.7c0.9-36.1-27.8-65.4-64-65.4c-4.3,0-7.7-3.5-7.6-7.7
				c0.1-4.3,3.7-7.7,7.9-7.7c44.7,0,80.1,36.3,79.1,80.9C848.2,1267.4,844.6,1270.9,840.3,1270.9z"/>
			<path class="st14" d="M1174.3,1344.1c-44.7,0-80.1-36.3-79.1-80.9c1.1-44.6,38.3-80.9,82.9-80.9c44.7,0,80.1,36.3,79.1,80.9
				S1219,1344.1,1174.3,1344.1z M1177.8,1197.7c-36.1,0-66.2,29.4-67.1,65.4c-0.9,36.1,27.8,65.4,64,65.4
				c36.1,0,66.2-29.4,67.1-65.4C1242.6,1227.1,1213.9,1197.7,1177.8,1197.7z"/>
			<path class="st12" d="M1174.3,1344.1c-44.7,0-80.1-36.3-79.1-80.9c0.1-4.3,3.7-7.7,7.9-7.7s7.7,3.5,7.6,7.7
				c-0.9,36.1,27.8,65.4,64,65.4c36.1,0,66.2-29.4,67.1-65.4c0.9-36.1-27.8-65.4-64-65.4c-4.3,0-7.7-3.5-7.6-7.7
				c0.1-4.3,3.7-7.7,7.9-7.7c44.7,0,80.1,36.3,79.1,80.9S1219,1344.1,1174.3,1344.1z"/>
			<path class="st15" d="M969.8,1344.1c-44.7,0-80.1-36.3-79.1-80.9c1.1-44.6,38.3-80.9,82.9-80.9s80.1,36.3,79.1,80.9
				C1051.7,1307.8,1014.5,1344.1,969.8,1344.1z M973.3,1197.7c-36.1,0-66.2,29.4-67.1,65.4c-0.9,36.1,27.8,65.4,64,65.4
				c36.1,0,66.2-29.4,67.1-65.4C1038.1,1227.1,1009.4,1197.7,973.3,1197.7z"/>
			<path class="st11" d="M998.1,1338.5c-3,0-5.9-1.8-7-4.8c-1.6-3.9,0.4-8.5,4.4-10.1c24.8-10.2,41.2-33.9,41.8-60.4
				c0.9-36.1-27.8-65.4-64-65.4c-4.3,0-7.7-3.5-7.6-7.7c0.1-4.3,3.7-7.7,7.9-7.7c44.7,0,80.1,36.3,79.1,80.9
				c-0.8,32.8-21.1,62.1-51.7,74.7C1000.1,1338.3,999.1,1338.5,998.1,1338.5z"/>
		</g>
	</g>
</g>
<g id="Layer_16">
	<g>
		<polygon class="st5" points="1291.9,1098.5 657.4,1098.5 668.6,626.6 1303.1,626.6 		"/>
		<polygon class="st10" points="751.5,1062.2 692.4,1062.2 697.2,858.9 756.4,858.9 		"/>
		<polygon class="st16" points="836,1062.2 776.9,1062.2 784.6,736.3 843.8,736.3 		"/>
		<polygon class="st17" points="920.6,1062.2 861.4,1062.2 868.1,779.4 927.3,779.4 		"/>
		<polygon class="st10" points="1005.1,1062.2 945.9,1062.2 955.4,663.5 1014.6,663.5 		"/>
		<polygon class="st8" points="1089.6,1062.2 1030.4,1062.2 1039,701.6 1098.2,701.6 		"/>
		<polygon class="st17" points="1174.1,1062.2 1115,1062.2 1121.6,782.7 1180.8,782.7 		"/>
		<polygon class="st10" points="1258.7,1062.2 1199.5,1062.2 1204.8,838.7 1264,838.7 		"/>
		<polygon class="st18" points="756,874.1 696.8,874.1 697.2,858.9 756.4,858.9 		"/>
		<polygon class="st19" points="843.4,751.4 784.3,751.4 784.6,736.3 843.8,736.3 		"/>
		<polygon class="st20" points="926.9,794.6 867.8,794.6 868.1,779.4 927.3,779.4 		"/>
		<polygon class="st18" points="1014.2,678.7 955.1,678.7 955.4,663.5 1014.6,663.5 		"/>
		<polygon class="st21" points="1097.8,716.7 1038.7,716.7 1039,701.6 1098.2,701.6 		"/>
		<polygon class="st20" points="1180.4,797.8 1121.3,797.8 1121.6,782.7 1180.8,782.7 		"/>
		<polygon class="st18" points="1263.6,853.9 1204.5,853.9 1204.8,838.7 1264,838.7 		"/>
	</g>
</g>
<g id="Layer_15">
	<g>
		<path class="st22" d="M1520.8,225.9h-211.3c-30.7,0-55.8-25.1-55.8-55.8V55.8c0-30.7,25.1-55.8,55.8-55.8h211.3
			c30.7,0,55.8,25.1,55.8,55.8v114.3C1576.6,200.8,1551.5,225.9,1520.8,225.9z"/>
		<polygon class="st22" points="1527.1,321.7 1403.8,222.9 1487.6,222.9 		"/>
		<g>
			<path class="st9" d="M1511.8,80.6h-195.3H1511.8z"/>
			<path class="st9" d="M1316.5,88.1h195.3c4.2,0,7.5-3.4,7.5-7.5c0-4.2-3.4-7.5-7.5-7.5h-195.3c-4.2,0-7.5,3.4-7.5,7.5
				C1309,84.8,1312.4,88.1,1316.5,88.1z"/>
		</g>
		<g>
			<path class="st9" d="M1511.8,117.6h-195.3H1511.8z"/>
			<path class="st9" d="M1316.5,125.1h195.3c4.2,0,7.5-3.4,7.5-7.5c0-4.2-3.4-7.5-7.5-7.5h-195.3c-4.2,0-7.5,3.4-7.5,7.5
				C1309,121.7,1312.4,125.1,1316.5,125.1z"/>
		</g>
		<g>
			<path class="st9" d="M1511.8,154.5h-195.3H1511.8z"/>
			<path class="st9" d="M1316.5,162.1h195.3c4.2,0,7.5-3.4,7.5-7.5c0-4.2-3.4-7.5-7.5-7.5h-195.3c-4.2,0-7.5,3.4-7.5,7.5
				C1309,158.7,1312.4,162.1,1316.5,162.1z"/>
		</g>
	</g>
</g>
<g id="Layer_14">
	<path class="st23" d="M475.6,285.3h202.8c30.7,0,55.8-25.1,55.8-55.8v-93c0-30.7-25.1-55.8-55.8-55.8H475.6
		c-30.7,0-55.8,25.1-55.8,55.8v93C419.8,260.2,444.9,285.3,475.6,285.3z"/>
	<g class="st24">
		<path class="st25" d="M674.4,148.6H479.1H674.4z"/>
		<path class="st25" d="M479.1,156.1h195.3c4.2,0,7.5-3.4,7.5-7.5c0-4.2-3.4-7.5-7.5-7.5H479.1c-4.2,0-7.5,3.4-7.5,7.5
			C471.6,152.8,475,156.1,479.1,156.1z"/>
	</g>
	<g class="st24">
		<path class="st25" d="M674.4,185.6H479.1H674.4z"/>
		<path class="st25" d="M479.1,193.1h195.3c4.2,0,7.5-3.4,7.5-7.5c0-4.2-3.4-7.5-7.5-7.5H479.1c-4.2,0-7.5,3.4-7.5,7.5
			C471.6,189.7,475,193.1,479.1,193.1z"/>
	</g>
	<g class="st24">
		<path class="st25" d="M674.4,222.6H479.1H674.4z"/>
		<path class="st25" d="M479.1,230.1h195.3c4.2,0,7.5-3.4,7.5-7.5c0-4.2-3.4-7.5-7.5-7.5H479.1c-4.2,0-7.5,3.4-7.5,7.5
			C471.6,226.7,475,230.1,479.1,230.1z"/>
	</g>
	<polygon class="st23" points="495.6,375 589.5,279.8 507.5,279.8 	"/>
</g>
<g id="Layer_13">
</g>
<g id="Layer_12">
</g>
<g id="Layer_11">
</g>
<g id="Layer_10">
</g>
<g id="Layer_9">
</g>
<g id="Layer_8">
</g>
<g id="Layer_7">
</g>
<g id="Layer_6">
</g>
<g id="Layer_5">
</g>
<g id="Layer_4">
	<g>
		<path class="st26" d="M282.3,1966.3c-8.8,6.7-8.5,19.4-22.1,30.7c-10.5,8.7-34.9,9.5-45.7,8.5c-8.5-0.8-24.9-4.3-29.6-11.5
			c-3.2-4.9-3.4-17.6-2.5-23.4c0.4-2.6,2.1-7.7,2.4-10.3c0.7-9-2.4-36.2-2.4-36.2l14.8-81.7l73.2,33.6c0,0,11.8,3.9,16.5,5.5
			c3.9,1.3,15-0.8,28.8,1.5c4.1,0.7,18,2.8,24.3,15.1c1.9,3.8,3.2,10.7,3.4,16.2c0.2,6.4-0.3,10.8-1.4,14.9
			c-2.4,9.1-10.4,17-15.8,20.7C316.9,1956.4,291.3,1959.5,282.3,1966.3z"/>
		<path class="st27" d="M343.4,1912.2c-1.8,9.6-9.3,18.2-13.9,22.8c-10.9,10.9-26.1,12.1-40.3,16.8c-8.4,2.7-13.5,4.3-20.5,9.6
			c-6.5,4.9-10.1,12.2-20.5,18.3c-6,3.5-17.3,4.4-24.2,4.4c-29.9,0-39.8-10.7-41.5-13.5c0,0,0,0.1,0,0.1c-0.9,5.8-0.6,18.5,2.5,23.4
			c4.6,7.2,21.1,10.6,29.6,11.5c10.8,1,35.1,0.2,45.7-8.5c13.6-11.2,13.3-24,22.1-30.7c8.9-6.8,34.6-9.9,43.9-16.4
			c5.4-3.7,13.4-11.6,15.8-20.7c1.1-4.1,1.6-8.5,1.4-14.9C343.5,1913.6,343.4,1912.9,343.4,1912.2z"/>
		<path class="st26" d="M671.5,2009.5c-4.9,13.8-22.9,23.7-46.5,30.6c-22.7,6.7-53.6,8.2-77,11.7c-21.8,3.3-67.9,12.6-89.9,11.7
			c-14.6-0.6-40.9-0.5-49.3-12.4c-4.9-6.9-0.5-33.8-0.5-33.8l2.1-30.1c0,0,79.8-58.2,111.5-50c39.6,10.3,39.5,14.3,65,16.4
			c10.5,0.9,20.8,0.8,30.3,1c9.8,0.2,37.1,1.5,45.7,10.1C674.2,1976.2,675.1,1999.3,671.5,2009.5z"/>
		<path class="st27" d="M638.5,2018c-27.5,8.7-50.5,10.3-96.4,14.2c-8.3,0.7-44,7.4-68.4,7.9c-12.8,0.3-59,2-66.5-13.6
			c-0.9,10.1-1.4,20.6,1.6,24.7c8.4,11.9,34.7,11.8,49.3,12.4c22,0.9,68.1-8.4,89.9-11.7c23.4-3.5,54.3-5.1,77-11.7
			c23.6-6.9,41.6-16.8,46.5-30.6c1.2-3.5,1.9-8.6,1.9-14.2C669,2005.8,654.7,2012.9,638.5,2018z"/>
		<path class="st22" d="M553.6,1562.7c-0.6,27.1-12,76.9-17,103.6c-9.4,50.6-18.6,148.5-15.6,199.9c1.1,19.4,5.7,34.8,9.7,74
			c0,36.7-35.8,45.2-66.6,54.9c-12.1,3.8-45.2,7-53.9-2.2c3.6-183.2-14-174.4-8.3-275.9c1.6-28.5,3.7-62.4,16.1-108.9
			c2.1-22.2-1.2-39.7-1.8-43c-3.7-19.8-8.2-38.3-8.2-38.3s-41.1-123.2-51.7-180c-7.3,79.5-31.6,160.7-41.2,206.6
			c-8.9,43-14.1,67.4-25.7,130.6c-7.6,41.4-12.1,134.7-11.2,152c0.4,6.7,2.8,19.1,5.5,30.9c3.5,15.6,1.7,30.4,1.7,30.4
			s0.2,9.3-9.7,19.8c-12.7,13.5-32.9,28.9-58.6,28.9c-8.9,0-33.3-2.3-33.9-10.8c-8.9-131.4-15.9-192.4-15.3-262.4
			c0.4-41.1,10.1-121.9,27.2-182.1c13.6-48.1,6.2-109.5,12.8-194.4c2.8-36.8,8.6-59.9,7.5-80.9c-1.7-31.2-14.9-57.5,2.7-122.5
			c18.5-68.4,253.4-15.4,278.9,50.8c29.9,77.4,44.7,166.1,48.2,297.5C546.4,1486.2,554.3,1530.4,553.6,1562.7z"/>
		<path class="st28" d="M321.4,1288.6c-26.3-11.9-48.8-22.1-86.4-52.4c18.6,33.9,46.7,48.4,76.4,78.1c8.4,8.4,7.5,20.3,5.1,39.7
			c-2.8,23.1-21.1,118.7-26.3,142.4c-6.5,30-13.1,65.9-17.4,98.3c-6.9,52.2-15,91.8-20.2,163c-3.8,51.9-0.1,83.6,16,166.5
			c14.4-12.9,18.2-18,19.4-26.7c0.7-5.1,0.7-8.9-2-20.1c-3.4-14.3-7.4-32.5-7.8-41.3c-0.9-17.3,3.6-110.6,11.2-152
			c11.7-63.2,16.8-87.7,25.7-130.6c9.5-46,33.9-127.1,41.2-206.6C353.5,1313.9,342.6,1298.1,321.4,1288.6z"/>
		<path class="st29" d="M583.7,840.1c-24.3-2-76.2-42.4-76.2-42.4s43.1-75.3,35.6-101.4c-5.8-20.2-8.2-63.4-15.4-70.5
			c-5.5-5.5-23.5-5.7-34.4-13.1c-14.6-10-16.9-20-25.1-26.2c-14.3-11-15.1-8.5-28.8-23.2c-2.9-3.1-5.7-11.2-5.7-11.2
			s1.2-12,6.6-13.3c7.5-1.8,29.7-5,44-1.2c10.5,2.8,23.2,11.8,35.1,23.3c10.9,10.5,24.7,21.8,31.2,29.3c5.6,6.4,11.9,17.6,16,25
			c5.9,10.6,12.8,30.1,20.3,46.6c5.6,12.3,15.2,30,18.4,38.5c7.1,18.8,10.8,22.8,18.4,63.9c3.4,18.3-2.8,45.5-7.1,56.6
			C610.1,838.1,598.4,841.3,583.7,840.1z"/>
		<path class="st30" d="M443.3,555.9c-7.5,11.7-32.3,1.5-39.1,5.2c-1.3,0.7-1.8,6.5-1.8,6.5l-123.9-21.4c0,0,12.3-19.4,10.1-45.6
			c-2-23.6-26.8-27.9-32.5-77.2c-2.1-18.6,5.9-48.5,27.3-69.9c22-22,67.8-20.7,67.8-20.7s41.5,1.1,69.9,29.6
			c22.5,22.5,28.8,55,28.8,55s2.7,10,0.4,16.3c-2.8,7.7-3.9,15-3.9,18.9c0,15.3,14.7,20.1,14.7,29.9c0,6.8-6.2,11-8.7,13.5
			c-2.7,2.7-1.3,7.7-1.3,12c0,3.8-1.7,5.4-1.9,7.7c-0.5,4.9,1.3,5.5-1.1,11C443.8,537.2,450.2,545,443.3,555.9z"/>
		<path class="st31" d="M414.9,451c-1.1,0.1-2-0.7-2.1-1.8l-1.2-16c0,0-2.7-27.6-21.3-26.6c-13.7,0.7-17.8,12-19.6,21.7
			c-0.8,4.3-3,44.8-9.7,62.5c-3.4,8.9-10.4,11.3-18.1,12.5c-15.9,2.6-38.7,4-54.1,2.1c-0.1-1-0.1-2-0.2-3c-0.2-1.7-0.5-3.4-1-5.2
			c-2.3-7.9-7-14.9-7-14.9s-15-21.1-20.2-35.4c-3.7-10-6.3-27.9-5.8-38.5c0.9-17,5.9-34.2,16.1-47.1c9.5-12.2,27.6-27.1,55.2-32.8
			c60.5-12.6,103.8,3.8,113.7,27.5c2.9,7,3.8,20.4-1.7,25.9c-3.8,3.8-12.9,7.4-13.5,15.2c-0.6,6.6,8.1,13.4,8.1,20.1
			c0,3.5-8.2,9.2-9.9,13.7c-1.4,3.9-1,14.3-0.8,18.2c0,0.8-0.6,1.5-1.4,1.5L414.9,451z"/>
		<path class="st29" d="M169.8,932.4c20.2,26.2,45.4,73,69,96.7c10.7,10.7-2.5,68.2-12.3,56.9c-26.7-30.6-94.9-64.7-136.1-142.3
			c-2.2-4.2-6.4-11.5-7.7-17c-1.4-6.2,4.4-30.8,5.3-35.3c9.1-45.1,20.9-91.3,20.9-91.3s105,34.7,92.8,57.5
			c-9.4,17.6-34.4,51.3-36,53.6c-1.6,2.2-3.8,5.4-3.5,7.4c0.2,1.7,2.5,6.3,3.3,7.6C166.8,928.2,168.2,930.4,169.8,932.4z"/>
		<path class="st32" d="M200.7,860.3c0,0-61.8-10.2-96.1-44.4c14.4-75.7,31.2-118.8,47.8-154.3c12-25.5,107.3,18.8,106.1,46.9
			C254.6,797.9,200.7,860.3,200.7,860.3z"/>
		<path class="st26" d="M496.9,1143.7c-29.9,10.3-147.2-1.3-204.7-18.3c-70.5-20.7-74.2-32.5-74.2-32.5s6.2-23.3,12.9-47.8
			c4.6-17.1,10-33.1,11.1-49.1c1.6-23.2-2.7-70-8-92.7c-3.7-16-17.8-46-25-60.7c-10.6-21.6-36.2-62.9-44.9-85.4
			c-6.2-16.1-13-50.3-14.7-67.5c-0.7-7.1,0.2-21.7,3.1-28.2c4.8-10.9,23.7-27,32.5-35c13.7-12.5,58.7-45.6,58.7-45.6
			s99.7-13.4,132.9-10.2c12.9,1.3,49.8,13.8,49.8,13.8s35.7,9.7,45.5,16.8c13,9.4,31.4,36.7,40,50.3c19,30.1,61.6,65.2,64.6,74
			c6.9,15.7-32.2,78.9-65.9,75c1.5,24.5,4.5,37.2,3.7,67.5C511.4,973.7,492.7,1064.9,496.9,1143.7z"/>
		<path class="st32" d="M513.9,843.9c0,0-56.1-36-72.7-52.6c-38.5-38.5-52.9-70-70.4-83c31.5,3.4,63.5,63.6,139.9,93
			C514.4,827.4,513.9,843.9,513.9,843.9z"/>
		<path class="st33" d="M426.2,584.6c0,0-44.2-10.3-91.3-7.5c-33.5,2-61.7,6.5-91.3,3.9c3.8-3.8,10.2-11.7,15.1-29.4
			c0.4-1.5,2.4-8,10.3-8c11.8,0,23.2,1,40.9,1.5c20.3,0.6,50-0.3,62.5,4.2C390.7,555.9,426.2,584.6,426.2,584.6z"/>
		<path class="st31" d="M450.4,433.7c0,0,1.7-4.5,0.7-10.4c-1.1-5.9-12.9,11.9-12.9,11.9S446.4,435.2,450.4,433.7z"/>
		<polygon class="st31" points="446.9,447.6 441.9,453.4 446.9,456.8 		"/>
		<path class="st34" d="M451.2,507.9c0,0-4.2,5.4-6.8,7.6l3.8,11.1c0,0,2.2-7.1,1.1-11L451.2,507.9z"/>
	</g>
	<g>
		<path class="st9" d="M589.2,204.9l-29.2,0l0-2.9c0-5,0.6-9,1.7-12.1c1.1-3.1,2.8-5.9,5-8.5c2.2-2.6,7.2-7.1,15-13.5
			c4.1-3.4,6.2-6.5,6.2-9.3c0-2.8-0.8-5-2.5-6.6c-1.7-1.6-4.2-2.3-7.6-2.3c-3.6,0-6.6,1.2-9,3.6c-2.4,2.4-3.9,6.6-4.6,12.6
			l-29.8-3.7c1-11,5-19.8,12-26.4c6.9-6.7,17.6-10,31.9-10c11.2,0,20.2,2.3,27,7c9.3,6.3,14,14.7,14,25.2c0,4.4-1.2,8.5-3.6,12.6
			c-2.4,4-7.3,9-14.7,14.8c-5.2,4.1-8.4,7.4-9.8,9.9C589.9,197.7,589.2,200.9,589.2,204.9z M572.8,212.7l3.7,0
			c7.6,0,13.8,6.2,13.8,13.8l0,0c0,7.6-6.2,13.8-13.8,13.8l-3.7,0c-7.6,0-13.8-6.2-13.8-13.8l0,0C559,218.8,565.2,212.7,572.8,212.7
			z"/>
	</g>
</g>
<g id="Layer_3">
	<g>
		<path class="st29" d="M1771.9,412.8c2.5,21.4-58,50.2-81.3,48.4c-7.1-0.5-19.8-9.5-24-15.3c-2.7-3.8-4.4-18-4.4-18l-5.2-48
			l116.5-55.8C1773.5,324.1,1767.6,376.6,1771.9,412.8z"/>
		<path class="st30" d="M1771.6,344.6c-3.5,0.4-5.7-5.5-7.4,0.4c-3.5,11.9-9.9,29.5-18.7,38.7c-11.7,12.3-26.2,22.3-37.9,29
			c-7.9,4.5-25,10.6-36.6,10c-9.4-0.5-14.9-5.9-17.7-9.8c-7.4-10.1-13.8-35.7-17.4-47.5c-1.8-6-6.3-14.3-8-25.5
			c-0.9-5.7,0.7-16.1,0.2-21.9c-0.4-5.7-3.4-12-4.3-17.7c-1.1-7.3-3.2-30.5-2.9-37.8c0.6-13.2,6.4-47.2,6.4-47.2l67-5.7l82.9,15
			c0,0-0.7,33.3-3.4,65.3c-0.3,2.9,1.3-0.1,6.4-0.6c9.3-0.9,11.8,5.1,12.3,10.2C1794,314.5,1787.2,342.6,1771.6,344.6z"/>
		<path class="st35" d="M1782.2,289.1c-3.5,0.2-5.4,0.6-8.1,2.2c-5.1,2.8-6.6,12.7-9.2,17.8c-0.9,1.8-6.7,3.8-6.7,3.8
			s2.6-16.1-0.6-21.4c-2.2-3.6-9.7-11.3-11.5-15.1c-1.9-4.1,3.4-18.2,2.3-22.5c-8.4-32-41.6-19.4-46.8-17.5
			c-8.4,3.1-18.5,7.1-28.6,6.6c-19.9-1-24.5-9.1-34-7.7c-18.2,2.8-12.6,26.1-14.4,30.1c-2.6,5.5-2.6,14.2-2.2,21.1
			c0,0.3,0.2,2.3,0.3,3c0.1,1.2,0.2,2.2,0.3,3.2c0.3,3,0.5,4.9,0.5,4.9s-6.1-34.2-2.9-64.2c2.3-24.5,19.5-52.6,71.5-56.1
			c9.4-0.6,35.7-4,66.2,9.6c20.1,9,30.7,33.3,30.6,58.6C1788.9,258.4,1785.2,275,1782.2,289.1z"/>
		<path class="st23" d="M1648.1,1870.7c-0.1,0.2-0.1,0.3-0.2,0.4c-2.1,3.7-7.3,4.2-11.1,4.9c-6.2,1.2-10.9,1.6-17.1,2.2
			c-12.3,1.3-24.8,1.2-36.8-2.1c-4.3-1.2-8.7-2.8-13.1-2.3c-4.7,0.5-8.8,3.3-12.8,5.8c-31.5,19.6-70.7,22-106.7,16.7
			c-8.3-1.2-17-3.1-23.4-8.6c-16.8-14.2-2.2-31,13.3-36.6c5.3-1.9,20.5-5.4,40.8-9.5c10.5-2.1,18.7-5.2,21.9-6.5
			c10.4-4.3,28.1-19.1,38.4-29.9c4-4.1,3.3-7.6,8.9-9.5c5.9-2,12-2.9,18.2-3c22.6-0.3,38.7,10.2,61.3,9.9c2.8,0,13.6,0.8,13.6,4.7
			c0,6.5-0.6,1.8,0.7,8.2c4.2,20.5,3,37.2,3,39.7c0,2.5,1.6,4.8,1.8,7.4C1649.1,1865.5,1649.2,1868.3,1648.1,1870.7z"/>
		<path class="st26" d="M1609.7,1792.2c-5,0.1-9.9,0.2-14.9,0.2C1599.7,1792.6,1604.7,1792.6,1609.7,1792.2z"/>
		<path class="st36" d="M1647.1,1854.6c-8.1,4.7-38.2,7.8-60.2,7.8c-8.9,0-16-0.7-23.8,3.4c-10.6,5.6-20.7,11.6-31.7,16.5
			c-25.3,11.2-53,11.1-79.7,7.9c-10.3-1.2-24.7-7-31.7-11.9c-0.1,1.6,0.2,4.8,0.7,5.3c6.8,7.4,20.8,11.7,30.1,13.3
			c36.9,6.3,74.5,2.4,106.1-17.3c4-2.5,8.1-5.3,12.8-5.8c4.4-0.5,8.8,1.1,13.1,2.3c12,3.3,24.5,3.4,36.8,2.1c6.2-0.7,11-1,17.1-2.2
			c3.8-0.7,9.1-1.2,11.1-4.9c0.1-0.1,0.2-0.3,0.2-0.4c1.1-2.4,1-5.3,0.8-8C1648.7,1860.2,1648.1,1858.1,1647.1,1854.6z"/>
		<path class="st23" d="M1868.3,1892.6c2.6,8.8,6,17.6,5.8,26.6c-0.4,14-14,25.8-26,31.7c-12,6-22.6,8.9-40.5,8.8
			c-35.8-0.3-33.4-6.8-36.5-9c-5.7-3.9-6.5-24.2-5.8-31.1c1.4-13.6,4.5-14,7.9-25.3c4.2-13.7,5.8-31.5,5.1-46.1
			c1.9-4.6,1.1-5.7,3.1-10.5c2.5-6.1,10.4-5.8,17-5.7c10.7,0.1,21.5,0.3,32.2,0.4c8.4,0.1,31.7,2.5,33.2,14.4c0.9,7.8,0,14.2,1,22.2
			C1865.8,1877.1,1866,1884.7,1868.3,1892.6z"/>
		<path class="st36" d="M1855.2,1935.7c-7.1,5.1-24.7,14.9-60,11.8c-8-0.7-22.7-3-29.8-15.3c0.3,4.8,0.7,9.2,2.3,13.1
			c2.3,5.9,4.9,11.3,23.3,13.1c4.5,0.4,9.6,1.2,16.6,1.2c17.9,0.2,28.5-2.8,40.5-8.8c12-6,25.6-17.8,26-31.7c0-1.3,0-2.6-0.1-4
			C1869.9,1923.6,1862.9,1930.6,1855.2,1935.7z"/>
		<path class="st2" d="M1868.4,998.8c-1.4-6.3-3.2-13.2-4.6-22.2c-23.3,8.2-43.7,22.6-68.1,28.7c-29.3,7.2-59.7,11.4-89.7,13.3
			c-51.2,3.1-92.9,4.5-143.9-2.2c-0.1,0.7-0.2,1.3-0.3,2.1c-4,32.1-15.5,80.6-20.1,157.4c-3.9,64.2-1.6,110.3,3,242.2
			c3,86.1,18.2,107.9,11.5,318.5c-1.4,43.8-10.9,60.7-13.5,67.3c18.7,14.1,70.2,17,85,15.9c5.6-0.4,11.6-1.1,16.5-3.9
			c16-152.8,25.1-183.3,32.4-285.5c3-42.5,0.7-119.5,9.4-174.8c10.4-66.2,14.1-92.3,16.9-133.1c1.5,15.9,20.7,91.6,24.4,115.4
			c10.9,69.6,21.7,94.5,31.2,164.4c7.7,56.5,6.7,91.7,14.8,183c5.1,57.5,7.9,115.3,6.8,145c-0.3,8.7-1.1,15-1.6,18.1
			c25.6-3.1,61.4-1.2,86,8.5c3.6-95.9,16.3-179.7,16.3-272c0-46.6-5.5-88-6.7-124.6C1868.4,1297,1893.1,1113.6,1868.4,998.8z"/>
		<g class="st37">
			<path class="st38" d="M1851.7,1292.7c-1.3,54.3,3.4,115.7,12.7,214.7c1.8,18.9,7.8,43.3,15.6,117c0.4-13.3,0.7-26.5,0.7-39.7
				c0-46.6-5.5-88-6.7-124.6c-5.5-163.2,26.3-345-5.5-461.4c-1.7-6.3-3.2-13.2-4.6-22.2c-18.6,6.5-32.3,39.7-50.7,46.8
				C1828.5,1138.3,1855.6,1125.4,1851.7,1292.7z"/>
		</g>
		<path class="st39" d="M1649.7,1148.3c-0.6,3.9,6,69.3,5.4,91.7c-1,35.5-2.2,71-3.3,106.4c-1.1,36.4-3.3,72,4,108.1
			c10.1,49.5,5.3,101.7,3.7,151.9c-1.2,36.8-2.8,73.6-4.2,110.5c9.4-74.9,15.7-111.3,21.1-186.5c3-42.5,0.2-109.6,9.4-174.8
			c9.1-64.3,14.4-92.8,16.9-133.1C1690.3,1184.3,1668.9,1184.5,1649.7,1148.3z"/>
		<path class="st40" d="M1603.3,474.2c-19.8,9.2-66.4,29.8-77.5,49.1c-7.8,13.7-9.3,28-14,43.1c-14,44.3-32.2,103.3-42.8,145.3
			c-0.1,0.4,6.3,8.4,7.6,9.3c4.5,3.1,8.9,6.4,13.2,9.8c2.1,1.7,4.4,3.3,6.4,5.1c1.9,1.7,4.2,2.5,6.5,3.5c5.6,2.5,11.2,4.8,16.9,7.1
			c3.8,1.5,7.6,3,11.5,4.4c2.1,0.8,5.3,4.1,6.8,2.8c1.6-1.4,19.9-41.6,24.1-55.9c14.1,189.6-2.8,212.5-2.8,312.3
			c22.8,17.2,75.4,38.4,166.1,32.2c22.8-1.5,76.1-15.9,87.8-18.9c11.9-3.1,55.2-20.3,55.2-24.2c0,7.5-23.4-192.8-23.4-241.2
			c27.9,0.7,58.7,40.6,88.6,25.1c1.5,0-2.8,0.9,0,0c9.8-49.4,15.3-138.9,13.1-196.3c-0.8-21-3.3-43.4-15.4-60.6
			c-8.9-12.6-31.6-24.3-45.3-31.4c-51.4-26.7-85.3-47.6-104.3-61.9c1.3,0.8-35.7,10.9-38.5,12.3c-11.3,5.6-23.6,9.1-36.2,10.2
			c-12.4,1.1-8.5,1.7-20.2-2.2c-12.6-4.2-18.6-13.2-30.1-6.7C1639.6,456.3,1620.2,466.4,1603.3,474.2z"/>
		<path class="st41" d="M1854.4,776.1c-2.5-13.2-18.1-3.6-18.5-15c-1.1-28.2,2.6-101,2.8-131.3c-5.5,20.7-35.8,144.4-31.7,190.5
			c4.6,51.6,8.2,157.3,6.2,203c4.6-0.5,55.7-19.4,55.2-24.2c-3.4-31.4-4.3-36.2-6.1-55.6C1857.2,889,1851.8,816,1854.4,776.1z"/>
		<path class="st41" d="M1559.5,711.5c-1.2,5.8-11.2,36.5-15.6,43.1c-1.3,0.6-3.9-0.4-5.9-0.9c-9.1-0.2-24.3-2.3-17.9-8.8
			c5.7-5.7,32-65.1,34.7-133.3C1554.8,646.3,1560.9,685.8,1559.5,711.5z"/>
		<path class="st23" d="M1948.5,586.8c-0.8-21-2-43.4-14.1-60.6c-8.8-12.6-32.4-26.5-46.1-33.6c-33.3-17.3-68.9-35.6-100.3-55.5
			c-3.3-4.5-7.3-9.3-12.5-15.4c3.9,16.7-9,52.2-13.3,62.6c-15.4,37.1-66,155-56.6,226.9c0,0,0,0,0,0c0.1,11.3,0.7,22.7,1.4,34.2
			c2.2,34.8,3.3,195.6,3.3,314.8c0,19.5,1.2,66.6,2.5,116.2c61.1,2.8,116.4-3.9,128.6-5.8c7.4-1.2,39.2-9.1,45.4-11.6
			c-4.9-104.8-25.5-243.1-31.6-309.8c-4.8-52.2-12.4-74.8-19.3-87.9c27.9,0.7,67.8,37.4,97.7,21.9c1.5,0,6,1.1,8.8,0.2
			C1956.3,719.6,1950.7,644.1,1948.5,586.8z"/>
		<path class="st42" d="M1771.9,412.8c-17,16.9-63.9,44.5-75.6,43c-14.1-4.9-29.9-23-34-27.9c-1.3,7-3.3,11.3-5.6,18.7
			c0,4.2,1.7,30.6,9.5,37.8c2,1,10.5-11.4,14.4-15.9c-0.1,0.3-0.1,0.7-0.2,1c3.5-4.1,12.5-4.5,16.9-3.7c6,1.1,9.8,5.1,11.3,10.3
			c0.1-0.4,0.2-0.8,0.3-1.1c1.3,4.4,6.6,16.2,9.1,16.6c2.9,0.5,6.4-1.7,7.5-2.4c19.5-12.3,47.1-39.1,56.3-56.3
			C1775.8,424.2,1773.3,416,1771.9,412.8z"/>
		<path class="st29" d="M1379.9,716.9c0.5,0,9.1,2,32.4,0.4c5.7-0.4,46.4-6.2,49.7-6.2c6.8,0.2,8.1,0.7,14.7,2.2
			c8.3,1.9,20.7,7.1,25.7,10.7c13.1,9.5,22.5,22.5,35.8,29.6c-1.5,3-3.9,7-4.2,7.7c-1.5,2.8-3.2,5.4-5,8c-3.3,4.6-6.4,9.8-10.2,13.9
			c-6,6.3-13.6,10.9-19,11.8c-5.8,0.9-21.1,5-27.7,5c-18.8,0-43.8-1.4-66.1-8.6c-18.8-6.1-19.6-7.6-45.2-17.4
			c-4.7-1.8-18.3-5.1-23.2-5.9c-5.2-0.8-10.4,0.5-15.5,1.5c-10.5,2.1-21.6,3.7-32.3,2.9c-12.2-0.8-24.3-6.6-36.2-9.4
			c-7.3-1.8-14.8-13.9-4.7-15.4c-6.6,0-14.7-0.1-18.5-4c-7.6-7.6-3.4-11.5-0.4-12.5c-12.7,0-16.9-2.7-19.1-5
			c-2.3-2.3-4.2-7.5-3.1-11.7c-4.8-1.5-13.2-4.4-16-7.2c-3.4-3.4-8.8-9.5-5.1-13.2c3-3,14.1-0.1,17.9,1.1c3.4,1.1,7.7,2.2,11.3,2.6
			c7.3,0.8,14.7,0.4,22,1.2c8.3,0.9,16.8,3.1,25,1.6c5.4-1,10.7-3.2,14.8-7c4.3-4,7.6-8.6,13.2-11.3c-7.6-5.2-13.7-12.8-17.1-21.4
			c-1.1-2.6-1.9-5.5-1.4-8.3c0.5-2.8,2.5-5.5,5.4-5.9c2.9-0.4,5.5,1.6,7.7,3.4c3.2,2.7,4.9,4.7,7.9,7.5c3.2,3,7.5,7,10,10
			c5.8,6.9,9.7,10.5,17.1,15.6c3.3,2.3,5.9,4.3,8.7,6.7c4.2,3.5,7.1,8,11.5,11.2c5.3,3.8,9.2,8.3,15.5,10.8
			C1363.3,714.8,1372,716.9,1379.9,716.9z"/>
		<path class="st43" d="M1522.4,741.8c-6,8.6-1.4,23.4-17.3,41.4c-3.5,4-17.5,12.9-35.1,16.7c13.1,0,21.2-3.9,29.7-4.9
			c5.4-0.6,13.1-5.5,19-11.8c3.9-4.1,7-9.3,10.2-13.9c1.8-2.6,3.5-5.2,5-8c0.4-0.7,2.7-4.8,4.2-7.7
			C1532.2,750.4,1527.5,746.5,1522.4,741.8z"/>
		<path class="st23" d="M1502.3,724c-5-3.6-17.4-8.9-25.7-10.7c-6.6-1.5-7.9-2-14.7-2.2c-3.3-0.1-44,5.8-49.7,6.2
			c-23.4,1.6-32-0.4-32.4-0.4c-6.6,0-13.8-1.5-20.3-3.7c0.3,1.5,0.5,2.9,0.7,4.4c2,15.2-0.7,47-13.4,59.8
			c4.2,1.1,40.2,7.8,59.1,13.9c22.3,7.2,47.3,8.6,66.1,8.6c6.6,0,27.8-1.2,33.6-2.1c5.4-0.8,13.1-5.5,19-11.8
			c3.9-4.1,10.2-13.9,11.7-16.6c0.4-0.7,6.1-11.9,7.6-14.9C1530.6,747.5,1515.5,733.5,1502.3,724z"/>
		<path class="st44" d="M1886.8,1158.9c-3.2-75-13.8-154-15.5-172.4c-4.5-49.1-11.4-96.5-15-127.7c-0.4-3.2-0.7-6.3-1-9.2
			c0-0.2,0-0.3,0-0.5c-2.1-11.1-14.1-57.9-18.1-79.1c-0.7-3.9-1.2-7-1.3-8.8c-1.1-28.2,2.6-101,2.8-131.3
			c-35.5,167.6,9.2,380.8,2.7,540.6C1862.7,1168.1,1876.8,1162.6,1886.8,1158.9z"/>
		<path class="st45" d="M1694,457.3c-5.4,1.4-8.4,6-12.7,10.2c-5.7,7.1-9.4,10.1-8.6,16.2c0.7,5.3,3.7,9.7,5,15.6
			c1.3,5.9-38.7,94.1-43.5,271.3c-0.2,6.1-2.5,33.8-1.4,57.6c4.4,18.6,16.6,30.9,23.8,38.1c0.1,0,26.3-18.1,28.1-48.5
			c4.5-78.3,8.2-305.8,12.7-316.3c2.3-3.5,6.1-5.6,8.8-8.7c5.7-6.5,4.9-12.3,1.9-19.7C1706.7,469.7,1698.9,456.1,1694,457.3z"/>
		<path class="st46" d="M1741.6,823.1c0,0-1.2-0.8-0.9-4.4c2.1,0,2.8,0.2,2.8,0.2C1742.6,821.4,1741.6,823.1,1741.6,823.1z"/>
		<path class="st23" d="M1644.3,453c-15.4,7.6-33.6,15.1-46.7,21.1c-19.8,9.2-68,29.8-79,49.1c-7.8,13.7-12,27.8-16.7,42.9
			c-14,44.3-29.2,103.5-39.8,145.5c-0.1,0.4,13.4,8.4,14.7,9.3c4.5,3.1,8.9,6.4,13.2,9.8c2.1,1.7,4.4,3.3,6.4,5.1
			c1.9,1.7,4.2,2.5,6.5,3.5c5.6,2.5,11.2,4.8,16.9,7.1c3.8,1.5,7.6,3,11.5,4.4c2.1,0.8,11.2,5.1,12.7,3.8
			c1.6-1.4,11.4-28.8,15.6-43.1c3.4,150.1-4.3,246.2-12,318.7c-1.4,12.8-6.5,60.7-10.6,110.8c4.8,8.1,31.6,17.1,64.5,22
			c2.2-66.1,12.7-212.9,16.8-258.1c4.7-52.6,2.4-124.8,1.5-177.7c-0.2-11.4-0.5-23.3-0.9-35.4c0.4,3.5,0.7,7.2,1.1,10.9
			c1.4-29,3.3-123.4,6.7-152.5c5.6-47.5,14.6-69.9,30-103.8c0.6-2,0.8-2.6,1.7-5.1C1654,445,1649.2,448.9,1644.3,453z"/>
		<path class="st46" d="M1346.9,777.4c0,0-3.6-0.7-2.1-7.9c2.5,0.6,6.8,1.7,6.8,1.7C1350.4,774.5,1346.9,777.4,1346.9,777.4z"/>
		<path class="st47" d="M1554.8,611.5c-1.5,36.4-14.5,98-24.7,129.1c-4.2,12.7-11.1,25-12.7,27.4c-2.5,4-5.7,8.6-10.4,13.6
			c-9.4,10-25.3,14.4-43,18.2c11.6,0.5,33-1,41.6-2c5.4-0.6,12.2-4.6,18.2-10.9c3.9-4.1,7.6-10.1,10.8-14.7
			c1.8-2.6,7.8-14.8,9.3-17.7c4.3-6.6,14.4-37.3,15.6-43.1C1560.9,685.8,1554.8,646.3,1554.8,611.5z"/>
		<path class="st48" d="M1939.8,792.2c-3.1,10.9-7.2,22.4-13.6,30.9c-8.6,11.5-14.2,19.6-25.1,23.5c-12,4.3-28.7,4.8-46,3
			c0.3,2.9,0.7,6,1,9.2c-8.6-0.7-17.3-2.1-25.8-3.8c-3.4-0.7-6.7-1.4-10-2.2c-0.1,0-0.2-0.1-0.3-0.1c-0.6-0.2-1.2-0.3-1.8-0.5
			c-3.2-0.8-6.2-1.7-9.2-2.6c-4.6-1.4-9-2.9-12.9-4.4c-0.6-0.2-1.2-0.5-1.9-0.7c-13.6-4.8-40.8-10.4-53.9-12.5
			c0.3-1.3,0.7-2.7,1.1-4.2c-6.7-0.6-12.8,0.2-20.7,2.4c-19.4,5.4-37.4,6.3-46,7.3c-10.9,1.2-24-2.5-35-3.7
			c-10.1-1.1-14.1-2.7-23.3-6.8c-6-2.7-12.1-6.5-17.4-10.4c-1.9-1.4-3.8-3.1-4.6-5.4c-0.9-3.3,0.7-5.6,1-5.3c-3.4-3.6-5.3-4.4-8.7-8
			c-1.3-1.4-3.2-3.7-4-5.5c-0.8-1.8-1.6-4.9-0.7-6.6c0.3-0.6,0.7-1,1.2-1.4c2.1-1.5,5.7-0.9,7.6,1c-2.6-2.5-6.2-6.7-5.5-10.7
			c1.9-0.3,4.2,0.4,5.5,1.7c-1.3-1.3-2.9-3-4.1-4.9c1.5-2.2,3.4-2.9,5.5-3.1c1.8-0.2,8.2,2.7,9.3,4.4c-1.3-2.1-1.3-6.9,0-9.1
			c0,0,0,0,0,0c0-0.1,0.1-0.1,0.1-0.2c5.6-8.7,16.5,0.1,23.1,2.5c9.9,3.5,12.8,7,23.3,8.1c4,0.4,7.7-0.2,11.7-0.3
			c4.7-0.2,9.5-0.4,14.2-0.6c2.4-0.1,5.1-0.3,7.1-1.5c2.2-1.4,3.9-4.1,5.5-6.1c0.4-0.5,0.8-1,0.8-1.6c0-1-1.2-1.5-2.2-1.9
			c-0.6-0.2-1.3-0.4-1.9-0.6c1.5-1.4,2.8-3.3,4-4.8c0.4-0.5,0.8-1,0.8-1.6c-0.1-1-1.2-1.5-2.2-1.9c-5.7-2-11.6-2.9-17.4-4.8
			c-6.8-2.2-13.2-5.5-17.8-11c2.3-1.5,5.7-1,8.5-0.4c9.5,2.1,19,4.2,28.5,6.3c16.1,3.5,30.5,7.9,42.9,18.7
			c4.6,4.1,9.6,7.6,14.9,10.4c0.6,0.1,1.2,0.1,1.8,0.2c14.9,1.4,44.7,2,61.9,0.6c2.4-0.2,4.5-0.4,6.3-0.7c7.8-1.3,14.7-2,21.3-2.3
			c6.7-0.3,13.3,0.1,20.5,1.1c14.2,2,27.9,5.7,40,12.6c7.8,4.4,22,6.7,33.3,7.8C1934.3,791.8,1937.3,792,1939.8,792.2z"/>
		<path class="st29" d="M1933.5,783c-0.7,2.8-1.6,5.6-2.5,8.4c-3.4,10.2-8.1,20-14.5,28.6c-8.6,11.5-17.2,20.9-28,24.7
			c-26.2,9.4-61.1,0.4-89.3-10c-27.1-9.9-43.8-14.7-55.7-15.9c-8.1-0.8-12.8-0.2-21.6,2.3c-19.5,5.4-37.6,6.3-46.3,7.3
			c-11,1.2-24.2-2.5-35.2-3.7c-10.1-1.1-14.2-2.7-23.5-6.8c-6-2.7-12.2-6.5-17.5-10.4c-2-1.4-3.9-3.1-4.6-5.4
			c-0.9-3.3,0.7-5.6,1-5.3c-3.4-3.6-5.4-4.4-8.8-8c-1.1-1.2-2.6-3-3.5-4.5c-0.2-0.3-0.4-0.6-0.5-0.9c-0.8-1.8-1.6-4.9-0.7-6.6
			c0.7-1.3,1.9-2,3.3-2.2c1.9-0.3,4.2,0.4,5.5,1.7c-1.3-1.3-2.9-3-4.1-4.9c-1.3-2.2-2-4.6-1.1-6.8c1.6-4,3.9-5,6.7-5.2
			c1.8-0.2,7.8,2.5,9.2,4.2c0.1,0.1,0.1,0.1,0.1,0.2c0-0.1-0.1-0.1-0.1-0.2c-1.3-2.3-1.1-7,0.2-9.1c5.6-8.7,16.6,0.1,23.3,2.5
			c9.9,3.5,12.9,7,23.5,8.1c4.1,0.4,7.7-0.2,11.8-0.3c4.8-0.2,9.5-0.4,14.3-0.6c2.4-0.1,5.1-0.3,7.2-1.5c0.6-0.3,1.1-0.8,1.6-1.3
			c1.5-1.4,2.8-3.3,4-4.8c0.4-0.5,0.8-1,0.8-1.6c-0.1-1-1.2-1.5-2.2-1.9c-5.7-2-11.6-2.9-17.4-4.8c-6.8-2.2-13.2-5.5-17.8-11
			c-1.8-2.2-2.4-5.6-0.7-7.8c0.1-0.2,0.3-0.4,0.5-0.6c2.3-2.2,6.1-1.7,9.3-1c9.6,2.1,19.1,4.2,28.7,6.3c16.2,3.5,30.7,7.9,43.2,18.7
			c11.5,10,24.8,17.2,40.5,16.7c15.9-0.4,29.3-1.8,45-4.2c16-2.5,25.9-3.6,40.4-1.6c14.3,2,26.5,5.8,38.6,12.7
			C1906.6,782.1,1922,782.4,1933.5,783z"/>
		<path class="st23" d="M1942.3,783.2c-0.8,2.9-1.6,5.9-2.4,8.9c-3.1,10.9-7.2,22.4-13.6,30.9c-8.6,11.5-14.2,19.6-25.1,23.5
			c-12,4.3-28.7,4.8-46,3c-16.2-1.6-32.9-5.2-46.7-9.5c-3.9-1.2-7.5-2.5-10.8-3.8c-12.9-5-42.3-10.9-56.1-13.2
			c3-5.3,5.7-16.8,6.3-25.6c0.6-8.6,0.2-16.5-0.2-25.1c-0.2-3-0.4-6.1-0.7-9.1c14.2,1.5,45.8,2.3,63.8,0.8c2.5-0.2,4.7-0.5,6.6-0.8
			c6.7-1.1,12.7-1.8,18.4-2.1c7.9-0.5,15.3-0.2,23.7,0.9c14.3,2,28.1,5.7,40.3,12.6C1909.9,780.4,1930.8,782.6,1942.3,783.2z"/>
		<path class="st44" d="M1762.2,484.2c-15.4,37.1-66,155-56.6,226.9c1.5-32,12.2-69.4,31.9-95c11.7-15.2,38.5-37.5,53.9-48.5
			c-1.9-5.1-8.4-19.4-16.5-29.8c15.4,0,24.6,5.3,24.6,5.3c3.7-6.1,8.2-31.4,7.7-38.7c-1.1-15.5-2.4-31.3-7.9-46.2
			c-5.1-13.7-10.6-21.1-23.9-36.5C1779.3,438.3,1766.5,473.8,1762.2,484.2z"/>
		<path class="st44" d="M1619.9,702.8c-9.6-95.4-15.6-117.8-31-164.7c10.6-5.2,13.5-6.3,24.9-10.2c-6.3-4.6-9.7-5.9-19.8-8.9
			c6.3-14.1,19.3-31.8,32.1-47.9c9.1-11.4,22.2-21.4,32.2-29.6c-0.8,2.5-1,3.1-1.7,5.1c-15.5,33.9-24.4,56.3-30,103.8
			C1623.2,579.3,1621.3,673.8,1619.9,702.8z"/>
	</g>
	<path class="st35" d="M1636.9,287.4c0,0,11.4-4.5,19.7-2.2c5.3,1.4,7.6,11.1,0.9,11.1s-25-3.7-32.3,0L1636.9,287.4z"/>
	<path class="st35" d="M1692.3,285.3c3-2.3,18.4-4.8,31.3,2s12.9,6.8,12.9,6.8s-23.2,0.8-26.8,0c-3.5-0.8-11.2-0.4-14.2,0.3
		C1688.6,296.3,1692.3,285.3,1692.3,285.3z"/>
	<circle class="st35" cx="1648.2" cy="309.4" r="6.7"/>
	<circle class="st35" cx="1704.3" cy="309.4" r="6.7"/>
	<path class="st29" d="M1670.7,301.3c0,0,2.6,14.6,1.7,17.1s-10.4,20.2-10.9,22.6c-0.5,2.4-4.9,7.6-4.8,11.8
		c0.1,2.8,23.2,4.4,24.1,2.2c0.9-2.2,3.1-0.6,2.4,0.8c-0.7,1.4-9.7,5.9-20.7,2.5s-14.4-4-11.3-8.2c3.1-4.2,17.7-29.1,18.2-30.8
		S1670.7,301.3,1670.7,301.3z"/>
	<path class="st49" d="M1652.4,374.7c0,0,11.4-5,14.3-5s10.7,0.2,11.7,0c1-0.2,14.2,4.4,15.3,3.4c0,0-10.4,14.3-23.1,14.5
		C1657.9,387.7,1652.4,374.7,1652.4,374.7z"/>
	<path class="st9" d="M1654.9,373.6l34.3-1.1l-10.2-2.7c-0.4-0.1-0.7-0.1-1.1-0.1h-9.8c-0.9,0-1.8,0.1-2.6,0.4L1654.9,373.6z"/>
</g>
</svg>
