<?xml version="1.0" encoding="utf-8"?>
<!-- Generator: Adobe Illustrator 24.2.3, SVG Export Plug-In . SVG Version: 6.00 Build 0)  -->
<svg version="1.1" id="Layer_1" xmlns="http://www.w3.org/2000/svg" xmlns:xlink="http://www.w3.org/1999/xlink" x="0px" y="0px"
	 viewBox="0 0 1000 1000" style="enable-background:new 0 0 1000 1000;" xml:space="preserve">
<style type="text/css">
	.st0{fill:#E7F2F1;}
	.st1{fill:#7DB7B6;}
	.st2{fill:#AEC1C0;}
	.st3{fill:#E8F3F8;}
	.st4{fill:#D39279;}
	.st5{fill:#DBA58D;}
	.st6{fill:#484848;}
	.st7{fill:#FFFFFF;}
	.st8{fill:#FF8602;}
	.st9{fill:#FFB81F;}
	.st10{fill:#00A0A3;}
	.st11{fill:#EA7706;}
	.st12{fill:#D1795E;}
	.st13{fill:#66402F;}
	.st14{fill:#A05D2B;}
</style>
<path class="st0" d="M735.4,339.3c-142.1-624.4-471.1-231.8-509.7,57.3C19.5,271.4-40.5,439.8,117.5,800.3
	C140.5,852.6,186.3,925.9,243,933l170,16c39,0,134.8-4.3,195-29c25.4-10.4,59.4-44,77-65C988.1,492.2,959.6,339,735.4,339.3z"/>
<path class="st1" d="M828.4,962.8h-48.4c-21.2-45.4-31.4-91.5-27.9-138.6h102.8C857.5,869.6,848.5,915.9,828.4,962.8z"/>
<path class="st2" d="M816,731c-0.4,6.4-0.7,12.9-1.1,19.3c-0.2,3.2-0.4,6.4-0.6,9.6c-0.9,15.5-2,31-2.9,46.6
	c-0.4,5.9-0.7,11.9-1,17.8h-20c-0.3-5.9-0.5-11.8-0.8-17.7c-0.2-4.7-0.5-9.4-0.7-14.1c-2-36.5-4.4-73-7-109.5
	c-0.6-9-1.4-18.1-2.2-27.2c-0.7-8.2-1.5-16.5-2.2-24.8c-2.8-34.2-4.6-68.7,0.8-102c1.7-10.2,3.8-35.5,18.2-27.1
	c13.9,8.1,16.2,31.8,17.7,45C821.3,608,819.4,669.6,816,731z"/>
<path class="st2" d="M864.2,623.3c-7.3,41.3-19.8,84.5-41.2,121.4c-0.1,0.1-0.1,0.2-0.2,0.4c-2,3.5-4.9,9.6-8.5,14.8
	c0.2-3.2,0.4-6.4,0.6-9.6c0.4-6.4,0.8-12.9,1.1-19.3c6.4-18.5,9.4-37.8,12.9-56.9c0.9-4.9,4.8-28.6,10.2-51.3
	c1.5-6.3,3.2-12.6,4.9-18.3c4.9-16.3,10.5-28.6,16-27c3.1,0.9,4.4,4.2,5.1,7.2C868.2,597.3,866.5,610.5,864.2,623.3z"/>
<path class="st2" d="M857.8,763.6c-2.7,11-6,21.9-9.8,32.6c-2.3,6.4-4.8,12.8-7.4,19.1c-1.2,2.8-2.4,5.9-3.8,9h-11.3
	c1.2-2.9,2.3-5.9,3.2-8.9c1.4-4.5,2.8-9.2,4.1-13.8c0.9-3.5,1.8-7,2.6-10.5c0.7-2.9,1.3-5.9,1.9-8.8c1.9-9.4,3.4-18.8,4.4-28
	c0.7-6,3.3-40.5,13.8-40.1C869.4,714.6,859.3,757.7,857.8,763.6z"/>
<path class="st2" d="M789.6,806.5c-3.8-1.6-7.6-3.3-11-5.5c-49.6-31.1-93.2-102.2-82-159.1c1.7-8.5,6.1-15.3,15.1-9.7
	c9.7,6.1,10.6,18.7,12.4,28.2c5.2,26.8,10.7,55,22.6,80.4c0.3,0.6,0.5,1.2,0.8,1.7c0.8,1.6,1.6,3.2,2.4,4.8
	c6,11.4,13.4,22.1,22.4,31.6c1.4,1.4,9.2,7.6,16.5,13.4C789.1,797.1,789.3,801.8,789.6,806.5z"/>
<path class="st2" d="M779.7,655.8c-9.9-8.8-19.2-20.9-25.3-29.8c-8.7-12.7-15.9-30.2-18.8-45.1c-2.3-11.7,0.9-37.1,12.4-14.6
	c9.4,18.3,14.6,38,24.5,56.1c1.6,2.8,3.2,5.7,4.9,8.6C778.2,639.3,778.9,647.5,779.7,655.8z"/>
<path class="st2" d="M844,604.5c-1.7,5.7-3.3,12-4.9,18.3c-6.2-8.5-9.8-19-12.1-28.9c-1-4.3-7.8-39.4,6.4-29.2
	c6.8,4.9,6.5,20.6,8,28C842.2,596.6,843,600.5,844,604.5z"/>
<path class="st2" d="M768.8,708.5c-2.4,9.3-6,18.3-10.5,26.9c-0.7,1.3-4.6,6.7-8.4,12.1c-0.8-1.6-1.6-3.2-2.4-4.8
	c-0.3-0.6-0.6-1.2-0.8-1.7c4.5-11.9,6-25.2,7.8-37.2c1.7-11.7,1.4-23.7,4.8-35.2c1.6-5.3,3.8-13.2,9.7-7.6
	C778.3,669.9,771.4,698.2,768.8,708.5z"/>
<path class="st2" d="M837.3,782.2c-0.6,3-1.2,5.9-1.9,8.8c-9.7-9.4-18.7-32.7-9.2-38.5c5.9,3.4,4.4,12,5.9,17.8
	C833.3,774.6,835.3,778.5,837.3,782.2z"/>
<g>
	<path class="st3" d="M796.1,517.9l2.2,5.2c0.1,0.3,0,0.6-0.3,0.7c-0.3,0.1-0.6,0-0.7-0.3c0,0,0-0.1,0-0.1l0,0L796.1,517.9z"/>
	<path class="st3" d="M809.4,578.2l0.5,5.6c0.1,1.5-1,2.9-2.5,3c-1.5,0.1-2.9-1-3-2.5l0,0l-0.5-5.6l0,0c-0.1-1.5,1-2.9,2.5-3
		C807.9,575.6,809.3,576.7,809.4,578.2z"/>
	<path class="st3" d="M811.9,640.2l-0.1,5.6c0,1.5-1.3,2.8-2.9,2.7c-1.5,0-2.8-1.3-2.7-2.9l0,0l0.1-5.6l0,0c0-1.5,1.3-2.8,2.9-2.7
		C810.7,637.3,811.9,638.6,811.9,640.2z"/>
	<path class="st3" d="M809.6,701.8l0,5.6v0c0,1.5-1.2,2.8-2.8,2.8c-1.5,0-2.8-1.2-2.8-2.8l0-5.6c0-1.5,1.2-2.8,2.8-2.8
		C808.4,698.9,809.6,700.2,809.6,701.8L809.6,701.8z"/>
	<path class="st3" d="M810,763.5c0,0.9,0,1.9-0.1,2.8l-0.3,2.8c-0.1,1.4-1.4,2.5-2.8,2.4c-1.3-0.1-2.3-1.2-2.4-2.5l-0.2-2.8
		c0-0.9,0-1.9,0-2.8c0.1-1.6,1.4-2.8,3-2.7C808.8,760.7,810,762,810,763.5z"/>
</g>
<g>
	<path class="st3" d="M791.1,542.2l0.6,5.6c0,0.3-0.2,0.6-0.5,0.6c-0.3,0-0.6-0.2-0.6-0.5c0,0,0-0.1,0-0.1L791.1,542.2z"/>
	<path class="st3" d="M793.8,603.9l0,5.6c0,1.5-1.3,2.8-2.8,2.8c-1.5,0-2.8-1.3-2.8-2.8l0-5.6c0-1.5,1.3-2.8,2.8-2.8
		C792.6,601,793.8,602.3,793.8,603.9z"/>
	<path class="st3" d="M794.9,665.4l0.3,5.6l0,0c0.1,1.5-1.1,2.9-2.7,2.9c-1.5,0.1-2.9-1.1-2.9-2.7l-0.3-5.6
		c-0.1-1.5,1.1-2.9,2.7-2.9C793.5,662.6,794.8,663.8,794.9,665.4L794.9,665.4z"/>
	<path class="st3" d="M798.1,727l0.2,5.6c0,1.5-1.2,2.8-2.7,2.9c-1.5,0-2.8-1.2-2.9-2.7l0,0l-0.2-5.6l0,0c0-1.5,1.2-2.8,2.7-2.9
		C796.8,724.3,798.1,725.5,798.1,727z"/>
	<path class="st3" d="M798.9,788.6l0.3,5.6l0,0c0,0.8-0.6,1.6-1.5,1.6c-0.8,0-1.4-0.5-1.6-1.2L795,789c-0.2-1.1,0.5-2.1,1.5-2.3
		c1.1-0.2,2.1,0.5,2.3,1.5C798.9,788.3,798.9,788.4,798.9,788.6L798.9,788.6z"/>
</g>
<g>
	<path class="st3" d="M705.7,646.8l-0.8,5.6l0,0.1c-0.1,0.5-0.5,0.8-1,0.7c-0.5-0.1-0.8-0.5-0.7-1c0-0.1,0-0.2,0.1-0.2L705.7,646.8z
		"/>
	<path class="st3" d="M713.7,706.1l2,5.2l0,0.1c0.6,1.4-0.2,3.1-1.6,3.6c-1.4,0.6-3.1-0.2-3.6-1.6l-2-5.3c-0.6-1.4,0.2-3.1,1.6-3.6
		C711.5,703.9,713.2,704.6,713.7,706.1L713.7,706.1z"/>
	<path class="st3" d="M744.6,757.8l3.8,4l0.1,0.1c1.1,1.1,1,2.9-0.1,4c-1.1,1.1-2.9,1-4-0.1h0l-3.9-4.1c-1.1-1.1-1-2.9,0.1-4
		C741.7,756.6,743.4,756.6,744.6,757.8L744.6,757.8z"/>
</g>
<g>
	<path class="st3" d="M716,670.2c0.3,1.9,0.6,3.8,0.8,5.6l0,0.1c0.1,0.7-0.4,1.2-1,1.3c-0.7,0.1-1.2-0.4-1.3-1c0-0.1,0-0.3,0-0.4
		C714.9,673.9,715.4,672,716,670.2z"/>
	<path class="st3" d="M734.2,727.2l2.9,4.7l0,0.1c0.8,1.3,0.4,3-0.9,3.9c-1.3,0.8-3,0.4-3.9-0.9l-3-4.8c-0.8-1.3-0.4-3,0.9-3.9
		C731.7,725.5,733.4,725.9,734.2,727.2L734.2,727.2z"/>
</g>
<g>
	<path class="st3" d="M857,600.1c0.2,1.9,0.4,3.8,0.5,5.7c0,0.6-0.4,1.1-1,1.2c-0.6,0-1.1-0.4-1.2-1c0-0.1,0-0.2,0-0.4
		C855.9,603.7,856.4,601.9,857,600.1z"/>
	<path class="st3" d="M852.3,661.8l-1.1,5.6c-0.3,1.5-1.8,2.5-3.3,2.2c-1.5-0.3-2.5-1.8-2.2-3.3l0-0.1l1-5.5l0-0.1
		c0.3-1.5,1.8-2.5,3.3-2.2C851.6,658.8,852.5,660.3,852.3,661.8z"/>
	<path class="st3" d="M833.1,720.9l-3.1,4.8c-0.2,0.4-0.8,0.5-1.1,0.2c-0.3-0.2-0.4-0.6-0.4-0.9l0,0l1.3-5.5l0,0
		c0.2-1,1.2-1.6,2.2-1.3c1,0.2,1.6,1.2,1.3,2.2C833.3,720.5,833.2,720.7,833.1,720.9z"/>
</g>
<path class="st4" d="M407.3,690.8C403.6,692.6,215,794,215,794c-8,110-35.3,104.6-33.9-9.7l20.6-16.8l162.6-143.9L407.3,690.8z"/>
<path class="st5" d="M419,971l2-32c-0.5-1.1-25-73-26-107l1.2-48.7L445,828l-3,111C556.2,990.2,508.8,985.4,419,971z"/>
<g>
	<defs>
		<path id="SVGID_1_" d="M529,206.7c-8.7-24.2-55.4-36.8-76.3,19.6c-27.2-30.2-48.1-43-48.9,0c-74-53-121-8.5-86.1,52.8
			c-38.1-23.6-72.4,45-25.4,66.5c-76.3,54.8,76.3,187.8,138.9,92l29.4-111.5l19.6-41.1l48.9-66.5V206.7z"/>
	</defs>
	<use xlink:href="#SVGID_1_"  style="overflow:visible;fill:#FFB81F;"/>
	<clipPath id="SVGID_2_">
		<use xlink:href="#SVGID_1_"  style="overflow:visible;"/>
	</clipPath>
</g>
<path class="st4" d="M234,332l-22,20l-15-28c0,0-1.9-23.7-2.8-33.3c-17.7-13.6-24.7-24.8-22.4-29.9c19.7,11.5,37.5,24.8,41.1,41.1
	L234,332z"/>
<path class="st2" d="M216.7,328.6l-1.6,6.4c-0.1,0.6-0.2,1.2-0.4,1.8l-0.1,0.1c-0.6,1.6-1.8,3-3.5,3.8l-29.2,14.7
	c-3.4,1.7-7.6,0.5-9.6-2.7l-10.2-16.8l-1.5-2.5l-19.4-32.1l-1.7-2.8l-8.6-14.2c-1.2-2-1.3-4.4-0.5-6.4l1-4.7c-0.1,1.5,0.2,3,1,4.4
	l9.7,16.1l1.7,2.7l5.7,9.4l6.1,10l4.1,6.8l0,0l4.3,7.1l1.5,2.5l8.4,13.8c2,3.3,6.1,4.5,9.6,2.7l29.2-14.7c2.2-1.1,3.6-3.2,3.9-5.4
	L216.7,328.6z"/>
<path class="st6" d="M216.6,328.7c-0.3,2.2-1.7,4.3-3.9,5.4l-29.2,14.7c-3.4,1.7-7.6,0.5-9.6-2.7l-41.4-68.4c-0.8-1.4-1.2-2.9-1-4.4
	c0.2-2.4,1.7-4.7,4-5.9l29.2-14.7c3.4-1.7,7.6-0.5,9.6,2.7l41.4,68.4C216.5,325.3,216.8,327,216.6,328.7z"/>
<polygon class="st2" points="211.6,322.2 174.1,341.2 139.8,284.6 137.9,281.4 135.7,277.8 173.3,258.9 207.9,316.1 209.8,319.3 "/>
<path class="st7" d="M198.8,336.5c0,1.8-1.4,3.3-3.2,3.4c-1.8,0-3.3-1.4-3.4-3.2c0-1.8,1.4-3.3,3.2-3.4
	C197.3,333.2,198.8,334.6,198.8,336.5z"/>
<path class="st8" d="M620.4,417.8l-3.7,9.3c-9.3,108.4-130.9,78.5-130.9-46.7l-20.6,46.7h-76.6c-22.2-12.5-22-37-11.2-67.3
	c-73.4,94.8-129.7,99.7-175.3,1.4l36.6-33.9l41.4,40.9c69.8-62.5,93-88.2,160.8-68.2l44.9,13.1c55.9,10.3,54.2,65.4,71,123.4
	l32.8-44.1L620.4,417.8z"/>
<path class="st7" d="M485.8,313.1l12.6,3.7c-10.7,16.1-25.4,16.8-35.1,3.7c-13.7,5-35.9,2.1-35.5-24.8l13.1,4.2L485.8,313.1z"/>
<path class="st8" d="M465.3,427.2v437.5c0,0-19.5-30.4-29.9-35.5c-19.4-9.5-68.3,9-89.1-0.8c-1.2-0.6-2.3-1.3-3.3-2
	c-0.4-0.3-0.7-0.6-1-0.9c-8.6-8,2.5-38.2-5.6-46.7c-16.9-17.7-77.7-0.4-97.6-15.6c-0.5-0.4-1-0.8-1.5-1.3c-0.4-0.4-0.9-0.9-1.2-1.4
	c-9.1-12.3-0.8-48.7-11.9-58.4c-17.3-15.1-91.6-7.5-91.6-7.5l256.1-267.3H465.3z"/>
<path class="st5" d="M668,344l-6,30l-13.1,5.9L628,378l-17,31l-18-14l18.1-31.4c11.1-20,29.2-26.8,48.6-31.8
	c0.6,1.8,0.1,3.5-1.2,5.2c-0.7,1-1.8,2.1-3,3.1c-2.4,2-5.7,4.1-9.1,6.2c-1,0.6-2,1.2-3,1.8c-0.6,0.4-1.3,0.8-1.9,1.2
	c-1.9,1.1,10.5-1.5,10.5-1.5L668,344z"/>
<path class="st9" d="M517,203.3l2.4,13.6L491,294.5C545.2,298.3,576.2,216.2,517,203.3z"/>
<path class="st5" d="M538.3,268.3L537,271c-8,14-25.4,34.5-40,31c-14.6-3.4-28.4-30.4-25-45l9-17.5c0.1-0.7,0.3-1.3,0.5-1.9
	c14,2.2,35.4,1.4,44.4-6.6l3-1c2.6,1.6,3.2,1.2,6,4C543,242,545,254.9,538.3,268.3z"/>
<path class="st5" d="M480.2,245.8L441,300.1c11.6,15.6,26.2,21,44.9,13.1l18.7-44.9L480.2,245.8z"/>
<path class="st6" d="M418.5,971.2L420,940c13,5,20,13,26,0C560.2,991.2,508.3,985.6,418.5,971.2z"/>
<path class="st6" d="M215,794c-10,119-35.3,104.6-33.9-9.7l20.6-16.8C200,784,193.7,808,215,794z"/>
<g>
	<path class="st6" d="M639.9,398.3c-0.4,0-0.9-0.1-1.3-0.3c-1.9-0.7-2.9-2.9-2.1-4.8l25.6-66.7c0.7-1.9,2.9-2.9,4.8-2.1
		c1.9,0.7,2.9,2.9,2.1,4.8l-25.6,66.7C642.8,397.4,641.4,398.3,639.9,398.3z"/>
</g>
<g>
	<path class="st2" d="M680.5,332.9c-1.1,0-2.1,0-3.2-0.1c-20-1.7-34.9-19.4-33.2-39.5c0.8-9.7,5.4-18.5,12.9-24.8
		c7.5-6.3,16.9-9.3,26.6-8.4c9.7,0.8,18.5,5.4,24.8,12.9c6.3,7.5,9.3,16.9,8.4,26.6c-0.8,9.7-5.4,18.5-12.9,24.8
		C697.3,329.9,689.1,332.9,680.5,332.9z M680.4,265.5c-7.2,0-14.2,2.5-19.8,7.2c-6.3,5.3-10.2,12.7-10.9,20.9
		c-1.5,16.9,11.1,31.9,28.1,33.4c16.9,1.4,31.9-11.1,33.4-28.1c0,0,0,0,0,0c0.7-8.2-1.8-16.2-7.1-22.5c-5.3-6.3-12.7-10.2-21-10.9
		C682.2,265.6,681.3,265.5,680.4,265.5z"/>
</g>
<g>
	<path class="st6" d="M676.8,331c-1.1,0-2.1,0-3.2-0.1c-20-1.7-34.9-19.4-33.2-39.5c0.8-9.7,5.4-18.5,12.9-24.8
		c7.5-6.3,16.9-9.2,26.6-8.4c20,1.7,34.9,19.4,33.2,39.5l0,0c-0.8,9.7-5.4,18.5-12.9,24.8C693.5,328,685.3,331,676.8,331z
		 M676.7,263.7c-15.8,0-29.3,12.1-30.7,28.2c-1.5,16.9,11.1,31.9,28.1,33.4c8.2,0.7,16.2-1.8,22.5-7.1c6.3-5.3,10.2-12.7,10.9-20.9
		c1.5-16.9-11.1-31.9-28.1-33.4C678.5,263.7,677.6,263.7,676.7,263.7z M710.2,297.4L710.2,297.4L710.2,297.4z"/>
</g>
<g>
	<path class="st7" d="M656.2,295.6c-0.1,0-0.2,0-0.2,0c-1.5-0.1-2.7-1.5-2.6-3c1-12,11.2-21.4,23.2-21.4c0.7,0,1.4,0,2.1,0.1
		c1.5,0.1,2.7,1.5,2.6,3c-0.1,1.5-1.5,2.7-3,2.6c-0.5,0-1.1-0.1-1.6-0.1c-9.1,0-16.9,7.1-17.7,16.2
		C658.9,294.5,657.7,295.6,656.2,295.6z"/>
</g>
<g>
	<path class="st7" d="M676.7,317.9c-0.7,0-1.4,0-2.1-0.1c-1.5-0.1-2.7-1.5-2.6-3c0.1-1.5,1.5-2.7,3-2.6c9.7,0.8,18.4-6.5,19.2-16.2
		c0.1-1.5,1.5-2.7,3-2.6c1.5,0.1,2.7,1.5,2.6,3C698.9,308.5,688.7,317.9,676.7,317.9z"/>
</g>
<g>
	<g>
		
			<rect x="461.8" y="951.1" transform="matrix(0.5077 -0.8615 0.8615 0.5077 -589.1508 873.0077)" class="st7" width="15.2" height="1.9"/>
	</g>
	<g>
		
			<rect x="471.8" y="955.9" transform="matrix(0.5077 -0.8615 0.8615 0.5077 -588.3309 884.0147)" class="st7" width="15.2" height="1.9"/>
	</g>
	<g>
		
			<rect x="481.8" y="960.7" transform="matrix(0.5077 -0.8615 0.8615 0.5077 -587.511 895.0219)" class="st7" width="15.2" height="1.9"/>
	</g>
</g>
<g>
	<g>
		
			<rect x="203.1" y="815" transform="matrix(0.2412 -0.9705 0.9705 0.2412 -643.4589 822.119)" class="st7" width="1.9" height="15.2"/>
	</g>
	<g>
		
			<rect x="201.3" y="825.9" transform="matrix(0.2412 -0.9705 0.9705 0.2412 -655.4432 828.7802)" class="st7" width="1.9" height="15.2"/>
	</g>
	<g>
		
			<rect x="199.6" y="836.9" transform="matrix(0.2412 -0.9705 0.9705 0.2412 -667.428 835.4987)" class="st7" width="1.9" height="15.2"/>
	</g>
</g>
<g>
	
		<rect x="395.6" y="372.2" transform="matrix(0.25 -0.9683 0.9683 0.25 -23.8858 715.4117)" class="st7" width="108.4" height="1.9"/>
</g>
<g>
	
		<rect x="598.9" y="392.8" transform="matrix(0.6139 -0.7893 0.7893 0.6139 -95.2868 633.364)" class="st7" width="1.9" height="42.6"/>
</g>
<g>
	<polygon class="st7" points="209.8,376.4 208.5,375.1 247.7,336.8 249.1,338.1 	"/>
</g>
<g>
	<path class="st3" d="M209.8,319.3c-7.5,3.2-16,5.7-25.1,6.6c-0.7,0.1-1.6,0.1-2.7,0.1c-2.9,0-6.8-0.6-8.8-4
		c-0.8-1.4-1.3-3.1-1.3-5.1c-0.2-4.8,1.6-9.2,3.3-13.5c2.1-5.2,4-10.2,2.4-15.5c-3-9.7-15-8.7-20-7.9c-6.4,1.1-12.3,2.6-17.8,4.5
		l-2-3.3c5.9-2.1,12.2-3.8,19.1-5c12.5-2.1,21.5,1.8,24.2,10.5c2,6.5-0.3,12.3-2.5,17.9c-1.6,4.1-3.2,8-3,12c0,1.3,0.3,2.4,0.8,3.3
		c1.1,1.8,3.5,2.5,7.9,2.1c8.4-0.8,16.4-3.1,23.5-6.1L209.8,319.3z"/>
</g>
<g>
	<path class="st8" d="M487.4,232.8c-3.8,0-7.4-0.5-10.5-1.5c-1-0.3-1.5-1.4-1.2-2.3c0.3-1,1.4-1.5,2.3-1.2
		c10.7,3.4,27.8,0.7,38.2-11.1c0.7-0.8,1.9-0.8,2.6-0.2c0.8,0.7,0.8,1.9,0.2,2.6C510.5,228.6,498.1,232.8,487.4,232.8z"/>
</g>
<g>
	<path class="st8" d="M312,333.7c-0.4,0-0.8-0.1-1.1-0.4c-14.5-11.3-20.6-22.9-16.5-31.8c4.3-9.6,19-13.5,38.6-10.3
		c-7.5-34-5.8-52.8,5.2-61c12-8.8,34.7-3.5,69.5,16.3c1.7-15.5,5.7-23.9,12-25.6c7.5-2,17.4,5.8,30.3,23.9c0.6,0.8,0.4,2-0.4,2.6
		c-0.8,0.6-2,0.4-2.6-0.4c-14.6-20.5-22.3-23.5-26.3-22.4c-3.4,0.9-7.9,6.1-9.6,25.2c-0.1,0.6-0.4,1.2-1,1.5c-0.6,0.3-1.2,0.3-1.8,0
		c-34.3-19.9-57.1-25.9-67.9-18c-9.9,7.3-10.9,26.3-3.2,59.9c0.1,0.6,0,1.3-0.5,1.7c-0.4,0.5-1.1,0.7-1.7,0.5
		c-18.9-3.6-33.6-0.6-37.3,7.7c-3.2,7.1,2.6,17.3,15.4,27.3c0.8,0.6,1,1.8,0.3,2.6C313.1,333.5,312.5,333.7,312,333.7z"/>
</g>
<path class="st5" d="M484.7,239c-7.7-8-15.7,7-9.7,14L484.7,239z"/>
<path class="st8" d="M462.3,427.2c0.1,0.6,0.1,1.3-0.1,2c-0.2,1.1-0.4,1.8-0.7,2.6v420.7c0,0,0-0.1-0.1-0.1c0,0.2,0.1,0.3,0.1,0.5
	v0.3c0,0,0,0.1,0,0.1c0,1.8-0.1,3.6-0.2,5.4c2.4,3.5,3.9,5.9,3.9,5.9V427.2H462.3z"/>
<g>
	<rect x="388.6" y="423.4" class="st10" width="76.6" height="7.5"/>
</g>
<path class="st11" d="M305.5,770.5L391,566l-51.9,244.8c0,0,3.4-27.3-2.6-32.3S320.5,768.8,305.5,770.5z"/>
<path class="st11" d="M197.4,691.9L302,591l-71.4,143c0,0,1.9-28.5-6.1-32.5S197.4,691.9,197.4,691.9z"/>
<ellipse transform="matrix(7.940296e-02 -0.9968 0.9968 7.940296e-02 -367.3004 465.3681)" class="st7" cx="68.3" cy="431.5" rx="62.6" ry="62.6"/>
<g>
	<path class="st2" d="M68.3,496c-35.6,0-64.5-28.9-64.5-64.5C3.8,396,32.7,367,68.3,367c35.6,0,64.5,28.9,64.5,64.5
		C132.8,467.1,103.9,496,68.3,496z M68.3,370.8c-33.5,0-60.8,27.3-60.8,60.8s27.3,60.8,60.8,60.8c33.5,0,60.8-27.3,60.8-60.8
		S101.8,370.8,68.3,370.8z"/>
</g>
<g>
	<path class="st2" d="M196.4,489.8c-0.7,0-1.4-0.4-1.7-1.1c-16.4-34.6-47.1-45.9-64-49.5c-1-0.2-1.6-1.2-1.4-2.2
		c0.2-1,1.2-1.7,2.2-1.4c17.6,3.7,49.6,15.4,66.6,51.5c0.4,0.9,0.1,2-0.9,2.5C196.9,489.8,196.7,489.8,196.4,489.8z"/>
</g>
<rect x="93.5" y="393.4" class="st9" width="13.3" height="72.4"/>
<rect x="71.3" y="412.1" class="st10" width="13.3" height="53.7"/>
<rect x="49.1" y="427.2" class="st2" width="13.3" height="38.5"/>
<rect x="26.9" y="454.2" class="st8" width="13.3" height="11.6"/>
<g>
	<g>
		<path class="st10" d="M18.6,442.4c-0.7-26.7,16.4-34.9,32.9-42.9c10.5-5.1,21.4-10.4,27.7-20.5l3.2,2
			c-6.9,11.1-18.3,16.6-29.3,21.9c-16.1,7.8-31.4,15.2-30.8,39.4L18.6,442.4z"/>
	</g>
	<g>
		<polygon class="st10" points="80.1,391.2 79.8,380.2 68.8,380.6 68.6,376.8 83.4,376.3 83.9,391.1 		"/>
	</g>
</g>
<g>
	<path class="st2" d="M477.5,729.8c-50.8,0-90.7-21-118.8-62.6c-0.6-0.9-0.4-2,0.5-2.6c0.9-0.6,2-0.4,2.6,0.5
		c30.2,44.7,74.5,65,131.7,60.3c1-0.1,1.9,0.7,2,1.7c0.1,1-0.7,1.9-1.7,2C488.2,729.6,482.8,729.8,477.5,729.8z"/>
</g>
<ellipse transform="matrix(0.9869 -0.1615 0.1615 0.9869 -109.0948 99.6319)" class="st6" cx="558.4" cy="721" rx="64.8" ry="64.8"/>
<g>
	<path class="st9" d="M593.9,686.2c-0.8-7.8-14.8-13.6-33.3-13.6c-18.5,0-32.6,5.8-33.3,13.6h-0.1v73.5c0,8.1,14.3,14.2,33.4,14.2
		s33.4-6.1,33.4-14.2L593.9,686.2L593.9,686.2z M560.6,676.4c17.5,0,29.6,5.5,29.6,10.5c0,5-12.2,10.5-29.6,10.5
		c-17.5,0-29.6-5.5-29.6-10.5C530.9,681.9,543.1,676.4,560.6,676.4z M560.6,770.2c-17.5,0-29.6-5.5-29.6-10.5v-11.5
		c5.5,4.5,16.4,7.5,29.6,7.5c13.2,0,24.2-3,29.6-7.5v11.5C590.2,764.7,578,770.2,560.6,770.2z M560.6,752
		c-17.5,0-29.6-5.5-29.6-10.5v-11.5c5.5,4.5,16.4,7.5,29.6,7.5c13.2,0,24.2-3,29.6-7.5v11.5C590.2,746.5,578,752,560.6,752z
		 M560.6,733.8c-17.5,0-29.6-5.5-29.6-10.5v-11.5c5.5,4.5,16.4,7.5,29.6,7.5c13.2,0,24.2-3,29.6-7.5v11.5
		C590.2,728.3,578,733.8,560.6,733.8z M560.6,715.6c-17.5,0-29.6-5.5-29.6-10.5v-11.5c5.5,4.5,16.4,7.5,29.6,7.5
		c13.2,0,24.2-3,29.6-7.5v11.5C590.2,710.1,578,715.6,560.6,715.6z"/>
	<path class="st9" d="M560.6,695.9c15.2,0,27.3-4.6,28-8.7l0.1-0.3l-0.1-0.3c-0.7-4.1-12.8-8.7-28-8.7c-15.2,0-27.3,4.6-28,8.7
		l-0.1,0.3l0.1,0.3C533.3,691.3,545.4,695.9,560.6,695.9z M560.6,681.6c13.5,0,21.6,3.6,23.8,5.3c-2.2,1.7-10.3,5.3-23.8,5.3
		c-13.5,0-21.6-3.6-23.8-5.3C539,685.2,547.1,681.6,560.6,681.6z"/>
</g>
<circle class="st9" cx="602" cy="758.4" r="38.2"/>
<g>
	<path class="st8" d="M602,788c-16.4,0-29.7-13.3-29.7-29.7c0-16.4,13.3-29.7,29.7-29.7c16.3,0,29.7,13.3,29.7,29.7
		C631.7,774.7,618.4,788,602,788z M602,730.6c-15.3,0-27.8,12.5-27.8,27.8c0,15.3,12.5,27.8,27.8,27.8c15.3,0,27.8-12.5,27.8-27.8
		C629.8,743.1,617.4,730.6,602,730.6z"/>
</g>
<g>
	<g>
		<path class="st8" d="M603.7,771.2c-1.5,0-2.8-1.3-2.8-2.8v-17.1l-6.2,5.2c-1.2,1-3,0.8-4-0.4c-1-1.2-0.8-3,0.4-4l10.8-9
			c0.8-0.7,2-0.9,3-0.4c1,0.5,1.6,1.5,1.6,2.5v23.1C606.5,770,605.2,771.2,603.7,771.2z"/>
	</g>
	<g>
		<path class="st8" d="M609.4,773.2h-12c-1.5,0-2.8-1.3-2.8-2.8s1.3-2.8,2.8-2.8h12c1.5,0,2.8,1.3,2.8,2.8S611,773.2,609.4,773.2z"
			/>
	</g>
</g>
<g>
	<path class="st8" d="M602.1,794.9v-3.7c0.6,0,1.2,0,1.8,0l0.2,3.7C603.4,794.9,602.7,794.9,602.1,794.9z M596.2,794.4
		c-0.6-0.1-1.3-0.2-1.9-0.4l0.8-3.7c0.6,0.1,1.2,0.2,1.7,0.3L596.2,794.4z M609.9,794l-0.8-3.7c0.6-0.1,1.2-0.3,1.7-0.4l1,3.6
		C611.2,793.7,610.6,793.9,609.9,794z M588.6,792.3c-0.6-0.2-1.2-0.5-1.8-0.8l1.6-3.4c0.5,0.2,1.1,0.5,1.6,0.7L588.6,792.3z
		 M617.4,791.5l-1.6-3.4c0.5-0.3,1.1-0.5,1.6-0.8l1.8,3.3C618.6,790.9,618,791.2,617.4,791.5z M581.6,788.6
		c-0.5-0.4-1.1-0.8-1.6-1.2l2.3-3c0.5,0.4,1,0.7,1.4,1L581.6,788.6z M624.1,787.4l-2.3-3c0.5-0.4,0.9-0.7,1.4-1.1l2.4,2.8
		C625.2,786.6,624.7,787,624.1,787.4z M575.6,783.5c-0.5-0.5-0.9-1-1.3-1.5l2.8-2.4c0.4,0.4,0.8,0.9,1.2,1.3L575.6,783.5z
		 M629.9,782l-2.8-2.4c0.4-0.5,0.8-0.9,1.1-1.4l3,2.3C630.7,781,630.3,781.5,629.9,782z M570.8,777.3c-0.3-0.6-0.7-1.1-1-1.7
		l3.3-1.8c0.3,0.5,0.6,1,0.9,1.5L570.8,777.3z M634.3,775.5l-3.3-1.8c0.3-0.5,0.5-1,0.8-1.6l3.4,1.6
		C634.9,774.3,634.6,774.9,634.3,775.5z M567.5,770.1c-0.2-0.6-0.4-1.2-0.6-1.9l3.6-1c0.2,0.6,0.3,1.1,0.5,1.7L567.5,770.1z
		 M637.2,768.2l-3.6-1c0.2-0.6,0.3-1.1,0.4-1.7l3.7,0.8C637.6,766.9,637.4,767.5,637.2,768.2z M565.8,762.4c-0.1-0.6-0.1-1.3-0.2-2
		l3.7-0.2c0,0.6,0.1,1.2,0.1,1.8L565.8,762.4z M638.5,760.4l-3.7-0.2c0-0.6,0-1.2,0-1.8l3.7-0.1v0.1
		C638.5,759.1,638.5,759.7,638.5,760.4z M569.5,754.9l-3.7-0.4c0.1-0.7,0.2-1.3,0.3-2l3.7,0.6C569.6,753.7,569.5,754.3,569.5,754.9z
		 M634.3,753c-0.1-0.6-0.2-1.2-0.3-1.7l3.7-0.8c0.1,0.6,0.3,1.3,0.4,1.9L634.3,753z M571,748l-3.5-1.2c0.2-0.6,0.4-1.2,0.7-1.9
		l3.5,1.4C571.4,746.9,571.2,747.4,571,748z M632.4,746.2c-0.2-0.6-0.5-1.1-0.7-1.6l3.4-1.6c0.3,0.6,0.5,1.2,0.8,1.8L632.4,746.2z
		 M573.9,741.6l-3.2-1.9c0.3-0.6,0.7-1.1,1.1-1.7l3.1,2.1C574.6,740.6,574.2,741.1,573.9,741.6z M629.1,739.9c-0.3-0.5-0.7-1-1-1.4
		l3-2.3c0.4,0.5,0.8,1.1,1.2,1.6L629.1,739.9z M578.2,735.9l-2.7-2.6c0.5-0.5,0.9-0.9,1.4-1.4l2.6,2.7
		C579,735.1,578.6,735.5,578.2,735.9z M624.5,734.5c-0.4-0.4-0.9-0.8-1.3-1.2l2.4-2.9c0.5,0.4,1,0.9,1.5,1.3L624.5,734.5z
		 M583.6,731.3l-2.1-3.1c0.5-0.4,1.1-0.7,1.7-1.1l1.9,3.2C584.6,730.7,584.1,731,583.6,731.3z M618.8,730.3c-0.5-0.3-1-0.6-1.5-0.9
		l1.7-3.3c0.6,0.3,1.2,0.6,1.7,1L618.8,730.3z M589.8,728l-1.4-3.5c0.6-0.2,1.2-0.5,1.8-0.7l1.2,3.5
		C590.9,727.6,590.4,727.8,589.8,728z M612.4,727.3c-0.6-0.2-1.1-0.4-1.7-0.5l1-3.6c0.6,0.2,1.3,0.4,1.9,0.6L612.4,727.3z
		 M596.6,726.1l-0.6-3.7c0.6-0.1,1.3-0.2,2-0.3l0.4,3.7C597.8,725.9,597.2,726,596.6,726.1z M605.5,725.8c-0.6-0.1-1.2-0.1-1.8-0.1
		l0.2-3.7c0.7,0,1.3,0.1,2,0.2L605.5,725.8z"/>
</g>
<g>
	<path class="st6" d="M32,757.7l-4.7-3.1l2.6-4l4.7,3.1L32,757.7z M39.8,745.8l-4.7-3.1l6.1-9.4l4.7,3.1L39.8,745.8z M51,728.5
		l-4.7-3.1l6.1-9.4l4.7,3.1L51,728.5z M62.3,711.2l-4.7-3.1l6.1-9.4l4.7,3.1L62.3,711.2z M73.5,693.8l-4.7-3.1l6.1-9.4l4.7,3.1
		L73.5,693.8z M84.8,676.5l-4.7-3.1l6.1-9.4l4.7,3.1L84.8,676.5z M96.1,659.1l-4.7-3.1l6.1-9.4l4.7,3.1L96.1,659.1z M356.9,656.7
		l-3.1-4.7l9.3-6.3l3.1,4.7L356.9,656.7z M346.1,655.9l-7.9-8l4-3.9l7.9,8L346.1,655.9z M374.1,645.1l-3.1-4.7l9.3-6.3l3.1,4.7
		L374.1,645.1z M107.3,641.8l-4.7-3.1l6.1-9.4l4.7,3.1L107.3,641.8z M331.6,641.2l-7.9-8l4-3.9l7.9,8L331.6,641.2z M391.2,633.6
		l-3.1-4.7l9.3-6.3l3.1,4.7L391.2,633.6z M317,626.5l-7.9-8l4-3.9l7.9,8L317,626.5z M118.6,624.4l-4.7-3.1l6.1-9.4l4.7,3.1
		L118.6,624.4z M408.4,622l-3.1-4.7l9.3-6.3l3.1,4.7L408.4,622z M302.5,611.8l-7.9-8l4-3.9l7.9,8L302.5,611.8z M425.6,610.5
		l-3.1-4.7l9.3-6.3l3.1,4.7L425.6,610.5z M129.9,607.1l-4.7-3.1l6.1-9.4l4.7,3.1L129.9,607.1z M442.7,599l-3.1-4.7l9.3-6.3l3.1,4.7
		L442.7,599z M287.9,597.1l-7.9-8l4-3.9l7.9,8L287.9,597.1z M141.1,589.8l-4.7-3.1l6.1-9.4l4.7,3.1L141.1,589.8z M459.9,587.4
		l-3.1-4.7l9.3-6.3l3.1,4.7L459.9,587.4z M273.4,582.4l-7.9-8l4-3.9l7.9,8L273.4,582.4z M477,575.9l-3.1-4.7l9.3-6.3l3.1,4.7
		L477,575.9z M152.4,572.4l-4.7-3.1l6.1-9.4l4.7,3.1L152.4,572.4z M258.9,567.7l-7.9-8l4-3.9l7.9,8L258.9,567.7z M659.7,566.5
		c-0.4,0-0.9-0.1-1.3-0.3l-6-3l2.5-5l3.1,1.6l0.4-1.2l5.3,1.8l-1.5,4.2c-0.3,0.8-0.8,1.4-1.6,1.7C660.4,566.4,660,566.5,659.7,566.5
		z M494.2,564.3l-3.1-4.7l9.3-6.3l3.1,4.7L494.2,564.3z M643.9,558.9l-10-5l2.5-5l10,5L643.9,558.9z M163.7,555.1L159,552l6.1-9.4
		l4.7,3.1L163.7,555.1z M244.3,553l-7.9-8l4-3.9l7.9,8L244.3,553z M511.4,552.8l-3.1-4.7l9.3-6.3l3.1,4.7L511.4,552.8z M666.9,551.4
		l-5.3-1.8l3.6-10.6l5.3,1.8L666.9,551.4z M625.5,549.7l-10-5l2.5-5l10,5L625.5,549.7z M528.5,541.3l-3.1-4.7l9.3-6.3l3.1,4.7
		L528.5,541.3z M607,540.4l-10-5l2.5-5l10,5L607,540.4z M229.8,538.2l-7.9-8l4-3.9l7.9,8L229.8,538.2z M174.9,537.7l-4.7-3.1
		l6.1-9.4l4.7,3.1L174.9,537.7z M673.6,531.8l-5.3-1.8l3.6-10.6l5.3,1.8L673.6,531.8z M588.5,531.2l-10-5l2.5-5l10,5L588.5,531.2z
		 M545.7,529.7l-3.1-4.7l9.3-6.3l3.1,4.7L545.7,529.7z M215.3,523.5l-7.9-8l4-3.9l7.9,8L215.3,523.5z M570,521.9l-8.7-4.4l0.5-1
		l-2-3l1.2-0.8c0.8-0.6,1.9-0.6,2.8-0.2l8.7,4.4L570,521.9z M186.2,520.4l-4.7-3.1l6.1-9.4l4.7,3.1L186.2,520.4z M680.2,512.2
		l-5.3-1.8l3.6-10.6l5.3,1.8L680.2,512.2z M200.7,508.8l-6.7-6.8l0.7-0.7l-2-1.3l0.9-1.4c0.5-0.7,1.2-1.2,2.1-1.3
		c0.8-0.1,1.7,0.2,2.3,0.8l6.7,6.8L200.7,508.8z M686.9,492.7l-5.3-1.8l3.6-10.6l5.3,1.8L686.9,492.7z M693.6,473.1l-5.3-1.8
		l3.6-10.6l5.3,1.8L693.6,473.1z M700.3,453.5l-5.3-1.8l3.6-10.6l5.3,1.8L700.3,453.5z M707,434l-5.3-1.8l3.6-10.6l5.3,1.8L707,434z
		 M908.3,428.1c-0.3,0-0.7-0.1-1-0.2l-2.9-1.1l2-5.2l0.3,0.1l2-5l5.2,2.1l-3.1,7.5C910.5,427.5,909.4,428.1,908.3,428.1z
		 M895.6,423.4l-10.5-4.1l2-5.2l10.5,4.1L895.6,423.4z M876.4,415.9l-10.5-4.1l2-5.2l10.5,4.1L876.4,415.9z M713.7,414.4l-5.3-1.8
		l3.6-10.6l5.3,1.8L713.7,414.4z M917.6,410.1l-5.2-2.1l4.2-10.4l5.2,2.1L917.6,410.1z M857.1,408.4l-10.5-4.1l2-5.2l10.5,4.1
		L857.1,408.4z M837.8,400.9l-10.5-4.1l2-5.2l10.5,4.1L837.8,400.9z M720.4,394.8l-5.3-1.8l3.6-10.6l5.3,1.8L720.4,394.8z
		 M818.5,393.4l-10.5-4.1l2-5.2l10.5,4.1L818.5,393.4z M925.4,390.9l-5.2-2.1l4.2-10.4l5.2,2.1L925.4,390.9z M799.3,385.9l-10.5-4.1
		l2-5.2l10.5,4.1L799.3,385.9z M780,378.3l-10.5-4.1l2-5.2l10.5,4.1L780,378.3z M727.1,375.3l-5.3-1.8l3.6-10.6l5.3,1.8L727.1,375.3
		z M933.1,371.8l-5.2-2.1l4.2-10.4l5.2,2.1L933.1,371.8z M760.7,370.8l-10.5-4.1l2-5.2l10.5,4.1L760.7,370.8z M741.5,363.3
		l-10.5-4.1l2-5.2l10.5,4.1L741.5,363.3z M940.9,352.6l-5.2-2.1l4.2-10.4l5.2,2.1L940.9,352.6z M948.7,333.4l-5.2-2.1l4.2-10.4
		l5.2,2.1L948.7,333.4z M956.5,314.3l-5.2-2.1l4.2-10.4l5.2,2.1L956.5,314.3z M964.3,295.1l-5.2-2.1l4.2-10.4l5.2,2.1L964.3,295.1z
		 M972.1,276l-5.2-2.1l4.2-10.4l5.2,2.1L972.1,276z"/>
</g>
<g>
	<path class="st6" d="M992.5,296.3c-1.5,0-3-0.9-3.5-2.5l-13.4-36.8L944,277c-1.7,1.1-4.1,0.6-5.2-1.2c-1.1-1.7-0.6-4.1,1.2-5.2
		l35.5-22.4c1-0.6,2.1-0.7,3.2-0.4c1.1,0.4,1.9,1.2,2.3,2.3l15,41.1c0.7,1.9-0.3,4.1-2.2,4.8C993.3,296.2,992.9,296.3,992.5,296.3z"
		/>
</g>
<g>
	<path class="st8" d="M730.7,384.2c-15.5,0-28-12.6-28-28s12.6-28,28-28s28,12.6,28,28S746.2,384.2,730.7,384.2z M730.7,331.8
		c-13.4,0-24.3,10.9-24.3,24.3c0,13.4,10.9,24.3,24.3,24.3c13.4,0,24.3-10.9,24.3-24.3C755,342.7,744.1,331.8,730.7,331.8z"/>
</g>
<circle class="st8" cx="730.7" cy="356.1" r="16.8"/>
<path class="st10" d="M926.1,426.2c0,9.3-7.5,16.8-16.8,16.8c-9.3,0-16.8-7.5-16.8-16.8s7.5-16.8,16.8-16.8
	C918.6,409.4,926.1,417,926.1,426.2z"/>
<circle class="st10" cx="658.7" cy="562.7" r="16.8"/>
<path class="st10" d="M578.4,516c0,9.3-7.5,16.8-16.8,16.8c-9.3,0-16.8-7.5-16.8-16.8c0-9.3,7.5-16.8,16.8-16.8
	C570.8,499.2,578.4,506.7,578.4,516z"/>
<circle class="st10" cx="197" cy="501" r="16.8"/>
<path class="st10" d="M49.6,752.8c0,9.3-7.5,16.8-16.8,16.8c-9.3,0-16.8-7.5-16.8-16.8c0-9.3,7.5-16.8,16.8-16.8
	C42.1,736,49.6,743.5,49.6,752.8z"/>
<circle class="st10" cx="352.2" cy="656.2" r="16.8"/>
<path class="st11" d="M389,423c0,0-11-52-9-61s-3-2-3-2s-8.6,23.4-6.3,40.7c2.3,17.3,17.9,26.5,17.9,26.5L389,423z"/>
<path class="st11" d="M488,368c0,0-3.7,25.8-0.3,36.9c3.3,11.1,9.3,60.6,44.3,78.8c35,18.2,2.9-5.9-6-14.8C510,453,482,404,488,368z
	"/>
<path class="st12" d="M506.7,282.8c0,0,7.8,8.3,11.3,6.4c0,0-3.6,5.7-9.7,3.4C502.2,290.2,506.7,282.8,506.7,282.8z"/>
<circle class="st13" cx="518" cy="261" r="3"/>
<circle class="st13" cx="534" cy="268" r="3"/>
<path class="st14" d="M510.1,246.5c0,0,13.3,0.6,15.1,1.9s0.5,3.1-4.4,2.3c-4.9-0.8-10.6-1.1-12.8-1.3S510.1,246.5,510.1,246.5z"/>
<path class="st14" d="M533,255c0,0,0-4,2-3s7.8,7.5,6.4,9.3C540,263,537,259,536,258S533,255,533,255z"/>
<path class="st4" d="M525,266c0,0,3,12,2,13s-9,3-10,2s7-2,7-3S523,266,525,266z"/>
<path class="st4" d="M475,262c0,0-0.7,24,16.1,38l-3,7.8c0,0-16.1-9.8-17.1-25.8S475,262,475,262z"/>
<path class="st4" d="M637.2,345.9c0,0-7.2,2.1,0.8,5.1c1.6,0.6-3.2-0.2-6,1c-2.2,0.9-2.8,3.7-1,5c4,3-4,2-4,5s9.2,4.5,9.2,4.5
	S628,368,628,370s3.2,5.7,12.1,5.9c2.9,0.1,2.6,0,2.6,0l12.4-28.7l-11.2,1.7l-1.9-1L637.2,345.9z"/>
<path class="st5" d="M664.1,341.4c10.1,1.4,7.1,19,1.2,30.4c-1.5,2.9-4.6,4.7-7.9,4.5c-34.6-1.4-35.3-9.8-5-8.2
	c-33.4-5-26.7-11.7,1.7-8.3c-31.7-1.7-25-10,6.7-8.3C619.5,346.4,640.9,341.4,664.1,341.4z"/>
<path class="st5" d="M138,297c1.1-4,8.2-5,11.2-5s7,3.1,3.9,5c-3,2-10.1,3-10.1,3s8.5-0.6,11.8-0.3c3.3,0.4,5.3,2.4,4.2,4.4
	c-1,2-13,1.9-13,1.9s12,0.1,14,2.1c2,2,0,4.9-12,3.9c0,0,12,1,13.9,5.2c0.6,1.3-2.8,1.8-8.9,1.8s-7-1-8-3S138,297,138,297z"/>
<path class="st4" d="M394.5,827.8c0,0,1.4,13.7,2,16.9C397,848,429,835,436,838s7,3,7,3l2.3-3.4c0,0-3.3-5.6-10.3-8.6
	S394.5,827.8,394.5,827.8z"/>
</svg>
