<svg enable-background="new 0 0 1000 1000" viewBox="0 0 1000 1000" xmlns="http://www.w3.org/2000/svg"><path d="m795 667c27-13 71.8-8.7 78-9 56.5-3 89.7 35.4 101 109 12 78 25.9 142.8-25 180-67 49-145 4-172-14-35.5-23.7-43-124.9-43-160 0-41 42.3-97 61-106z" fill="#e7f2f1"/><path d="m64 255.2c-44.9-50.8 4-168.3 88-205.4s143.9 34 228 32.8c106-1.6 183-127.9 317-55.8s207.3 222.5 249 286.3c30 45.9 89 344.2-92 311.4s-154.8 192.3-156 221.8c-3 73.7-48 121.3-83 133.3s-273.4 68.4-338-122.6c-45-133-75-172-172-199-62-17.3-131.5-217.1-26-278 90-52 13-93.1-15-124.8z" fill="#e7f2f1"/><circle cx="504.1" cy="495.2" fill="#00a0a3" r="251.3"/><path d="m709 493c4-111-66.1-249.2-204.9-249.2s-251.3 112.5-251.3 251.3 97 233.1 235.2 220.8c135-11.9 217-111.9 221-222.9z" fill="#9ee5e0" opacity=".2"/><path d="m492 305.1c21.8 21.8 8.2 70.7-30.5 109.3-38.6 38.6-87.6 52.2-109.4 30.5-21.8-21.8-8.1-70.7 30.5-109.3s87.6-52.3 109.4-30.5z" fill="#fff" opacity=".2"/><path d="m345.9 472.6c-1-.1-1.7.7-2 1.5-.6 1.7-1.3 3.4-1.9 5.1v.1c-.9 2-2.3 3.4-4.2 4.5-1.2.6-1.4 2.3-.4 3.3 3 3 8.2 3 11.1-.3.7-.8.9-1.8 1.4-2.7 1.1-2.1 1.8-2.3 4-2.2 2.5.2 4.7.3 6.9-1.1 1.3-.9 1.4-2.8 0-3.6-4.7-2.7-9.6-4.2-14.9-4.6z" fill="#037777"/><path d="m257.7 445.1c1.9-2.1 4.1-3.9 6.6-5.3 7.3-4.1 15.7-3.2 23.8-3.9 4.8-.5 8.7-2.6 13.2-3.5 5.8-1.2 6.9.4 9.1 5.1 1.8 4 3.7 7.9 5.5 11.9.8 1.8 3.2 1 3.8-.5 2.3-6-1-11.4.5-17.5 2.5-10.5 13-13.4 21.8-17 3-1.2 6.2-2 7.9-5 1.5-2.5.6-6.2 2-8.7 1.9-3.5 5.8-6.3 8.8-9 6-5.4 11.9-11.9 18.5-16.5 4.2-3 5.3-5.5 12.6-4.7 1.8.2 3.5 1.3 5.3 1.5 8.6 1.1 16.4-3.7 20.2-11.1.7-1.3-.1-3.2-1.8-3.1-2.4.1-4.4.3-6.5 1.5-3.7 2.2-3.1 6.6-5.7 2.3-2.4-4.1-1.3-8.4-3.2-11.9 2.8-.5 5.6-1.1 8.4-1.5 3.5-.5 18.9-4.9 14 6-.8 1.7.5 3.4 2.3 3.1 7.1-1.2 14.1-2.5 21.2-3.7 2.2-.4 1.8-3.4 0-4-10.6-3.4-9.9-13.7-7.9-22.5.2-1.1-.3-2.3-1.5-2.6-8-2-6-9.2-6.7-16.2-.2-1.9-2.1-2.6-3.5-1.5-3.6 2.9-7.3 3.8-11.2 2.7 1.1-9.9-10.3-13.9-19.1-12.5-3.7.5-4.8 1.2-7 4.1-.8 3.1-2.4 5.8-4.8 8.2-1.4.6-2.7 1.3-4 2-.8.6-1.8 1.2-2.4 2-1.9 2.5-.1 2.8-1.7 5.5-5.3 9.2-3.7 1.7-7.8 6.6 0 .1-5 6.6-3.5 5.7-4.8 2.8-7.2-1.3-10.3-4-1-.8-3.1-.8-3.7-1.5-2-2.2-1-4.1-2.4-5.8-2.9-3.7-7.1-3.5-11.1-6.1-1.2-.7-2.4-2-3.6-3.2-38.2 35.1-65.4 81.9-76.1 134.6z" fill="#037777"/><path d="m368.1 325.5c.1-.1.1-.1 0 0z" fill="#037777"/><path d="m380 292.2c1.1 1.1 3.1.6 3.5-.9.4-1.3.7-2.6 1.1-3.8.4-1.4-.7-2.6-2-2.6-.8 0 4-4.2 4.6-4.5 1.2-.6 2.6-.6 3.8-1.3 2.4-1.3 3.4-3.2 5.2-5.1 2.9-3.1 12.2-9.8 17.2-7 7 3.9-3.6 15.6-7 17.5-1.1.7-1.4 2.3-.4 3.3 4 3.8 8 7.5 12 11.3.5.5 1.3.8 2 .5 2.5-1 3.7-2.8 6-4 2.6-1.3 5.3-.6 7.9-2.3 1.6-1 3.1-3 3.6-4.8.2-.8-.5-6-.5-5.9 2.5-4.2 11.5 1.5 12.1-5.8.1-1.5-.6-2.5-1.4-3.5-1.5-1.8-6.6-4-8.2-5.4-1.8-1.6-3.4-3.5-5-5.3-2.6-2.8-5.3-4.9-8-6.5-25.3 8.2-48.8 20.3-69.8 35.6 8.2-3.9 17.1-5.6 23.3.5z" fill="#037777"/><path d="m414.2 729.9c2.6-5.1 2.9-11.2.3-16.6 4.4-.1 8.5-1.8 11.5-5.6 2.7-3.4 3.1-8 4.8-11.9 1.6-3.9 4.4-5.4 6.1-9 2-4.3.3-9.4 1.5-13.8 1.9-6.9 7.3-8.5 13.1-11.3 7.4-3.6 12.4-8.1 14.9-16.2 3.6-12.1 2.8-24.1 9.6-35.4 3.4-5.6 11.6-11 9.3-18.5-5.1-16.8-30-21.4-45.2-18.8-.6-3.1-1.6-6.5-4.1-8.5-4.8-3.8-11.6-.7-14-9-2.3-8.3-.1-16.8-10.6-19.5-7.6-2-13.5-.6-20-6.9-3.7-3.5-6.1-7.9-10.6-10.6-10.8-6.7-25-3.5-35.3-11.4-1-.8-2.5-.8-3.3.4-6 10.1-9.4 1.8-14.8 5.4-5.2 3.5-1.8 9.5-13.4 7.6-1.5-.4-2.9-.9-4.3-1.4-6.6-.9-9.3-4.3-8-10.2-.5-8.9 1-3.4 1.4-9 .2-2.6.5-4.2-1.5-6.2-1.6-1.7-4.2-1.6-6.3-1.9-2.9-.4-7.6.2-10.3-1.4-6.9-4.1-2.6-4.1-.1-7.4 4-5.3 4.1-11.9-1.3-16.1-1.1-.9-2.4-.8-3.3.4-4.1 5.8-12.8 17.9-20.6 11.9-.9-.7-3.8-3.9-6.2-6.5-.7 7.4-1 15-1 22.6 3.1 1.2 6.1 2.9 9.2 5.1 1.9 1.4 2.9 2.9 5.2 3.8 2.8 1.1 5.2.3 8 .7 3.6-.8 6.1 1 7.6 5.4 0 .9 0 1.9-.1 2.8 1.8 4.7 1.8 6.8 6.2 10.3 4.1 3.3 9.2 5.3 14.4 6 6.4.8 13-2.7 14.2 8.3 0 0-1.4 5.8-1.6 6.3.4 3.2-.3 6.1-2.2 9-1.3.6-2.6 1.1-3.9 1.8-1 .7-2 1.5-2.8 2.4-8.2 9.6-1.7 28.1 2.5 37.8 5.6 13.1 13.2 29.3 24.3 38.8 6.1 5.2 13.6 5.6 16.4 13.9 3.2 9.5 2.6 22.6 2.7 32.6 0 4.6-.7 9.9-1 15.2 19.2 14.3 40.1 26 62.6 34.6z" fill="#037777"/><path d="m681.3 316.9c-10.5-10.4-21.9-20-34.1-28.4-1.2.5-2.5 1.2-3.6 2.3-2.6 2.4-9.1 10.1-8 14.2 1.2 4.4 9.3 6.8 13.2 6.9h.2c1.6 7.4 2.3 21.8-9 18.7-.9-.2-1.9.2-2.3 1-2.8 4.9-6.3 9-10.3 12.4-.1-1.4-.3-2.8-.6-4.2.4-4.9-.7-7.8-4.7-11.3-2.2-2-4.3-3.6-5.2-6.5-.5-1.7-.4-3.7-.7-5.4-.4-2.1-.8-3.8-2.1-5.5-.5-.6-1.3-.6-2-.5-3 .5-4.9 2.8-6.9 5-1.7 1.8-3.1 4.1-5.4 5.3-2.1 1.1-4.7.7-6.8 1.7-6 2.5-6.5 9.4-6.3 15.1 0 1.1.9 2.1 2.1 2.1 3.4 0 6.4-.8 8.9-3.1 1.4-1.2 2.4-4.8 3.4-7.5.2.2.5.5.8.7 2.2 1.7 5 1.2 7.6 1-3.5 4.2-8.1 10.2-6.9 13.9.6 1.8 2.1 2.1 3.7 2.3 5.9.9 10.1-1.4 15.7.6-4.9 2.9-10.4 4.8-16.4 5.6-2 .3-1.7 2.9-.5 3.8 5.3 10.8 5 15.8-.9 15-1.3-.1-2.6-.2-3.9-.2-2 .1-3 .8-4.8.9-3.2.3-4.8-.2-8.7-1.7-1-.4-2.4.4-2.6 1.5-1.4 8.2-.4 15.4 1.9 23.4.7 2.5 1.4 6 3 8.2 2.2 2.9 7.2 3.2 9.8 6.5.9 1.2 3.2.6 3.5-.9.4-2.3 9-4.8 10.8-7.5 1.2-1.7 1.3-4.4 2.5-6.3 1.8-2.9 4-4.3 6.7-6.3 2.5-1.8 4.6-3.5 6.8-5.6.6-.6 1.1-1.8 1.6-2.3.5-1.3 1.6-2.1 3.1-2.5 1.4-1.7 3-1.9 4.7-.8 1.8-.3 3.5-.6 5.2-1 4.5-1 1.4-2.3 8-1.1 4.7.8 6.1 2 9.1 5.4 5.4 6.1 9.5 12.7 10.5 20.9.3 2.6 4.3 2.7 4.2 0-.2-5.5 1.6-10.4 5.4-14.4 1.2-1.2.4-3.6-1.5-3.5-7.4.4-15.6-8.8-16-16.1 2.1.5 4.2 1 6.2 1.9 4.3 1.9 6.1 5.5 9 8.8 1.2 1.3 3.9 3 4.9 4.3 2.2 2.9 2.6 6.8 4.4 9.9 2.9 4.9 7.5 9.5 11.1 13.9 1 1.3 3.1.5 3.5-.9 1-3.3.6-8.2 1.8-11.2 3-7.6 10.6 4.4 13.6 7 6.6 5.5 12.7.8 20.1 1.5.1.2.3.5.4.7-11.4-29.4-28.2-56.1-49.2-78.9-.8-.1-1.6-.3-2.4-.3-2.8-.2-5.5 0-8.2.7-4.5 1.1 10.5 3.5-8.8 3.9-6.2.1-8.6-2-9.7-4.9 3.8.4 8.7-4.1 11.7-4.7 3-1.1 7.6-.5 9.4-3.5z" fill="#037777"/><path d="m755.4 495.2c0-24.1-3.4-47.3-9.7-69.3-1.8.1-3.7.4-5.5.9-1.7.5-3.9 1.7-5.7 2.2-5.2 1.3-9.7.3-14.7-1.3-7.5-2.3-15.4-7.8-23.2-5.3-1.1.4-1.6.7-1.7 1.1-.4-.2-.8-.4-1.3-.7-1.2-.9-3.3.3-3.1 1.8.2 2-1 3.6-3.1 3.6-.2 0-.4.1-.6.1-.6 0-1.1 0-1.8 0-1.6 0-4.2-1.2-5.6-1.6-4.1-1.2-9.3-1.3-13.2-2.8-3.4-1.3-6.7-5.2-8-9-.4-1.3.1-4.8-.2-6.3-.5-2.2-1.2-4.6-3.1-6.1-2.2-1.7-3.7-1.8-6.4-1.6-2.8.2-5.6 1.7-8.4 1.9-3.3.2-6.7-1-10-.6-3.1.3-4.9 1.3-7.4 2.9-7.3 4.6-10.7 7.8-19.2 6.5-5.4-.8-9-2-13.6 2.3-1.9 1.7-2.5 3.8-3.5 6-1.8 3.8-4.3 5.3-7.5 8-6.9 6-10.9 13.3-14.1 21.7-2.3 5.9-5.1 8.9-9.2 13.6-2 2.3-3.3 4-3.7 7.1-.8 4.7 1.4 9.8 1.2 14.5-.1 4.1-1.4 7.8-1.2 11.9.7 9.8 6.9 18.7 12.9 26.1 5.7 6.9 13.1 14.6 21.2 18.6 2.8 1.4 4.3 1.1 7.3 1.1 8.1-.1 5.5-1 11.7 1.1 1.1.4 2.1 1.1 3.3 1.1 2.6-.1 3.4-1.3 5.7-2.2 6.3-2.6-5.5-13.1 15.6.7 1 .7 1.5 2.3 2.7 2.8 2.1.8 3.8.6 5.8 1.2 3.6 1 12.7-8.7 9.2 8.2-.3 1.6-2.3 2.8-2.8 4.5-2.2 7.6 7.1 14.3 10.2 20.9 2.9 6.1 5 12.6 6.9 19.1 2.6 8.9 1 14.1-3.8 21.9-5.5 9.1-.7 13.9 3.5 22.9 5.6 11.7 8.6 24.4 11.2 37.1 50.9-46 82.9-112.6 82.9-186.6z" fill="#037777"/><path d="m326.9 466.1c-3.9-.9-4.4-5.5-8-6.6-1.6-.5-3-.2-4.5.2-2.9.6-5.8 1-8.6 1.5-2.9.6-4.8 1.4-6.4 3.9-1.4 2.2 1.9 4.1 3.4 2.3.4.4 1.1.6 1.8.5 4.7-.9 5.8-.1 9.3 3.3 1.5 1.4 2.7 2.8 4.3 4.1 2.5 2 6.2 6.4 9.6 6.6 6 .4 10.1-9 6.8-13.5-2.4-3.1-4.5-1.5-7.7-2.3z" fill="#037777"/><path d="m588.2 285.9c.6-.9.2-2.4-.7-2.8-5.2-2.5-10.3-3.6-16.1-3.3-.4 0-.7.1-.9.3-4.2-.1-8.5.1-12.6.7-3.2.5-5.3 1.4-6.5 4.5-.4 1.1.5 2.2 1.5 2.6 6.6 2.2 8.2 6.1 11.9 11.2.7 1 2.3 1.6 3.3.4 5.3-6.7 15.3-6.2 20.1-13.6z" fill="#037777"/><path d="m524.7 284.6c6.6-1.7 11-6.8 17.4-8.4 5.7-1.5 11-1.7 16.4-4.5 7.2-3.8 12.7-9.9 21.2-10.8 1.1-.1 2.1-.9 2.1-2.1 0-1-.1-2-.3-2.9-24.4-7.9-50.4-12.1-77.4-12.1-12.3 0-24.4.9-36.2 2.6.1.1.1.1.2.2s.2.1.3.2c.4.8 1.2 1.5 2.3 1.3 11.8-2 10.4 13.3 7 18.5-2.1 3.4-5.2 6.2-8 9-.9.9-.8 2.7.4 3.3 8.4 3.8 2.2 16.2 5.5 22.8 1.4 2.7 3.8 4.8 6.5 6.1 11.5 5.6 14.7-3.4 20.6-11.1 6.4-8.3 12.8-9.7 22-12.1z" fill="#037777"/><path d="m565.7 385.3c-19.4 0-35.2 15.8-35.2 35.2 0 27.7 35.2 52.8 35.2 52.8s35.2-25.6 35.2-52.8c-.1-19.5-15.8-35.2-35.2-35.2zm0 52.8c-9.7 0-17.6-7.9-17.6-17.6s7.9-17.6 17.6-17.6 17.6 7.9 17.6 17.6-7.9 17.6-17.6 17.6z" fill="#ff8602"/><path d="m695.1 529.1c-19.4 0-35.2 15.8-35.2 35.2 0 27.7 35.2 52.8 35.2 52.8s35.2-25.6 35.2-52.8c-.1-19.5-15.8-35.2-35.2-35.2zm0 52.8c-9.7 0-17.6-7.9-17.6-17.6s7.9-17.6 17.6-17.6 17.6 7.9 17.6 17.6-7.9 17.6-17.6 17.6z" fill="#ff8602"/><path d="m610 248.8c-19.4 0-35.2 15.8-35.2 35.2 0 27.7 35.2 52.8 35.2 52.8s35.2-25.6 35.2-52.8c0-19.5-15.7-35.2-35.2-35.2zm0 52.8c-9.7 0-17.6-7.9-17.6-17.6s7.9-17.6 17.6-17.6 17.6 7.9 17.6 17.6-7.8 17.6-17.6 17.6z" fill="#ff8602"/><path d="m697 262.2c-19.4 0-35.2 15.8-35.2 35.2 0 27.7 35.2 52.8 35.2 52.8s35.2-25.6 35.2-52.8c0-19.5-15.7-35.2-35.2-35.2zm0 52.8c-9.7 0-17.6-7.9-17.6-17.6s7.9-17.6 17.6-17.6 17.6 7.9 17.6 17.6c.1 9.7-7.8 17.6-17.6 17.6z" fill="#ff8602"/><path d="m308.8 343.2c-19.4 0-35.2 15.8-35.2 35.2 0 27.7 35.2 52.8 35.2 52.8s35.2-25.6 35.2-52.8c0-19.5-15.7-35.2-35.2-35.2zm0 52.8c-9.7 0-17.6-7.9-17.6-17.6s7.9-17.6 17.6-17.6 17.6 7.9 17.6 17.6-7.8 17.6-17.6 17.6z" fill="#ff8602"/><path d="m342.8 538.6c-19.4 0-35.2 15.8-35.2 35.2 0 27.7 35.2 52.8 35.2 52.8s35.2-25.6 35.2-52.8c0-19.5-15.8-35.2-35.2-35.2zm0 52.8c-9.7 0-17.6-7.9-17.6-17.6s7.9-17.6 17.6-17.6 17.6 7.9 17.6 17.6-7.9 17.6-17.6 17.6z" fill="#ff8602"/><path d="m422.9 576.5c-19.4 0-35.2 15.8-35.2 35.2 0 27.7 35.2 52.8 35.2 52.8s35.2-25.6 35.2-52.8c0-19.4-15.8-35.2-35.2-35.2zm0 52.8c-9.7 0-17.6-7.9-17.6-17.6s7.9-17.6 17.6-17.6 17.6 7.9 17.6 17.6-7.9 17.6-17.6 17.6z" fill="#ff8602"/><path d="m418.2 177.4c-19.4 0-35.2 15.8-35.2 35.2 0 27.7 35.2 52.8 35.2 52.8s35.2-25.6 35.2-52.8c0-19.5-15.8-35.2-35.2-35.2zm0 52.8c-9.7 0-17.6-7.9-17.6-17.6s7.9-17.6 17.6-17.6 17.6 7.9 17.6 17.6-7.9 17.6-17.6 17.6z" fill="#ff8602"/><path d="m340 630-1.9 1.6" fill="none" stroke="#ff8602" stroke-miterlimit="10" stroke-width="2"/><path d="m332.9 636.1-122.2 105.6" fill="none" stroke="#ff8602" stroke-dasharray="4.9082 6.8715" stroke-miterlimit="10" stroke-width="2"/><path d="m208.1 743.9-1.9 1.7" fill="none" stroke="#ff8602" stroke-miterlimit="10" stroke-width="2"/><ellipse cx="128.7" cy="814.9" fill="none" rx="99.2" ry="99.2" stroke="#ff8602" stroke-dasharray="4.9928 6.9899" stroke-miterlimit="10" stroke-width="2" transform="matrix(.7071 -.7071 .7071 .7071 -538.5454 329.6711)"/><ellipse cx="128.7" cy="814.9" fill="#d7dddd" opacity=".8" rx="88" ry="88" transform="matrix(.1926 -.9813 .9813 .1926 -695.7668 784.2006)"/><path d="m702.6 617.4 1.5 2" fill="none" stroke="#ff8602" stroke-miterlimit="10" stroke-width="2"/><path d="m708.3 624.8 76.6 100.4" fill="none" stroke="#ff8602" stroke-dasharray="4.9144 6.8801" stroke-miterlimit="10" stroke-width="2"/><path d="m787 727.9 1.5 2" fill="none" stroke="#ff8602" stroke-miterlimit="10" stroke-width="2"/><ellipse cx="854.4" cy="809.2" fill="none" rx="99.2" ry="99.2" stroke="#ff8602" stroke-dasharray="4.9928 6.9899" stroke-miterlimit="10" stroke-width="2" transform="matrix(.7071 -.7071 .7071 .7071 -321.9203 841.1299)"/><circle cx="854.4" cy="809.2" fill="#d7dddd" opacity=".8" r="88"/><path d="m579 470.8 2.5-.2" fill="none" stroke="#ff8602" stroke-miterlimit="10" stroke-width="2"/><path d="m588.4 470.3 197.6-8.6" fill="none" stroke="#ff8602" stroke-dasharray="4.9324 6.9054" stroke-miterlimit="10" stroke-width="2"/><path d="m789.4 461.5 2.5-.1" fill="none" stroke="#ff8602" stroke-miterlimit="10" stroke-width="2"/><ellipse cx="890.8" cy="467.3" fill="none" rx="99.2" ry="99.2" stroke="#ff8602" stroke-dasharray="4.9928 6.9899" stroke-miterlimit="10" stroke-width="2" transform="matrix(.7071 -.7071 .7071 .7071 -69.5425 766.7969)"/><path d="m890.8 555.4c-48.5 0-88-39.5-88-88s39.5-88 88-88 88 39.5 88 88-39.4 88-88 88z" fill="#d7dddd" opacity=".8"/><path d="m722 300 1.9-1.6" fill="none" stroke="#ff8602" stroke-miterlimit="10" stroke-width="2"/><path d="m729.3 294 80.8-66.3" fill="none" stroke="#ff8602" stroke-dasharray="4.9966 6.9953" stroke-miterlimit="10" stroke-width="2"/><path d="m812.8 225.5 1.9-1.6" fill="none" stroke="#ff8602" stroke-miterlimit="10" stroke-width="2"/><ellipse cx="880.2" cy="151.2" fill="none" rx="99.2" ry="99.2" stroke="#ff8602" stroke-dasharray="4.9928 6.9899" stroke-miterlimit="10" stroke-width="2" transform="matrix(.7071 -.7071 .7071 .7071 150.883 666.7097)"/><ellipse cx="880.2" cy="151.2" fill="#d7dddd" opacity=".8" rx="88" ry="88" transform="matrix(.9993 -.03861443 .03861443 .9993 -5.1829 34.1024)"/><path d="m424 669 .3 2.5" fill="none" stroke="#ff8602" stroke-miterlimit="10" stroke-width="2"/><path d="m425 678.4 8.1 80" fill="none" stroke="#ff8602" stroke-dasharray="4.9938 6.9913" stroke-miterlimit="10" stroke-width="2"/><path d="m433.5 761.9.2 2.5" fill="none" stroke="#ff8602" stroke-miterlimit="10" stroke-width="2"/><ellipse cx="458.6" cy="859.1" fill="none" rx="99.2" ry="99.2" stroke="#ff8602" stroke-dasharray="4.9928 6.9899" stroke-miterlimit="10" stroke-width="2" transform="matrix(.7071 -.7071 .7071 .7071 -473.1118 575.9078)"/><ellipse cx="458.6" cy="859.1" fill="#d7dddd" opacity=".8" rx="88" ry="88" transform="matrix(.5145 -.8575 .8575 .5145 -513.9645 810.3369)"/><path d="m200 454 2.5-.6" fill="none" stroke="#ff8602" stroke-miterlimit="10" stroke-width="2"/><path d="m208.9 452 85.4-19.4" fill="none" stroke="#ff8602" stroke-dasharray="4.7333 6.6266" stroke-miterlimit="10" stroke-width="2"/><path d="m297.6 431.9 2.4-.6" fill="none" stroke="#ff8602" stroke-miterlimit="10" stroke-width="2"/><circle cx="109.2" cy="494" fill="none" r="99.2" stroke="#ff8602" stroke-dasharray="4.9928 6.9899" stroke-miterlimit="10" stroke-width="2"/><ellipse cx="109.2" cy="494" fill="#d7dddd" opacity=".8" rx="88" ry="88" transform="matrix(.7071 -.7071 .7071 .7071 -317.3238 221.8754)"/><path d="m412 270-2.3-1" fill="none" stroke="#ff8602" stroke-miterlimit="10" stroke-width="2"/><path d="m403.2 266.3-130.8-55.6" fill="none" stroke="#ff8602" stroke-dasharray="5.0572 7.0801" stroke-miterlimit="10" stroke-width="2"/><path d="m269.1 209.4-2.3-1" fill="none" stroke="#ff8602" stroke-miterlimit="10" stroke-width="2"/><ellipse cx="178.8" cy="162.6" fill="none" rx="99.2" ry="99.2" stroke="#ff8602" stroke-dasharray="4.9928 6.9899" stroke-miterlimit="10" stroke-width="2" transform="matrix(.7071 -.7071 .7071 .7071 -62.634 174.0855)"/><ellipse cx="178.8" cy="162.6" fill="#d7dddd" opacity=".8" rx="88" ry="88" transform="matrix(.7071 -.7071 .7071 .7071 -62.634 174.0853)"/><path d="m599.7 270.6-.9-2.3" fill="none" stroke="#ff8602" stroke-miterlimit="10" stroke-width="2"/><path d="m596.1 260.9-8.2-21.6" fill="none" stroke="#ff8602" stroke-dasharray="5.6325 7.8855" stroke-miterlimit="10" stroke-width="2"/><path d="m586.5 235.6-.9-2.3" fill="none" stroke="#ff8602" stroke-miterlimit="10" stroke-width="2"/><ellipse cx="543.9" cy="141.5" fill="none" rx="99.2" ry="99.2" stroke="#ff8602" stroke-dasharray="4.9928 6.9899" stroke-miterlimit="10" stroke-width="2" transform="matrix(.9277 -.3734 .3734 .9277 -13.513 213.3089)"/><path d="m565.3 226.9c-47.1 11.8-95-16.8-106.8-63.9s16.8-95 63.9-106.8 95 16.8 106.8 63.9-16.8 95-63.9 106.8z" fill="#d7dddd" opacity=".8"/><path d="m87.9 517.8c-.6-.6-.6-1.6 0-2.2l6.9-7c.6-.6 1.6-.6 2.2 0s.6 1.6 0 2.2l-6.9 7c-.7.6-1.6.6-2.2 0z" fill="#484848"/><path d="m94.9 510.7c-15.3-15.3-15.3-40.3 0-55.6s40.3-15.3 55.6 0 15.3 40.3 0 55.6-40.3 15.3-55.6 0z" fill="#666"/><path d="m99.1 510.7c-15.3-15.3-15.3-40.3 0-55.6 7.1-7.1 16.4-11 25.7-11.4-10.7-.6-21.7 3.3-29.9 11.4-15.3 15.3-15.3 40.3 0 55.6 8.2 8.2 19.1 12 29.9 11.4-9.4-.5-18.6-4.3-25.7-11.4z" fill="#484848"/><path d="m122.7 515.3c-17.9 0-32.4-14.5-32.4-32.4s14.5-32.4 32.4-32.4 32.4 14.5 32.4 32.4-14.5 32.4-32.4 32.4z" fill="#fff"/><path d="m94.5 482.9c0-17.2 13.4-31.3 30.3-32.3-.7 0-1.4-.1-2.1-.1-17.9 0-32.4 14.5-32.4 32.4 0 18.6 15.7 33.5 34.5 32.3-16.9-1-30.3-15.1-30.3-32.3z" fill="#efefef"/><path d="m63.7 545.4-3.5-3.5c-1.7-1.7-1.7-4.5 0-6.1l23-23c.9-.9 2.5-.9 3.4 0l6.1 6.1c.9.9.9 2.5 0 3.4l-23.1 23.1c-1.7 1.6-4.3 1.6-5.9 0z" fill="#ff8602"/><path d="m62.8 539.1 23.7-23.7c.5-.5 1.2-.7 1.9-.7l-1.7-1.7c-1-1-2.5-1-3.5 0l-22.8 22.8c-1.7 1.7-1.7 4.6 0 6.3l1.3 1.3c-.4-1.6 0-3.2 1.1-4.3z" fill="#ef7007"/><path d="m77.2 518.5h6.2v13.4h-6.2z" fill="#ef7007" transform="matrix(.7071 -.7071 .7071 .7071 -347.8133 210.6284)"/><path d="m110.3 513v-33.9h-10.3c-.9 0-1.7.7-1.7 1.7v23.6c3.3 3.7 7.4 6.7 12 8.6z" fill="#576574"/><path d="m122.3 515.4v-48.1h-6s-2.6 0-4.3 0c-.9 0-1.7.7-1.7 1.7v44c3.7 1.5 7.8 2.4 12 2.4z" fill="#02c6c6"/><path d="m134.3 513.3v-44.5-13.3h-6-4.3c-.9 0-1.7.7-1.7 1.7v11.6 46.6c4.2.1 8.2-.7 12-2.1z" fill="#feca57"/><path d="m146.3 505.2v-59.8c0-.9-.7-1.6-1.6-1.6h-4.4s-2.6 0-4.3 0c-.9 0-1.7.7-1.7 1.7v67.8c4.6-1.8 8.7-4.6 12-8.1z" fill="#ff8602"/><path d="m102.5 480.5c0-.6.3-1.2.9-1.5h-3.4c-.9 0-1.7.7-1.7 1.7v23.6c1.3 1.4 2.6 2.8 4.1 4v-27.8z" fill="#3e4b5a"/><path d="m114.5 468.6c0-.5.2-1 .6-1.3-.9 0-2.1 0-3 0s-1.7.7-1.7 1.7v44c1.3.6 2.7 1 4.1 1.4z" fill="#00a0a3"/><path d="m126.4 468.8v-12c0-.5.2-1 .6-1.3h-3c-.9 0-1.7.7-1.7 1.7v11.6 46.6c1.4 0 2.7 0 4.1-.2z" fill="#f4b537"/><path d="m138.4 445c0-.5.2-1 .6-1.3-.9 0-2.1 0-3 0s-1.7.7-1.7 1.7v67.8c1.4-.6 2.8-1.2 4.1-1.9z" fill="#ef7007"/><path d="m922.4 508.1-27.1-72.9c-.2-.6-.8-1-1.4-1h-6.1c-.6 0-1.2.4-1.4 1l-27.1 72.9c-.2.5-.1 1 .2 1.4s.7.6 1.2.6h60.3c.5 0 1-.2 1.2-.6.3-.4.4-.9.2-1.4zm-17.2-22.3-14.4 6.8-14.4-6.8zm-31.3-3 17-14.4 16.9 14.4zm19.3-16.4 8-6.8 7.4 19.8zm-2.4-2-6.8-5.8h13.7zm-8.1-8.9 8.1-12.4 8.1 12.4zm-2.2 4.1 7.9 6.8-15.3 13zm-9.9 26.8 16.7 7.9-23.9 11.4zm20.2 9.6 23.4 11.1h-46.9zm3.6-1.7 16.7-8 7.2 19.3zm1.3-49.3-3-4.6.8-1.3zm-4.9-7.4-.2-.3h.4zm-2.6 1.5.8 1.3-3 4.6z" fill="#02c6c6"/><path d="m927.5 511.7v4.2c0 .8-.7 1.5-1.5 1.5h-70.4c-.8 0-1.5-.7-1.5-1.5v-4.2c0-2.5 2-4.6 4.6-4.6h64.3c2.5 0 4.5 2.1 4.5 4.6z" fill="#666"/><path d="m927.5 511.7v4.2c0 .8-.7 1.5-1.5 1.5h-8c.8 0 1.5-.7 1.5-1.5v-4.2c0-2.5-2-4.6-4.6-4.6h8.1c2.5 0 4.5 2.1 4.5 4.6z" fill="#484848"/><path d="m898.5 430.2c0 4.3-3.5 7.7-7.7 7.7-.9 0-1.7-.1-2.5-.4-3-1-5.2-3.9-5.2-7.3s2.2-6.2 5.2-7.3c.8-.3 1.6-.4 2.5-.4 4.3 0 7.7 3.5 7.7 7.7z" fill="#666"/><path d="m898.5 430.2c0 4.3-3.5 7.7-7.7 7.7-.9 0-1.7-.1-2.5-.4 3-1 5.2-3.9 5.2-7.3s-2.2-6.2-5.2-7.3c.8-.3 1.6-.4 2.5-.4 4.3 0 7.7 3.5 7.7 7.7z" fill="#484848"/><path d="m872.7 422.5c.6-.6.7-1.5.1-2.1s-1.5-.7-2.1-.1c-2.8 2.6-4.4 6.2-4.4 9.9 0 3.8 1.6 7.4 4.4 9.9.3.3.7.4 1 .4.4 0 .8-.2 1.1-.5.6-.6.5-1.6-.1-2.1-2.2-2-3.4-4.8-3.4-7.7.1-2.9 1.3-5.7 3.4-7.7z" fill="#fff"/><path d="m878.5 428.4c.7-.5.8-1.5.3-2.1-.5-.7-1.5-.8-2.1-.3-1.3 1-2.1 2.5-2.1 4.2s.8 3.2 2.1 4.2c.3.2.6.3.9.3.5 0 .9-.2 1.2-.6.5-.7.4-1.6-.3-2.1-.6-.4-.9-1.1-.9-1.8s.3-1.3.9-1.8z" fill="#fff"/><path d="m867 443.7c-3.7-3.6-5.8-8.3-5.8-13.5s2.1-10 5.8-13.5c.6-.6.6-1.5.1-2.1-.6-.6-1.5-.6-2.1-.1-4.3 4.1-6.7 9.7-6.7 15.7s2.4 11.6 6.7 15.7c.3.3.7.4 1 .4.4 0 .8-.2 1.1-.5.5-.6.5-1.5-.1-2.1z" fill="#fff"/><path d="m911 420.3c-.6-.6-1.6-.5-2.1.1-.6.6-.5 1.6.1 2.1 2.2 2 3.4 4.8 3.4 7.7s-1.2 5.7-3.4 7.7c-.6.6-.7 1.5-.1 2.1.3.3.7.5 1.1.5s.7-.1 1-.4c2.8-2.6 4.4-6.2 4.4-9.9-.1-3.8-1.7-7.4-4.4-9.9z" fill="#fff"/><path d="m905 426c-.7-.5-1.6-.4-2.1.3s-.4 1.6.3 2.1c.6.4.9 1.1.9 1.8s-.3 1.3-.9 1.8c-.7.5-.8 1.5-.3 2.1.3.4.7.6 1.2.6.3 0 .6-.1.9-.3 1.3-1 2.1-2.5 2.1-4.2 0-1.6-.8-3.2-2.1-4.2z" fill="#fff"/><path d="m916.8 414.5c-.6-.6-1.6-.6-2.1.1-.6.6-.6 1.6.1 2.1 3.7 3.6 5.8 8.3 5.8 13.5s-2.1 10-5.8 13.5c-.6.6-.6 1.5-.1 2.1.3.3.7.5 1.1.5s.7-.1 1-.4c4.3-4.1 6.7-9.7 6.7-15.7s-2.4-11.6-6.7-15.7z" fill="#fff"/><path d="m867.6 121 6 26.9h17.9l-14.9-26.9z" fill="#02c6c6"/><path d="m949.4 164-1.1-1.1-8.1-8.1c-6.3-6.3-14.9-9.9-23.8-9.9h-96.5l17.9 17.9.7.7c7.2 7.2 16.9 11.2 27 11.2h79.4c3.5 0 6.3-2.8 6.3-6.3 0-1.6-.6-3.2-1.8-4.4z" fill="#ffb81f"/><path d="m940.1 154.7c-6.3-6.3-14.9-9.9-23.8-9.9h-96.5l17.9 17.9 110.5.1z" fill="#fff"/><path d="m834.8 115h-14.9v29.9h23.9z" fill="#02c6c6"/><path d="m852.7 153.8h6v6h-6z" fill="#666"/><path d="m864.6 153.8h6v6h-6z" fill="#666"/><path d="m876.6 153.8h6v6h-6z" fill="#666"/><path d="m888.5 153.8h6v6h-6z" fill="#666"/><path d="m942.2 156.8-2.1-2.1c-.3-.3-.7-.6-1-.9h-26.7v6h29.8z" fill="#666"/><path d="m873.6 168.8-11.9 26.9 9 3 20.9-29.9z" fill="#02c6c6"/><path d="m900.5 153.8h6v6h-6z" fill="#666"/><path d="m825.8 124c0-3.1.6-6.1 1.8-9h-7.7v29.9h18.3c-7.7-4.2-12.4-12.2-12.4-20.9z" fill="#00a0a3"/><path d="m141.6 117.6h63.6c3.9 0 7 3.1 7 7v79.5c0 3.9-3.1 7-7 7h-63.6c-3.9 0-7-3.1-7-7v-79.5c0-3.8 3.1-7 7-7z" fill="#484848"/><path d="m141.6 200.6v-72.5c0-1.9 1.6-3.5 3.5-3.4h56.4c1.9 0 3.5 1.5 3.5 3.4v72.4c0 1.9-1.6 3.5-3.5 3.4h-56.4c-1.9.2-3.5-1.4-3.5-3.3z" fill="#fff"/><path d="m189.1 112.4h-10.2c-1.4-3.1-5.1-4.4-8.2-2.9-1.3.6-2.3 1.6-2.9 2.9h-10.2c-2 0-3.6 1.6-3.6 3.6v10.4c0 2 1.6 3.6 3.6 3.6h31.6c2 0 3.6-1.6 3.6-3.6v-10.4c0-2-1.7-3.6-3.7-3.6z" fill="#00a0a3"/><path d="m238.7 174.9c-9.7 2.2-18.2-4.4-21.1-7-.6-.6-1.6-.6-2.2 0-3 2.6-11.5 9.2-21.1 7-.9-.2-1.8.3-2 1.2v.3c-1 14 1.2 31.3 23.6 40.8.4.2.9.2 1.3 0 22.4-9.5 24.6-26.8 23.6-40.8 0-.9-.8-1.6-1.7-1.6-.1.1-.2.1-.4.1z" fill="#cccece" opacity=".5"/><path d="m234.6 168.7c-9.7 2.2-18.2-4.4-21.1-7-.6-.6-1.6-.6-2.2 0-3 2.6-11.5 9.2-21.1 7-.9-.2-1.8.3-2 1.2v.3c-1 14 1.2 31.3 23.6 40.8.4.2.9.2 1.3 0 22.4-9.5 24.6-26.8 23.6-40.8 0-.9-.8-1.6-1.7-1.6-.1 0-.3 0-.4.1z" fill="#00a0a3"/><path d="m207.6 195.4-5.9-5.9c-1.4-1.4-1.4-3.6 0-5s3.6-1.4 5 0l3.5 3.5 9.6-9.1c1.4-1.4 3.7-1.3 5 .1 1.4 1.4 1.3 3.7-.1 5l-12.1 11.5c-1.4 1.2-3.6 1.2-5-.1z" fill="#fff"/><circle cx="173.4" cy="152.9" fill="#f26606" r="15.9"/><path d="m180.4 149.4h-3.5v-3.5c0-1-.8-1.8-1.8-1.8h-3.5c-1 0-1.8.8-1.8 1.8v3.5h-3.5c-1 0-1.8.8-1.8 1.8v3.5c0 1 .8 1.8 1.8 1.8h3.5v3.5c0 1 .8 1.8 1.8 1.8h3.5c1 0 1.8-.8 1.8-1.8v-3.5h3.5c1 0 1.8-.8 1.8-1.8v-3.5c0-1-.8-1.8-1.8-1.8z" fill="#fff"/><path d="m163.7 119.4c-1 0-1.8.8-1.8 1.8s.8 1.8 1.8 1.8h10.6c1 0 1.8-.8 1.8-1.8s-.8-1.8-1.8-1.8z" fill="#037777"/><circle cx="181.3" cy="121.2" fill="#037777" r="1.8"/><path d="m180.4 179.4h-28.2c-1 0-1.8.8-1.8 1.8s.8 1.8 1.8 1.8h28.2c1 0 1.8-.8 1.8-1.8s-.8-1.8-1.8-1.8z" fill="#84d1cf"/><path d="m180.4 188.2h-28.2c-1 0-1.8.8-1.8 1.8s.8 1.8 1.8 1.8h28.2c1 0 1.8-.8 1.8-1.8s-.8-1.8-1.8-1.8z" fill="#84d1cf"/><path d="m854.4 786.8-2.1 23.6h5.2v-25.7z" fill="#008d75"/><path d="m851.2 784.7v25.7h3.2v-23.6z" fill="#02c6c6"/><path d="m854.4 786.8c17.5 0 31.6-14.2 31.6-31.6-17.5-.1-31.6 14.1-31.6 31.6z" fill="#00a0a3"/><path d="m822.7 755.1c0 17.5 14.2 31.6 31.6 31.6.1-17.4-14.1-31.6-31.6-31.6z" fill="#02c6c6"/><path d="m886 848.9-2.1 7.1 2.1 7.2h6.4v-14.3z" fill="#ff7452"/><path d="m879.7 848.9-2.1 7.1 2.1 7.2h6.3v-14.3z" fill="#fb9d46"/><path d="m873.4 844.7-2.1 11.3 2.1 7.2h6.3v-18.5z" fill="#ff7452"/><path d="m867 844.7-2.1 11.3 2.1 7.2h6.4v-18.5z" fill="#fb9d46"/><path d="m860.7 844.7-2.1 11.3 2.1 7.2h6.3v-18.5z" fill="#ff7452"/><path d="m854.4 844.7-2.1 11.3 2.1 7.2h6.3v-18.5z" fill="#fb9d46"/><path d="m848 844.7-2.1 11.3 2.1 7.2h6.4v-18.5z" fill="#fdba4c"/><path d="m841.7 844.7-2.1 11.3 2.1 7.2h6.3v-18.5z" fill="#fb9d46"/><path d="m835.4 844.7-2.1 11.3 2.1 7.2h6.3v-18.5z" fill="#fdba4c"/><path d="m829.1 844.7-2.2 11.3 2.2 7.2h6.3v-18.5z" fill="#fb9d46"/><path d="m822.7 844.7h6.3v18.5h-6.3z" fill="#fdba4c"/><path d="m892.4 820.4-2.2 7.2 2.2 7.1h6.3v-14.3z" fill="#fb9d46"/><path d="m886 816.2-2.1 11.4 2.1 7.1h6.4v-14.3z" fill="#ff7452"/><path d="m879.7 816.2-2.1 11.4 2.1 7.1h6.3v-18.5z" fill="#fb9d46"/><path d="m873.4 816.2-2.1 11.4 2.1 11.3h6.3v-22.7z" fill="#ff7452"/><path d="m867 816.2-2.1 11.4 2.1 11.3h6.4v-22.7z" fill="#fb9d46"/><path d="m860.7 816.2-2.1 11.4 2.1 11.3h6.3v-22.7z" fill="#ff7452"/><path d="m854.4 816.2-2.1 11.4 2.1 11.3h6.3v-22.7z" fill="#fb9d46"/><path d="m848 816.2-2.1 11.4 2.1 11.3h6.4v-22.7z" fill="#fdba4c"/><path d="m841.7 816.2-2.1 11.4 2.1 11.3h6.3v-22.7z" fill="#ffd652"/><path d="m835.4 816.2-2.1 11.4 2.1 11.3h6.3v-22.7z" fill="#fdba4c"/><path d="m829.1 816.2h6.3v22.7h-6.3z" fill="#ffd652"/><path d="m886 806.2-2.1 7.1 2.1 7.1h6.4v-14.2z" fill="#fb9d46"/><path d="m879.7 806.2-2.1 7.1 2.1 7.1h6.3v-14.2z" fill="#fdba4c"/><path d="m873.4 806.2-2.1 7.1 2.1 7.1h6.3v-14.2z" fill="#fb9d46"/><path d="m867 806.2-2.1 7.1 2.1 7.1h6.4v-14.2z" fill="#fdba4c"/><path d="m860.7 806.2-2.1 7.1 2.1 7.1h6.3v-14.2z" fill="#fb9d46"/><path d="m854.4 806.2-2.1 7.1 2.1 7.1h6.3v-14.2z" fill="#fdba4c"/><path d="m848 806.2-2.1 7.1 2.1 7.1h6.4v-14.2z" fill="#ffd652"/><path d="m841.7 806.2-2.1 7.1 2.1 7.1h6.3v-14.2z" fill="#fbe287"/><path d="m835.4 806.2-2.1 7.1 2.1 7.1h6.3v-14.2z" fill="#ffd652"/><path d="m829.1 806.2-2.2 7.1 2.2 7.1h6.3v-14.2z" fill="#fbe287"/><path d="m822.7 806.2h6.3v14.2h-6.3z" fill="#ffd652"/><path d="m873.4 834.7-2.1 7.1 2.1 7.1h6.3v-14.2z" fill="#fb9d46"/><path d="m867 834.7-2.1 7.1 2.1 7.1h6.4v-14.2z" fill="#fdba4c"/><path d="m860.7 834.7-2.1 7.1 2.1 7.1h6.3v-14.2z" fill="#fb9d46"/><path d="m854.4 834.7-2.1 7.1 2.1 7.1h6.3v-14.2z" fill="#fdba4c"/><path d="m848 834.7-2.1 7.1 2.1 7.1h6.4v-14.2z" fill="#ffd652"/><path d="m841.7 834.7-2.1 7.1 2.1 7.1h6.3v-14.2z" fill="#fbe287"/><path d="m835.4 834.7-2.1 7.1 2.1 7.1h6.3v-14.2z" fill="#ffd652"/><path d="m829.1 834.7-2.2 7.1 2.2 7.1h6.3v-14.2z" fill="#fbe287"/><path d="m822.7 834.7-2.1 7.1 2.1 7.1h6.4v-14.2z" fill="#ffd652"/><path d="m816.4 834.7-2.1 7.1 2.1 7.1h6.3v-14.2z" fill="#fbe287"/><path d="m810.1 834.7h6.3v14.2h-6.3z" fill="#ffd652"/><path d="m470.5 807.6h17.6v23.7h-17.6z" fill="#484848"/><path d="m489 868.6c-1.1-1.1-1.1-3 0-4.2l11.1-10.9v-9.3l-10.2-10h-21.1l-10 10v9.3l10.9 10.9c1.1 1.1 1.1 3 0 4.2s-3 1.1-4.2 0l-11.8-11.8c-.6-.6-.9-1.3-.9-2.1v-11.7c0-.8.3-1.5.9-2.1l11.8-11.8c.6-.6 1.3-.9 2.1-.9h23.5c.8 0 1.5.3 2.1.9l12 11.8c.6.6.9 1.3.9 2.1v11.8c0 .8-.3 1.5-.9 2.1l-12 11.8c-1.2 1.1-3 1.1-4.2-.1z" fill="#666"/><path d="m503.1 810.5h-47.2c-1.6 0-2.9-1.3-2.9-2.9s1.3-2.9 2.9-2.9h47.2c1.6 0 2.9 1.3 2.9 2.9s-1.3 2.9-2.9 2.9z" fill="#666"/><path d="m491.1 851.9h-23.5c-1.6 0-2.9 1.3-2.9 2.9v23.7c0 1.6 1.3 2.9 2.9 2.9h23.5c1.6 0 2.9-1.3 2.9-2.9v-23.7c0-1.6-1.3-2.9-2.9-2.9z" fill="#ff8602"/><path d="m444.1 881.5h-23.5c-1.6 0-2.9-1.3-2.9-2.9v-23.7c0-1.6 1.3-2.9 2.9-2.9h23.5c1.6 0 2.9 1.3 2.9 2.9v23.7c0 1.5-1.3 2.9-2.9 2.9z" fill="#ffb81f"/><path d="m491.1 875.6h-70.5c-8.1 0-14.9 6.6-14.9 14.7s6.8 14.7 14.9 14.7h70.5c8.1 0 14.9-6.6 14.9-14.7s-6.8-14.7-14.9-14.7z" fill="#666"/><path d="m506 890.3c0 8.1-6.8 14.7-14.9 14.7h-35.3v-29.4h35.3c8.1 0 14.9 6.6 14.9 14.7z" fill="#484848"/><path d="m491.1 881.5h-70.5c-4.9 0-9 3.9-9 8.8s4.1 8.8 9 8.8h70.5c4.9 0 9-3.9 9-8.8s-4.1-8.8-9-8.8z" fill="#fff"/><path d="m500.1 890.3c0 4.9-4.1 8.8-9 8.8h-35.3v-17.6h35.3c4.9 0 9 3.9 9 8.8z" fill="#eaeaea"/><circle cx="455.8" cy="890.3" fill="#666" r="2.9"/><circle cx="432.3" cy="890.3" fill="#666" r="2.9"/><circle cx="420.6" cy="890.3" fill="#666" r="2.9"/><circle cx="467.6" cy="890.3" fill="#484848" r="2.9"/><circle cx="444.1" cy="890.3" fill="#666" r="2.9"/><circle cx="479.3" cy="890.3" fill="#484848" r="2.9"/><circle cx="491.1" cy="890.3" fill="#484848" r="2.9"/><path d="m458.8 890.3c0 1.6-1.3 2.9-2.9 2.9v-5.9c1.6 0 2.9 1.3 2.9 3z" fill="#484848"/><path d="m580.1 122.7h6.3c2.2 0 4 1.8 4 4v10.7c0 2.2-1.8 4-4 4h-3.8z" fill="#484848"/><path d="m562.4 81.8h-32.8c-3.4 0-6.4 2.4-7.1 5.7l-3.4 14.9 28.9 3.5 24.9-3.5-3.4-14.9c-.7-3.4-3.7-5.7-7.1-5.7z" fill="#666"/><path d="m569.5 87.5c-.8-3.3-3.7-5.7-7.1-5.7h-5.8c3.4 0 6.4 2.4 7.1 5.7l3.4 14.9h5.8z" fill="#484848"/><path d="m562.4 201.3h-32.8c-3.4 0-6.4-2.4-7.1-5.7l-3.4-14.9 27.1-4.6 26.7 4.6-3.4 14.9c-.7 3.3-3.7 5.7-7.1 5.7z" fill="#666"/><path d="m567.1 180.7-3.4 14.9c-.8 3.3-3.7 5.7-7.1 5.7h5.8c3.4 0 6.4-2.4 7.1-5.7l3.4-14.9z" fill="#484848"/><path d="m573.3 180.7h-54.6c-5.1 0-9.3-4.2-9.3-9.3v-59.7c0-5.1 4.2-9.3 9.3-9.3h54.6c5.1 0 9.3 4.2 9.3 9.3v59.7c0 5.1-4.2 9.3-9.3 9.3z" fill="#02c6c6"/><path d="m573.3 102.4h-5.3c5.1 0 9.1 4.2 9.1 9.3v59.7c0 5.1-3.9 9.3-9.1 9.3h5.3c5.1 0 9.3-4.2 9.3-9.3v-59.7c0-5.1-4.2-9.3-9.3-9.3z" fill="#00a0a3"/><path d="m575.3 113.1v56.9c0 1.9-1.6 3.5-3.5 3.5h-51.8c-1.9 0-3.5-1.6-3.5-3.5v-56.8c0-1.9 1.6-3.5 3.5-3.5h51.8c2-.1 3.5 1.5 3.5 3.4z" fill="#e7f2f1"/><path d="m571.9 109.6h-5.8c1.9 0 3.5 1.6 3.5 3.5v56.9c0 1.9-1.6 3.5-3.5 3.5h5.8c1.9 0 3.5-1.6 3.5-3.5v-56.8c-.1-2-1.6-3.6-3.5-3.6z" fill="#a2e0dc"/><path d="m575.3 134.9v35.1c0 1.9-1.6 3.5-3.5 3.5h-51.8c-1.9 0-3.5-1.6-3.5-3.5v-35.1z" fill="#fff"/><path d="m569.6 134.9v35.1c0 1.9-1.6 3.5-3.5 3.5h5.8c1.9 0 3.5-1.6 3.5-3.5v-35.1z" fill="#c8effe"/><path d="m549.9 92h-7.9c-1 0-1.8-.8-1.8-1.8s.8-1.8 1.8-1.8h7.9c1 0 1.8.8 1.8 1.8s-.8 1.8-1.8 1.8z" fill="#eaf6ff"/><path d="m533.5 167c-4.1 0-7.6-3-8.2-7.1-.1-1 .6-1.9 1.5-2 1-.1 1.9.6 2 1.5.3 2.3 2.3 4.1 4.7 4 2.4 0 4.4-2 4.6-4.4.1-1.3-.4-2.5-1.3-3.5-.9-.9-2.1-1.5-3.4-1.5-1.8 0-2.5.3-3.4.7-.1 0-.2.1-.2.1-.6.3-1.3.3-1.9-.2-.5-.4-.8-1.1-.7-1.7l1.6-9.5c.1-.9.9-1.5 1.8-1.5h7.9c1 0 1.8.8 1.8 1.8s-.8 1.8-1.8 1.8h-6.4l-.8 5.1c.6-.1 1.3-.1 2.1-.1 2.3 0 4.4.9 6 2.6s2.4 3.8 2.3 6.1c-.2 4.3-3.8 7.7-8.1 7.8z" fill="#666"/><path d="m559.1 156h-9.2c-1 0-1.8-.8-1.8-1.8s.8-1.8 1.8-1.8h9.2c1 0 1.8.8 1.8 1.8s-.8 1.8-1.8 1.8z" fill="#9b9b9b"/><path d="m559.1 147.1h-9.2c-1 0-1.8-.8-1.8-1.8s.8-1.8 1.8-1.8h9.2c1 0 1.8.8 1.8 1.8s-.8 1.8-1.8 1.8z" fill="#9b9b9b"/><path d="m560.9 122.7c0 1-.8 1.8-1.8 1.8h-18.1c-.6 0-1.2-.3-1.5-.8l-1.4-2.1-2.9 6.7c-.3.6-.9 1-1.5 1.1h-.1c-.6 0-1.2-.3-1.5-.9l-4.9-8.1-1.9 2.9c-.3.5-.9.8-1.5.8h-7v-3.6h6.1l2.9-4.5c.3-.5.9-.8 1.5-.8s1.2.3 1.5.9l4.6 7.6 2.8-6.6c.3-.6.8-1 1.5-1.1s1.3.2 1.7.8l2.7 4.1h17.1c.9 0 1.7.8 1.7 1.8z" fill="#84d1cf"/><circle cx="550.3" cy="165.2" fill="#84d1cf" r="2"/><circle cx="558.8" cy="165.2" fill="#84d1cf" r="2"/><path d="m567.9 119.6c-.6-1.3-2.1-2-3.5-1.6l-2.1.7c-.2.1-.4.1-.6 0l-2.1-.7c-1.4-.5-2.9.2-3.5 1.6-.5 1.1-.2 2.4.6 3.2l4.6 4.6c.4.4 1 .4 1.3 0l4.6-4.6c.9-.9 1.1-2.1.7-3.2z" fill="#f26606"/><g clip-rule="evenodd" fill-rule="evenodd"><path d="m145.8 851.9-15.4-5.6-14.3 5.6-2.2 8.5 17.1 4.6 17.1-4.6z" fill="#c4cccf"/><path d="m181 842.3-50.2-4-52.2 4v4.2c0 3 2.4 5.4 5.4 5.4h91.6c3 0 5.4-2.4 5.4-5.4z" fill="#eceff1"/><path d="m84 773.7c-3 0-5.4 2.4-5.4 5.4v63.1h102.4v-63.1c0-3-2.4-5.4-5.4-5.4-2.9 0-77.7 0-91.6 0z" fill="#666"/><path d="m87.6 835.1h84.4c.6 0 1.2-.5 1.2-1.2v-51.2c0-.6-.5-1.2-1.2-1.2-2.1 0-82.1 0-84.4 0-.6 0-1.2.5-1.2 1.2v51.3c0 .6.6 1.1 1.2 1.1z" fill="#02c6c6"/><path d="m97 779h74v51h-74z" fill="#737f7f" opacity=".2"/><path d="m97 823.1h66c1.4 0 2.6-1.2 2.6-2.7v-.7c-10.2-12.4-29.3-10.3-35.6 0-6.2-9.5-25-13.2-35.6 0v.7c0 1.4 1.2 2.7 2.6 2.7z" fill="#90a4ae"/><path d="m148 860.4h-39c-2.5 0-4.6 2.1-4.6 4.6v2.5c0 1.1.9 2.1 2.1 2.1h49c1.1 0 2.1-.9 2.1-2.1v-2.5c0-2.5-2.1-4.6-4.6-4.6z" fill="#eceff1"/><path d="m130 819.7 5.6-26.3-5.6-23.8c-1.6-.9-4.4-1.8-7.7-2.3-5.8-1-13.4-1.2-20.2 0-1.2.2-2.5.5-3.6.8-3 .9-4.1 1.1-4.1 3.7v48c11.2-5.3 30-3.4 35.6-.1z" fill="#eceff1"/><path d="m173.1 782.8v51.2c0 .6-.5 1.2-1.2 1.2h-14.3v7.1h23.4v-63.1c0-3-2.4-5.3-5.4-5.4-.6 0-4.3 0-10 0v5.4.6 1.9h6.3c.7-.1 1.2.4 1.2 1.1z" fill="#484848"/><path d="m181 842.3h-23.3v9.6h17.9c3 0 5.4-2.4 5.4-5.4z" fill="#c4cccf"/><path d="m145 860.4c2.5 0 4.6 2.1 4.6 4.6v2.5c0 1.1-.9 2.1-2.1 2.1h8c1.1 0 2.1-.9 2.1-2.1v-2.5c0-2.5-2.1-4.6-4.6-4.6z" fill="#c4cccf"/><path d="m137.9 851.9h-21.8l-1.2 4.6h19.7c2.4 0 4.8-.1 5.2 1.6l.4 2.3h8l-2.2-8.5z" fill="#90a4ae"/><path d="m130 819.7c5.6-3.3 24.4-5.1 35.6 0v-48c0-2.6-1-2.8-4.1-3.7-1.2-.3-2.4-.6-3.6-.8-6.8-1.2-14.4-1-20.2 0-3.3.6-6.1 1.4-7.7 2.3z" fill="#eceff1"/></g><path d="m130.5 847.8c-.9 0-1.6-.7-1.6-1.6s.7-1.6 1.6-1.6h.1c.9 0 1.6.7 1.6 1.6-.2.9-.9 1.6-1.7 1.6z" fill="#35505c"/><path d="m100.9 799.3c-.6 0-1.2-.3-1.4-.9-.4-.8 0-1.7.8-2.1 7.2-3.3 19.5-2.3 23.6.1.8.4 1 1.4.6 2.2s-1.4 1-2.2.6c-3-1.8-14.1-3-20.8.1-.1-.1-.3 0-.6 0z" fill="#9b9b9b"/><path d="m100.9 808.7c-.6 0-1.2-.3-1.4-.9-.4-.8 0-1.7.8-2.1 7.2-3.3 19.5-2.3 23.6.1.8.4 1 1.4.6 2.2s-1.4 1-2.2.6c-3-1.8-14.1-3-20.8.1-.1-.1-.3 0-.6 0z" fill="#9b9b9b"/><path d="m100.9 789.9c-.6 0-1.2-.3-1.4-.9-.4-.8 0-1.7.8-2.1 7.2-3.3 19.5-2.3 23.6.1.8.4 1 1.4.6 2.2s-1.4 1-2.2.6c-3-1.8-14.1-3-20.8.1-.1-.1-.3 0-.6 0z" fill="#9b9b9b"/><path d="m100.9 780.5c-.6 0-1.2-.3-1.4-.9-.4-.8 0-1.7.8-2.1 7.2-3.3 19.5-2.3 23.6.1.8.4 1 1.4.6 2.1-.4.8-1.4 1-2.2.6-3-1.8-14.1-3-20.8.1-.1 0-.3.1-.6.1z" fill="#9b9b9b"/><path d="m159.1 799.3c-.2 0-.4 0-.7-.1-6.6-3-17.7-1.8-20.8-.1-.8.4-1.7.2-2.2-.6-.4-.8-.2-1.7.6-2.1 4.2-2.4 16.4-3.4 23.6-.1.8.4 1.1 1.3.8 2.1-.2.5-.7.9-1.3.9z" fill="#9b9b9b"/><path d="m159.1 808.7c-.2 0-.4 0-.7-.1-6.6-3-17.7-1.8-20.8-.1-.8.4-1.7.2-2.2-.6-.4-.8-.2-1.7.6-2.1 4.2-2.4 16.4-3.4 23.6-.1.8.4 1.1 1.3.8 2.1-.2.5-.7.9-1.3.9z" fill="#9b9b9b"/><path d="m159.1 789.9c-.2 0-.4 0-.7-.1-6.6-3-17.7-1.8-20.8-.1-.8.4-1.7.2-2.2-.6-.4-.8-.2-1.7.6-2.2 4.2-2.4 16.4-3.4 23.6-.1.8.4 1.1 1.3.8 2.1-.2.6-.7 1-1.3 1z" fill="#9b9b9b"/><path d="m159.1 780.5c-.2 0-.4 0-.7-.1-6.6-3-17.7-1.8-20.8-.1-.8.4-1.7.2-2.2-.6-.4-.8-.2-1.7.6-2.2 4.2-2.4 16.4-3.4 23.6-.1.8.4 1.1 1.3.8 2.1-.2.6-.7 1-1.3 1z" fill="#9b9b9b"/></svg>