<?xml version="1.0" encoding="utf-8"?>
<!-- Generator: Adobe Illustrator 24.2.3, SVG Export Plug-In . SVG Version: 6.00 Build 0)  -->
<svg version="1.1" xmlns="http://www.w3.org/2000/svg" xmlns:xlink="http://www.w3.org/1999/xlink" x="0px" y="0px"
	 viewBox="0 0 679.5 493.4" style="enable-background:new 0 0 679.5 493.4;" xml:space="preserve">
<style type="text/css">
	.st0{display:none;}
	.st1{display:inline;fill:#F5F5F5;}
	.st2{display:inline;}
	.st3{fill:#455A64;}
	.st4{fill:#FF725E;}
	.st5{opacity:0.3;}
	.st6{fill:#BCBCBC;}
	.st7{opacity:0.5;}
	.st8{fill:#263238;}
	.st9{fill:#BDC6C5;}
	.st10{fill:#00A0A3;}
	.st11{fill:#008E8E;}
	.st12{fill:#DDF1F2;}
	.st13{opacity:0.2;}
	.st14{fill:#2A7D7F;}
	.st15{opacity:0.2;fill:#FFFFFF;}
	.st16{fill:#FFB81F;}
	.st17{fill:#E0E0E0;}
	.st18{fill:#FFFFFF;}
	.st19{opacity:0.4;}
	.st20{fill:#FF8602;}
	.st21{opacity:0.2;fill:#6B6B6B;}
	.st22{fill:#F98919;}
	.st23{opacity:0.3;fill:#FFFFFF;}
	.st24{fill:#4C3F2D;}
	.st25{fill:#FFBF9D;}
	.st26{fill:#F7A17F;}
	.st27{fill:#FF9A6C;}
	.st28{fill:#423628;}
	.st29{fill:#BC7261;}
	.st30{opacity:0.3;fill:#BDC6C5;}
	.st31{fill:#F79F11;}
	.st32{fill:#0E706D;}
	.st33{fill:#D86D03;}
</style>
<g id="Background_Complete">
</g>
<g id="Background_Simple" class="st0">
	<path class="st1" d="M676.1,115.5l-0.7,1.7c-6.3,14.4-19.8,24.5-35.3,25.6c-2,0.1-4,0.2-6,0c-14.4-1.1-28.1-10-35-22.9
		c-4.1-7.6-6.2-16.7-12.7-22.2c-8.5-7.2-21-5.8-31.9-3.9c-10.9,1.9-23.4,3.3-31.9-4c-5.3-4.6-7.8-11.7-8.3-18.7
		c-1.6-18.5,9-36.7,24.2-47.2c15.2-10.4,34.3-13.8,52.6-12.6c25.7,1.6,51.4,12.2,68.6,31.6C676.8,62.3,684.4,90.9,676.1,115.5z"/>
	<path class="st1" d="M15.6,157.7l1.3,1.3c11,11.2,27.2,15.8,42.2,11.3c1.9-0.6,3.8-1.3,5.6-2.2c13.1-6.2,22.6-19.4,24.5-33.9
		c1.1-8.5-0.2-17.8,3.9-25.3c5.3-9.8,17.5-12.9,28.4-15.1c10.9-2.2,23.1-5.3,28.3-15.2c3.3-6.2,3-13.7,1.1-20.5
		c-5.2-17.9-21.6-31.1-39.5-35.4s-36.9-0.6-53.6,7C34.3,40.6,14.2,59.7,5,84C-4.1,108.3-0.9,137.7,15.6,157.7z"/>
	<circle class="st1" cx="641.6" cy="200.1" r="24.8"/>
	<circle class="st1" cx="201.9" cy="54.9" r="24.8"/>
</g>
<g id="Floor">
</g>
<g id="Icon">
</g>
<g id="Device_00000127734021744864729300000001350853061182535082_">
	<g id="Layer_14">
	</g>
	<g id="Layer_13">
	</g>
	<g id="Layer_12">
	</g>
	<g id="Layer_11">
	</g>
	<g id="Layer_10">
	</g>
	<g id="Layer_8">
	</g>
	<g id="Layer_7">
		<g class="st0">
			<g class="st2">
				<g>
					<g>
						<g>
							<g>
								<g>
									<g>
										<g>
											<g>
												<g>
													<path class="st3" d="M530.8,264.2c-12.9,13.8-30.4,21.7-49.2,22.3c-18.8,0.6-36.8-6.1-50.6-19l0,0
														c-28.4-26.6-29.9-71.4-3.3-99.8c12.9-13.8,30.4-21.7,49.2-22.3c18.8-0.6,36.8,6.1,50.6,19c11.2,10.5,18.2,23.7,21,37.7
														C552.8,223.7,547,247,530.8,264.2z M434.2,264c12.8,12,29.6,18.3,47.2,17.8c17.6-0.6,33.9-8,45.9-20.8
														c12-12.8,18.3-29.6,17.8-47.2c-0.6-17.6-8-33.9-20.8-45.9c-12.8-12-29.6-18.3-47.2-17.8c-17.6,0.6-33.9,8-45.9,20.8
														c-15.1,16.1-20.5,37.8-16.5,57.9C417.3,241.9,423.8,254.2,434.2,264z"/>
												</g>
											</g>
										</g>
									</g>
								</g>
							</g>
						</g>
					</g>
				</g>
				<g>
					<g>
						<g>
							<g>
								<g>
									<g>
										<g>
											<g>
												<g>
													<path class="st4" d="M530.8,264.2c-12.9,13.8-30.4,21.7-49.2,22.3c-18.8,0.6-36.8-6.1-50.6-19l0,0
														c-28.4-26.6-29.9-71.4-3.3-99.8c12.9-13.8,30.4-21.7,49.2-22.3c18.8-0.6,36.8,6.1,50.6,19c11.2,10.5,18.2,23.7,21,37.7
														C552.8,223.7,547,247,530.8,264.2z M434.2,264c12.8,12,29.6,18.3,47.2,17.8c17.6-0.6,33.9-8,45.9-20.8
														c12-12.8,18.3-29.6,17.8-47.2c-0.6-17.6-8-33.9-20.8-45.9c-12.8-12-29.6-18.3-47.2-17.8c-17.6,0.6-33.9,8-45.9,20.8
														c-15.1,16.1-20.5,37.8-16.5,57.9C417.3,241.9,423.8,254.2,434.2,264z"/>
												</g>
											</g>
										</g>
									</g>
								</g>
							</g>
						</g>
					</g>
				</g>
				<g class="st5">
					<g>
						<g>
							<g>
								<g>
									<g>
										<g>
											<g>
												<g>
													<path d="M530.8,264.2c-12.9,13.8-30.4,21.7-49.2,22.3c-18.8,0.6-36.8-6.1-50.6-19l0,0c-28.4-26.6-29.9-71.4-3.3-99.8
														c12.9-13.8,30.4-21.7,49.2-22.3c18.8-0.6,36.8,6.1,50.6,19c11.2,10.5,18.2,23.7,21,37.7
														C552.8,223.7,547,247,530.8,264.2z M434.2,264c12.8,12,29.6,18.3,47.2,17.8c17.6-0.6,33.9-8,45.9-20.8
														c12-12.8,18.3-29.6,17.8-47.2c-0.6-17.6-8-33.9-20.8-45.9c-12.8-12-29.6-18.3-47.2-17.8c-17.6,0.6-33.9,8-45.9,20.8
														c-15.1,16.1-20.5,37.8-16.5,57.9C417.3,241.9,423.8,254.2,434.2,264z"/>
												</g>
											</g>
										</g>
									</g>
								</g>
							</g>
						</g>
					</g>
				</g>
				<g>
					<g>
						<g>
							<g>
								<g>
									<g>
										<g>
											<g>
												<g>
													<path class="st4" d="M534.3,260.8c-12.9,13.8-30.4,21.7-49.2,22.3c-18.8,0.6-36.8-6.1-50.6-19l0,0
														c-28.4-26.6-29.9-71.4-3.3-99.8c12.9-13.8,30.4-21.7,49.2-22.3c18.8-0.6,36.8,6.1,50.6,19c11.2,10.5,18.2,23.7,21,37.7
														C556.2,220.3,550.4,243.6,534.3,260.8z M437.7,260.6c12.8,12,29.6,18.3,47.2,17.8c17.6-0.6,33.9-8,45.9-20.8
														c12-12.8,18.3-29.6,17.8-47.2c-0.6-17.6-8-33.9-20.8-45.9c-12.8-12-29.6-18.3-47.2-17.8c-17.6,0.6-33.9,8-45.9,20.8
														c-15.1,16.1-20.5,37.8-16.5,57.9C420.7,238.5,427.3,250.9,437.7,260.6z"/>
												</g>
											</g>
										</g>
									</g>
								</g>
							</g>
						</g>
					</g>
				</g>
			</g>
			<g class="st2">
				<g>
					<g>
						<g>
							<g>
								<g>
									<g>
										<g>
											<g>
												<g>
													<g>
														<g>
															<path class="st4" d="M582.9,321l2.2-2.2c2-1.9,1.8-5.4,0.4-6.8l-52.5-54.3l-10.5,10.2l52.4,54.2
																C576.7,323.8,580.3,323.5,582.9,321z"/>
														</g>
													</g>
												</g>
											</g>
										</g>
									</g>
								</g>
							</g>
						</g>
					</g>
				</g>
			</g>
		</g>
	</g>
</g>
<g id="Layer_9">
	<g>
		<g>
			<g>
				<path class="st6" d="M125.4,328.7c-0.4-0.2-0.8-0.3-1.2-0.5c-0.1-0.1-1.5-0.6-0.4-0.2c-0.7-0.3-1.3-0.6-2-0.8
					c-1.4-0.6-2.9-1.3-4.3-1.9c-2.8-1.3-5.7-2.7-8.4-4.2c-2.7-1.5-5.4-3.1-8.1-4.8c-1.2-0.8-2.4-1.6-3.5-2.4c-0.7-0.5-1.4-1-2.1-1.5
					c-0.2-0.2-0.5-0.3-0.7-0.5c-0.2-0.2-0.5-0.3-0.7-0.5c0.5,0.4,0.5,0.4,0,0c-4.7-3.7-9.1-7.9-12.9-12.6c-0.3-0.3-0.5-0.6-0.8-1
					c0.7,0.9-0.1-0.2-0.2-0.3c-0.4-0.6-0.8-1.1-1.2-1.7c-0.9-1.2-1.7-2.5-2.5-3.8c-1.6-2.6-2.9-5.2-4.1-8c0.5,1.1-0.3-0.8-0.4-1.1
					c-0.3-0.7-0.5-1.4-0.8-2.1c-0.5-1.5-0.9-3-1.3-4.5c-0.3-1.3-0.6-2.6-0.8-4c-0.1-0.4-0.1-0.8-0.2-1.2c0.1,1.3,0-0.1,0-0.3
					c-0.1-0.8-0.2-1.6-0.2-2.4c-0.2-2.9-0.1-5.7,0.3-8.6c0.1-0.8-0.2,1.2,0,0c0.1-0.4,0.1-0.8,0.2-1.1c0.1-0.6,0.2-1.2,0.4-1.9
					c0.3-1.4,0.7-2.7,1.1-4c0.2-0.7,0.5-1.4,0.7-2.2c0.1-0.2,0.2-0.5,0.3-0.7c0.1-0.2,0.5-1.4,0.1-0.2c0.5-1.3,1.2-2.6,1.8-3.8
					c0.7-1.2,1.4-2.4,2.1-3.6c0.3-0.5,0.7-1.1,1.1-1.6c0.2-0.3,0.4-0.5,0.6-0.8c0.8-1-0.4,0.4,0.3-0.4c1.8-2.2,3.7-4.2,5.8-6.1
					c0.5-0.4,1-0.8,1.5-1.2c0.2-0.2,0.9-1,0.2-0.2c0.1-0.2,0.4-0.3,0.6-0.5c1.3-0.9,2.6-1.8,4-2.6c1.4-0.8,2.9-1.5,4.3-2.2
					c1.2-0.6-0.6,0.2,0.1-0.1c0.4-0.2,0.9-0.4,1.3-0.5c0.8-0.3,1.5-0.6,2.3-0.8c1.5-0.5,3.1-0.9,4.7-1.2c0.9-0.2,1.7-0.3,2.6-0.5
					c0.3,0,1.2-0.2,0.1,0c0.5-0.1,1.1-0.1,1.6-0.2c3.2-0.3,6.5-0.3,9.7,0.1c0.2,0,1.6,0.1,0.3,0c0.4,0,0.8,0.1,1.2,0.2
					c0.8,0.1,1.6,0.3,2.4,0.5c1.7,0.4,3.4,0.9,5.1,1.5c2.5,0.9,5.6-1,6.2-3.5c0.6-2.8-0.8-5.2-3.5-6.2c-12.7-4.4-26.9-3.4-39.1,2.1
					c-11.3,5.1-20.6,14.7-25.6,26.1c-5.3,12.1-6,25.5-2,38.1c4,12.6,11.9,23.9,21.8,32.6c11.6,10.2,25.4,17.3,39.6,23.1
					c2.4,1,5.6-1.1,6.2-3.5C129.5,332,128,329.8,125.4,328.7L125.4,328.7z"/>
			</g>
			<g class="st7">
				<path class="st8" d="M91,228.9c-0.2,0-0.4-2.4-2-4.8c-1.6-2.4-3.8-3.5-3.7-3.7c0-0.1,0.6,0.1,1.4,0.7c0.8,0.5,1.9,1.5,2.7,2.7
					c0.8,1.3,1.3,2.6,1.5,3.5C91.1,228.3,91.1,228.9,91,228.9z"/>
			</g>
			<g class="st7">
				<path class="st8" d="M80.1,237c-0.1,0.1-1-2.2-3.3-4.1c-2.2-1.9-4.6-2.4-4.6-2.5c0-0.1,0.6,0,1.6,0.3c0.9,0.3,2.2,0.9,3.3,1.9
					c1.2,1,2,2.1,2.4,3C80,236.4,80.1,237,80.1,237z"/>
			</g>
			<g class="st7">
				<path class="st8" d="M72.9,247.5c-0.1,0.1-1.6-1.9-4.2-3.1c-2.6-1.3-5.1-1.1-5.1-1.3c0-0.1,0.6-0.2,1.6-0.1c1,0,2.3,0.3,3.7,0.9
					c1.4,0.6,2.4,1.5,3.1,2.2C72.7,246.9,73,247.4,72.9,247.5z"/>
			</g>
			<g class="st7">
				<path class="st8" d="M69.2,259.9c-0.1,0.1-1.9-1.6-4.7-2.3c-2.8-0.8-5.2-0.1-5.2-0.3c0-0.1,0.5-0.3,1.5-0.4
					c1-0.1,2.4-0.1,3.8,0.2c1.5,0.4,2.7,1,3.5,1.6C68.9,259.4,69.2,259.9,69.2,259.9z"/>
			</g>
			<g class="st7">
				<path class="st8" d="M69.2,272.1c0,0.2-2.4-0.4-5.2,0.5c-2.8,0.8-4.5,2.6-4.6,2.4c0,0,0.3-0.5,1.1-1.2c0.8-0.6,1.9-1.3,3.4-1.8
					c1.4-0.4,2.8-0.5,3.8-0.4C68.6,271.8,69.2,272,69.2,272.1z"/>
			</g>
			<g class="st7">
				<path class="st8" d="M72.9,284.9c0,0.2-2.4,0-5.1,1.3c-2.6,1.2-4.1,3.2-4.2,3.1c-0.1,0,0.2-0.6,0.9-1.3c0.7-0.7,1.7-1.6,3.1-2.3
					c1.4-0.6,2.7-0.9,3.7-1C72.3,284.7,72.9,284.8,72.9,284.9z"/>
			</g>
			<g class="st7">
				<path class="st8" d="M79.6,296.5c0.1,0.2-2.3,0.8-4.3,2.9c-2.1,2-2.8,4.4-2.9,4.3c-0.1,0,0-0.6,0.4-1.5c0.4-0.9,1.1-2.1,2.2-3.2
					c1.1-1.1,2.3-1.8,3.2-2.1C79,296.5,79.6,296.4,79.6,296.5z"/>
			</g>
			<g class="st7">
				<path class="st8" d="M89.5,307c0.1,0.2-2.3,0.8-4.3,2.9c-2.1,2-2.8,4.4-2.9,4.3c-0.1,0,0-0.6,0.4-1.5c0.4-0.9,1.1-2.1,2.2-3.2
					c1.1-1.1,2.3-1.8,3.2-2.1C88.9,307,89.5,307,89.5,307z"/>
			</g>
			<g class="st7">
				<path class="st8" d="M101.7,317c0.1,0.2-2.3,0.8-4.3,2.9c-2.1,2-2.8,4.4-2.9,4.3c-0.1,0,0-0.6,0.4-1.5c0.4-0.9,1.1-2.1,2.2-3.2
					c1.1-1.1,2.3-1.8,3.2-2.1C101.1,317,101.7,316.9,101.7,317z"/>
			</g>
			<g class="st7">
				<path class="st8" d="M113.6,323.8c0.1,0.1-2.1,1.2-3.8,3.6c-1.7,2.4-2,4.8-2.2,4.8c-0.1,0-0.1-0.6,0.1-1.6
					c0.2-1,0.7-2.2,1.6-3.5c0.9-1.2,1.9-2.1,2.8-2.6C113,323.9,113.6,323.7,113.6,323.8z"/>
			</g>
			<g class="st7">
				<path class="st8" d="M103.9,224.1c-0.2,0,0.1-2.4-1-5.1c-1.1-2.7-3-4.2-2.9-4.3c0,0,0.6,0.3,1.3,1c0.7,0.7,1.5,1.8,2.1,3.2
					c0.6,1.4,0.8,2.8,0.8,3.7C104.2,223.5,104,224.1,103.9,224.1z"/>
			</g>
		</g>
		<g>
			<g>
				<path class="st6" d="M420.9,78c0.2-0.4,0.3-0.9,0.5-1.3c0.1-0.2,0.6-1.6,0.1-0.4c0.3-0.7,0.5-1.5,0.8-2.2
					c0.6-1.6,1.2-3.3,1.8-4.9c1.3-3.2,2.6-6.4,4.1-9.6c1.5-3.1,3-6.2,4.7-9.3c0.8-1.4,1.6-2.7,2.4-4.1c0.5-0.8,1-1.6,1.5-2.4
					c0.2-0.3,0.3-0.5,0.5-0.8c0.2-0.3,0.3-0.5,0.5-0.8c-0.4,0.5-0.4,0.5,0,0c3.8-5.5,8.1-10.6,13-15.1c0.3-0.3,0.7-0.6,1-0.9
					c-1,0.9,0.2-0.1,0.3-0.3c0.6-0.5,1.2-1,1.8-1.4c1.3-1,2.6-2,4-3c2.7-1.9,5.6-3.6,8.6-5.1c-1.2,0.6,0.8-0.4,1.2-0.5
					c0.8-0.3,1.5-0.7,2.3-1c1.6-0.7,3.2-1.2,4.9-1.8c1.4-0.4,2.9-0.8,4.3-1.2c0.4-0.1,0.9-0.2,1.3-0.3c-1.4,0.2,0.1,0,0.3,0
					c0.9-0.2,1.8-0.3,2.7-0.4c3.2-0.4,6.3-0.5,9.5-0.3c0.9,0-1.4-0.1,0,0c0.4,0,0.8,0.1,1.3,0.1c0.7,0.1,1.4,0.2,2.1,0.3
					c1.5,0.2,3,0.6,4.5,0.9c0.8,0.2,1.6,0.4,2.4,0.7c0.3,0.1,0.5,0.2,0.8,0.3c0.2,0.1,1.6,0.5,0.2,0.1c1.5,0.5,2.9,1.1,4.3,1.7
					c1.4,0.6,2.8,1.3,4.1,2.1c0.6,0.3,1.2,0.7,1.8,1.1c0.3,0.2,0.6,0.4,0.9,0.6c1.2,0.8-0.5-0.4,0.4,0.3c2.5,1.8,4.9,3.7,7.1,5.9
					c0.5,0.5,1,1,1.5,1.5c0.2,0.2,1.2,1,0.2,0.2c0.2,0.1,0.4,0.5,0.5,0.6c1.1,1.3,2.2,2.7,3.1,4.2c1,1.5,1.9,3.1,2.8,4.6
					c0.7,1.3-0.3-0.7,0.1,0.1c0.2,0.5,0.5,0.9,0.7,1.4c0.4,0.8,0.7,1.6,1,2.5c0.7,1.7,1.2,3.4,1.7,5.1c0.3,0.9,0.5,1.9,0.7,2.8
					c0.1,0.3,0.3,1.3,0,0.1c0.1,0.6,0.2,1.2,0.3,1.8c0.6,3.6,0.8,7.2,0.6,10.8c0,0.2,0,1.7,0,0.3c0,0.4-0.1,0.9-0.1,1.3
					c-0.1,0.9-0.2,1.8-0.4,2.7c-0.3,1.9-0.7,3.8-1.3,5.7c-0.8,2.8,1.5,6.1,4.3,6.6c3.1,0.5,5.7-1.3,6.6-4.3c4-14.4,1.9-29.9-5-43
					c-6.4-12.1-17.7-21.7-30.5-26.4c-13.8-5-28.6-4.8-42.2,0.5c-13.7,5.3-25.5,14.8-34.5,26.3c-10.5,13.5-17.3,29.2-22.8,45.3
					c-0.9,2.8,1.6,6.1,4.3,6.6C417.6,82.8,419.9,80.9,420.9,78L420.9,78z"/>
			</g>
			<g class="st5">
				<path class="st8" d="M528.8,33.1c0-0.2,2.6-0.6,5.2-2.6c2.6-2,3.6-4.5,3.8-4.4c0.1,0-0.1,0.7-0.7,1.6c-0.5,0.9-1.5,2.1-2.8,3.2
					c-1.3,1-2.7,1.6-3.8,1.9C529.5,33.2,528.8,33.2,528.8,33.1z"/>
			</g>
			<g class="st5">
				<path class="st8" d="M519,21.6c-0.1-0.1,2.4-1.3,4.3-3.9c2-2.6,2.3-5.3,2.5-5.2c0.1,0,0.1,0.7-0.2,1.7c-0.3,1.1-0.8,2.5-1.8,3.8
					c-1,1.3-2.2,2.3-3.1,2.9C519.7,21.5,519.1,21.7,519,21.6z"/>
			</g>
			<g class="st5">
				<path class="st8" d="M507.1,14.4c-0.1-0.1,2-1.8,3.1-4.9c1.2-3,0.8-5.7,1-5.7c0.1,0,0.2,0.6,0.3,1.7c0,1.1-0.2,2.6-0.8,4.2
					c-0.6,1.6-1.5,2.8-2.3,3.6C507.7,14.1,507.1,14.5,507.1,14.4z"/>
			</g>
			<g class="st5">
				<path class="st8" d="M493,11.2c-0.1-0.1,1.6-2.2,2.2-5.3c0.6-3.2-0.2-5.8-0.1-5.8c0.1,0,0.4,0.6,0.6,1.7c0.2,1.1,0.3,2.6,0,4.2
					c-0.3,1.6-1,3-1.6,3.9C493.6,10.8,493.1,11.2,493,11.2z"/>
			</g>
			<g class="st5">
				<path class="st8" d="M479.6,12c-0.2,0,0.2-2.7-0.9-5.7c-1.1-3-3.2-4.8-3-4.9c0,0,0.6,0.3,1.3,1.1c0.7,0.8,1.6,2.1,2.2,3.6
					c0.6,1.6,0.7,3.1,0.7,4.2C479.8,11.3,479.6,12,479.6,12z"/>
			</g>
			<g class="st5">
				<path class="st8" d="M465.7,17c-0.2,0-0.2-2.7-1.8-5.5c-1.5-2.8-3.9-4.3-3.8-4.4c0-0.1,0.6,0.2,1.5,0.9c0.9,0.7,1.9,1.8,2.7,3.2
					c0.8,1.5,1.2,2.9,1.3,4C465.9,16.3,465.8,17,465.7,17z"/>
			</g>
			<g class="st5">
				<path class="st8" d="M453.4,25.2c-0.1,0.1-1-2.5-3.5-4.6c-2.4-2.2-5.1-2.8-5-2.9c0-0.1,0.7,0,1.7,0.4c1,0.4,2.4,1.1,3.6,2.2
					c1.2,1.1,2.1,2.4,2.6,3.4C453.3,24.5,453.4,25.2,453.4,25.2z"/>
			</g>
			<g class="st5">
				<path class="st8" d="M442.4,36.9c-0.1,0.1-1-2.5-3.5-4.6c-2.4-2.2-5.1-2.8-5-2.9c0-0.1,0.7,0,1.7,0.4c1,0.4,2.4,1.1,3.6,2.2
					c1.2,1.1,2.1,2.4,2.6,3.4C442.3,36.2,442.5,36.9,442.4,36.9z"/>
			</g>
			<g class="st5">
				<path class="st8" d="M432.2,51.1c-0.1,0.1-1-2.5-3.5-4.6c-2.4-2.2-5.1-2.8-5-2.9c0-0.1,0.7,0,1.7,0.4c1,0.4,2.4,1.1,3.6,2.2
					c1.2,1.1,2.1,2.4,2.6,3.4C432.2,50.4,432.3,51.1,432.2,51.1z"/>
			</g>
			<g class="st5">
				<path class="st8" d="M425.6,64.7c-0.1,0.1-1.4-2.3-4.2-4c-2.7-1.7-5.4-1.9-5.4-2c0-0.1,0.7-0.1,1.7,0.1c1.1,0.2,2.5,0.6,3.9,1.5
					c1.4,0.9,2.5,2,3.1,2.9C425.4,64,425.6,64.7,425.6,64.7z"/>
			</g>
			<g class="st5">
				<path class="st8" d="M535,47.1c0-0.2,2.7,0,5.6-1.5c2.9-1.4,4.5-3.6,4.6-3.5c0,0-0.3,0.6-1,1.4c-0.7,0.8-1.9,1.8-3.4,2.5
					c-1.5,0.7-3,1-4.1,1.1C535.7,47.3,535,47.2,535,47.1z"/>
			</g>
		</g>
		<g>
			<g>
				<g>
					<g class="st5">
						<g>
							<path class="st9" d="M596.3,393H128c-13.5,0-24.5,4.6-24.5,10.3l0,0c0,1.2,2.5,3.3,7.1,2.7c6.9-0.8,449.8,0.8,500.7,0.3
								c3,0,5.4-1.5,5.3-3.3c-0.1-0.8-0.1-1.5-0.1-1.5C616.4,396.8,607.4,393,596.3,393z"/>
						</g>
					</g>
					<g>
						<g>
							<g>
								<g>
									<g>
										<g>
											<g>
												<path class="st10" d="M571.4,396.1H148.7c-14,0-25.3-11.3-25.3-25.3V80.7c0-10.2,8.3-18.5,18.5-18.5h437.5
													c9.6,0,17.4,7.8,17.4,17.4v291.2C596.8,384.8,585.4,396.1,571.4,396.1z"/>
											</g>
										</g>
									</g>
								</g>
							</g>
						</g>
					</g>
					<g>
						<g>
							<path class="st11" d="M596.3,401.2H128c-13.5,0-24.5-11-24.5-24.5v-3.8c0-0.5,0.4-0.9,0.9-0.9h511c0.5,0,0.9,0.4,0.9,0.9v8.1
								C616.4,392.2,607.4,401.2,596.3,401.2z"/>
						</g>
					</g>
					<g>
						<g>
							<path class="st11" d="M596.3,401.2H128c-13.5,0-24.5-11-24.5-24.5v-3.8c0-0.5,0.4-0.9,0.9-0.9h511c0.5,0,0.9,0.4,0.9,0.9v8.1
								C616.4,392.2,607.4,401.2,596.3,401.2z"/>
						</g>
					</g>
					<g>
						<g>
							<g>
								<g>
									<g>
										<g>
											<g>
												<path class="st12" d="M570.8,356.1H148.1c-2.9,0-5.3-2.4-5.3-5.3v-263c0-2.9,2.4-5.3,5.3-5.3h422.7
													c2.9,0,5.3,2.4,5.3,5.3v263C576,353.7,573.7,356.1,570.8,356.1z"/>
											</g>
										</g>
										<g>
											<g>
												<g>
													<path class="st12" d="M570.8,356.1c0,0,0.3,0,0.9-0.1c0.6-0.1,1.5-0.4,2.4-1.1c0.9-0.7,1.8-2.1,1.9-3.9
														c0-1.8,0-3.8,0-6.2c0-9.4,0-23.2,0-40.9c0-35.5,0-87-0.1-150.5c0-15.9,0-32.5,0-49.9c0-4.3,0-8.7,0-13.1l0-1.7
														c0-0.6,0-1.1-0.1-1.6c-0.1-1.1-0.7-2.1-1.4-2.8c-0.8-0.8-1.8-1.3-2.8-1.4c-0.5-0.1-1.1-0.1-1.6-0.1l-1.7,0
														c-9,0-18.2,0-27.5,0c-37.4,0-77.3,0-119.3,0c-84,0-176.4,0-273.3,0c-1.4,0-2.9,0.6-3.8,1.7c-0.5,0.5-0.8,1.2-1,1.9
														c-0.2,0.7-0.2,1.4-0.2,2.2c0,3,0,6,0,9.1c0,6,0,12,0,18c0,12,0,23.9,0,35.7c0,23.6,0,46.9,0,69.7c0,22.9,0,45.3,0,67.3
														c0,11,0,21.9,0,32.6c0,5.4,0,10.7,0,16c0,2.7,0,5.3,0,7.9c0,1.3,0,2.6,0,4c0,1.3-0.1,2.6,0.4,3.8
														c0.5,1.2,1.4,2.1,2.6,2.6c0.6,0.3,1.2,0.4,1.8,0.4c0.6,0,1.3,0,1.9,0c2.6,0,5.2,0,7.8,0c5.2,0,10.3,0,15.5,0
														c10.2,0,20.3,0,30.3,0c19.9,0,39.2,0,57.9,0c37.4,0,72.2,0,103.9,0c63.5,0,115,0.1,150.5,0.1c17.8,0,31.6,0,40.9,0
														c4.7,0,8.2,0,10.6,0C569.5,356.1,570.8,356.1,570.8,356.1s-1.2,0-3.6,0c-2.4,0-6,0-10.6,0c-9.4,0-23.2,0-40.9,0
														c-35.5,0-87,0-150.5,0.1c-31.8,0-66.6,0-103.9,0c-18.7,0-38,0-57.9,0c-10,0-20,0-30.3,0c-5.1,0-10.3,0-15.5,0
														c-2.6,0-5.2,0-7.8,0c-0.7,0-1.3,0-2,0c-0.7,0-1.4-0.2-2-0.5c-1.2-0.6-2.3-1.6-2.8-2.9c-0.3-0.6-0.4-1.3-0.4-2l0-2
														c0-1.3,0-2.6,0-4c0-2.6,0-5.3,0-7.9c0-5.3,0-10.7,0-16c0-10.8,0-21.6,0-32.6c0-22,0-44.4,0-67.3c0-22.9,0-46.1,0-69.7
														c0-11.8,0-23.7,0-35.7c0-6,0-12,0-18c0-3,0-6,0-9.1c0-0.7,0-1.6,0.2-2.3c0.2-0.8,0.6-1.5,1.1-2.1
														c1-1.2,2.6-1.9,4.2-1.9c96.9,0,189.3,0,273.3,0c42,0,81.9,0,119.3,0c9.3,0,18.5,0,27.5,0l1.7,0c0.6,0,1.1,0,1.7,0.1
														c1.2,0.2,2.2,0.7,3.1,1.6c0.8,0.8,1.4,1.9,1.5,3.1c0.1,0.6,0.1,1.1,0.1,1.7l0,1.7c0,4.4,0,8.8,0,13.1
														c0,17.3,0,34,0,49.9c0,63.5-0.1,115-0.1,150.5c0,17.8,0,31.6,0,40.9c0,2.3,0,4.4,0,6.2c-0.1,1.8-1,3.2-1.9,3.9
														c-0.9,0.8-1.9,1-2.5,1.1c-0.3,0.1-0.5,0.1-0.7,0.1C570.8,356.1,570.8,356.1,570.8,356.1z"/>
												</g>
											</g>
										</g>
									</g>
								</g>
							</g>
						</g>
					</g>
					<g class="st7">
						<g>
							<g>
								<g>
									<g>
										<g>
											<polygon class="st8" points="313.4,371.4 319.8,382.2 409.3,382.2 415.2,371.4 											"/>
										</g>
									</g>
								</g>
							</g>
						</g>
					</g>
				</g>
				<g>
					<g>
						<path class="st8" d="M363.6,73.3c0,2-1.6,3.6-3.6,3.6s-3.6-1.6-3.6-3.6c0-2,1.6-3.6,3.6-3.6S363.6,71.4,363.6,73.3z"/>
					</g>
				</g>
			</g>
		</g>
		<g class="st13">
			<g>
				<path d="M512.5,294.9H205.6c-5.1,0-9.2-4.1-9.2-9.2v-222c0-5.4,4.3-9.7,9.7-9.7h309c5.4,0,9.7,4.3,9.7,9.7v218.8
					C524.9,289.3,519.3,294.9,512.5,294.9z"/>
			</g>
		</g>
		<g>
			<g>
				<path class="st14" d="M528.1,284.2H187.4c-5.1,0-9.2-4.1-9.2-9.2V45.5c0-5.4,4.3-9.7,9.7-9.7h342.8c5.4,0,9.7,4.3,9.7,9.7v226.3
					C540.5,278.7,535,284.2,528.1,284.2z"/>
			</g>
		</g>
		<g>
			<g>
				<g>
					<rect x="224.5" y="71.5" class="st15" width="25.5" height="5.6"/>
				</g>
			</g>
			<g>
				<g>
					<rect x="224.5" y="96.4" class="st16" width="12.8" height="5.6"/>
				</g>
			</g>
			<g>
				<g>
					<rect x="234.1" y="109" class="st15" width="18" height="5.6"/>
				</g>
			</g>
			<g>
				<g>
					<rect x="255" y="109" class="st15" width="10.5" height="5.6"/>
				</g>
			</g>
			<g>
				<g>
					<rect x="337.9" y="109" class="st15" width="21.6" height="5.6"/>
				</g>
			</g>
			<g>
				<g>
					<rect x="386" y="121.2" class="st15" width="36.4" height="5.6"/>
				</g>
			</g>
			<g>
				<g>
					<rect x="461.1" y="109" class="st15" width="17.5" height="5.6"/>
				</g>
			</g>
			<g>
				<g>
					<rect x="484" y="109" class="st15" width="35.2" height="5.6"/>
				</g>
			</g>
			<g>
				<g>
					<rect x="234.1" y="121.2" class="st15" width="18" height="5.6"/>
				</g>
			</g>
			<g>
				<g>
					<rect x="223.1" y="133.4" class="st16" width="18" height="5.6"/>
				</g>
			</g>
			<g>
				<g>
					<rect x="232.7" y="145.6" class="st15" width="8.4" height="5.6"/>
				</g>
			</g>
			<g>
				<g>
					<rect x="263.5" y="171.3" class="st15" width="8.4" height="5.6"/>
				</g>
			</g>
			<g>
				<g>
					<rect x="379.1" y="217.8" class="st15" width="16.4" height="5.6"/>
				</g>
			</g>
			<g>
				<g>
					<rect x="447.1" y="217.8" class="st15" width="40.2" height="5.6"/>
				</g>
			</g>
			<g>
				<g>
					<rect x="317.3" y="205.6" class="st17" width="16.4" height="5.6"/>
				</g>
			</g>
			<g>
				<g>
					<rect x="257.8" y="195.1" class="st15" width="16.4" height="5.6"/>
				</g>
			</g>
			<g>
				<g>
					<rect x="349.8" y="217.8" class="st15" width="25.9" height="5.6"/>
				</g>
			</g>
			<g>
				<g>
					<rect x="232.7" y="158" class="st15" width="13.6" height="5.6"/>
				</g>
			</g>
			<g>
				<g>
					<rect x="232.7" y="171.5" class="st15" width="25.3" height="5.6"/>
				</g>
			</g>
			<g>
				<g>
					<rect x="232.7" y="181.8" class="st15" width="37" height="5.6"/>
				</g>
			</g>
			<g>
				<g>
					<rect x="299.7" y="181.8" class="st15" width="37" height="5.6"/>
				</g>
			</g>
			<g>
				<g>
					<rect x="257.5" y="205.6" class="st15" width="52" height="5.6"/>
				</g>
			</g>
			<g>
				<g>
					<rect x="257.5" y="217.8" class="st15" width="87.9" height="5.6"/>
				</g>
			</g>
			<g>
				<g>
					<rect x="230.9" y="229.9" class="st15" width="87.9" height="5.6"/>
				</g>
			</g>
			<g>
				<g>
					<rect x="273.6" y="181.8" class="st15" width="22.2" height="5.6"/>
				</g>
			</g>
			<g>
				<g>
					<rect x="244.4" y="145.6" class="st15" width="22.9" height="5.6"/>
				</g>
			</g>
			<g class="st13">
				<g>
					<rect x="249.4" y="158" class="st18" width="22.9" height="5.6"/>
				</g>
			</g>
			<g>
				<g>
					<rect x="300.5" y="158" class="st15" width="60.7" height="5.6"/>
				</g>
			</g>
			<g>
				<g>
					<rect x="362.8" y="158" class="st15" width="70.1" height="5.6"/>
				</g>
			</g>
			<g>
				<g>
					<rect x="276.1" y="158" class="st15" width="19" height="5.6"/>
				</g>
			</g>
			<g>
				<g>
					<rect x="270.4" y="145.6" class="st15" width="30" height="5.6"/>
				</g>
			</g>
			<g>
				<g>
					<rect x="303.8" y="145.6" class="st17" width="16.7" height="5.6"/>
				</g>
			</g>
			<g>
				<g>
					<rect x="255" y="121.2" class="st15" width="18.8" height="5.6"/>
				</g>
			</g>
			<g>
				<g>
					<rect x="286.5" y="121.2" class="st15" width="92.6" height="5.6"/>
				</g>
			</g>
			<g>
				<g>
					<rect x="439.2" y="158" class="st15" width="43.8" height="5.6"/>
				</g>
			</g>
			<g>
				<g>
					<rect x="399.8" y="217.8" class="st15" width="43.8" height="5.6"/>
				</g>
			</g>
			<g>
				<g>
					<rect x="363.1" y="109" class="st15" width="91.2" height="5.6"/>
				</g>
			</g>
			<g>
				<g>
					<rect x="268.7" y="109" class="st15" width="63.5" height="5.6"/>
				</g>
			</g>
			<g>
				<g>
					<rect x="224.5" y="83.3" class="st15" width="42.7" height="5.6"/>
				</g>
			</g>
			<g>
				<g>
					<rect x="271.5" y="83.3" class="st15" width="58.5" height="5.6"/>
				</g>
			</g>
			<g>
				<g>
					<rect x="254.1" y="71.5" class="st17" width="18.8" height="5.6"/>
				</g>
			</g>
			<g>
				<g>
					<rect x="199.6" y="71.5" class="st15" width="5.4" height="5.6"/>
				</g>
			</g>
			<g>
				<g>
					<rect x="199.6" y="83.7" class="st15" width="5.4" height="5.6"/>
				</g>
			</g>
			<g>
				<g>
					<rect x="199.6" y="95.8" class="st15" width="5.4" height="5.6"/>
				</g>
			</g>
			<g>
				<g>
					<rect x="199.6" y="108" class="st15" width="5.4" height="5.6"/>
				</g>
			</g>
			<g>
				<g>
					<rect x="199.6" y="120.2" class="st15" width="5.4" height="5.6"/>
				</g>
			</g>
			<g>
				<g>
					<rect x="199.6" y="132.4" class="st15" width="5.4" height="5.6"/>
				</g>
			</g>
			<g>
				<g>
					<rect x="199.6" y="144.6" class="st15" width="5.4" height="5.6"/>
				</g>
			</g>
			<g>
				<g>
					<rect x="199.6" y="156.8" class="st15" width="5.4" height="5.6"/>
				</g>
			</g>
			<g>
				<g>
					<rect x="199.6" y="169" class="st15" width="5.4" height="5.6"/>
				</g>
			</g>
			<g>
				<g>
					<rect x="261.5" y="256.3" class="st17" width="8.4" height="5.6"/>
				</g>
			</g>
			<g>
				<g>
					<rect x="231.1" y="256.3" class="st16" width="25.3" height="5.6"/>
				</g>
			</g>
			<g>
				<g>
					<rect x="199.6" y="255.7" class="st15" width="5.4" height="5.6"/>
				</g>
			</g>
			<g>
				<g>
					<rect x="199.6" y="181.2" class="st15" width="5.4" height="5.6"/>
				</g>
			</g>
			<g>
				<g>
					<rect x="199.6" y="193.4" class="st15" width="5.4" height="5.6"/>
				</g>
			</g>
			<g>
				<g>
					<rect x="199.6" y="205.6" class="st15" width="5.4" height="5.6"/>
				</g>
			</g>
			<g>
				<g>
					<rect x="199.6" y="217.8" class="st15" width="5.4" height="5.6"/>
				</g>
			</g>
			<g>
				<g>
					<rect x="199.6" y="229.9" class="st15" width="5.4" height="5.6"/>
				</g>
			</g>
			<g>
				<g>
					<rect x="230.9" y="242.8" class="st15" width="25.6" height="5.6"/>
				</g>
			</g>
			<g>
				<g>
					<rect x="261.5" y="242.8" class="st15" width="58" height="5.6"/>
				</g>
			</g>
			<g>
				<g>
					<rect x="199.6" y="242.8" class="st15" width="5.4" height="5.6"/>
				</g>
			</g>
			<g>
				<g>
					<rect x="337.2" y="83.2" class="st17" width="18.8" height="5.6"/>
				</g>
			</g>
		</g>
		<g class="st19">
			<circle class="st18" cx="198.5" cy="51.9" r="3.8"/>
		</g>
		<g class="st19">
			<circle class="st18" cx="209.1" cy="51.9" r="3.8"/>
		</g>
		<g class="st19">
			<circle class="st18" cx="219.7" cy="51.9" r="3.8"/>
		</g>
		<g>
			<g>
				<path class="st3" d="M214.6,69.9c0.1,0,0.3,48,0.3,107.1c0,59.2-0.1,107.1-0.3,107.1c-0.1,0-0.3-47.9-0.3-107.1
					C214.3,117.8,214.4,69.9,214.6,69.9z"/>
			</g>
		</g>
		<path class="st5" d="M579.6,262.5l-50.4-52.1c15.5-17.1,21-39.9,16.8-61.1c-2.8-14-9.8-27.3-21-37.7c-13.8-12.9-31.7-19.7-50.6-19
			c-18.7,0.6-36,8.4-48.9,22c-1.3,1.2-2.6,2.4-3.8,3.7c-26.6,28.4-25.1,73.2,3.3,99.8c13.8,12.9,31.7,19.7,50.6,19
			c16-0.5,31-6.3,43-16.4l50.3,52c1.8,1.7,5.4,1.4,8-1.1l2.2-2.2C581.2,267.4,581,263.9,579.6,262.5z M521.8,114.9
			c4.9,4.6,9,9.7,12.2,15.4c-3.3-5.6-7.4-10.8-12.4-15.4c-3.2-3-6.7-5.7-10.3-8C515,109.2,518.5,111.9,521.8,114.9z M428.3,214.5
			c-4.4-4.1-8.1-8.7-11.1-13.6c3.1,4.9,6.9,9.5,11.3,13.7c3.2,3,6.7,5.7,10.3,8C435.1,220.3,431.6,217.6,428.3,214.5z M521.3,211.6
			c-11.6,10.6-26.4,16.7-42.3,17.3c-17.6,0.6-34.3-5.7-47.2-17.8c-10.4-9.8-17-22.2-19.5-35.2c-4-20.1,1.4-41.8,16.5-57.9
			c0-0.1,0.1-0.1,0.1-0.1c11.6-10.6,26.4-16.7,42.3-17.3c17.6-0.6,34.3,5.7,47.2,17.8c12.8,12,20.2,28.3,20.8,45.9
			c0.6,17.6-5.7,34.3-17.8,47.2C521.4,211.5,521.3,211.6,521.3,211.6z"/>
		<g>
			<g>
				<g>
					<g>
						<g>
							<g>
								<g>
									<g>
										<g>
											<g>
												<g>
													<path class="st3" d="M530.8,208.7c-12.9,13.8-30.4,21.7-49.2,22.3c-18.8,0.6-36.8-6.1-50.6-19l0,0
														c-28.4-26.6-29.9-71.4-3.3-99.8c12.9-13.8,30.4-21.7,49.2-22.3c18.8-0.6,36.8,6.1,50.6,19c11.2,10.5,18.2,23.7,21,37.7
														C552.8,168.2,547,191.5,530.8,208.7z M434.2,208.6c12.8,12,29.6,18.3,47.2,17.8c17.6-0.6,33.9-8,45.9-20.8
														c12-12.8,18.3-29.6,17.8-47.2c-0.6-17.6-8-33.9-20.8-45.9c-12.8-12-29.6-18.3-47.2-17.8c-17.6,0.6-33.9,8-45.9,20.8
														c-15.1,16.1-20.5,37.8-16.5,57.9C417.3,186.4,423.8,198.8,434.2,208.6z"/>
												</g>
											</g>
										</g>
									</g>
								</g>
							</g>
						</g>
					</g>
				</g>
				<g>
					<g>
						<g>
							<g>
								<g>
									<g>
										<g>
											<g>
												<g>
													<path class="st16" d="M530.8,208.7c-12.9,13.8-30.4,21.7-49.2,22.3c-18.8,0.6-36.8-6.1-50.6-19l0,0
														c-28.4-26.6-29.9-71.4-3.3-99.8c12.9-13.8,30.4-21.7,49.2-22.3c18.8-0.6,36.8,6.1,50.6,19c11.2,10.5,18.2,23.7,21,37.7
														C552.8,168.2,547,191.5,530.8,208.7z M434.2,208.6c12.8,12,29.6,18.3,47.2,17.8c17.6-0.6,33.9-8,45.9-20.8
														c12-12.8,18.3-29.6,17.8-47.2c-0.6-17.6-8-33.9-20.8-45.9c-12.8-12-29.6-18.3-47.2-17.8c-17.6,0.6-33.9,8-45.9,20.8
														c-15.1,16.1-20.5,37.8-16.5,57.9C417.3,186.4,423.8,198.8,434.2,208.6z"/>
												</g>
											</g>
										</g>
									</g>
								</g>
							</g>
						</g>
					</g>
				</g>
				<g class="st5">
					<g>
						<g>
							<g>
								<g>
									<g>
										<g>
											<g>
												<g>
													<path d="M530.8,208.7c-12.9,13.8-30.4,21.7-49.2,22.3c-18.8,0.6-36.8-6.1-50.6-19l0,0c-28.4-26.6-29.9-71.4-3.3-99.8
														c12.9-13.8,30.4-21.7,49.2-22.3c18.8-0.6,36.8,6.1,50.6,19c11.2,10.5,18.2,23.7,21,37.7
														C552.8,168.2,547,191.5,530.8,208.7z M434.2,208.6c12.8,12,29.6,18.3,47.2,17.8c17.6-0.6,33.9-8,45.9-20.8
														c12-12.8,18.3-29.6,17.8-47.2c-0.6-17.6-8-33.9-20.8-45.9c-12.8-12-29.6-18.3-47.2-17.8c-17.6,0.6-33.9,8-45.9,20.8
														c-15.1,16.1-20.5,37.8-16.5,57.9C417.3,186.4,423.8,198.8,434.2,208.6z"/>
												</g>
											</g>
										</g>
									</g>
								</g>
							</g>
						</g>
					</g>
				</g>
				<g>
					<g>
						<g>
							<g>
								<g>
									<g>
										<g>
											<g>
												<g>
													<path class="st16" d="M534.3,205.3c-12.9,13.8-30.4,21.7-49.2,22.3c-18.8,0.6-36.8-6.1-50.6-19l0,0
														c-28.4-26.6-29.9-71.4-3.3-99.8c12.9-13.8,30.4-21.7,49.2-22.3c18.8-0.6,36.8,6.1,50.6,19c11.2,10.5,18.2,23.7,21,37.7
														C556.2,164.8,550.4,188.1,534.3,205.3z M437.7,205.2c12.8,12,29.6,18.3,47.2,17.8c17.6-0.6,33.9-8,45.9-20.8
														c12-12.8,18.3-29.6,17.8-47.2c-0.6-17.6-8-33.9-20.8-45.9c-12.8-12-29.6-18.3-47.2-17.8c-17.6,0.6-33.9,8-45.9,20.8
														c-15.1,16.1-20.5,37.8-16.5,57.9C420.7,183,427.3,195.4,437.7,205.2z"/>
												</g>
											</g>
										</g>
									</g>
								</g>
							</g>
						</g>
					</g>
				</g>
			</g>
			<g>
				<g>
					<g>
						<g>
							<g>
								<g>
									<g>
										<g>
											<g>
												<g>
													<g>
														<g>
															<path class="st16" d="M582.9,265.5l2.2-2.2c2-1.9,1.8-5.4,0.4-6.8l-52.5-54.3l-10.5,10.2l52.4,54.2
																C576.7,268.4,580.3,268,582.9,265.5z"/>
														</g>
													</g>
												</g>
											</g>
										</g>
									</g>
								</g>
							</g>
						</g>
					</g>
				</g>
			</g>
		</g>
		<path class="st5" d="M559.4,229.5l9.1-8.9L566,218c0,0,5.1-8,16.9-7.9c11.9,0.1,13.8,0.2,13.8,0.2v-8l-35.8,4.1l-8.2,7.9l-4.2,8.8
			L559.4,229.5z"/>
		<g>
			<g>
				<path class="st17" d="M562.6,213.4c0.7-0.7,1.4-1.4,2.1-2c0.3-0.2,1-0.6,1.1-0.9c-0.3,0.6-0.9,0.7-0.2,0.2
					c0.2-0.2,0.5-0.3,0.7-0.5c1.7-1.2,3.5-2.2,5.4-3.1c0.4-0.2,1.8-0.7,0.2-0.1c0.5-0.2,1-0.4,1.5-0.6c1.1-0.4,2.2-0.8,3.3-1.1
					c2.1-0.6,4.3-1.1,6.5-1.4c0.4-0.1,1.4-0.1-0.2,0c0.2,0,0.4,0,0.6-0.1c0.6-0.1,1.1-0.1,1.7-0.2c1.3-0.1,2.5-0.2,3.8-0.2
					c2.4-0.1,4.8,0,7.2,0.2c1.1,0.1,2.3,0.3,3.4,0.4c-1.7-0.1,0.4,0.1,0.8,0.1c0.7,0.1,1.4,0.2,2.2,0.4c2.5,0.5,5,1.1,7.4,1.8
					c1.1,0.3,2.3,0.7,3.4,1.1c0.4,0.1,4,1.3,3.9,1.5c0-0.1-1.1-0.5,0,0c0.3,0.1,0.6,0.3,0.9,0.4c0.5,0.2,1,0.5,1.5,0.7
					c1.3,0.6,2.5,1.3,3.8,2c2.3,1.3,4.5,2.7,6.7,4.2c0.5,0.4,1.1,0.8,1.6,1.2c0.9,0.7-0.9-0.7,0,0c0.3,0.2,0.5,0.4,0.8,0.6
					c1,0.8,2,1.7,3,2.6c2.3,2.1,4.3,4.4,6.3,6.8c0.4,0.4,0.7,0.9,1.1,1.3c0.6,0.8-0.9-1.2-0.4-0.5c0.1,0.2,0.3,0.4,0.4,0.5
					c0.3,0.4,0.6,0.8,0.9,1.2c1.6,2.2,3.1,4.6,4.4,7c0.8,1.5,1.6,3.1,2.4,4.7c0.4,0.9,0.8,1.7,1.2,2.6c0.4,0.9-0.5-1.2-0.1-0.3
					c0.1,0.2,0.2,0.5,0.3,0.7c0.2,0.5,0.4,0.9,0.6,1.4c1.6,4.3,2.9,8.7,3.7,13.2c0.2,1.1,0.4,2.2,0.6,3.3c0.2,1.1-0.1-1.2,0-0.1
					c0,0.3,0.1,0.6,0.1,0.9c0.1,0.7,0.2,1.5,0.2,2.2c0.2,2.7,0.3,5.3,0.2,8c0,1.3-0.1,2.6-0.2,3.8c-0.1,0.7-0.1,1.4-0.2,2.1
					c0,0.4-0.1,0.7-0.1,1.1c0,0.3-0.1,1.9-0.1,0.5c-0.1,1.3-0.4,2.8-0.7,4.1c-0.3,1.7-0.7,3.3-1.1,4.9c-0.8,3.2-1.9,6.4-3.1,9.4
					c-0.2,0.4-0.3,0.8-0.5,1.2c0,0.1-0.6,1.5-0.2,0.4c-0.3,0.7-0.6,1.4-0.9,2c-0.8,1.8-1.6,3.5-2.5,5.2c-1.4,2.7-3,5.4-4.8,7.9
					c-0.7,1.1-1.5,2.2-2.3,3.3c-0.2,0.2-0.8,1.2-0.1,0.1c-0.2,0.3-0.4,0.6-0.7,0.8c-0.5,0.6-1,1.3-1.5,1.9c-1.7,2-3.6,3.9-5.5,5.8
					c-0.9,0.8-1.8,1.6-2.7,2.4c-0.4,0.4-0.9,0.7-1.3,1.1c-0.2,0.2-0.5,0.4-0.7,0.6c-0.3,0.2-1.4,1-0.2,0.1c-3.7,2.5-7.2,5-11.1,7.1
					c-1.7,0.9-3.5,1.6-5.2,2.5c1.7-0.8,0.2-0.1-0.3,0.1c-0.4,0.2-0.8,0.3-1.2,0.5c-0.8,0.3-1.6,0.6-2.3,0.8
					c-2.5,0.9-5.1,1.6-7.8,2.2c-0.9,0.2-1.8,0.4-2.7,0.5c-0.3,0.1-0.7,0.1-1,0.2c-0.9,0.1,1.6-0.2,0.9-0.1c-0.1,0-0.2,0-0.3,0
					c-0.2,0-0.4,0-0.6,0.1c-2.6,0.2-5.1,2.2-5,5c0.1,2.5,2.2,5.2,5,5c3.5-0.3,7-1,10.3-2c7.6-2.1,14.9-5.4,21.5-9.7
					c21.4-13.8,35.2-37.7,38.4-62.8c2.4-18.7-2.2-38.1-12.4-54c-8.4-13.1-20.7-22.9-35.1-28.8c-9.9-4-20.8-6-31.5-5.5
					c-9.5,0.4-19.5,2.8-27.3,8.4c-1.9,1.4-3.7,2.8-5.3,4.5c-1.8,1.9-2,5.2,0,7.1C557.5,215.2,560.7,215.4,562.6,213.4L562.6,213.4z"
					/>
			</g>
		</g>
		<g>
			
				<rect x="528.6" y="212.2" transform="matrix(0.7308 -0.6826 0.6826 0.7308 -6.3748 431.1692)" class="st17" width="29.7" height="22.9"/>
		</g>
		
			<rect x="552.9" y="203.7" transform="matrix(0.7308 -0.6826 0.6826 0.7308 6.6883 437.3806)" class="st3" width="9.9" height="13"/>
		<g class="st19">
			<path class="st8" d="M570.9,207.5c-0.2,0-0.5-2.3-1.9-4.8c-1.4-2.5-3.1-4-3-4.1c0.1-0.1,2.1,1.3,3.5,3.9
				C571,205,571.1,207.5,570.9,207.5z"/>
		</g>
		<g class="st19">
			<path class="st8" d="M580.9,204.5c-0.2,0,0.3-2.3-0.2-5.1c-0.4-2.8-1.6-4.8-1.5-4.9c0.1-0.1,1.5,1.9,2,4.8
				C581.7,202.2,581,204.5,580.9,204.5z"/>
		</g>
		<g class="st19">
			<path class="st8" d="M591.9,203.4c-0.2,0,0.6-2.3,0.6-5.1c0-2.8-0.9-5-0.7-5.1c0.1-0.1,1.2,2.1,1.3,5.1
				C593.1,201.3,592,203.5,591.9,203.4z"/>
		</g>
		<g class="st19">
			<path class="st8" d="M603.2,204.6c-0.1-0.1,1.1-2.1,1.6-4.9c0.6-2.8,0.2-5.1,0.3-5.1c0.1,0,0.8,2.3,0.2,5.2
				C604.8,202.7,603.3,204.6,603.2,204.6z"/>
		</g>
		<g class="st19">
			<path class="st8" d="M614.4,207.7c-0.1-0.1,1.4-1.9,2.4-4.5c1-2.7,1-5,1.1-5c0.1,0,0.4,2.4-0.7,5.2
				C616.2,206.1,614.5,207.8,614.4,207.7z"/>
		</g>
		<g class="st19">
			<path class="st8" d="M625.6,213.1c-0.1-0.1,1.7-1.7,3-4.2c1.4-2.5,1.7-4.8,1.8-4.8c0.1,0,0,2.4-1.4,5
				C627.7,211.7,625.7,213.2,625.6,213.1z"/>
		</g>
		<g class="st19">
			<path class="st8" d="M633.3,218.4c-0.1-0.1,1.8-1.5,3.5-3.8c1.6-2.3,2.2-4.6,2.4-4.5c0.1,0-0.2,2.4-1.9,4.8
				C635.5,217.3,633.3,218.5,633.3,218.4z"/>
		</g>
		<g class="st19">
			<path class="st8" d="M640,224.9c-0.1-0.1,2.1-1,4.2-3c2.1-1.9,3.1-4,3.3-3.9c0.1,0-0.8,2.3-2.9,4.3
				C642.3,224.3,640,225,640,224.9z"/>
		</g>
		<g class="st19">
			<path class="st8" d="M646.1,233.1c0-0.2,2.3-0.6,4.7-2.1c2.4-1.5,3.9-3.3,4-3.2c0.1,0.1-1.2,2.1-3.7,3.7
				C648.5,233,646.1,233.2,646.1,233.1z"/>
		</g>
		<g class="st19">
			<path class="st8" d="M651,242.6c0-0.2,2.3-0.3,4.9-1.5c2.6-1.1,4.3-2.8,4.4-2.7c0.1,0.1-1.5,2-4.2,3.2
				C653.4,242.8,651,242.8,651,242.6z"/>
		</g>
		<g class="st19">
			<path class="st8" d="M655.5,254.5c0-0.2,2.3-0.3,4.9-1.5c2.6-1.1,4.3-2.8,4.4-2.7c0.1,0.1-1.5,2-4.2,3.2
				C657.9,254.7,655.5,254.6,655.5,254.5z"/>
		</g>
		<g class="st19">
			<path class="st8" d="M657.4,265.1c0-0.2,2.3,0.3,5.1-0.2c2.8-0.5,4.8-1.7,4.9-1.5c0.1,0.1-1.9,1.5-4.8,2
				C659.7,266,657.3,265.3,657.4,265.1z"/>
		</g>
		<g class="st19">
			<path class="st8" d="M657.4,278.4c0-0.2,2.3,0.5,5.1,0.4c2.8-0.1,5-1.1,5-1c0.1,0.1-2.1,1.3-5,1.5
				C659.6,279.5,657.3,278.5,657.4,278.4z"/>
		</g>
		<g class="st19">
			<path class="st8" d="M655.1,290.4c0.1-0.1,2.1,1.1,4.9,1.6c2.8,0.6,5.1,0.2,5.1,0.3c0,0.1-2.3,0.8-5.2,0.2
				C657,292,655,290.5,655.1,290.4z"/>
		</g>
		<g class="st19">
			<path class="st8" d="M651.2,302.1c0.1-0.1,1.7,1.6,4.3,2.9c2.5,1.3,4.9,1.5,4.8,1.7c0,0.1-2.4,0.1-5.1-1.2
				C652.5,304.1,651,302.2,651.2,302.1z"/>
		</g>
		<g class="st19">
			<path class="st8" d="M644.6,314.1c0.1-0.1,1.5,1.8,3.9,3.3c2.4,1.6,4.7,2.1,4.6,2.2c0,0.1-2.4-0.2-4.9-1.8
				C645.8,316.3,644.5,314.2,644.6,314.1z"/>
		</g>
		<g class="st19">
			<path class="st8" d="M637.8,323.1c0.1-0.1,1.3,2,3.4,3.8c2.1,1.9,4.4,2.7,4.3,2.8c0,0.1-2.4-0.5-4.6-2.4
				C638.6,325.4,637.6,323.1,637.8,323.1z"/>
		</g>
		<g class="st19">
			<path class="st8" d="M628.6,332.1c0.2-0.1,0.9,2.2,2.6,4.4c1.7,2.2,3.8,3.4,3.7,3.6c0,0.1-2.3-0.9-4.1-3.3
				C629,334.6,628.5,332.2,628.6,332.1z"/>
		</g>
		<g class="st19">
			<path class="st8" d="M618.1,338.8c0.2,0,0.2,2.3,1.3,5c1.1,2.6,2.7,4.4,2.5,4.5c-0.1,0.1-1.9-1.5-3-4.3
				C617.8,341.2,618,338.8,618.1,338.8z"/>
		</g>
		<g class="st19">
			<path class="st8" d="M602.8,344.5c0.2,0,0.2,2.3,1.3,5c1.1,2.6,2.7,4.4,2.5,4.5c-0.1,0.1-1.9-1.5-3-4.3
				C602.5,346.9,602.7,344.5,602.8,344.5z"/>
		</g>
		<path class="st10" d="M596.8,341.2c0,0.4,0,19.2,0,19.2l-7,0.5l-5.4-15l11.9-4.7"/>
		<polygon class="st5" points="546.1,236.9 548.9,239.8 559.4,229.5 556.9,226.8 		"/>
		<g>
			<g>
				<g>
					<path class="st20" d="M495.3,154c3.4-0.6,6.4-2.5,8.4-5.3c2.1-3,2.8-6.8,2-10.4c-0.4-1.8-3.1-1-2.7,0.7c0.6,2.8,0,5.9-1.7,8.2
						c-1.6,2.2-4.1,3.6-6.7,4c-0.7,0.1-1.2,1-1,1.7C493.8,153.8,494.6,154.1,495.3,154L495.3,154z"/>
				</g>
				<g>
					<path class="st20" d="M496.5,163.7c5.7-2.9,12.1-4.1,18.5-3.5c0.8,0.1,1.4-0.7,1.4-1.4c0-0.8-0.6-1.3-1.4-1.4
						c-6.9-0.7-13.8,0.7-19.9,3.8C493.5,162.1,494.9,164.5,496.5,163.7L496.5,163.7z"/>
				</g>
				<g>
					<path class="st20" d="M495.8,174.5c5.6,0.7,10.8,4.1,13.7,8.9c0.9,1.5,3.4,0.1,2.4-1.4c-3.5-5.7-9.5-9.5-16.1-10.3
						c-0.8-0.1-1.4,0.7-1.4,1.4C494.4,173.9,495,174.4,495.8,174.5L495.8,174.5z"/>
				</g>
				<g>
					<path class="st20" d="M470.9,150c-2.6-0.4-5.1-1.8-6.7-4c-1.7-2.3-2.3-5.4-1.7-8.2c0.4-1.8-2.3-2.5-2.7-0.7
						c-0.8,3.5-0.1,7.4,2,10.4c2,2.8,5,4.7,8.4,5.3c0.7,0.1,1.5-0.2,1.7-1C472,151.1,471.6,150.2,470.9,150L470.9,150z"/>
				</g>
				<g>
					<path class="st20" d="M470.4,160c-6.1-3.2-13-4.5-19.9-3.8c-0.8,0.1-1.4,0.6-1.4,1.4c0,0.7,0.6,1.5,1.4,1.4
						c6.4-0.6,12.8,0.5,18.5,3.5C470.6,163.2,472,160.8,470.4,160L470.4,160z"/>
				</g>
				<g>
					<path class="st20" d="M469.7,170.7c-6.6,0.8-12.6,4.6-16.1,10.3c-0.9,1.5,1.5,2.9,2.4,1.4c3-4.8,8.1-8.2,13.7-8.9
						c0.7-0.1,1.4-0.6,1.4-1.4C471.1,171.4,470.5,170.6,469.7,170.7L469.7,170.7z"/>
				</g>
				<path class="st20" d="M472.5,145.7c0,0-1-10,10.3-10c11.3,0,10.8,9.8,10.8,9.8L472.5,145.7z"/>
				<g>
					<path class="st20" d="M472.2,132.2c0.1,0.9,0.3,1.7,0.7,2.5c0.3,0.7,0.8,1.3,1.3,1.9c1,1.1,2.4,1.9,3.9,2.2
						c0.7,0.2,1.5-0.2,1.7-1c0.2-0.7-0.2-1.6-1-1.7c-0.3-0.1-0.6-0.1-0.9-0.2c-0.1,0-0.1-0.1-0.2-0.1c0.2,0.1,0.2,0.1,0.1,0.1
						c0,0-0.1,0-0.1-0.1c-0.1-0.1-0.3-0.1-0.4-0.2c-0.1-0.1-0.2-0.1-0.4-0.2c-0.1,0-0.1-0.1-0.2-0.1c0,0-0.3-0.2-0.1,0
						c0.2,0.1,0,0-0.1-0.1c-0.1,0-0.1-0.1-0.2-0.1c-0.1-0.1-0.2-0.2-0.3-0.3c-0.1-0.1-0.2-0.2-0.3-0.3c-0.2-0.2,0.1,0.2,0,0
						c0-0.1-0.1-0.1-0.1-0.2c-0.2-0.3-0.3-0.5-0.5-0.8c0,0-0.1-0.2-0.1-0.2c0.1,0.2,0.1,0.2,0.1,0.1c0,0,0-0.1,0-0.1
						c-0.1-0.1-0.1-0.3-0.1-0.4c0-0.1-0.1-0.3-0.1-0.4c0-0.1,0-0.2-0.1-0.3c0-0.1-0.1-0.4,0,0c0-0.4-0.1-0.7-0.4-1
						c-0.2-0.2-0.6-0.4-1-0.4c-0.4,0-0.7,0.1-1,0.4C472.3,131.5,472.1,131.8,472.2,132.2L472.2,132.2z"/>
				</g>
				<g>
					<path class="st20" d="M490.3,132.2c0.1-0.5,0,0.1,0,0.2c0,0.1-0.1,0.3-0.1,0.4c0,0.2-0.1,0.3-0.2,0.5c0,0-0.1,0.3,0,0.1
						c0.1-0.2,0,0,0,0.1c-0.1,0.3-0.3,0.5-0.5,0.8c0,0.1-0.1,0.1-0.1,0.2c-0.1,0.2,0.1-0.2,0,0c-0.1,0.1-0.2,0.2-0.3,0.4
						c-0.1,0.1-0.2,0.2-0.3,0.3c-0.1,0.1-0.3,0.2-0.3,0.3c0.2-0.1,0.2-0.2,0.1-0.1c0,0-0.1,0.1-0.1,0.1c-0.1,0-0.1,0.1-0.2,0.1
						c-0.1,0.1-0.2,0.2-0.4,0.2c-0.1,0.1-0.3,0.1-0.4,0.2c0,0-0.3,0.1-0.1,0c0.2-0.1,0,0-0.1,0c-0.3,0.1-0.6,0.2-0.9,0.3
						c-0.7,0.2-1.2,1-1,1.7c0.2,0.8,1,1.1,1.7,1c1.5-0.3,2.9-1.1,3.9-2.2c0.5-0.6,1-1.2,1.3-1.9c0.4-0.8,0.6-1.6,0.7-2.5
						c0-0.3-0.2-0.8-0.4-1c-0.2-0.2-0.6-0.4-1-0.4c-0.4,0-0.7,0.1-1,0.4C490.5,131.5,490.4,131.8,490.3,132.2L490.3,132.2z"/>
				</g>
			</g>
			<g>
				<path class="st20" d="M481.4,149.3c0-0.4,0.1-0.7,0.3-1l-9.5-0.2c0,0-9.5,7.7-7.4,22.5c1.9,13.4,9.2,17.9,16.7,17.8
					C481.4,175.3,481.4,162.3,481.4,149.3z"/>
				<path class="st20" d="M494.7,148.1l-9.5,0.2c0.2,0.3,0.3,0.6,0.3,1c0,13,0,26,0,39c7.5,0.1,14.7-4.3,16.7-17.8
					C504.3,155.7,494.7,148.1,494.7,148.1z"/>
			</g>
		</g>
		<path class="st11" d="M202.1,325.1l3.8-1.2l-0.6-6.6l-4-0.5c-0.5-1.3-1.2-2.6-2-3.8l1.8-3.6l-5.1-4.2l-3.2,2.4
			c-1.3-0.6-2.7-1-4.1-1.3l-1.2-3.8l-6.6,0.6l-0.5,4c-1.3,0.5-2.6,1.2-3.8,2l-3.6-1.8l-4.2,5.1l2.4,3.2c-0.6,1.3-1,2.7-1.3,4.1
			l-3.8,1.2l0.6,6.6l4,0.5c0.5,1.3,1.2,2.6,2,3.8l-1.8,3.6l5.1,4.2l3.2-2.4c1.3,0.6,2.7,1,4.1,1.3l1.2,3.8l6.6-0.6l0.5-4
			c1.3-0.5,2.6-1.2,3.8-2l3.6,1.8l4.2-5.1l-2.4-3.2C201.5,327.9,201.9,326.5,202.1,325.1z M191.7,326.7c-2.5,3-7,3.4-10,0.9
			c-3-2.5-3.4-7-0.9-10c2.5-3,7-3.4,10-0.9S194.2,323.7,191.7,326.7z"/>
		<g>
			<path class="st21" d="M516,331.2H227.4c-4.9,0-8.9-4-8.9-8.9l0,0c0-4.9,4-8.9,8.9-8.9H516c4.9,0,8.9,4,8.9,8.9l0,0
				C524.9,327.3,520.9,331.2,516,331.2z"/>
			<g>
				<path class="st22" d="M227.4,313.5c-4.9,0-8.9,4-8.9,8.9c0,4.9,4,8.9,8.9,8.9h147.1l9.2-17.8H227.4z"/>
				<polygon class="st23" points="337.4,331.2 346.3,313.5 337.9,313.5 328.6,331.2 				"/>
				<polygon class="st23" points="313.3,331.2 322.2,313.5 313.8,313.5 304.5,331.2 				"/>
				<polygon class="st23" points="289.2,331.2 298.1,313.5 289.7,313.5 280.4,331.2 				"/>
				<polygon class="st23" points="265.2,331.2 274.1,313.5 265.6,313.5 256.4,331.2 				"/>
				<polygon class="st23" points="241.1,331.2 250,313.5 241.6,313.5 232.3,331.2 				"/>
				<polygon class="st23" points="360.5,331.2 369.4,313.5 361,313.5 351.7,331.2 				"/>
			</g>
		</g>
	</g>
</g>
<g id="Layer_15">
	<g id="Character_00000111896329709708513230000012262732437349863598_">
		<path class="st11" d="M84.6,450.1c0,0-1.3,9.6,0,11.8c1.3,2.3,5.1,9.9,3.3,17.8c-1.8,7.8-7.5,10.1-10.8,10.1
			c-3.3,0-12.6-5.3-12.5-15.9c0-7.8,5.1-10.8,5.9-14.3c0.8-3.5,0.5-9.6,0.5-9.6H84.6z"/>
	</g>
	<g>
		<path class="st24" d="M89.3,133c0.3-7.5,0.5-15,2-22.3c1.4-7.3,3.2-14.5,7.8-20.4l43.2,2.3c1.7,6.6,3.3,13.4,2.7,20.2
			c-0.7,6.6-3.6,12.9-3.1,19.5c0.3,4.7,2.3,9,3.8,13.5c1.5,4.4,2.4,9.4,0.7,13.7c-0.4,1.1-1.1,2.2-2.1,2.8c-1.2,0.8-2.8,0.8-4.2,0.8
			c-17.3,0-34.5-0.4-51.7-1.2C88.6,152.4,89,142.7,89.3,133z"/>
		<path class="st8" d="M95.9,108.9c-0.3,9.2,3.7,18.4,10.5,24.6c1.6-4.5,3.1-9,4.7-13.5"/>
		<g>
			<path class="st24" d="M131.2,82.1c-4-2.2-8.9-2.5-13.4-1.6c-4.5,0.9-8.7,2.9-12.6,5.2c-2.2,1.3-4.4,2.7-6,4.7
				c-2.9,3.6-5.8,9.6-6.1,14.3c-0.2,3.8,1.2,13.2,2.8,16.6c1.5,3.1,8.3,5.5,11.7,6.3l31.1-36C137.6,87.6,134.8,84.1,131.2,82.1z"/>
		</g>
		<g>
			<path class="st24" d="M136.5,87l-7.5-1.3c4.1,9.6,5.2,31.7,7.5,41.9c2.7-4,9.1-16,8.8-20.8C145,101.9,145.4,86.2,136.5,87z"/>
		</g>
		<path class="st25" d="M101.2,103c0.3-5.5,4.1-10.2,9.5-11.6l17.2-4.4c7.4-0.8,12.4,8.3,12.9,15.7c0.5,8.2,0.9,16.9-0.1,23
			c-1.9,12.3-11.5,13.9-11.5,13.9c0,0,0.1,3.7,0.1,7.3l-0.2,0.5c-4.4,10.3-19.1,10-24.2-0.1l0,0l-3.8-44.2
			C101.1,103,101.1,103.4,101.2,103z"/>
		<g>
			<g>
				<g>
					<g>
						<g>
							<g>
								<g>
									<g>
										<g>
											<g>
												<g>
													<g>
														<g>
															<g>
																<g>
																	<path class="st8" d="M136.6,113.1c0,0.8-0.7,1.6-1.5,1.6c-0.9,0-1.6-0.6-1.6-1.4c0-0.8,0.7-1.6,1.5-1.6
																		C135.8,111.6,136.6,112.2,136.6,113.1z"/>
																</g>
															</g>
														</g>
													</g>
												</g>
											</g>
										</g>
									</g>
								</g>
							</g>
						</g>
					</g>
				</g>
			</g>
		</g>
		<g>
			<g>
				<g>
					<g>
						<g>
							<g>
								<g>
									<g>
										<g>
											<g>
												<g>
													<g>
														<g>
															<g>
																<g>
																	<path class="st8" d="M121.6,113.5c0,0.8-0.7,1.6-1.5,1.6c-0.9,0-1.6-0.6-1.6-1.4c0-0.8,0.7-1.6,1.5-1.6
																		C120.9,112,121.6,112.6,121.6,113.5z"/>
																</g>
															</g>
														</g>
													</g>
												</g>
											</g>
										</g>
									</g>
								</g>
							</g>
						</g>
					</g>
				</g>
			</g>
		</g>
		<g>
			<g>
				<g>
					<g>
						<g>
							<g>
								<g>
									<g>
										<g>
											<g>
												<g>
													<g>
														<g>
															<g>
																<g>
																	<g>
																		<path class="st26" d="M128,120.9c0-0.1,1.1-0.3,2.8-0.5c0.4,0,0.9-0.1,0.9-0.4c0.1-0.3-0.1-0.8-0.3-1.3
																			c-0.4-1.1-0.8-2.2-1.3-3.3c-1.8-4.7-3.1-8.6-2.9-8.7c0.2-0.1,1.8,3.7,3.6,8.4c0.4,1.2,0.9,2.3,1.2,3.3
																			c0.2,0.5,0.5,1.1,0.2,1.7c-0.1,0.3-0.4,0.6-0.7,0.6c-0.3,0.1-0.5,0.1-0.7,0.1C129.1,121,128,121,128,120.9z"/>
																	</g>
																</g>
															</g>
														</g>
													</g>
												</g>
											</g>
										</g>
									</g>
								</g>
							</g>
						</g>
					</g>
				</g>
			</g>
		</g>
		<g>
			<g>
				<g>
					<g>
						<path class="st27" d="M112.8,135.3c0,0,4,8.5,16.5,7.3l0-2.9C129.2,139.7,121,140.2,112.8,135.3z"/>
					</g>
				</g>
			</g>
		</g>
		<g>
			<g>
				<g>
					<g>
						<g>
							<g>
								<g>
									<g>
										<g>
											<g>
												<g>
													<g>
														<path class="st28" d="M122.9,105.8c-0.2,0.5-1.9,0.2-3.9,0.5c-2,0.2-3.6,0.8-3.9,0.4c-0.1-0.2,0.2-0.6,0.8-1.1
															c0.6-0.4,1.7-0.9,2.9-1c1.2-0.1,2.3,0.1,3,0.3C122.6,105.2,122.9,105.6,122.9,105.8z"/>
													</g>
												</g>
											</g>
										</g>
									</g>
								</g>
							</g>
						</g>
					</g>
				</g>
			</g>
		</g>
		<g>
			<g>
				<g>
					<g>
						<g>
							<g>
								<g>
									<g>
										<g>
											<g>
												<g>
													<g>
														<path class="st28" d="M138.4,105.6c-0.3,0.4-1.5,0-2.9,0c-1.4-0.1-2.6,0.3-2.9-0.1c-0.1-0.2,0.1-0.6,0.6-1
															c0.5-0.4,1.4-0.7,2.4-0.6c1,0,1.8,0.4,2.3,0.8C138.3,105,138.5,105.4,138.4,105.6z"/>
													</g>
												</g>
											</g>
										</g>
									</g>
								</g>
							</g>
						</g>
					</g>
				</g>
			</g>
		</g>
		<g>
			<g>
				<g>
					<g>
						<path class="st24" d="M137.4,91.5c-0.8-1.9-2.8-3-4.8-3.1c-2-0.1-4,0.7-5.7,1.7c-7.4,4.2-11.2,14.5-18.5,18.9
							c-1.8,1.1-4.1,0.1-5.7,1.5c-1.5,1.4-2.5,3.7-1.7,5.6c-1-1.3-2-2.7-2.5-4.3c-0.6-1.6-0.6-3.4,0.2-4.8c0.6-1.1,1.7-1.9,2.1-3.1
							c0.3-1.1-0.2-2.2-0.1-3.3c0-1.1,0.6-2.2,1.1-3.1c2.9-5,6.8-9.6,11.9-12.4c3.3-1.8,7.1-2.9,10.9-2.8c3.8,0.1,7.6,1.5,10.4,4.1
							C136.5,87.8,138.3,89.4,137.4,91.5"/>
					</g>
				</g>
			</g>
		</g>
		<g>
			<g>
				<g>
					<g>
						<g>
							<g>
								<g>
									<g>
										<g>
											<g>
												<g>
													<g>
														<g>
															<g>
																<g>
																	<g>
																		<g>
																			<g>
																				<path class="st25" d="M102.9,112c-0.1-0.4-6.6-2.7-6.7,4.2c-0.1,6.6,6.7,5.3,6.7,5.1
																					C102.9,121.1,102.9,112,102.9,112z"/>
																			</g>
																		</g>
																	</g>
																</g>
															</g>
														</g>
													</g>
												</g>
											</g>
										</g>
									</g>
								</g>
							</g>
						</g>
					</g>
				</g>
			</g>
		</g>
		<g>
			<g>
				<g>
					<g>
						<g>
							<g>
								<g>
									<g>
										<g>
											<g>
												<g>
													<g>
														<g>
															<g>
																<g>
																	<g>
																		<g>
																			<g>
																				<g>
																					<path class="st27" d="M100.8,118.8c0,0-0.1,0.1-0.3,0.2c-0.2,0.1-0.5,0.1-0.9,0c-0.7-0.3-1.3-1.4-1.3-2.6
																						c0-0.6,0.1-1.2,0.3-1.7c0.2-0.5,0.5-0.8,0.9-0.9c0.4-0.1,0.6,0.1,0.7,0.3c0.1,0.2,0,0.3,0.1,0.3
																						c0,0,0.1-0.1,0.1-0.4c0-0.1-0.1-0.3-0.3-0.4c-0.2-0.1-0.4-0.2-0.6-0.2c-0.5,0-1,0.5-1.2,1
																						c-0.3,0.5-0.4,1.2-0.4,1.8c0,1.3,0.7,2.6,1.7,2.9c0.5,0.1,0.9,0,1.1-0.2C100.8,118.9,100.8,118.8,100.8,118.8z
																						"/>
																				</g>
																			</g>
																		</g>
																	</g>
																</g>
															</g>
														</g>
													</g>
												</g>
											</g>
										</g>
									</g>
								</g>
							</g>
						</g>
					</g>
				</g>
			</g>
		</g>
		<path class="st24" d="M101.9,110.5c-0.1,1.8-0.2,3.7,0.7,5.3c0.8,1.6,3,2.7,4.6,1.8c1.3-0.7,1.7-2.4,1.9-3.9
			c0.6-4.2,0.9-8.5,1.6-12.7L101.9,110.5z"/>
		<g>
			<path class="st24" d="M149.4,147.6c0,0.1-0.2,0.1-0.7,0.1c-0.4,0-1.1-0.1-1.8-0.5c-0.7-0.3-1.6-0.9-2.4-1.8c-0.8-0.9-1.5-2-2-3.4
				c-0.5-1.4-0.7-3-0.8-4.6c-0.1-1.7-0.1-3.4,0-5.2c0.1-3.6,0.6-7.6,1.1-11.7c0.5-4.1,0.9-8,1.1-11.6c0.2-3.5,0.1-6.7-0.1-9.4
				c-0.5-5.3-1.6-8.5-1.2-8.7c0.1,0,0.2,0.1,0.4,0.5c0.1,0.2,0.2,0.4,0.4,0.7c0.1,0.3,0.3,0.6,0.4,0.9c0.6,1.4,1.3,3.6,1.8,6.3
				c0.5,2.7,0.7,6,0.7,9.7c-0.1,3.7-0.4,7.6-0.9,11.8c-0.5,4.1-1,8-1.2,11.6c-0.1,1.8-0.2,3.5-0.2,5c0,1.5,0.1,2.9,0.5,4.2
				c0.6,2.5,2,4.1,3.2,4.9C148.5,147.2,149.4,147.4,149.4,147.6z"/>
		</g>
		<g>
			<g>
				<g>
					<g>
						<g>
							<g>
								<g>
									<g>
										<g>
											<g>
												<g>
													<g>
														<g>
															<g>
																<g>
																	<g>
																		<g>
																			<path class="st27" d="M127.2,124.4c-1.2-0.5-2.7-0.3-3.8,0.5c-0.8,0.6-1.4,1.4-1.5,2.4c-0.1,1,0.3,2,1.2,2.3
																				c0.9,0.4,2.1,0,2.8-0.8c0.8-0.8,1.2-1.8,1.6-2.8c0.1-0.3,0.2-0.6,0.2-0.9c0-0.3-0.1-0.6-0.4-0.7"/>
																		</g>
																	</g>
																</g>
															</g>
														</g>
													</g>
												</g>
											</g>
										</g>
									</g>
								</g>
							</g>
						</g>
					</g>
				</g>
			</g>
			<g>
				<g>
					<g>
						<g>
							<g>
								<g>
									<g>
										<g>
											<g>
												<g>
													<g>
														<g>
															<g>
																<g>
																	<g>
																		<g>
																			<g>
																				<path class="st29" d="M120.6,123.9c0.3-0.2,1.5,1.8,4.1,2.3c2.6,0.4,4.6-1.1,4.8-0.8c0.1,0.1-0.3,0.7-1.2,1.2
																					c-0.9,0.6-2.4,1-4,0.8c-1.6-0.3-2.7-1.2-3.3-2C120.5,124.6,120.4,124,120.6,123.9z"/>
																			</g>
																		</g>
																	</g>
																</g>
															</g>
														</g>
													</g>
												</g>
											</g>
										</g>
									</g>
								</g>
							</g>
						</g>
					</g>
				</g>
			</g>
		</g>
		<g>
			<g>
				<g>
					<path class="st3" d="M127.5,111.3c0,0,0-0.7-0.3-1.9c-0.1-0.6-0.4-1.3-0.9-2.1c-0.5-0.8-1.1-1.6-2-2.2c-0.9-0.7-2-1.2-3.3-1.5
						c-1.3-0.2-2.8-0.2-4.1,0.3c-0.7,0.2-1.4,0.6-2,1.1c-0.3,0.2-0.6,0.5-0.9,0.8c-0.3,0.3-0.5,0.6-0.8,0.9c-1,1.3-1.5,2.9-1.5,4.6
						c0,1.7,0.6,3.3,1.5,4.6c0.2,0.3,0.5,0.6,0.8,0.9c0.3,0.3,0.6,0.5,0.9,0.8c0.6,0.5,1.3,0.8,2,1.1c1.4,0.5,2.9,0.6,4.1,0.3
						c1.3-0.2,2.4-0.8,3.3-1.5c0.9-0.7,1.6-1.5,2-2.2c0.5-0.8,0.7-1.5,0.9-2.1C127.5,112,127.5,111.3,127.5,111.3c0,0,0,0,0,0.1
						c0,0.1,0,0.2,0,0.4c0,0.2,0,0.4-0.1,0.6c0,0.2-0.1,0.5-0.2,0.8c-0.1,0.6-0.4,1.4-0.9,2.1c-0.5,0.8-1.1,1.6-2,2.3
						c-0.9,0.7-2.1,1.3-3.4,1.5c-1.3,0.2-2.8,0.2-4.3-0.3c-0.7-0.2-1.4-0.6-2.1-1.1c-0.3-0.2-0.6-0.5-0.9-0.8
						c-0.3-0.3-0.6-0.6-0.8-0.9c-1-1.3-1.6-3-1.6-4.8c0-1.8,0.6-3.5,1.6-4.8c0.2-0.3,0.5-0.6,0.8-0.9c0.3-0.3,0.6-0.6,0.9-0.8
						c0.6-0.5,1.3-0.8,2.1-1.1c1.4-0.5,2.9-0.6,4.3-0.3c1.3,0.2,2.5,0.8,3.4,1.5c0.9,0.7,1.6,1.5,2,2.3c0.5,0.8,0.7,1.5,0.9,2.1
						c0.1,0.3,0.1,0.6,0.2,0.8c0,0.2,0.1,0.4,0.1,0.6c0,0.2,0,0.3,0,0.4C127.5,111.3,127.5,111.3,127.5,111.3z"/>
				</g>
				<g>
					<path class="st3" d="M145.5,111c0,0,0-0.7-0.3-1.9c-0.1-0.6-0.4-1.3-0.9-2.1c-0.5-0.8-1.1-1.6-2-2.2c-0.9-0.7-2-1.2-3.3-1.5
						c-1.3-0.2-2.8-0.2-4.1,0.3c-0.7,0.2-1.4,0.6-2,1.1c-0.3,0.2-0.6,0.5-0.9,0.8c-0.3,0.3-0.5,0.6-0.8,0.9c-1,1.3-1.5,2.9-1.5,4.6
						c0,1.7,0.6,3.3,1.5,4.6c0.2,0.3,0.5,0.6,0.8,0.9c0.3,0.3,0.6,0.5,0.9,0.8c0.6,0.5,1.3,0.8,2,1.1c1.4,0.5,2.9,0.6,4.1,0.3
						c1.3-0.2,2.4-0.8,3.3-1.5c0.9-0.7,1.6-1.5,2-2.2c0.5-0.8,0.7-1.5,0.9-2.1C145.5,111.7,145.4,111,145.5,111c0,0,0,0,0,0.1
						c0,0.1,0,0.2,0,0.4c0,0.2,0,0.4-0.1,0.6c0,0.2-0.1,0.5-0.2,0.8c-0.1,0.6-0.4,1.4-0.9,2.1c-0.5,0.8-1.1,1.6-2,2.3
						c-0.9,0.7-2.1,1.3-3.4,1.5c-1.3,0.2-2.8,0.2-4.3-0.3c-0.7-0.2-1.4-0.6-2.1-1.1c-0.3-0.2-0.6-0.5-0.9-0.8
						c-0.3-0.3-0.6-0.6-0.8-0.9c-1-1.3-1.6-3-1.6-4.8c0-1.8,0.6-3.5,1.6-4.8c0.2-0.3,0.5-0.6,0.8-0.9c0.3-0.3,0.6-0.6,0.9-0.8
						c0.6-0.5,1.3-0.8,2.1-1.1c1.4-0.5,2.9-0.6,4.3-0.3c1.3,0.2,2.5,0.8,3.4,1.5c0.9,0.7,1.6,1.5,2,2.3c0.5,0.8,0.7,1.5,0.9,2.1
						c0.1,0.3,0.1,0.6,0.2,0.8c0,0.2,0.1,0.4,0.1,0.6c0,0.2,0,0.3,0,0.4C145.5,111,145.5,111,145.5,111z"/>
				</g>
				<g>
					<path class="st3" d="M129.6,110c0,0-0.1-0.1-0.3-0.2c-0.2-0.1-0.5-0.3-0.8-0.3c-0.3,0-0.7,0.1-0.9,0.2
						c-0.2,0.1-0.3,0.2-0.3,0.2c0,0,0-0.2,0.2-0.3c0.2-0.2,0.6-0.3,1-0.3c0.4,0,0.7,0.3,0.9,0.4C129.6,109.8,129.6,110,129.6,110z"
						/>
				</g>
				<g>
					<path class="st3" d="M111.8,109.3c0,0.1-2.2,0.6-4.9,1.1c-2.7,0.6-4.9,1-4.9,0.9c0-0.1,2.2-0.6,4.9-1.1
						C109.6,109.6,111.7,109.2,111.8,109.3z"/>
				</g>
			</g>
			<g>
				<path class="st18" d="M115.4,116.9c0,0-0.2,0-0.5-0.2c-0.3-0.2-0.7-0.5-1.1-0.9c-0.4-0.5-0.8-1.1-1.1-1.8
					c-0.3-0.7-0.5-1.6-0.5-2.5c0-1.8,0.7-3.4,1.4-4.4c0.3-0.5,0.7-0.8,0.9-1.1c0.3-0.2,0.4-0.3,0.4-0.3c0,0-0.6,0.5-1.2,1.5
					c-0.6,1-1.3,2.5-1.3,4.3c0,0.9,0.2,1.7,0.4,2.4c0.3,0.7,0.6,1.3,1,1.8c0.4,0.5,0.7,0.8,1,1C115.3,116.8,115.5,116.9,115.4,116.9
					z"/>
			</g>
			<g>
				<path class="st18" d="M119,118.2c0,0.1-0.7,0-1.4-0.2c-0.8-0.2-1.3-0.6-1.3-0.7c0-0.1,0.6,0.2,1.4,0.4
					C118.4,118,119,118.1,119,118.2z"/>
			</g>
			<g>
				<path class="st18" d="M137.7,104c0,0-0.5,0-1.4,0.2c-0.8,0.2-2,0.6-3,1.4c-1.1,0.8-1.8,1.7-2.2,2.5c-0.4,0.7-0.6,1.3-0.6,1.3
					c0,0,0-0.1,0.1-0.4c0.1-0.2,0.2-0.6,0.4-1c0.4-0.8,1.1-1.8,2.2-2.6c1.1-0.8,2.3-1.2,3.2-1.3c0.4-0.1,0.8-0.1,1-0.1
					C137.5,104,137.7,104,137.7,104z"/>
			</g>
			<g>
				<path class="st18" d="M130.8,113.2c-0.1,0-0.4-0.5-0.5-1.2c-0.1-0.7,0-1.4,0.1-1.4c0.1,0,0.1,0.6,0.2,1.3
					C130.7,112.6,130.9,113.1,130.8,113.2z"/>
			</g>
		</g>
		<path class="st30" d="M78.8,493.4c15.5,0.3,25.7-7.9,36-7.9s58.3-1.7,64.4-7.9c6.1-6.2-2.9-13.8-22.7-16.7
			c-19.8-2.9-89-2.6-96.7,0C52.1,463.5,32.6,492.5,78.8,493.4z"/>
		<g>
			<g>
				<g>
					<g>
						<g>
							<g>
								<g>
									<g>
										<g>
											<g>
												<g>
													<g>
														<path class="st25" d="M162.1,181.1c3.3,9.8,3,8.9,9.2,38.1c1.2,5.4-0.9,13.8-5.7,16.4c-4.8,2.6-13.5-0.3-16.4-4.9
															l-4.6-44L162.1,181.1z"/>
													</g>
												</g>
											</g>
										</g>
									</g>
								</g>
							</g>
						</g>
						<g>
							<g>
								<g>
									<g>
										<g>
											<g>
												<g>
													<line class="st16" x1="144.6" y1="152.3" x2="144.6" y2="152.3"/>
												</g>
											</g>
										</g>
									</g>
								</g>
							</g>
							<g>
								<g>
									<g>
										<g>
											<g>
												<g>
													<path class="st16" d="M88.3,238.8l-2.8-45.4l-3.9,15.1l-23.5-5.5c0,0,8.1-15.2,12.4-31.6c2.4-9.4,10.6-14.2,12.6-15.2
														l0,0l0.4-0.2c0,0,0,0,0,0l0,0l19.1-9.6c4.6,4.9,11.2,8.8,17.7,6.9c3.5-1,7.1-3.6,9.3-6.4l15.3,5.2l0,0
														c3.9,1.4,6.9,4.2,9.4,8.6c3.2,5.6,13.4,31.6,13.6,32.1l-17.7,1.7c0,0-3,24.1-2.7,44.2c0.2,13.2,4.1,23.7,3.7,28.1
														c0,0-3.4,3.2-15,3.7c-23.5,1.1-56.1-0.6-56.1-0.6c0.5-3.5,1.1-9.4,1.4-12.4L88.3,238.8z"/>
												</g>
											</g>
										</g>
									</g>
								</g>
							</g>
						</g>
					</g>
				</g>
			</g>
			<g>
				<g>
					<g>
						<g>
							<g>
								<g>
									<g>
										<path class="st25" d="M57.8,214.1c0.8-5.8,1.4-10.8,1.4-10.8l18.8,4.4l-0.8,3l14.5-14.8l2.3,0.2l7.3,7.6
											c0,0-6.4,13.5-10.1,18.7c-4.8,6.8-12.4,17.2-22.8,16.4C58.9,238,56.5,224.4,57.8,214.1z"/>
									</g>
								</g>
							</g>
						</g>
					</g>
				</g>
				<g>
					<g>
						<g>
							<g>
								<g>
									<g>
										<g>
											<path class="st27" d="M68,217.5c-0.1-0.1,1.6-2,4.1-3.8c2.5-1.8,4.8-2.9,4.9-2.7c0.1,0.2-2.1,1.4-4.6,3.2
												C70,216,68.2,217.7,68,217.5z"/>
										</g>
									</g>
								</g>
							</g>
						</g>
					</g>
				</g>
				<g>
					<g>
						<g>
							<g>
								<g>
									<g>
										<g>
											<path class="st25" d="M117.2,176.6l-6.5-3.3l-8.4,2.7l-4.2,3.8l-6.4,16.1l-5.1,6.5l9,11.8l5.7-10.4c0,0,4.8-2.1,6.8-5.2
												c1.9-3.1,2.8-4.7,2.8-4.7s2.8-1.3,3.3-2.6c0.5-1.3,0.5-2.3,0.5-2.3l-1.4-2.1c0,0,0.1-1.9-0.4-2.6
												c-0.6-0.7-1.1-0.9-1.1-0.9s0.4-1.7-0.2-2.4c-0.7-0.6-3.9-1.8-3.9-1.8l0,0l2.8-1.6C110.6,177.5,116.8,179.5,117.2,176.6z"
												/>
										</g>
									</g>
								</g>
							</g>
						</g>
					</g>
					<g>
						<g>
							<g>
								<g>
									<g>
										<g>
											<g>
												<path class="st27" d="M107.6,182.4c0,0.1,1,0.1,2.2,0.4c1.2,0.2,2.1,0.6,2.1,0.5c0-0.1-0.9-0.6-2.1-0.8
													C108.6,182.3,107.6,182.4,107.6,182.4z"/>
											</g>
										</g>
									</g>
								</g>
							</g>
						</g>
					</g>
					<g>
						<g>
							<g>
								<g>
									<g>
										<g>
											<g>
												<path class="st27" d="M109.5,186.1c0,0.1,0.8,0.1,1.9,0.2c1,0.2,1.8,0.4,1.9,0.3c0-0.1-0.8-0.4-1.8-0.6
													C110.4,185.9,109.5,186,109.5,186.1z"/>
											</g>
										</g>
									</g>
								</g>
							</g>
						</g>
					</g>
					<g>
						<g>
							<g>
								<g>
									<g>
										<g>
											<g>
												<path class="st27" d="M112.3,191.7c0.1,0,0.1-0.4,0.1-0.8c0-0.5-0.1-0.8-0.2-0.8c-0.1,0-0.1,0.4-0.1,0.8
													C112.1,191.3,112.2,191.7,112.3,191.7z"/>
											</g>
										</g>
									</g>
								</g>
							</g>
						</g>
					</g>
					<g>
						<g>
							<g>
								<g>
									<g>
										<g>
											<g>
												<path class="st27" d="M111,193.5c0.1,0,0-0.8,0.6-1.5c0.5-0.7,1.3-0.9,1.3-0.9c0,0-0.2-0.1-0.5,0
													c-0.3,0.1-0.7,0.3-1,0.7c-0.3,0.4-0.4,0.8-0.5,1.2C110.9,193.3,111,193.5,111,193.5z"/>
											</g>
										</g>
									</g>
								</g>
							</g>
						</g>
					</g>
					<g>
						<g>
							<g>
								<g>
									<g>
										<g>
											<g>
												<path class="st27" d="M106,188.3c0.1,0,0.3-0.7,1.1-1.1c0.8-0.4,1.5-0.3,1.5-0.4c0,0-0.2-0.1-0.5-0.1
													c-0.3,0-0.8,0-1.2,0.3c-0.4,0.2-0.7,0.6-0.9,0.9C106,188.1,105.9,188.3,106,188.3z"/>
											</g>
										</g>
									</g>
								</g>
							</g>
						</g>
					</g>
					<g>
						<g>
							<g>
								<g>
									<g>
										<g>
											<g>
												<path class="st27" d="M103,184.7c0.1,0,0.3-0.6,1-1.1c0.7-0.5,1.4-0.4,1.4-0.5c0,0-0.2-0.1-0.5-0.1
													c-0.3,0-0.7,0.1-1.1,0.3c-0.4,0.2-0.6,0.6-0.8,0.8C103,184.5,103,184.7,103,184.7z"/>
											</g>
										</g>
									</g>
								</g>
							</g>
						</g>
					</g>
					<g>
						<g>
							<g>
								<g>
									<g>
										<g>
											<g>
												<path class="st27" d="M101.1,183c0,0,0-0.2,0.1-0.6c0-0.3,0.2-0.8,0.5-1.2c0.3-0.4,0.7-0.7,1-0.8
													c0.3-0.1,0.5-0.2,0.5-0.2c0,0-0.2-0.1-0.6,0c-0.3,0.1-0.8,0.4-1.2,0.8c-0.3,0.5-0.5,1-0.4,1.3
													C100.9,182.8,101,183,101.1,183z"/>
											</g>
										</g>
									</g>
								</g>
							</g>
						</g>
					</g>
					<g>
						<g>
							<g>
								<g>
									<g>
										<g>
											<g>
												<path class="st27" d="M103.8,178.8c0,0.1,1.4,0.1,3,0.4c1.6,0.3,2.9,0.8,2.9,0.7c0-0.1-1.2-0.8-2.9-1
													c-0.8-0.1-1.6-0.2-2.1-0.2C104.1,178.7,103.8,178.7,103.8,178.8z"/>
											</g>
										</g>
									</g>
								</g>
							</g>
						</g>
					</g>
				</g>
			</g>
		</g>
		<g>
			<g>
				<g>
					<path class="st31" d="M122.2,215.1c0.2-1.9,0.5-3.8,1.6-5.4c1.9-2.7,5.6-3.2,8.9-3.1c3.3,0.2,11.5,0.8,14.6-0.3l-0.3,28.9
						c-3.4-0.8-1.8-4.8-3.7-7.7c-0.9-1.5-1.6-3.3-3-4.4c-2-1.5-4.7-1.3-7.1-1.3c-2.6,0-5.1-0.4-7.6-1.1c-1-0.3-2.1-0.7-2.8-1.6
						C121.9,218,122,216.5,122.2,215.1z"/>
				</g>
			</g>
		</g>
		<g>
			<g>
				<g>
					<g>
						<g>
							<g>
								<g>
									<g>
										<g>
											<g>
												<path class="st10" d="M149.6,174.6l-6.1,45c-0.4,2.5-2.1,4.1-4.3,5l-33.1-0.9c-4-0.1-7.2-3.4-6.7-7.2c0,0,0-0.1,0-0.1
													l5.4-43.7c0.3-2.6,1.7-4.5,3.3-4.5h38.7C148.7,168.2,150.1,171.4,149.6,174.6z"/>
											</g>
										</g>
									</g>
								</g>
							</g>
						</g>
					</g>
				</g>
				<g>
					<g>
						<g>
							<g>
								<g>
									<g>
										<g>
											<g>
												<g>
													<path class="st25" d="M148.5,189.3c0.8-0.9,0.7-2.4-0.1-3.3c-0.7-0.9-2-1.4-3.1-1.4c-1.2,0-2.3,0.3-3.4,0.8
														c-1.4,0.6-2.7,1.2-3.9,2.1c-0.9,0.6-1.8,1.3-1.9,2.3c-0.1,1,1,2.2,1.9,1.6c-1.2,0.5-2.3,1.8-2.5,3.1
														c-0.2,1.3,0.5,2,1.8,2.3c-0.9,0.4-1.5,1.6-1.1,2.5c0.5,1,1.8,1.2,2.8,0.8c1-0.4,1.7-1.3,2.4-2.1
														c-0.7,1.2-0.6,3.2-0.3,4.6c2.7-1,5.4-4.1,4.6-7c1.3-1,1.9-3.2,1.1-4.7c1.1-0.4,2.3-2.1,2.2-3.3"/>
												</g>
											</g>
										</g>
									</g>
								</g>
							</g>
						</g>
					</g>
				</g>
			</g>
			<g>
				<g>
					<g>
						<path class="st25" d="M148.8,186.7l0.2,13l3.4,5l15.4,13.8c0,0-2.3,18.7-9.2,16.7c-7-2-8.6-3.4-12.7-10.9
							c-2.2-4-3.6-10.6-4.8-14.4c-0.7-2.2-0.1-9.3-0.1-9.3L148.8,186.7z"/>
					</g>
				</g>
			</g>
			<g>
				<g>
					<g>
						<g>
							<g>
								<g>
									<g>
										<g>
											<g>
												<path class="st27" d="M137.3,196.9c0,0,0.5-0.4,1.2-0.9c0.7-0.6,1.8-1.4,3.1-1.7c0.7-0.2,1.3-0.2,1.9,0
													c0.6,0.1,1.1,0.4,1.4,0.7c0.7,0.6,0.9,1.2,0.9,1.1c0,0,0-0.2-0.1-0.4c-0.1-0.2-0.3-0.6-0.7-0.9
													c-0.4-0.3-0.9-0.6-1.5-0.8c-0.6-0.2-1.3-0.1-2,0c-1.4,0.3-2.5,1.2-3.2,1.8C137.6,196.4,137.3,196.8,137.3,196.9z"/>
											</g>
										</g>
									</g>
								</g>
							</g>
						</g>
					</g>
				</g>
			</g>
			<g>
				<g>
					<g>
						<g>
							<g>
								<g>
									<g>
										<g>
											<g>
												<path class="st27" d="M137.5,191.6c0,0,0.6-0.2,1.4-0.6c0.4-0.2,0.9-0.5,1.5-0.7c0.6-0.2,1.3-0.4,2-0.6
													c0.7-0.1,1.4-0.2,2-0.1c0.6,0.1,1.1,0.3,1.5,0.6c0.8,0.6,1,1.2,1,1.1c0,0,0-0.2-0.1-0.4c-0.1-0.2-0.4-0.6-0.7-0.9
													c-0.4-0.3-0.9-0.6-1.6-0.7c-0.7-0.1-1.4-0.1-2.1,0c-0.7,0.2-1.4,0.4-2,0.6c-0.6,0.3-1.1,0.5-1.5,0.8
													C138,191.3,137.5,191.6,137.5,191.6z"/>
											</g>
										</g>
									</g>
								</g>
							</g>
						</g>
					</g>
				</g>
			</g>
			<g>
				<g>
					<g>
						<g>
							<path class="st27" d="M166.1,225.9c-0.1,0,0.7-1.8,0.2-4.8c-0.2-1.5-0.8-3.2-1.8-4.9c-1-1.7-2.4-3.4-4.1-5
								c-1.7-1.6-3.4-3-4.9-4.3c-1.5-1.3-2.9-2.5-3.9-3.7c-1-1.1-1.8-2.1-2.2-2.8c-0.5-0.7-0.7-1.1-0.6-1.2c0,0,0.3,0.4,0.8,1
								c0.5,0.7,1.3,1.6,2.3,2.7c1.1,1.1,2.4,2.3,3.9,3.6c1.5,1.3,3.3,2.7,4.9,4.3c1.7,1.6,3.1,3.3,4.1,5.1c1,1.8,1.6,3.6,1.8,5.1
								c0.2,1.5,0.1,2.8-0.1,3.6c-0.1,0.4-0.2,0.7-0.3,0.9C166.2,225.8,166.1,225.9,166.1,225.9z"/>
						</g>
					</g>
				</g>
			</g>
		</g>
		<path class="st11" d="M114.2,447.6c0,0,1.2,6.3,0,10.4c-1.2,4-4.3,6.8-3.5,11.4c0.8,4.6-0.1,9.1-0.1,9.1h15v-4.3
			c0,0,5.8,3.8,8.6,4.3c2.8,0.5,26.3,2.3,29.3,0c3-2.3-4.1-4.8-10.4-6.8s-22-10.1-22.3-13.2c-0.3-3-0.3-9.1-0.3-9.1L114.2,447.6z"/>
		<polygon class="st32" points="110.5,478.5 110.9,473.5 125.6,474.2 125.6,478.5 		"/>
		<path class="st32" d="M128.6,476l34.9,2.5c0,0-8.4,1.5-14.5,1.1c-6.1-0.4-14.9-1.1-14.9-1.1L128.6,476z"/>
		<path class="st32" d="M65.5,479.7c0,0,6.6,8,11.9,8.2c5.2,0.2,10.7-9.4,10.7-9.4s-0.8,10.9-11,11.4
			C66.9,490.4,65.5,479.7,65.5,479.7z"/>
		<g>
			<g>
				<g>
					<g>
						<g>
							<g>
								<g>
									<g>
										<g>
											<path class="st22" d="M147.2,238.8c0,0,12,41.8,8.5,87c-2,25.8-21.3,128.3-21.3,128.3l-22.5-2l3.9-148.8l-0.9,0.8
												c0,0-13.4,62.6-14.3,72.5c-0.8,8.9-11.5,80.3-11.5,80.3l-21.8-1l4.9-90.3l-1.2-25.5c-0.8-16.1-3.7-59.7,7.8-81.8
												l9.5-19.6H147.2z"/>
										</g>
									</g>
								</g>
							</g>
						</g>
					</g>
				</g>
			</g>
			<path class="st33" d="M121.2,264.7c0,0-2.3,20.2-6.3,39.6l-0.7,61.9c0,0,11.1-53.9,10.3-68.4
				C123.8,283.2,121.2,264.7,121.2,264.7z"/>
		</g>
		<path class="st31" d="M85.4,174.6c0,0,3.4,11.1,0,18.8c0,0,0.1,4.5,1.5,3.4C88.3,195.8,88.6,175.9,85.4,174.6z"/>
		<path class="st32" d="M70.8,456.4l13.2,0.7c0,0-3.5,2.6-7.2,2.6C73.1,459.7,70.8,456.4,70.8,456.4"/>
		<path class="st32" d="M114.7,452.4c0,0,10.5,4.6,16.1,3.9v-2.5L114.7,452.4z"/>
		<path class="st24" d="M90.8,113.5c-2.3,8.5-0.4,19.8-2.7,26.7c-2.3,6.8-4,14.4-1.4,21.1c1.2-2.6,2.4-5.3,3.6-7.9
			c-1.5,3.1-1.1,7,0.8,9.8c1.9,2.8,11.6,5.3,15.1,5.1c3.5-18.4,2.5-32.5-3.5-46.7l-4.7,5.1l-4.2-1.8L90.8,113.5z"/>
		<g>
			<path class="st17" d="M97.9,121c0,0-0.2,0.1-0.4,0.4c-0.2,0.3-0.5,0.7-0.5,1.3c-0.1,0.6,0.1,1.4,0.7,2c0.6,0.6,1.5,0.9,2.4,0.7
				c0.9-0.2,1.6-0.9,1.9-1.7c0.3-0.8,0.2-1.5,0-2.1c-0.2-0.6-0.6-1-0.9-1.1c-0.3-0.2-0.5-0.1-0.5-0.1c0,0,0,0,0.1,0
				c0.1,0,0.2,0,0.4,0.1c0.3,0.1,0.8,0.5,1,1.1c0.3,0.6,0.4,1.4,0.1,2.3c-0.3,0.8-1.1,1.6-2.1,1.8c-0.5,0.1-1,0.1-1.5,0
				c-0.5-0.1-0.9-0.4-1.2-0.7c-0.3-0.3-0.5-0.7-0.6-1.1c-0.1-0.4-0.1-0.7-0.1-1.1c0.1-0.7,0.4-1.1,0.6-1.4
				C97.7,121.1,97.8,121,97.9,121z"/>
		</g>
		<g>
			<path class="st24" d="M111.6,168.1c-0.1,0.1-0.7-0.4-1.4-1.4c-0.7-1-0.4-0.3-1.2-2.5c-0.8-2.1-1.4-4.8-1.8-7.7
				c-0.4-2.9-0.6-6.2-0.7-9.5c-0.1-3.4-0.2-6.5-0.4-9.4c-0.2-2.8-0.6-5.4-1.1-7.5c-1-4.2-2.3-6.6-1.9-6.8c0.1-0.1,0.6,0.4,1.3,1.5
				c0.7,1.1,1.5,2.7,2.3,4.8c0.7,2.1,1.3,4.8,1.7,7.7c0.4,2.9,0.5,6.2,0.7,9.5c0.1,3.4,0.2,6.5,0.5,9.4c0.3,2.8,0.7,5.4,1.2,7.5
				C111.8,167.8,112,167.9,111.6,168.1z"/>
		</g>
	</g>
</g>
</svg>
