<?xml version="1.0" encoding="utf-8"?>
<!-- Generator: Adobe Illustrator 24.2.3, SVG Export Plug-In . SVG Version: 6.00 Build 0)  -->
<svg version="1.1" id="Layer_1" xmlns="http://www.w3.org/2000/svg" xmlns:xlink="http://www.w3.org/1999/xlink" x="0px" y="0px"
	 viewBox="0 0 1000 1000" style="enable-background:new 0 0 1000 1000;" xml:space="preserve">
<style type="text/css">
	.st0{fill:#E7F2F1;}
	.st1{fill:#FF8602;}
	.st2{fill:#F46516;}
	.st3{fill:#FFFFFF;}
	.st4{fill:#00A0A3;}
	.st5{fill:#FFAEA1;}
	.st6{fill:#484848;}
	.st7{fill:#E59991;}
	.st8{fill:#302F2E;}
	.st9{fill:#EF9283;}
	.st10{fill:#177777;}
	.st11{fill:#FFFEFD;}
	.st12{fill-rule:evenodd;clip-rule:evenodd;fill:#FFAA00;}
	.st13{fill-rule:evenodd;clip-rule:evenodd;fill:#FFB81F;}
</style>
<g id="die">
	<path class="st0" d="M977.2,536.8c-0.1,0.4-0.2,0.8-0.3,1.2c-11.7,50.3-31.6,98.3-60.3,140.5c-19.8,29.1-43.9,55.5-72.5,78
		c-5.7,4.5-11.6,8.8-17.6,12.9c-44.6,30.7-96,51-147.7,67.5c-16.6,5.3-33.3,10.3-50.2,14.9c-35.5,9.7-71.6,17.7-107.9,23.5
		c-28.8,4.6-57.8,7.9-87,9.7c-8.3,0.5-16.7,0.9-25.1,1.1c-11.7,0.3-23.4,0.4-35.1,0c-92.6-2.6-185-27.3-251.8-93.2
		c-35.2-34.7-61-73-78.9-114.4C19.5,624.3,9.6,564.6,10,500.6c0-0.6,0-1.2,0-1.8c1.1-96.7,44-155.7,134-190.7
		c50-19.5,103.4-28.3,154.5-44.4c89.1-28,139.3-93.2,212.1-145.8c65-46.9,148.6-68.2,227.7-55.5c79.2,12.7,152.7,60,194.8,128.2
		C953.1,222.9,966,259,975,295.8C993.7,372.8,995.5,457.6,977.2,536.8z"/>
	<path class="st0" d="M367,191.7c13.8-13.5,24.4-30.2,31.3-48.1c5.5-14.3,8.9-29.8,6.4-45c-4.5-27.6-28.2-49.3-54.7-58.1
		s-55.5-6.8-83-1.7c-56.9,10.6-97.3,52.2-103,111.7c-4.6,48.7,21.8,94.5,75,93.5C281.5,243.2,336.8,221.3,367,191.7z"/>
</g>
<g>
	<g>
		<path class="st1" d="M739.6,938.9l-109.8-84.6l-24.3,134.5l-71.6-192.6L511,734.6c-1.6-9.8-2.6-19.8-2.9-29.8
			c-0.8-31.9,6.2-64.4,23.4-91.2c6.2-9.6,13.8-18.6,23.6-24.6c8.7-5.2,18.7-7.8,28.6-9.4c7.2-1.2,14.6-1.9,21.8-1.2l60.8,163.5
			L739.6,938.9z"/>
		<path class="st2" d="M666.4,741.9c-4.1,5.9-8.7,11.5-14.3,15.9c-10.5,8.1-24.1,11.2-37.4,11.1c-13.2-0.1-26.2-3.1-39.1-6.1
			c-1.9-0.4-4.1-0.9-5.8,0c-1.2,0.6-2.1,1.7-2.9,2.8c-6.3,8.2-13.5,15.7-21.3,22.5c-3.4,2.9-7.6,7.3-11.5,8.1L511,734.6
			c-1.6-9.8-2.6-19.8-2.9-29.8c-0.8-31.9,6.2-64.4,23.4-91.2c6.2-9.6,13.8-18.6,23.6-24.6c8.7-5.2,18.7-7.8,28.6-9.4
			c7.2-1.2,14.6-1.9,21.8-1.2L666.4,741.9z"/>
	</g>
	<g>
		<path class="st1" d="M575.3,554.4l-89,239.2l-72.6,195.2l-24.3-134.5l-109.8,84.6l71.9-193.2l82.3-221.3
			c20.5-13,44.3-20.7,68.5-20c17.5,0.5,35.2,5.6,49.3,16.1C562.9,528.9,571.6,540.9,575.3,554.4z"/>
		<path class="st2" d="M575.3,554.4l-89,239.2c-10.6-3.9-20.5-10-28.7-17.9c-1.8-1.7-3.8-3.7-6.3-4c-2-0.2-3.9,0.7-5.8,1.5
			c-19.1,8.2-41.6,8.2-60.7,0c-11.2-4.8-21.2-12.5-28.9-21.9c-1.4-1.8-3-3.6-4.5-5.6l82.3-221.3c20.5-13,44.3-20.7,68.5-20
			c17.5,0.5,35.2,5.6,49.3,16.1C562.9,528.9,571.6,540.9,575.3,554.4z"/>
	</g>
</g>
<g>
	<path class="st1" d="M809.3,472.8c0-21.7-13.8-40.2-33.1-47.3c-4.2-1.5-5.3-7-2-10c15.2-13.9,20.9-36.3,12.6-56.3
		c-3.9-9.4-10.4-17.3-18.8-22.8c-8.2-5.4-17.8-8.3-27.6-8.3c-0.9,0-1.9,0-2.8,0.1c-4.6,0.3-7.7-4.5-5.7-8.6
		c9-18.7,5.8-41.9-9.7-57.4c-9.5-9.5-22.1-14.7-35.5-14.7c-7.5,0-14.7,1.6-21.2,4.7c-4.1,1.9-8.7-1.2-8.5-5.6
		c0.3-7.3-0.9-14.6-3.8-21.5c-5.1-12.4-14.8-22.1-27.2-27.2c-6.2-2.6-12.7-3.9-19.3-3.9c-14.6,0-28.2,6.3-37.5,16.8
		c-3,3.4-8.6,2.2-10.1-2.1c-6.9-19.6-25.5-33.7-47.5-33.7c-21.7,0-40.2,13.8-47.2,33.1c-1.5,4.2-7,5.3-10,2c-2.8-3.1-6-5.8-9.5-8.1
		c-8.2-5.4-17.8-8.3-27.6-8.3c-6.6,0-13,1.3-19.1,3.8c-12.4,5.1-22.1,14.8-27.2,27.2c-3,7.1-4.2,14.7-3.8,22.1
		c0.3,4.5-4.4,7.7-8.5,5.7c-6.7-3.3-14.2-5-21.9-5c-13.4,0-26,5.2-35.5,14.7c-9.5,9.5-14.7,22.1-14.7,35.5c0,7.4,1.6,14.6,4.7,21.2
		c1.9,4.1-1.2,8.7-5.7,8.5c-0.8,0-1.6-0.1-2.4,0c-20,0.1-38.2,12.1-46,30.5c-5.4,12.5-5.4,26.4-0.3,38.9c2.9,7.1,7.4,13.3,12.9,18.3
		c3.4,3,2.3,8.6-2,10.1c-19.6,6.9-33.7,25.5-33.7,47.5c0,21.7,13.8,40.2,33.1,47.3c4.2,1.5,5.3,7,2,10
		c-15.2,13.9-20.9,36.3-12.6,56.3c3.9,9.4,10.4,17.3,18.8,22.8c8.2,5.4,17.8,8.3,27.6,8.3c0,0,0,0,0,0c0.9,0,1.9,0,2.8-0.1
		c4.6-0.3,7.7,4.4,5.7,8.6c-9,18.7-5.8,41.9,9.7,57.4c9.5,9.5,22.1,14.7,35.5,14.7c7.5,0,14.7-1.6,21.3-4.7c4-1.9,8.6,1.2,8.4,5.6
		c-0.9,20.5,10.9,40.4,30.9,48.8c6.2,2.6,12.7,3.9,19.3,3.9c0,0,0,0,0,0c14.6,0,28.2-6.3,37.5-16.8c3-3.4,8.6-2.2,10.1,2.1
		c6.9,19.6,25.5,33.7,47.5,33.7c21.7,0,40.2-13.8,47.2-33.1c1.5-4.2,7-5.3,10-2c2.8,3.1,6,5.8,9.5,8.1c8.2,5.4,17.8,8.3,27.6,8.3
		c0,0,0,0,0,0c6.6,0,13-1.3,19.1-3.8c20.3-8.4,32.1-28.5,31-49.2c-0.2-4.6,4.5-7.7,8.6-5.7c6.7,3.3,14.2,5,21.9,5
		c13.4,0,26-5.2,35.5-14.7c15.4-15.4,18.7-38.2,10-56.9c-1.9-4,1.2-8.6,5.7-8.4c0.8,0,1.6,0.1,2.3,0.1c0,0,0,0,0,0
		c20.4,0,38.6-12.2,46.4-31c5.2-12.4,5.2-26.1,0.1-38.5c-2.9-7.1-7.4-13.3-12.9-18.3c-3.4-3-2.3-8.6,2-10.1
		C795.2,513.4,809.3,494.7,809.3,472.8z"/>
	<path class="st3" d="M700.7,472.8c0,31-7.5,60.2-20.7,86.1c-10.8,21.1-25.4,39.8-42.9,55.4c-1.1,1-2.2,2-3.4,2.9
		c-1,0.9-2.1,1.7-3.1,2.6c-3.1,2.5-6.3,5-9.6,7.3c-1.7,1.2-3.5,2.4-5.2,3.6c-1.3,0.9-2.6,1.7-4,2.5c-9.8,6.1-20.2,11.4-31.2,15.7
		c-1.1,0.4-2.2,0.8-3.2,1.2c-1.2,0.4-2.3,0.8-3.5,1.2c-3.5,1.2-7.1,2.4-10.8,3.4c-16.4,4.6-33.7,7.1-51.5,7.1
		c-29,0-56.4-6.5-80.9-18.1c-9-4.3-17.6-9.2-25.8-14.8c-17.8-12.2-33.5-27.4-46.2-44.9c-14.2-19.5-24.8-41.8-30.7-65.9
		c-1.5-6.3-2.8-12.7-3.7-19.2c-0.1-0.4-0.1-0.8-0.2-1.1c-1.1-8.2-1.6-16.6-1.6-25.1c0-14.5,1.6-28.5,4.7-42.1c0.9-4,2-8,3.1-11.9
		c9.8-33,28.4-62.3,53.1-85.1c17.9-16.5,39-29.6,62.2-38.2c8.8-3.3,18-5.9,27.4-7.9c1.4-0.3,2.8-0.6,4.2-0.8c0,0,0,0,0,0
		c0.7-0.1,1.4-0.2,2.1-0.4c0.5-0.1,1-0.2,1.6-0.3c0.2,0,0.4-0.1,0.6-0.1c0,0,0,0,0,0c8.3-1.3,16.7-2.1,25.3-2.3c0.6,0,1.2,0,1.8,0
		c1,0,2,0,3,0c0.8,0,1.7,0,2.5,0h0c2.8,0,5.5,0.1,8.3,0.3c9.4,0.5,18.5,1.7,27.5,3.6c0.5,0.1,1,0.2,1.6,0.3h0
		c79.6,17.1,140.6,84.2,148.4,166.8c0,0.3,0.1,0.6,0.1,1C700.4,461.2,700.7,467,700.7,472.8z"/>
	<g>
		<g>
			<path class="st2" d="M364.1,323.6c-0.4,0-0.7-0.1-1-0.4l-48.3-48.3c-0.6-0.6-0.6-1.5,0-2c0.6-0.6,1.5-0.6,2,0l48.3,48.3
				c0.6,0.6,0.6,1.5,0,2C364.9,323.4,364.5,323.6,364.1,323.6z"/>
		</g>
		<g>
			<path class="st2" d="M659.3,323.6c-0.4,0-0.7-0.1-1-0.4c-0.6-0.6-0.6-1.5,0-2l48.3-48.3c0.6-0.6,1.5-0.6,2,0c0.6,0.6,0.6,1.5,0,2
				l-48.3,48.3C660,323.4,659.7,323.6,659.3,323.6z"/>
		</g>
		<g>
			<path class="st2" d="M315.8,669.8c-0.4,0-0.7-0.1-1-0.4c-0.6-0.6-0.6-1.5,0-2l48.3-48.3c0.6-0.6,1.5-0.6,2,0c0.6,0.6,0.6,1.5,0,2
				l-48.3,48.3C316.5,669.7,316.2,669.8,315.8,669.8z"/>
		</g>
		<g>
			<path class="st2" d="M707.6,669.8c-0.4,0-0.7-0.1-1-0.4l-48.3-48.3c-0.6-0.6-0.6-1.5,0-2c0.6-0.6,1.5-0.6,2,0l48.3,48.3
				c0.6,0.6,0.6,1.5,0,2C708.3,669.7,708,669.8,707.6,669.8z"/>
		</g>
		<g>
			<path class="st2" d="M512.7,262.8c-0.8,0-1.4-0.6-1.4-1.4v-68.3c0-0.8,0.6-1.4,1.4-1.4s1.4,0.6,1.4,1.4v68.3
				C514.1,262.2,513.5,262.8,512.7,262.8z"/>
		</g>
		<g>
			<path class="st2" d="M789.8,471.6h-68.3c-0.8,0-1.4-0.6-1.4-1.4c0-0.8,0.6-1.4,1.4-1.4h68.3c0.8,0,1.4,0.6,1.4,1.4
				C791.2,470.9,790.5,471.6,789.8,471.6z"/>
		</g>
		<g>
			<path class="st2" d="M302,473.5h-68.3c-0.8,0-1.4-0.6-1.4-1.4c0-0.8,0.6-1.4,1.4-1.4H302c0.8,0,1.4,0.6,1.4,1.4
				C303.4,472.9,302.8,473.5,302,473.5z"/>
		</g>
		<g>
			<path class="st2" d="M510.7,750.6c-0.8,0-1.4-0.6-1.4-1.4v-68.3c0-0.8,0.6-1.4,1.4-1.4s1.4,0.6,1.4,1.4v68.3
				C512.2,749.9,511.5,750.6,510.7,750.6z"/>
		</g>
		<g>
			<path class="st2" d="M431.8,278.7c-0.6,0-1.1-0.3-1.3-0.9l-26.3-63.1c-0.3-0.7,0-1.6,0.8-1.9c0.7-0.3,1.6,0,1.9,0.8l26.3,63.1
				c0.3,0.7,0,1.6-0.8,1.9C432.2,278.6,432,278.7,431.8,278.7z"/>
		</g>
		<g>
			<path class="st2" d="M704.8,390.8c-0.6,0-1.1-0.3-1.3-0.9c-0.3-0.7,0-1.6,0.8-1.9l63.1-26.3c0.7-0.3,1.6,0,1.9,0.8
				c0.3,0.7,0,1.6-0.8,1.9l-63.1,26.3C705.2,390.8,705,390.8,704.8,390.8z"/>
		</g>
		<g>
			<path class="st2" d="M255.6,580.6c-0.6,0-1.1-0.3-1.3-0.9c-0.3-0.7,0-1.6,0.8-1.9l63.1-26.3c0.7-0.3,1.6,0,1.9,0.8s0,1.6-0.8,1.9
				l-63.1,26.3C255.9,580.6,255.7,580.6,255.6,580.6z"/>
		</g>
		<g>
			<path class="st2" d="M618,729.5c-0.6,0-1.1-0.3-1.3-0.9l-26.3-63.1c-0.3-0.7,0-1.6,0.8-1.9c0.7-0.3,1.6,0,1.9,0.8l26.3,63.1
				c0.3,0.7,0,1.6-0.8,1.9C618.4,729.4,618.2,729.5,618,729.5z"/>
		</g>
		<g>
			<path class="st2" d="M592.3,278.9c-0.2,0-0.4,0-0.5-0.1c-0.7-0.3-1.1-1.1-0.8-1.8l26-63.2c0.3-0.7,1.1-1.1,1.8-0.8
				c0.7,0.3,1.1,1.1,0.8,1.8l-26,63.2C593.4,278.6,592.8,278.9,592.3,278.9z"/>
		</g>
		<g>
			<path class="st2" d="M769.3,577.2c-0.2,0-0.4,0-0.5-0.1l-63.2-26c-0.7-0.3-1.1-1.1-0.8-1.8c0.3-0.7,1.1-1.1,1.8-0.8l63.2,26
				c0.7,0.3,1.1,1.1,0.8,1.8C770.4,576.9,769.8,577.2,769.3,577.2z"/>
		</g>
		<g>
			<path class="st2" d="M317.4,393.8c-0.2,0-0.4,0-0.5-0.1l-63.2-26c-0.7-0.3-1.1-1.1-0.8-1.8c0.3-0.7,1.1-1.1,1.8-0.8l63.2,26
				c0.7,0.3,1.1,1.1,0.8,1.8C318.5,393.5,317.9,393.8,317.4,393.8z"/>
		</g>
		<g>
			<path class="st2" d="M405.2,729.3c-0.2,0-0.4,0-0.5-0.1c-0.7-0.3-1.1-1.1-0.8-1.8l26-63.2c0.3-0.7,1.1-1.1,1.8-0.8
				c0.7,0.3,1.1,1.1,0.8,1.8l-26,63.2C406.3,729,405.8,729.3,405.2,729.3z"/>
		</g>
	</g>
</g>
<path class="st4" d="M700.7,473.8c0,31-7.5,60.2-20.7,86.1l-53.2-47.8l0,0c-0.2,0.8-3.5,16.8-5.9,34.5l0,0
	c-1.5,10.9-2.7,22.5-2.7,31.7c0,8.5,1.2,28,2.9,49.7c-1.7,1.2-3.5,2.4-5.2,3.6c-1.3,0.9-2.6,1.7-4,2.5c-9.8,6.1-20.2,11.4-31.2,15.7
	c-1.1,0.4-2.2,0.8-3.2,1.2c-1.2,0.4-2.3,0.8-3.5,1.2c-3.5,1.2-7.1,2.4-10.8,3.4c-16.4,4.6-33.7,7.1-51.5,7.1
	c-29,0-56.4-6.5-80.9-18.1c-9-4.3-17.6-9.2-25.8-14.8c0.9-35.3,1.8-74.7,1.9-78.3c-0.1,0.7-9.5,0.8-13.1,2.8
	c0.1,1.9,0.9,4.6,0.4,6.4c-0.6,2.3-3.7,4.2-5.8,5c-6.5,2.7-15.1,2.7-22,3.6c-7.6,1-15.2,1.9-22.9,2.7c-21.5,2.2-43.3,4-64.9,3.1
	c-8.5-0.3-17.1-1-25.3-3.3c-4.8-1.4-10.9-3.6-13.1-8.5c-13.4-29.8,32.7-87.3,87.1-131.6c16.3-13.3,33.3-25.4,49.7-35.2
	c35.8-21.5,69.9-29.3,95.1-31.9c24.9-2.5,40.9,0.2,40.9,0.2s17.6,0,43.9,5.3c24,4.9,55.3,14.1,87.3,31.8
	c20.6,11.4,39.5,31.2,55.7,53.6c0,0.3,0.1,0.6,0.1,1C700.4,462.3,700.7,468,700.7,473.8z"/>
<path class="st5" d="M551.2,289l5.9,86.2c0,0-10.3,27.7-45.9,29.3c-35.6,1.6-45.2-26.4-41.1-33.2c1.3-2.2,2-7,2.4-12.6
	c0.8-11.7,0-26.5,0-26.5l-0.5-1c0,0-12.3-15.1-15.2-27.9c-3.4,0.7-5.1-2.3-7.4-11.7c-3.8-15.2-2.8-17.4-2.8-17.4
	s-17.6-38.9,10.1-55.5s58.3-9.5,67.1,0c8.8,9.5,15.9,41.9,15.9,41.9s13.4-5.5,15.7,8.7C557.9,283.4,551.2,289,551.2,289z"/>
<path class="st6" d="M460.7,220.6c0,0,13.4,26.9,34.4,7.9c0,0,8.4,17.5,20.6,6.8c0,0,5.9,23.3,24.1,25.2c0,0,11.5-4,14.7,4.4
	c0,0,1.9-34.9-8.7-37.7c0,0-0.4-16.7-13-14.2c0,0-1.2-19.4-28.5-20.6c0,0-40.3-21-53,7.9l-1.6,6.3c0,0-25.3,8.7-17.8,32.8
	c0,0-3.2,28.7,14.8,34.5l1.4-2.5c0,0,1.7-27.2-1.2-32.8C446.9,238.7,463.9,241.5,460.7,220.6z"/>
<path class="st6" d="M453.7,271.6c-0.8,0-1.5-0.4-2-1.1c-0.7-1.1-0.4-2.6,0.7-3.3c1-0.6,10.1-6.3,15.3-6.3c1.3,0,2.4,1.1,2.4,2.4
	c0,1.3-1.1,2.4-2.4,2.4c-3,0-9.4,3.4-12.8,5.6C454.6,271.4,454.2,271.6,453.7,271.6z"/>
<path class="st6" d="M485.6,261.3c-1.1,0-2.1-0.8-2.3-1.9c-0.2-1.3,0.6-2.5,1.9-2.8l1.3-0.3c6.2-1.2,13.2-2.5,19.2-1.6
	c1.3,0.2,2.2,1.4,2,2.7c-0.2,1.3-1.4,2.2-2.7,2c-5.2-0.8-11.5,0.4-17.6,1.6l-1.3,0.3C485.9,261.2,485.7,261.3,485.6,261.3z"/>
<path class="st7" d="M488.4,302.7c-2.4,0-5-0.5-6.3-2.6c-0.8-1.3-0.9-2.8-1-4.1l-1-19.1c0-0.4,0.3-0.7,0.6-0.7
	c0.4,0,0.7,0.3,0.7,0.6l1,19.1c0.1,1.2,0.1,2.5,0.7,3.4c1.3,2,4.3,2,6.8,1.9c0.4,0,0.7,0.3,0.7,0.6c0,0.4-0.3,0.7-0.6,0.7
	C489.6,302.6,489,302.7,488.4,302.7z"/>
<path class="st3" d="M506.6,298.4c4.3,3.5,4.4,10.6,0.9,14.8c-3.5,4.2-9.9,5.4-15.1,3.6c-1.3-0.5-2.7-1.2-3.3-2.4
	c-2.4-4.5,5.9-5,8.3-5.8C501.8,307.1,506,304.4,506.6,298.4z"/>
<ellipse transform="matrix(0.968 -0.251 0.251 0.968 -55.6747 125.7061)" class="st8" cx="465" cy="281.1" rx="3.8" ry="4.5"/>
<ellipse transform="matrix(0.968 -0.251 0.251 0.968 -52.7011 133.5667)" class="st8" cx="497.4" cy="273.4" rx="3.8" ry="4.5"/>
<path class="st7" d="M472.6,358.6c0.8-11.7,0-26.5,0-26.5l-0.5-1c7.2,7.9,32.6,36.7,70.7-19.5C542.1,312.1,525.8,358.3,472.6,358.6z
	"/>
<g>
	<path class="st9" d="M563.1,655.8c2.3-1.4,6.6-2.6,10.8-3.4C570.3,653.7,566.7,654.8,563.1,655.8z"/>
</g>
<polygon class="st10" points="606.8,495.8 626.8,512.1 620.8,546.7 "/>
<g>
	<g>
		<path class="st2" d="M511.6,666.3c-28.8,0-56.5-6.2-82.4-18.5c-9.1-4.3-17.9-9.4-26.2-15.1c-1.5-1.1-1.9-3.2-0.9-4.7
			c1.1-1.5,3.2-1.9,4.7-0.9c8,5.5,16.5,10.4,25.3,14.5c24.9,11.8,51.7,17.8,79.5,17.8c17.2,0,34.2-2.3,50.6-7
			c3.6-1,7.1-2.1,10.6-3.3c1.1-0.4,2.3-0.8,3.4-1.2c1.1-0.4,2.1-0.8,3.2-1.2c10.6-4.2,20.9-9.4,30.6-15.4c1.3-0.8,2.6-1.7,3.9-2.5
			c1.7-1.1,3.5-2.3,5.1-3.5c3.2-2.3,6.4-4.7,9.5-7.2c1-0.8,2-1.6,3.1-2.6c1.1-0.9,2.2-1.9,3.3-2.9c17.4-15.5,31.6-33.8,42.2-54.4
			c13.5-26.3,20.3-54.7,20.3-84.5c0-5.6-0.3-11.3-0.8-16.9c0-0.3-0.1-0.6-0.1-0.9c-7.5-79.2-64.6-144.7-142.1-162.9
			c-1.8-0.4-3-2.3-2.5-4.1c0.4-1.8,2.3-3,4.1-2.5c19.5,4.6,38.1,12.2,55.3,22.6c16.9,10.2,32,22.9,45.1,37.8
			c13.1,14.9,23.8,31.7,31.7,49.8c8.2,18.6,13.3,38.4,15.2,58.7c0,0.3,0.1,0.6,0.1,1c0.5,5.8,0.8,11.7,0.8,17.5
			c0,15.5-1.8,30.9-5.5,45.8c-3.5,14.5-8.8,28.6-15.6,41.8c-11,21.4-25.7,40.4-43.7,56.4c-1.1,1-2.3,2-3.4,3c-1.1,1-2.2,1.8-3.2,2.7
			c-3.2,2.6-6.5,5.1-9.8,7.4c-1.7,1.2-3.5,2.5-5.3,3.6c-1.3,0.9-2.7,1.7-4,2.6c-10,6.3-20.7,11.7-31.7,16c-1.1,0.4-2.2,0.9-3.3,1.3
			c-1.2,0.4-2.4,0.9-3.5,1.3c-3.6,1.3-7.3,2.4-11,3.5C547,663.9,529.4,666.3,511.6,666.3z"/>
	</g>
	<g>
		<path class="st2" d="M330.3,423.2c-0.3,0-0.6,0-1-0.1c-1.8-0.5-2.8-2.4-2.3-4.2c9.8-33.1,28.5-63.1,54.1-86.6
			c17.1-15.8,36.7-28.2,58.1-36.9c1.7-0.7,3.7,0.1,4.4,1.9c0.7,1.7-0.1,3.7-1.9,4.4c-20.7,8.4-39.6,20.4-56.1,35.6
			c-24.6,22.7-42.7,51.6-52.2,83.5C333.1,422.3,331.7,423.2,330.3,423.2z"/>
	</g>
</g>
<g id="decor">
	<g>
		<path class="st11" d="M255.3,705c-1.5-0.5-3.1-0.9-4.6-1.3c-3.1-0.8-6.1-1.4-9.2-1.9c-1.5-0.2-3-0.4-4.6-0.6
			c-4.4-0.5-7.9-4-8.3-8.3c-0.2-1.5-0.4-3-0.6-4.6c-0.5-3.1-1.1-6.1-1.9-9.2c-0.4-1.5-0.8-3.1-1.3-4.6c-0.5-1.5-1-3.1-1.7-4.6
			c-0.7,1.5-1.2,3.1-1.7,4.6c-0.5,1.5-0.9,3.1-1.3,4.6c-0.8,3.1-1.4,6.1-1.9,9.2c-0.2,1.5-0.4,3-0.6,4.5c-0.5,4.4-4,7.9-8.3,8.3
			c-1.5,0.2-3,0.4-4.5,0.6c-3.1,0.5-6.1,1.1-9.2,1.9c-1.5,0.4-3.1,0.8-4.6,1.3c-1.5,0.5-3.1,1-4.6,1.7c1.5,0.7,3.1,1.2,4.6,1.7
			c1.5,0.5,3.1,0.9,4.6,1.3c3.1,0.8,6.1,1.4,9.2,1.9c1.5,0.2,3,0.4,4.5,0.6c4.4,0.5,7.9,4,8.3,8.3c0.2,1.5,0.4,3,0.6,4.5
			c0.5,3.1,1.1,6.1,1.9,9.2c0.4,1.5,0.8,3.1,1.3,4.6c0.5,1.5,1,3.1,1.7,4.6c0.7-1.5,1.2-3.1,1.7-4.6c0.5-1.5,0.9-3.1,1.3-4.6
			c0.8-3.1,1.4-6.1,1.9-9.2c0.2-1.5,0.4-3,0.6-4.5c0.5-4.4,4-7.9,8.3-8.3c1.5-0.2,3-0.4,4.5-0.6c3.1-0.5,6.1-1.1,9.2-1.9
			c1.5-0.4,3.1-0.8,4.6-1.3c1.5-0.5,3.1-1,4.6-1.7C258.4,706,256.9,705.5,255.3,705z"/>
		<path class="st11" d="M858.6,253.4c-1.5-0.5-3.1-0.9-4.6-1.3c-3.1-0.8-6.1-1.4-9.2-1.9c-1.5-0.2-3-0.4-4.6-0.6
			c-4.4-0.5-7.9-4-8.3-8.3c-0.2-1.5-0.4-3-0.6-4.6c-0.5-3.1-1.1-6.1-1.9-9.2c-0.4-1.5-0.8-3.1-1.3-4.6c-0.5-1.5-1-3.1-1.7-4.6
			c-0.7,1.5-1.2,3.1-1.7,4.6c-0.5,1.5-0.9,3.1-1.3,4.6c-0.8,3.1-1.4,6.1-1.9,9.2c-0.2,1.5-0.4,3-0.6,4.5c-0.5,4.4-4,7.9-8.3,8.3
			c-1.5,0.2-3,0.4-4.5,0.6c-3.1,0.5-6.1,1.1-9.2,1.9c-1.5,0.4-3.1,0.8-4.6,1.3c-1.5,0.5-3.1,1-4.6,1.7c1.5,0.7,3.1,1.2,4.6,1.7
			c1.5,0.5,3.1,0.9,4.6,1.3c3.1,0.8,6.1,1.4,9.2,1.9c1.5,0.2,3,0.4,4.5,0.6c4.4,0.5,7.9,4,8.3,8.3c0.2,1.5,0.4,3,0.6,4.5
			c0.5,3.1,1.1,6.1,1.9,9.2c0.4,1.5,0.8,3.1,1.3,4.6c0.5,1.5,1,3.1,1.7,4.6c0.7-1.5,1.2-3.1,1.7-4.6c0.5-1.5,0.9-3.1,1.3-4.6
			c0.8-3.1,1.4-6.1,1.9-9.2c0.2-1.5,0.4-3,0.6-4.5c0.5-4.4,4-7.9,8.3-8.3c1.5-0.2,3-0.4,4.5-0.6c3.1-0.5,6.1-1.1,9.2-1.9
			c1.5-0.4,3.1-0.8,4.6-1.3c1.5-0.5,3.1-1,4.6-1.7C861.6,254.4,860.1,253.9,858.6,253.4z"/>
		<path class="st11" d="M240.3,182.2c-1-0.3-2-0.6-3-0.9c-2-0.5-4-0.9-6-1.2c-1-0.2-2-0.3-3-0.4c-2.9-0.3-5.1-2.6-5.4-5.4
			c-0.1-1-0.2-2-0.4-3c-0.3-2-0.7-4-1.2-6c-0.3-1-0.5-2-0.9-3c-0.3-1-0.7-2-1.1-3c-0.5,1-0.8,2-1.1,3c-0.3,1-0.6,2-0.9,3
			c-0.5,2-0.9,4-1.2,6c-0.2,1-0.3,2-0.4,3c-0.3,2.9-2.6,5.1-5.4,5.4c-1,0.1-2,0.2-3,0.4c-2,0.3-4,0.7-6,1.2c-1,0.3-2,0.5-3,0.9
			c-1,0.3-2,0.7-3,1.1c1,0.5,2,0.8,3,1.1c1,0.3,2,0.6,3,0.9c2,0.5,4,0.9,6,1.2c1,0.1,2,0.3,3,0.4c2.9,0.3,5.1,2.6,5.4,5.4
			c0.1,1,0.2,2,0.4,3c0.3,2,0.7,4,1.2,6c0.3,1,0.5,2,0.9,3c0.3,1,0.7,2,1.1,3c0.5-1,0.8-2,1.1-3c0.3-1,0.6-2,0.9-3
			c0.5-2,0.9-4,1.2-6c0.2-1,0.3-2,0.4-3c0.3-2.9,2.6-5.1,5.4-5.4c1-0.1,2-0.2,3-0.4c2-0.3,4-0.7,6-1.2c1-0.3,2-0.5,3-0.9
			c1-0.3,2-0.7,3-1.1C242.3,182.8,241.3,182.5,240.3,182.2z"/>
		<path class="st11" d="M843.5,712.9c-1.1-0.4-2.2-0.7-3.3-1c-2.2-0.6-4.4-1-6.7-1.3c-1.1-0.2-2.2-0.3-3.3-0.4c-3.2-0.4-5.7-2.9-6-6
			c-0.1-1.1-0.3-2.2-0.4-3.3c-0.3-2.2-0.8-4.4-1.3-6.7c-0.3-1.1-0.6-2.2-1-3.3c-0.4-1.1-0.8-2.2-1.3-3.3c-0.5,1.1-0.9,2.2-1.3,3.3
			c-0.4,1.1-0.7,2.2-1,3.3c-0.6,2.2-1,4.4-1.3,6.7c-0.2,1.1-0.3,2.2-0.4,3.3c-0.4,3.2-2.9,5.7-6.1,6c-1.1,0.1-2.2,0.3-3.3,0.4
			c-2.2,0.3-4.4,0.8-6.7,1.3c-1.1,0.3-2.2,0.6-3.3,1c-1.1,0.4-2.2,0.8-3.3,1.3c1.1,0.5,2.2,0.9,3.3,1.3c1.1,0.4,2.2,0.7,3.3,1
			c2.2,0.6,4.4,1,6.7,1.3c1.1,0.2,2.2,0.3,3.3,0.4c3.2,0.3,5.7,2.9,6.1,6.1c0.1,1.1,0.3,2.2,0.4,3.3c0.3,2.2,0.8,4.4,1.3,6.7
			c0.3,1.1,0.6,2.2,1,3.3c0.4,1.1,0.8,2.2,1.3,3.3c0.5-1.1,0.9-2.2,1.3-3.3c0.4-1.1,0.7-2.2,1-3.3c0.6-2.2,1-4.4,1.3-6.7
			c0.2-1.1,0.3-2.2,0.4-3.3c0.3-3.2,2.9-5.7,6-6.1c1.1-0.1,2.2-0.3,3.3-0.4c2.2-0.3,4.4-0.8,6.7-1.3c1.1-0.3,2.2-0.6,3.3-1
			c1.1-0.4,2.2-0.8,3.3-1.3C845.8,713.6,844.6,713.2,843.5,712.9z"/>
		<path class="st11" d="M226,363.4c-0.6-0.2-1.2-0.4-1.9-0.5c-1.2-0.3-2.5-0.6-3.7-0.7c-0.6-0.1-1.2-0.2-1.8-0.2
			c-1.8-0.2-3.2-1.6-3.4-3.4c-0.1-0.6-0.1-1.2-0.2-1.8c-0.2-1.2-0.4-2.5-0.7-3.7c-0.2-0.6-0.3-1.2-0.5-1.9c-0.2-0.6-0.4-1.2-0.7-1.9
			c-0.3,0.6-0.5,1.2-0.7,1.9c-0.2,0.6-0.4,1.2-0.5,1.9c-0.3,1.2-0.6,2.5-0.7,3.7c-0.1,0.6-0.2,1.2-0.2,1.8c-0.2,1.8-1.6,3.2-3.4,3.4
			c-0.6,0.1-1.2,0.1-1.8,0.2c-1.2,0.2-2.5,0.4-3.7,0.8c-0.6,0.2-1.2,0.3-1.9,0.5c-0.6,0.2-1.2,0.4-1.9,0.7c0.6,0.3,1.2,0.5,1.9,0.7
			c0.6,0.2,1.2,0.4,1.9,0.5c1.2,0.3,2.5,0.6,3.7,0.8c0.6,0.1,1.2,0.2,1.8,0.2c1.8,0.2,3.2,1.6,3.4,3.4c0.1,0.6,0.1,1.2,0.2,1.8
			c0.2,1.2,0.4,2.5,0.8,3.7c0.2,0.6,0.3,1.2,0.5,1.9c0.2,0.6,0.4,1.2,0.7,1.9c0.3-0.6,0.5-1.2,0.7-1.9c0.2-0.6,0.4-1.2,0.5-1.9
			c0.3-1.2,0.6-2.5,0.8-3.7c0.1-0.6,0.2-1.2,0.2-1.8c0.2-1.8,1.6-3.2,3.4-3.4c0.6-0.1,1.2-0.1,1.8-0.2c1.2-0.2,2.5-0.4,3.7-0.7
			c0.6-0.2,1.2-0.3,1.9-0.5c0.6-0.2,1.2-0.4,1.9-0.7C227.3,363.8,226.7,363.6,226,363.4z"/>
		<path class="st11" d="M181.4,626.7c-0.5-0.2-1-0.3-1.5-0.4c-1-0.3-2-0.5-3-0.6c-0.5-0.1-1-0.1-1.5-0.2c-1.4-0.2-2.6-1.3-2.8-2.8
			c-0.1-0.5-0.1-1-0.2-1.5c-0.2-1-0.4-2-0.6-3c-0.1-0.5-0.3-1-0.4-1.5c-0.2-0.5-0.3-1-0.6-1.5c-0.2,0.5-0.4,1-0.6,1.5
			c-0.2,0.5-0.3,1-0.4,1.5c-0.3,1-0.5,2-0.6,3c-0.1,0.5-0.1,1-0.2,1.5c-0.2,1.4-1.3,2.6-2.8,2.8c-0.5,0.1-1,0.1-1.5,0.2
			c-1,0.2-2,0.4-3,0.6c-0.5,0.1-1,0.3-1.5,0.4c-0.5,0.2-1,0.3-1.5,0.6c0.5,0.2,1,0.4,1.5,0.6c0.5,0.2,1,0.3,1.5,0.4
			c1,0.3,2,0.5,3,0.6c0.5,0.1,1,0.1,1.5,0.2c1.4,0.2,2.6,1.3,2.8,2.8c0.1,0.5,0.1,1,0.2,1.5c0.2,1,0.4,2,0.6,3
			c0.1,0.5,0.3,1,0.4,1.5c0.2,0.5,0.3,1,0.6,1.5c0.2-0.5,0.4-1,0.6-1.5c0.2-0.5,0.3-1,0.4-1.5c0.3-1,0.5-2,0.6-3
			c0.1-0.5,0.1-1,0.2-1.5c0.2-1.4,1.3-2.6,2.8-2.8c0.5-0.1,1-0.1,1.5-0.2c1-0.2,2-0.4,3-0.6c0.5-0.1,1-0.3,1.5-0.4
			c0.5-0.2,1-0.3,1.5-0.6C182.4,627,181.9,626.8,181.4,626.7z"/>
		<path class="st11" d="M946.2,377c-0.5-0.2-1-0.3-1.5-0.4c-1-0.3-2-0.5-3-0.6c-0.5-0.1-1-0.1-1.5-0.2c-1.4-0.2-2.6-1.3-2.8-2.8
			c-0.1-0.5-0.1-1-0.2-1.5c-0.2-1-0.4-2-0.6-3c-0.1-0.5-0.3-1-0.4-1.5c-0.2-0.5-0.3-1-0.6-1.5c-0.2,0.5-0.4,1-0.6,1.5
			c-0.2,0.5-0.3,1-0.4,1.5c-0.3,1-0.5,2-0.6,3c-0.1,0.5-0.1,1-0.2,1.5c-0.2,1.4-1.3,2.6-2.8,2.8c-0.5,0.1-1,0.1-1.5,0.2
			c-1,0.2-2,0.4-3,0.6c-0.5,0.1-1,0.3-1.5,0.4c-0.5,0.2-1,0.3-1.5,0.6c0.5,0.2,1,0.4,1.5,0.6c0.5,0.2,1,0.3,1.5,0.4
			c1,0.3,2,0.5,3,0.6c0.5,0.1,1,0.1,1.5,0.2c1.4,0.2,2.6,1.3,2.8,2.8c0.1,0.5,0.1,1,0.2,1.5c0.2,1,0.4,2,0.6,3
			c0.1,0.5,0.3,1,0.4,1.5c0.2,0.5,0.3,1,0.6,1.5c0.2-0.5,0.4-1,0.6-1.5c0.2-0.5,0.3-1,0.4-1.5c0.3-1,0.5-2,0.6-3
			c0.1-0.5,0.1-1,0.2-1.5c0.2-1.4,1.3-2.6,2.8-2.8c0.5-0.1,1-0.1,1.5-0.2c1-0.2,2-0.4,3-0.6c0.5-0.1,1-0.3,1.5-0.4
			c0.5-0.2,1-0.3,1.5-0.6C947.2,377.4,946.7,377.2,946.2,377z"/>
	</g>
</g>
<path class="st4" d="M494,392.2l17,12.7l12.7-17c0,0,32-24.2,33.5-28.5c1.5-4.3,19.6,18.4,19.6,18.4l-37.2,37.7l-50.9-3.2l-15.9,6.4
	l-23.9-51.2l15.4-13.5l8.5,4.2C472.8,358.3,481.3,392.2,494,392.2z"/>
<circle class="st10" cx="517.3" cy="485.5" r="5.3"/>
<path class="st10" d="M511,404.9c0,0,13.8-13.8,14.8-13.8c1.1,0,9.5,17,9.5,17S523.7,400.7,511,404.9z"/>
<path class="st10" d="M539.6,408.1l33.3-33.9C572.9,374.2,560.8,399.6,539.6,408.1z"/>
<path class="st10" d="M508.3,404.6l-15.4-8.1c0,0-10.6,11.7-10.6,12.7S500.4,402.1,508.3,404.6z"/>
<path class="st10" d="M448.4,367.8c0,0,21.2,39.2,29.7,43.5C478.1,411.3,452.6,394.3,448.4,367.8z"/>
<g>
	<polygon class="st12" points="295.2,51.1 307.7,81.4 340.4,84 315.5,105.2 323.2,137.1 295.2,119.9 267.3,137.1 275,105.2 250,84 
		282.7,81.4 295.2,51.1 	"/>
	<polygon class="st13" points="295.2,51.1 307.7,81.4 340.4,84 315.5,105.2 323.2,137.1 295.2,119.9 295.2,51.1 	"/>
	<polygon class="st12" points="397.6,51.1 410.1,81.4 442.8,84 417.8,105.2 425.6,137.1 397.6,119.9 369.7,137.1 377.4,105.2 
		352.4,84 385.1,81.4 397.6,51.1 	"/>
	<polygon class="st13" points="397.6,51.1 410.1,81.4 442.8,84 417.8,105.2 425.6,137.1 397.6,119.9 397.6,51.1 	"/>
	<polygon class="st12" points="500,51.1 512.5,81.4 545.2,84 520.2,105.2 527.9,137.1 500,119.9 472.1,137.1 479.8,105.2 454.8,84 
		487.5,81.4 500,51.1 	"/>
	<polygon class="st13" points="500,51.1 512.5,81.4 545.2,84 520.2,105.2 527.9,137.1 500,119.9 500,51.1 	"/>
	<polygon class="st12" points="602.4,51.1 614.9,81.4 647.6,84 622.6,105.2 630.3,137.1 602.4,119.9 574.4,137.1 582.2,105.2 
		557.2,84 589.9,81.4 602.4,51.1 	"/>
	<polygon class="st13" points="602.4,51.1 614.9,81.4 647.6,84 622.6,105.2 630.3,137.1 602.4,119.9 602.4,51.1 	"/>
	<polygon class="st12" points="704.8,51.1 717.3,81.4 750,84 725,105.2 732.7,137.1 704.8,119.9 676.8,137.1 684.5,105.2 659.6,84 
		692.3,81.4 704.8,51.1 	"/>
	<polygon class="st13" points="704.8,51.1 717.3,81.4 750,84 725,105.2 732.7,137.1 704.8,119.9 704.8,51.1 	"/>
</g>
<circle class="st10" cx="514.1" cy="412.3" r="5.3"/>
<circle class="st10" cx="516.3" cy="448.4" r="5.3"/>
<circle class="st10" cx="519.4" cy="515.2" r="5.3"/>
<circle class="st10" cx="520.5" cy="579.9" r="5.3"/>
<circle class="st10" cx="520.5" cy="548.1" r="5.3"/>
<circle class="st10" cx="520.5" cy="609.6" r="5.3"/>
<circle class="st10" cx="520.5" cy="640.3" r="5.3"/>
<path class="st10" d="M511,404.9l1.1,254.5c0,0,2.1-90.1,2.1-125.1S511,404.9,511,404.9z"/>
<g>
	<path class="st5" d="M509.1,510.6c0,0,7.5,8.8-2.9,15.7c0,0,4.2,11.5-7,13.5c-11.1,1.9-60-2.8-60-2.8s-8.9,2.1-18.5,4.4
		c-1.6,0.4-3.3,0.8-5,1.2c-8.9,2.1-17.3,4-18.8,4.1c-6.8,0.7-3.4-47.9,5.9-54.3l5.3,1.6l4.2-1.1l30.8-6.4c0,0,10.7-23.6,19.1-31.8
		c2.9-2.8-4.2-20.8,6.1-20.8c10.3,0,20,16.2,3.9,41.3c0,0,29.8-0.4,33.5-0.3c3.7,0.1,12.2,7.1,4.4,17.1
		C510.2,492.1,519.8,505.2,509.1,510.6z"/>
	<g>
		<g>
			<path class="st7" d="M508.2,492.7h-15.5c-0.3,0-0.6-0.3-0.6-0.6s0.3-0.6,0.6-0.6h15.5c0.3,0,0.6,0.3,0.6,0.6
				S508.5,492.7,508.2,492.7z"/>
		</g>
		<g>
			<path class="st7" d="M507.5,510.7h-16.4c-0.3,0-0.6-0.3-0.6-0.6s0.3-0.6,0.6-0.6h16.4c0.3,0,0.6,0.3,0.6,0.6
				S507.8,510.7,507.5,510.7z"/>
		</g>
		<g>
			<path class="st7" d="M504.3,526.6h-9.6c-0.3,0-0.6-0.3-0.6-0.6c0-0.3,0.3-0.6,0.6-0.6h9.6c0.3,0,0.6,0.3,0.6,0.6
				C504.9,526.4,504.7,526.6,504.3,526.6z"/>
		</g>
	</g>
</g>
<path class="st7" d="M415.7,542.6c-8.9,2.1-17.3,4-18.8,4.1c-6.8,0.7-0.2-44.2,9.1-50.6l3.2-2.1C411,510.4,412.2,526.9,415.7,542.6z
	"/>
<path class="st4" d="M390.2,521c0.7-11.2,2.8-22.2,5.3-33.2c3.9-1.2,8-1.9,12-2.3c-0.3,20.5,0.3,41,1.9,61.5
	c-4.5,1.6-15.1,7.1-17.4,0.1C389.4,539.2,389.8,529.2,390.2,521z"/>
<circle class="st10" cx="402.3" cy="544.4" r="2.7"/>
<path class="st10" d="M393.3,554.4c0,0,3.2-7.4-7.4-9.5c0,0,10.7,5.1,7.4-12.8c-3.2-17.9-6.4-14.7-6.4-14.7s6-3.3,6.7-10.1
	C393.6,507.2,397.5,550.2,393.3,554.4z"/>
<path class="st10" d="M302.1,501.4c0,0,25.6-22.3,60.4-8.5c0,0-27.7-15.9-54-14.8c0,0,19.9,4.2,19.2,7.4
	C327.7,485.5,302.1,495.1,302.1,501.4z"/>
<path class="st10" d="M405.4,487.5c0,0,3.8-38,0.6-32.7c-3.2,5.3-29.7,35-32.9,37.1c-3.2,2.1,18.8-3.8,20.5,2.9l15.4-4.7
	L405.4,487.5z"/>
</svg>
