<?xml version="1.0" encoding="utf-8"?>
<!-- Generator: Adobe Illustrator 24.2.3, SVG Export Plug-In . SVG Version: 6.00 Build 0)  -->
<svg version="1.1" xmlns="http://www.w3.org/2000/svg" xmlns:xlink="http://www.w3.org/1999/xlink" x="0px" y="0px"
	 viewBox="0 0 459.3 417.5" style="enable-background:new 0 0 459.3 417.5;" xml:space="preserve">
<style type="text/css">
	.st0{display:none;fill:#FFF3CC;}
	.st1{display:none;fill:#CEEFEB;}
	.st2{opacity:0.2;fill-opacity:0.5;}
	.st3{fill:#484848;}
	.st4{fill:#FFFFFF;}
	.st5{fill:#E1E1E1;}
	.st6{fill:#BBBBBB;}
	.st7{fill:#00A0A3;}
	.st8{fill:#028989;}
	.st9{fill:#E7F2F1;}
	.st10{fill:#FFB81F;}
	.st11{opacity:0.5;fill:#FFFFFF;}
	.st12{fill:url(#SVGID_1_);}
	.st13{fill:#666666;}
	.st14{opacity:0.2;}
	.st15{fill-opacity:0.5;}
	.st16{fill:#FF8602;}
	.st17{fill:#FAF8A8;}
	.st18{fill:#DB6A03;}
	.st19{fill:#33C8CB;}
	.st20{opacity:0.1;fill-opacity:0.5;}
	.st21{fill:#00EEED;}
	.st22{fill:#FCB749;}
</style>
<g id="BACKGROUND">
</g>
<g id="OBJECTS">
	<rect class="st0" width="459.3" height="415.4"/>
	<rect y="314.8" class="st1" width="459.3" height="102.8"/>
	<path class="st2" d="M389.7,335.1c0,5.9-65.6,10.6-146.5,10.6c-80.9,0-146.5-4.8-146.5-10.6c0-5.9,65.6-10.6,146.5-10.6
		C324.1,324.5,389.7,329.2,389.7,335.1z"/>
	<path class="st3" d="M364.7,263.6H112.5v-134c0-8.3,6.8-15,15-15h223.2c7.7,0,14,6.3,14,14V263.6z"/>
	<path class="st4" d="M342.1,286.2h-207c-12.5,0-22.6-10.1-22.6-22.6l0,0h252.3l0,0C364.7,276.1,354.6,286.2,342.1,286.2z"/>
	<rect x="215.5" y="286.2" class="st5" width="45.8" height="38.1"/>
	<rect x="215.5" y="286.2" class="st6" width="45.8" height="12.1"/>
	<path class="st4" d="M291.3,338.8H185.5v-2.5c0-6.6,5.4-12,12-12h81.8c6.6,0,12,5.4,12,12V338.8z"/>
	<path class="st7" d="M127,125.4c-2.2,0-4,1.8-4,4v2.8l135.4,117h18h5.2L138.4,125.4H127z"/>
	<path class="st7" d="M123,175.4v15.3v34.7v19.9c0,2.2,1.8,4,4,4h1.7h34.8h10.4h64.9L123,149.1V175.4z"/>
	<path class="st7" d="M349.9,125.4h-24.2h-10.4h-34.8h-34.9h-42.5h-8.4L338,249.2h11.9c2.2,0,4-1.8,4-4v-43.9V186v-56.7
		C353.8,127.1,352,125.4,349.9,125.4z"/>
	<polygon class="st8" points="184.4,125.4 138.4,125.4 281.6,249.2 295.1,249.2 338,249.2 194.7,125.4 	"/>
	<polygon class="st8" points="123,149.1 238.8,249.2 258.4,249.2 123,132.2 	"/>
	<path class="st6" d="M244.7,274.1c0,3.9-3.2,7.1-7.1,7.1c-3.9,0-7.1-3.2-7.1-7.1c0-3.9,3.2-7.1,7.1-7.1
		C241.5,267,244.7,270.2,244.7,274.1z"/>
	<g>
		<g>
			<path class="st4" d="M217.8,153c-15.7,32.1-3.8,57.7-3.8,57.7l-16.1,1.4l-10.5,0.9c-12.1-51,36.4-85.3,36.7-85.6
				c-24.9,31.2-20.5,61.9-20.5,61.9C203.4,173.8,217.6,153.3,217.8,153z"/>
			<path class="st5" d="M197.9,212.1l-10.5,0.9c-12.1-51,36.4-85.3,36.7-85.6c-0.2,0.3-32,35.1-32.3,59
				C191.7,200.2,195,208,197.9,212.1z"/>
		</g>
		<g>
			<g>
				<path class="st4" d="M333.5,224.8c-2.1,0-4,0.3-5.9,0.9c-3-7-9-12.4-16.4-14.6c-0.2,0-0.3-0.1-0.5-0.1c-0.1,0-0.2-0.1-0.3-0.1
					c-2.2-0.6-4.4-0.9-6.8-0.9c-1.3,0-2.6,0.1-3.9,0.3c-2.6-5.3-8.1-9-14.5-9c-0.9,0-1.7,0.1-2.6,0.2c-4.1,0.7-7.6,2.8-10.1,6
					c-2.1-0.5-4.3-0.8-6.6-0.8c-0.3,0-0.6,0-0.9,0c-5.1-6.8-13.2-11.3-22.4-11.3c-6.4,0-12.2,2.1-16.9,5.7c-3.1,2.4-5.7,5.4-7.6,8.9
					c-1.7-0.9-3.6-1.7-5.5-2.2c-1.1-0.3-2.2-0.6-3.3-0.7c-1.4-0.2-2.9-0.3-4.4-0.3c-3.3,0-6.5,0.6-9.4,1.6c-0.7,0.3-1.4,0.5-2.1,0.8
					c-1.9-3.9-4.7-7.3-8.1-9.9c-1-0.8-2.1-1.5-3.2-2.2v-0.1c0-1.1-0.1-2.2-0.2-3.2c-0.2-1.7-0.5-3.3-1-4.8c0,0,0,0,0,0
					c0-0.1,0-0.2-0.1-0.2c0,0,0,0,0,0c-2.2-7.2-7.3-13.1-13.8-16.5c-2.7-1.4-5.7-2.4-8.8-2.8c0,0,0,0,0,0c-1.3-0.2-2.6-0.3-3.9-0.3
					c-2.5,0-5,0.3-7.3,1c-1.5,0.4-3,0.9-4.4,1.6c-2.6-2.7-6-4.7-9.8-5.6c0.4-0.7,0.8-1.4,1.2-2.2c0.2-0.4,0.3-0.8,0.5-1.1
					c0.1-0.3,0.2-0.5,0.3-0.8c0.1-0.4,0.3-0.8,0.4-1.2c0.1-0.2,0.2-0.5,0.2-0.7c0.6-2.2,0.9-4.5,0.9-6.9c0-2.8-0.4-5.4-1.3-7.9
					c-0.4-1.2-0.9-2.4-1.5-3.6c-0.1-0.1-0.1-0.2-0.2-0.3v0h0v0c-0.1-0.3-0.3-0.5-0.4-0.8c-0.1-0.1-0.2-0.3-0.2-0.4
					c-0.2-0.3-0.3-0.5-0.5-0.8c-0.9-1.4-2-2.7-3.2-3.9c-0.3-0.3-0.6-0.6-0.9-0.9v0c1.4-2.2,2.3-4.8,2.3-7.6c0-0.6,0-1.1-0.1-1.7H127
					c-2.2,0-4,1.8-4,4v115.9c0,2.2,1.8,4,4,4h222.9c1.9,0,3.6-1.4,3.9-3.3v-3.3C352.5,232.6,343.9,224.8,333.5,224.8z"/>
			</g>
			<path class="st9" d="M333.5,224.8c-2.1,0-4,0.3-5.9,0.9c-3-7-9-12.4-16.4-14.6c7.6,2.4,7.3,11.8,0.3,15.2
				c-1.5,0.7-3.2,1.2-5.2,1.2c-12.1,0.5-14-4-14-4s-2.7,10.9-14.8,12.3c-5.1,0.6-9.4-0.1-12.8-1.2h0c-5.8-1.9-9-5.1-9-5.1
				s-4.5,4.3-12.2,6.9c-4.3,1.4-9.5,2.3-15.4,1.5c-1-0.1-2-0.3-2.9-0.4c-15.9-2.9-17.7-11.3-17.7-11.3c-3.4,5.8-10.2,9.7-21.3,7.4
				c-11-2.3-12.8-9.5-12.8-9.5c-4.8,7.9-19.5,9.2-23.8,0c-4.4-9.2,0-15.9,0-15.9c-7.2,0.5-14.5-11.6-9.5-24.1
				c2.3-5.8,6.6-9,11.1-10.7h0c7.7-2.9,16-1.3,16.1-1.3c-2.7-1.4-5.7-2.4-8.8-2.8c0,0,0,0,0,0c-1.3-0.2-2.6-0.3-3.9-0.3
				c-2.5,0-5,0.3-7.3,1c-1.5,0.4-3,0.9-4.4,1.6c-2.6-2.7-6-4.7-9.8-5.6c0.4-0.7,0.8-1.4,1.2-2.2c0.2-0.4,0.3-0.8,0.5-1.1
				c0.1-0.3,0.2-0.5,0.3-0.8c0.1-0.4,0.3-0.8,0.4-1.2c0.1-0.2,0.2-0.5,0.2-0.7c0.6-2.2,0.9-4.5,0.9-6.9c0-2.8-0.4-5.4-1.3-7.9
				c-0.4-1.2-0.9-2.4-1.5-3.6c-0.1-0.1-0.1-0.2-0.2-0.3v0h0v0c-0.1-0.3-0.3-0.5-0.4-0.8c-0.1-0.1-0.2-0.3-0.2-0.4
				c-0.2-0.3-0.3-0.5-0.5-0.8c-0.9-1.4-2-2.7-3.2-3.9c-0.3-0.3-0.6-0.6-0.9-0.9c1.4-2.2,2.3-4.8,2.3-7.6c0-0.6,0-1.1-0.1-1.7H127
				c-2.2,0-4,1.8-4,4v115.9c0,2.2,1.8,4,4,4h222.9c1.9,0,3.6-1.4,3.9-3.3v-3.3C352.5,232.6,343.9,224.8,333.5,224.8z"/>
		</g>
		<g>
			<path class="st5" d="M166.9,155.1c1.1,2,0.3,4.4-1.6,5.5c-2,1.1-4.4,0.3-5.5-1.6c-1.1-2-0.3-4.4,1.6-5.5
				C163.3,152.4,165.8,153.1,166.9,155.1z"/>
			<path class="st4" d="M166.7,154.7c0.8,1.4,0.3,3.2-1.2,4c-1.4,0.8-3.2,0.3-4-1.2c-0.8-1.4-0.3-3.2,1.2-4
				C164.1,152.8,165.9,153.3,166.7,154.7z"/>
		</g>
		<g>
			<path class="st5" d="M243.6,186.1c0.7,1.2,0.2,2.8-1,3.5c-1.2,0.7-2.8,0.2-3.5-1c-0.7-1.2-0.2-2.8,1-3.5
				C241.3,184.4,242.9,184.8,243.6,186.1z"/>
			<path class="st4" d="M243.4,185.8c0.5,0.9,0.2,2-0.7,2.5c-0.9,0.5-2,0.2-2.5-0.7c-0.5-0.9-0.2-2,0.7-2.5
				C241.8,184.6,242.9,184.9,243.4,185.8z"/>
		</g>
		<g>
			<path class="st5" d="M194.3,148c0.4,0.7,0.1,1.5-0.5,1.8c-0.7,0.4-1.5,0.1-1.8-0.5c-0.4-0.7-0.1-1.5,0.5-1.8
				C193.1,147.1,194,147.3,194.3,148z"/>
			<path class="st4" d="M194.3,147.9c0.3,0.5,0.1,1.1-0.4,1.3c-0.5,0.3-1.1,0.1-1.3-0.4c-0.3-0.5-0.1-1.1,0.4-1.3
				C193.4,147.2,194,147.4,194.3,147.9z"/>
		</g>
		<g>
			<polygon class="st4" points="181.4,182.7 183.5,160.6 179.7,170.8 181.6,134.9 177.7,177.8 181.5,170.2 			"/>
			<polygon class="st4" points="214.7,198.5 230.6,183.1 221,188.4 245.8,162.3 215,192.5 222.8,189.1 			"/>
		</g>
	</g>
	<g>
		
			<rect x="297.8" y="257" transform="matrix(0.9999 -1.447189e-02 1.447189e-02 0.9999 -3.8782 4.5181)" class="st2" width="25" height="26.5"/>
		
			<rect x="296.4" y="256.4" transform="matrix(0.9999 -1.446749e-02 1.446749e-02 0.9999 -3.8581 4.4969)" class="st10" width="25" height="25"/>
		
			<rect x="306.6" y="250.4" transform="matrix(0.9999 -1.444991e-02 1.444991e-02 0.9999 -3.647 4.4869)" class="st11" width="4.2" height="8.5"/>
	</g>
	<g>
		<g>
			<polygon class="st2" points="361.9,405.8 114.3,405.8 147,353.9 329.2,353.9 			"/>
			<g>
				<g>
					<polygon class="st5" points="353.6,389.8 122,389.8 144.6,353.9 331,353.9 					"/>
					<rect x="122" y="389.8" class="st6" width="231.5" height="8.1"/>
				</g>
				<g>
					<polygon class="st4" points="157,360.2 145.3,360.2 147,356.6 158.3,356.6 					"/>
					<polygon class="st4" points="158.5,360.2 160,356.6 171.3,356.6 170.2,360.2 					"/>
					<polygon class="st4" points="171.7,360.2 172.9,356.6 184.3,356.6 183.4,360.2 					"/>
					<polygon class="st4" points="184.9,360.2 186,356.6 197.3,356.6 196.6,360.2 					"/>
					<polygon class="st4" points="198.2,360.2 199,356.6 210.3,356.6 209.9,360.2 					"/>
					<polygon class="st4" points="211.4,360.2 211.9,356.6 223.3,356.6 223.1,360.2 					"/>
					<polygon class="st4" points="224.6,360.2 224.9,356.6 236.2,356.6 236.3,360.2 					"/>
					<polygon class="st4" points="237.7,360.2 237.8,356.6 249.1,356.6 249.4,360.2 					"/>
					<polygon class="st4" points="250.9,360.2 250.7,356.6 262.1,356.6 262.6,360.2 					"/>
					<polygon class="st4" points="264.1,360.2 263.7,356.6 275.1,356.6 275.8,360.2 					"/>
					<polygon class="st4" points="277.4,360.2 276.7,356.6 288.1,356.6 289.1,360.2 					"/>
					<polygon class="st4" points="290.6,360.2 289.8,356.6 301.1,356.6 302.3,360.2 					"/>
					<polygon class="st4" points="303.8,360.2 302.7,356.6 314.1,356.6 315.5,360.2 					"/>
					<polygon class="st4" points="317.1,360.2 328.8,360.2 327,356.6 315.7,356.6 					"/>
				</g>
				<g>
					<polygon class="st4" points="154.5,367.1 142.4,367.1 144.2,363.3 155.9,363.3 					"/>
					<polygon class="st4" points="156.1,367.1 157.6,363.3 169.4,363.3 168.2,367.1 					"/>
					<polygon class="st4" points="169.8,367.1 171.1,363.3 182.8,363.3 181.9,367.1 					"/>
					<polygon class="st4" points="183.5,367.1 184.6,363.3 196.3,363.3 195.7,367.1 					"/>
					<polygon class="st4" points="197.3,367.1 198.1,363.3 209.8,363.3 209.4,367.1 					"/>
					<polygon class="st4" points="211,367.1 211.5,363.3 223.3,363.3 223.1,367.1 					"/>
					<polygon class="st4" points="224.7,367.1 225,363.3 236.7,363.3 236.8,367.1 					"/>
					<polygon class="st4" points="238.3,367.1 238.3,363.3 250.1,363.3 250.4,367.1 					"/>
					<polygon class="st4" points="251.9,367.1 251.8,363.3 263.5,363.3 264.1,367.1 					"/>
					<polygon class="st4" points="265.6,367.1 265.2,363.3 277,363.3 277.8,367.1 					"/>
					<polygon class="st4" points="279.4,367.1 278.7,363.3 290.4,363.3 291.5,367.1 					"/>
					<polygon class="st4" points="293.1,367.1 292.2,363.3 304,363.3 305.2,367.1 					"/>
					<polygon class="st4" points="306.8,367.1 305.7,363.3 317.4,363.3 318.9,367.1 					"/>
					<polygon class="st4" points="320.5,367.1 332.6,367.1 330.9,363.3 319.1,363.3 					"/>
				</g>
				<g>
					<polygon class="st4" points="152.4,373.9 139.9,373.9 141.7,369.9 153.8,369.9 					"/>
					<polygon class="st4" points="154,373.9 155.5,369.9 167.6,369.9 166.5,373.9 					"/>
					<polygon class="st4" points="168.1,373.9 169.4,369.9 181.5,369.9 180.6,373.9 					"/>
					<polygon class="st4" points="182.2,373.9 183.3,369.9 195.4,369.9 194.7,373.9 					"/>
					<polygon class="st4" points="196.4,373.9 197.2,369.9 209.3,369.9 208.9,373.9 					"/>
					<polygon class="st4" points="210.5,373.9 211.1,369.9 223.2,369.9 223,373.9 					"/>
					<polygon class="st4" points="224.6,373.9 224.9,369.9 237,369.9 237.1,373.9 					"/>
					<polygon class="st4" points="238.6,373.9 238.7,369.9 250.8,369.9 251.1,373.9 					"/>
					<polygon class="st4" points="252.7,373.9 252.5,369.9 264.6,369.9 265.2,373.9 					"/>
					<polygon class="st4" points="266.8,373.9 266.4,369.9 278.5,369.9 279.3,373.9 					"/>
					<polygon class="st4" points="280.9,373.9 280.2,369.9 292.3,369.9 293.4,373.9 					"/>
					<polygon class="st4" points="295.1,373.9 294.2,369.9 306.3,369.9 307.6,373.9 					"/>
					<polygon class="st4" points="309.2,373.9 308,369.9 320.1,369.9 321.7,373.9 					"/>
					<polygon class="st4" points="323.3,373.9 335.8,373.9 334,369.9 321.9,369.9 					"/>
				</g>
				<g>
					<polygon class="st4" points="149.3,380.8 136.4,380.8 138.3,376.7 150.8,376.7 					"/>
					<polygon class="st4" points="151,380.8 152.6,376.7 165.1,376.7 163.9,380.8 					"/>
					<polygon class="st4" points="165.6,380.8 167,376.7 179.5,376.7 178.5,380.8 					"/>
					<polygon class="st4" points="180.2,380.8 181.4,376.7 193.9,376.7 193.2,380.8 					"/>
					<polygon class="st4" points="194.9,380.8 195.7,376.7 208.2,376.7 207.8,380.8 					"/>
					<polygon class="st4" points="265.5,376.7 252.9,376.7 251.1,376.7 238.6,376.7 236.9,376.7 224.4,376.7 210.1,376.7 
						209.5,380.8 224.1,380.8 237,380.8 238.6,380.8 251.5,380.8 253.1,380.8 266.1,380.8 					"/>
					<polygon class="st4" points="267.8,380.8 267.3,376.7 279.8,376.7 280.7,380.8 					"/>
					<polygon class="st4" points="282.4,380.8 281.7,376.7 294.2,376.7 295.3,380.8 					"/>
					<polygon class="st4" points="297,380.8 296.1,376.7 308.6,376.7 309.9,380.8 					"/>
					<polygon class="st4" points="311.6,380.8 310.4,376.7 322.9,376.7 324.6,380.8 					"/>
					<polygon class="st4" points="326.2,380.8 339.2,380.8 337.3,376.7 324.7,376.7 					"/>
				</g>
			</g>
		</g>
		<g>
			<path class="st2" d="M388.3,378.3c4.2-7.3,17-7.8,28.5-1.1c11.5,6.7,17.5,18,13.3,25.3c-4.2,7.3-17,7.8-28.5,1.1
				C390,396.9,384,385.6,388.3,378.3z"/>
			<g>
				<path class="st4" d="M429.8,395.8L429.8,395.8c-0.1,0.4-0.2,0.7-0.4,1c0,0,0,0,0,0c-4.4,7.1-27.7,3-30.3-3.2
					c-0.2-0.5-0.5-1-0.7-1.5c-3.2-7-5.3-5-11-9.7c-0.2-0.2-0.5-0.4-0.7-0.6c0,0-0.1-0.1-0.1-0.1c-3.2-3.6,0.7-8.3,0.7-8.3
					c0.2-0.2,0.5-0.4,0.7-0.5c0,0,0,0,0,0c1.9-1.4,3.9-2.3,5.9-2.9c0.9-0.3,1.8-0.4,2.8-0.5C413.5,367.4,431.4,388.6,429.8,395.8z"
					/>
				<path class="st5" d="M429.5,396.8c-4.4,7.1-27.7,3-30.3-3.2c-0.2-0.5-0.5-1-0.7-1.5c-3.3-6.9-5.5-4.8-11-9.7
					c-0.2-0.2-0.5-0.4-0.7-0.6c0,0-0.1-0.1-0.1-0.1c-3.2-3.6,0.7-8.3,0.7-8.3c0.2-0.2,0.5-0.4,0.7-0.5c-0.5,1.3-0.9,4.4,2.8,7.3
					c0.9,0.7,1.9,1.2,2.9,1.7c0.8,0.3,2.4,1.6,5.3,5.6c4.6,6.5,4,7.3,14.3,10.1C423.5,400.2,429.2,396.9,429.5,396.8z"/>
				<path class="st5" d="M404.3,375c-6-4.9-10.2-5.1-10.2-5.1c0.9-0.3,1.8-0.4,2.8-0.5C401.6,370.9,404.2,374.8,404.3,375z"/>
			</g>
		</g>
	</g>
	<path class="st2" d="M73.4,359.6c0,3-16.3,5.4-36.4,5.4s-36.4-2.4-36.4-5.4c0-3,16.3-5.4,36.4-5.4S73.4,356.6,73.4,359.6z"/>
	<g>
		<g>
			<path class="st4" d="M67.6,313.3c-1.5-0.5-3.2-0.8-4.9-0.8c-8.5,0-15.4,7-15.3,15.5c0,8.5,7,15.4,15.5,15.3c0.2,0,0.3,0,0.5,0
				c8.3-0.3,14.9-7.2,14.9-15.5C78.2,321.1,73.7,315.4,67.6,313.3z M67.4,335.7c-1.3,0.8-2.9,1.3-4.6,1.3c-4.9,0-9-4-9-8.9
				c0-4.9,4-9,8.9-9c2.1,0,4.1,0.7,5.6,1.9c2.1,1.6,3.4,4.1,3.4,7C71.8,331.2,70,334.1,67.4,335.7z"/>
		</g>
		<path class="st5" d="M62.9,337c1.7,0,3.2-0.5,4.6-1.3c-0.8,3.2-2.1,6-4.1,7.8c-0.2,0-0.3,0-0.5,0c-8.5,0-15.5-6.8-15.5-15.3
			c0-8.5,6.8-15.5,15.3-15.5c1.7,0,3.3,0.3,4.9,0.8c0.2,1.7,0.6,4.4,0.8,7.7c-1.5-1.2-3.5-1.9-5.6-1.9c-4.9,0-8.9,4.1-8.9,9
			C53.9,333,57.9,337,62.9,337z"/>
	</g>
	<path class="st4" d="M64.7,306.5l0.1,21.8c0,6.5-2.2,12.5-5.9,17.3c-1.9,2.5-4.3,4.7-7,6.4c-4.3,2.8-9.4,4.4-14.9,4.4
		c-5.5,0-10.6-1.5-14.9-4.2c-2.7-1.7-5.1-3.8-7.1-6.3c-3.8-4.7-6-10.7-6.1-17.2l-0.1-21.8L64.7,306.5z"/>
	<path class="st5" d="M56.2,359.7L18,359.9c-2.1,0-3.9-1.7-3.9-3.9l0,0c0-2.1,1.7-3.9,3.9-3.9l38.2-0.2c2.1,0,3.9,1.7,3.9,3.9l0,0
		C60.1,357.9,58.3,359.7,56.2,359.7z"/>
	<path class="st5" d="M59,345.6c-1.9,2.5-4.3,4.7-7,6.4l-29.8,0.2c-2.7-1.7-5.1-3.8-7.1-6.3c-3.8-4.7-6-10.7-6.1-17.2l-0.1-21.8
		l16.6-0.1l0,5.8C25.6,330.9,40.6,345.7,59,345.6L59,345.6z"/>
	<linearGradient id="SVGID_1_" gradientUnits="userSpaceOnUse" x1="37.059" y1="342.752" x2="37.059" y2="245.5714">
		<stop  offset="0" style="stop-color:#FFFFFF"/>
		<stop  offset="1" style="stop-color:#FFFFFF;stop-opacity:0"/>
	</linearGradient>
	<path class="st12" d="M26.7,307.2c0,0-6.4-4.6-4.5-13.7c1.9-9.1,9.3-10.4,7.2-24.6c-2.1-14.2-3.2-27,2.9-34.5h20c0,0-7,19-2.2,31.9
		c4.8,12.8,0.6,18.1-3.7,25.3c-4.3,7.2,2.2,15.6,2.2,15.6H26.7z"/>
	<g>
		<rect x="401.7" y="205.5" class="st2" width="56.5" height="45"/>
		<g>
			<rect x="401.7" y="201.3" class="st4" width="56.5" height="45"/>
			<g>
				<path class="st7" d="M401.7,189.8v11.6h56.5v-11.6H401.7z M409.4,198.2c-1.5,0-2.8-1.2-2.8-2.8v0c0-1.5,1.2-2.8,2.8-2.8
					s2.8,1.2,2.8,2.8v0C412.2,196.9,410.9,198.2,409.4,198.2z M450.4,198.2c-1.5,0-2.8-1.2-2.8-2.8v0c0-1.5,1.2-2.8,2.8-2.8
					c1.5,0,2.8,1.2,2.8,2.8v0C453.2,196.9,452,198.2,450.4,198.2z"/>
				<path class="st8" d="M458.1,195.4v6h-56.5v-6h4.9c0,1.5,1.2,2.8,2.8,2.8s2.8-1.2,2.8-2.8h35.5c0,1.5,1.2,2.8,2.8,2.8
					c1.5,0,2.8-1.2,2.8-2.8H458.1z"/>
			</g>
			<path class="st4" d="M411,195.4h-3.3c-0.1,0-0.2-0.1-0.2-0.2v-10.7c0-0.6,0.4-1,1-1h1.6c0.6,0,1,0.4,1,1v10.7
				C411.2,195.3,411.1,195.4,411,195.4z"/>
			<path class="st4" d="M452.1,195.4h-3.3c-0.1,0-0.2-0.1-0.2-0.2v-10.7c0-0.6,0.4-1,1-1h1.6c0.6,0,1,0.4,1,1v10.7
				C452.2,195.3,452.2,195.4,452.1,195.4z"/>
			<g>
				<path class="st13" d="M417.6,212.6c3.3,0,4-1.6,4.7-3.4h2.9v27h-4.2v-20.6h-3.3V212.6z"/>
				<path class="st13" d="M436.5,212.7c-1.4,0-2.2,0.7-2.2,2.7v2.9h-4v-2.6c0-4.3,2.2-6.8,6.3-6.8s6.3,2.5,6.3,6.8
					c0,8.5-8.5,11.7-8.5,16.1c0,0.2,0,0.4,0,0.6h8v3.9h-12.3v-3.3c0-8,8.4-9.3,8.4-17.1C438.7,213.4,437.9,212.7,436.5,212.7z"/>
			</g>
		</g>
	</g>
	<g>
		<g class="st14">
			<circle class="st15" cx="56.1" cy="63.5" r="38.4"/>
		</g>
		<g>
			<g>
				<circle class="st13" cx="56.1" cy="59.6" r="38.4"/>
			</g>
		</g>
		<g>
			
				<ellipse transform="matrix(0.162 -0.9868 0.9868 0.162 -11.8351 105.2872)" class="st4" cx="56.1" cy="59.6" rx="35.4" ry="35.4"/>
		</g>
		<g>
			<g>
				<rect x="54.8" y="27.4" class="st13" width="1.3" height="7.4"/>
			</g>
			<g>
				<rect x="54.8" y="84.2" class="st13" width="1.3" height="7.4"/>
			</g>
		</g>
		<g>
			<g>
				<rect x="23.4" y="58.9" class="st13" width="7.4" height="1.3"/>
			</g>
			<g>
				<rect x="80.2" y="58.9" class="st13" width="7.4" height="1.3"/>
			</g>
		</g>
		<g>
			<g>
				
					<rect x="71.9" y="38.8" transform="matrix(0.7071 -0.7071 0.7071 0.7071 -5.7447 64.9973)" class="st13" width="7.4" height="1.3"/>
			</g>
			<g>
				
					<rect x="31.7" y="78.9" transform="matrix(0.7071 -0.7071 0.7071 0.7071 -45.912 48.3597)" class="st13" width="7.4" height="1.3"/>
			</g>
		</g>
		<g>
			<g>
				
					<rect x="34.8" y="35.7" transform="matrix(0.7071 -0.7071 0.7071 0.7071 -17.5094 36.5949)" class="st13" width="1.3" height="7.4"/>
			</g>
			<g>
				
					<rect x="74.9" y="75.9" transform="matrix(0.7071 -0.7071 0.7071 0.7071 -34.1471 76.7561)" class="st13" width="1.3" height="7.4"/>
			</g>
		</g>
		<g class="st14">
			<path class="st15" d="M91.5,59.6c0,0.7,0,1.4-0.1,2c-1-18.6-16.5-33.4-35.4-33.4c-18.8,0-34.3,14.8-35.4,33.4
				c0-0.7-0.1-1.3-0.1-2c0-19.5,15.9-35.4,35.4-35.4C75.6,24.2,91.5,40.1,91.5,59.6z"/>
		</g>
		<g>
			<g>
				
					<rect x="60.7" y="54.9" transform="matrix(0.3664 -0.9305 0.9305 0.3664 -18.5014 96.0988)" class="st16" width="1.1" height="13.5"/>
			</g>
		</g>
		<g>
			<polygon class="st13" points="56.1,60.1 35.4,60.1 35.4,58.9 54.9,58.9 54.9,42.9 56.1,42.9 			"/>
		</g>
	</g>
	<g>
		<path class="st16" d="M265.2,133.7c-9.8,4.3-16.5,5.8-34.3,19.1c0,0-0.1,0.1-0.1,0.1c0,0,0.1-0.1,0.1-0.1
			c11.8-18.8,12.9-25.6,16.3-35.7c3.5-10.2,14.8-16,14.8-16l9.6,7.6l0,0l8.3,8.9C280,117.7,275.1,129.5,265.2,133.7z"/>
		<path class="st10" d="M244.3,138.4c2.9-6,4.3-10.6,5.8-15.2c0.5-1.5,1-3.1,1.5-4.7c1.8-5.3,9.2-12,12.3-14.1l6.1,5.6l6.3,5.8
			c-1.9,3.2-7.5,11.5-12.6,13.7c-1.6,0.7-3.1,1.3-4.6,1.9C254.4,133.3,250,135.1,244.3,138.4z"/>
		<path class="st17" d="M251.9,130.2c1-2.4,1.9-4.6,2.7-6.8l0,0c0.7-1.7,1.3-3.4,2.1-5.2c1.4-3.3,6-8.3,9.6-11.5l7.6,7
			c-3.1,4.3-7.4,9.3-10.4,10.8c-1.7,0.9-3.4,1.7-5,2.5l0,0C256.3,128,254.2,129,251.9,130.2z"/>
	</g>
	<g>
		<path class="st16" d="M272.5,74.5c-2.3-0.1-4.6,0.3-7,1C253.8,79.4,242,92.3,242,92.3s0,0,0,0c-0.2-0.3-7.3-11.9,0.7-27.4
			c4.2-8.1,11.4-13.1,17.4-15.9c1.1-0.5,2.1-0.2,2.8,0.4c0.5,0.5,0.8,1.1,0.9,1.9c0,0.6-0.2,1.3-0.7,1.8l17.3-5.7l13-4.2
			c0,0,0,0,0,0C287.5,58.2,272.5,74.5,272.5,74.5z"/>
		<path class="st10" d="M242,92.3c-0.2-0.3-7.3-11.9,0.7-27.4c4.2-8.1,11.4-13.1,17.4-15.9c1.1-0.5,2.1-0.2,2.8,0.4
			c0.5,0.5,0.8,1.1,0.9,1.9c-0.2,0.6-0.4,1.2-0.7,1.8c0,0-12.6,7-18.1,19.6C239.6,85.1,242,92.1,242,92.3z"/>
		<path class="st18" d="M272.5,74.5c-2.3-0.1-4.6,0.3-7,1c2.7-10.7,9.1-20.7,14.9-28.1l13-4.2c0,0,0,0,0,0
			C287.5,58.2,272.5,74.5,272.5,74.5z"/>
	</g>
	<path class="st16" d="M305.7,105.1c0.3,2.2,0.1,4.6-0.5,7.1c-2.9,12-14.8,24.8-14.8,24.8s0,0,0,0c0.3,0.2,12.4,6.3,27.3-2.9
		c7.8-4.8,12.1-12.4,14.5-18.6c0.4-1.1,0.1-2.2-0.6-2.8c-0.5-0.5-1.2-0.7-1.9-0.7c-0.6,0-1.2,0.3-1.8,0.8l4.2-17.7l3.2-13.3
		c0,0,0,0,0,0C320.8,88.9,305.7,105.1,305.7,105.1z"/>
	<path class="st10" d="M290.4,137c0.3,0.2,12.4,6.3,27.3-2.9c7.8-4.8,12.1-12.4,14.5-18.6c0.4-1.1,0.1-2.2-0.6-2.8
		c-0.5-0.5-1.2-0.7-1.9-0.7c-0.6,0.3-1.2,0.5-1.8,0.8c0,0-6,13.1-18.1,19.6C297.8,138.8,290.6,137,290.4,137z"/>
	<path class="st18" d="M305.7,105.1c0.3,2.2,0.1,4.6-0.5,7.1c10.4-3.6,19.9-10.7,26.8-17.1l3.2-13.3c0,0,0,0,0,0
		C320.8,88.9,305.7,105.1,305.7,105.1z"/>
	<path class="st4" d="M334,83c-3.8,4.1-6.9,7.4-10.3,10.3c-3.3,2.9-6.8,5.5-11.5,8.3c-0.1,0.1-0.3,0.2-0.5,0.3l-7.7,4l-8.5,4.4
		l-16.2,8.5L261,101.9l0.8-1.9l6.3-15l3.7-8.9c4.7-11.2,11.3-21.7,19.7-30.9c0.2-0.3,0.5-0.5,0.7-0.8c11.5-12.5,23.1-20.6,33.6-25.9
		c0.7-0.4,1.5-0.7,2.2-1.1c1.8-0.8,3.5-1.6,5.2-2.3c0.7-0.3,1.4-0.6,2.1-0.9c0.4-0.1,0.7-0.3,1.1-0.4c4.6-1.7,8.7-2.8,12.4-3.6
		c4.3-0.9,7.8-1.3,10.4-1.5c2.8-0.2,5,1.8,5,4.6c0,4.8-0.5,13-3.3,23.1c-0.1,0.4-0.2,0.8-0.4,1.2c-0.2,0.7-0.4,1.5-0.7,2.2
		c-0.6,1.7-1.2,3.5-1.9,5.3c-0.3,0.7-0.6,1.5-0.9,2.2C352.6,58.3,345.5,70.5,334,83z"/>
	<path class="st5" d="M266.8,109.6c-2.2-2.3-4.2-4.9-5.8-7.7l3.7-8.8l3.4-8l3.7-8.9c4.7-11.2,11.3-21.7,19.7-30.9
		c0.2-0.3,0.5-0.5,0.7-0.8c15.6-16.9,31.4-25.8,44.2-30.6c4.6-1.7,8.7-2.8,12.4-3.6c0.7,3.3,2.1,3.6-1.8,9.2
		c0,0-36.7,11.2-54.1,37.8c-16,24.3-5.1,25.5-5.1,25.5l-15.6,19.9L266.8,109.6z"/>
	<path class="st13" d="M287.8,114.3l-8.5,4.4c-1-0.5-1.9-1-2.9-1.6c-0.8-0.5-1.6-1-2.3-1.5c-2.7-1.8-5.1-3.8-7.3-6.1
		c-2.2-2.3-4.2-4.9-5.8-7.7l3.7-8.8c2.2,3.5,4.8,6.7,7.5,9.6c3.3,3.4,7,6.4,11,9c0.7,0.4,1.4,0.9,2.1,1.3
		C286.1,113.4,286.9,113.9,287.8,114.3z"/>
	<g>
		<path class="st16" d="M262.9,120.2c-0.6,0.3-1.2,0.1-1.6-0.2c-0.4-0.4-0.6-1-0.4-1.6c9.1-23.2,39.4-47.2,52.1-56.6
			c0.6-0.5,1.4-0.3,1.9,0.1c0.5,0.4,0.7,1.2,0.3,1.9C306.8,77.1,285.2,109.2,262.9,120.2z"/>
		<path class="st18" d="M314.8,61.9L261.2,120c-0.4-0.4-0.6-1-0.4-1.6c9.1-23.2,39.4-47.2,52.1-56.6
			C313.6,61.3,314.4,61.4,314.8,61.9z"/>
	</g>
	<g>
		<g>
			<path class="st13" d="M339.2,56c-5.2,5.7-14,6-19.7,0.8c-5.7-5.2-6-14-0.8-19.7c5.2-5.7,14-6,19.7-0.8
				C344.1,41.6,344.4,50.4,339.2,56z"/>
			<path class="st19" d="M337,54.1c0,0-0.1,0.1-0.1,0.1c-4.1,4.3-10.9,4.6-15.4,0.6c0,0-0.1-0.1-0.1-0.1c-0.8-0.7-1.4-1.5-1.9-2.3
				c-0.9-1.5-1.5-3.3-1.6-5c-0.1-1.5,0.1-3,0.6-4.4c0.5-1.4,1.2-2.7,2.3-3.8c4.1-4.5,11.1-4.8,15.6-0.6c1.1,1,2,2.3,2.6,3.6
				c0.6,1.4,0.9,2.9,1,4.4c0,1.7-0.4,3.5-1.2,5.1C338.3,52.5,337.7,53.3,337,54.1z"/>
			<path class="st20" d="M338.8,51.6c0.8-1.6,1.2-3.4,1.2-5.1c0-1.5-0.3-3-1-4.4c-0.6-1.3-1.5-2.6-2.6-3.6
				c-4.5-4.1-11.5-3.8-15.6,0.6c-0.2,0.2-0.4,0.5-0.6,0.7c4.2-3.8,10.7-3.9,14.9,0c1.1,1,2,2.3,2.6,3.6c0.6,1.4,0.9,2.9,1,4.4
				c0,1.7-0.4,3.5-1.2,5.1c-0.3,0.6-0.7,1.2-1.1,1.8c0.2-0.2,0.4-0.4,0.5-0.5c0,0,0.1-0.1,0.1-0.1C337.7,53.3,338.3,52.5,338.8,51.6
				z"/>
		</g>
		<path class="st21" d="M336.4,43.6c0,0,0.2,6.3-4.2,9.1c-4.9,3.1-9,0.6-11.8-3.9c0,0,0.4,5.1,6.3,7C333,57.9,338.9,51.3,336.4,43.6
			z"/>
	</g>
	<g>
		<path class="st16" d="M360.9,36.5c-9.4-6.1-17.6-13.6-24.4-22.5c9.9-3.7,18-4.8,22.8-5.2c1.7-0.1,3.2,0.6,4.1,1.8
			c0.6,0.8,0.9,1.7,0.9,2.8C364.3,18.1,363.7,26.3,360.9,36.5z"/>
		<path class="st22" d="M362.1,19.2c0.1-0.9,0.2-1.6,0.4-3c0.3-2.2-0.2-3.2-1.7-3.1c-2.8,0.1-5.6,11.4-2.5,15.6
			C360.8,31.9,361.8,23.2,362.1,19.2z"/>
		<path class="st2" d="M360.9,36.5c-9.4-6.1-17.6-13.6-24.4-22.5c9.9-3.7,18-4.8,22.8-5.2c1.7-0.1,3.2,0.6,4.1,1.8
			c-1,0-8,0-11.8,4.1C347.4,19.1,349.6,28.3,360.9,36.5z"/>
	</g>
</g>
<g id="DESIGNED_BY_FREEPIK">
</g>
</svg>
