<?xml version="1.0" encoding="utf-8"?>
<!-- Generator: Adobe Illustrator 24.2.3, SVG Export Plug-In . SVG Version: 6.00 Build 0)  -->
<svg version="1.1" xmlns="http://www.w3.org/2000/svg" xmlns:xlink="http://www.w3.org/1999/xlink" x="0px" y="0px"
	 viewBox="0 0 500 500" style="enable-background:new 0 0 500 500;" xml:space="preserve">
<style type="text/css">
	.st0{display:none;fill:#FFF3CC;}
	.st1{display:none;fill:#CEEFEB;}
	.st2{opacity:0.2;fill-opacity:0.5;}
	.st3{fill:#484848;}
	.st4{fill:#FFFFFF;}
	.st5{fill:#E1E1E1;}
	.st6{fill:#BBBBBB;}
	.st7{fill:#00A0A3;}
	.st8{fill:#028989;}
	.st9{fill:#E7F2F1;}
	.st10{fill:#FFB81F;}
	.st11{opacity:0.5;fill:#FFFFFF;}
	.st12{fill:url(#SVGID_1_);}
	.st13{fill:#666666;}
	.st14{opacity:0.2;}
	.st15{fill-opacity:0.5;}
	.st16{fill:#FF8602;}
	.st17{fill:#FAF8A8;}
	.st18{fill:#DB6A03;}
	.st19{fill:#33C8CB;}
	.st20{opacity:0.1;fill-opacity:0.5;}
	.st21{fill:#00EEED;}
	.st22{fill:#FCB749;}
</style>
<g id="BACKGROUND">
	<rect y="31.4" class="st0" width="500" height="500"/>
</g>
<g id="OBJECTS">
	<rect y="373.9" class="st1" width="500" height="157.5"/>
	<path class="st2" d="M402.4,374.3c0,5.9-65.6,10.6-146.5,10.6c-80.9,0-146.5-4.8-146.5-10.6c0-5.9,65.6-10.6,146.5-10.6
		C336.8,363.7,402.4,368.5,402.4,374.3z"/>
	<path class="st3" d="M377.5,302.8H125.2v-134c0-8.3,6.8-15,15-15h223.2c7.7,0,14,6.3,14,14V302.8z"/>
	<path class="st4" d="M354.9,325.4h-207c-12.5,0-22.6-10.1-22.6-22.6l0,0h252.3l0,0C377.5,315.3,367.4,325.4,354.9,325.4z"/>
	<rect x="228.3" y="325.4" class="st5" width="45.8" height="38.1"/>
	<rect x="228.3" y="325.4" class="st6" width="45.8" height="12.1"/>
	<path class="st4" d="M304.1,378H198.3v-2.5c0-6.6,5.4-12,12-12h81.8c6.6,0,12,5.4,12,12V378z"/>
	<path class="st7" d="M139.7,164.6c-2.2,0-4,1.8-4,4v2.8l135.4,117h18h5.2L151.1,164.6H139.7z"/>
	<path class="st7" d="M135.8,214.6v15.3v34.7v19.9c0,2.2,1.8,4,4,4h1.7h34.8h10.4h64.9L135.8,188.4V214.6z"/>
	<path class="st7" d="M362.6,164.6h-24.2H328h-34.8h-34.9h-42.5h-8.4l143.2,123.8h11.9c2.2,0,4-1.8,4-4v-43.9v-15.3v-56.7
		C366.6,166.4,364.8,164.6,362.6,164.6z"/>
	<polygon class="st8" points="197.1,164.6 151.1,164.6 294.3,288.4 307.9,288.4 350.7,288.4 207.5,164.6 	"/>
	<polygon class="st8" points="135.8,188.4 251.5,288.4 271.2,288.4 135.8,171.4 	"/>
	<path class="st6" d="M257.4,313.3c0,3.9-3.2,7.1-7.1,7.1c-3.9,0-7.1-3.2-7.1-7.1c0-3.9,3.2-7.1,7.1-7.1
		C254.2,306.2,257.4,309.4,257.4,313.3z"/>
	<g>
		<g>
			<path class="st4" d="M230.6,192.2c-15.7,32.1-3.8,57.7-3.8,57.7l-16.1,1.4l-10.5,0.9c-12.1-51,36.4-85.3,36.7-85.6
				c-24.9,31.2-20.5,61.9-20.5,61.9C216.1,213,230.4,192.5,230.6,192.2z"/>
			<path class="st5" d="M210.7,251.3l-10.5,0.9c-12.1-51,36.4-85.3,36.7-85.6c-0.2,0.3-32,35.1-32.3,59
				C204.4,239.4,207.8,247.2,210.7,251.3z"/>
		</g>
		<g>
			<g>
				<path class="st4" d="M346.3,264c-2.1,0-4,0.3-5.9,0.9c-3-7-9-12.4-16.4-14.6c-0.2,0-0.3-0.1-0.5-0.1c-0.1,0-0.2-0.1-0.3-0.1
					c-2.2-0.6-4.4-0.9-6.8-0.9c-1.3,0-2.6,0.1-3.9,0.3c-2.6-5.3-8.1-9-14.5-9c-0.9,0-1.7,0.1-2.6,0.2c-4.1,0.7-7.7,2.8-10.1,6
					c-2.1-0.5-4.3-0.8-6.6-0.8c-0.3,0-0.6,0-0.9,0c-5.1-6.8-13.2-11.3-22.4-11.3c-6.4,0-12.2,2.1-16.9,5.7c-3.1,2.4-5.7,5.4-7.6,8.9
					c-1.7-0.9-3.6-1.7-5.5-2.2c-1.1-0.3-2.2-0.6-3.3-0.7c-1.4-0.2-2.9-0.3-4.4-0.3c-3.3,0-6.5,0.6-9.4,1.6c-0.7,0.3-1.4,0.5-2.1,0.8
					c-1.9-3.9-4.7-7.3-8.1-9.9c-1-0.8-2.1-1.5-3.2-2.2v-0.1c0-1.1-0.1-2.2-0.2-3.2c-0.2-1.7-0.5-3.3-1-4.8c0,0,0,0,0,0
					c0-0.1,0-0.2-0.1-0.2c0,0,0,0,0,0c-2.2-7.2-7.3-13.1-13.8-16.5c-2.7-1.4-5.7-2.4-8.8-2.8c0,0,0,0,0,0c-1.3-0.2-2.6-0.3-3.9-0.3
					c-2.5,0-5,0.3-7.3,1c-1.5,0.4-3,0.9-4.4,1.6c-2.6-2.7-6-4.7-9.8-5.6c0.4-0.7,0.8-1.4,1.2-2.2c0.2-0.4,0.3-0.8,0.5-1.1
					c0.1-0.3,0.2-0.5,0.3-0.8c0.1-0.4,0.3-0.8,0.4-1.2c0.1-0.2,0.2-0.5,0.2-0.7c0.6-2.2,0.9-4.5,0.9-6.9c0-2.8-0.4-5.4-1.3-7.9
					c-0.4-1.2-0.9-2.4-1.5-3.6c-0.1-0.1-0.1-0.2-0.2-0.3v0h0v0c-0.1-0.3-0.3-0.5-0.4-0.8c-0.1-0.1-0.2-0.3-0.2-0.4
					c-0.2-0.3-0.3-0.5-0.5-0.8c-0.9-1.4-2-2.7-3.2-3.9c-0.3-0.3-0.6-0.6-0.9-0.9v0c1.4-2.2,2.3-4.8,2.3-7.6c0-0.6,0-1.1-0.1-1.7
					h-3.6c-2.2,0-4,1.8-4,4v115.9c0,2.2,1.8,4,4,4h222.9c1.9,0,3.6-1.4,3.9-3.3v-3.3C365.2,271.8,356.7,264,346.3,264z"/>
			</g>
			<path class="st9" d="M346.3,264c-2.1,0-4,0.3-5.9,0.9c-3-7-9-12.4-16.4-14.6c7.6,2.4,7.3,11.8,0.3,15.2c-1.5,0.7-3.2,1.2-5.2,1.2
				c-12.1,0.5-14-4-14-4s-2.7,10.9-14.8,12.3c-5.1,0.6-9.4-0.1-12.8-1.2h0c-5.8-1.9-9-5.1-9-5.1s-4.5,4.3-12.2,6.9
				c-4.3,1.4-9.5,2.3-15.4,1.5c-1-0.1-2-0.3-2.9-0.4c-15.9-2.9-17.7-11.3-17.7-11.3c-3.4,5.8-10.2,9.7-21.3,7.4
				c-11-2.3-12.8-9.5-12.8-9.5c-4.8,7.9-19.5,9.2-23.8,0c-4.4-9.2,0-15.9,0-15.9c-7.2,0.5-14.5-11.6-9.5-24.1
				c2.3-5.8,6.6-9,11.1-10.7h0c7.7-2.9,16-1.3,16.1-1.3c-2.7-1.4-5.7-2.4-8.8-2.8c0,0,0,0,0,0c-1.3-0.2-2.6-0.3-3.9-0.3
				c-2.5,0-5,0.3-7.3,1c-1.5,0.4-3,0.9-4.4,1.6c-2.6-2.7-6-4.7-9.8-5.6c0.4-0.7,0.8-1.4,1.2-2.2c0.2-0.4,0.3-0.8,0.5-1.1
				c0.1-0.3,0.2-0.5,0.3-0.8c0.1-0.4,0.3-0.8,0.4-1.2c0.1-0.2,0.2-0.5,0.2-0.7c0.6-2.2,0.9-4.5,0.9-6.9c0-2.8-0.4-5.4-1.3-7.9
				c-0.4-1.2-0.9-2.4-1.5-3.6c-0.1-0.1-0.1-0.2-0.2-0.3v0h0v0c-0.1-0.3-0.3-0.5-0.4-0.8c-0.1-0.1-0.2-0.3-0.2-0.4
				c-0.2-0.3-0.3-0.5-0.5-0.8c-0.9-1.4-2-2.7-3.2-3.9c-0.3-0.3-0.6-0.6-0.9-0.9c1.4-2.2,2.3-4.8,2.3-7.6c0-0.6,0-1.1-0.1-1.7h-3.6
				c-2.2,0-4,1.8-4,4v115.9c0,2.2,1.8,4,4,4h222.9c1.9,0,3.6-1.4,3.9-3.3v-3.3C365.2,271.8,356.7,264,346.3,264z"/>
		</g>
		<g>
			<path class="st5" d="M179.6,194.3c1.1,2,0.3,4.4-1.6,5.5c-2,1.1-4.4,0.3-5.5-1.6c-1.1-2-0.3-4.4,1.6-5.5
				C176.1,191.6,178.5,192.3,179.6,194.3z"/>
			<path class="st4" d="M179.4,194c0.8,1.4,0.3,3.2-1.2,4c-1.4,0.8-3.2,0.3-4-1.2c-0.8-1.4-0.3-3.2,1.2-4
				C176.9,192,178.7,192.5,179.4,194z"/>
		</g>
		<g>
			<path class="st5" d="M256.3,225.3c0.7,1.2,0.2,2.8-1,3.5c-1.2,0.7-2.8,0.2-3.5-1c-0.7-1.2-0.2-2.8,1-3.5
				C254.1,223.6,255.6,224.1,256.3,225.3z"/>
			<path class="st4" d="M256.2,225.1c0.5,0.9,0.2,2-0.7,2.5c-0.9,0.5-2,0.2-2.5-0.7c-0.5-0.9-0.2-2,0.7-2.5
				C254.6,223.8,255.7,224.2,256.2,225.1z"/>
		</g>
		<g>
			<path class="st5" d="M207.1,187.2c0.4,0.7,0.1,1.5-0.5,1.8c-0.7,0.4-1.5,0.1-1.8-0.5c-0.4-0.7-0.1-1.5,0.5-1.8
				C205.9,186.3,206.7,186.6,207.1,187.2z"/>
			<path class="st4" d="M207,187.1c0.3,0.5,0.1,1.1-0.4,1.3c-0.5,0.3-1.1,0.1-1.3-0.4c-0.3-0.5-0.1-1.1,0.4-1.3
				C206.2,186.5,206.8,186.6,207,187.1z"/>
		</g>
		<g>
			<polygon class="st4" points="194.1,221.9 196.3,199.8 192.4,210 194.4,174.2 190.5,217.1 194.2,209.5 			"/>
			<polygon class="st4" points="227.4,237.7 243.4,222.3 233.8,227.6 258.5,201.6 227.8,231.7 235.5,228.4 			"/>
		</g>
	</g>
	<g>
		
			<rect x="310.5" y="296.2" transform="matrix(0.9999 -1.447189e-02 1.447189e-02 0.9999 -4.4445 4.7068)" class="st2" width="25" height="26.5"/>
		
			<rect x="309.2" y="295.7" transform="matrix(0.9999 -1.446749e-02 1.446749e-02 0.9999 -4.4242 4.6855)" class="st10" width="25" height="25"/>
		
			<rect x="319.3" y="289.6" transform="matrix(0.9999 -1.444991e-02 1.444991e-02 0.9999 -4.2125 4.6753)" class="st11" width="4.2" height="8.5"/>
	</g>
	<g>
		<g>
			<polygon class="st2" points="374.6,445 127,445 159.7,393.1 341.9,393.1 			"/>
			<g>
				<g>
					<polygon class="st5" points="366.3,429 134.8,429 157.3,393.1 343.8,393.1 					"/>
					<rect x="134.8" y="429" class="st6" width="231.5" height="8.1"/>
				</g>
				<g>
					<polygon class="st4" points="169.7,399.5 158,399.5 159.7,395.8 171.1,395.8 					"/>
					<polygon class="st4" points="171.2,399.5 172.7,395.8 184,395.8 182.9,399.5 					"/>
					<polygon class="st4" points="184.4,399.5 185.7,395.8 197,395.8 196.1,399.5 					"/>
					<polygon class="st4" points="197.7,399.5 198.7,395.8 210,395.8 209.4,399.5 					"/>
					<polygon class="st4" points="210.9,399.5 211.7,395.8 223,395.8 222.6,399.5 					"/>
					<polygon class="st4" points="224.2,399.5 224.7,395.8 236,395.8 235.9,399.5 					"/>
					<polygon class="st4" points="237.4,399.5 237.7,395.8 249,395.8 249.1,399.5 					"/>
					<polygon class="st4" points="250.5,399.5 250.5,395.8 261.9,395.8 262.2,399.5 					"/>
					<polygon class="st4" points="263.7,399.5 263.5,395.8 274.8,395.8 275.4,399.5 					"/>
					<polygon class="st4" points="276.9,399.5 276.5,395.8 287.8,395.8 288.6,399.5 					"/>
					<polygon class="st4" points="290.1,399.5 289.5,395.8 300.8,395.8 301.8,399.5 					"/>
					<polygon class="st4" points="303.4,399.5 302.5,395.8 313.8,395.8 315.1,399.5 					"/>
					<polygon class="st4" points="316.6,399.5 315.5,395.8 326.8,395.8 328.3,399.5 					"/>
					<polygon class="st4" points="329.8,399.5 341.5,399.5 339.8,395.8 328.5,395.8 					"/>
				</g>
				<g>
					<polygon class="st4" points="167.3,406.3 155.2,406.3 156.9,402.5 168.7,402.5 					"/>
					<polygon class="st4" points="168.9,406.3 170.4,402.5 182.1,402.5 181,406.3 					"/>
					<polygon class="st4" points="182.6,406.3 183.8,402.5 195.6,402.5 194.7,406.3 					"/>
					<polygon class="st4" points="196.3,406.3 197.3,402.5 209.1,402.5 208.4,406.3 					"/>
					<polygon class="st4" points="210,406.3 210.8,402.5 222.6,402.5 222.1,406.3 					"/>
					<polygon class="st4" points="223.7,406.3 224.3,402.5 236,402.5 235.9,406.3 					"/>
					<polygon class="st4" points="237.4,406.3 237.7,402.5 249.5,402.5 249.5,406.3 					"/>
					<polygon class="st4" points="251,406.3 251.1,402.5 262.8,402.5 263.1,406.3 					"/>
					<polygon class="st4" points="264.7,406.3 264.5,402.5 276.3,402.5 276.8,406.3 					"/>
					<polygon class="st4" points="278.4,406.3 278,402.5 289.7,402.5 290.5,406.3 					"/>
					<polygon class="st4" points="292.1,406.3 291.5,402.5 303.2,402.5 304.2,406.3 					"/>
					<polygon class="st4" points="305.9,406.3 305,402.5 316.7,402.5 318,406.3 					"/>
					<polygon class="st4" points="319.6,406.3 318.4,402.5 330.2,402.5 331.7,406.3 					"/>
					<polygon class="st4" points="333.3,406.3 345.4,406.3 343.6,402.5 331.9,402.5 					"/>
				</g>
				<g>
					<polygon class="st4" points="165.1,413.1 152.6,413.1 154.4,409.2 166.5,409.2 					"/>
					<polygon class="st4" points="166.7,413.1 168.3,409.2 180.4,409.2 179.2,413.1 					"/>
					<polygon class="st4" points="180.8,413.1 182.2,409.2 194.3,409.2 193.3,413.1 					"/>
					<polygon class="st4" points="195,413.1 196.1,409.2 208.2,409.2 207.5,413.1 					"/>
					<polygon class="st4" points="209.1,413.1 209.9,409.2 222,409.2 221.6,413.1 					"/>
					<polygon class="st4" points="223.2,413.1 223.8,409.2 235.9,409.2 235.7,413.1 					"/>
					<polygon class="st4" points="237.3,413.1 237.7,409.2 249.8,409.2 249.8,413.1 					"/>
					<polygon class="st4" points="251.3,413.1 251.4,409.2 263.5,409.2 263.8,413.1 					"/>
					<polygon class="st4" points="265.4,413.1 265.2,409.2 277.3,409.2 277.9,413.1 					"/>
					<polygon class="st4" points="279.6,413.1 279.1,409.2 291.2,409.2 292,413.1 					"/>
					<polygon class="st4" points="293.7,413.1 293,409.2 305.1,409.2 306.2,413.1 					"/>
					<polygon class="st4" points="307.8,413.1 306.9,409.2 319,409.2 320.3,413.1 					"/>
					<polygon class="st4" points="322,413.1 320.8,409.2 332.9,409.2 334.4,413.1 					"/>
					<polygon class="st4" points="336.1,413.1 348.6,413.1 346.7,409.2 334.6,409.2 					"/>
				</g>
				<g>
					<polygon class="st4" points="162.1,420 149.1,420 151,415.9 163.6,415.9 					"/>
					<polygon class="st4" points="163.7,420 165.4,415.9 177.9,415.9 176.7,420 					"/>
					<polygon class="st4" points="178.3,420 179.7,415.9 192.2,415.9 191.3,420 					"/>
					<polygon class="st4" points="193,420 194.1,415.9 206.6,415.9 205.9,420 					"/>
					<polygon class="st4" points="207.6,420 208.5,415.9 221,415.9 220.5,420 					"/>
					<polygon class="st4" points="278.2,415.9 265.7,415.9 263.9,415.9 251.4,415.9 249.7,415.9 237.2,415.9 222.8,415.9 222.2,420 
						236.8,420 249.7,420 251.3,420 264.2,420 265.9,420 278.8,420 					"/>
					<polygon class="st4" points="280.5,420 280.1,415.9 292.6,415.9 293.4,420 					"/>
					<polygon class="st4" points="295.1,420 294.4,415.9 306.9,415.9 308.1,420 					"/>
					<polygon class="st4" points="309.8,420 308.8,415.9 321.3,415.9 322.7,420 					"/>
					<polygon class="st4" points="324.4,420 323.2,415.9 335.7,415.9 337.3,420 					"/>
					<polygon class="st4" points="339,420 351.9,420 350,415.9 337.5,415.9 					"/>
				</g>
			</g>
		</g>
		<g>
			<path class="st2" d="M401,417.5c4.2-7.3,17-7.8,28.5-1.1c11.5,6.7,17.5,18,13.3,25.3c-4.2,7.3-17,7.8-28.5,1.1
				C402.8,436.1,396.8,424.8,401,417.5z"/>
			<g>
				<path class="st4" d="M442.6,435L442.6,435c-0.1,0.4-0.2,0.7-0.4,1c0,0,0,0,0,0c-4.4,7.1-27.7,3-30.3-3.2c-0.2-0.5-0.5-1-0.7-1.5
					c-3.2-7-5.3-5-11-9.7c-0.2-0.2-0.5-0.4-0.7-0.6c0,0-0.1-0.1-0.1-0.1c-3.2-3.6,0.7-8.3,0.7-8.3c0.2-0.2,0.5-0.4,0.7-0.5
					c0,0,0,0,0,0c1.9-1.4,3.9-2.3,5.9-2.9c0.9-0.3,1.8-0.4,2.8-0.5C426.3,406.7,444.1,427.8,442.6,435z"/>
				<path class="st5" d="M442.2,436c-4.4,7.1-27.7,3-30.3-3.2c-0.2-0.5-0.5-1-0.7-1.5c-3.3-6.9-5.5-4.8-11-9.7
					c-0.2-0.2-0.5-0.4-0.7-0.6c0,0-0.1-0.1-0.1-0.1c-3.2-3.6,0.7-8.3,0.7-8.3c0.2-0.2,0.5-0.4,0.7-0.5c-0.5,1.3-0.9,4.4,2.8,7.3
					c0.9,0.7,1.9,1.2,2.9,1.7c0.8,0.3,2.4,1.6,5.3,5.6c4.6,6.5,4,7.3,14.3,10.1C436.3,439.4,442,436.1,442.2,436z"/>
				<path class="st5" d="M417.1,414.2c-6-4.9-10.2-5.1-10.2-5.1c0.9-0.3,1.8-0.4,2.8-0.5C414.4,410.2,417,414,417.1,414.2z"/>
			</g>
		</g>
	</g>
	<path class="st2" d="M86.2,398.8c0,3-16.3,5.4-36.4,5.4s-36.4-2.4-36.4-5.4c0-3,16.3-5.4,36.4-5.4S86.2,395.8,86.2,398.8z"/>
	<g>
		<g>
			<path class="st4" d="M80.3,352.6c-1.5-0.5-3.2-0.8-4.9-0.8c-8.5,0-15.4,7-15.3,15.5c0,8.5,7,15.4,15.5,15.3c0.2,0,0.3,0,0.5,0
				c8.3-0.3,14.9-7.2,14.9-15.5C91,360.3,86.5,354.6,80.3,352.6z M80.2,374.9c-1.3,0.8-2.9,1.3-4.6,1.3c-4.9,0-9-4-9-8.9
				c0-4.9,4-9,8.9-9c2.1,0,4.1,0.7,5.6,1.9c2.1,1.6,3.4,4.1,3.4,7C84.5,370.5,82.8,373.3,80.2,374.9z"/>
		</g>
		<path class="st5" d="M75.6,376.2c1.7,0,3.2-0.5,4.6-1.3c-0.8,3.2-2.1,6-4.1,7.8c-0.2,0-0.3,0-0.5,0c-8.5,0-15.5-6.8-15.5-15.3
			c0-8.5,6.8-15.5,15.3-15.5c1.7,0,3.3,0.3,4.9,0.8c0.2,1.7,0.6,4.4,0.8,7.7c-1.5-1.2-3.5-1.9-5.6-1.9c-4.9,0-8.9,4.1-8.9,9
			C66.6,372.2,70.7,376.2,75.6,376.2z"/>
	</g>
	<path class="st4" d="M77.5,345.7l0.1,21.8c0,6.5-2.2,12.5-5.9,17.3c-1.9,2.5-4.3,4.7-7,6.4c-4.3,2.8-9.4,4.4-14.9,4.4
		c-5.5,0-10.6-1.5-14.9-4.2c-2.7-1.7-5.1-3.8-7.1-6.3c-3.8-4.7-6-10.7-6.1-17.2L21.6,346L77.5,345.7z"/>
	<path class="st5" d="M68.9,398.9l-38.2,0.2c-2.1,0-3.9-1.7-3.9-3.9l0,0c0-2.1,1.7-3.9,3.9-3.9l38.2-0.2c2.1,0,3.9,1.7,3.9,3.9l0,0
		C72.8,397.2,71.1,398.9,68.9,398.9z"/>
	<path class="st5" d="M71.7,384.8c-1.9,2.5-4.3,4.7-7,6.4l-29.8,0.2c-2.7-1.7-5.1-3.8-7.1-6.3c-3.8-4.7-6-10.7-6.1-17.2L21.6,346
		l16.6-0.1l0,5.8C38.4,370.1,53.3,384.9,71.7,384.8L71.7,384.8z"/>
	<linearGradient id="SVGID_1_" gradientUnits="userSpaceOnUse" x1="49.8122" y1="381.9763" x2="49.8122" y2="284.7957">
		<stop  offset="0" style="stop-color:#FFFFFF"/>
		<stop  offset="1" style="stop-color:#FFFFFF;stop-opacity:0"/>
	</linearGradient>
	<path class="st12" d="M39.4,346.4c0,0-6.4-4.6-4.5-13.7c1.9-9.1,9.3-10.4,7.2-24.6c-2.1-14.2-3.2-27,2.9-34.5h20c0,0-7,19-2.2,31.9
		c4.8,12.8,0.6,18.1-3.7,25.3c-4.3,7.2,2.2,15.6,2.2,15.6H39.4z"/>
	<g>
		<rect x="414.4" y="244.7" class="st2" width="56.5" height="45"/>
		<g>
			<rect x="414.4" y="240.5" class="st4" width="56.5" height="45"/>
			<g>
				<path class="st7" d="M414.4,229.1v11.6h56.5v-11.6H414.4z M422.1,237.4c-1.5,0-2.8-1.2-2.8-2.8v0c0-1.5,1.2-2.8,2.8-2.8
					c1.5,0,2.8,1.2,2.8,2.8v0C424.9,236.2,423.7,237.4,422.1,237.4z M463.2,237.4c-1.5,0-2.8-1.2-2.8-2.8v0c0-1.5,1.2-2.8,2.8-2.8
					c1.5,0,2.8,1.2,2.8,2.8v0C466,236.2,464.7,237.4,463.2,237.4z"/>
				<path class="st8" d="M470.9,234.6v6h-56.5v-6h4.9c0,1.5,1.2,2.8,2.8,2.8c1.5,0,2.8-1.2,2.8-2.8h35.5c0,1.5,1.2,2.8,2.8,2.8
					c1.5,0,2.8-1.2,2.8-2.8H470.9z"/>
			</g>
			<path class="st4" d="M423.8,234.6h-3.3c-0.1,0-0.2-0.1-0.2-0.2v-10.7c0-0.6,0.4-1,1-1h1.6c0.6,0,1,0.4,1,1v10.7
				C423.9,234.6,423.9,234.6,423.8,234.6z"/>
			<path class="st4" d="M464.8,234.6h-3.3c-0.1,0-0.2-0.1-0.2-0.2v-10.7c0-0.6,0.4-1,1-1h1.6c0.6,0,1,0.4,1,1v10.7
				C465,234.6,464.9,234.6,464.8,234.6z"/>
			<g>
				<path class="st13" d="M430.4,251.8c3.3,0,4-1.6,4.7-3.4h2.9v27h-4.2v-20.6h-3.3V251.8z"/>
				<path class="st13" d="M449.3,251.9c-1.4,0-2.2,0.7-2.2,2.7v2.9h-4v-2.6c0-4.3,2.2-6.8,6.3-6.8c4.2,0,6.3,2.5,6.3,6.8
					c0,8.5-8.5,11.7-8.5,16.1c0,0.2,0,0.4,0,0.6h8v3.9H443v-3.3c0-8,8.4-9.3,8.4-17.1C451.5,252.6,450.6,251.9,449.3,251.9z"/>
			</g>
		</g>
	</g>
	<g>
		<g class="st14">
			<circle class="st15" cx="68.8" cy="102.8" r="38.4"/>
		</g>
		<g>
			<g>
				<circle class="st13" cx="68.8" cy="98.8" r="38.4"/>
			</g>
		</g>
		<g>
			
				<ellipse transform="matrix(0.162 -0.9868 0.9868 0.162 -39.8539 150.7433)" class="st4" cx="68.8" cy="98.8" rx="35.4" ry="35.4"/>
		</g>
		<g>
			<g>
				<rect x="67.6" y="66.6" class="st13" width="1.3" height="7.4"/>
			</g>
			<g>
				<rect x="67.6" y="123.5" class="st13" width="1.3" height="7.4"/>
			</g>
		</g>
		<g>
			<g>
				<rect x="36.2" y="98.1" class="st13" width="7.4" height="1.3"/>
			</g>
			<g>
				<rect x="93" y="98.1" class="st13" width="7.4" height="1.3"/>
			</g>
		</g>
		<g>
			<g>
				
					<rect x="84.6" y="78" transform="matrix(0.7071 -0.7071 0.7071 0.7071 -29.7452 85.5036)" class="st13" width="7.4" height="1.3"/>
			</g>
			<g>
				
					<rect x="44.5" y="118.2" transform="matrix(0.7071 -0.7071 0.7071 0.7071 -69.9125 68.8661)" class="st13" width="7.4" height="1.3"/>
			</g>
		</g>
		<g>
			<g>
				
					<rect x="47.5" y="75" transform="matrix(0.7071 -0.7071 0.7071 0.7071 -41.5099 57.1014)" class="st13" width="1.3" height="7.4"/>
			</g>
			<g>
				
					<rect x="87.7" y="115.1" transform="matrix(0.7071 -0.7071 0.7071 0.7071 -58.1466 97.2604)" class="st13" width="1.3" height="7.4"/>
			</g>
		</g>
		<g class="st14">
			<path class="st15" d="M104.2,98.8c0,0.7,0,1.4-0.1,2c-1-18.6-16.5-33.4-35.4-33.4c-18.8,0-34.3,14.8-35.4,33.4
				c0-0.7-0.1-1.3-0.1-2c0-19.5,15.9-35.4,35.4-35.4C88.4,63.4,104.2,79.3,104.2,98.8z"/>
		</g>
		<g>
			<g>
				
					<rect x="73.5" y="94.1" transform="matrix(0.3664 -0.9305 0.9305 0.3664 -46.9177 132.8191)" class="st16" width="1.1" height="13.5"/>
			</g>
		</g>
		<g>
			<polygon class="st13" points="68.8,99.3 48.2,99.3 48.2,98.2 67.7,98.2 67.7,82.1 68.8,82.1 			"/>
		</g>
	</g>
	<g>
		<path class="st16" d="M278,173c-9.8,4.3-16.5,5.8-34.3,19.1c0,0-0.1,0.1-0.1,0.1c0,0,0.1-0.1,0.1-0.1
			c11.8-18.8,12.9-25.6,16.3-35.7c3.5-10.2,14.8-16,14.8-16l9.6,7.6l0,0l8.3,8.9C292.8,157,287.8,168.7,278,173z"/>
		<path class="st10" d="M257,177.7c2.9-6,4.3-10.6,5.8-15.2c0.5-1.5,1-3.1,1.5-4.7c1.8-5.3,9.2-12,12.3-14.1l6.1,5.6l6.3,5.8
			c-1.9,3.2-7.5,11.5-12.6,13.7c-1.6,0.7-3.1,1.3-4.6,1.9C267.2,172.5,262.8,174.3,257,177.7z"/>
		<path class="st17" d="M264.6,169.4c1-2.4,1.9-4.6,2.7-6.8l0,0c0.7-1.7,1.3-3.4,2.1-5.2c1.4-3.3,6-8.3,9.6-11.5l7.6,7
			c-3.1,4.3-7.4,9.3-10.4,10.8c-1.7,0.9-3.4,1.7-5,2.5l0,0C269.1,167.2,266.9,168.2,264.6,169.4z"/>
	</g>
	<g>
		<path class="st16" d="M285.3,113.8c-2.3-0.1-4.6,0.3-7,1c-11.7,3.8-23.5,16.8-23.5,16.8s0,0,0,0c-0.2-0.3-7.3-11.9,0.7-27.4
			c4.2-8.1,11.4-13.1,17.4-15.9c1.1-0.5,2.1-0.2,2.8,0.4c0.5,0.5,0.8,1.1,0.9,1.9c0,0.6-0.2,1.3-0.7,1.8l17.3-5.7l13-4.2
			c0,0,0,0,0,0C300.3,97.4,285.3,113.8,285.3,113.8z"/>
		<path class="st10" d="M254.8,131.6c-0.2-0.3-7.3-11.9,0.7-27.4c4.2-8.1,11.4-13.1,17.4-15.9c1.1-0.5,2.1-0.2,2.8,0.4
			c0.5,0.5,0.8,1.1,0.9,1.9c-0.2,0.6-0.4,1.2-0.7,1.8c0,0-12.6,7-18.1,19.6C252.3,124.4,254.7,131.3,254.8,131.6z"/>
		<path class="st18" d="M285.3,113.8c-2.3-0.1-4.6,0.3-7,1c2.7-10.7,9.1-20.7,14.9-28.1l13-4.2c0,0,0,0,0,0
			C300.3,97.4,285.3,113.8,285.3,113.8z"/>
	</g>
	<path class="st16" d="M318.5,144.3c0.3,2.2,0.1,4.6-0.5,7.1c-2.9,12-14.8,24.8-14.8,24.8s0,0,0,0c0.3,0.2,12.4,6.3,27.3-2.9
		c7.8-4.8,12.1-12.4,14.5-18.6c0.4-1.1,0.1-2.2-0.6-2.8c-0.5-0.5-1.2-0.7-1.9-0.7c-0.6,0-1.2,0.3-1.8,0.8l4.2-17.7L348,121
		c0,0,0,0,0,0C333.5,128.1,318.5,144.3,318.5,144.3z"/>
	<path class="st10" d="M303.2,176.2c0.3,0.2,12.4,6.3,27.3-2.9c7.8-4.8,12.1-12.4,14.5-18.6c0.4-1.1,0.1-2.2-0.6-2.8
		c-0.5-0.5-1.2-0.7-1.9-0.7c-0.6,0.3-1.2,0.5-1.8,0.8c0,0-6,13.1-18.1,19.6C310.5,178,303.4,176.3,303.2,176.2z"/>
	<path class="st18" d="M318.5,144.3c0.3,2.2,0.1,4.6-0.5,7.1c10.4-3.6,19.9-10.7,26.8-17.1L348,121c0,0,0,0,0,0
		C333.5,128.1,318.5,144.3,318.5,144.3z"/>
	<path class="st4" d="M346.7,122.2c-3.8,4.1-6.9,7.4-10.3,10.3c-3.3,2.9-6.8,5.5-11.5,8.3c-0.1,0.1-0.3,0.2-0.5,0.3l-7.7,4l-8.5,4.4
		L292,158l-18.3-16.9l0.8-1.9l6.3-15l3.7-8.9c4.7-11.2,11.3-21.7,19.7-30.9c0.2-0.3,0.5-0.5,0.7-0.8c11.5-12.5,23.1-20.6,33.6-25.9
		c0.7-0.4,1.5-0.7,2.2-1.1c1.8-0.8,3.5-1.6,5.2-2.3c0.7-0.3,1.4-0.6,2.1-0.9c0.4-0.1,0.7-0.3,1.1-0.4c4.6-1.7,8.7-2.8,12.4-3.6
		c4.3-0.9,7.8-1.3,10.4-1.5c2.8-0.2,5,1.8,5,4.6c0,4.8-0.5,13-3.3,23.1c-0.1,0.4-0.2,0.8-0.4,1.2c-0.2,0.7-0.4,1.5-0.7,2.2
		c-0.6,1.7-1.2,3.5-1.9,5.3c-0.3,0.7-0.6,1.5-0.9,2.2C365.4,97.5,358.2,109.8,346.7,122.2z"/>
	<path class="st5" d="M279.6,148.8c-2.2-2.3-4.2-4.9-5.8-7.7l3.7-8.8l3.4-8l3.7-8.9c4.7-11.2,11.3-21.7,19.7-30.9
		c0.2-0.3,0.5-0.5,0.7-0.8c15.6-16.9,31.4-25.8,44.2-30.6c4.6-1.7,8.7-2.8,12.4-3.6c0.7,3.3,2.1,3.6-1.8,9.2
		c0,0-36.7,11.2-54.1,37.8c-16,24.3-5.1,25.5-5.1,25.5L285,141.9L279.6,148.8z"/>
	<path class="st13" d="M300.5,153.6L292,158c-1-0.5-1.9-1-2.9-1.6c-0.8-0.5-1.6-1-2.3-1.5c-2.7-1.8-5.1-3.8-7.3-6.1
		c-2.2-2.3-4.2-4.9-5.8-7.7l3.7-8.8c2.2,3.5,4.8,6.7,7.5,9.6c3.3,3.4,7,6.4,11,9c0.7,0.4,1.4,0.9,2.1,1.3
		C298.9,152.6,299.7,153.1,300.5,153.6z"/>
	<g>
		<path class="st16" d="M275.6,159.4c-0.6,0.3-1.2,0.1-1.6-0.2c-0.4-0.4-0.6-1-0.4-1.6c9.1-23.2,39.4-47.2,52.1-56.6
			c0.6-0.5,1.4-0.3,1.9,0.1c0.5,0.4,0.7,1.2,0.3,1.9C319.5,116.4,298,148.5,275.6,159.4z"/>
		<path class="st18" d="M327.6,101.1L274,159.2c-0.4-0.4-0.6-1-0.4-1.6c9.1-23.2,39.4-47.2,52.1-56.6
			C326.4,100.5,327.1,100.7,327.6,101.1z"/>
	</g>
	<g>
		<g>
			<path class="st13" d="M351.9,95.3c-5.2,5.7-14,6-19.7,0.8c-5.7-5.2-6-14-0.8-19.7c5.2-5.7,14-6,19.7-0.8
				C356.8,80.8,357.2,89.6,351.9,95.3z"/>
			<path class="st19" d="M349.8,93.3c0,0-0.1,0.1-0.1,0.1c-4.1,4.3-10.9,4.6-15.4,0.6c0,0-0.1-0.1-0.1-0.1c-0.8-0.7-1.4-1.5-1.9-2.3
				c-0.9-1.5-1.5-3.3-1.6-5c-0.1-1.5,0.1-3,0.6-4.4c0.5-1.4,1.2-2.7,2.3-3.8c4.1-4.5,11.1-4.8,15.6-0.6c1.1,1,2,2.3,2.6,3.6
				c0.6,1.4,0.9,2.9,1,4.4c0,1.7-0.4,3.5-1.2,5.1C351.1,91.7,350.5,92.5,349.8,93.3z"/>
			<path class="st20" d="M351.5,90.8c0.8-1.6,1.2-3.4,1.2-5.1c0-1.5-0.3-3-1-4.4c-0.6-1.3-1.5-2.6-2.6-3.6
				c-4.5-4.1-11.5-3.8-15.6,0.6c-0.2,0.2-0.4,0.5-0.6,0.7c4.2-3.8,10.7-3.9,14.9,0c1.1,1,2,2.3,2.6,3.6c0.6,1.4,0.9,2.9,1,4.4
				c0,1.7-0.4,3.5-1.2,5.1c-0.3,0.6-0.7,1.2-1.1,1.8c0.2-0.2,0.4-0.4,0.5-0.5c0,0,0.1-0.1,0.1-0.1C350.5,92.5,351.1,91.7,351.5,90.8
				z"/>
		</g>
		<path class="st21" d="M349.2,82.8c0,0,0.2,6.3-4.2,9.1c-4.9,3.1-9,0.6-11.8-3.9c0,0,0.4,5.1,6.3,7
			C345.7,97.1,351.7,90.5,349.2,82.8z"/>
	</g>
	<g>
		<path class="st16" d="M373.6,75.7c-9.4-6.1-17.6-13.6-24.4-22.5c9.9-3.7,18-4.8,22.8-5.2c1.7-0.1,3.2,0.6,4.1,1.8
			c0.6,0.8,0.9,1.7,0.9,2.8C377,57.4,376.5,65.5,373.6,75.7z"/>
		<path class="st22" d="M374.9,58.4c0.1-0.9,0.2-1.6,0.4-3c0.3-2.2-0.2-3.2-1.7-3.1c-2.8,0.1-5.6,11.4-2.5,15.6
			C373.5,71.1,374.5,62.4,374.9,58.4z"/>
		<path class="st2" d="M373.6,75.7c-9.4-6.1-17.6-13.6-24.4-22.5c9.9-3.7,18-4.8,22.8-5.2c1.7-0.1,3.2,0.6,4.1,1.8
			c-1,0-8,0-11.8,4.1C360.1,58.3,362.3,67.6,373.6,75.7z"/>
	</g>
</g>
<g id="DESIGNED_BY_FREEPIK">
</g>
</svg>
