<?xml version="1.0" encoding="utf-8"?>
<!-- Generator: Adobe Illustrator 24.2.3, SVG Export Plug-In . SVG Version: 6.00 Build 0)  -->
<svg version="1.1" id="Layer_1" xmlns="http://www.w3.org/2000/svg" xmlns:xlink="http://www.w3.org/1999/xlink" x="0px" y="0px"
	 viewBox="0 0 512 512" style="enable-background:new 0 0 512 512;" xml:space="preserve">
<style type="text/css">
	.st0{fill-rule:evenodd;clip-rule:evenodd;}
</style>
<path class="st0" d="M256,319.3c65,0,117.8-52.7,117.8-117.8c0-65-52.7-117.8-117.8-117.8s-117.8,52.7-117.8,117.8
	S191,319.3,256,319.3z M177.7,385c-8.8,0.4-17.3,0.3-25.2-4.3c-7.9-4.6-12.3-11.8-16.3-19.7c-1.1-2.2-4-8.2-5.8-9.8
	c-1.1-0.9-3.6-1.8-5.3-2.4l-48.4,104l65.6-11.5l33.5,57.6l43.7-93.8c-8.8-1.8-15.1-6.9-21.5-12.8c-1.8-1.7-6.5-6.4-8.8-7.2
	C186.8,384.3,180.3,384.9,177.7,385L177.7,385z M340,385c-2.5-0.1-9.1-0.7-11.4,0.2c-2.2,0.8-7,5.5-8.8,7.2
	c-6.4,5.9-12.7,11-21.5,12.8l43.7,93.8l33.5-57.6l65.6,11.5l-48.4-104c-1.7,0.6-4.2,1.5-5.3,2.4c-1.9,1.6-4.7,7.6-5.8,9.8
	c-4,7.9-8.4,15.1-16.3,19.7C357.2,385.2,348.8,385.4,340,385L340,385z M256,335c-73.7,0-133.4-59.7-133.4-133.4
	c0-73.7,59.7-133.4,133.4-133.4s133.4,59.7,133.4,133.4C389.4,275.2,329.7,335,256,335z M433,170.3c1.8,10.2,12.3,19.3,14,28.7
	c2.1,11.8-11.9,22.1-13.9,33.7c-1.9,10.9,6.2,24.3,2.6,34.2c-3.6,9.9-18.6,15-24,24.5c-5.5,9.5-2.5,25-9.2,33
	c-2.8,3.3-7.2,5.2-11.9,6.8c-6.7,2.2-14.1,3.9-19,8c-8.4,7-10.8,22.6-19.9,27.9c-9,5.2-23.8-0.5-34.1,3.3
	c-8,2.9-14.4,12.1-21.9,16.8c-2,1.3-4.2,2.2-6.4,2.6c-10.5,1.9-22.4-8.5-33.2-8.5c-9.7,0-20.1,8.1-29.5,8.7c-1.3,0.1-2.5,0-3.7-0.2
	c-10.4-1.8-18-15.7-28.3-19.4c-10.3-3.8-25.1,1.9-34.1-3.3c-9.1-5.3-11.5-20.8-19.9-27.9c-2.4-2-5.5-3.5-8.7-4.6
	c-8-2.9-17.4-4.4-22.2-10.1c-6.7-8-3.7-23.4-9.2-33c-5.4-9.4-20.4-14.5-24-24.5c-3.5-9.8,4.6-23.1,2.7-34.2
	c-1.8-10.2-12.3-19.3-14-28.7c-2.1-11.8,11.9-22.1,13.9-33.7c1.9-10.9-6.2-24.4-2.6-34.2c3.6-9.9,18.6-15,24-24.5
	c5.5-9.5,2.4-25,9.2-33c6.7-8,22.5-7.7,30.9-14.8c8.4-7,10.8-22.6,19.9-27.9c9-5.2,23.8,0.5,34.1-3.3c10.2-3.7,17.7-17.5,28.3-19.4
	c10.5-1.9,22.4,8.5,33.2,8.5c11,0,23-10.4,33.2-8.6c10.4,1.8,18,15.7,28.3,19.4c10.3,3.8,25.1-1.9,34.1,3.3
	c9.1,5.3,11.5,20.9,19.9,27.9c8.4,7,24.2,6.7,30.9,14.8c6.7,8,3.7,23.4,9.2,33c5.4,9.4,20.4,14.5,24,24.5
	C439.2,145.9,431,159.3,433,170.3L433,170.3z M259.3,126.2l16.8,44.1c0.5,1.3,1.7,2.2,3.1,2.2l47.2,2.3c1.5,0.1,2.7,1,3.2,2.4
	c0.5,1.4,0,2.9-1.1,3.8l-36.8,29.6c-1.1,0.9-1.6,2.3-1.2,3.6l12.4,45.6c0.4,1.4-0.1,2.9-1.3,3.7c-1.2,0.9-2.7,0.9-4,0.1l-39.5-25.9
	c-1.2-0.8-2.6-0.8-3.8,0l-39.5,25.9c-1.2,0.8-2.8,0.8-4-0.1c-1.2-0.9-1.7-2.3-1.3-3.7l12.4-45.6c0.4-1.4-0.1-2.7-1.2-3.6l-36.8-29.6
	c-1.2-0.9-1.6-2.4-1.1-3.8c0.5-1.4,1.7-2.3,3.2-2.4l47.2-2.3c1.4-0.1,2.6-0.9,3.1-2.2l16.8-44.1c0.5-1.4,1.8-2.3,3.3-2.3
	C257.5,124,258.7,124.9,259.3,126.2L259.3,126.2z"/>
</svg>
