<?xml version="1.0" encoding="utf-8"?>
<!-- Generator: Adobe Illustrator 24.2.3, SVG Export Plug-In . SVG Version: 6.00 Build 0)  -->
<svg version="1.1" id="Layer_1" xmlns="http://www.w3.org/2000/svg" xmlns:xlink="http://www.w3.org/1999/xlink" x="0px" y="0px"
	 viewBox="0 0 1000 1000" style="enable-background:new 0 0 1000 1000;" xml:space="preserve">
<style type="text/css">
	.st0{fill:#E5F9F8;}
	.st1{fill:#484848;}
	.st2{fill:#00A0A3;}
	.st3{fill:#FFB81F;}
	.st4{fill:#FFFFFF;}
	.st5{fill:#D7DDDD;}
	.st6{fill:#86BFBE;}
	.st7{fill:#FF8602;}
	.st8{fill:#F9B067;}
	.st9{fill:#FCCCB1;}
	.st10{fill:#F4AC89;}
	.st11{fill:#ED9A4F;}
	.st12{fill:#E8F3F8;}
	.st13{opacity:0.2;fill:#A39D98;}
	.st14{fill:#E28966;}
	.st15{fill:#E57505;}
</style>
<path class="st0" d="M155.7,547.7c-212-284.8,314.5-772.9,526.5-420.8c325.2,58.1,323.2,451.8,10.9,513.8
	C500.4,1002.5,9.9,953.9,155.7,547.7z"/>
<path class="st1" d="M426.4,254.5l14.3-6.1c-0.8-5.7-2.7-11-5.6-15.7l-13.8,3.2c-1.1-1.6-2.4-3-3.8-4.4v-14.6
	c-5-2.3-10.5-3.7-16.4-3.8l-5.5,11.1c-1.8,0.2-3.5,0.5-5.2,1l-9.8-7.1c-4.1,2.2-7.8,5.2-10.9,8.7l5,10.1c-1.5,2.2-2.6,4.7-3.4,7.3
	l-11.6,3.6c-0.3,2.1-0.5,4.2-0.5,6.4c0,4.3,0.7,8.5,1.9,12.4l14.2,2c1.8,2.6,4.1,4.9,6.7,6.7l-2.4,14.3c5.7,3.3,12.2,5.3,19.2,5.5
	l5.4-15.1c2.8-0.6,5.5-1.6,7.9-3l13.7,9.1c6-4.8,10.7-11.3,13.2-18.8l-13.4-7.8C426,257.8,426.3,256.2,426.4,254.5z M411.3,257.9
	c-0.7,2.1-2.1,4-3.8,5.4c-2,1.6-4.6,2.6-7.4,2.6c-0.1,0-0.3,0-0.4,0c-2-0.1-3.9-0.6-5.5-1.6c-2.5-1.5-4.4-3.8-5.3-6.7
	c-0.3-1.1-0.5-2.3-0.5-3.6c0-0.6,0.1-1.2,0.1-1.8c0.4-2.3,1.4-4.4,2.9-6.1c0.9-1,2-1.9,3.2-2.5c1.7-0.9,3.6-1.4,5.7-1.4h0.3
	c1.7,0,3.3,0.4,4.7,1.1c2.1,1,3.9,2.6,5.1,4.6c0.8,1.3,1.4,2.9,1.6,4.5c0.1,0.5,0.1,1.1,0.1,1.6C412,255.4,411.7,256.7,411.3,257.9z
	"/>
<g>
	<path class="st2" d="M419.8,539.6c-7.4-0.1-14.8-0.4-22.1-0.9l0.2-3.6c7.2,0.5,14.6,0.8,21.9,0.9L419.8,539.6z M441.9,539.5
		l-0.1-3.6c7.2-0.2,14.6-0.5,21.9-1l0.2,3.6C456.5,539,449.1,539.4,441.9,539.5z M375.8,536.8c-7.3-0.8-14.7-1.8-21.9-3l0.6-3.6
		c7.1,1.2,14.4,2.2,21.7,3L375.8,536.8z M485.9,536.6l-0.4-3.6c7.2-0.8,14.5-1.7,21.7-2.8l0.5,3.6
		C500.5,534.8,493.1,535.8,485.9,536.6z M529.5,530.1l-0.7-3.6c7.1-1.3,14.4-2.8,21.5-4.4l0.8,3.6
		C544,527.2,536.7,528.7,529.5,530.1z M332.2,529.7c-7.2-1.6-14.4-3.3-21.4-5.3l1-3.5c6.9,1.9,14.1,3.7,21.3,5.2L332.2,529.7z
		 M572.6,520.4l-0.9-3.5c7-1.8,14.1-3.8,21.1-5.9l1,3.5C586.8,516.5,579.6,518.5,572.6,520.4z M289.6,518c-7-2.4-14-5-20.7-7.7
		l1.4-3.4c6.7,2.7,13.6,5.3,20.5,7.6L289.6,518z M614.8,507.7l-1.2-3.5c6.9-2.3,13.8-4.8,20.7-7.4l1.3,3.4
		C628.7,502.9,621.7,505.4,614.8,507.7z M248.7,501.3c-6.7-3.3-13.3-6.7-19.6-10.3l1.8-3.2c6.2,3.5,12.7,7,19.4,10.2L248.7,501.3z
		 M656.1,492.2l-1.4-3.4c6.7-2.8,13.5-5.7,20.1-8.7l1.5,3.3C669.7,486.4,662.9,489.4,656.1,492.2z M210.3,479.2
		c-6.2-4.3-12.2-8.8-17.7-13.3l2.3-2.8c5.4,4.5,11.3,8.9,17.4,13.1L210.3,479.2z M696.3,473.9l-1.6-3.3c6.6-3.3,13.1-6.7,19.5-10.1
		l1.7,3.2C709.5,467.2,702.9,470.6,696.3,473.9z M735.2,452.9l-1.1-1.5l-0.9-1.6l0.1-0.1c6.5-3.8,12.7-7.7,18.5-11.7l2,3
		C748.1,445.1,741.8,449,735.2,452.9z M176.3,450.8c-5.3-5.4-10.1-11.1-14.4-16.9l2.9-2.2c4.2,5.6,8.9,11.2,14.1,16.5L176.3,450.8z
		 M771.7,427.9l-2.3-2.8c5.9-4.8,11.3-9.7,16.2-14.6l2.6,2.6C783.2,418,777.7,423,771.7,427.9z M150,415.2
		c-3.5-6.6-6.5-13.5-8.9-20.4l3.4-1.2c2.3,6.7,5.2,13.4,8.7,19.9L150,415.2z M802.6,396.1l-2.9-2.2c4.4-6.1,8.2-12.3,11.1-18.5
		l3.3,1.6C811.1,383.5,807.2,389.9,802.6,396.1z M135.8,373.1c-1-6.2-1.4-12.5-1.4-18.7c0-1.2,0-2.3,0-3.5l3.6,0.1
		c0,1.1,0,2.3,0,3.4c0,6.1,0.5,12.2,1.4,18.2L135.8,373.1z M821.4,355.9l-3.6-0.8c1.3-6.1,2-12.4,2-18.7c0-0.9,0-1.8,0-2.7l3.6-0.1
		c0,0.9,0,1.9,0,2.8C823.4,343,822.7,349.5,821.4,355.9z M140.5,329.5l-3.6-0.7c1.4-7.1,3.4-14.3,6-21.4l3.4,1.2
		C143.8,315.6,141.8,322.6,140.5,329.5z M442.1,328c-1.3,0-2.7,0-4,0l0.1-3.6c6.9,0.2,14.2-0.1,21.8-0.8l0.3,3.6
		C454.1,327.7,447.9,328,442.1,328C442.1,328,442.1,328,442.1,328z M416,325.8c-7.9-1.4-15.1-3.5-21.5-6.2l1.4-3.4
		c6.1,2.6,13.1,4.6,20.7,5.9L416,325.8z M482.2,324.1l-0.6-3.6c6.9-1.3,14.1-2.8,21.3-4.7l0.9,3.5
		C496.5,321.2,489.2,322.8,482.2,324.1z M525,313.2l-1.1-3.5c6.7-2.2,13.7-4.6,20.6-7.3l1.3,3.4C538.9,308.5,531.9,311,525,313.2z
		 M816.7,312.4l-0.4-1.4c-1.8-6.6-4.4-12.8-7.8-18.4l3.1-1.9c3.6,5.9,6.3,12.4,8.2,19.4l0.4,1.4L816.7,312.4z M375.5,307.4
		c-5.9-5.8-9.7-12.4-11.2-19.7l3.6-0.8c1.4,6.6,4.8,12.6,10.2,17.9L375.5,307.4z M566.3,297.4l-1.5-3.3c3.6-1.6,7.3-3.2,10.9-4.9
		c3-1.4,6-2.8,9.1-4.1l1.5,3.3c-3.1,1.4-6.1,2.7-9,4.1C573.6,294.1,569.9,295.8,566.3,297.4z M155,288.6l-3.3-1.6
		c3.2-6.4,7-12.8,11.1-19.2l3.1,2C161.8,276,158.1,282.4,155,288.6z M606.5,279.7l-1.4-3.4c7-2.8,14-5.4,20.7-7.8l1.2,3.4
		C620.4,274.3,613.5,276.9,606.5,279.7z M794.6,276.5c-3.7-3.1-7.9-5.7-12.3-7.8c-2-1-4.1-1.9-6.3-2.8l1.4-3.4
		c2.2,0.9,4.3,1.9,6.4,2.9c4.7,2.3,9,5.1,13,8.3L794.6,276.5z M369.8,266.4l-3.4-1.3c2.5-6.5,6.5-12.9,11.9-19.1l2.8,2.4
		C375.9,254.3,372.1,260.3,369.8,266.4z M647.9,265.4l-1-3.5c7.3-2.1,14.5-3.9,21.5-5.4l0.8,3.6
		C662.2,261.5,655.1,263.3,647.9,265.4z M755.5,259.1c-6.9-1.7-14.1-2.9-21.4-3.6l0.4-3.6c7.5,0.7,14.9,2,21.9,3.7L755.5,259.1z
		 M690.6,256.4l-0.5-3.6c7.5-1,15-1.5,22.1-1.7l0.1,3.6C705.3,254.9,698,255.4,690.6,256.4z M178.5,252l-2.9-2.2
		c4.4-5.7,9.2-11.4,14.2-17l2.7,2.4C187.6,240.7,182.9,246.4,178.5,252z M207.8,219.5l-2.5-2.6c5.2-5,10.7-10.1,16.3-14.9l2.4,2.8
		C218.3,209.5,212.9,214.5,207.8,219.5z M432.3,207.4l-2.3-2.8c5.7-4.7,11.3-9.6,16.6-14.4l2.4,2.7
		C443.7,197.8,438.1,202.6,432.3,207.4z M240.9,190.9l-2.2-2.9c5.6-4.3,11.4-8.5,17.2-12.5l0.7-0.5l2.1,3l-0.7,0.5
		C252.2,182.4,246.4,186.6,240.9,190.9z M465,177.6l-2.6-2.6c5.5-5.6,10.5-11,14.8-16.1l2.8,2.3C475.6,166.5,470.6,172,465,177.6z
		 M276.9,165.9l-1.9-3.1c6-3.8,12.4-7.6,19-11.3l1.8,3.2C289.2,158.4,282.9,162.2,276.9,165.9z M315,144.2l-1.7-3.2
		c6.2-3.3,12.8-6.6,19.7-10l1.6,3.3C327.8,137.6,321.2,141,315,144.2z M493.2,143.4l-3.1-1.9c4.5-7.1,7.4-13.7,8.7-19.4l3.6,0.8
		C501,129,497.9,135.9,493.2,143.4z M354.4,124.8l-1.5-3.3c5.6-2.6,11.3-5.3,17.7-8.1l2.3-1.1l1.5,3.3l-2.4,1.1
		C365.7,119.6,359.9,122.2,354.4,124.8z M394.3,106.4l-1.5-3.3c7.9-3.6,14.4-6.3,20.4-8.6l1.3,3.4
		C408.6,100.2,402.2,102.9,394.3,106.4z M495.4,102.7c-3.3-4.2-8.7-7.6-16-10.1c-0.5-0.2-1.1-0.4-1.6-0.5l1.1-3.5
		c0.6,0.2,1.1,0.4,1.7,0.5c8,2.7,14,6.5,17.7,11.3L495.4,102.7z M435.3,91.6l-0.8-3.6c7.9-1.8,15.1-2.7,22.2-2.7l0,3.6
		C449.9,89,442.9,89.9,435.3,91.6z"/>
</g>
<polygon class="st3" points="834.4,95 830.1,58.1 797.8,79.6 801.9,85.7 816.9,75.7 713.1,313 564.4,207.8 413.9,436.3 338.5,348.2 
	73.3,561.7 79,568.8 337.3,360.9 414.9,451.4 566.8,220.7 716.9,326.9 825.3,79.3 827.2,95.8 "/>
<path class="st2" d="M376.4,118.6c0,6.5-5.3,11.8-11.8,11.8c-6.5,0-11.8-5.3-11.8-11.8c0-6.5,5.3-11.8,11.8-11.8
	C371.1,106.8,376.4,112.1,376.4,118.6z"/>
<path class="st2" d="M333.3,525.5c0,6.5-5.3,11.8-11.8,11.8c-6.5,0-11.8-5.3-11.8-11.8s5.3-11.8,11.8-11.8
	C328,513.7,333.3,519,333.3,525.5z"/>
<path class="st2" d="M713.2,254.4c0,6.5-5.3,11.8-11.8,11.8c-6.5,0-11.8-5.3-11.8-11.8c0-6.5,5.3-11.8,11.8-11.8
	C707.9,242.5,713.2,247.8,713.2,254.4z"/>
<path class="st2" d="M676.7,486.6c0,6.5-5.3,11.8-11.8,11.8c-6.5,0-11.8-5.3-11.8-11.8c0-6.5,5.3-11.8,11.8-11.8
	C671.4,474.8,676.7,480.1,676.7,486.6z"/>
<path class="st4" d="M218.2,509.9c-18.4,2.3-36.6,2.4-54.5,0.1c-14.1-1.8-25.2-12.8-27.3-26.8c-2.7-18-2.8-36.2-0.1-54.5
	c2.1-14.3,13.7-25.3,28.1-27c17.9-2.1,35.8-2.1,53.6,0c14.4,1.7,26.1,12.8,28.1,27.2c2.4,17.6,2.1,35.5-0.4,53.8
	C243.7,496.9,232.4,508.1,218.2,509.9z"/>
<path class="st2" d="M146.6,486.6H213c-1.3-15.2-9.4-22.9-22.7-24.5c-2.5-2,3.9-9.5,6.1-18c2.8-10.5,0.6-22.2-14.9-22.2
	c-19.4,0.5-20.1,13.3-16.5,24c2.2,6.6,5.5,7.4,6,16.2C159,464.4,146.5,471.7,146.6,486.6z"/>
<g>
	<path class="st2" d="M231.4,486.6h-69.3l0-1.8c-0.1-12.8,8.8-22.3,24-25.6c-0.4-3.8-1.5-5.6-2.8-7.9c-0.9-1.6-2-3.4-2.9-6
		c-1.8-5.5-3.1-13.3,1-19.1c3.1-4.5,8.9-6.8,17-7c0,0,0,0,0,0c6.6,0,11.4,2,14.4,5.8c3.3,4.3,4.1,10.8,2.1,18.3
		c-1,3.8-2.8,7.4-4.2,10.3c-0.9,1.8-2.1,4.2-2.3,5.4c14,2,21.7,10.6,22.9,25.6L231.4,486.6z M165.8,483h61.6
		c-1.6-12.3-8.4-19.1-20.6-20.5l-0.5-0.1l-0.4-0.3c-2.5-2.1-0.8-5.6,1.5-10.1c1.4-2.9,3.1-6.2,4-9.6c1-3.7,2.1-10.6-1.5-15.2
		c-2.3-2.9-6.1-4.4-11.4-4.4c-6.9,0.2-11.6,2-14.1,5.5c-3.2,4.5-2,11.1-0.5,15.8c0.7,2.3,1.7,3.8,2.6,5.3c1.6,2.6,3.2,5.3,3.5,11.1
		l0.1,1.6l-1.6,0.3C183.2,463.4,166.9,467.7,165.8,483z"/>
</g>
<path class="st5" d="M419.7,257.5l14.3-6.1c-0.8-5.7-2.7-11-5.6-15.7l-13.8,3.2c-1.1-1.6-2.4-3-3.8-4.4v-14.6
	c-5-2.3-10.5-3.7-16.4-3.8l-5.5,11.1c-1.8,0.2-3.5,0.5-5.2,1l-9.8-7.1c-4.1,2.2-7.8,5.2-10.9,8.7l5,10.1c-1.5,2.2-2.6,4.7-3.4,7.3
	l-11.6,3.6c-0.3,2.1-0.5,4.2-0.5,6.4c0,4.3,0.7,8.5,1.9,12.4l14.2,2c1.8,2.6,4.1,4.9,6.7,6.7l-2.4,14.3c5.7,3.3,12.2,5.3,19.2,5.5
	l5.4-15.1c2.8-0.6,5.5-1.6,7.9-3l13.7,9.1c6-4.8,10.7-11.3,13.2-18.8l-13.4-7.8C419.3,260.9,419.6,259.2,419.7,257.5z M404.7,260.9
	c-0.7,2.1-2.1,4-3.8,5.4c-2,1.6-4.6,2.6-7.4,2.6c-0.1,0-0.3,0-0.4,0c-2-0.1-3.9-0.6-5.5-1.6c-2.5-1.5-4.4-3.8-5.3-6.7
	c-0.3-1.1-0.5-2.3-0.5-3.6c0-0.6,0.1-1.2,0.1-1.8c0.4-2.3,1.4-4.4,2.9-6.1c0.9-1,2-1.9,3.2-2.5c1.7-0.9,3.6-1.4,5.7-1.4h0.3
	c1.7,0,3.3,0.4,4.7,1.1c2.1,1,3.9,2.6,5.1,4.6c0.8,1.3,1.4,2.9,1.6,4.5c0.1,0.5,0.1,1.1,0.1,1.6
	C405.3,258.4,405.1,259.7,404.7,260.9z"/>
<g>
	<path class="st5" d="M808.5,881.6c-1.3-3.2-1.5-6.7-1.4-10c0.1-3.4,0.7-6.7,1.5-9.9c1.6-6.4,3.9-12.5,6-18.3c1.1-2.9,2.1-5.8,3-8.6
		l0.6-2l0.9-2.6c0.7-1.7,1.4-3.4,2.2-5c3.2-6.4,7.4-11.9,12.2-16.9c4.8-5,10.1-9.4,16-13c1.5-0.9,3-1.7,4.5-2.6
		c1.6-0.7,3.2-1.5,4.8-2.2c3.2-1.4,6.7-2.4,10.2-3.1c7-1.4,14.6-1.3,21.5,1c6.9,2.3,12.8,6.8,16.5,12.4l-1.2,1.4
		c-6-2.4-11.7-3.8-17.2-3.8c-5.5,0-10.8,1.1-15.9,2.9c-5.1,1.8-10.1,4.4-14.8,7.4c-4.8,3-9.3,6.6-13.4,10.5c-2,2-4,4-5.8,6.2
		c-1.8,2.2-3.5,4.4-5,6.7c-0.8,1.1-1.4,2.3-2,3.5l-0.9,1.7l-1.1,2.3c-1.4,3.1-3.1,5.9-4.6,8.7c-3.2,5.5-6.5,10.8-9.3,16.1
		c-2.8,5.4-5.4,10.8-5.7,16.9L808.5,881.6z"/>
</g>
<g>
	<path class="st5" d="M883.1,626.9c-3.9,21-8.8,41-13.3,61.1l-13.6,59.7c-4.6,19.8-8.3,39.7-14,59.4c-1.4,4.9-2.9,9.8-4.5,14.8
		c-1.6,4.9-3.3,9.8-5.2,14.7c-1.9,4.9-3.9,9.8-6.1,14.7c-2.2,4.9-4.6,9.8-7.6,14.6l-1.8-0.2c-3.2-10.8-4.6-21.6-5.3-32.3
		c-0.3-5.3-0.4-10.7-0.3-16c0.1-5.3,0.4-10.6,0.9-15.9c1.9-21.1,7-41.7,12.9-62c6-20.3,13.5-40.2,22.7-59.3
		c9.3-19,20-37.5,33.6-54.1L883.1,626.9z"/>
</g>
<g>
	<path class="st5" d="M731.1,641.7c10.4,5.6,20.2,12.9,28.4,21.5c2.1,2.1,4.2,4.3,6.2,6.6c1.9,2.3,3.7,4.7,5.6,7
		c3.9,4.7,6.9,9.8,10.1,14.8c1.7,2.5,3,5.2,4.4,7.8l4.1,8c2.6,5.4,4.8,10.9,7.1,16.4c2,5.6,3.9,11.2,5.7,16.8
		c1.6,5.7,3.1,11.4,4.6,17.1c5.4,22.9,8.3,46.1,9.2,69.2c0.4,5.8,0.3,11.6,0.3,17.4l-0.1,8.7c0,2.9-0.3,5.8-0.4,8.7
		c-0.5,11.5-1.7,23.1-3.5,34.5l-1.8,0.1c-1.5-5.6-2.8-11.2-4-16.9c-1.1-5.6-2.5-11.2-3.6-16.8l-1.7-8.4l-1.8-8.3
		c-1.1-5.5-2.2-11.1-3.4-16.6c-4.6-22-9.5-43.7-15.4-65c-1.6-5.3-3.1-10.5-4.6-15.8c-1.8-5.2-3.4-10.4-5.1-15.6l-2.7-7.7
		c-0.9-2.6-1.7-5.2-2.7-7.7c-1-2.5-2-5-2.9-7.6l-1.4-3.8c-0.5-1.3-1.1-2.5-1.6-3.7c-2.2-4.9-4-10.1-6.4-15c-1.1-2.5-2.3-4.9-3.4-7.5
		c-1.2-2.5-2.5-4.8-3.7-7.3l-1.9-3.7l-0.9-1.9l-1-1.8c-1.4-2.4-2.7-4.9-4.1-7.3c-0.7-1.2-1.3-2.6-2.1-3.7c-0.8-1.2-1.5-2.4-2.2-3.6
		c-1.5-2.5-3-5-4.4-7.6L731.1,641.7z"/>
</g>
<g>
	<path class="st5" d="M839.7,608.1c-0.1,5.4-0.5,10.6-0.9,15.8c-0.4,5.2-0.8,10.4-1.3,15.5c-0.4,5.1-0.9,10.2-1.5,15.3
		c-0.5,5.1-0.9,10.1-1.5,15.1c-2,20.1-4.1,40-5.8,59.9c-1.7,19.9-3.4,39.8-5.7,59.8c-0.5,5-1.1,10.1-1.8,15.1
		c-0.6,5.1-1.3,10.1-2.1,15.2c-0.7,5.1-1.5,10.2-2.5,15.4c-0.9,5.2-1.9,10.4-3.3,15.7l-1.8,0.2c-2.3-5-4.1-10-5.8-15
		c-1.6-5.1-3.1-10.2-4.3-15.3c-1.2-5.2-2.3-10.3-3.2-15.5c-0.8-5.2-1.6-10.4-2.2-15.7c-2.2-21-1.8-42.2,0.7-63.2
		c2.5-21,7-41.7,13.7-61.8c1.7-5,3.5-10,5.5-14.9c1-2.5,2-4.9,3.1-7.3c1.1-2.4,2.1-4.9,3.2-7.2c1.2-2.4,2.3-4.8,3.6-7.1
		c1.2-2.4,2.4-4.7,3.7-7c2.7-4.6,5.4-9.1,8.5-13.5L839.7,608.1z"/>
</g>
<g>
	<path class="st5" d="M712.5,743.6c3.5-0.3,7.1-0.2,10.6,0c1.7,0.2,3.5,0.4,5.2,0.8c1.7,0.3,3.5,0.5,5.2,1.1
		c6.8,1.8,13.5,4.4,19.6,7.8c12.4,6.9,23,17,31.2,28.4c8.3,11.4,14.4,24,18.3,37.1c0.5,1.6,1,3.3,1.5,4.9l1.1,5
		c0.7,3.3,1.4,6.6,1.8,10c0.2,1.7,0.4,3.4,0.6,5.1c0.2,1.7,0.3,3.4,0.4,5.1c0.1,3.4,0.1,6.8-0.1,10.2l-1.8,0.5
		c-2.1-2.8-3.9-5.6-5.6-8.4c-1.7-2.8-3.6-5.5-5.2-8.3c-1.6-2.8-3.4-5.5-5.1-8.1l-2.5-4l-2.6-3.9c-6.7-10.5-13.6-20.5-21-29.7
		c-7.5-9.2-15.3-17.7-23.9-26c-4.2-4.2-8.7-8.2-13.4-12.5c-2.3-2.1-4.8-4.1-7.3-6.4c-2.5-2.1-5.1-4.2-7.6-6.8L712.5,743.6z"/>
</g>
<g>
	<path class="st5" d="M900.8,688.2c0.1,4.4-0.2,8.8-0.6,13.2c-0.6,4.3-1.5,8.6-2.4,13l-1.8,6.3l-2,6.3c-1.6,4-3.1,8.1-4.8,12.1
		c-7,15.9-15.9,30.3-24.6,44c-8.8,13.8-17.4,27-25.1,40.9c-3.9,6.9-7.5,14-11.1,21.4c-1.6,3.7-3.5,7.4-5.2,11.2
		c-1.6,3.9-3.2,7.8-5.2,11.7l-1.8-0.2c-3.5-17.2-1.7-35.3,3-52.4c4.8-17.1,12.8-33,21.7-47.4c8.9-14.5,18.7-27.8,28.5-40.7
		c2.4-3.3,4.8-6.5,7.3-9.7l3.6-4.9l3.7-4.9l3.6-5l3.8-5c2.3-3.4,4.8-6.9,7.7-10.4L900.8,688.2z"/>
</g>
<g>
	<path class="st4" d="M818.8,865.9l-1.8-0.2c6.7-66.3,19.2-122.8,38.3-172.6l1.7,0.7C838,743.4,825.5,799.7,818.8,865.9z"/>
</g>
<g>
	<path class="st4" d="M820.1,866.4c-7.5-35.9-7.6-73.6-7.7-110.1V756c-0.1-43,3.9-76.8,12.6-106.6l1.7,0.5
		c-8.7,29.5-12.6,63.2-12.5,106v0.2c0.1,36.4,0.2,74.1,7.7,109.8L820.1,866.4z"/>
</g>
<g>
	<path class="st4" d="M804.9,888.7c-0.7-33.1-9.1-93.2-58.6-123.4l0.9-1.6c50.2,30.7,58.9,91.4,59.5,124.9L804.9,888.7z"/>
</g>
<polygon class="st6" points="747.5,841.5 864.1,841.5 826.4,959.3 796,959.3 "/>
<path class="st7" d="M439,580.5c-87.5-40.9-33.8-86.1-2-137.5c11.6-18.8-6-66,5.6-84.8c10-16.2,49.7-17,62.4-31.2
	c3.9-4.4,6.6-26.3,7-37c0.4-10.5,34-35,48.5-35.5c7.8-0.3,14.5-5.2,15.3-12.9L574,229c-5-28,10.9-9.1,14.5-4.1
	C605,247,620.8,292.1,622,299c3.5,19.6,0.8,57.6-7.2,75.6c-8.2,18.3-48.5,30.2-56.8,48.4c-8.5,18.7,3,52.4-4.2,80
	C543.7,541.3,474.7,597.1,439,580.5z"/>
<polygon class="st8" points="552.8,862.8 493.7,887 489.6,888.7 423.5,915.7 394.5,895.3 391.3,893.1 337.9,855.6 365.2,804.5 
	368.9,804.6 375.3,804.6 517.2,805.4 523.5,805.4 528.3,805.5 "/>
<path class="st9" d="M468.1,554c0,3.6,7.3,69.2,7.3,69.2h23.7L460.8,687l-67.4-63.8h31l7.3-67.4L468.1,554z"/>
<path class="st2" d="M593.8,694.3l-4.5,3l-50.2,33.5l-10.9,7.3L515,805H380l-13.9-63.3l-9.1-7.3l-60.7-37.6
	C331,644,362.8,617,417.1,621.5c10.9,20,45.5,23.7,63.8,0C551.6,618,551.4,644.2,593.8,694.3z"/>
<path class="st8" d="M516.7,907.5l-2.2,7.8l-0.1,0.3l-1.3,4.6l-0.6,2.2l-11.1,38.2l-0.8,2.9l-3.9,13.4l-45.8-24l-2-1l-3.9-2
	l-61.4-32.2l-1.9-1l-2.2-1.2l-2.2-1.2l-2.2-1.2l-4.7-2.5l-4.1-2.2l-60.7-31.8c-15-10.2-21.3-24.4-21.3-38.5c0-30.8,30.5-60.7,67-45
	l3.5,1.5l14.4,10l74.7,52.1l1.6,1.1l1.6,1.1l1.6,1.1l41.2,28.7L516.7,907.5z"/>
<path class="st4" d="M567.2,994.1c8.6,2.1,15.2,2.4,19.6,1.3c12.1-3.1,9.1-17-9.7-35.7L567.2,994.1z"/>
<path class="st3" d="M577.2,959.6l-10,34.4c-15-3.6-36.2-12.7-63.5-28.8c-1.1-0.6-2.1-1.3-3.2-1.9l0.8-2.9l11.1-38.2l0.6-2.2
	l1.3-4.6c1.1,0.6,3.5,1.9,3.6,2c2.7,1.5,5.4,3,7.9,4.5c0.5,0.3,0.9,0.5,1.4,0.8c3.2,1.9,6.3,3.8,9.3,5.6c9.2,5.8,17.3,11.5,24.3,17
	c0.5,0.4,1,0.8,1.5,1.1c2.4,1.9,4.6,3.7,6.7,5.5c0.9,0.7,1.7,1.5,2.5,2.2C573.6,956.1,575.5,957.9,577.2,959.6z"/>
<path class="st5" d="M586.8,995.3c12.1-3.1,9.1-17-9.7-35.7c-1.7-1.7-3.6-3.5-5.6-5.3c-0.8-0.7-1.7-1.5-2.5-2.2
	c-2.1-1.8-4.3-3.7-6.7-5.5c-0.5-0.4-1-0.8-1.5-1.1c-7-5.5-15.1-11.1-24.3-17c-3-1.9-6.1-3.8-9.3-5.6c-0.5-0.3-0.9-0.5-1.4-0.8
	c-2.6-1.5-5.2-3-7.9-4.5c-0.1-0.1-0.2-0.1-0.3-0.2c0,0-2.2-1.2-3.3-1.8l0.1-0.3l2.2-7.8c1.1,0.5,2.3,0.9,3.4,1.4
	c1.2,0.5,2.4,1,3.6,1.5c1.4,0.6,2.8,1.3,4.2,1.9C606,948.1,617.2,992.4,586.8,995.3z"/>
<path class="st9" d="M529.4,942.1c0,11.1-9,20-20,20c-1.6,0-3.1-0.2-4.6-0.5c-1.2-0.3-2.4-0.7-3.5-1.1l11.1-38.2
	c1.2,0.2,2.4,0.5,3.5,0.9C523.8,925.9,529.4,933.3,529.4,942.1z"/>
<path class="st9" d="M231.3,668.8l-34.6,5.5c-0.2-22.7-10.9-21.4-20.8-28.3c-0.4-0.3-0.7-0.5-1.1-0.8l-1-1.2l-17.9-21.8l-0.5-0.7
	l-5.1-6.2l-0.9-1.1l1.4,0l5.1-0.1l1.4,0l0.4,0l1.4,0l5.3-0.1l1.4,0l0.4,0l1.4,0l5.9-0.2l1.4,0l2.1-0.1l1.5-0.1l4.5-0.1l1.4,0
	l1.4-0.1l29.1-0.8c-2.7-18.4-4.5-41.5,5.5-45.5L231.3,668.8z"/>
<path class="st9" d="M304.2,701.6l52.8,32.8c-83.6,92.4-167.6,28.7-160.3-60.1c0.8-1.6,34.6-5.5,34.6-5.5
	c8.2,33.7,31.9,82.9,31.9,82.9S290.5,722.6,304.2,701.6z"/>
<path class="st10" d="M304.2,701.6c0.1,0.1-2.3,2.8-1.8,3.1c2.3,1.6,4.8,3,7.2,4.5c1.9,1.2,3.8,2.4,5.7,3.6
	c4.4,2.7,8.7,5.4,13.1,8.1c4.3,2.7,8.6,5.3,12.9,8c2.2,1.4,4.4,2.7,6.6,4.1c1.5,0.9,3.2,1.9,4.8,2.9c0.4,0.3,0.8,0.5,1.3,0.8
	c0.6,0.4,0.6,0.4,1-0.1c0.7-0.7,1.4-1.5,2-2.2C357,734.4,304.2,701.6,304.2,701.6z"/>
<path class="st9" d="M544.3,727.3l40.4-27c2.5-1.7,5.8-0.9,7.4,1.6c8.1,12.9,20.8,19.1,28,26.9c2.6,2.8,7,3.9,7.8,0.2
	c4-18,10-33,19-54c1-2.4,23.4-41.3,26-41l18.9,5.2c2.4,0.3-1.6,12.4-1.9,14.8c-17.5,135.3-82.9,146.8-146.5,81.4
	C541.2,733.1,541.6,729.2,544.3,727.3z"/>
<path class="st9" d="M722.3,600.5c-0.1,0.4-0.2,0.9-0.4,1.3c-2.9,9.8-9.6,19.5-16.5,27.7c-0.3,0.4-0.6,0.7-0.9,1.1
	c-0.3,0.3-0.6,0.7-0.9,1c-2.6,3-9.1,7-11.6,9.4l-22-4c-4.4-16.7-0.6-34,13.1-50.2c2.9,3.2,3.5,14.4-4.1,28.2l11.2-8.1l1.1-0.7
	l0.2-0.1l1-0.6l2.5-1.6l1.2-0.7l0.3-0.2l0.4-0.2l1.2-0.7l0.3-0.2l2.4-1.5l1.5,0l1.6,0l0.1,0l1.6,0h0.3l5.4,0.1l1.7,0h1.4l0.8,0h0
	l5.4,0.1L722.3,600.5z"/>
<path class="st11" d="M446.9,858.8l76.7-53.4l-6.3,0L438,852l-46.7,41.1l-16.1,11.2c-3.2,1.3-6.3,2.7-9.3,4l4.1,2.2
	c1.2-0.5,2.3-1,3.6-1.5l1.2,4l2.2,1.2l4.5,2.3l1.9,1l0.2-0.1l-0.8-2.8l-2.3-8l-0.3-1.2l14.3-10L446.9,858.8z"/>
<path class="st1" d="M259.5,611.4l-3.8,3c-0.4-0.5-0.9-1-1.5-1.4l-84.5-60.3c-3-2.1-7-2.1-10,0.1l-36.9,27.4l-3.5-1.4l-1.3,6.6
	c-1.3,3.4-0.3,7.6,3,9.9l84.5,60.3c3,2.1,7,2.1,10-0.1l38.7-28.8c2.1-1.5,3.2-3.8,3.4-6.1L259.5,611.4z"/>
<g>
	<g>
		
			<rect x="543.1" y="971.1" transform="matrix(0.2791 -0.9603 0.9603 0.2791 -533.6006 1233.288)" class="st2" width="23" height="1.8"/>
	</g>
	<g>
		
			<rect x="533.9" y="965.1" transform="matrix(0.2791 -0.9603 0.9603 0.2791 -534.3113 1220.3733)" class="st2" width="23.6" height="1.8"/>
	</g>
	<g>
		
			<rect x="524.6" y="959.2" transform="matrix(0.2774 -0.9607 0.9607 0.2774 -534.5793 1209.3682)" class="st2" width="24.2" height="1.8"/>
	</g>
</g>
<path class="st1" d="M646.8,615.6c2.8-4.6,6.7-6.9,10.8-8.8l12.1-5.7c8.1-3.8,16.2-7.4,24.4-11.2c8.2-3.6,16.3-7.2,24.6-10.6
	c8.2-3.4,16.5-6.8,24.9-10l2.9,6.5c-8,4-16.1,7.8-24.2,11.5c-8.1,3.7-16.3,7.3-24.5,10.8c-8.2,3.5-16.4,7-24.7,10.3l-12.4,5
	C656.4,615.4,652.1,616.7,646.8,615.6z"/>
<path class="st9" d="M722.3,600.5c-0.1,0.4-0.2,0.9-0.4,1.3c-2.9,9.8-13.6,9.5-20.5,17.7c-0.3,0.4-0.6,0.7-0.9,1.1
	c-6.9-10.4-7.1-8.9-9.1-14.4c-2.7-7.7-0.9-9.6,4.9-3.1c1,1.1,2.1,2.6,3.4,4.3c-1-1.6-1.9-3.2-2.7-4.7c-6.8-12.8-6.5-22.4,5.7-4.5
	c-17.5-28-5-20.2,5.9-4.8C692.5,566.5,708.2,572.3,722.3,600.5z"/>
<path class="st9" d="M481,558.5v4c0,1,0,1.9-0.1,2.9c-1.5,17.3-16.1,45-33.8,45c-0.8,0-1.6,0-2.3-0.1c-17.6-1.2-31.6-30-31.6-47.8
	v-4c0-16.6-3.2-49.6,28-47.4c0.2,0.5,0.3,1,0.6,1.5c6,15.7,19.8,23.3,36.2,25.2c0.8,0.1,1.6,0.2,2.4,0.3c0.2,1.2,0.4,16.3,0.5,17.5
	C481,556.6,481,557.5,481,558.5z"/>
<g>
	<path class="st1" d="M463.4,554.7c-2.7,0-5.4-1.4-6.3-3.3c-0.3-0.7,0-1.5,0.6-1.8c0.7-0.3,1.5,0,1.8,0.6c0.4,0.9,2.3,1.9,4.1,1.7
		c1.3-0.1,2.1-0.6,2.5-1.6c0.3-0.7,1-1.1,1.8-0.8c0.7,0.3,1.1,1,0.8,1.8c-0.8,2.1-2.5,3.3-4.9,3.4
		C463.7,554.7,463.5,554.7,463.4,554.7z"/>
</g>
<g>
	<path class="st1" d="M431.2,554.8c-0.2,0-0.4,0-0.5,0c-2.5-0.2-4.4-1.6-5-3.7c-0.2-0.7,0.2-1.5,0.9-1.7c0.7-0.2,1.5,0.2,1.7,0.9
		c0.4,1.4,2,1.7,2.6,1.7c1.5,0.1,3.3-0.5,3.9-1.9c0.3-0.7,1.1-1,1.8-0.7c0.7,0.3,1,1.1,0.7,1.8C436.4,553.4,433.9,554.8,431.2,554.8
		z"/>
</g>
<path class="st4" d="M326.5,994.1c-8.6,2.1-15.2,2.4-19.6,1.3c-12.1-3.1-9.1-17,9.7-35.7L326.5,994.1z"/>
<path class="st3" d="M393.2,963.4c-28.8,17.3-51.1,26.9-66.7,30.7l-10-34.4c13.2-13.1,34-28.5,62.8-44.1l2,6.8l11.1,38.2
	L393.2,963.4z"/>
<path class="st9" d="M392.4,960.5c-2.5,1.1-5.2,1.7-8.1,1.7c-11.1,0-20-9-20-20c0-10.1,7.4-18.4,17-19.8L392.4,960.5z"/>
<g>
	<g>
		<path class="st2" d="M342.3,984c-0.4,0-0.8-0.3-0.9-0.7l-6.4-22.1c-0.1-0.5,0.1-1,0.6-1.1c0.5-0.1,1,0.1,1.1,0.6l6.4,22.1
			c0.1,0.5-0.1,1-0.6,1.1C342.5,984,342.4,984,342.3,984z"/>
	</g>
	<g>
		<path class="st2" d="M351.3,978.3c-0.4,0-0.8-0.3-0.9-0.7l-6.6-22.6c-0.1-0.5,0.1-1,0.6-1.1c0.5-0.1,1,0.1,1.1,0.6l6.6,22.6
			c0.1,0.5-0.1,1-0.6,1.1C351.5,978.3,351.4,978.3,351.3,978.3z"/>
	</g>
	<g>
		<path class="st2" d="M360.4,972.6c-0.4,0-0.8-0.3-0.9-0.7l-6.7-23.2c-0.1-0.5,0.1-1,0.6-1.1c0.5-0.1,1,0.1,1.1,0.6l6.7,23.2
			c0.1,0.5-0.1,1-0.6,1.1C360.5,972.6,360.5,972.6,360.4,972.6z"/>
	</g>
</g>
<circle class="st2" cx="810.6" cy="360.9" r="71.1"/>
<g>
	<g>
		<path class="st4" d="M817.8,386.3l-30.9-27.3c13.5-22.9,30.8-34.5,48.1-40.1c5.9-2,11.9-3.2,17.6-3.9c-0.2,4.3-0.5,10.4-2.1,17.6
			C847.5,347.2,839.6,366.6,817.8,386.3z"/>
	</g>
	<g>
		<path class="st1" d="M813.6,367.7c-2.2,2.5-6,2.7-8.5,0.5c-2.5-2.2-2.7-6-0.5-8.5c2.2-2.5,6-2.7,8.5-0.5
			C815.6,361.5,815.8,365.3,813.6,367.7z"/>
		<path class="st1" d="M826.7,352.9c-2.2,2.5-6,2.7-8.5,0.5c-2.5-2.2-2.7-6-0.5-8.5c2.2-2.5,6-2.7,8.5-0.5
			C828.6,346.6,828.9,350.4,826.7,352.9z"/>
		<path class="st1" d="M839.8,338.1c-2.2,2.5-6,2.7-8.5,0.5c-2.5-2.2-2.7-6-0.5-8.5c2.2-2.5,6-2.7,8.5-0.5
			C841.7,331.8,842,335.6,839.8,338.1z"/>
	</g>
	<g>
		<path class="st5" d="M786.9,359.1l30.9,27.3c7.2,10.8-4.2,15.8-17.8,20.2l6.7-23.1L783.6,394l6.3-25.3l-21.8,11.7
			C769.4,366.4,771.7,354,786.9,359.1z"/>
	</g>
	<g>
		<path class="st1" d="M769.7,385.1c-1.6,1.8-4.3,1.9-6.1,0.4c-1.8-1.6-1.9-4.3-0.4-6.1c1.6-1.8,4.3-1.9,6.1-0.4
			C771.1,380.6,771.2,383.3,769.7,385.1z"/>
		<path class="st1" d="M785.1,398.7c-1.6,1.8-4.3,1.9-6.1,0.4c-1.8-1.6-1.9-4.3-0.4-6.1c1.6-1.8,4.3-1.9,6.1-0.4
			C786.5,394.2,786.7,397,785.1,398.7z"/>
		<path class="st1" d="M800.6,412.4c-1.6,1.8-4.3,1.9-6.1,0.4c-1.8-1.6-1.9-4.3-0.4-6.1c1.6-1.8,4.3-1.9,6.1-0.4
			C802,407.9,802.1,410.6,800.6,412.4z"/>
	</g>
	<g>
		<path class="st3" d="M850.5,332.7L835,319c5.9-2,11.9-3.2,17.6-3.9C852.4,319.4,852.1,325.5,850.5,332.7z"/>
	</g>
</g>
<path class="st7" d="M765.1,393.7c-29.1,5.5-25.5,23.7-36.4,38.3l21.9-20c-3.2,6-4.8,11.6-3.6,16.4c3.5-3.7,8.8-6.5,14.6-9.1
	c-12.8,16.4-9.9,27.6-21.9,36.4c15.7-4.7,28.3-13.6,34.6-31c-3.9,13.9-8.6,19.9-5.5,29.1c7.8-15.7,21.9-16.1,20-40.1l-18.2,3.6
	l7.3-12.8l-14.6,5.5L765.1,393.7z"/>
<path class="st2" d="M256.1,617.6l-38.7,28.8c-3,2.2-7,2.2-10,0.1l-84.5-60.3c-4.7-3.3-4.8-10.3-0.1-13.7l38.7-28.8
	c3-2.2,7-2.2,10-0.1l84.5,60.3C260.7,607.2,260.7,614.2,256.1,617.6z"/>
<polygon class="st12" points="248.3,604.5 204.7,636.8 145.8,594.8 139.2,590.1 123.4,578.8 167,546.5 225.3,588 231,592.2 "/>
<path class="st9" d="M184.4,613.2c-1.5,7.1-4.6,17.8-9.6,31.9c-0.4-0.2-0.8-0.5-1.2-0.7c-11.8-7.2-25-17.1-24.4-28.9
	c0-0.4,0.1-0.9,0.1-1.3c7.2-55.4,9-21.2,7.9-0.2c-0.1,2.6-0.3,5-0.6,7.1c0.3-2.5,0.7-4.8,1-7.1c6.5-43.5,14.9-39,8.1-0.2
	c-0.3,1.9-0.7,4-1.1,6.1c0.5-2.1,1-4.2,1.6-6.1c7.9-28.1,19.1-34.6,8.8-0.2c-1.6,5.3-3.7,11.6-6.4,18.9c3.3-7.9,6.1-14.3,8.5-19
	C184.3,599,187.4,599.3,184.4,613.2z"/>
<path class="st4" d="M237.7,625.1c0,2.5-2,4.6-4.6,4.6c-2.5,0-4.6-2-4.6-4.6c0-2.5,2-4.6,4.6-4.6
	C235.6,620.5,237.7,622.6,237.7,625.1z"/>
<path class="st5" d="M306.9,995.3c-31.7-3-18.1-51.4,70.2-87.8l2.3,8C309.4,953.5,286.2,990,306.9,995.3z"/>
<path class="st10" d="M588.2,702.5c0,0,0.1,0.1,0.1,0.1c0.9-0.9,1.9-1.6,2.9-2.3c-0.6-1-1.2-2-1.8-3l-50.2,33.5c0.9,1,1.8,2,2.8,3
	c0.9-0.8,1.8-1.5,2.9-2.2c0,0-0.1-0.1-0.1-0.1L588.2,702.5z"/>
<path class="st5" d="M231,592.2c-0.6,1.5-1.3,2.9-2.1,4.4c-0.6,1.2-1.2,2.4-1.9,3.6c-0.6,1.2-1.3,2.4-2.1,3.6
	c-1.5,2.4-3.3,4.6-5.4,6.7c-2.2,2.1-4.8,4.1-8.5,5c-1.9,0.3-4,0.4-5.9-0.3c-1-0.2-1.8-0.8-2.7-1.2c-0.8-0.5-1.5-1.1-2.2-1.7
	c-2.4-2.2-4.1-4.7-5.5-7.2c-1.4-2.5-2.6-5-3.6-7.5c-2-4.9-3.6-9.8-5.7-13.8c-2.3-4-5.2-7.6-8.8-10c-3.5-2.6-7.5-3.7-11.2-3
	c-0.5,0-0.9,0.2-1.4,0.3c-0.5,0.1-0.9,0.2-1.4,0.5l-1.3,0.6l-1.3,0.8c-0.4,0.2-0.9,0.6-1.3,0.9l-1.3,1c-0.8,0.8-1.6,1.5-2.4,2.4
	c-3,3.4-5.4,7.6-7.4,12.1c-0.8,1.7-1.5,3.6-2.1,5.4l-6.6-4.7c0.4-1.3,0.8-2.5,1.3-3.8c1-2.5,2.1-5.1,3.5-7.5
	c1.3-2.4,2.9-4.8,4.7-7.1c3.5-4.4,8.7-8.6,15.2-9.9c6.5-1.3,13.2,0.9,18,4.4c5,3.5,8.6,8.1,11.4,13.2c2.8,5.2,4.3,10.2,6.1,14.9
	c1.8,4.6,3.8,9,6.6,11.8c1.3,1.2,2.2,1.4,3.4,1.3c1.3-0.3,3.1-1.3,4.7-2.7c1.6-1.5,3.2-3.2,4.5-5.2c0.7-0.9,1.3-2,1.9-3
	c0.7-1.1,1.3-2.1,1.9-3.2c0.9-1.7,1.8-3.4,2.7-5.2L231,592.2z"/>
<g>
	<path class="st3" d="M479.1,525.4c-15,0-25.7-12-29.7-24.3c-0.2-0.5,0.1-1,0.6-1.1c0.5-0.2,1,0.1,1.1,0.6c4,12.1,14.7,23.9,29.6,23
		c13.8-0.8,29.4-11.5,35.5-24.3c8.7-18.1,0.4-31.6-4.5-42.9c-1.4-3.2-2.8-6.5-4.1-9.8c-4.8-12.4-10.2-26.5-1.6-39.6
		c9.4-14.5,26-23.6,38.3-28.7c15.4-6.4,34.7-15.7,46.2-30.9c11.9-15.7,11.1-40.8-1.8-57.2c-0.3-0.4-0.2-1,0.2-1.3
		c0.4-0.3,1-0.2,1.3,0.2c13.4,17,14.2,43.1,1.8,59.4c-11.8,15.6-31.3,25-46.9,31.5c-12,5-28.3,13.9-37.5,28
		c-8.1,12.4-3.1,25.4,1.8,38c1.3,3.3,2.7,6.6,4.1,9.8c6.3,14.5,12.3,28.2,4.5,44.4c-6.4,13.4-22.7,24.5-37,25.4
		C480.2,525.4,479.7,525.4,479.1,525.4z"/>
</g>
<g>
	<path class="st4" d="M461.1,732c-0.4,0-0.8-0.1-1.1-0.2c-1-0.4-1.7-1.4-2.1-3.1c-0.8-3.8,0.8-7.6,2.3-11.3c1.5-3.7,3-7.2,2.1-10.6
		c-0.6-2.1-1.5-3.2-2.7-3.5c-4.9-1.1-15.2,11.1-21.4,18.4c-2,2.3-3.7,4.4-5,5.8c-1.5,1.6-2.8,2.8-3.8,1.9c-1.3-1.1-0.8-4,0.5-8.3
		c0.1-0.4,0.2-0.7,0.2-0.8c0.4-1.5,0.8-3.1,1.3-4.6c1.2-4,2.4-8.1,2.6-12.3c0.2-3.4-0.3-5.6-1.5-6.7c-1.1-0.9-2.9-1.1-5.5-0.5
		c-7.7,1.7-14.8,8.7-20.5,14.4l-1.1,1.1c-4.2,4.1-7.9,8.9-11.6,13.9l-1.5-1.1c3.8-5,7.5-9.9,11.8-14.1l1.1-1.1
		c5.9-5.8,13.2-13,21.4-14.9c3.2-0.7,5.5-0.4,7.1,0.9c1.7,1.5,2.4,4.1,2.1,8.2c-0.3,4.4-1.5,8.6-2.7,12.7c-0.4,1.5-0.9,3-1.3,4.5
		c-0.1,0.2-0.1,0.5-0.3,0.9c-1.1,3.8-1.3,5.4-1.2,6.1c1.2-0.9,3.9-4.2,6.4-7.1c9.4-11.1,17.6-20.3,23.2-19c1.9,0.4,3.3,2,4,4.8
		c1.1,4-0.6,7.9-2.2,11.7c-1.5,3.6-2.9,6.9-2.2,10.2c0.1,0.7,0.4,1.6,1,1.8c1,0.4,3.1-1,3.9-1.5c6.1-4,11.6-9.5,16.9-14.9
		c2.6-2.6,5.2-5.3,7.9-7.7l1.2,1.3c-2.6,2.4-5.3,5-7.8,7.6c-5.4,5.4-10.9,11-17.2,15.1C463.9,731.3,462.4,732,461.1,732z"/>
</g>
<ellipse transform="matrix(0.7071 -0.7071 0.7071 0.7071 -103.7299 203.64)" class="st5" cx="194" cy="227" rx="96.6" ry="96.6"/>
<g>
	<path class="st1" d="M127,277.7c-1.6,0-3.3-0.6-4.5-1.9c-2.5-2.5-2.5-6.5,0-9l18-18v-21.6c0-3.5,2.9-6.4,6.4-6.4
		c3.5,0,6.4,2.9,6.4,6.4v24.2c0,1.7-0.7,3.3-1.9,4.5l-19.9,19.9C130.3,277.1,128.6,277.7,127,277.7z"/>
</g>
<path class="st7" d="M240.7,219c0,4.1-0.3,8.2-0.8,12c-2.8,21.1-12.8,36.7-24.7,36.7c-3.1,0-6-1-8.7-3c-6-4.2-10.9-12.5-13.8-23.2
	c-1.1-4.1-2-8.6-2.4-13.3c-0.3-3-0.5-6.1-0.5-9.3c0-2.6,0.1-5.2,0.3-7.7c0.4-4.8,1.1-9.3,2.2-13.5c2.3-9.1,6-16.6,10.6-21.4
	c3.6-3.9,7.8-6,12.3-6c11.6,0,21.3,14.8,24.4,35.1C240.4,209.6,240.7,214.2,240.7,219z"/>
<path class="st2" d="M120.2,210l50.6-8.6l-0.1,0.1c-3.8,10.3-4.7,25.4-2.2,35.3l-48.4-9.4C110.3,225.6,110.5,211.7,120.2,210z"/>
<path class="st2" d="M206.5,265l-37.8-27.1c-0.1-0.3-0.2-0.7-0.3-1c-2.5-10-1.6-25.1,2.2-35.3l0.1-0.1l32.1-26.8l0.1,1.7
	c-4.6,4.9-8.3,12.3-10.6,21.4c-1.6,6.4-2.5,13.6-2.5,21.2c0,8.2,1,15.8,2.9,22.6c2.9,10.7,7.8,19,13.8,23.2L206.5,265z"/>
<path class="st1" d="M223.1,226.9c-1.6,1.3-3.7,2.2-6.2,2.2c-10.7,0-17.3-4.1-26.7-4c-0.2-2-0.3-4-0.3-6.2c0-1.7,0.1-3.5,0.2-5.1
	c6.2-0.1,16.3-4.3,26.8-5c2.5-0.2,4.5,0.3,6.1,1.1C229,213.2,228.3,222.6,223.1,226.9z"/>
<g>
	<path class="st4" d="M215.3,270.4c-3.6,0-7-1.2-10.3-3.4c-6.5-4.5-11.8-13.3-14.9-24.7c-1.2-4.4-2.1-9-2.5-13.8
		c-0.3-3.1-0.5-6.3-0.5-9.5c0-2.8,0.1-5.4,0.3-8c0.4-4.7,1.1-9.4,2.3-13.9c2.4-9.6,6.3-17.4,11.3-22.6c4.3-4.5,9.2-6.9,14.3-6.9
		c12.8,0,23.7,15,27.1,37.4c0.7,4.5,1,9.2,1,14c0,4.1-0.3,8.3-0.8,12.3C239.6,254.3,228.3,270.4,215.3,270.4z M215.3,173
		c-3.6,0-7,1.7-10.3,5.2c-4.3,4.5-7.8,11.7-9.9,20.2c-1.1,4.2-1.8,8.6-2.1,13.1c-0.2,2.4-0.3,4.8-0.3,7.5c0,3,0.2,6,0.5,9
		c0.4,4.4,1.2,8.7,2.4,12.9c2.7,10,7.4,17.9,12.7,21.7c2.3,1.6,4.7,2.5,7.2,2.5c10.1,0,19.3-14.4,22-34.3c0.5-3.8,0.7-7.7,0.7-11.6
		c0-4.6-0.3-9-1-13.2C234.1,186.4,225.1,173,215.3,173z"/>
</g>
<g>
	<path class="st4" d="M252.2,217.3c-0.9,0-1.7-0.7-1.8-1.6c-0.1-1,0.6-1.9,1.6-2l31.6-3c1-0.1,1.9,0.6,2,1.6c0.1,1-0.6,1.9-1.6,2
		l-31.6,3C252.4,217.3,252.3,217.3,252.2,217.3z"/>
</g>
<g>
	<path class="st4" d="M275.9,235.5c0,0-0.1,0-0.1,0l-25.5-1.8c-1-0.1-1.8-0.9-1.7-1.9c0.1-1,0.9-1.7,1.9-1.7l25.5,1.8
		c1,0.1,1.8,0.9,1.7,1.9C277.7,234.8,276.9,235.5,275.9,235.5z"/>
</g>
<g>
	<path class="st4" d="M258.9,269.5c-0.2,0-0.4,0-0.6-0.1l-20-7.3c-0.9-0.3-1.4-1.4-1.1-2.3c0.3-0.9,1.4-1.4,2.3-1.1l20,7.3
		c0.9,0.3,1.4,1.4,1.1,2.3C260.4,269.1,259.7,269.5,258.9,269.5z"/>
</g>
<g>
	<path class="st4" d="M247.2,195.2c-0.8,0-1.5-0.5-1.8-1.3c-0.3-1,0.3-2,1.3-2.2l22.8-6.4c1-0.3,2,0.3,2.2,1.3c0.3,1-0.3,2-1.3,2.2
		l-22.8,6.4C247.6,195.1,247.4,195.2,247.2,195.2z"/>
</g>
<path class="st11" d="M515.2,906.3c0,0,0.7-0.7,0.8-0.7c0.2-0.4,0.4-0.8,0.6-1.1c0.2-0.4,0.4-0.7,0.7-1L493.7,887l-1.9-1.3L458,851
	l-81-45h-6l72.7,50.6l1.6,1.1l1.6,1.1l1.6,1.1l41.2,28.7l25.4,17.7C515.1,906.3,515.1,906.3,515.2,906.3z"/>
<path class="st8" d="M609.7,838.1c0,14-6.3,28.3-21.3,38.5L397.1,976.7l-3.9-13.4l-0.8-2.9l-11.1-38.2l-2-6.8l-2.3-8l162.1-113
	l3.5-1.5C579.2,777.4,609.7,807.3,609.7,838.1z"/>
<g>
	
		<ellipse transform="matrix(0.2259 -0.9742 0.9742 0.2259 300.1464 589.4683)" class="st4" cx="521" cy="105.9" rx="98.4" ry="98.4"/>
	<path class="st3" d="M500.8,135h39.6c0,0,67.6-111-18.5-102.9C437.5,40,500.8,135,500.8,135z"/>
	<g>
		<path class="st1" d="M513.4,136.6c-0.4,0-0.8-0.3-0.9-0.8c-3-21.2-7.4-36.4-13.7-46.9c-1.9-1.4-3.4-3.6-3.8-5.7
			c-0.1-0.4,0.1-0.8,0.5-1c0.4-0.2,0.8-0.1,1.1,0.3c1.3,1.6,2.4,3.3,3.6,5.2c0.2,0.1,0.4,0.2,0.5,0.3c2.4,1.2,4.4,0.4,6.7-2.8
			c0.4-0.5,0.7-1.1,1.1-1.7c-1.7-2-2.9-4.7-3.4-7.7c-0.3-1.9-0.5-4.6,0.5-6.5c0.7-1.3,1.8-2,3.1-2c1.5,0,2.9,1.1,3.6,2.6
			c0.7,1.7,0.5,3.7,0.3,5.4c0,0.4-0.1,0.7-0.1,1.1c-0.2,2.3-0.8,4.6-1.8,6.7c0.5,0.4,1,0.8,1.6,1.1c1.5,0.8,2.8,0.9,4.2,0.3
			c1.4-0.6,2.6-1.9,3.6-3.3c-0.8-0.7-1.5-1.7-2.1-2.8c-1.8-3.3-2.2-7.4-1.1-10.3c0.7-1.8,2.2-3.1,3.8-3.4c0.9-0.2,2.1-0.1,3.4,1.2
			c2.1,2.1,1.4,6.1,0.5,9.7c-0.4,1.7-1.1,3.5-2.1,5.2c0.5,0.3,1,0.5,1.6,0.6c1.6,0.3,3.1-0.4,4.5-1.9c0.5-0.6,1-1.3,1.5-2
			c-0.1-0.1-0.2-0.3-0.2-0.4c-1.6-2.6-5-11-0.8-14.1c0.9-0.7,1.9-0.8,2.9-0.5c1.2,0.4,2.1,1.6,2.5,3.1c0.7,2.8-0.2,7.7-2.2,11.7
			c2,2.7,3.9,4.2,5.7,4.4c1.3,0.1,2.6-0.6,3.9-2c0.3-0.4,0.9-0.4,1.2-0.1c0.4,0.3,0.5,0.8,0.2,1.2c-9,13.5-12.6,35.4-15,55
			c-0.1,0.5-0.5,0.9-1,0.8c-0.5-0.1-0.9-0.5-0.8-1c2.2-18.2,5.5-38.4,13.2-52.2c-0.6,0.2-1.2,0.2-1.8,0.2c-2.2-0.2-4.4-1.7-6.5-4.5
			c-0.4,0.6-0.8,1.2-1.3,1.7c-1.9,2-4,2.9-6.2,2.5c-0.8-0.1-1.5-0.4-2.2-0.8c-1.2,1.8-2.7,3.2-4.4,3.9c-1.9,0.8-3.9,0.7-5.8-0.4
			c-0.5-0.3-1.1-0.7-1.6-1.1c-0.3,0.5-0.6,1-0.9,1.4c-0.9,1.3-3.3,4.7-7.2,4c5.8,10.6,9.8,25.1,12.6,45.4c0.1,0.5-0.3,1-0.8,1
			C513.5,136.6,513.4,136.6,513.4,136.6z M508.5,69.1c-0.6,0-1,0.3-1.4,1c-0.8,1.6-0.4,4.4-0.3,5.3c0.3,2.4,1.2,4.5,2.4,6.2
			c0.7-1.7,1.2-3.5,1.3-5.4c0-0.4,0.1-0.7,0.1-1.1c0.2-1.5,0.4-3.3-0.2-4.5C510.2,69.8,509.4,69.1,508.5,69.1
			C508.6,69.1,508.6,69.1,508.5,69.1z M521.3,66.5c-0.1,0-0.2,0-0.3,0c-0.9,0.2-1.9,1.1-2.4,2.3c-1,2.3-0.6,5.9,1,8.7
			c0.4,0.8,0.9,1.5,1.5,2c0.8-1.6,1.4-3.2,1.8-4.5c0.4-1.7,1.6-6.3-0.1-7.9C522.2,66.8,521.8,66.5,521.3,66.5z M530.9,64.1
			c-0.3,0-0.5,0.1-0.8,0.3c-2.6,1.8-0.8,8,1,11.1c1.5-3.3,2.2-7.3,1.6-9.5c-0.2-0.9-0.8-1.6-1.4-1.8C531.2,64.2,531,64.1,530.9,64.1
			z"/>
	</g>
	<g>
		
			<rect x="577.1" y="114.2" transform="matrix(0.4608 -0.8875 0.8875 0.4608 195.0193 584.9922)" class="st3" width="3.6" height="35.6"/>
	</g>
	<g>
		
			<rect x="586.9" y="82" transform="matrix(0.1644 -0.9864 0.9864 0.1644 398.2145 660.0007)" class="st3" width="3.6" height="25.9"/>
	</g>
	<g>
		
			<rect x="452.6" y="43.2" transform="matrix(0.3227 -0.9465 0.9465 0.3227 253.5826 468.9679)" class="st3" width="3.6" height="28.2"/>
	</g>
	<g>
		
			<rect x="451.9" y="94" transform="matrix(0.9817 -0.1905 0.1905 0.9817 -9.8111 89.6493)" class="st3" width="19.2" height="3.6"/>
	</g>
	<g>
		
			<rect x="562.6" y="29.4" transform="matrix(0.7297 -0.6837 0.6837 0.7297 132.5281 397.645)" class="st3" width="13.3" height="3.6"/>
	</g>
	<g>
		<rect x="498.5" y="14.9" transform="matrix(0.979 -0.204 0.204 0.979 5.954 102.5294)" class="st3" width="3.6" height="14.9"/>
	</g>
	<g>
		
			<rect x="436.9" y="127.4" transform="matrix(0.9021 -0.4315 0.4315 0.9021 -10.6675 211.4999)" class="st3" width="47.8" height="3.6"/>
	</g>
	<path class="st5" d="M540.4,135c0,0.3,0,0.6-0.1,0.9c-0.1,0.7-0.1,1.4-0.1,2.1c-0.2,2.7-0.3,5.2-0.3,7.6c0,0.7-0.1,1.3-0.1,1.9
		c-0.1,2.6-0.2,5-0.3,7.3c0,0.7-0.1,1.3-0.1,2c-0.2,3.7-0.5,7-1.1,9.8c-0.1,0.6-0.3,1.2-0.4,1.8c0,0,0,0.1,0,0.1
		c-0.2,0.7-0.4,1.4-0.6,2.1c-2.4,6.8-7.5,10.4-18.6,10.4c-5.7,0-9.8-0.7-12.7-2.4c-0.7-0.4-1.3-0.9-1.9-1.4c-2-1.8-3.2-4.2-3.9-7.6
		c-0.2-0.9-0.3-1.8-0.5-2.9c-0.3-3.1-0.4-6.8-0.2-11.2c0-0.6,0-1.2,0.1-1.9c0-0.4,0-0.9,0.1-1.3c0-0.6,0.1-1.3,0.1-1.9
		c0.3-4.6,0.7-9.8,1.1-15.7H540.4z"/>
	<g>
		<path class="st4" d="M527.7,149.1c4.2-0.9,8.2-2.1,12.2-3.3c0,0.7-0.1,1.3-0.1,1.9c-3.8,1.1-7.7,2.3-11.7,3.2
			c-8.8,1.9-18.2,3.6-28.6,5c0-0.6,0-1.2,0.1-1.9C509.8,152.6,519.1,150.9,527.7,149.1z"/>
		<path class="st4" d="M540.4,136c-0.1,0.7-0.1,1.4-0.1,2.1c-4.4,2.3-8.9,4.2-13.3,5.9c-8.8,3.4-17.9,6-26.8,8.5
			c-0.2,0.1-0.3,0.1-0.5,0.1c0-0.6,0.1-1.3,0.1-1.9c8.8-2.5,17.9-5.1,26.6-8.4C530.9,140.5,535.8,138.5,540.4,136z"/>
		<path class="st4" d="M506.1,167c-0.8,0.3-1.6,0.5-2.4,0.8c0.7-0.1,1.3-0.1,1.8-0.1c0.2,0,0.2,0,0.3,0c10.5,0,21.2-0.3,32.6-0.9
			c-0.1,0.6-0.3,1.2-0.4,1.8c-11.2,0.6-21.8,0.9-32.2,0.9h-0.3c-0.7,0-1.5,0.1-2.5,0.2c-0.9,0.1-1.9,0.2-2.8,0.2
			c-0.2-0.9-0.3-1.8-0.5-2.9c1.9-0.5,3.9-1.1,5.8-1.7c1-0.3,2-0.6,2.9-0.9c3.5-1.1,7.2-2.1,10.7-3c4.5-1.2,9.1-2.5,13.6-3.9
			c2.3-0.7,4.6-1.6,6.9-2.4c0,0.7-0.1,1.3-0.1,2c-2,0.7-4.1,1.5-6.2,2.1c-4.5,1.5-9.1,2.7-13.6,4c-3.5,0.9-7.1,1.9-10.6,3
			C508,166.4,507.1,166.7,506.1,167z"/>
		<path class="st4" d="M537.9,168.8c-0.2,0.7-0.4,1.4-0.6,2.1c-0.7,0.2-1.5,0.4-2.2,0.5c-6.1,1.5-12.2,3.1-18.1,4.6l-0.9,0.2
			c-3.3,0.9-6.6,1.7-10,2.6c-0.7-0.4-1.3-0.9-1.9-1.4c3.8-1,7.7-2,11.4-3l0.9-0.2c5.9-1.5,12.1-3.2,18.2-4.6
			C535.7,169.3,536.8,169,537.9,168.8z"/>
	</g>
</g>
<polygon class="st13" points="379,915 393,963 389.5,965.5 377.3,916.2 "/>
<polygon class="st13" points="500,963 507.6,967.4 518,918 514,915 "/>
<polygon class="st11" points="447,951 514,915 497,976 "/>
<path class="st14" d="M441.4,584.6c0,0,15.6,0.4,18.6-4.6c0,0-3,11-12,11s-9-7-9-7L441.4,584.6z"/>
<path class="st10" d="M446,557.7c0,0,2,3.3,0.5,6.1c-0.6,1.2-7.8,7.1-7.3,9.3c0.5,2.1,5.9,4.5,7.8,4.9c1.9,0.5,4,0,3.3-1.2
	c-0.7-1.2-5.7-1.4-6.4-2.6c-0.7-1.2-2.6-1.6,2.8-7.3c5.4-5.7-0.1-12.1-0.1-12.1s-1.4-2.4-1.9-0.5S446,557.7,446,557.7z"/>
<polygon class="st1" points="464.8,552.7 467.8,554.2 465.9,551 "/>
<polygon class="st1" points="429.8,552.7 426.8,554.2 428.7,551 "/>
<path class="st1" d="M459.9,553.7"/>
<path class="st10" d="M471.7,591.8c0,0-10.3,17.2-22,18.2c-11.7,1-18.9-6.2-22.8-10.6l-0.7,6.7c0,0,19.7,20.9,32.7,7.9
	s13.7-14.8,13.7-14.8L471.7,591.8z"/>
<path class="st15" d="M421,537c2-1,15-3,17-2s0,3,0,3s-12,2-14,2s-4,2-5,1S421,537,421,537z"/>
<path class="st15" d="M473.7,537c-2-1-15-3-17-2s0,3,0,3s12,2,14,2s4,2,5,1S473.7,537,473.7,537z"/>
<path class="st10" d="M680.3,614.3c-0.6,0.4-0.6,1.3-0.1,1.7c2.2,1.7,6.8,5,9.8,5c4,0,7.1-0.9,8.8-1.5c0.6-0.2,0.9-1,0.5-1.6
	l-7.6-11c-0.3-0.5-1-0.6-1.5-0.2C688,608.4,682.8,612.6,680.3,614.3z"/>
<polygon class="st10" points="697,603 696,603 701,610 "/>
<path class="st10" d="M699.5,592.6L708,607c0,0,0-5-1-6c-0.7-0.7-4.7-5.6-7.1-8.6C699.7,592.2,699.4,592.4,699.5,592.6z"/>
<path class="st10" d="M706,589l8,12c0,0-1.2-4.9-2-6C709,591,706,589,706,589z"/>
<path class="st10" d="M177.7,636.2c0,0-0.7,4.8,5.3,7.8s22.3,17.7,25,19c4,2,17-3,22-7c0,0-0.9-8-1.5-10c0,0-13.1,9.8-14.6,10.6
	c-1.5,0.9-5,1.4-8.5-1.1C201.4,652.6,177.7,636.2,177.7,636.2z"/>
<path class="st10" d="M221.4,579.3L220,566c0,0-5.1,4.1-5.6,8.5L221.4,579.3z"/>
<path class="st10" d="M156.5,620c0,0,1.3-11.2,0.9-16.6C157,598,155,615,155,617S156.5,620,156.5,620z"/>
<path class="st10" d="M164,622c0,0,2.9-11.9,2.4-12.9C166,608,161,622,162,622S164,622,164,622z"/>
<path class="st10" d="M169.3,629.8c0,0,4.5-11.9,5.1-14.3C175,613,170,623,169,626S169.3,629.8,169.3,629.8z"/>
</svg>
