<svg id="Layer_1" data-name="Layer 1" xmlns="http://www.w3.org/2000/svg" viewBox="0 0 300 512"><defs><style>.cls-1{fill:#76e2d5;}</style></defs><path class="cls-1" d="M176.93,482.49q-8.77,0-15.59-7.83a27.7,27.7,0,0,1-6.82-18.85V92.73l-40.44,19.14q-7.31,3.48-13.16,3.48a20.78,20.78,0,0,1-16.32-7.54Q78,100.28,78,89.25a35,35,0,0,1,3.41-15.66,19.47,19.47,0,0,1,11.2-9.86l75.52-31.9a23.51,23.51,0,0,1,5.11-1.74,22.85,22.85,0,0,1,4.63-.58q10.23,0,16.08,7.54t5.85,19.72v399a28.36,28.36,0,0,1-6.58,18.85A20.5,20.5,0,0,1,176.93,482.49Z"/></svg>