<svg id="Layer_1" data-name="Layer 1" xmlns="http://www.w3.org/2000/svg" viewBox="0 0 300 512"><defs><style>.cls-1{fill:#24d1c8;}</style></defs><path class="cls-1" d="M59.14,482.49a20.47,20.47,0,0,1-16.32-7.83,28.31,28.31,0,0,1-6.58-18.85q0-11.6,6.33-19.14L184.35,238.31A163.49,163.49,0,0,0,206,201.19q7.54-18.56,7.55-34.8,0-26.1-7.8-45.53T183.13,90.41a58.35,58.35,0,0,0-69.43.87q-15.58,11.89-24.36,31.61t-8.77,43.5A27.56,27.56,0,0,1,74,184.66a20.5,20.5,0,0,1-16.32,7.83q-9.27,0-15.84-7.83a27.57,27.57,0,0,1-6.58-18.27q0-39.43,14.86-70.18T90.81,47.49a99.12,99.12,0,0,1,58-18q32.64,0,57,16.82t38,47.56q13.64,30.75,13.64,72.5a118.41,118.41,0,0,1-6.09,37.12,196.65,196.65,0,0,1-15.59,35.38A306.36,306.36,0,0,1,216,269.63L99.58,428.55H241.84q9.74,0,16.32,8.41a29.87,29.87,0,0,1,6.58,18.85,28.36,28.36,0,0,1-6.58,18.85,20.5,20.5,0,0,1-16.32,7.83Z"/></svg>