<svg id="Layer_1" data-name="Layer 1" xmlns="http://www.w3.org/2000/svg" viewBox="0 0 300 512"><defs><style>.cls-1{fill:#26b2b2;}</style></defs><path class="cls-1" d="M152.44,483.94q-35.58,0-63.34-18t-43.6-49.3Q29.66,385.34,29.66,345.9q0-11.59,5.85-19.72t15.1-8.12q8.78,0,14.62,8.12t5.84,19.72q0,24.94,10.48,45.53t28.5,32.48a71.77,71.77,0,0,0,40.44,11.89q34.09,0,54.56-22.62t20.47-61.48q0-26.1-9.26-46.11T190.92,274a60.87,60.87,0,0,0-36.53-11.6q-9.27,0-15.84-7.83T132,235.12q0-11.6,6.58-19.14t15.84-7.54a49.19,49.19,0,0,0,28.5-9.28,72.56,72.56,0,0,0,21.92-24.36q8.52-15.08,8.53-34.22,0-27.26-16.57-45.82T154.39,76.2a69,69,0,0,0-35.08,9A67.34,67.34,0,0,0,94.7,109.26a64.33,64.33,0,0,0-9,33.64q0,12.18-5.85,20.3t-15.1,8.12q-8.77,0-14.62-7.83t-5.84-19.43q0-32.48,14.37-58.87a110.63,110.63,0,0,1,39-41.76q24.59-15.36,55.78-15.37,28.74,0,51.64,14.79t36.3,40.31q13.4,25.53,13.4,57.42A93.27,93.27,0,0,1,246.47,180,109.34,109.34,0,0,1,225,211.34a118.52,118.52,0,0,1-28.26,21.46q25.33,9.87,41.66,27.55a112.05,112.05,0,0,1,24.11,41.18,160.4,160.4,0,0,1,7.8,50.75q0,37.71-15.84,67.57t-42.63,47A108.13,108.13,0,0,1,152.44,483.94Z"/></svg>