<svg id="Layer_1" data-name="Layer 1" xmlns="http://www.w3.org/2000/svg" viewBox="0 0 300 512"><defs><style>.cls-1{fill:#00a0a3;}</style></defs><path class="cls-1" d="M212,482.49q-9.16,0-15.58-8.7T190,452.91V379.83H37.44q-10.54,0-16.5-8.12a34.93,34.93,0,0,1-6.64-18.85,33.6,33.6,0,0,1,4.35-19.43L194.14,42.27A33,33,0,0,1,202.62,33a17.93,17.93,0,0,1,10.77-3.48q9.62,0,15.58,8.7t5.95,21.46v266.8h27.49a24.77,24.77,0,0,1,16.5,5.8q6.87,5.81,6.87,20.88A27.6,27.6,0,0,1,278.91,372q-6.87,7.83-16.5,7.83H234.92v73.08q0,12.18-6.41,20.88T212,482.49ZM64.93,342.71,52.56,326.47H190v-239l14.2,23.2Z"/></svg>