<svg id="Layer_1" data-name="Layer 1" xmlns="http://www.w3.org/2000/svg" viewBox="0 0 300 512"><defs><style>.cls-1{fill:#148c8c;}</style></defs><path class="cls-1" d="M150,482.49q-35.56,0-63.34-19.43T42.57,410.28q-16.32-33.34-16.32-75.69,0-11.59,6.33-19.14t15.59-7.54A21.31,21.31,0,0,1,65,315.45q6.58,7.55,6.58,19.14,0,26.69,10.23,48.14t28,33.64A69.44,69.44,0,0,0,150,428.55a69.47,69.47,0,0,0,40.19-12.18q17.79-12.18,28-33.64t10.23-48.14q0-26.67-10.23-47.85t-28-33.35A69.47,69.47,0,0,0,150,241.21H67.18a19.79,19.79,0,0,1-16.08-7.83q-6.35-7.83-6.34-19.43V56.77q0-11.6,6.34-19.43a19.79,19.79,0,0,1,16.08-7.83H232.82q9.26,0,15.84,8.12a28.71,28.71,0,0,1,6.58,18.56A29,29,0,0,1,248.9,75a19.8,19.8,0,0,1-16.08,7.83H89.59v104.4H150q35.57,0,63.34,19.43t44.09,52.78q16.32,33.36,16.32,75.11T257.43,410q-16.34,33.64-44.09,53.07T150,482.49Z"/></svg>