<svg id="Layer_1" data-name="Layer 1" xmlns="http://www.w3.org/2000/svg" viewBox="0 0 300 512"><defs><style>.cls-1{fill:#007375;}</style></defs><path class="cls-1" d="M150.49,482.2q-33.61,0-59.69-17.69T50.12,415.79q-14.61-31-14.61-70.47,0-40,14.61-71.05T90.8,225.55q26.07-17.69,59.69-17.69,33.12,0,58.95,17.69t40.44,48.72q14.61,31,14.61,71.05,0,39.45-14.61,70.47t-40.44,48.72Q183.61,482.21,150.49,482.2ZM50.61,272.82l116-228.52q7.8-14.49,20.47-14.5a20.81,20.81,0,0,1,15.34,6.09,28.62,28.62,0,0,1,7.8,15.66A28.79,28.79,0,0,1,207,70.4L133.44,214.82ZM150,434.06q20.94,0,37-11.31t25.58-31.61q9.49-20.29,9.5-45.82,0-26.1-9.5-46.11T187,267.6Q171,256,150,256a62.74,62.74,0,0,0-37.27,11.6Q96.4,279.21,87.39,299.21t-9,46.11q0,25.53,9,45.82t25.34,31.61Q129.05,434.06,150,434.06Z"/></svg>