<svg xmlns="http://www.w3.org/2000/svg" viewBox="0 0 601.83 445.31"><defs><style>.cls-1{fill:#00c9cc;}.cls-2{fill:#e1f9ff;}.cls-3{fill:#94d6d1;}.cls-4{fill:#79d3cc;}.cls-5{fill:#72c1bd;}.cls-6{fill:#55bcb9;}.cls-7{fill:#fff;}.cls-8{fill:#7ac7d3;}.cls-9{fill:#fac39d;}.cls-10,.cls-22{fill:#f79b6d;}.cls-11,.cls-14{fill:#1b232d;}.cls-12{fill:#ff8602;}.cls-13{fill:#ea6309;}.cls-14{opacity:0.35;}.cls-15{fill:#484848;}.cls-16,.cls-20{fill:#333;}.cls-16{opacity:0.74;}.cls-17,.cls-18,.cls-21{fill:#222933;}.cls-17{opacity:0.37;}.cls-18{opacity:0.23;}.cls-19{fill:#161825;}.cls-22{opacity:0.36;}.cls-23{fill:#363e49;}.cls-24{fill:#efeeed;}</style></defs><g id="BACKGROUND"><rect class="cls-1" width="601.83" height="445.31"/></g><g id="OBJECTS"><path class="cls-2" d="M151.85,405.3C113.1,402,73,390.92,52.62,368.29c-14.44-16.05-17.08-36.16-11.16-54.54s19.81-35.18,36.4-50.24c9.77-8.88,20.9-17.79,23.62-28.71,2.8-11.23-3.83-22.43-10-33-16.89-29.17-30.87-62.45-12.17-91.1C97.14,83.41,139.67,68,180.48,57c45.26-12.23,92.65-21.69,141.27-23.63s98.76,4,140.68,20.84,74.76,45.3,83,77.9c5.33,21,.52,42.69-8,63.21-5.7,13.67-13.13,27.67-10,41.72,2,9.35,8.63,17.9,14.81,26.37,19.93,27.3,36.7,59.78,17.87,87.45-10.22,15-29.95,26.36-51.9,33.55S462,395,437.93,397.49c-50.94,5.3-102.25,6.31-153.62,8.17C240.7,407.23,195.25,409,151.85,405.3Z"/><rect class="cls-3" x="281.32" y="235" width="41.19" height="144"/><rect class="cls-4" x="222.12" y="205" width="41.19" height="174"/><rect class="cls-3" x="162.92" y="271" width="41.19" height="108"/><rect class="cls-5" x="340.53" y="185" width="41.19" height="194"/><rect class="cls-6" x="399.73" y="131" width="41.19" height="248"/><path class="cls-4" d="M433.94,99a128.42,128.42,0,0,0-1.64-15.16,2.7,2.7,0,0,0-2.57-2.09c-4.32.62-8.63,1.36-12.9,2.38-4,1-8.65,1.9-12.12,4.41-1.18.85-.79,2.94.75,3,3.77,0,7.6-1.36,11.29-2.13,1.94-.4,3.88-.74,5.83-1a105.71,105.71,0,0,1-38.35,33.72c-17.74,9.28-37.07,14-56.48,17.2-41.12,6.7-85,7.53-120.76,33.22-16.24,11.68-29,27.47-34.61,47.73a1,1,0,1,0,2,.59c13.06-39.27,52-59.12,87.64-66.87,40.94-8.9,84.08-7.21,122.69-26.34,16.84-8.34,33.5-21,42.9-38.56q.64,5.73.8,11.51c.09,4-1,8.89.75,12.56a2,2,0,0,0,3.62,0C435.08,109.44,434.11,103.24,433.94,99Z"/><path class="cls-7" d="M178.15,72.63A33.22,33.22,0,0,1,166.58,98.5a35.11,35.11,0,0,1-35,6.55C96.38,91.74,106.42,38,143.85,38,164.35,38,177.88,55,178.15,72.63Z"/><path class="cls-4" d="M162.34,78.49c-5.45-1.55-12.52-1.12-18.25-.56.26-5,.6-10,.78-15,.09-2.52.18-5.28.12-7.89,0-1.37-.09-2.74-.22-4.1a12.13,12.13,0,0,0-.15-1.43c-.13-.67-.39-1.16-.94-.45a5.21,5.21,0,0,0-.43,2,65,65,0,0,0-.64,9.66c-.24,5.89-.49,11.79-.62,17.68a1,1,0,0,0,.25.68.88.88,0,0,0,.91.82c3.41.13,6.86-.07,10.27-.1a39.65,39.65,0,0,0,8.92-.56A.42.42,0,0,0,162.34,78.49Z"/><path class="cls-4" d="M114.91,78.05c-.46-.64-1-.61-1.68-.59s-1.29,0-1.93.09a.92.92,0,0,0,0,1.83c.64.08,1.28.08,1.93.1s1.22,0,1.68-.59A.79.79,0,0,0,114.91,78.05Z"/><path class="cls-4" d="M178.14,78.17a3.6,3.6,0,0,0-4-.34c-.73.36-.35,1.49.41,1.5a12.06,12.06,0,0,1,1.47.07c.51.06,1,.23,1.49.25A.88.88,0,0,0,178.14,78.17Z"/><path class="cls-4" d="M144.69,37.75c-.85,0-1,.93-1,1.56a6.93,6.93,0,0,0,.25,2.76c.18.47,1,.61,1.11,0,.17-.88.16-1.78.32-2.67C145.47,38.83,145.58,37.76,144.69,37.75Z"/><path class="cls-4" d="M143.6,103.12a.77.77,0,0,0-1.5-.2,9.07,9.07,0,0,0-.39,4.2c.16,1.09,1.75.74,1.82-.25,0-.62,0-1.25,0-1.88S143.62,103.74,143.6,103.12Z"/><path class="cls-4" d="M119,54.42a3.18,3.18,0,0,0-1.14-.73,4.09,4.09,0,0,0-1.22-.46c-.47-.07-1,.4-.68.89a4.24,4.24,0,0,0,.93,1,3.8,3.8,0,0,0,1.26.8A.88.88,0,0,0,119,54.42Z"/><path class="cls-4" d="M170.44,53.38a4,4,0,0,0-2.95,1.73.88.88,0,0,0,0,1.18.86.86,0,0,0,1.18,0,3.68,3.68,0,0,1,1-.73c.39-.2.83-.29,1.21-.51A.9.9,0,0,0,170.44,53.38Z"/><path class="cls-4" d="M123.71,95.17a3.77,3.77,0,0,0-1.44,1,5.28,5.28,0,0,0-1.12,1.29.92.92,0,0,0,1.43,1.11c.35-.35.64-.75,1-1.12a6.12,6.12,0,0,0,1-1.13A.78.78,0,0,0,123.71,95.17Z"/><path class="cls-4" d="M168,96.43a4.09,4.09,0,0,0-1.14-1.59,8,8,0,0,0-1.51-1.2.81.81,0,0,0-1.1,1.1,8,8,0,0,0,1.19,1.52A3.87,3.87,0,0,0,167,97.4.8.8,0,0,0,168,96.43Z"/><path class="cls-7" d="M306.68,48.6c-.58-1.63,8.43-7.91,9.17-8.42a38.64,38.64,0,0,1,17.39-6.38c12.88-1.5,29.4-2.29,32.79-20.09A164.2,164.2,0,0,1,389.4,44.46c1.38,2.34-6.33,14.06-7.14,15.2-8.46,11.9-20,14-32.82,15-10.44.8-22.18,3.27-29.16,12.74Z"/><path class="cls-4" d="M327.32,73.94c-1.71-4.67-4-9.13-6-13.69-2.14-5-3.88-10.3-6.53-15a.33.33,0,0,0-.6.25c1.13,4.8,3.36,9.44,5.29,14,2.12,5,4.13,10.21,6.85,14.92C326.65,74.85,327.53,74.51,327.32,73.94Z"/><path class="cls-4" d="M338,66.94a213,213,0,0,0-12.9-25.77c-.38-.65-1.3-.08-1,.57,4,8.63,8.24,17.33,12.78,25.66C337.2,68,338.25,67.58,338,66.94Z"/><path class="cls-4" d="M343.08,47.54A27.37,27.37,0,0,0,338.84,38c-.28-.37-1-.18-.81.35,1,3.26,2.56,6.39,3.8,9.58A.65.65,0,0,0,343.08,47.54Z"/><path class="cls-4" d="M359.49,60a94.88,94.88,0,0,0-5.26-11c-2.05-4-4-8.24-6.59-11.9-.22-.3-.81-.13-.67.28a98.24,98.24,0,0,0,5.14,11,118.21,118.21,0,0,0,6.27,12.09C358.73,61,359.73,60.66,359.49,60Z"/><path class="cls-4" d="M363.59,45.66c-1.86-3.78-3.86-8.38-6.79-11.43a.33.33,0,0,0-.55.32c1.06,4.1,3.93,8.23,6.16,11.8A.68.68,0,0,0,363.59,45.66Z"/><path class="cls-4" d="M381.72,49.79c-4.28-7.59-9-15.56-14.75-22.11-.35-.4-1,.12-.73.57,4.42,7.6,9.6,14.78,14.09,22.35A.8.8,0,0,0,381.72,49.79Z"/><path class="cls-7" d="M105.8,259.4c.9-1.22-5-8.8-5.52-9.42a33.77,33.77,0,0,0-12.92-9.82c-10.39-4.57-24-9.49-22.29-25.27a144.17,144.17,0,0,0-27.49,19.74c-1.76,1.6,1.68,13.41,2.07,14.57,4,12.14,13.17,16.89,23.62,21,8.55,3.35,17.74,8.45,21.15,18.18Z"/><path class="cls-4" d="M82,275.3c2.63-3.46,5.71-6.61,8.53-9.93,3.08-3.62,5.9-7.62,9.34-10.9a.29.29,0,0,1,.44.36c-2.18,3.73-5.24,7-8,10.34a120.45,120.45,0,0,1-9.59,10.72C82.31,276.24,81.66,275.73,82,275.3Z"/><path class="cls-4" d="M74.86,266.69A185.69,185.69,0,0,1,92.3,248.43c.48-.45,1.1.26.68.74-5.54,6.2-11.37,12.38-17.32,18.2C75.24,267.78,74.46,267.16,74.86,266.69Z"/><path class="cls-4" d="M75.59,249.13a23.94,23.94,0,0,1,6-6.93c.33-.24.87.1.6.5-1.71,2.46-3.8,4.69-5.66,7C76.1,250.3,75.19,249.76,75.59,249.13Z"/><path class="cls-4" d="M58.64,255.33a84.06,84.06,0,0,1,7.23-7.87,83.82,83.82,0,0,1,8.59-8.27c.27-.2.71.1.48.41a85.87,85.87,0,0,1-7.13,7.9,104.81,104.81,0,0,1-8.36,8.5C59,256.37,58.26,255.83,58.64,255.33Z"/><path class="cls-4" d="M58.89,242.27c2.53-2.68,5.39-6,8.63-7.82a.29.29,0,0,1,.38.41c-1.94,3.17-5.41,5.88-8.2,8.3A.6.6,0,0,1,58.89,242.27Z"/><path class="cls-4" d="M42.64,241.07c5.54-5.26,11.5-10.73,18-14.72.41-.25.81.35.47.66-5.66,5.23-11.84,9.91-17.56,15.1A.7.7,0,0,1,42.64,241.07Z"/><path class="cls-7" d="M571.58,235.22a39.42,39.42,0,0,1-10.15,7.13c-3.32,1.75-6.31,3-7.85,6.8a26.23,26.23,0,0,0-1.19,4.41c-.57,2.7-1.21,5.36-3.43,7.16-3.33,2.68-9.52,1.25-13.07,0-7.17-2.61-5.22-7.71-3.87-13.1a17.32,17.32,0,0,0,.68-6.62c-.8-5.45-5.19-10-7.07-15.22a29.27,29.27,0,0,1,10.92-33.84c9.88-6.81,23.19-6.8,32.4.82a29.78,29.78,0,0,1,10,28.8A27.91,27.91,0,0,1,571.58,235.22Z"/><path class="cls-6" d="M549,260.72c-3.33,2.68-9.52,1.25-13.07,0-7.17-2.61-5.22-7.71-3.87-13.1,1.56.62,3.09,1.56,4.24,2.06a48.6,48.6,0,0,0,16.13,3.92C551.82,256.26,551.18,258.92,549,260.72Z"/><path class="cls-6" d="M554.69,225.79c-1.46.58-1.88,2.87-2.33,4.13-.35,1-.69,2-1,2.92l-3.77-1.09c-1-.3-2.9-.68-4.77-1.29a13.11,13.11,0,0,0,.69-4.23c-.11-2.37-2-5.06-4.65-4.38-2.23.56-3.14,3.15-2.5,5.17.73,2.31,2.72,3.52,4.86,4.33-.19.7-.38,1.4-.55,2.1-1.75,6.92-3.32,13.88-5.07,20.8a.33.33,0,0,0,.63.16c1.32-5,2.76-9.88,4.11-14.83.67-2.47,1.33-5,2-7.42l.11-.38c.51.17,1,.32,1.52.47l6.9,2q-.62,1.77-1.2,3.57c-1.91,5.84-3.6,11.75-5.11,17.71a.8.8,0,0,0,1.55.38q2.58-10.31,5.92-20.38c.1-.29.19-.57.29-.85a8.45,8.45,0,0,0,4.36.61C562.26,234,558.9,224.13,554.69,225.79Zm-17.16-.14c.35-2,1.8-2.72,3.57-1.81,1.41.72,1,3.29.78,4.53-.09.55-.21,1.1-.35,1.65C539.16,229.09,537.15,227.73,537.53,225.65Zm20.3,7.06c-.81,2-3.43,1-4.8.63l-.26-.08c.34-1,.68-2,1-3s.41-2.55,1.54-2.76,1.73.7,2.28,1.66A4.23,4.23,0,0,1,557.83,232.71Z"/><path class="cls-8" d="M571.16,197.23a.52.52,0,0,0-.76.58c.64,3,2.66,5.49,3.38,8.51.84,3.47.31,6.61.27,10.08,0,.88,1.38,1.38,1.76.48C578.08,211.55,576.75,200.32,571.16,197.23Z"/><path class="cls-8" d="M574.94,220a1.08,1.08,0,0,0-2-.26,7.46,7.46,0,0,0-.49,1.37,8.8,8.8,0,0,0-.4,1.26,1.06,1.06,0,0,0,1.76,1,2.91,2.91,0,0,0,1-1.54A3.16,3.16,0,0,0,574.94,220Z"/><path class="cls-9" d="M135.45,305.26a33.68,33.68,0,0,1-7.24-.41A53.76,53.76,0,0,1,121,302.4,43.81,43.81,0,0,0,109.65,300a1,1,0,0,0-.85.17,1,1,0,0,0-.22.77c.08,2,1.51,3.74,3,5.07a23.44,23.44,0,0,0,8.26,4.67,52.46,52.46,0,0,1-17.69-1.54c-2.86-.76-5.71-1.76-8.66-1.72a2.36,2.36,0,0,0-2,.75,2.19,2.19,0,0,0-.31,1.1c-.41,4.35,1.74,8.52,4.13,12.17a18.76,18.76,0,0,0,4.28,5,18.93,18.93,0,0,0,6.89,2.83,83.49,83.49,0,0,0,38.85.23,9.1,9.1,0,0,0,3.37-1.3c1.62-1.17,2.36-3.2,2.83-5.14a32.27,32.27,0,0,0,.83-9c-.11-2.22-.14-5.57-1.5-7.48s-3.46-1.43-5.39-1.4Z"/><path class="cls-10" d="M118.59,325.89c-3.77-.83-7.77-.55-11.6-1-3.57-.39-7.64-2.12-11.18-1.63-.17,0-.2.27-.1.38,2.39,2.42,6.71,2.6,9.94,3,4.17.53,8.77,1.06,12.94.37C119.18,327,119.15,326,118.59,325.89Z"/><path class="cls-10" d="M115.91,320.51c-3.78-.6-7.65-.42-11.45-.71-4-.3-7.67-1.81-11.59-2.11-.42,0-.54.56-.21.76,6.29,3.71,16,3.91,23.06,3.44C116.45,321.84,116.74,320.64,115.91,320.51Z"/><path class="cls-10" d="M114.51,314.31c-4.32-.4-8.59.09-12.92-.59-3.52-.54-6.91-2-10.44-2.27-.44,0-.48.54-.2.75,3.15,2.39,7.74,3.06,11.56,3.58s8.37.92,12.17-.25A.62.62,0,0,0,114.51,314.31Z"/><path class="cls-9" d="M510.82,310.43c0,.26,0,.53,0,.79a17.11,17.11,0,0,1-1.84,6.25c-.26.53-.54,1-.82,1.55-.47.82-1,1.63-1.48,2.41a27.22,27.22,0,0,1-2.27,3.06,10.37,10.37,0,0,1-1.18,1.21,9.3,9.3,0,0,1-.83.7,19,19,0,0,1-6.9,2.82,81.07,81.07,0,0,1-13,2.13,83.14,83.14,0,0,1-25.79-1.89,9.1,9.1,0,0,1-3.37-1.3c-1.62-1.17-2.36-3.2-2.83-5.14a31.86,31.86,0,0,1-.83-9c0-.08,0-.14,0-.22.1-2.22.18-5.42,1.49-7.27a4,4,0,0,1,3.6-1.45h0c.6,0,1.2,0,1.78.05l6.13.09,3.93.06a33.14,33.14,0,0,0,7.25-.42,55.59,55.59,0,0,0,7.25-2.43A44.18,44.18,0,0,1,492.35,300a1.09,1.09,0,0,1,.85.18,1,1,0,0,1,.22.77c-.08,2-1.5,3.74-3,5.07a23.44,23.44,0,0,1-8.26,4.67,52.23,52.23,0,0,0,17.69-1.54c2.85-.75,5.71-1.76,8.66-1.72a1.83,1.83,0,0,1,2.29,1.84C510.8,309.65,510.82,310,510.82,310.43Z"/><path class="cls-10" d="M510.54,310.4c-3.91,1-7.42,3.17-11.42,4.08a45.14,45.14,0,0,1-13.12.78c-1.06-.07-1,1.5,0,1.63a39.68,39.68,0,0,0,13.56-.83c3.78-.87,8.53-2.2,11.38-5A.42.42,0,0,0,510.54,310.4Z"/><path class="cls-10" d="M509.33,317.41c-3.15.43-6.19,1.41-9.34,1.91a105.92,105.92,0,0,1-11.81.74.76.76,0,0,0,0,1.52c6.55.86,15.54-.06,21.39-3.27C510,318.09,509.82,317.35,509.33,317.41Z"/><path class="cls-10" d="M504.79,324.51c-6.25-.31-12.1.86-18.36-.17a.75.75,0,0,0-.57,1.36c2.43,1.53,5.57,1.3,8.35,1.17,3.53-.16,7.35-.42,10.67-1.72A.33.33,0,0,0,504.79,324.51Z"/><path class="cls-7" d="M224.07,236.38c-7.09,6.7-11.09,16.27-14,25.46-2.38,7.53-4.11,15.25-6.19,22.86-1.25,4.54-1.84,9.28-3.6,13.68-4.18,10.47-14.82,12-25,11.73-9.2-.27-18.32-1.35-27.53-1.5-1.25,0-2.6-.09-3.95-.05.16,7.89.47,15.77-.23,23.64,3.06.31,6.14.44,9.21.49,13.07.23,26-1.55,39-.3,6,.58,8.4-.17,12.45-4.74,3.2-3.6,5.8-7.67,8.68-11.52a44,44,0,0,0,8.1-16.66c1.6-6.34,3-12.47,5.83-18.42a5.58,5.58,0,0,1,2.55-2.74C227.55,264.35,225.54,250.38,224.07,236.38Z"/><path class="cls-7" d="M459,310.16a77.94,77.94,0,0,1-14.49.26c-7.73-.52-16.05-1.06-23.61-2.8-22.82-5.25-29-36.74-34.63-55.47-1.77-5.86-4.09-11.65-8.46-16.09s-10-7.19-15.33-9.89c-5.7-2.88-11.76-6-18-7.53-6.55-1.64-12.23-2.26-17.71-6.55a5.25,5.25,0,0,1-2.14-3.43l-5-1.36L303.85,203c0-.53,0-1.06,0-1.6l-2.9.8-2.91-.8,0,1.6-16.57,4.56-3.28.91a6.32,6.32,0,0,1-4.11,7.82c-7.21,2.42-14.37,5-21.57,7.4-1.19,28.14-1.6,56.32-.81,84.47.71,25.67,3.47,51.55,1,77.16,7.67,2.15,15.47,3.69,23.31,5.09l1.51-.14c10.26-.89,20.3-1.53,30.61-1.55,2.39,0,4.92,0,7.53,0,4.12-.7,8.21-1.57,12.27-2.67,12.27-3.33,23.72-8.6,34.88-14.52-6.82-9.67-8.25-25.08-8.84-35.12-1-17.79-.19-37,4.17-54.33,1.1-4.38,7.38-6.35,10.5-2.77,11.57,13.26,15,31.33,25.27,45.39,5.36,7.31,12.19,11,21.36,10.64,11.57-.51,22.59-5.07,34.12-6.15a5.36,5.36,0,0,1,4.06,1.11c3.28-.5,6.53-1.16,9.78-1.81C461.5,322.59,459.61,316.29,459,310.16Z"/><path class="cls-11" d="M246.85,351.06c18.66,10.29,38.81,13.47,58.69,12.84s39.63-4.95,59.3-9.26c-25.63,31.19-61.1,43.39-93.25,32.09-8.91-3.13-17.74-8.12-24.67-17.06-3.47-4.48-6.54-10.37-6.89-17.21"/><path class="cls-12" d="M309.37,339.83,303,351.08a1.88,1.88,0,0,1-3.27,0l-1.62-2.89-4.78-8.57c-2.92-57.95,2.91-99.49,2.91-99.49h7.3c.25,1.16.49,2.45.73,3.85C308.72,271,309.37,339.83,309.37,339.83Z"/><path class="cls-13" d="M309.37,339.83,303,351.08a1.88,1.88,0,0,1-3.27,0l-1.62-2.89c5.29-14,6.32-29.67,6.21-44.79q-.12-17.64-2-35.2-.9-8.61-2.22-17.2c-.28-1.73-1.78-5.6-.36-7,.9-.88,2.86-.56,4.49,0C308.72,271,309.37,339.83,309.37,339.83Z"/><path class="cls-14" d="M423.47,337.92c-4.86,1.32-12.16,1.85-14.69,2.5q-3,.78-6,1.67C409.54,339.84,416.43,338.05,423.47,337.92Z"/><path class="cls-15" d="M289.77,350.17c-.15,2.88-.31,5.76-.51,8.63-.11,1.77-.24,3.54-.37,5.31q-1.12,15.5-3,30.92c-18.67-.88-35.24-3.4-41.71-7.58a37.82,37.82,0,0,1-14.29-16.74c6.17-15.4,9.63-36.43,10.19-56,.09-3.31.1-6.6,0-9.8a146.88,146.88,0,0,0-1.26-16.65c0-.1,0-.2,0-.3a267.65,267.65,0,0,1-36.1,45.33,21.44,21.44,0,0,1-6.05,4.73,20.52,20.52,0,0,1-7.42,1.33c-1,.05-2.07.09-3.13.12a255.9,255.9,0,0,1-53.37-3.88c.24-3,.6-6.07,1-9.15a147.34,147.34,0,0,1,5.42-23.6c14.77-.63,31.91-.5,46.68-1.13,8-13.52,15.81-27.55,22.06-42,5.76-13.36,11.43-27.92,23.23-35.92,6-4,13-6,19.89-7.89l18.68-5.13,3-.82,1.69-.47,1-.28,6-1.64a30.51,30.51,0,0,0-1.61,6.82,33.61,33.61,0,0,0,.43,10.87c.78,3.53,2.13,6.9,3,10.4.26,1,.51,2.07.75,3.1.18.75.36,1.5.51,2.25.82,3.69,1.52,7.41,2.13,11.14a328.71,328.71,0,0,1,3.65,41.21Q291.27,321.75,289.77,350.17Z"/><path class="cls-15" d="M469.84,335.56a260.44,260.44,0,0,1-48.34,4c-3,0-6-.1-8.89-.23a20.56,20.56,0,0,1-7.42-1.33,21.17,21.17,0,0,1-6.05-4.73A267.65,267.65,0,0,1,363,287.93a147.52,147.52,0,0,0-1.25,15.57c-.19,6.16-.05,12.64.38,19.16,1.17,17.17,4.46,34.72,9.8,48-.53,1.17-1.1,2.31-1.71,3.4a37.48,37.48,0,0,1-12.58,13.34c-6.41,4.14-22.7,6.65-41.13,7.54q-.18-1.38-.33-2.76-1.62-13.73-2.65-27.51c-.26-3.62-.5-7.23-.71-10.85q-.27-4.44-.46-8.89-1.14-25.8-.27-51.67a328.71,328.71,0,0,1,3.65-41.21c.57-3.51,1.22-7,2-10.47.15-.75.32-1.5.5-2.25q.72-3.16,1.57-6.3a45.94,45.94,0,0,0,1.5-17.61,51.29,51.29,0,0,0-1.43-7.35c-.08-.26-.16-.54-.26-.83l5.94,1.64,2.36.66.37.1,3.59,1,18.88,5.19c6.9,1.9,13.93,3.85,19.89,7.89,11.83,8,17.49,22.56,23.26,35.92,6.22,14.46,13.35,27,21.3,40.55,14.78.63,34.1,2,48.89,2.59C467.43,313.12,469,324.73,469.84,335.56Z"/><path class="cls-16" d="M289.78,350.17q-.24,4.32-.52,8.63l-10.38-52.29c-2-10-3.93-20-6.42-29.83-2.3-9.07-5.1-18-10.13-26a1.12,1.12,0,0,1,.65-1.61q5.1-2,10-4.39l-12.85-3.57a1.12,1.12,0,0,1-.66-1.61l8.85-19.77q2.07-4.6,4.13-9.22c.09-.22.19-.42.28-.63l1.69-.47,1-.28-4.07,9.07q-4.72,10.58-9.46,21.14L275,243a1,1,0,0,1,.57.4q4.29-2.19,8.41-4.69.27,1.13.51,2.25a142.7,142.7,0,0,1-19.63,9.72c9.64,15.94,12.26,35.89,15.83,53.84Q285.24,327.34,289.78,350.17Z"/><path class="cls-17" d="M241,293.05a1,1,0,0,1-1.54.95c-.18-2-.39-3.91-.65-5.77,0-.1,0-.2,0-.3l-.16.24a267.28,267.28,0,0,1-35.94,45.09,21.3,21.3,0,0,1-6.05,4.73,20.52,20.52,0,0,1-7.42,1.33c-1,.05-2.07.08-3.12.12a51.07,51.07,0,0,0,14.57-10.5,63.44,63.44,0,0,0,8.07-11.28c7.14-12.06,12.7-25,18.24-37.84,2.47-5.76,4.95-11.5,7.27-17.31,1-2.47,1.94-4.95,2.85-7.44.14-.38.28-.75.41-1.12.3-.83.71-2.84,1.21-4.68q.48,4,.73,8C240.25,269.16,240.54,281.12,241,293.05Z"/><path class="cls-16" d="M241,293.05a1.1,1.1,0,0,1-2.19,0c-.06-1.63-.13-3.25-.19-4.88-.37-9.44-.7-18.89-1.21-28.34-.09-1.59-.19-3.18-.32-4.76-.72-9.16-2.19-18.24-5.92-26.72-.57-1.27,1.32-2.38,1.89-1.1a77,77,0,0,1,5.65,22q.48,4,.73,8C240.25,269.16,240.54,281.12,241,293.05Z"/><path class="cls-17" d="M421.5,339.55c-3,0-6-.1-8.89-.23A20.43,20.43,0,0,1,405.2,338a21.07,21.07,0,0,1-6.06-4.73,266.6,266.6,0,0,1-36.09-45.33c-.38,2.73-.68,5.6-.9,8.58,0,.63-.09,1.28-.13,1.93h0a1.14,1.14,0,0,1-2-.66,204.42,204.42,0,0,1,1.48-36.7,2.46,2.46,0,0,1,.89.19,2.91,2.91,0,0,1,1.15,1.12c2.43,3.53,5.32,13.9,6.44,16.34,5.4,11.75,11.56,23.21,19.27,33.62A115.9,115.9,0,0,0,404,328.85a51.29,51.29,0,0,0,11.85,8.5A37.56,37.56,0,0,0,421.5,339.55Z"/><path class="cls-16" d="M370.75,228.65a202.47,202.47,0,0,0-8.6,67.86c0,.42,0,.85.06,1.28a1,1,0,0,1-.19.65h0a1.14,1.14,0,0,1-2-.66,204.8,204.8,0,0,1,8.61-69.72C369.05,226.73,371.16,227.3,370.75,228.65Z"/><path class="cls-18" d="M288.89,364.11q-1.12,15.5-3,30.92c-18.67-.88-35.24-3.4-41.71-7.58a37.82,37.82,0,0,1-14.29-16.74c6.17-15.4,9.63-36.43,10.19-56,.73,8.31,2.08,16.57,6,23.89,5.25,9.93,14.79,17.14,25.26,21.21A75,75,0,0,0,288.89,364.11Z"/><path class="cls-18" d="M372,370.71c-.53,1.17-1.1,2.31-1.71,3.4a142.33,142.33,0,0,1-20.88,9.49c-10.71,4.06-21.8,7.72-33.16,8.63q-1.62-13.73-2.65-27.51c6.36-.05,12.69-.64,18.53-3a39.7,39.7,0,0,0,8.46-4.89,54.55,54.55,0,0,0,13.72-15.08,66.2,66.2,0,0,0,7.27-16.52c.25-.84.45-1.69.62-2.55C363.34,339.83,366.63,357.38,372,370.71Z"/><path class="cls-19" d="M240,429.28a24.69,24.69,0,0,1-6.07-1.53c-4.71-2-8-6.62-9.3-11.59a28.11,28.11,0,0,1,.87-15.17,6.48,6.48,0,0,1,1.08-2.28,6.14,6.14,0,0,1,3.32-1.78c5.9-1.5,12.11-.33,18,1a123,123,0,0,1,17.22,4.77,72.48,72.48,0,0,1,14.5,7.44c3.35,2.23,11.2,6.76,12.63,10.7,2.31,6.34-26.82,9.25-31.45,9.49A102.43,102.43,0,0,1,240,429.28Z"/><path class="cls-15" d="M448.79,376.22c-4.64,8.28-12.59,14.36-21.06,18.9-19,10.18-40.87,13.51-61.88,18.65-20.63,5-41.6,12-62.64,9.19-.93-1.53-1.83-3-2.66-4.57a90.77,90.77,0,0,1-10.09-26.72,769.88,769.88,0,0,1,87.13-40.29q9.63-3.76,19.35-7.25c1.95-.7,3.9-1.39,5.88-2,6.72-2.25,13.61-4,20.65-4.17h1c9.46,0,19.4,3.67,24.56,11.41S453.45,368,448.79,376.22Z"/><path class="cls-14" d="M290.46,391.67a769.88,769.88,0,0,1,87.13-40.29c-3.19,1.38-6.34,2.85-9.46,4.36-7.41,3.59-14.65,7.49-21.77,11.6-8.89,5.14-17.69,10.66-25,17.83S308.06,401.32,306,411.39c-.52,2.58-1.12,5.66-3.54,6.67a5.13,5.13,0,0,1-1.95.33A90.77,90.77,0,0,1,290.46,391.67Z"/><path class="cls-16" d="M440.52,350.81c-7.77,9-17.87,15.33-28.56,20.37a348.52,348.52,0,0,1-35.6,14A486.59,486.59,0,0,1,300,404.53c-1.38.24-.8,2.35.59,2.12a486.51,486.51,0,0,0,78.9-20.28c21.94-7.67,46.91-15.84,62.54-34C443,351.3,441.45,349.74,440.52,350.81Z"/><path class="cls-20" d="M366.11,420.59c-2.6,3.64-6.95,5.57-11.19,7-18.92,6.4-39.35.68-58.32-1.8-4.12-.54-9.83-.36-12.82-2.67-1.5-1.15-2.32-2.92-1.92-5.71a100.29,100.29,0,0,1,7.21-24.31,2,2,0,0,1,.85-1.15,2.15,2.15,0,0,1,1.67.19,64,64,0,0,0,37.23,3.26c9-1.93,18-5.85,27.11-4.44a13,13,0,0,1,5.62,2,11.87,11.87,0,0,1,3.63,4.51,28.74,28.74,0,0,1,1.56,3.83C368.87,407.67,370,415.17,366.11,420.59Z"/><path class="cls-19" d="M366.11,420.59c-2.6,3.64-6.95,5.57-11.19,7-18.92,6.4-39.35.68-58.32-1.8-4.12-.54-9.83-.36-12.82-2.67a7.82,7.82,0,0,1,2.58-2.11c3.34-1.51,10.12-.47,13.68-.2,5.49.44,10.89,1.49,16.29,2.46,8.73,1.57,17.72,2.94,26.42,1.21s17.17-4.13,20.15-12.49c1.31-3.66,1.49-10.67,2.28-14.48a28.74,28.74,0,0,1,1.56,3.83C368.87,407.67,370,415.17,366.11,420.59Z"/><path class="cls-15" d="M359,398.67c1.41,3.06,1,6.69-.18,9.83a19.9,19.9,0,0,1-17.08,12.34,6,6,0,0,1-2.66-.32c-2.4-1-2.87-4.56-1.33-6.66.94-1.28,2.38-2.11,3.33-3.37,2.84-3.76.37-9.51,2.6-13.66C346.88,390.83,356.51,393.3,359,398.67Z"/><path class="cls-19" d="M309,402.08a10.92,10.92,0,0,0-3,9.4,9.15,9.15,0,0,0,6.58,7.13,54.14,54.14,0,0,1-18.38-1.27,165.53,165.53,0,0,1,8-20.27c.53-1.11,14.31.2,15.4,1C314.36,399,311.45,399.52,309,402.08Z"/><path class="cls-15" d="M306.48,399.28a7.08,7.08,0,0,1-.17.77,94.35,94.35,0,0,1-4.39,12.17c-.29.66-.6,1.32-.91,2-1.23,2.65-2.59,5.25-4.07,7.82a7.54,7.54,0,0,1-7,3.75c-18.9-1-38.88-5.75-57.88-10.72-20.93-5.45-42.75-9.12-61.58-19.6-8.4-4.67-16.25-10.87-20.77-19.22s-5.16-19.11.22-26.91a23.43,23.43,0,0,1,9.29-7.75,34.57,34.57,0,0,1,15.43-3.28c9.46.12,18.57,3.33,27.41,6.66A772.73,772.73,0,0,1,302.7,391.29,7.6,7.6,0,0,1,306.48,399.28Z"/><path class="cls-16" d="M301.92,412.22c-.29.66-.6,1.32-.91,2q-8.34-2.13-16.61-4.44-35.06-9.79-69.11-22.71c-10.7-4.05-21.45-8.17-31.77-13.12-8.63-4.14-20.2-9.11-24.73-18.15-.63-1.26,1.27-2.37,1.9-1.11,2.92,5.85,8.91,9.24,14.4,12.38a169.81,169.81,0,0,0,16.9,8.34C227.35,390.74,264.45,402.73,301.92,412.22Z"/><path class="cls-14" d="M306.48,399.28c-3.59-1.18-7.14-2.49-10.67-3.84q-40.59-15.35-79.72-34.24c-6.74-3.26-13.48-6.57-20.35-9.54a144.66,144.66,0,0,0-18.81-6.82,93,93,0,0,0-9.5-2.11c-2.6-.42-5.65-.29-8.18-1.16a34.57,34.57,0,0,1,15.43-3.28c9.46.12,18.57,3.33,27.41,6.66A772.73,772.73,0,0,1,302.7,391.29,7.6,7.6,0,0,1,306.48,399.28Z"/><path class="cls-9" d="M318.86,215.3l-18.61,16.06L281.64,215.3a112.44,112.44,0,0,0,1.59-11.49c0-.12,0-.24,0-.36.82-8.74,1.09-18.2,1.19-23.66,0-.66,0-1.25,0-1.78,0-1.8,0-2.85,0-2.85l1.76-.08,2.16-.1,29-1.28c-1.53,8.23-1,19.6-.2,28.37.1,1,.2,2,.3,3C318.17,211.08,318.86,215.3,318.86,215.3Z"/><path class="cls-10" d="M317.53,205c-1.06.89-2.17,1.74-3.31,2.53a25.24,25.24,0,0,1-11.8,4.63,21.91,21.91,0,0,1-14.16-4,32.73,32.73,0,0,1-5-4.35c0-.12,0-.24,0-.36.82-8.74,1.09-18.2,1.19-23.66,0-.66,0-1.25,0-1.78a33.72,33.72,0,0,1,1.79-2.93l2.16-.1,29-1.28c-1.53,8.23-1,19.6-.2,28.37C317.33,203.09,317.43,204.08,317.53,205Z"/><path class="cls-21" d="M268.37,154.64c1.2,6.56,2.59,13.51,7.16,18.36a2.45,2.45,0,0,0,1,.72c1.34.39,2.22-1.36,2.43-2.74a66.06,66.06,0,0,0,.16-13.34c-.25-4.7-.51-18.23-7.15-19.22C264.89,137.37,267.8,151.5,268.37,154.64Z"/><path class="cls-11" d="M336.08,145a77.7,77.7,0,0,1-9.41,30.23c-.58,1.06-1.63,2.27-2.76,1.84-.75-.29-1.06-1.17-1.26-1.95a110.25,110.25,0,0,1-3.61-25.8c0-1.94,0-3.89,0-5.84v-.06c.16-4.85.75-11.07,4.51-14.63a4.88,4.88,0,0,1,5.09-1.06,10.88,10.88,0,0,1,5.95,5.15A15,15,0,0,1,336,137.4,30.12,30.12,0,0,1,336.08,145Z"/><path class="cls-10" d="M326.57,165.64c1.13-1.32,2.94-2.53,4.73-2s2.55,2.29,2.73,3.91a16.43,16.43,0,0,1-2,9.19,7.91,7.91,0,0,1-2.67,3.27,4.1,4.1,0,0,1-4.3.16,4.24,4.24,0,0,1-1.49-3.07A14,14,0,0,1,326.57,165.64Z"/><path class="cls-10" d="M276.77,165.64c-1.13-1.32-2.94-2.53-4.74-2s-2.54,2.29-2.72,3.91a16.43,16.43,0,0,0,2,9.19A7.83,7.83,0,0,0,274,180a4.1,4.1,0,0,0,4.3.16,4.24,4.24,0,0,0,1.49-3.07A14,14,0,0,0,276.77,165.64Z"/><path class="cls-9" d="M325,183.59a30.8,30.8,0,0,1-1,3.76,25.2,25.2,0,0,1-20.52,16.78c-12.52,1.78-25.1-10.14-25.75-20.54,0,0-1-15.75-.55-30.7,0-2,.13-4,.24-5.88.09-1.46.19-2.9.31-4.28,0,0,4.23-6.71,23.65-5.34,12.26-.87,18.47,1.49,21.39,3.34a7.62,7.62,0,0,1,2.27,2c.23,2.49.38,5.12.48,7.81C326.12,166.14,325,183.59,325,183.59Z"/><path class="cls-11" d="M293.58,170.59c-3.47,2.41-7.43,3.43-10.4-.24-.29-.36-.91,0-.77.45,1.78,5.4,8.75,3.38,11.91.74C294.84,171.1,294.15,170.2,293.58,170.59Z"/><path class="cls-11" d="M309.86,170.59c3.47,2.41,7.43,3.43,10.4-.24.29-.36.91,0,.77.45-1.78,5.4-8.74,3.38-11.9.74C308.6,171.1,309.29,170.2,309.86,170.59Z"/><path class="cls-11" d="M293,160.09a16.8,16.8,0,0,0-6.24-.42c-1.75.13-3.61.29-5,1.46-.66.55-.2,1.45.45,1.72,1.62.65,3.6.26,5.31.19a52.32,52.32,0,0,0,5.46-.14C294.51,162.69,294.2,160.49,293,160.09Z"/><path class="cls-11" d="M309.48,160.09a16.73,16.73,0,0,1,6.23-.42c1.76.13,3.62.29,5,1.46.65.55.19,1.45-.45,1.72-1.62.65-3.6.26-5.32.19a52.13,52.13,0,0,1-5.45-.14C308,162.69,308.26,160.49,309.48,160.09Z"/><path class="cls-10" d="M303.24,176.16a16.36,16.36,0,0,0-.33-4.64c-.31-1-2-1.43-2.44-.32a12.52,12.52,0,0,0-.76,4.67c0,1.54-.36,3.25.8,4.43a1.42,1.42,0,0,0,2,0C303.57,179.08,303.25,177.69,303.24,176.16Z"/><path class="cls-7" d="M304.5,186.61a15.79,15.79,0,0,1-3.7.25c-1.17-.06-2.32-.4-3.49-.41a1.17,1.17,0,0,0-.58,2.17c2.29,1.57,5.95,1.34,8.52.69C307,188.87,306.26,186.29,304.5,186.61Z"/><path class="cls-10" d="M286.16,179.2a4.29,4.29,0,0,0-3.49-.88l-.24.05-.22,0-.25.08a3.87,3.87,0,0,0-1.77,1.12,2.67,2.67,0,0,0,1.24,4.41,6.65,6.65,0,0,0,4.25-.33A2.73,2.73,0,0,0,286.16,179.2Z"/><path class="cls-10" d="M322.65,179.2a4.29,4.29,0,0,0-3.49-.88l-.24.05-.21,0-.26.08a4,4,0,0,0-1.77,1.12,2.68,2.68,0,0,0,1.24,4.41,6.65,6.65,0,0,0,4.25-.33A2.72,2.72,0,0,0,322.65,179.2Z"/><path class="cls-7" d="M320.44,163.28c-2.88-1.81-7.64-1.63-10.86.28-2.12.88-3.47,3.29-4.07,5.93a16.25,16.25,0,0,0-4.35-.17,18.19,18.19,0,0,0-4,.49,9.66,9.66,0,0,0-4.12-6.53c-2.88-1.81-7.64-1.63-10.86.28-4.23,1.75-5.38,9.6-3.69,13.21a10,10,0,0,0,15.46,3.66c2.53-2.13,3.67-5.77,3.39-9.26,1.39,0,2.81-.13,4.2-.15s2.5.08,3.74,0a11.17,11.17,0,0,0,.63,5.78,10,10,0,0,0,15.46,3.66C326.19,176.36,326,166.77,320.44,163.28Zm-27.13,15.81a8.56,8.56,0,0,1-13.05-2c-1.65-2.67-1.63-7.67.39-10.71,2.93-3,8.82-4,11.94-1.61C296.7,168,297.13,175.54,293.31,179.09Zm27.42,0a8.56,8.56,0,0,1-13.05-2c-1.65-2.67-1.63-7.67.39-10.71,2.93-3,8.82-4,11.94-1.61C324.12,168,324.55,175.54,320.73,179.09Z"/><path class="cls-22" d="M325.5,150.54c-3.78,3.24-8.81,5.18-13.76,6.23a55.54,55.54,0,0,1-33.54-3.46c-.33-.15-.7-.28-1-.42,0-2,.13-4,.24-5.88l0,0a12.59,12.59,0,0,1,5.56-1.05c11.69-.39,23.65,0,34.78-3.58,1.66-.54,3.31-1.16,5-1.63a7.62,7.62,0,0,1,2.27,2C325.25,145.22,325.4,147.85,325.5,150.54Z"/><path class="cls-11" d="M330.32,134.13a13.65,13.65,0,0,1,0,1.43,13.18,13.18,0,0,1-.93,4.14c-1.73,4.35-5.67,7.47-10.33,9.61a47.69,47.69,0,0,1-17.41,4,50.05,50.05,0,0,1-8.2-.52c-1.87-.24-3.74-.53-5.61-.8l-4.41-.67A45.53,45.53,0,0,1,272,148.56c-3.59-1.55-6.88-4.19-8.36-7.82a11.59,11.59,0,0,1,1.66-11.41c-.79-2.67.72-5.59,3-7.2l.39-.24a10.19,10.19,0,0,1,2.58-1.12,18.79,18.79,0,0,1,5.94-.5c1.2.07,2.41.19,3.62.27.72,0,1.44.08,2.17.07,8-.06,15.37-4.75,23.36-5.36a23.6,23.6,0,0,1,18.6,7.16,21.56,21.56,0,0,1,1.83,2.2,18.71,18.71,0,0,1,1.84,3.11A16.19,16.19,0,0,1,330.32,134.13Z"/><path class="cls-21" d="M330.3,135.56a13.47,13.47,0,0,1-.93,4.14c-1.73,4.35-5.68,7.47-10.33,9.61a47.69,47.69,0,0,1-17.41,4,50.05,50.05,0,0,1-8.2-.52c-1.87-.24-3.74-.53-5.6-.8l-4.42-.67A45.2,45.2,0,0,1,272,148.56c-3.59-1.54-6.88-4.19-8.36-7.81a11.59,11.59,0,0,1,1.66-11.42c-.79-2.67.72-5.59,3-7.2,1,.53.66,2,.77,3.32a6.91,6.91,0,0,0,3.18,5.23,8.71,8.71,0,0,0-3.16,3.66c-1,3,1.36,6,3.89,7.89a27.12,27.12,0,0,0,10.05,4.63,38.52,38.52,0,0,0,10.72.72,66.64,66.64,0,0,0,36.52-13.45A13.64,13.64,0,0,1,330.3,135.56Z"/><path class="cls-23" d="M285.07,124.28a5.76,5.76,0,0,0-4.61-.53,2.23,2.23,0,0,0-1.59,1.84,2.29,2.29,0,0,0,1.06,2.21,6,6,0,0,0,1.95.86,4.86,4.86,0,0,0,2.62,0,2.41,2.41,0,0,0,1.72-2A2.44,2.44,0,0,0,285.07,124.28Z"/><path class="cls-23" d="M286.46,133.58a2.53,2.53,0,0,0-1.77-1.77c-.17,0-.13,0,0,0a3.19,3.19,0,0,0-1.42-.28h-.13a4,4,0,0,0-1.29.08,2.56,2.56,0,0,0-1.78,3.14,3.47,3.47,0,0,0,2.46,2.28,3.21,3.21,0,0,0,3.32-1A2.59,2.59,0,0,0,286.46,133.58Z"/><path class="cls-23" d="M290,139a4.15,4.15,0,0,0-1-.54,4.83,4.83,0,0,0-1.37-.12,4,4,0,0,0-2.29.45,2.13,2.13,0,0,0-1,2.34,3.41,3.41,0,0,0,2.57,2.21,4.3,4.3,0,0,0,1.71.1,3.32,3.32,0,0,0,1.81-1A2.22,2.22,0,0,0,290,139Z"/><path class="cls-12" d="M308.61,238.62c-.58,3.13-1.84,6.66-3.62,8.8,0,0-6.57.73-9.49,0a15.78,15.78,0,0,1-2.87-7.16,26.26,26.26,0,0,1,0-8.17s13.13-.73,15.32,0C309,232.46,309.2,235.33,308.61,238.62Z"/><path class="cls-13" d="M308.61,238.62a10.69,10.69,0,0,0-7.17-2.58,12.83,12.83,0,0,0-7.05,2.53c-.42.3-1.05,1-1.76,1.69a26.26,26.26,0,0,1,0-8.17s13.13-.73,15.32,0C309,232.46,309.2,235.33,308.61,238.62Z"/><path class="cls-7" d="M281.64,207.27s14.59,19,18.24,24.09c0,0-9.48,4.38-11.67,10.22C288.21,241.58,277.26,226.25,281.64,207.27Z"/><path class="cls-7" d="M318.56,207.27s-14.6,19-18.25,24.09c0,0,9.49,4.38,11.68,10.22C312,241.58,322.94,226.25,318.56,207.27Z"/><path class="cls-24" d="M316.5,242.57c-4.06-4.52-9.62-9.63-15.5-11.7a.86.86,0,0,0-1.16-.18c-5.43,3.21-11.55,7.9-14.53,13.58a.55.55,0,0,0,.86.67c2.33-2.05,4.31-4.47,6.61-6.56a63.15,63.15,0,0,1,7.82-5.88c2.14,1.54,4.49,2.8,6.61,4.39A66.24,66.24,0,0,1,315.1,244C316,244.9,317.35,243.52,316.5,242.57Z"/><path class="cls-16" d="M341,241.14l-12.85,3.57q4.9,2.39,10,4.39a1.11,1.11,0,0,1,.66,1.61c-5,8-7.83,16.9-10.12,26-2.5,9.87-4.45,19.86-6.43,29.83q-4.69,23.69-9.4,47.36c-.17-3-.33-5.93-.46-8.89q4-20.24,8-40.46c3.56-17.95,6.19-37.9,15.83-53.84a142.62,142.62,0,0,1-18.5-9.05c.15-.75.32-1.5.5-2.25q3.58,2.12,7.29,4a1,1,0,0,1,.57-.4l13.09-3.63q-4.72-10.58-9.46-21.14l-4.17-9.3,2.36.65.37.1.38.86q2.06,4.61,4.13,9.22,4.41,9.88,8.85,19.77A1.12,1.12,0,0,1,341,241.14Z"/></g></svg>