<svg id="Layer_1" data-name="Layer 1" xmlns="http://www.w3.org/2000/svg" xmlns:xlink="http://www.w3.org/1999/xlink" viewBox="0 0 1009.98 568.94"><defs><style>.cls-1{fill:none;}.cls-2{clip-path:url(#clip-path);}.cls-3{fill:#f4f4f4;}.cls-36,.cls-4{fill:#00a0a3;}.cls-18,.cls-5{font-size:16px;}.cls-18,.cls-36,.cls-5{font-family:Inter-SemiBold, Inter;font-weight:600;}.cls-6{letter-spacing:-0.07em;}.cls-7{letter-spacing:-0.02em;}.cls-8{letter-spacing:-0.04em;}.cls-9{letter-spacing:-0.01em;}.cls-10{letter-spacing:0.03em;}.cls-11{letter-spacing:-0.01em;}.cls-12{letter-spacing:0em;}.cls-13{letter-spacing:-0.02em;}.cls-14{letter-spacing:0.02em;}.cls-15{letter-spacing:-0.01em;}.cls-16{letter-spacing:-0.01em;}.cls-17{letter-spacing:-0.01em;}.cls-18,.cls-23{fill:#ea6309;}.cls-19{letter-spacing:0.02em;}.cls-20{letter-spacing:-0.02em;}.cls-21{letter-spacing:-0.06em;}.cls-22{letter-spacing:-0.02em;}.cls-24{letter-spacing:-0.02em;}.cls-25{letter-spacing:-0.07em;}.cls-26{letter-spacing:-0.02em;}.cls-27{letter-spacing:-0.01em;}.cls-28{letter-spacing:0.01em;}.cls-29{letter-spacing:-0.01em;}.cls-30{letter-spacing:0.01em;}.cls-31{letter-spacing:-0.02em;}.cls-32{letter-spacing:-0.02em;}.cls-33{letter-spacing:-0.01em;}.cls-34{letter-spacing:-0.02em;}.cls-35{letter-spacing:-0.01em;}.cls-36{font-size:22px;}.cls-37{letter-spacing:-0.09em;}.cls-38{letter-spacing:-0.03em;}.cls-39{letter-spacing:-0.04em;}</style><clipPath id="clip-path"><rect class="cls-1" width="1009.98" height="568.94"/></clipPath></defs><g class="cls-2"><rect class="cls-3" width="1009.98" height="568.94"/><rect class="cls-4" x="124.71" y="94.92" width="158.99" height="20.2"/><rect class="cls-4" x="124.71" y="126.85" width="152.43" height="20.2"/><rect class="cls-4" x="124.71" y="158.77" width="149.97" height="20.2"/><rect class="cls-4" x="124.71" y="190.7" width="148" height="20.2"/><rect class="cls-4" x="124.71" y="222.63" width="147.34" height="20.2"/><rect class="cls-4" x="124.71" y="254.56" width="146" height="20.2"/><rect class="cls-4" x="124.71" y="286.48" width="144" height="20.2"/><rect class="cls-4" x="124.71" y="318.41" width="141.66" height="20.2"/><rect class="cls-4" x="124.71" y="350.34" width="141.66" height="20.2"/><rect class="cls-4" x="124.71" y="382.27" width="141.66" height="20.2"/><rect class="cls-4" x="124.71" y="414.19" width="141.66" height="20.2"/><rect class="cls-4" x="124.71" y="446.12" width="141.66" height="20.2"/><rect class="cls-4" x="124.71" y="478.05" width="140" height="20.2"/><rect class="cls-4" x="124.71" y="509.98" width="140" height="20.2"/><text class="cls-5" transform="translate(62.45 109.46)"><tspan class="cls-6">T</tspan><tspan x="9.38" y="0">aiwan</tspan></text><text class="cls-5" transform="translate(47.42 141.39)">Germa<tspan class="cls-7" x="51.46" y="0">n</tspan><tspan x="60.9" y="0">y</tspan></text><text class="cls-5" transform="translate(32.5 173.32)">Hong <tspan class="cls-8" x="45.36" y="0">K</tspan><tspan x="55.56" y="0">ong</tspan></text><text class="cls-5" transform="translate(51.64 205.25)"><tspan class="cls-9">P</tspan><tspan x="10.17" y="0">o</tspan><tspan class="cls-10" x="19.9" y="0">r</tspan><tspan x="26.72" y="0">tugal</tspan></text><text class="cls-5" transform="translate(27.98 237.17)">Pue<tspan class="cls-10" x="29.51" y="0">r</tspan><tspan class="cls-11" x="36.33" y="0">t</tspan><tspan class="cls-12" x="42.32" y="0">o Rico</tspan></text><text class="cls-5" transform="translate(38.84 269.1)">Singapu<tspan class="cls-13" x="63.24" y="0">r</tspan><tspan class="cls-12" x="69.22" y="0">e</tspan></text><text class="cls-5" transform="translate(51.11 301.03)">Hunga<tspan class="cls-14" x="50.59" y="0">r</tspan><tspan x="57.21" y="0">y</tspan></text><text class="cls-5" transform="translate(61.65 332.96)">Austria</text><text class="cls-5" transform="translate(72.72 364.88)">China</text><text class="cls-5" transform="translate(61.04 396.81)">Finland</text><text class="cls-5" transform="translate(64.47 428.74)">I<tspan class="cls-13" x="4.4" y="0">r</tspan><tspan class="cls-12" x="10.38" y="0">eland</tspan></text><text class="cls-5" transform="translate(50.85 460.67)"><tspan class="cls-9">R</tspan><tspan x="10.28" y="0">omania</tspan></text><text class="cls-5" transform="translate(55.1 492.59)">Belgium</text><text class="cls-5" transform="translate(74.32 524.52)">B<tspan class="cls-15" x="10.52" y="0">r</tspan><tspan x="16.7" y="0">azil</tspan></text><text class="cls-5" transform="translate(290.59 109.46)">90%</text><text class="cls-5" transform="translate(283.33 141.39)">86%</text><text class="cls-5" transform="translate(281.65 173.32)">85%</text><text class="cls-5" transform="translate(281.86 205.25)">84%</text><text class="cls-5" transform="translate(277.63 237.17)">83%</text><text class="cls-5" transform="translate(277.63 269.1)">83%</text><text class="cls-5" transform="translate(275.92 301.03)">82%</text><text class="cls-5" transform="translate(275.58 332.96)">81%</text><text class="cls-5" transform="translate(275.58 364.88)">81%</text><text class="cls-5" transform="translate(275.58 396.81)">81%</text><text class="cls-5" transform="translate(275.58 428.74)">81%</text><text class="cls-5" transform="translate(275.58 460.67)">81%</text><text class="cls-5" transform="translate(272.99 492.59)">80%</text><text class="cls-5" transform="translate(272.99 524.52)">80%</text><text class="cls-5" transform="translate(623.25 109.46)">80%</text><text class="cls-5" transform="translate(623.25 141.39)">80%</text><text class="cls-5" transform="translate(623.25 173.32)">80%</text><text class="cls-5" transform="translate(623.25 205.25)">80%</text><text class="cls-5" transform="translate(622.29 237.17)"><tspan class="cls-16">7</tspan><tspan x="9.23" y="0">9%</tspan></text><text class="cls-5" transform="translate(622.29 269.1)"><tspan class="cls-16">7</tspan><tspan x="9.23" y="0">9%</tspan></text><text class="cls-5" transform="translate(619.58 301.03)"><tspan class="cls-17">7</tspan><tspan x="9.17" y="0">8%</tspan></text><text class="cls-5" transform="translate(619.58 332.96)"><tspan class="cls-17">7</tspan><tspan x="9.16" y="0">8%</tspan></text><text class="cls-18" transform="translate(618.24 364.88)"><tspan class="cls-19">7</tspan><tspan x="9.71" y="0">7%</tspan></text><text class="cls-5" transform="translate(618.24 396.81)"><tspan class="cls-19">7</tspan><tspan x="9.71" y="0">7%</tspan></text><text class="cls-5" transform="translate(616.24 428.74)"><tspan class="cls-19">7</tspan><tspan x="9.71" y="0">7%</tspan></text><text class="cls-5" transform="translate(614.24 460.67)"><tspan class="cls-20">7</tspan><tspan x="9.14" y="0">6%</tspan></text><text class="cls-5" transform="translate(614.24 492.59)"><tspan class="cls-20">7</tspan><tspan x="9.14" y="0">6%</tspan></text><text class="cls-5" transform="translate(614.24 524.52)"><tspan class="cls-20">7</tspan><tspan x="9.14" y="0">6%</tspan></text><text class="cls-5" transform="translate(947.43 109.46)"><tspan class="cls-20">7</tspan><tspan x="9.14" y="0">6%</tspan></text><text class="cls-5" transform="translate(946.43 141.39)"><tspan class="cls-16">7</tspan><tspan x="9.23" y="0">5%</tspan></text><text class="cls-5" transform="translate(945.43 173.32)"><tspan class="cls-21">7</tspan><tspan x="8.46" y="0">4%</tspan></text><text class="cls-5" transform="translate(943.42 205.25)"><tspan class="cls-22">7</tspan><tspan x="9.12" y="0">3%</tspan></text><text class="cls-5" transform="translate(942.47 237.17)">72%</text><text class="cls-5" transform="translate(942.47 269.1)">72%</text><text class="cls-5" transform="translate(942.47 301.03)">72%</text><text class="cls-5" transform="translate(940.75 332.96)">71%</text><text class="cls-5" transform="translate(938.42 364.88)"><tspan class="cls-20">7</tspan><tspan x="9.14" y="0">0%</tspan></text><text class="cls-5" transform="translate(937.42 396.81)">69%</text><text class="cls-5" transform="translate(935.42 428.74)">68%</text><text class="cls-5" transform="translate(932.42 460.67)">66%</text><text class="cls-5" transform="translate(930.42 492.59)">65%</text><text class="cls-5" transform="translate(928.41 524.52)">64%</text><rect class="cls-4" x="476.22" y="94.92" width="140" height="20.2"/><rect class="cls-4" x="476.22" y="126.85" width="140" height="20.2"/><rect class="cls-4" x="476.22" y="158.77" width="140" height="20.2"/><rect class="cls-4" x="476.22" y="190.7" width="140" height="20.2"/><rect class="cls-4" x="476.22" y="222.63" width="138" height="20.2"/><rect class="cls-4" x="476.22" y="254.56" width="138" height="20.2"/><rect class="cls-4" x="476.22" y="286.48" width="136" height="20.2"/><rect class="cls-4" x="476.22" y="318.41" width="136" height="20.2"/><rect class="cls-23" x="476.22" y="350.34" width="133" height="20.2"/><rect class="cls-4" x="476.22" y="382.27" width="133" height="20.2"/><rect class="cls-4" x="476.22" y="414.19" width="133" height="20.2"/><rect class="cls-4" x="475.97" y="446.12" width="130.5" height="20.2"/><rect class="cls-4" x="475.97" y="478.05" width="131" height="20.2"/><rect class="cls-4" x="475.97" y="509.98" width="131" height="20.2"/><text class="cls-5" transform="translate(415.96 109.46)"><tspan class="cls-9">F</tspan><tspan class="cls-15" x="9.24" y="0">r</tspan><tspan x="15.43" y="0">ance</tspan></text><text class="cls-5" transform="translate(431.45 141.39)">India</text><text class="cls-5" transform="translate(425.56 173.32)">Spain</text><text class="cls-5" transform="translate(446.49 205.25)">UK</text><text class="cls-5" transform="translate(399.97 237.17)">Aust<tspan class="cls-15" x="36.17" y="0">r</tspan><tspan x="42.36" y="0">alia</tspan></text><text class="cls-5" transform="translate(409.74 269.1)">Canada</text><text class="cls-5" transform="translate(393.32 301.03)"><tspan class="cls-22">A</tspan><tspan x="11.31" y="0">g</tspan><tspan class="cls-24" x="21.31" y="0">r</tspan><tspan x="27.3" y="0">entina</tspan></text><text class="cls-5" transform="translate(421.95 332.96)">Japan</text><text class="cls-18" transform="translate(351.91 364.88)">Global <tspan class="cls-25" x="53.4" y="0">A</tspan><tspan class="cls-26" x="63.88" y="0">v</tspan><tspan class="cls-12" x="72.8" y="0">e</tspan><tspan class="cls-15" x="82.28" y="0">r</tspan><tspan x="88.46" y="0" xml:space="preserve">age    </tspan></text><text class="cls-5" transform="translate(413.31 396.81)">G<tspan class="cls-13" x="12.08" y="0">r</tspan><tspan class="cls-12" x="18.06" y="0">eece</tspan></text><text class="cls-5" transform="translate(406.7 428.74)">S<tspan class="cls-27" x="10.39" y="0">w</tspan><tspan class="cls-12" x="23.55" y="0">eden</tspan></text><text class="cls-5" transform="translate(426.84 460.67)">Is<tspan class="cls-15" x="13.18" y="0">r</tspan><tspan x="19.36" y="0">ael</tspan></text><text class="cls-5" transform="translate(377.25 492.59)">Sou<tspan class="cls-28" x="29.85" y="0">t</tspan><tspan x="36.11" y="0">h </tspan><tspan class="cls-29" x="49.89" y="0">A</tspan><tspan x="61.36" y="0">f</tspan><tspan class="cls-24" x="67.39" y="0">r</tspan><tspan x="73.37" y="0">ca</tspan></text><text class="cls-5" transform="translate(377.25 524.52)">Swit<tspan class="cls-20" x="34.03" y="0">z</tspan><tspan x="42.77" y="0">erland</tspan></text><rect class="cls-4" x="809.56" y="94.92" width="131" height="20.2"/><rect class="cls-4" x="809.56" y="126.85" width="131" height="20.2"/><rect class="cls-4" x="809.56" y="158.77" width="127.87" height="20.2"/><rect class="cls-4" x="809.56" y="190.7" width="126" height="20.2"/><rect class="cls-4" x="809.56" y="222.63" width="124" height="20.2"/><rect class="cls-4" x="809.56" y="254.56" width="124" height="20.2"/><rect class="cls-4" x="809.56" y="286.48" width="124" height="20.2"/><rect class="cls-4" x="809.56" y="318.41" width="123" height="20.2"/><rect class="cls-4" x="809.56" y="350.34" width="121" height="20.2"/><rect class="cls-4" x="809.56" y="382.27" width="120" height="20.2"/><rect class="cls-4" x="809.56" y="414.19" width="119" height="20.2"/><rect class="cls-4" x="809.56" y="446.12" width="116" height="20.2"/><rect class="cls-4" x="809.56" y="478.05" width="115" height="20.2"/><rect class="cls-4" x="809.56" y="509.98" width="113" height="20.2"/><text class="cls-5" transform="translate(769.33 109.46)">Italy</text><text class="cls-5" transform="translate(780.26 141.39)">US</text><text class="cls-5" transform="translate(742.84 173.32)">No<tspan class="cls-30" x="21.58" y="0">r</tspan><tspan x="28.06" y="0">w</tspan><tspan class="cls-31" x="41.46" y="0">a</tspan><tspan x="50.33" y="0">y</tspan></text><text class="cls-5" transform="translate(707.17 205.25)">Ne<tspan class="cls-28" x="21.33" y="0">t</tspan><tspan x="27.6" y="0">herlands</tspan></text><text class="cls-5" transform="translate(718.99 237.17)">Gua<tspan class="cls-11" x="31" y="0">t</tspan><tspan x="36.99" y="0">emala</tspan></text><text class="cls-5" transform="translate(749.29 269.1)"><tspan class="cls-9">P</tspan><tspan x="10.17" y="0">oland</tspan></text><text class="cls-5" transform="translate(749.75 301.03)"><tspan class="cls-6">T</tspan><tspan x="9.38" y="0">ur</tspan><tspan class="cls-24" x="25.45" y="0">k</tspan><tspan class="cls-32" x="34.19" y="0">e</tspan><tspan x="43.42" y="0">y</tspan></text><text class="cls-5" transform="translate(719.72 332.96)">Costa Rica</text><text class="cls-5" transform="translate(766.65 364.88)"><tspan class="cls-9">P</tspan><tspan x="10.17" y="0">eru</tspan></text><text class="cls-5" transform="translate(746.44 396.81)">M<tspan class="cls-33" x="14.5" y="0">e</tspan><tspan x="23.81" y="0">xico</tspan></text><text class="cls-5" transform="translate(737.79 428.74)">Sl<tspan class="cls-34" x="14.56" y="0">o</tspan><tspan class="cls-32" x="23.98" y="0">v</tspan><tspan x="32.94" y="0">akia</tspan></text><text class="cls-5" transform="translate(682.09 460.67)">C<tspan class="cls-20" x="11.9" y="0">z</tspan><tspan x="20.64" y="0">ech </tspan><tspan class="cls-9" x="53.14" y="0">R</tspan><tspan x="63.42" y="0">epublic</tspan></text><text class="cls-5" transform="translate(740.55 492.59)"><tspan class="cls-35">P</tspan><tspan x="10.14" y="0">anama</tspan></text><text class="cls-5" transform="translate(729.05 524.52)">Colombia</text><text class="cls-36" transform="translate(281.47 51.07)">TELENT SHOR<tspan class="cls-37" x="151.98" y="0">T</tspan><tspan class="cls-38" x="164.56" y="0">A</tspan><tspan x="179.73" y="0">GE AROUND THE </tspan><tspan class="cls-39" x="366" y="0">W</tspan><tspan x="387.29" y="0">ORLD</tspan></text></g></svg>